<svg width="28" height="28" viewBox="0 0 28 28" fill="none" xmlns="http://www.w3.org/2000/svg">
<path d="M13.3345 0C20.6989 0 26.6689 5.97483 26.6689 13.3452C26.6689 14.2308 26.5828 15.0962 26.4182 15.9335C26.0915 15.0515 25.4628 14.316 24.658 13.8529C24.6653 13.6846 24.669 13.5153 24.669 13.3452C24.669 12.4253 24.5597 11.5309 24.3532 10.6745L19.8762 10.6757C19.9595 11.5396 20.0027 12.4325 20.0027 13.3452C20.0027 13.685 19.9967 14.0221 19.985 14.3559C19.1757 15.0884 18.6673 16.1475 18.6673 17.3254C18.6673 18.1165 18.8966 18.854 19.2922 19.4748C19.2482 19.6519 19.2022 19.8266 19.1543 19.9988C17.9506 20.0629 16.9161 20.7661 16.384 21.7756C16.7149 21.0683 17.009 20.2521 17.2527 19.3492H9.4162C10.2855 22.5703 11.7966 24.6888 13.3345 24.6888C14.396 24.6888 15.4447 23.6795 16.2784 21.9948C16.0999 22.4037 16.0008 22.8552 16.0008 23.3298C16.0008 24.4199 16.2646 25.4066 16.7421 26.2506C15.6543 26.5375 14.5123 26.6902 13.3345 26.6902C5.97004 26.6902 0 20.7155 0 13.3452C0 5.97483 5.97004 0 13.3345 0ZM7.34597 19.35L3.71624 19.3497C4.99393 21.3953 6.90507 23.004 9.17475 23.9006C8.47843 22.8066 7.90381 21.4373 7.48117 19.877L7.34597 19.35ZM6.79282 10.6757H2.31632L2.30999 10.6986C2.10721 11.5477 1.99986 12.4338 1.99986 13.3452C1.99986 14.7543 2.25662 16.1036 2.72589 17.3485L6.95648 17.348C6.76676 16.0816 6.6662 14.7363 6.6662 13.3452C6.6662 12.4325 6.70948 11.5396 6.79282 10.6757ZM8.80555 10.6757C8.71486 11.5301 8.66605 12.4237 8.66605 13.3452C8.66605 14.7589 8.78091 16.1069 8.98568 17.3482H17.6833C17.888 16.1069 18.0028 14.7589 18.0028 13.3452C18.0028 12.4237 17.954 11.5301 17.8634 10.6757H8.80555ZM9.17616 2.78965L9.14562 2.80127C6.41606 3.88834 4.20819 6.0063 3.00204 8.67474L7.06592 8.67522C7.48371 6.33646 8.21278 4.30042 9.17616 2.78965ZM13.3345 2.00146L13.1802 2.00853C11.4931 2.16299 9.86328 4.83423 9.10638 8.67466H17.5626C16.8077 4.84499 15.1849 2.17798 13.5029 2.00989L13.3345 2.00146ZM17.4942 2.78973L17.6366 3.02202C18.5288 4.50639 19.2063 6.45432 19.603 8.67522L23.6668 8.67474C22.5141 6.12433 20.4463 4.0768 17.8824 2.95154L17.4942 2.78973ZM26.0001 21.3283C27.1046 21.3283 28 22.2245 28 23.3298C28 24.819 27.388 26.0121 26.384 26.8189C25.3956 27.6126 24.0711 28 22.667 28C21.263 28 19.9384 27.6126 18.9501 26.8189C18.5983 26.5361 18.2945 26.206 18.0486 25.8324C17.5923 25.1396 17.3341 24.2972 17.3341 23.3298C17.3341 22.4492 17.9026 21.7013 18.6922 21.4336C18.8937 21.3654 19.1094 21.3283 19.3339 21.3283H26.0001ZM25.3335 17.3254C25.3335 18.7993 24.1397 19.994 22.667 19.994C22.6182 19.994 22.5698 19.9928 22.5217 19.9902C21.915 19.9576 21.3619 19.722 20.9296 19.3498C20.366 18.8649 20.0072 18.1485 20.0007 17.348C20.0006 17.3405 20.0006 17.333 20.0006 17.3254C20.0006 15.8517 21.1943 14.6568 22.667 14.6568C23.371 14.6568 24.0113 14.9299 24.488 15.376C25.0083 15.863 25.3335 16.5562 25.3335 17.3254Z" fill="#DD2ED6"/>
</svg>
