<svg width="75" height="59" viewBox="0 0 75 59" fill="none" xmlns="http://www.w3.org/2000/svg">
<path d="M27.502 0.500061C12.6258 0.500061 0.566406 12.5594 0.566406 27.4356C0.566406 42.3118 12.6258 54.3712 27.502 54.3712C42.3782 54.3712 54.4376 42.3118 54.4376 27.4356C54.4376 12.5594 42.3782 0.500061 27.502 0.500061ZM27.7175 42.3041C19.6252 42.3041 13.0645 35.7434 13.0645 27.6511C13.0645 19.5588 19.6252 12.9982 27.7175 12.9982C35.8098 12.9982 42.3704 19.5588 42.3704 27.6511C42.3704 35.7434 35.8102 42.3041 27.7175 42.3041Z" fill="#E28520"/>
<path d="M10.5855 18.4572C10.239 19.2398 9.3236 19.5937 8.54053 19.2476C7.75789 18.9011 7.40363 17.9857 7.75013 17.2026C8.09663 16.4196 9.01201 16.0657 9.79508 16.4122C10.5781 16.7583 10.932 17.6741 10.5855 18.4572Z" fill="#FFF4EB"/>
<path d="M25.4723 51.3355C25.1258 52.1181 24.2104 52.472 23.4273 52.1259C22.6442 51.7794 22.2904 50.864 22.6369 50.0809C22.9834 49.2979 23.8988 48.944 24.6819 49.2905C25.4645 49.6366 25.8188 50.5524 25.4723 51.3355Z" fill="#FFF4EB"/>
<path d="M33.9683 46.3982C33.6218 47.1809 32.7064 47.5347 31.9233 47.1882C31.1407 46.8417 30.7864 45.9263 31.1329 45.1433C31.4794 44.3602 32.3948 44.0064 33.1779 44.3529C33.961 44.6998 34.3152 45.6152 33.9683 46.3982Z" fill="#FFF4EB"/>
<path d="M41.8473 48.3187C41.5008 49.1013 40.5854 49.4552 39.8023 49.1091C39.0192 48.7626 38.6654 47.8472 39.0119 47.0642C39.3584 46.2811 40.2738 45.9273 41.0569 46.2738C41.8395 46.6198 42.1938 47.5356 41.8473 48.3187Z" fill="#FFF4EB"/>
<path d="M42.4058 41.6193C42.0593 42.4019 41.1439 42.7558 40.3608 42.4093C39.5782 42.0628 39.2239 41.1474 39.5704 40.3643C39.9169 39.5813 40.8323 39.2274 41.6154 39.5739C42.3985 39.9209 42.7523 40.8362 42.4058 41.6193Z" fill="#FFF4EB"/>
<path d="M48.5464 34.2213C48.1999 35.0039 47.2845 35.3578 46.5015 35.0113C45.7188 34.6648 45.3646 33.7494 45.7111 32.9663C46.0576 32.1832 46.9729 31.8294 47.756 32.1759C48.5391 32.5228 48.8929 33.4382 48.5464 34.2213Z" fill="#FFF4EB"/>
<path d="M49.3003 25.2425C48.9538 26.0251 48.0384 26.3789 47.2554 26.0324C46.4727 25.6859 46.1185 24.7706 46.465 23.9875C46.8115 23.2044 47.7269 22.8506 48.5099 23.1971C49.293 23.544 49.6468 24.4594 49.3003 25.2425Z" fill="#FFF4EB"/>
<path d="M48.3121 15.996C47.9656 16.7786 47.0502 17.1324 46.2672 16.7864C45.4841 16.4399 45.1303 15.5245 45.4768 14.7414C45.8233 13.9583 46.7386 13.6045 47.5217 13.951C48.3043 14.2971 48.6586 15.2129 48.3121 15.996Z" fill="#FFF4EB"/>
<path d="M41.6519 16.1206C41.3054 16.9032 40.39 17.2571 39.6069 16.9106C38.8243 16.5641 38.47 15.6487 38.8165 14.8656C39.163 14.0825 40.0784 13.7287 40.8615 14.0752C41.6446 14.4221 41.9984 15.3375 41.6519 16.1206Z" fill="#FFF4EB"/>
<path d="M8.97219 36.055C8.6257 36.8376 7.71032 37.1914 6.92725 36.8449C6.14461 36.4984 5.79035 35.5831 6.13685 34.8C6.48335 34.0169 7.39873 33.6631 8.1818 34.0096C8.96487 34.3565 9.31913 35.2719 8.97219 36.055Z" fill="#FFF4EB"/>
<path d="M26.7652 44.871C26.4187 45.6536 25.5034 46.0074 24.7203 45.6614C23.9372 45.3149 23.5834 44.3995 23.9299 43.6164C24.2764 42.8333 25.1918 42.4795 25.9748 42.826C26.7575 43.1721 27.1117 44.0879 26.7652 44.871Z" fill="#FFF4EB"/>
<path d="M9.52688 27.6322C9.18038 28.4148 8.26501 28.7687 7.48194 28.4226C6.69929 28.0761 6.34504 27.1607 6.69154 26.3776C7.03804 25.5946 7.95341 25.2407 8.73648 25.5872C9.51912 25.9333 9.87338 26.8491 9.52688 27.6322Z" fill="#FFF4EB"/>
<path d="M16.2826 40.3945C15.9197 41.1698 14.997 41.5042 14.2217 41.1409C13.4464 40.778 13.1115 39.8553 13.4748 39.08C13.8377 38.3047 14.7604 37.9703 15.5361 38.3332C16.311 38.6965 16.6459 39.6192 16.2826 40.3945Z" fill="#FFF4EB"/>
<path d="M6.81594 21.833C6.46945 22.6156 5.55407 22.9695 4.771 22.623C3.98836 22.2765 3.6341 21.3611 3.9806 20.578C4.3271 19.7949 5.24248 19.4411 6.02555 19.7876C6.80862 20.1345 7.16288 21.0499 6.81594 21.833Z" fill="#FFF4EB"/>
<path d="M15.7925 14.8277C15.446 15.6103 14.5306 15.9641 13.7476 15.6176C12.9649 15.2711 12.6107 14.3558 12.9572 13.5727C13.3037 12.7896 14.219 12.4358 15.0021 12.7823C15.7852 13.1292 16.139 14.0446 15.7925 14.8277Z" fill="#FFF4EB"/>
<path d="M25.4723 7.37657C25.1258 8.15921 24.2104 8.51304 23.4273 8.16697C22.6442 7.82047 22.2904 6.90509 22.6369 6.12201C22.9834 5.33894 23.8988 4.98512 24.6819 5.33162C25.4645 5.67769 25.8188 6.5935 25.4723 7.37657Z" fill="#FFF4EB"/>
<path d="M19.9956 47.6529C19.6491 48.4355 18.7338 48.7893 17.9507 48.4428C17.168 48.0963 16.8138 47.181 17.1603 46.3979C17.5068 45.6148 18.4222 45.261 19.2052 45.6075C19.9883 45.9544 20.3421 46.8698 19.9956 47.6529Z" fill="#FFF4EB"/>
<path d="M31.812 10.6278C31.4655 11.4104 30.5502 11.7643 29.7671 11.4178C28.9845 11.0713 28.6302 10.1559 28.9767 9.37281C29.3232 8.58974 30.2386 8.23591 31.0216 8.58241C31.8047 8.92934 32.159 9.84472 31.812 10.6278Z" fill="#FFF4EB"/>
<path d="M35.816 4.35979C35.4695 5.14243 34.5541 5.49625 33.7711 5.15018C32.988 4.80368 32.6342 3.8883 32.9807 3.10523C33.3272 2.32216 34.2425 1.96833 35.0256 2.31483C35.8083 2.6609 36.1625 3.57671 35.816 4.35979Z" fill="#FFF4EB"/>
<path d="M39.1402 11.4897C38.7937 12.2724 37.8783 12.6262 37.0952 12.2797C36.3126 11.9332 35.9583 11.0178 36.3048 10.2347C36.6513 9.45168 37.5667 9.09785 38.3498 9.44435C39.1328 9.79128 39.4871 10.7067 39.1402 11.4897Z" fill="#FFF4EB"/>
<path d="M18.4527 6.74907C18.1062 7.53171 17.1908 7.88554 16.4077 7.53904C15.6251 7.19254 15.2708 6.27716 15.6173 5.49408C15.9638 4.71101 16.8792 4.35719 17.6623 4.70369C18.4453 5.05062 18.7996 5.966 18.4527 6.74907Z" fill="#FFF4EB"/>
<path opacity="0.3" d="M27.1813 42.2909C19.3377 42.0082 13.0645 35.5643 13.0645 27.6513C13.0645 19.7387 19.3377 13.2944 27.1813 13.0117V0.508423C12.4538 0.680811 0.566406 12.6674 0.566406 27.4358C0.566406 42.2043 12.4538 54.1908 27.1813 54.3632V42.2909Z" fill="#8E4B0E"/>
<path opacity="0.5" d="M65.8126 32.4504H49.7392H46.4591H30.3856C30.3856 32.4504 29.6013 47.4115 41.5008 54.4703H46.4591H49.7392H54.6971C66.5974 47.4115 65.8126 32.4504 65.8126 32.4504Z" fill="#D9E6EE"/>
<path d="M65.8126 32.4504H49.7392H46.4591H30.3856C30.3856 32.4504 29.6013 47.4115 41.5008 54.4703H46.4591H49.7392H54.6971C66.5974 47.4115 65.8126 32.4504 65.8126 32.4504Z" fill="#EABF8C"/>
<path d="M31.0703 39.1528C32.1378 44.0512 34.8197 50.5067 41.5019 54.4703H54.6982C61.3804 50.5067 64.0627 44.0507 65.1303 39.1528H31.0703Z" fill="#9B6539"/>
<path d="M32.9648 44.8644C34.59 48.3798 37.2276 51.9349 41.5023 54.4707H54.6986C58.9734 51.9353 61.6114 48.3798 63.2366 44.8644H32.9648Z" fill="#80522E"/>
<path d="M68.3372 32.4503H66.0509C65.8954 33.4514 65.9229 34.4922 65.9242 35.511H68.3377C69.4121 35.511 70.2955 36.3462 70.3727 37.4025L69.4651 41.3804C68.7893 43.5391 67.6908 43.8179 66.8077 43.8179H63.9564C63.4643 44.8622 62.888 45.8525 62.2188 46.7839C62.5303 46.8433 62.8518 46.8774 63.1807 46.8774H66.8077C68.3665 46.8774 71.1678 46.2736 72.4073 42.2255C72.4181 42.1893 72.4271 42.1544 72.4357 42.1173L73.3994 37.8912C73.4252 37.7796 73.4377 37.6654 73.4377 37.5508C73.4373 34.7387 71.1493 32.4503 68.3372 32.4503Z" fill="#6EBEBF" stroke="#673E20" stroke-width="2" stroke-miterlimit="10" stroke-linecap="round" stroke-linejoin="round"/>
<path d="M54.8397 51.1648H51.5592H46.6013C38.2039 46.1837 37.079 37.2678 36.5817 32.4504H30.3856C30.3856 32.4504 29.6013 47.4115 41.5008 54.4703H46.4591H49.7392H54.6971C56.3352 53.4989 57.7319 52.3767 58.924 51.1644H54.8397V51.1648Z" fill="#C3D1D9"/>
<path d="M65.8126 32.4504H49.7392H46.4591H30.3856C30.3856 32.4504 29.6013 47.4115 41.5008 54.4703H46.4591H49.7392H54.6971C66.5974 47.4115 65.8126 32.4504 65.8126 32.4504Z" stroke="#673E20" stroke-width="2" stroke-miterlimit="10"/>
<path d="M56.6738 36.7226C56.7626 36.642 56.8535 36.5622 56.9458 36.4851C58.0766 35.5383 60.0134 34.0717 61.5744 34.2044C61.6119 34.2074 61.642 34.1967 61.6692 34.1824C61.6752 34.1842 61.6795 34.1876 61.6868 34.188C66.3637 34.6712 61.4278 44.0659 59.4075 45.6204C57.5108 47.0788 56.1709 45.0911 55.5214 43.5185C54.5172 41.0848 54.6504 38.5688 56.6738 36.7226Z" fill="white"/>
<path d="M65.7544 34.9439H56.7148" stroke="#673E20" stroke-width="2" stroke-miterlimit="10" stroke-linecap="round" stroke-linejoin="round"/>
<path d="M50.1992 34.9439H53.7491" stroke="#673E20" stroke-width="2" stroke-miterlimit="10" stroke-linecap="round" stroke-linejoin="round"/>
<path d="M43.7203 42.1769H37.0352" stroke="#673E20" stroke-width="2" stroke-miterlimit="10" stroke-linecap="round" stroke-linejoin="round"/>
<path d="M32.2148 42.1769H34.8412" stroke="#673E20" stroke-width="2" stroke-miterlimit="10" stroke-linecap="round" stroke-linejoin="round"/>
<path d="M31.2891 54.1506H64.9081L61.9568 57.5001H34.4567L31.2891 54.1506Z" fill="#6EBEBF" stroke="#673E20" stroke-width="2" stroke-miterlimit="10" stroke-linecap="round" stroke-linejoin="round"/>
<path d="M65.7877 32.4505C65.0352 30.5219 63.1699 29.1471 60.9733 29.1321C60.4247 29.1282 59.8954 29.2109 59.3972 29.3648C59.4843 28.9429 59.5304 28.5054 59.5304 28.0572C59.5304 24.5009 56.6472 21.6177 53.0904 21.6177C50.165 21.6177 47.6994 23.5695 46.9142 26.2407C45.8721 24.4716 43.953 23.2808 41.7516 23.2808C38.4573 23.2808 35.7857 25.939 35.7594 29.2269C35.5629 29.2032 35.3638 29.1872 35.1613 29.1855C32.9607 29.1704 31.0748 30.525 30.3008 32.4497H65.7877V32.4505Z" fill="white"/>
<path d="M45.2752 31.03C45.411 31.0313 45.5446 31.0412 45.6765 31.0576C45.6937 28.8524 47.4853 27.0694 49.6953 27.0694C51.1718 27.0694 52.4586 27.868 53.1581 29.0545C53.6843 27.2629 55.3379 25.9532 57.2997 25.9532C58.0306 25.9532 58.7185 26.1364 59.3214 26.4575C58.609 23.676 56.0934 21.6181 53.0904 21.6181C50.165 21.6181 47.6994 23.57 46.9142 26.2411C45.8721 24.472 43.953 23.2812 41.7516 23.2812C38.4573 23.2812 35.7857 25.9394 35.7594 29.2273C35.5629 29.2036 35.3638 29.1876 35.1613 29.1859C32.9607 29.1708 31.0748 30.5254 30.3008 32.4501H42.4528C43.0928 31.5851 44.1159 31.0218 45.2752 31.03Z" fill="#F9DDB6"/>
<path d="M65.7877 32.4505C65.0352 30.5219 63.1699 29.1471 60.9733 29.1321C60.4247 29.1282 59.8954 29.2109 59.3972 29.3648C59.4843 28.9429 59.5304 28.5054 59.5304 28.0572C59.5304 24.5009 56.6472 21.6177 53.0904 21.6177C50.165 21.6177 47.6994 23.5695 46.9142 26.2407C45.8721 24.4716 43.953 23.2808 41.7516 23.2808C38.4573 23.2808 35.7857 25.939 35.7594 29.2269C35.5629 29.2032 35.3638 29.1872 35.1613 29.1855C32.9607 29.1704 31.0748 30.525 30.3008 32.4497H65.7877V32.4505Z" stroke="#673E20" stroke-width="2" stroke-miterlimit="10" stroke-linecap="round" stroke-linejoin="round"/>
</svg>
