<svg width="65" height="58" viewBox="0 0 65 58" fill="none" xmlns="http://www.w3.org/2000/svg">
<path d="M30.859 55.0477C30.859 55.9463 26.7444 56.6741 21.6696 56.6741C16.5944 56.6741 12.4805 55.9463 12.4805 55.0477C12.4805 54.1494 16.5948 53.4217 21.6696 53.4217C26.7444 53.4217 30.859 54.1498 30.859 55.0477Z" fill="#CBE9FC" stroke="#673E20" stroke-width="2" stroke-miterlimit="10" stroke-linecap="round" stroke-linejoin="round"/>
<path d="M30.859 54.5395C30.859 55.4381 26.7444 56.1659 21.6696 56.1659C16.5944 56.1659 12.4805 55.4377 12.4805 54.5395C12.4805 53.6417 16.5948 52.9135 21.6696 52.9135C26.7444 52.9135 30.859 53.6417 30.859 54.5395Z" fill="#CBE9FC" stroke="#673E20" stroke-width="2" stroke-miterlimit="10" stroke-linecap="round" stroke-linejoin="round"/>
<path d="M1.37701 2.36842C1.51232 1.87611 2.02068 1.58562 2.51375 1.72055L11.1054 4.07582C12.8281 4.54787 14.4675 6.28738 14.8375 8.03454L19.7017 31.0025L17.8918 31.3855L13.0284 8.41791C12.801 7.34462 11.6742 6.1494 10.6166 5.85967L2.02488 3.50478C1.53143 3.37023 1.2417 2.86149 1.37701 2.36842Z" fill="#CBE9FC" stroke="#673E20" stroke-width="2" stroke-miterlimit="10" stroke-linecap="round" stroke-linejoin="round"/>
<path d="M1.62237 1.95251C2.40211 2.75022 3.47463 3.30789 4.49976 3.71916C5.74047 4.21567 7.04807 4.65867 8.34458 4.98662C9.70454 5.33101 11.4494 5.50072 12.517 6.50903C13.26 7.2108 13.5325 8.0322 13.6999 9.01911C13.8624 9.97582 14.1315 10.8676 14.4201 11.7925C15.0538 13.8195 15.3363 15.8965 15.7009 17.9827C15.8878 19.0495 16.0873 20.1193 16.3751 21.1643C16.5185 21.6849 16.697 22.1918 16.7925 22.7238C16.9791 23.7639 17.1048 24.8138 17.2936 25.8535C17.5344 27.1821 17.919 30.1661 19.6065 30.5552L19.7013 31.0028L17.8914 31.3858L13.028 8.41825C12.8006 7.34496 11.6738 6.14974 10.6161 5.86001L2.02448 3.50512C1.53179 3.36981 1.24168 2.86107 1.37698 2.36838C1.42209 2.20478 1.50885 2.06336 1.62237 1.95251Z" fill="#CCCCCC"/>
<path d="M12.7358 8.36713C12.784 8.59341 13.0057 8.73789 13.2319 8.69011L14.6966 8.37975C14.9229 8.33159 15.0674 8.10951 15.0196 7.88324C14.9714 7.65734 14.7494 7.51286 14.5235 7.56102L13.058 7.87139C12.8325 7.91916 12.6876 8.14124 12.7358 8.36713Z" fill="#CBE9FC" stroke="#673E20" stroke-width="2" stroke-miterlimit="10" stroke-linecap="round" stroke-linejoin="round"/>
<path d="M12.4576 7.70209C12.5685 7.90467 12.8234 7.9792 13.0256 7.86797L14.3401 7.14939C14.5423 7.03778 14.6172 6.78398 14.5059 6.5814C14.3955 6.37844 14.1405 6.3039 13.938 6.41475L12.6239 7.13333C12.4213 7.24494 12.3468 7.49912 12.4576 7.70209Z" fill="#CBE9FC" stroke="#673E20" stroke-width="2" stroke-miterlimit="10" stroke-linecap="round" stroke-linejoin="round"/>
<path d="M11.9304 6.83586C12.0413 7.03844 12.2958 7.11297 12.4984 7.00175L13.8125 6.28354C14.0151 6.17193 14.0896 5.91814 13.9788 5.71556C13.8679 5.51259 13.6134 5.43806 13.4104 5.54891L12.0971 6.26787C11.8941 6.37872 11.8192 6.6329 11.9304 6.83586Z" fill="#CBE9FC" stroke="#673E20" stroke-width="2" stroke-miterlimit="10" stroke-linecap="round" stroke-linejoin="round"/>
<path d="M11.3532 6.36758C11.5027 6.54379 11.7668 6.56558 11.9426 6.41613L13.0851 5.44757C13.2609 5.29773 13.2827 5.03362 13.1333 4.85741C12.9838 4.6812 12.7197 4.65942 12.5435 4.80887L11.401 5.77743C11.2256 5.92649 11.2038 6.191 11.3532 6.36758Z" fill="#CBE9FC" stroke="#673E20" stroke-width="2" stroke-miterlimit="10" stroke-linecap="round" stroke-linejoin="round"/>
<path d="M11.9371 18.4924C11.7222 18.1442 11.6145 17.7368 11.6531 17.3102C11.736 16.3883 12.4729 15.6563 13.4193 15.4492C13.4189 15.4289 13.4163 15.409 13.4163 15.3888C13.4163 13.9635 14.7005 12.808 16.2841 12.808C16.5543 12.808 16.8143 12.8443 17.0619 12.9066C17.3796 12.4082 17.9758 12.0714 18.6612 12.0714C18.7028 12.0714 18.7437 12.0745 18.785 12.0772C19.1305 11.0841 20.161 10.3636 21.3784 10.3636C22.621 10.3636 23.6668 11.1147 23.9909 12.1391C24.1553 12.0955 24.3288 12.0714 24.5092 12.0714C25.255 12.0714 25.8956 12.4705 26.1861 13.0434C26.5492 12.894 26.952 12.808 27.3775 12.808C28.9618 12.808 30.2461 13.9635 30.2461 15.3888C30.2461 15.5099 30.2338 15.6284 30.2155 15.745C30.6443 15.9376 30.9394 16.3352 30.9394 16.7954C30.9394 16.9318 30.9127 17.0618 30.8649 17.1837C31.426 17.5655 31.7902 18.1691 31.7902 18.8502C31.7902 20.0049 30.7502 20.9406 29.4663 20.9406C28.1832 20.9406 13.1778 20.7441 12.4573 20.7441C11.736 20.7441 11.1523 20.2178 11.1523 19.5696C11.1516 19.0872 11.4746 18.6732 11.9371 18.4924Z" fill="#F7DAA2" stroke="#673E20" stroke-width="2" stroke-miterlimit="10" stroke-linecap="round" stroke-linejoin="round"/>
<path d="M23.0462 13.1461C22.6406 13.0941 22.4243 12.3755 22.07 12.197C21.2814 11.7995 20.3671 11.6691 19.4001 13.0222C18.766 12.9653 17.4962 13.2076 16.9432 14.4273C15.9627 13.703 15.1329 13.8937 14.125 14.2465C14.6387 13.8065 15.329 13.5329 16.0942 13.5329C16.3645 13.5329 16.6244 13.5684 16.8717 13.6311C17.1897 13.1327 17.786 12.7956 18.4713 12.7956C18.5126 12.7956 19.0045 12.6518 19.0458 12.6541C19.3913 11.6611 19.9708 11.0878 21.1889 11.0878C22.401 11.0878 23.4242 11.8041 23.7739 12.791C23.5947 13.026 23.3665 13.1877 23.0462 13.1461Z" fill="white"/>
<path d="M11.9378 18.4926C11.723 18.1444 11.6152 17.7369 11.6538 17.3103C11.7196 16.5791 12.1974 15.9687 12.8643 15.6434C12.5582 16.0914 12.609 16.5746 13.2791 16.5963C12.6342 17.7434 14.0007 19.6561 16.4458 19.0395C16.9989 20.5967 21.8329 21.2759 22.7479 18.8618C25.1663 20.0658 28.7198 19.3193 28.0372 16.453C28.63 15.5785 29.1613 14.5231 29.279 13.4609C29.8711 13.9334 30.2461 14.6214 30.2461 15.3893C30.2461 15.5104 30.2338 15.6289 30.2155 15.7455C30.6443 15.9381 30.9394 16.3357 30.9394 16.7959C30.9394 16.9323 30.9127 17.0623 30.8649 17.1842C31.426 17.566 31.7903 18.1696 31.7903 18.8507C31.7903 20.0054 30.7502 20.9411 29.4663 20.9411C28.1832 20.9411 13.1778 20.7446 12.4573 20.7446C11.736 20.7446 11.1523 20.2183 11.1523 19.5701C11.1523 19.0873 11.4753 18.6734 11.9378 18.4926Z" fill="#E8D3CB"/>
<path d="M21.5745 54.4382C18.3214 54.4382 16.9549 53.1734 16.9549 53.1734C16.9549 53.1734 22.4888 51.338 18.6818 44.7706C16.7053 43.9572 12.0934 40.3111 12.0934 35.2837C12.0934 29.0894 14.6772 26.1034 11.8633 21.2652H31.4233C28.6094 26.103 31.1925 29.0894 31.1925 35.2837C31.1925 40.5317 26.1677 44.2737 24.3609 44.86C20.0498 50.8296 25.9968 53.1734 25.9968 53.1734C25.9968 53.1734 25.391 53.8289 23.8361 54.1963" fill="#CBE9FC"/>
<path d="M21.5745 54.4382C18.3214 54.4382 16.9549 53.1734 16.9549 53.1734C16.9549 53.1734 22.4888 51.338 18.6818 44.7706C16.7053 43.9572 12.0934 40.3111 12.0934 35.2837C12.0934 29.0894 14.6772 26.1034 11.8633 21.2652H31.4233C28.6094 26.103 31.1925 29.0894 31.1925 35.2837C31.1925 40.5317 26.1677 44.2737 24.3609 44.86C20.0498 50.8296 25.9968 53.1734 25.9968 53.1734C25.9968 53.1734 25.391 53.8289 23.8361 54.1963" stroke="#673E20" stroke-width="2" stroke-miterlimit="10" stroke-linecap="round" stroke-linejoin="round"/>
<path d="M29.5099 27.3486C29.7285 29.4708 30.4436 31.7125 30.4436 34.8433C30.4436 39.6808 25.8122 43.1296 24.1469 43.6701C22.5805 44.2411 20.299 44.5698 18.9123 43.5879C17.0906 42.8383 12.8398 39.4774 12.8398 34.8433C12.8398 31.7125 13.555 29.4704 13.774 27.3486H29.5099Z" fill="#683C11"/>
<path d="M11.8899 22.16H31.1934C31.7553 22.16 31.7553 20.8513 31.1934 20.8513H11.8899C11.3284 20.8513 11.3284 22.16 11.8899 22.16Z" fill="#CBE9FC" stroke="#673E20" stroke-width="2" stroke-miterlimit="10" stroke-linecap="round" stroke-linejoin="round"/>
<path d="M22.7382 21.852C24.4426 21.7266 26.1863 21.8183 27.8302 21.4124C28.0225 21.365 28.1781 21.2947 28.3019 21.2098H31.1896C31.7534 21.2098 31.7534 22.1601 31.1896 22.1601H19.7305C20.7327 22.05 21.7322 21.9261 22.7382 21.852Z" fill="#CCCCCC"/>
<path d="M18.2734 30.2207C18.2734 30.4596 18.4668 30.653 18.7057 30.653C18.9439 30.653 19.1376 30.4596 19.1376 30.2207C19.1376 29.9822 18.9439 29.7888 18.7057 29.7888C18.4668 29.7888 18.2734 29.9822 18.2734 30.2207Z" fill="white"/>
<path d="M15.9766 32.7527C15.9766 33.5072 16.5881 34.1187 17.3426 34.1187C18.0971 34.1187 18.7091 33.5072 18.7091 32.7527C18.7091 31.9985 18.0971 31.3866 17.3426 31.3866C16.5881 31.3866 15.9766 31.9985 15.9766 32.7527Z" fill="white"/>
<path d="M16.5938 30.5925C16.5938 30.7977 16.7604 30.964 16.9657 30.964C17.1709 30.964 17.3376 30.7974 17.3376 30.5925C17.3376 30.3876 17.1713 30.2206 16.9657 30.2206C16.76 30.2206 16.5938 30.3872 16.5938 30.5925Z" fill="white"/>
<path d="M14.4609 32.4313C14.4609 32.7684 14.7338 33.0414 15.0706 33.0414C15.4073 33.0414 15.6806 32.7688 15.6806 32.4313C15.6806 32.0946 15.4073 31.8213 15.0706 31.8213C14.7338 31.8213 14.4609 32.0946 14.4609 32.4313Z" fill="white"/>
<path d="M16.7461 34.8459C16.7461 35.084 16.9395 35.2774 17.178 35.2774C17.4165 35.2774 17.6095 35.084 17.6095 34.8459C17.6095 34.6066 17.4165 34.4136 17.178 34.4136C16.9395 34.4136 16.7461 34.6066 16.7461 34.8459Z" fill="white"/>
<path d="M15.3125 34.9469C15.3125 35.1292 15.4604 35.2775 15.6431 35.2775C15.8251 35.2775 15.9734 35.1292 15.9734 34.9469C15.9734 34.7646 15.8251 34.6163 15.6431 34.6163C15.4604 34.6167 15.3125 34.7646 15.3125 34.9469Z" fill="white"/>
<path d="M16.4297 37.0729C16.4297 37.5029 16.7787 37.8519 17.2083 37.8519C17.6387 37.8519 17.9873 37.5029 17.9873 37.0729C17.9873 36.6425 17.6383 36.2943 17.2083 36.2943C16.7783 36.2943 16.4297 36.6425 16.4297 37.0729Z" fill="white"/>
<path opacity="0.4" d="M15.3144 32.9913C13.6067 39.8236 20.5234 44.7815 19.1398 44.7815C8.97408 38.6827 13.6193 31.0592 13.9747 28.1111C14.3306 25.1637 13.2076 22.4931 14.5913 22.4931C15.9749 22.4931 16.6885 27.4941 15.3144 32.9913Z" fill="#FACDBD"/>
<path opacity="0.4" d="M17.4713 33.0862C16.0315 39.9804 21.6043 44.5614 21.6043 44.5614C21.6043 44.5614 13.6254 40.2954 17.2408 29.929C17.6361 27.779 16.8911 22.671 16.8911 22.671C16.8911 22.671 18.6302 27.5401 17.4713 33.0862Z" fill="#FACDBD"/>
<path d="M20.5621 49.3305C20.5621 51.1128 19.4062 51.8455 19.7059 51.8455C20.0051 51.8455 21.6472 51.1128 21.6472 49.3305C21.6472 47.5474 20.0051 45.3912 19.7059 45.3912C19.4062 45.3916 20.5621 47.5474 20.5621 49.3305Z" fill="white"/>
<path d="M22.4644 49.0008C22.8214 52.3033 25.1228 53.2183 24.9562 53.2183C24.9027 53.2183 23.7866 54.0692 23.4062 53.854C23.2606 53.771 23.8232 53.2179 23.6608 53.0918C22.9208 52.5189 22.1957 50.9823 22.0845 49.127C21.9779 47.3477 23.2415 45.2646 23.4082 45.2646C23.5748 45.2642 22.2726 47.2292 22.4644 49.0008Z" fill="#C2DDED"/>
<path d="M13.1484 54.4384C13.1484 54.7331 15.2426 55.4039 16.2154 55.4039C17.1886 55.4039 14.5638 54.8092 14.5638 54.5145C14.5638 54.2198 17.4932 53.6254 16.5204 53.6254C15.5477 53.625 13.1484 54.1433 13.1484 54.4384Z" fill="white"/>
<path d="M30.4466 54.4633C30.4466 54.7576 27.0093 55.67 26.0365 55.67C25.0634 55.67 28.2473 54.834 28.2473 54.5393C28.2473 54.2446 26.1019 53.6499 27.0746 53.6499C28.0478 53.6495 30.4466 54.1682 30.4466 54.4633Z" fill="#C2DDED"/>
<path d="M29.7596 28.1111C33.8127 39.1199 24.8097 44.2154 23.8366 44.2154C22.8642 44.2154 29.8073 38.4526 25.3888 28.5392C25.0746 27.8332 22.7461 22.4931 22.7461 22.4931C22.7461 22.4931 29.2451 22.4931 29.8108 22.4931C30.7835 22.4931 29.3024 24.8082 29.7596 28.1111Z" fill="#CCCCCC"/>
<path d="M12.2031 21.3982C12.2031 21.519 15.5598 21.6165 19.7009 21.6165C23.8419 21.6165 27.1986 21.519 27.1986 21.3982C27.1986 21.2782 23.8419 21.1804 19.7009 21.1804C15.5598 21.1804 12.2031 21.2778 12.2031 21.3982Z" fill="white"/>
<path d="M3.14495 2.25491C3.11247 2.36614 4.95518 2.99872 7.26077 3.66876C9.56597 4.33881 11.461 4.79136 11.4932 4.6809C11.5253 4.57005 9.68255 3.93709 7.37734 3.26743C5.07214 2.597 3.17706 2.14406 3.14495 2.25491Z" fill="white"/>
<path d="M11.4957 6.08398C11.5327 6.12793 11.85 5.92497 12.2039 5.63027C12.5583 5.33558 12.8159 5.06038 12.7784 5.01642C12.7413 4.9717 12.4245 5.17504 12.0702 5.46974C11.7162 5.76482 11.459 6.03964 11.4957 6.08398Z" fill="white"/>
<path d="M12.1581 6.59197C12.1868 6.64242 12.535 6.49832 12.9352 6.26975C13.3354 6.04156 13.6366 5.81605 13.6083 5.76598C13.5796 5.7159 13.2318 5.86 12.8316 6.08819C12.4311 6.31676 12.1295 6.54189 12.1581 6.59197Z" fill="white"/>
<path d="M12.787 7.46638C12.8157 7.51645 13.1635 7.37235 13.5637 7.14416C13.9639 6.91559 14.2658 6.69008 14.2372 6.63962C14.2085 6.58993 13.8607 6.73403 13.4605 6.96222C13.0599 7.19079 12.7587 7.41669 12.787 7.46638Z" fill="white"/>
<path d="M13.0549 8.22213C13.0652 8.27908 13.441 8.25997 13.8947 8.17932C14.3487 8.09867 14.7084 7.98706 14.6981 7.93049C14.6882 7.87354 14.3117 7.89265 13.8584 7.9733C13.4043 8.05433 13.0446 8.16556 13.0549 8.22213Z" fill="white"/>
<path d="M24.9035 16.4477C24.8466 16.2245 24.7224 16.0475 24.5767 15.9107C24.4284 15.7758 24.2545 15.6783 24.0768 15.6229C23.8979 15.5728 23.7183 15.5518 23.565 15.5915C23.4136 15.6328 23.2921 15.7008 23.2 15.8167C23.0853 15.9615 22.8743 15.986 22.7298 15.8709C22.6622 15.8174 22.6209 15.7429 22.6079 15.6638L22.5983 15.6049C22.5421 15.2666 22.3266 15.0407 22.0112 14.9773C21.6978 14.9154 21.3775 15.0346 21.2311 15.3083L21.2131 15.3419C21.1279 15.5009 20.9303 15.5606 20.7713 15.4757L20.7598 15.4692C20.6096 15.3813 20.4517 15.3194 20.2836 15.3033C20.1158 15.2888 19.9388 15.3217 19.7679 15.3966C19.6005 15.4757 19.4392 15.5961 19.3184 15.7559C19.1984 15.9145 19.1109 16.1144 19.1354 16.3453C19.0069 16.1503 18.9985 15.8732 19.0811 15.6374C19.1617 15.3981 19.3146 15.1795 19.5222 15.0163C19.7259 14.8481 19.99 14.7388 20.269 14.7143C20.5492 14.6826 20.8347 14.7491 21.0797 14.8672L20.6088 15.0285C20.7231 14.7418 20.9548 14.4785 21.2441 14.3443C21.5308 14.2037 21.8534 14.1704 22.1576 14.2285C22.4611 14.2866 22.755 14.4452 22.9645 14.6895C23.1766 14.9326 23.2844 15.2494 23.2963 15.543L22.6943 15.3316C22.9083 15.1248 23.2091 14.9838 23.5008 14.9815C23.7913 14.9739 24.0623 15.0526 24.2828 15.194C24.5056 15.3312 24.6876 15.5216 24.8026 15.7448C24.9203 15.9653 24.9605 16.2249 24.9035 16.4477Z" fill="#673E20"/>
<path d="M21.1172 15.2899C21.1172 15.4588 21.512 15.1492 21.892 15.1702C22.6006 15.21 22.7088 15.7676 22.7088 15.5987C22.7088 15.4305 22.6316 14.8843 21.9126 14.8652C21.5323 14.8553 21.1172 15.1213 21.1172 15.2899Z" fill="white"/>
<path d="M22.9805 16.0562C22.9805 16.2244 23.3753 15.9144 23.7552 15.9358C24.4639 15.9759 24.5717 16.5336 24.5717 16.365C24.5717 16.1961 24.4945 15.6499 23.7759 15.6312C23.3952 15.6208 22.9805 15.8869 22.9805 16.0562Z" fill="white"/>
<path d="M19.2703 16.3899C19.3888 16.5099 19.4518 16.0119 19.7377 15.76C20.2694 15.2899 20.738 15.6113 20.6199 15.4913C20.5011 15.3713 20.0626 15.0368 19.5378 15.5288C19.2604 15.7887 19.1514 16.2703 19.2703 16.3899Z" fill="white"/>
<path fill-rule="evenodd" clip-rule="evenodd" d="M49.2179 9.99963C57.6902 9.99963 64.5998 9.12399 64.5998 8.04985C64.5998 6.97637 57.6905 6.1004 49.2179 6.1004C40.7452 6.1004 33.8359 6.97637 33.8359 8.04985C33.8359 9.12399 40.7456 9.99963 49.2179 9.99963Z" fill="#C2C7D8"/>
<path fill-rule="evenodd" clip-rule="evenodd" d="M62.1923 9.09802C59.4604 9.64019 54.6714 10 49.2194 10C43.7674 10 38.978 9.64019 36.2461 9.09802C38.978 8.55618 43.7674 8.19672 49.2194 8.19672C54.6714 8.19672 59.4607 8.55651 62.1923 9.09802Z" fill="#B8BDCA"/>
<path fill-rule="evenodd" clip-rule="evenodd" d="M49.2147 57.6875C54.8432 57.6875 59.433 56.5577 59.433 55.1725C59.433 53.7876 54.8432 52.6578 49.2147 52.6578C43.5863 52.6578 38.9961 53.7876 38.9961 55.1725C38.9961 56.558 43.5866 57.6875 49.2147 57.6875Z" fill="#E3E5EF"/>
<path fill-rule="evenodd" clip-rule="evenodd" d="M50.8192 29.2403C49.8876 34.4888 50.1694 48.2018 50.8745 54.2927H50.8663C50.8719 54.3388 50.8745 54.3747 50.8745 54.4007C50.8745 55.413 47.5616 55.413 47.5616 54.4007C47.5616 54.3747 47.5645 54.3385 47.5701 54.2927H47.5616C48.2667 48.2015 48.5488 34.4888 47.6169 29.2403C47.5454 29.0128 47.2752 28.2899 46.4022 26.964C45.3639 25.3878 34.7177 9.44231 33.9375 8.27435C34.8118 9.24546 41.3195 10.0003 49.2184 10.0003C57.1172 10.0003 63.6246 9.24546 64.4989 8.27435C63.7187 9.44264 53.0728 25.3878 52.0346 26.964C51.1612 28.2899 50.8906 29.0128 50.8192 29.2403Z" fill="#C4C9DA"/>
<path fill-rule="evenodd" clip-rule="evenodd" d="M48.6196 55.1141C48.0326 55.0206 47.5616 54.7829 47.5616 54.4007C47.5616 54.3747 47.5645 54.3385 47.5701 54.2928H47.5616C48.2667 48.2015 48.5488 34.4888 47.6169 29.2403C47.5454 29.0128 47.2752 28.2899 46.4022 26.964C45.3639 25.3878 34.7177 9.44231 33.9375 8.27435C34.748 9.17402 40.3925 9.8877 47.4994 9.98777C47.6725 9.99501 47.8466 10.0003 48.0205 10.0003C48.2213 10.0003 48.4207 9.99929 48.6196 9.99831C48.8184 9.99929 49.0176 10.0003 49.218 10.0003C55.1375 10.0003 60.2754 9.57629 62.8471 8.95511C60.6333 12.2694 51.7788 25.5333 50.8367 26.964C49.964 28.2899 49.6931 29.0131 49.622 29.2403C48.69 34.4888 48.9718 48.2018 49.6769 54.2928H49.669C49.6743 54.3388 49.6769 54.3747 49.6769 54.4007C49.6769 54.7829 49.2059 55.0206 48.6196 55.1141Z" fill="#E3E5EF"/>
<path fill-rule="evenodd" clip-rule="evenodd" d="M46.9964 25.1675C46.1112 23.8227 42.0556 17.7453 38.8312 12.9155C38.6719 12.6765 41.283 12.69 41.1286 12.4579L57.6528 12.5701C57.5116 12.7818 59.8367 12.6357 59.6898 12.8549C56.4177 17.7407 51.9197 24.4466 51.4447 25.1671C49.5716 28.0123 48.243 27.061 46.9964 25.1675Z" fill="#9E3214"/>
<path fill-rule="evenodd" clip-rule="evenodd" d="M46.9964 25.1675C46.1112 23.8227 42.0556 17.7453 38.8312 12.9155C38.6736 12.6788 41.2264 12.6896 41.1319 12.4655L56.555 12.5701C56.4138 12.7818 58.7392 12.6356 58.592 12.8549C55.3199 17.7407 50.8215 24.4465 50.3469 25.1671C49.728 26.107 49.1687 26.632 48.6522 26.846C48.063 26.5975 47.5221 25.9664 46.9964 25.1675Z" fill="#A63715"/>
<path fill-rule="evenodd" clip-rule="evenodd" d="M49.2192 14.1303C55.0027 14.1303 59.7192 13.5058 59.7192 12.7398C59.7192 11.9745 55.0027 11.3497 49.2192 11.3497C43.4357 11.3497 38.7188 11.9741 38.7188 12.7398C38.7188 13.5058 43.4357 14.1303 49.2192 14.1303Z" fill="#AE4B17"/>
<path fill-rule="evenodd" clip-rule="evenodd" d="M42.1416 53.828C39.6362 54.937 39.5108 55.3837 42.5636 56.1567C45.1455 56.8108 48.1318 56.9747 50.7818 56.9806C51.5021 56.9823 51.1396 56.9694 51.8717 57.0208C50.1366 57.3875 47.9498 57.3839 46.1949 57.267C44.8696 57.1791 40.7755 56.5813 40.0503 55.442C39.3623 54.3626 41.639 53.9235 42.1416 53.828Z" fill="white"/>
<path fill-rule="evenodd" clip-rule="evenodd" d="M48.9739 17.3201C50.688 11.902 55.3914 7.97054 58.6194 6.45035C60.4763 5.5757 61.8688 5.79462 61.5034 6.65511C61.3197 7.08635 60.424 6.79666 57.9166 7.83986C55.7176 8.755 51.6334 11.0382 49.5941 17.2128C49.0835 18.7577 48.8504 17.7112 48.9739 17.3201Z" fill="#912711"/>
<path fill-rule="evenodd" clip-rule="evenodd" d="M49.3337 23.5303C55.5001 23.3446 53.9272 15.9086 49.309 17.3077C49.2205 17.3044 49.13 17.3027 49.0385 17.3027C44.3347 15.9432 42.8537 23.7252 49.3337 23.5303Z" fill="#8C2310"/>
<path fill-rule="evenodd" clip-rule="evenodd" d="M52.0874 19.9742C51.9356 20.7501 51.4837 21.4881 50.6768 22.0003C50.5267 22.0948 50.3644 22.1827 50.19 22.261C49.6254 22.5138 48.9305 22.6735 48.0914 22.6988C47.5614 22.7146 47.0844 22.6771 46.6584 22.5955C46.3408 22.5346 46.0514 22.45 45.7891 22.344C45.9184 22.4829 46.0646 22.6129 46.2269 22.7331C46.931 23.2509 47.9505 23.5718 49.3328 23.5304C50.2344 23.503 50.9711 23.321 51.5568 23.034C51.725 22.9513 51.8803 22.8605 52.0235 22.762C52.1417 22.6811 52.251 22.5951 52.3531 22.5053C53.3972 21.5793 53.604 20.194 53.1806 19.0626C53.1224 18.9066 53.0522 18.7562 52.9709 18.6123C52.6279 18.0053 52.0841 17.5158 51.3787 17.2817C51.6976 17.6494 51.9238 18.0938 52.0446 18.5679C52.0683 18.6617 52.0881 18.7568 52.1039 18.8533C52.1302 19.0169 52.1444 19.1831 52.1453 19.3497C52.1467 19.5584 52.1279 19.7674 52.0874 19.9742Z" fill="#781605"/>
<path fill-rule="evenodd" clip-rule="evenodd" d="M47.2502 17.6004C46.2515 17.8134 45.5987 18.7203 45.7916 19.6252C45.9852 20.5302 46.951 21.0911 47.9501 20.8778C50.3811 20.3587 50.0062 17.0122 47.2502 17.6004Z" fill="#952A12"/>
<path fill-rule="evenodd" clip-rule="evenodd" d="M56.717 14.4103C51.5668 23.8461 51.6313 23.3984 51.6313 23.3984C51.6313 23.3984 51.3397 23.5811 51.0839 23.5811C50.8281 23.5811 50.8281 23.5811 50.8281 23.5811L54.3409 14.7839L56.717 14.4103Z" fill="white"/>
<path fill-rule="evenodd" clip-rule="evenodd" d="M47.7914 16.6249C47.9169 16.6578 47.9919 16.7868 47.9593 16.9126C47.9261 17.038 47.7977 17.1131 47.6719 17.0805C47.5459 17.0472 47.4711 16.9192 47.5037 16.7931C47.537 16.667 47.6654 16.5923 47.7914 16.6249Z" fill="#AE4B17"/>
<path fill-rule="evenodd" clip-rule="evenodd" d="M49.1178 16.0513C48.8982 15.9937 48.6727 16.125 48.6151 16.3452C48.5575 16.5651 48.6889 16.7906 48.9091 16.8479C49.129 16.9058 49.3541 16.7738 49.4117 16.5543C49.4697 16.3337 49.3377 16.1092 49.1178 16.0513Z" fill="#AE4B17"/>
<path fill-rule="evenodd" clip-rule="evenodd" d="M49.9139 15.6152C50.0272 15.6449 50.095 15.7604 50.065 15.8736C50.0354 15.9866 49.9199 16.0544 49.8066 16.0247C49.6934 15.9951 49.6256 15.8792 49.6555 15.7663C49.6851 15.6531 49.8007 15.5849 49.9139 15.6152Z" fill="#AE4B17"/>
<path fill-rule="evenodd" clip-rule="evenodd" d="M46.6915 16.0896C46.8614 16.1341 46.9628 16.3075 46.9183 16.4777C46.8736 16.6473 46.7001 16.7487 46.5299 16.7042C46.3604 16.6598 46.259 16.4863 46.3034 16.3164C46.3482 16.1463 46.5223 16.0452 46.6915 16.0896Z" fill="#AE4B17"/>
<path fill-rule="evenodd" clip-rule="evenodd" d="M47.8983 14.6054C48.0112 14.635 48.0794 14.7505 48.0498 14.8638C48.0195 14.9767 47.9043 15.0448 47.791 15.0152C47.6774 14.9849 47.61 14.8697 47.6399 14.7561C47.6695 14.6429 47.7854 14.5754 47.8983 14.6054Z" fill="#AE4B17"/>
<path fill-rule="evenodd" clip-rule="evenodd" d="M50.1041 15.0064C50.0021 15.0867 49.854 15.0693 49.7736 14.9679C49.6927 14.8658 49.7101 14.7177 49.8121 14.637C49.9139 14.5564 50.0623 14.5738 50.1427 14.6756C50.2236 14.7776 50.2062 14.9254 50.1041 15.0064Z" fill="#AE4B17"/>
<path fill-rule="evenodd" clip-rule="evenodd" d="M49.32 15.568C49.2282 15.6404 49.0948 15.6253 49.0224 15.5331C48.9497 15.4419 48.9651 15.3082 49.057 15.2358C49.1485 15.1631 49.2822 15.1789 49.3546 15.2704C49.427 15.3622 49.4115 15.4956 49.32 15.568Z" fill="#AE4B17"/>
<path fill-rule="evenodd" clip-rule="evenodd" d="M52.3619 16.9129C52.2598 16.9935 52.112 16.9761 52.0311 16.8744C51.9507 16.7723 51.9679 16.6242 52.0696 16.5439C52.172 16.4632 52.3198 16.4807 52.4007 16.5821C52.4811 16.6844 52.4636 16.8319 52.3619 16.9129Z" fill="#AE4B17"/>
<path fill-rule="evenodd" clip-rule="evenodd" d="M53.2134 15.9679C53.1113 16.0482 52.9635 16.0311 52.8825 15.9294C52.8022 15.8273 52.8197 15.6792 52.921 15.5985C53.0234 15.5182 53.1712 15.5357 53.2519 15.637C53.3325 15.7391 53.3151 15.8869 53.2134 15.9679Z" fill="#AE4B17"/>
<path fill-rule="evenodd" clip-rule="evenodd" d="M39.5859 10.6557C47.6188 25.3743 47.5194 24.6758 47.5194 24.6758C47.5194 24.6758 47.9187 25.2749 48.318 25.2749C48.7169 25.2749 48.7169 25.2749 48.7169 25.2749L43.6277 11.0046L39.5859 10.6557Z" fill="white"/>
<path fill-rule="evenodd" clip-rule="evenodd" d="M64.6552 8.21146C62.9539 9.87813 54.7786 10.4298 53.049 10.5339C48.3502 10.8157 41.3293 10.6708 36.8721 9.53347C36.1429 9.34748 34.607 9.10784 33.918 8.19928C35.265 9.59339 43.1671 10.2666 50.6506 10.1089C57.0618 9.97327 63.1574 9.18552 64.6552 8.21146Z" fill="white"/>
<path fill-rule="evenodd" clip-rule="evenodd" d="M59.399 12.9023C58.257 14.0206 52.7711 14.3909 51.6104 14.4604C48.4571 14.6493 43.7465 14.5525 40.7555 13.7892C40.2663 13.6644 39.2356 13.5041 38.7734 12.8941C39.6774 13.8297 44.9793 14.2813 50.001 14.1756C54.3025 14.0851 58.3933 13.5558 59.399 12.9023Z" fill="white"/>
</svg>
