<svg width="119" height="119" viewBox="0 0 119 119" fill="none" xmlns="http://www.w3.org/2000/svg">
<circle cx="59.5" cy="59.5" r="58.5" fill="url(#paint0_linear_1532_10172)" stroke="#7EF8DA" stroke-width="2"/>
<path d="M70.1723 64.0342C66.5751 64.0342 63.6973 65.1468 61.5389 66.5376C64.8964 69.8756 66.3353 73.7698 66.5751 74.048L66.8149 74.6043V80.7238H86.0002V75.1606C85.7603 75.1606 81.9233 64.0342 70.1723 64.0342Z" fill="white"/>
<path d="M70.1715 58.4713C74.8071 58.4713 78.5651 54.1125 78.5651 48.7356C78.5651 43.3588 74.8071 39 70.1715 39C65.5359 39 61.778 43.3588 61.778 48.7356C61.778 54.1125 65.5359 58.4713 70.1715 58.4713Z" fill="white"/>
<path d="M40.1945 48.7356C40.1945 43.4506 44.0315 39 48.588 39C53.1445 39 56.9816 43.4506 56.9816 48.7356C56.9816 54.0207 53.1445 58.4713 48.588 58.4713C44.0315 58.4713 40.1945 54.0207 40.1945 48.7356ZM48.588 64.0345C36.8371 64.0345 33 75.1609 33 75.1609V80.7241H64.1761V75.1609C64.1761 75.1609 60.339 64.0345 48.588 64.0345Z" fill="white"/>
<defs>
<linearGradient id="paint0_linear_1532_10172" x1="13" y1="97" x2="103.5" y2="24" gradientUnits="userSpaceOnUse">
<stop stop-color="#068D40"/>
<stop offset="1" stop-color="#27CC6E"/>
</linearGradient>
</defs>
</svg>
