<svg width="249" height="163" viewBox="0 0 249 163" fill="none" xmlns="http://www.w3.org/2000/svg">
<path d="M53.945 75.0461C48.5989 68.8992 45.5273 61.7066 45.5273 54.024C45.5273 31.3674 72.2392 13 105.193 13C138.147 13 164.859 31.3674 164.859 54.024" stroke="url(#paint0_linear_1353_27561)" stroke-width="25" stroke-miterlimit="10"/>
<path d="M146.87 104.343C138.27 96.9637 129.494 89.6504 120.582 81.9934C120.685 82.0921 120.78 82.1945 120.882 82.2895C102.8 66.6135 77.935 64.0538 54.898 68.4418C54.5324 68.4418 53.801 69.1731 53.4354 69.1731C37.3461 72.8298 22.3538 81.6058 15.7719 96.598C11.7495 105.74 12.8465 116.344 18.6972 125.12C32.9581 144.866 56.7264 150.716 79.3976 149.254C92.5616 148.157 105.726 144.5 116.78 136.803" stroke="url(#paint1_linear_1353_27561)" stroke-width="25" stroke-miterlimit="10"/>
<path d="M71.3164 97.5088C72.9582 98.9386 74.6147 100.317 76.2675 101.696C83.4382 108.314 90.331 114.381 97.5017 120.999C99.9846 123.482 102.742 125.965 105.195 128.316C104.42 127.526 103.645 126.733 102.87 125.943C115.156 138.65 131.424 145.82 149.075 148.578C162.864 150.508 175.827 149.682 189.339 146.373C206.163 141.959 222.431 133.688 231.258 117.968C231.533 117.694 231.811 117.416 232.085 117.141C233.741 113.28 235.12 109.696 235.946 105.557C236.498 103.074 236.498 100.591 236.498 98.1122C236.224 92.5979 234.568 87.08 231.811 82.1179C220.778 62.8145 199.544 53.7131 178.31 50.6781C162.59 48.4731 147.422 50.1259 132.529 55.0916C126.806 56.9529 121.277 59.4613 116.162 62.6097" stroke="url(#paint2_linear_1353_27561)" stroke-width="25" stroke-miterlimit="10"/>
<path d="M91.7098 137.852C91.7098 137.852 44.2777 165.117 2.72656 114.577" stroke="#00B6F0" stroke-miterlimit="10"/>
<path d="M151.589 95.6366C151.589 95.6366 78.5542 43.9974 45.5273 80.7577" stroke="#00B6F0" stroke-miterlimit="10"/>
<path d="M78.0742 89.6982C78.0742 89.6982 122.78 168.185 194.813 154.772" stroke="#00B6F0" stroke-miterlimit="10"/>
<path d="M110.859 52.9378C110.859 52.9378 192.823 25.6153 220.146 83.7378" stroke="#00B6F0" stroke-miterlimit="10"/>
<path d="M36.1641 61.9772C36.1641 61.9772 50.5713 7.33584 120.113 26.2115" stroke="#00B6F0" stroke-miterlimit="10"/>
<defs>
<linearGradient id="paint0_linear_1353_27561" x1="34.5575" y1="42.1359" x2="175.828" y2="42.1359" gradientUnits="userSpaceOnUse">
<stop stop-color="#00AEEF"/>
<stop offset="0.4944" stop-color="#4D5CA9"/>
<stop offset="1" stop-color="#232162"/>
</linearGradient>
<linearGradient id="paint1_linear_1353_27561" x1="2.40894" y1="107.996" x2="154.013" y2="107.996" gradientUnits="userSpaceOnUse">
<stop stop-color="#00AEEF"/>
<stop offset="0.4944" stop-color="#4D5CA9"/>
<stop offset="1" stop-color="#232162"/>
</linearGradient>
<linearGradient id="paint2_linear_1353_27561" x1="64.1108" y1="99.6622" x2="247.467" y2="99.6622" gradientUnits="userSpaceOnUse">
<stop stop-color="#00AEEF"/>
<stop offset="0.4944" stop-color="#4D5CA9"/>
<stop offset="1" stop-color="#232162"/>
</linearGradient>
</defs>
</svg>
