<svg width="79" height="48" viewBox="0 0 79 48" fill="none" xmlns="http://www.w3.org/2000/svg">
<path d="M68.0293 25.4563C68.0195 25.4563 68.0046 25.4612 67.9948 25.4612C68.8391 21.4816 68.6712 17.1366 66.5333 12.5151C63.5066 5.97291 57.31 1.08478 50.1655 0.176284C40.2312 -1.08772 31.4474 4.5756 27.9467 12.994C26.7666 12.5398 25.4829 12.288 24.1399 12.288C18.0816 12.288 13.1688 17.2008 13.1688 23.2591C13.1688 24.1281 13.2922 24.9576 13.4848 25.7673C10.8531 25.1502 7.96959 25.2193 4.47384 28.0435C1.87671 30.1469 -0.0341011 33.2082 0.000461427 36.5508C0.0695864 42.5548 4.95277 47.3985 10.9716 47.3985H67.501C72.6311 47.3985 77.4698 44.1348 78.6696 39.148C80.4126 31.9096 74.9764 25.4563 68.0293 25.4563Z" fill="url(#paint0_linear_1353_26959)"/>
<defs>
<linearGradient id="paint0_linear_1353_26959" x1="9.31687" y1="-4.9697e-07" x2="69.6811" y2="47.3985" gradientUnits="userSpaceOnUse">
<stop offset="0.21" stop-color="#D1D5DB"/>
<stop offset="1" stop-color="#EEEEEE"/>
</linearGradient>
</defs>
</svg>
