<svg width="1119" height="207" viewBox="0 0 1119 207" fill="none" xmlns="http://www.w3.org/2000/svg">
<g clip-path="url(#clip0_1745_5342)">
<mask id="mask0_1745_5342" style="mask-type:luminance" maskUnits="userSpaceOnUse" x="0" y="0" width="1119" height="207">
<path d="M0 0H1119V191C1119 199.837 1111.84 207 1103 207H16C7.16346 207 0 199.837 0 191V0Z" fill="white"/>
</mask>
<g mask="url(#mask0_1745_5342)">
<path d="M0 0H1119V191C1119 199.837 1111.84 207 1103 207H16C7.16346 207 0 199.837 0 191V0Z" fill="url(#paint0_radial_1745_5342)"/>
<g style="mix-blend-mode:multiply" opacity="0.75" filter="url(#filter0_d_1745_5342)">
<path d="M-194 823.307C-194 1406.69 288.637 1879.62 884 1879.62C1479.36 1879.62 1962 1406.69 1962 823.307C1962 239.923 1479.36 -233.003 884 -233.003C288.637 -233.003 -194 239.923 -194 823.307Z" fill="white"/>
</g>
<g style="mix-blend-mode:multiply" opacity="0.75" filter="url(#filter1_d_1745_5342)">
<path d="M-194 823.307C-194 1274.9 179.916 1641 641.164 1641C1102.41 1641 1476.33 1274.9 1476.33 823.307C1476.33 371.71 1102.41 5.61804 641.164 5.61804C179.916 5.61804 -194 371.71 -194 823.307Z" fill="white"/>
</g>
</g>
</g>
<defs>
<filter id="filter0_d_1745_5342" x="-354" y="-385.003" width="2524" height="2480.62" filterUnits="userSpaceOnUse" color-interpolation-filters="sRGB">
<feFlood flood-opacity="0" result="BackgroundImageFix"/>
<feColorMatrix in="SourceAlpha" type="matrix" values="0 0 0 0 0 0 0 0 0 0 0 0 0 0 0 0 0 0 127 0" result="hardAlpha"/>
<feOffset dx="24" dy="32"/>
<feGaussianBlur stdDeviation="92"/>
<feComposite in2="hardAlpha" operator="out"/>
<feColorMatrix type="matrix" values="0 0 0 0 0.0235294 0 0 0 0 0.0313726 0 0 0 0 0.34902 0 0 0 0.75 0"/>
<feBlend mode="normal" in2="BackgroundImageFix" result="effect1_dropShadow_1745_5342"/>
<feBlend mode="normal" in="SourceGraphic" in2="effect1_dropShadow_1745_5342" result="shape"/>
</filter>
<filter id="filter1_d_1745_5342" x="-354" y="-146.382" width="2038.33" height="2003.38" filterUnits="userSpaceOnUse" color-interpolation-filters="sRGB">
<feFlood flood-opacity="0" result="BackgroundImageFix"/>
<feColorMatrix in="SourceAlpha" type="matrix" values="0 0 0 0 0 0 0 0 0 0 0 0 0 0 0 0 0 0 127 0" result="hardAlpha"/>
<feOffset dx="24" dy="32"/>
<feGaussianBlur stdDeviation="92"/>
<feComposite in2="hardAlpha" operator="out"/>
<feColorMatrix type="matrix" values="0 0 0 0 0.0235294 0 0 0 0 0.0313726 0 0 0 0 0.34902 0 0 0 0.75 0"/>
<feBlend mode="normal" in2="BackgroundImageFix" result="effect1_dropShadow_1745_5342"/>
<feBlend mode="normal" in="SourceGraphic" in2="effect1_dropShadow_1745_5342" result="shape"/>
</filter>
<radialGradient id="paint0_radial_1745_5342" cx="0" cy="0" r="1" gradientUnits="userSpaceOnUse" gradientTransform="translate(559.5 103.5) rotate(90) scale(312.417 406.024)">
<stop stop-color="#4583DF"/>
<stop offset="1" stop-color="#5E27D2"/>
</radialGradient>
<clipPath id="clip0_1745_5342">
<rect width="1119" height="207" fill="white"/>
</clipPath>
</defs>
</svg>
