<svg width="274" height="144" viewBox="0 0 274 144" fill="none" xmlns="http://www.w3.org/2000/svg">
<rect x="9.5" y="0.5" width="43" height="42" rx="7.5" stroke="#BABEBC"/>
<path d="M21.2778 21.5C21.2778 21.9283 21.9181 22.6741 23.4028 23.4062C25.325 24.3532 28.0514 24.9211 31 24.9211C33.9486 24.9211 36.675 24.3532 38.5972 23.4062C40.0819 22.6741 40.7222 21.9283 40.7222 21.5V18.5292C38.4306 19.9249 34.9264 20.8158 31 20.8158C27.0736 20.8158 23.5694 19.9236 21.2778 18.5292V21.5ZM40.7222 25.3713C38.4306 26.7671 34.9264 27.6579 31 27.6579C27.0736 27.6579 23.5694 26.7657 21.2778 25.3713V28.3421C21.2778 28.7704 21.9181 29.5162 23.4028 30.2483C25.325 31.1953 28.0514 31.7632 31 31.7632C33.9486 31.7632 36.675 31.1953 38.5972 30.2483C40.0819 29.5162 40.7222 28.7704 40.7222 28.3421V25.3713ZM18.5 28.3421V14.6579C18.5 11.2574 24.0972 8.5 31 8.5C37.9028 8.5 43.5 11.2574 43.5 14.6579V28.3421C43.5 31.7426 37.9028 34.5 31 34.5C24.0972 34.5 18.5 31.7426 18.5 28.3421ZM31 18.0789C33.9486 18.0789 36.675 17.5111 38.5972 16.5641C40.0819 15.832 40.7222 15.0862 40.7222 14.6579C40.7222 14.2296 40.0819 13.4838 38.5972 12.7517C36.675 11.8047 33.9486 11.2368 31 11.2368C28.0514 11.2368 25.325 11.8047 23.4028 12.7517C21.9181 13.4838 21.2778 14.2296 21.2778 14.6579C21.2778 15.0862 21.9181 15.832 23.4028 16.5641C25.325 17.5111 28.0514 18.0789 31 18.0789Z" fill="#6B21A8" fill-opacity="0.8"/>
<rect x="63.5" y="0.5" width="42" height="42" rx="7.5" stroke="#BABEBC"/>
<path d="M97.4962 25.2601C97.5156 25.1476 97.5156 25.0326 97.4962 24.9201C97.4962 24.9201 97.4962 24.8701 97.4962 24.8401C97.4792 24.7276 97.4419 24.6192 97.3862 24.5201L89.3862 10.5201C89.299 10.3608 89.1701 10.2282 89.0133 10.1366C88.8565 10.045 88.6777 9.99778 88.4962 10.0001H80.4962C80.3216 10.0011 80.1504 10.0478 79.9996 10.1356C79.8487 10.2233 79.7234 10.3489 79.6362 10.5001C79.5484 10.6521 79.5022 10.8245 79.5022 11.0001C79.5022 11.1756 79.5484 11.3481 79.6362 11.5001L83.3462 18.0001L76.4962 30.0001L73.6462 25.0001L79.0262 15.5901C79.1588 15.3593 79.1943 15.0854 79.1249 14.8285C79.0555 14.5715 78.8869 14.3527 78.6562 14.2201C78.4254 14.0875 78.1515 14.052 77.8945 14.1213C77.6376 14.1907 77.4188 14.3593 77.2862 14.5901L71.6262 24.5001C71.5384 24.6521 71.4922 24.8245 71.4922 25.0001C71.4922 25.1756 71.5384 25.3481 71.6262 25.5001L75.6262 32.5001L75.7862 32.7101C75.865 32.7879 75.9563 32.8521 76.0562 32.9001H76.1362C76.2488 32.9557 76.3709 32.9897 76.4962 33.0001H92.4962C92.6724 33.0008 92.8456 32.9549 92.9984 32.8671C93.1512 32.7793 93.2781 32.6527 93.3662 32.5001L97.3662 25.5001C97.4048 25.4306 97.435 25.3567 97.4562 25.2801L97.4962 25.2601ZM87.9162 12.0001L94.7762 24.0001H89.0762L82.2162 12.0001H87.9162ZM86.7762 24.0001H82.2162L84.4962 20.0001L86.7762 24.0001ZM91.9162 31.0001H78.2162L81.0762 26.0001H94.7762L91.9162 31.0001Z" fill="#6B21A8" fill-opacity="0.8"/>
<rect x="116.5" y="0.5" width="42" height="42" rx="7.5" stroke="#BABEBC"/>
<path d="M143.502 19.5H142.242C141.868 18.051 141.095 16.736 140.011 15.7044C138.927 14.6728 137.575 13.966 136.109 13.6643C134.643 13.3626 133.122 13.478 131.719 13.9976C130.315 14.5171 129.086 15.4199 128.17 16.6034C127.254 17.7868 126.688 19.2035 126.537 20.6924C126.386 22.1812 126.655 23.6826 127.315 25.026C127.975 26.3693 128.998 27.5007 130.268 28.2916C131.539 29.0824 133.006 29.5011 134.502 29.5H143.502C144.828 29.5 146.1 28.9732 147.038 28.0355C147.975 27.0979 148.502 25.8261 148.502 24.5C148.502 23.1739 147.975 21.9021 147.038 20.9645C146.1 20.0268 144.828 19.5 143.502 19.5Z" stroke="#6B21A8" stroke-opacity="0.8" stroke-width="2" stroke-linecap="round" stroke-linejoin="round"/>
<rect x="169.5" y="0.5" width="42" height="42" rx="7.5" stroke="#BABEBC"/>
<path d="M199.5 31.5H181.5C179.8 31.5 178.5 30.2 178.5 28.5V13.5C178.5 12.4 179.4 11.5 180.5 11.5H197.5V13.5H180.5V28.5C180.5 29.1 180.9 29.5 181.5 29.5H199.5C200.1 29.5 200.5 29.1 200.5 28.5V17.5H184.5V27.5H182.5V17.5C182.5 16.4 183.4 15.5 184.5 15.5H200.5C201.6 15.5 202.5 16.4 202.5 17.5V28.5C202.5 30.2 201.2 31.5 199.5 31.5Z" fill="#6B21A8" fill-opacity="0.8"/>
<rect x="222.5" y="0.5" width="42" height="42" rx="7.5" stroke="#BABEBC"/>
<path d="M256.496 25.2601C256.516 25.1476 256.516 25.0326 256.496 24.9201C256.496 24.9201 256.496 24.8701 256.496 24.8401C256.479 24.7276 256.442 24.6192 256.386 24.5201L248.386 10.5201C248.299 10.3608 248.17 10.2282 248.013 10.1366C247.857 10.045 247.678 9.99778 247.496 10.0001H239.496C239.322 10.0011 239.15 10.0478 239 10.1356C238.849 10.2233 238.723 10.3489 238.636 10.5001C238.548 10.6521 238.502 10.8245 238.502 11.0001C238.502 11.1756 238.548 11.3481 238.636 11.5001L242.346 18.0001L235.496 30.0001L232.646 25.0001L238.026 15.5901C238.159 15.3593 238.194 15.0854 238.125 14.8285C238.056 14.5715 237.887 14.3527 237.656 14.2201C237.425 14.0875 237.151 14.052 236.895 14.1213C236.638 14.1907 236.419 14.3593 236.286 14.5901L230.626 24.5001C230.538 24.6521 230.492 24.8245 230.492 25.0001C230.492 25.1756 230.538 25.3481 230.626 25.5001L234.626 32.5001L234.786 32.7101C234.865 32.7879 234.956 32.8521 235.056 32.9001H235.136C235.249 32.9557 235.371 32.9897 235.496 33.0001H251.496C251.672 33.0008 251.846 32.9549 251.998 32.8671C252.151 32.7793 252.278 32.6527 252.366 32.5001L256.366 25.5001C256.405 25.4306 256.435 25.3567 256.456 25.2801L256.496 25.2601ZM246.916 12.0001L253.776 24.0001H248.076L241.216 12.0001H246.916ZM245.776 24.0001H241.216L243.496 20.0001L245.776 24.0001ZM250.916 31.0001H237.216L240.076 26.0001H253.776L250.916 31.0001Z" fill="#6B21A8" fill-opacity="0.8"/>
<rect x="9.5" y="51" width="43" height="42" rx="7.5" stroke="#BABEBC"/>
<path d="M40 82H22C20.3 82 19 80.7 19 79V64C19 62.9 19.9 62 21 62H38V64H21V79C21 79.6 21.4 80 22 80H40C40.6 80 41 79.6 41 79V68H25V78H23V68C23 66.9 23.9 66 25 66H41C42.1 66 43 66.9 43 68V79C43 80.7 41.7 82 40 82Z" fill="#6B21A8" fill-opacity="0.8"/>
<rect x="63.5" y="51" width="42" height="42" rx="7.5" stroke="#BABEBC"/>
<path d="M74.7778 72C74.7778 72.4283 75.4181 73.1741 76.9028 73.9062C78.825 74.8532 81.5514 75.4211 84.5 75.4211C87.4486 75.4211 90.175 74.8532 92.0972 73.9062C93.5819 73.1741 94.2222 72.4283 94.2222 72V69.0292C91.9306 70.4249 88.4264 71.3158 84.5 71.3158C80.5736 71.3158 77.0694 70.4236 74.7778 69.0292V72ZM94.2222 75.8713C91.9306 77.2671 88.4264 78.1579 84.5 78.1579C80.5736 78.1579 77.0694 77.2657 74.7778 75.8713V78.8421C74.7778 79.2704 75.4181 80.0162 76.9028 80.7483C78.825 81.6953 81.5514 82.2632 84.5 82.2632C87.4486 82.2632 90.175 81.6953 92.0972 80.7483C93.5819 80.0162 94.2222 79.2704 94.2222 78.8421V75.8713ZM72 78.8421V65.1579C72 61.7574 77.5972 59 84.5 59C91.4028 59 97 61.7574 97 65.1579V78.8421C97 82.2426 91.4028 85 84.5 85C77.5972 85 72 82.2426 72 78.8421ZM84.5 68.5789C87.4486 68.5789 90.175 68.0111 92.0972 67.0641C93.5819 66.332 94.2222 65.5862 94.2222 65.1579C94.2222 64.7296 93.5819 63.9838 92.0972 63.2517C90.175 62.3047 87.4486 61.7368 84.5 61.7368C81.5514 61.7368 78.825 62.3047 76.9028 63.2517C75.4181 63.9838 74.7778 64.7296 74.7778 65.1579C74.7778 65.5862 75.4181 66.332 76.9028 67.0641C78.825 68.0111 81.5514 68.5789 84.5 68.5789Z" fill="#6B21A8" fill-opacity="0.8"/>
<rect x="116.5" y="51" width="42" height="42" rx="7.5" stroke="#BABEBC"/>
<path d="M143.502 70H142.242C141.868 68.551 141.095 67.236 140.011 66.2044C138.927 65.1728 137.575 64.466 136.109 64.1643C134.643 63.8626 133.122 63.978 131.719 64.4976C130.315 65.0171 129.086 65.9199 128.17 67.1034C127.254 68.2868 126.688 69.7035 126.537 71.1924C126.386 72.6812 126.655 74.1826 127.315 75.526C127.975 76.8693 128.998 78.0007 130.268 78.7916C131.539 79.5824 133.006 80.0011 134.502 80H143.502C144.828 80 146.1 79.4732 147.038 78.5355C147.975 77.5979 148.502 76.3261 148.502 75C148.502 73.6739 147.975 72.4021 147.038 71.4645C146.1 70.5268 144.828 70 143.502 70Z" stroke="#6B21A8" stroke-opacity="0.8" stroke-width="2" stroke-linecap="round" stroke-linejoin="round"/>
<rect x="169.5" y="51" width="42" height="42" rx="7.5" stroke="#BABEBC"/>
<path d="M203.496 75.7601C203.516 75.6476 203.516 75.5326 203.496 75.4201C203.496 75.4201 203.496 75.3701 203.496 75.3401C203.479 75.2276 203.442 75.1192 203.386 75.0201L195.386 61.0201C195.299 60.8608 195.17 60.7282 195.013 60.6366C194.857 60.545 194.678 60.4978 194.496 60.5001H186.496C186.322 60.5011 186.15 60.5478 186 60.6356C185.849 60.7233 185.723 60.8489 185.636 61.0001C185.548 61.1521 185.502 61.3245 185.502 61.5001C185.502 61.6756 185.548 61.8481 185.636 62.0001L189.346 68.5001L182.496 80.5001L179.646 75.5001L185.026 66.0901C185.159 65.8593 185.194 65.5854 185.125 65.3285C185.056 65.0715 184.887 64.8527 184.656 64.7201C184.425 64.5875 184.151 64.552 183.895 64.6213C183.638 64.6907 183.419 64.8593 183.286 65.0901L177.626 75.0001C177.538 75.1521 177.492 75.3245 177.492 75.5001C177.492 75.6756 177.538 75.8481 177.626 76.0001L181.626 83.0001L181.786 83.2101C181.865 83.2879 181.956 83.3521 182.056 83.4001H182.136C182.249 83.4557 182.371 83.4897 182.496 83.5001H198.496C198.672 83.5008 198.846 83.4549 198.998 83.3671C199.151 83.2793 199.278 83.1527 199.366 83.0001L203.366 76.0001C203.405 75.9306 203.435 75.8567 203.456 75.7801L203.496 75.7601ZM193.916 62.5001L200.776 74.5001H195.076L188.216 62.5001H193.916ZM192.776 74.5001H188.216L190.496 70.5001L192.776 74.5001ZM197.916 81.5001H184.216L187.076 76.5001H200.776L197.916 81.5001Z" fill="#6B21A8" fill-opacity="0.8"/>
<rect x="222.5" y="51" width="42" height="42" rx="7.5" stroke="#BABEBC"/>
<path d="M252.5 82H234.5C232.8 82 231.5 80.7 231.5 79V64C231.5 62.9 232.4 62 233.5 62H250.5V64H233.5V79C233.5 79.6 233.9 80 234.5 80H252.5C253.1 80 253.5 79.6 253.5 79V68H237.5V78H235.5V68C235.5 66.9 236.4 66 237.5 66H253.5C254.6 66 255.5 66.9 255.5 68V79C255.5 80.7 254.2 82 252.5 82Z" fill="#6B21A8" fill-opacity="0.8"/>
<rect x="9.5" y="101.5" width="43" height="42" rx="7.5" stroke="#BABEBC"/>
<path d="M21.2778 122.5C21.2778 122.928 21.9181 123.674 23.4028 124.406C25.325 125.353 28.0514 125.921 31 125.921C33.9486 125.921 36.675 125.353 38.5972 124.406C40.0819 123.674 40.7222 122.928 40.7222 122.5V119.529C38.4306 120.925 34.9264 121.816 31 121.816C27.0736 121.816 23.5694 120.924 21.2778 119.529V122.5ZM40.7222 126.371C38.4306 127.767 34.9264 128.658 31 128.658C27.0736 128.658 23.5694 127.766 21.2778 126.371V129.342C21.2778 129.77 21.9181 130.516 23.4028 131.248C25.325 132.195 28.0514 132.763 31 132.763C33.9486 132.763 36.675 132.195 38.5972 131.248C40.0819 130.516 40.7222 129.77 40.7222 129.342V126.371ZM18.5 129.342V115.658C18.5 112.257 24.0972 109.5 31 109.5C37.9028 109.5 43.5 112.257 43.5 115.658V129.342C43.5 132.743 37.9028 135.5 31 135.5C24.0972 135.5 18.5 132.743 18.5 129.342ZM31 119.079C33.9486 119.079 36.675 118.511 38.5972 117.564C40.0819 116.832 40.7222 116.086 40.7222 115.658C40.7222 115.23 40.0819 114.484 38.5972 113.752C36.675 112.805 33.9486 112.237 31 112.237C28.0514 112.237 25.325 112.805 23.4028 113.752C21.9181 114.484 21.2778 115.23 21.2778 115.658C21.2778 116.086 21.9181 116.832 23.4028 117.564C25.325 118.511 28.0514 119.079 31 119.079Z" fill="#6B21A8" fill-opacity="0.8"/>
<rect x="63.5" y="101.5" width="42" height="42" rx="7.5" stroke="#BABEBC"/>
<path d="M97.4962 126.26C97.5156 126.148 97.5156 126.033 97.4962 125.92C97.4962 125.92 97.4962 125.87 97.4962 125.84C97.4792 125.728 97.4419 125.619 97.3862 125.52L89.3862 111.52C89.299 111.361 89.1701 111.228 89.0133 111.137C88.8565 111.045 88.6777 110.998 88.4962 111H80.4962C80.3216 111.001 80.1504 111.048 79.9996 111.136C79.8487 111.223 79.7234 111.349 79.6362 111.5C79.5484 111.652 79.5022 111.825 79.5022 112C79.5022 112.176 79.5484 112.348 79.6362 112.5L83.3462 119L76.4962 131L73.6462 126L79.0262 116.59C79.1588 116.359 79.1943 116.085 79.1249 115.828C79.0555 115.572 78.8869 115.353 78.6562 115.22C78.4254 115.087 78.1515 115.052 77.8945 115.121C77.6376 115.191 77.4188 115.359 77.2862 115.59L71.6262 125.5C71.5384 125.652 71.4922 125.825 71.4922 126C71.4922 126.176 71.5384 126.348 71.6262 126.5L75.6262 133.5L75.7862 133.71C75.865 133.788 75.9563 133.852 76.0562 133.9H76.1362C76.2488 133.956 76.3709 133.99 76.4962 134H92.4962C92.6724 134.001 92.8456 133.955 92.9984 133.867C93.1512 133.779 93.2781 133.653 93.3662 133.5L97.3662 126.5C97.4048 126.431 97.435 126.357 97.4562 126.28L97.4962 126.26ZM87.9162 113L94.7762 125H89.0762L82.2162 113H87.9162ZM86.7762 125H82.2162L84.4962 121L86.7762 125ZM91.9162 132H78.2162L81.0762 127H94.7762L91.9162 132Z" fill="#6B21A8" fill-opacity="0.8"/>
<rect x="116.5" y="101.5" width="42" height="42" rx="7.5" stroke="#BABEBC"/>
<path d="M146.5 132.5H128.5C126.8 132.5 125.5 131.2 125.5 129.5V114.5C125.5 113.4 126.4 112.5 127.5 112.5H144.5V114.5H127.5V129.5C127.5 130.1 127.9 130.5 128.5 130.5H146.5C147.1 130.5 147.5 130.1 147.5 129.5V118.5H131.5V128.5H129.5V118.5C129.5 117.4 130.4 116.5 131.5 116.5H147.5C148.6 116.5 149.5 117.4 149.5 118.5V129.5C149.5 131.2 148.2 132.5 146.5 132.5Z" fill="#6B21A8" fill-opacity="0.8"/>
<rect x="169.5" y="101.5" width="42" height="42" rx="7.5" stroke="#BABEBC"/>
<path d="M180.778 122.5C180.778 122.928 181.418 123.674 182.903 124.406C184.825 125.353 187.551 125.921 190.5 125.921C193.449 125.921 196.175 125.353 198.097 124.406C199.582 123.674 200.222 122.928 200.222 122.5V119.529C197.931 120.925 194.426 121.816 190.5 121.816C186.574 121.816 183.069 120.924 180.778 119.529V122.5ZM200.222 126.371C197.931 127.767 194.426 128.658 190.5 128.658C186.574 128.658 183.069 127.766 180.778 126.371V129.342C180.778 129.77 181.418 130.516 182.903 131.248C184.825 132.195 187.551 132.763 190.5 132.763C193.449 132.763 196.175 132.195 198.097 131.248C199.582 130.516 200.222 129.77 200.222 129.342V126.371ZM178 129.342V115.658C178 112.257 183.597 109.5 190.5 109.5C197.403 109.5 203 112.257 203 115.658V129.342C203 132.743 197.403 135.5 190.5 135.5C183.597 135.5 178 132.743 178 129.342ZM190.5 119.079C193.449 119.079 196.175 118.511 198.097 117.564C199.582 116.832 200.222 116.086 200.222 115.658C200.222 115.23 199.582 114.484 198.097 113.752C196.175 112.805 193.449 112.237 190.5 112.237C187.551 112.237 184.825 112.805 182.903 113.752C181.418 114.484 180.778 115.23 180.778 115.658C180.778 116.086 181.418 116.832 182.903 117.564C184.825 118.511 187.551 119.079 190.5 119.079Z" fill="#6B21A8" fill-opacity="0.8"/>
<rect x="222.5" y="101.5" width="42" height="42" rx="7.5" stroke="#BABEBC"/>
<path d="M249.502 120.5H248.242C247.868 119.051 247.095 117.736 246.011 116.704C244.927 115.673 243.575 114.966 242.109 114.664C240.643 114.363 239.122 114.478 237.719 114.998C236.315 115.517 235.086 116.42 234.17 117.603C233.254 118.787 232.688 120.203 232.537 121.692C232.386 123.181 232.655 124.683 233.315 126.026C233.975 127.369 234.998 128.501 236.268 129.292C237.539 130.082 239.006 130.501 240.502 130.5H249.502C250.828 130.5 252.1 129.973 253.038 129.036C253.975 128.098 254.502 126.826 254.502 125.5C254.502 124.174 253.975 122.902 253.038 121.964C252.1 121.027 250.828 120.5 249.502 120.5Z" stroke="#6B21A8" stroke-opacity="0.8" stroke-width="2" stroke-linecap="round" stroke-linejoin="round"/>
</svg>
