<svg width="21" height="18" viewBox="0 0 21 18" fill="none" xmlns="http://www.w3.org/2000/svg">
<path d="M18.8092 3.15648L16.8175 2.63477L14.0219 6.87414C13.9084 7.04686 13.7555 7.19017 13.5758 7.29228C13.3961 7.39439 13.1948 7.45238 12.9883 7.46148L14.1006 14.5621C14.1325 14.7664 14.1158 14.9753 14.052 15.172C13.9881 15.3686 13.8789 15.5475 13.7331 15.6941L13.4313 15.996H20.1873V4.94148C20.1882 4.53323 20.0532 4.13629 19.8038 3.81314C19.5543 3.48999 19.2044 3.25899 18.8092 3.15648Z" fill="#1E293B"/>
<path d="M7.70237 7.46148C7.49589 7.45239 7.29452 7.3944 7.11483 7.29229C6.93513 7.19018 6.78225 7.04687 6.66875 6.87414L3.87313 2.63477L1.88141 3.15648C1.48588 3.25883 1.13556 3.4897 0.885513 3.8128C0.635465 4.1359 0.499857 4.53293 0.5 4.94148V15.996H7.25612L6.95427 15.6941C6.80849 15.5475 6.69925 15.3686 6.6354 15.172C6.57155 14.9753 6.55488 14.7664 6.58673 14.5621L7.70237 7.46148Z" fill="#1E293B"/>
<path d="M11.6562 6.64422L10.3438 4.87891L9.03125 6.6475L9.11328 6.92969L7.88281 14.7653L10.3438 17.2262L12.8047 14.7653L11.5742 6.92969L11.6562 6.64422Z" fill="#1E293B"/>
<path d="M15.0918 0L10.3457 2.68064L12.9275 6.15234L15.8828 1.66992L15.0918 0Z" fill="#1E293B"/>
<path d="M4.80859 1.66992L7.76392 6.15234L10.3457 2.68064L5.59966 0L4.80859 1.66992Z" fill="#1E293B"/>
</svg>
