<svg width="32" height="31" viewBox="0 0 32 31" fill="none" xmlns="http://www.w3.org/2000/svg">
<path d="M29.7617 5.99744L26.5245 5.08887L21.9807 12.4717C21.7962 12.7725 21.5478 13.0221 21.2557 13.1999C20.9637 13.3777 20.6364 13.4787 20.3008 13.4946L22.1087 25.8603C22.1605 26.2161 22.1334 26.5799 22.0296 26.9224C21.9259 27.2649 21.7483 27.5764 21.5114 27.8317L21.0208 28.3574H32.0016V9.10601C32.003 8.39504 31.7837 7.70377 31.3782 7.141C30.9727 6.57824 30.404 6.17595 29.7617 5.99744Z" fill="#076BA4"/>
<path d="M11.7062 13.4946C11.3706 13.4787 11.0433 13.3777 10.7513 13.1999C10.4592 13.0221 10.2107 12.7725 10.0262 12.4717L5.48244 5.08887L2.24524 5.99744C1.60237 6.17568 1.033 6.57773 0.626585 7.14041C0.220175 7.70309 -0.000231905 8.39451 1.83103e-07 9.10601V28.3574H10.9809L10.4903 27.8317C10.2534 27.5764 10.0758 27.2649 9.97204 26.9224C9.86826 26.5799 9.84117 26.2161 9.89294 25.8603L11.7062 13.4946Z" fill="#076BA4"/>
<path d="M18.1331 12.0714L15.9998 8.99707L13.8666 12.0771L13.9999 12.5685L12 26.2142L15.9998 30.4999L19.9997 26.2142L17.9997 12.5685L18.1331 12.0714Z" fill="#076BA4"/>
<path d="M23.7179 0.5L16.0039 5.16833L20.2001 11.2143L25.0035 3.40816L23.7179 0.5Z" fill="#076BA4"/>
<path d="M7.00391 3.40816L11.8073 11.2143L16.0035 5.16833L8.28964 0.5L7.00391 3.40816Z" fill="#076BA4"/>
</svg>
