<svg width="225" height="141" viewBox="0 0 225 141" fill="none" xmlns="http://www.w3.org/2000/svg">
<g clip-path="url(#clip0_531_5866)">
<path d="M80.1354 126.463L80.1897 126.462C80.6336 126.452 80.9764 126.022 80.9346 125.526L77.9735 90.418L75.3896 90.6917L79.6416 125.989C79.6747 126.265 79.8872 126.469 80.1354 126.463Z" fill="#8CB4F4"/>
<path d="M51.621 126.463L51.5667 126.462C51.1228 126.452 50.78 126.022 50.8218 125.526L53.783 90.418L56.3668 90.6917L52.1149 125.989C52.0817 126.265 51.8693 126.469 51.621 126.463Z" fill="#8CB4F4"/>
<path d="M101.026 126.463L101.08 126.462C101.524 126.452 101.867 126.022 101.825 125.526L98.8642 90.418L96.2803 90.6917L100.532 125.989C100.566 126.265 100.778 126.469 101.026 126.463Z" fill="#8CB4F4"/>
<path d="M52.5032 85.3114L47.247 54.4961C46.5723 50.3239 49.4844 46.5088 53.2657 46.6114L63.4026 46.8862C66.8996 46.981 69.9401 49.7596 70.912 53.7487L78.6021 85.3114H52.5032Z" fill="#8CB4F4"/>
<path d="M55.6828 85.3114L50.4267 54.4961C49.752 50.3239 52.6641 46.5088 56.4453 46.6114L66.5823 46.8862C70.0793 46.981 73.1197 49.7596 74.0917 53.7487L81.7817 85.3114H55.6828Z" fill="#8CB4F4"/>
<path d="M53.9679 90.9318H94.0738C94.8796 90.9318 95.5389 90.1492 95.5389 89.1925V87.0508C95.5389 86.0942 94.8796 85.3115 94.0738 85.3115H52.5029V89.1925C52.5029 90.1492 53.1622 90.9318 53.9679 90.9318Z" fill="#8CB4F4"/>
<path d="M72.7886 90.9318H98.3552C99.0043 90.9318 99.5354 90.3014 99.5354 89.5307V86.7126C99.5354 85.9421 99.0043 85.3115 98.3552 85.3115H72.7886C72.1395 85.3115 71.6084 85.942 71.6084 86.7126V89.5307C71.6084 90.3014 72.1394 90.9318 72.7886 90.9318Z" fill="#8CB4F4"/>
<path d="M87.4422 78.8634C85.2725 83.3465 82.5435 85.077 82.5435 85.077H71.1904C71.1904 85.077 89.0974 75.4433 87.4422 78.8634Z" fill="#233862"/>
<path d="M101.445 123.402C101.322 124.816 102.979 125.181 104.9 125.319C106.822 125.457 106.237 125.917 108.866 126.517C111.496 127.117 112.559 126.275 112.754 125.855C112.927 125.482 111.707 124.88 110.408 124.201C110.244 124.116 110.081 124.028 109.917 123.941C108.455 123.155 107.645 121.581 106.512 120.116C105.439 118.728 104.449 114.317 104.449 114.317L100.877 113.363C100.877 113.363 101.846 117.335 102.18 119.029C102.376 120.026 102.064 121.133 101.787 121.976C101.638 122.434 101.488 122.903 101.445 123.402Z" fill="#FFB27D"/>
<path d="M104.9 125.319C106.822 125.457 106.237 125.917 108.866 126.517C111.496 127.117 112.559 126.275 112.754 125.854C112.927 125.482 111.708 124.88 110.408 124.2L110.388 124.227C110.388 124.227 108.528 124.95 106.396 124.232C104.658 123.648 102.984 122.39 101.787 121.976C101.638 122.434 101.488 122.903 101.445 123.401C101.322 124.816 102.979 125.181 104.9 125.319Z" fill="#0F2549"/>
<path d="M96.0322 74.2707C94.1101 72.6683 81.3955 69.8118 74.9069 68.9856L67.7352 61.5947C67.7352 61.5947 61.6307 72.3288 61.5823 80.5406C61.5597 84.3695 63.0453 84.7498 63.0456 84.7506C63.0456 84.7506 86.0361 84.9531 87.0439 85.0765C88.6934 85.2784 90.8694 90.1569 91.4132 94.6005C91.9569 99.044 101.544 117.116 101.544 117.116C101.544 117.116 103.543 117.877 104.468 117.813C105.462 117.743 105.922 117.348 105.922 117.348C105.922 117.348 100.367 77.8843 96.0322 74.2707Z" fill="#233862"/>
<path d="M95.4986 123.402C95.3758 124.816 97.0326 125.181 98.9541 125.319C100.876 125.457 100.29 125.917 102.92 126.517C105.549 127.117 106.613 126.275 106.808 125.855C106.981 125.482 105.761 124.88 104.462 124.201C104.298 124.116 104.135 124.028 103.971 123.941C102.508 123.155 101.698 121.581 100.566 120.116C99.4932 118.728 98.5028 114.317 98.5028 114.317L94.9307 113.363C94.9307 113.363 95.9002 117.335 96.234 119.029C96.4302 120.026 96.1174 121.133 95.8409 121.976C95.6919 122.434 95.5413 122.903 95.4986 123.402Z" fill="#FFB27D"/>
<path d="M98.9532 125.319C100.875 125.457 100.289 125.917 102.919 126.517C105.549 127.117 106.612 126.275 106.807 125.854C106.98 125.482 105.76 124.88 104.461 124.2L104.44 124.227C104.44 124.227 102.581 124.95 100.449 124.232C98.711 123.648 97.037 122.39 95.8399 121.976C95.6908 122.434 95.5404 122.903 95.4976 123.401C95.3749 124.816 97.0317 125.181 98.9532 125.319Z" fill="#233862"/>
<path d="M90.0342 74.2707C88.3643 72.8787 83.342 71.7995 77.798 70.9984C76.2651 70.777 75.0067 69.4539 74.6323 67.6754L61.7371 61.5947C61.7371 61.5947 55.6327 72.3288 55.5842 80.5406C55.5617 84.3695 57.0472 84.7498 57.0475 84.7506C57.0475 84.7506 80.038 84.9531 81.0458 85.0765C82.6954 85.2784 84.8713 90.1569 85.4151 94.6005C85.9588 99.044 95.5459 117.116 95.5459 117.116C95.5459 117.116 97.5451 117.877 98.4697 117.813C99.4641 117.743 99.9244 117.348 99.9244 117.348C99.9244 117.348 94.3689 77.8843 90.0342 74.2707Z" fill="#2B478B"/>
<path d="M72.7777 16.9966C71.0056 15.8919 68.3094 15.7425 67.8713 15.6726C62.6295 14.8362 59.4746 23.8789 59.289 26.6189C58.947 31.6693 56.6966 32.4393 53.5289 35.6021C47.1775 41.9441 49.0401 49.3135 52.5131 52.0517C54.5968 53.6946 58.2698 52.0514 58.2698 52.0514C58.3217 52.0945 68.3146 45.4194 73.2406 42.1995C80.6252 40.9533 77.2933 19.8117 72.7777 16.9966Z" fill="#233862"/>
<path d="M71.6847 39.0891C71.7077 39.103 69.3556 40.3731 67.6576 39.7071C66.0604 39.0822 64.6534 36.2273 64.6761 36.2231C65.3693 36.1037 66.0741 35.2919 66.2708 30.4805L66.5778 30.5722L71.7398 32.1211C71.7398 32.1211 71.5355 34.0625 71.4514 35.8981C71.3801 37.4393 71.3946 38.9061 71.6847 39.0891Z" fill="#FFB27D"/>
<path d="M71.74 32.1205C71.74 32.1205 71.74 32.52 71.5471 34.3261C68.6277 33.4519 67.3404 32.3026 66.4326 30.9873L71.74 32.1205Z" fill="#ED975D"/>
<path d="M72.8412 32.3651C72.8412 32.3651 66.0151 33.6846 65.3885 28.6253C64.7618 23.566 63.4587 20.3291 67.7905 19.2727C72.1222 18.2164 73.2101 19.9987 73.7652 21.6271C74.3203 23.2554 74.6006 31.8916 72.8412 32.3651Z" fill="#FFB27D"/>
<path d="M72.8465 19.0604C72.8465 19.0604 69.7466 24.8696 66.9794 26.2454C64.2121 27.6212 62.8525 26.9227 62.8525 26.9227C62.8525 26.9227 64.1115 24.6565 64.4395 21.6137C64.5361 20.7168 65.0284 19.9478 65.7355 19.6116C67.7213 18.6674 71.5626 17.1785 72.8465 19.0604Z" fill="#233862"/>
<path d="M70.125 19.6231C70.125 19.6231 71.9419 20.7289 72.6902 21.7653C73.4123 22.7655 74.2462 25.4793 74.1867 26.6981C74.1867 26.6981 75.0829 20.8574 73.2161 18.8496C71.2367 16.7207 70.125 19.6231 70.125 19.6231Z" fill="#233862"/>
<path d="M77.1458 51.4483C76.9386 67.9206 77.0889 64.4785 75.5712 66.0415C75.2054 66.4178 74.1773 66.6421 72.8241 66.7482C68.5697 67.0835 61.0907 66.2514 60.8062 65.3179C59.8249 62.0881 60.5177 61.0846 59.6989 56.1398C59.6135 55.614 59.5079 55.0447 59.384 54.4249C58.7013 51.0286 58.0369 49.8732 60.4588 44.4171C62.6551 39.4747 65.238 35.4597 65.4432 35.6044C71.2378 39.688 71.4362 36.265 71.4362 36.265C71.4362 36.265 77.2473 43.4136 77.1458 51.4483Z" fill="white"/>
<path d="M71.4355 36.2646C71.4355 36.2646 77.3661 37.4581 78.0662 40.5059C78.7664 43.5536 82.8866 61.4705 82.8866 61.4705C82.8866 61.4705 79.8555 62.117 78.4552 60.4545C77.0549 58.7921 73.5828 45.0313 73.5828 45.0313L71.4355 36.2646Z" fill="white"/>
<path d="M72.8235 66.7486C68.569 67.0839 61.09 66.2518 60.8056 65.3183C59.8242 62.0885 60.5171 61.085 59.6982 56.1402L61.7503 49.2803C61.7503 49.2803 61.411 56.9193 63.3087 58.9286C65.2043 60.9379 71.0782 62.8073 72.0007 64.4861C72.4456 65.2918 72.7382 66.0998 72.8235 66.7486Z" fill="#EBF3FF"/>
<path d="M67.9492 63.5351C67.9492 63.5351 72.1466 62.4255 72.8239 62.8678C73.5012 63.3101 75.1564 64.9206 75.3636 65.4809C75.5709 66.0413 73.8558 65.0555 73.298 64.8779C72.9367 64.7629 71.9858 65.1552 71.5151 65.3415C69.534 66.1255 68.3202 65.7221 68.3202 65.7221L67.9492 63.5351Z" fill="#FFB27D"/>
<path d="M65.4436 35.6045C65.4436 35.6045 59.503 36.0166 57.5519 39.2472C54.8055 43.7948 49.3573 63.1757 52.4797 65.7604C55.9961 68.6714 68.4835 66.522 68.4835 66.522C68.4835 66.522 68.8991 64.216 68.3208 63.1006C67.7426 61.9851 58.3469 60.1832 57.9132 59.6685C57.4796 59.1537 63.3338 49.6295 63.3338 48.085C63.3339 46.5405 65.4436 35.6045 65.4436 35.6045Z" fill="white"/>
<path d="M73.0264 64.2559C73.0264 64.2559 73.9058 65.6027 74.1942 65.7634C74.4825 65.9241 74.6687 65.8839 74.6687 65.8839L74.0761 64.6176L73.0264 64.2559Z" fill="#FFB27D"/>
<path d="M72.8242 62.8682L75.3812 64.3423C75.3812 64.3423 75.2725 64.5536 74.9576 64.5365C74.6427 64.5195 73.8486 64.1747 73.8486 64.1747L72.8242 62.8682Z" fill="#FFB27D"/>
<path d="M82.2428 66.3612H70.3672C70.3672 65.7405 70.791 65.2373 71.3138 65.2373H82.2428V66.3612Z" fill="#ED7D2B"/>
<path d="M82.2096 51.0068H100.57L96.1662 66.3616H77.6865L82.2096 51.0068Z" fill="#ED7D2B"/>
<path d="M100.84 51.0068L96.4359 66.3618H77.9561L82.4793 51.0068H100.84Z" fill="#F99746"/>
<path d="M90.9402 58.5417C90.8261 59.1284 90.333 59.604 89.8389 59.604C89.3447 59.604 89.0366 59.1284 89.1507 58.5417C89.2648 57.9551 89.7579 57.4795 90.252 57.4795C90.7462 57.4795 91.0543 57.9551 90.9402 58.5417Z" fill="white"/>
<path d="M66.2631 69.8158H146.725C147.063 69.8158 147.338 69.4902 147.338 69.0884V67.0887C147.338 66.687 147.063 66.3613 146.725 66.3613H66.2631C65.9247 66.3613 65.6504 66.687 65.6504 67.0887V69.0884C65.6504 69.4902 65.9247 69.8158 66.2631 69.8158Z" fill="#182D4F"/>
<path d="M148.694 126.72L148.728 126.715C149.14 126.654 149.432 126.218 149.38 125.739L142.21 68.1191L139.585 68.2084L148.021 126.14C148.075 126.511 148.372 126.767 148.694 126.72Z" fill="#182D4F"/>
<path d="M63.5685 126.72L63.534 126.715C63.1219 126.654 62.8299 126.218 62.882 125.739L70.0521 68.1191L72.6771 68.2084L64.2408 126.14C64.1868 126.511 63.8903 126.767 63.5685 126.72Z" fill="#182D4F"/>
<path d="M80.1671 126.72L80.1326 126.715C79.7205 126.654 79.4285 126.218 79.4806 125.739L86.6508 68.1191L89.2757 68.2084L80.8396 126.14C80.7855 126.511 80.4889 126.767 80.1671 126.72Z" fill="#182D4F"/>
<path d="M212.612 127.196H-10.2295C-10.3971 127.196 -10.5342 127.033 -10.5342 126.834V126.538C-10.5342 126.34 -10.3971 126.177 -10.2295 126.177H212.612C212.78 126.177 212.917 126.34 212.917 126.538V126.834C212.917 127.033 212.78 127.196 212.612 127.196Z" fill="#2E3552"/>
<path d="M122.468 126.674H136.696C137.38 125.682 137.128 122.024 137.025 120.83C137.003 120.589 136.989 120.449 136.989 120.449C136.989 120.449 132.13 115.835 131.463 119.368C131.442 119.479 131.418 119.587 131.391 119.694C130.55 122.998 126.778 124.5 124.601 124.918C123.185 125.191 122.661 126.065 122.468 126.674Z" fill="#233862"/>
<path d="M161.292 71.7871C160.778 71.7871 136.92 77.1052 132.974 82.9047C131.002 85.8019 130.709 119.262 130.709 119.262C130.709 119.262 133.148 122.852 138.416 120.767C138.416 120.767 142.278 97.8748 141.993 90.9312C141.914 89.0112 158.294 90.6533 161.292 89.7321C164.29 88.8109 171.615 81.0683 170.001 77.2963C168.387 73.5242 161.292 71.7871 161.292 71.7871Z" fill="#233862"/>
<path d="M133.075 63.5938C133.075 63.5938 128.262 63.6709 127.124 64.25C125.986 64.8292 123.677 66.1583 124.295 66.3623C124.913 66.5663 127.861 66.2782 128.498 66.394C129.135 66.5098 129.92 66.3621 130.311 66.3622C130.701 66.3623 132.521 66.3622 132.521 66.3622L133.075 63.5938Z" fill="#FFB27D"/>
<path d="M127.449 49.882C127.449 49.882 125.808 48.49 124.215 48.2198C123.306 48.0656 122.423 47.8734 121.889 47.6501C120.418 47.035 117.477 43.8949 117.699 43.5265C118.413 42.346 121.847 44.8442 122.447 44.576C123.046 44.3078 121.294 42.8292 121.904 42.3092C122.222 42.0376 122.966 43.3989 123.575 43.5356C124.398 43.7205 125.042 45.1007 125.289 45.1726C125.772 45.3129 127.885 47.1784 127.885 47.1784L127.449 49.882Z" fill="#FFB27D"/>
<path d="M158.915 33.627C158.915 33.627 155.252 34.9749 151.642 46.7749C148.033 58.5749 146.662 59.2118 145.35 59.6751C144.038 60.1383 132.521 62.86 132.521 62.86V66.362H150.266C150.266 66.362 156.92 58.8478 158.915 53.7892C160.91 48.7307 158.915 33.627 158.915 33.627Z" fill="#ED7D2B"/>
<path d="M116.18 126.674H130.408C131.092 125.682 130.84 122.024 130.736 120.83C130.715 120.589 130.701 120.449 130.701 120.449C130.701 120.449 125.842 115.835 125.174 119.368C125.154 119.479 125.129 119.587 125.102 119.694C124.262 122.998 120.49 124.5 118.312 124.918C116.897 125.191 116.373 126.065 116.18 126.674Z" fill="#1B3051"/>
<path d="M154.26 71.7871C153.746 71.7871 129.888 77.1052 125.941 82.9047C123.97 85.8019 123.677 119.262 123.677 119.262C123.677 119.262 126.116 122.852 131.384 120.767C131.384 120.767 135.246 97.8748 134.96 90.9312C134.882 89.0112 151.262 90.6533 154.26 89.7321C157.258 88.8109 164.583 81.0683 162.969 77.2963C161.355 73.5242 154.26 71.7871 154.26 71.7871Z" fill="#2B478B"/>
<path d="M155.754 37.3663C157.47 37.1981 159.27 36.655 160.825 36.0558C162.769 35.3069 164.336 34.2122 163.327 32.1026C162.396 30.1583 160.89 25.8149 160.991 22.2168L157.373 25.678L154.916 28.0289C154.916 28.0289 154.926 29.4148 155.195 31.8437C155.244 32.2865 155.301 32.7644 155.369 33.2753C155.424 33.6879 155.264 34.1 154.965 34.3202C154.946 34.3338 154.928 34.3475 154.91 34.3613C153.688 35.2722 154.316 37.5071 155.754 37.3663Z" fill="#FFB27D"/>
<path d="M154.916 27.4576C154.916 27.4576 154.791 27.9608 155.007 29.8191C157.197 29.3947 159.246 27.3202 159.246 27.3202C158.13 26.9566 157.724 25.5257 156.894 25.6591L154.916 27.4576Z" fill="#ED975D"/>
<path d="M152.889 27.8811C152.889 27.8811 161.317 29.5433 162.108 23.2968C162.899 17.0502 164.52 13.0579 159.172 11.7325C153.825 10.4072 152.475 12.6037 151.784 14.6125C151.093 16.6211 150.718 27.2878 152.889 27.8811Z" fill="#FFB27D"/>
<path d="M150.544 11.8479C150.182 13.3521 151.151 15.1843 152.777 15.7874C155.19 16.6827 154.657 20.1971 155.743 20.1494C156.829 20.1017 157.267 18.1293 158.237 19.7052C159.064 21.0492 157.548 22.6429 157.653 23.3799C157.832 24.6454 159.501 27.2344 161.006 27.1046C162.511 26.9746 165.326 18.4853 164.763 15.859C164.2 13.2326 161.947 10.463 159.816 10.081C157.684 9.69902 154.723 10.7918 154.04 10.7918C153.356 10.7918 150.74 11.0354 150.544 11.8479Z" fill="#2B478B"/>
<path d="M170.113 42.2964C168.895 36.4761 165.528 30.3689 163.252 30.374C159.373 30.3828 153.797 31.5979 151.545 38.1915C149.887 43.0477 147.675 70.9822 150.175 72.9689C155.889 77.5106 169.134 86.7815 171.487 77.3271C173.643 68.6642 172.227 52.3981 170.113 42.2964Z" fill="#F99746"/>
<path d="M160.692 36.5049C159.586 33.0876 156.016 31.9062 153.582 34.1543C152.266 35.3702 150.654 37.1017 148.706 39.5636C141.468 48.7151 139.996 48.6582 138.637 48.4692C137.277 48.2802 125.791 45.386 125.791 45.386C125.791 45.386 125.203 45.901 124.857 46.7337C124.394 47.8459 124.627 48.6038 124.627 48.6038C124.177 48.2586 128.699 51.9587 130.949 53.4342C133.921 55.3825 138.4 57.2091 140.184 57.9027C140.689 58.0994 141.235 58.0895 141.735 57.8753C144.383 56.7423 153.274 52.614 160.512 45.4506C162.419 43.563 161.718 39.6735 160.692 36.5049Z" fill="#F99746"/>
<path d="M163.642 30.4298L162.764 28.0811C162.764 28.0811 154.903 28.8421 153.582 34.1536C153.582 34.1536 159.676 30.5437 163.642 30.4298Z" fill="white"/>
<path d="M182.728 126.462L182.783 126.461C183.226 126.452 183.569 126.021 183.527 125.525L180.566 90.417L177.982 90.6907L182.234 125.988C182.268 126.264 182.48 126.468 182.728 126.462Z" fill="#8CB4F4"/>
<path d="M167.485 126.462L167.539 126.461C167.983 126.452 168.326 126.021 168.284 125.525L165.323 90.417L162.739 90.6907L166.991 125.988C167.024 126.264 167.237 126.468 167.485 126.462Z" fill="#8CB4F4"/>
<path d="M138.873 126.462L138.819 126.461C138.375 126.452 138.032 126.021 138.074 125.525L141.035 90.417L143.619 90.6907L139.367 125.988C139.333 126.264 139.121 126.468 138.873 126.462Z" fill="#73A2E5"/>
<path d="M181.891 85.4429L184.701 56.1199C185.07 51.8941 183.879 47.7565 178.742 47.4363L169.706 46.7828C164.35 46.5204 161.932 51.8123 161.254 55.8862L155.89 88.1196L181.891 85.4429Z" fill="#8CB4F4"/>
<path d="M180.38 90.9298H140.275C139.469 90.9298 138.81 90.1472 138.81 89.1906V87.0489C138.81 86.0922 139.469 85.3096 140.275 85.3096H181.846V89.1906C181.846 90.1472 181.186 90.9298 180.38 90.9298Z" fill="#73A2E5"/>
<path d="M180.708 90.9299H157.027C156.402 90.9299 155.89 90.3221 155.89 89.5791V86.6603C155.89 85.9174 156.402 85.3096 157.027 85.3096H181.846V89.579C181.846 90.322 181.334 90.9299 180.708 90.9299Z" fill="#8CB4F4"/>
</g>
<defs>
<clipPath id="clip0_531_5866">
<rect width="224" height="141" fill="white" transform="translate(0.5)"/>
</clipPath>
</defs>
</svg>
