<svg width="110" height="155" viewBox="0 0 110 155" fill="none" xmlns="http://www.w3.org/2000/svg">
<path d="M91.153 138.539C90.8038 136.924 90.0018 134.064 90.188 133.275C90.2148 133.164 89.336 133.237 89.336 133.237C89.336 133.237 89.4989 136.819 89.2522 136.88C88.0463 136.776 86.8881 132.932 86.3678 132.939C84.4693 132.966 82.2624 133.106 79.0276 133.371C78.9007 133.416 78.186 133.811 78.3769 133.95C78.9973 134.408 82.8513 135.709 83.0806 136.158C84.0922 137.483 85.9068 140.289 85.9418 140.884C85.9743 141.424 85.6356 147.314 85.2364 152.411L91.4626 152.041C91.0564 148.47 90.3533 143.63 90.2718 142.271C90.1903 140.881 91.6337 140.77 91.153 138.539Z" fill="#0F172A"/>
<path d="M106.539 141.377C106.968 139.272 107.788 136.195 107.907 135.069C108.024 133.943 107.117 133.357 106.528 132.753C106.024 132.237 105.255 131.549 104.606 131.507C104.048 131.473 102.499 131.643 102.194 132.031C101.336 133.123 101.322 134.26 101.503 135.207C101.927 137.457 102.784 140.322 102.568 142.891C102.412 144.738 101.47 149.476 100.874 153.432L107.273 153.052C106.894 148.484 106.24 142.844 106.539 141.377Z" fill="#0F172A"/>
<path d="M87.5288 17.998L86.3508 19.3809L84.9971 27.0062L88.0584 24.6212L87.5288 17.998Z" fill="white"/>
<path d="M88.7436 53.046C88.2058 53.0984 87.3096 53.8177 87.3096 53.8177C87.7507 53.9062 90.3115 57.66 90.223 58.7193C90.6782 58.3515 91.9085 57.3085 91.9004 57.2608C91.791 56.6439 89.4897 52.9738 88.7436 53.046Z" fill="white"/>
<path d="M86.6943 59.9585C85.9458 60.643 85.0635 61.4473 84.5083 62.0223C84.0881 62.4542 83.4432 62.8511 83.1895 62.8092C82.9357 62.7684 82.9764 62.6171 83.2209 62.2947C83.3873 62.0723 84.7713 60.6476 85.2125 59.9364C85.0425 60.0121 84.4058 60.7652 84.1614 60.9887C83.917 61.2087 82.5551 62.5368 82.3514 62.5182C82.0802 62.4937 81.8683 62.2854 82.1372 61.9106C82.4061 61.5381 84.5572 58.8644 84.5572 58.8644C84.5572 58.8644 83.9519 59.3905 83.3117 60.1215C82.6726 60.8525 81.8357 61.8023 81.4563 61.8966C81.0756 61.9909 81.0756 61.6778 81.1082 61.4752C81.1408 61.2727 81.22 61.1365 81.5401 60.7722C81.8578 60.4078 83.7924 58.1148 83.7924 58.1148L83.1208 58.7352C82.6715 59.0599 80.8568 61.1307 80.8568 61.1307C80.8568 61.1307 80.4564 61.3297 80.34 60.7873C80.2783 60.5045 82.8915 57.2418 83.5317 56.5108C83.7924 56.2128 84.1137 55.9625 84.4047 55.767L80.198 51.459C80.0886 51.3473 79.9477 51.2949 79.8278 51.2949C79.7242 51.2961 79.6428 51.3287 79.5811 51.3927L70.7952 59.976L70.5811 59.7572L70.7941 59.9783C70.7266 60.0423 70.6928 60.1285 70.6916 60.2332C70.6916 60.352 70.7394 60.4835 70.8488 60.5929L84.1963 74.2629C84.3057 74.3735 84.4419 74.4258 84.563 74.4235C84.6642 74.4235 84.7492 74.3909 84.8144 74.3292L93.6002 65.7483C93.6643 65.6854 93.6992 65.5958 93.7015 65.4887C93.7015 65.37 93.6515 65.2349 93.5479 65.1313L87.6196 59.0599C87.4136 59.2823 87.1599 59.5314 86.6943 59.9585Z" fill="white"/>
<path d="M89.3555 24.6794L92.9755 28.4764L96.0671 19.6463L94.7425 16.6152L89.3555 24.6794Z" fill="white"/>
<path d="M104.5 123.881C103.872 121.356 103.449 106.399 103.046 103.445C102.89 102.297 102.516 100.681 102.207 99.3228C102.605 98.8526 102.805 98.4976 102.805 98.4976C102.805 98.4976 102.776 98.2101 102.725 97.7247C102.498 95.5748 101.832 89.515 101.305 87.0182C100.476 83.1026 103.186 69.1579 101.899 58.5399C102.722 58.5946 103.382 58.6098 103.352 58.4608C103.122 56.8451 102.661 55.1911 102.114 53.5918C106.264 50.4443 109.782 47.2259 109.782 47.2259C109.782 47.2259 105.424 24.0915 105.013 22.2069C104.904 21.1337 103.482 20.9126 102.423 21.1477C102.213 21.1943 101.613 21.0324 100.839 20.7729C100.855 20.7601 100.854 20.7485 100.82 20.7368C102.271 19.9372 103.524 18.5485 103.598 15.8422C100.699 18.5171 98.9697 13.8378 98.4435 7.27634C98.1293 3.38161 96.0993 1.7462 94.1333 1.1514C92.5991 0.54845 90.8159 0.578717 89.7753 0.790564C87.5881 1.23405 85.2403 2.23508 84.7386 5.78177C84.3825 7.36132 84.2894 9.03633 84.3208 9.92911C84.5443 16.458 81.5924 17.8268 80.1735 16.572C80.1735 17.5905 80.2736 18.6882 82.1895 20.142C82.5014 20.3783 82.8588 20.5319 83.2406 20.632C82.0906 21.072 81.0849 21.4352 80.5343 21.5982C79.9209 21.4934 78.9163 21.5772 78.5927 23.1207C78.4461 23.8249 77.5347 44.0714 77.5347 44.4253C77.2949 44.3566 76.5744 49.0545 75.876 54.1598L70.3714 59.5363V59.5351C70.1759 59.7248 70.0816 59.981 70.0816 60.2324C70.0816 60.5129 70.1945 60.7992 70.4145 61.0204L74.4769 65.1805C74.3779 66.0582 74.3197 66.6355 74.3197 66.7717C74.3197 67.1186 75.2719 67.3874 76.4498 67.5888C75.9901 68.6946 75.0635 70.9283 74.9972 71.1274C74.9576 71.2496 75.2009 71.6011 75.5373 71.9841C75.1031 72.4904 74.7294 73.0468 74.4582 73.6148H66.4022C65.8505 73.6148 65.4023 74.0618 65.4023 74.6147V92.567C65.4023 93.1199 65.8517 93.5669 66.4022 93.5669H80.7101C80.8439 95.2291 80.965 96.6398 81.0593 97.727C81.185 99.1785 81.2653 100.058 81.2653 100.176C81.5249 100.424 82.1965 100.645 83.13 100.84C84.5466 105.936 85.5732 115.325 85.4894 123.551C85.4824 124.323 83.719 128.129 82.704 129.941C82.4875 130.542 78.9257 131.857 78.2715 132.51C78.069 132.709 77.8664 133.83 78.0119 133.877C81.6564 133.911 84.5408 133.937 86.6674 133.788C87.2517 133.747 88.4914 128.757 89.1979 128.403C89.4785 128.454 89.2864 133.258 89.2864 133.258C89.2864 133.258 90.178 133.41 90.1384 133.271C89.8602 132.265 91.2466 128.85 91.4945 126.726C91.8355 123.794 90.2432 123.143 90.2129 121.34C90.1699 118.805 91.3688 107.481 91.1232 104.563C91.0533 103.717 90.9288 102.691 90.7472 101.639C92.2953 101.716 93.8248 101.754 95.1634 101.752C95.3217 102.75 95.4637 103.684 95.5894 104.515C96.0865 107.798 99.7437 119.284 100.187 122.396C100.628 125.509 101.526 130.608 101.265 133.386C101.156 134.557 102.437 135.033 103.435 136.286C103.79 136.731 104.968 137.708 105.553 137.615C106.234 137.505 106.986 136.6 107.475 135.927C108.045 135.134 107.973 134.183 107.753 132.823C107.536 131.46 105.126 126.406 104.5 123.881ZM98.5367 43.5733C98.8777 41.2581 99.3375 39.1349 99.8555 37.1922C101.329 40.2745 102.465 43.7746 101.657 44.0458C101.313 44.1611 100.291 44.7489 98.9476 45.5683C98.6437 44.7035 98.4715 44.0109 98.5367 43.5733ZM94.742 16.6151L96.0667 19.6461L92.9751 28.4762L89.3551 24.6793L94.742 16.6151ZM91.8996 57.2607C91.9077 57.3084 90.6774 58.3513 90.2222 58.7192C90.3107 57.6599 87.7499 53.906 87.3088 53.8176C87.3088 53.8176 88.205 53.0982 88.7428 53.0459C89.4889 52.9737 91.7901 56.6438 91.8996 57.2607ZM86.3508 19.3808L87.5288 17.9979L88.0584 24.621L84.9971 27.0061L86.3508 19.3808ZM70.8475 60.5886C70.7381 60.4791 70.6904 60.3476 70.6904 60.2289C70.6915 60.1241 70.7265 60.038 70.7928 59.974L70.5798 59.7528L70.794 59.9716L79.5798 51.3883C79.6415 51.3243 79.723 51.2929 79.8266 51.2906C79.9465 51.2906 80.0862 51.3441 80.1967 51.4547L84.4034 55.7626C84.1124 55.9582 83.7912 56.2084 83.5304 56.5064C82.8902 57.2374 80.2771 60.5001 80.3387 60.7829C80.454 61.3265 80.8556 61.1263 80.8556 61.1263C80.8556 61.1263 82.6702 59.0556 83.1195 58.7308L83.7912 58.1104C83.7912 58.1104 81.8566 60.4035 81.5388 60.7678C81.2187 61.1321 81.1396 61.2683 81.107 61.4709C81.0744 61.6734 81.0744 61.9865 81.455 61.8922C81.8356 61.798 82.6714 60.8481 83.3104 60.1171C83.9506 59.385 84.5559 58.86 84.5559 58.86C84.5559 58.86 82.4048 61.5337 82.136 61.9062C81.8671 62.281 82.0789 62.4894 82.3501 62.5138C82.5538 62.5324 83.9169 61.2043 84.1601 60.9843C84.4046 60.762 85.0413 60.0077 85.2112 59.932C84.7712 60.6444 83.3861 62.0691 83.2196 62.2903C82.9752 62.6116 82.9345 62.7629 83.1882 62.8048C83.442 62.8467 84.088 62.4498 84.507 62.0179C85.0622 61.4429 85.9445 60.6386 86.693 59.9542C87.1574 59.527 87.4112 59.2779 87.6149 59.0509L93.5431 65.1223C93.6467 65.2259 93.6968 65.3621 93.6968 65.4797C93.6956 65.5868 93.6595 65.6764 93.5955 65.7392L84.8097 74.3202C84.7445 74.3819 84.6595 74.4145 84.5582 74.4145C84.4372 74.4157 84.2998 74.3633 84.1916 74.2539L70.8475 60.5886ZM76.068 73.6113C76.2124 73.3844 76.3753 73.1667 76.5464 72.9595C76.6419 73.0352 76.7338 73.1015 76.8165 73.1539C77.3752 73.5089 77.6988 73.5659 77.7873 73.126C77.9654 73.5089 78.6696 73.2738 78.6696 72.9211C78.829 73.1259 79.2714 73.0456 79.4611 72.7919C79.4704 73.0654 79.4797 73.339 79.4902 73.6113H76.068Z" fill="black"/>
<path d="M18.3304 138.632C18.3723 137.196 18.8216 136.52 19.1335 136.325C19.634 136.013 23.1842 136.322 23.1842 136.322C23.1842 136.322 24.0584 137.165 25.5448 136.716C26.1711 136.53 26.838 136.161 27.4701 136.003C30.5803 135.227 34.6484 136.001 34.6484 136.001C34.6484 136.001 36.3316 137.194 34.7427 138.375C34.1863 138.79 31.7792 139.025 30.2823 139.8C28.7679 140.588 27.8239 142.756 27.8239 142.756C27.8239 142.756 28.4117 144.672 28.1673 147.447C28.0532 148.742 27.9159 151.208 27.8996 154.068L18.4398 153.792C18.072 144.422 18.3304 138.659 18.3304 138.632Z" fill="#0F172A"/>
<path d="M6.86295 145.732C7.27151 145.566 8.00831 144.667 8.00831 145.241C8.00831 144.258 7.14696 142.375 7.35415 141.313C7.42166 140.959 7.43564 140.618 7.76156 140.333C8.57403 139.622 10.6378 139.012 13.0787 139.106C15.2053 139.188 15.7978 140.206 15.9829 140.578C16.4729 141.56 15.7792 143.687 15.1227 145.158C15.7372 146.101 15.9212 147.082 15.9212 147.325C15.9212 148.151 16.1586 147.926 16.6836 154.349H6.48232C6.30656 147.891 6.35777 150.04 6.86295 145.732Z" fill="#0F172A"/>
<path d="M4.20212 73.9036L3.88086 72.6767C5.59775 70.6526 10.4446 71.0821 10.4446 71.0821C10.4446 71.0821 10.4598 71.4953 10.4446 72.0633C7.06904 72.1855 4.20212 73.9036 4.20212 73.9036Z" fill="white"/>
<path d="M25.596 27.4509L23.8779 25.4802L26.5551 21.7217L28.1696 23.1429L27.5166 26.1972L26.2187 37.935L24.6136 29.2714L25.596 27.4509Z" fill="white"/>
<path d="M33.5469 72.0213C33.5783 71.7152 33.5946 71.0261 33.5946 71.0261C35.0217 70.7817 37.3997 71.5977 38.218 72.0877C38.0737 72.6767 37.8315 73.2366 37.771 73.4018C37.4276 73.0561 35.6572 71.8013 33.5469 72.0213Z" fill="white"/>
<path d="M17.5164 19.8811L17.5199 19.8846L17.762 19.6367L23.2339 25.3415L21.3715 27.5775L22.7951 29.5156L22.8056 29.5144L22.0082 37.6449C20.8431 33.4266 19.5196 28.8847 18.3894 25.6476C18.2672 25.2414 18.1484 24.8933 18.032 24.5849L16.1289 21.3129L17.4896 19.9161C17.5071 19.894 17.5164 19.8811 17.5164 19.8811Z" fill="white"/>
<path d="M0.21875 52.7599C0.21875 52.7599 2.71436 71.6341 3.2044 73.7188C3.28705 74.4218 3.92142 74.3602 4.45337 74.1751C4.44522 75.0166 4.39867 76.545 4.51274 76.8476C4.63729 77.1758 5.08543 78.9323 5.32986 79.015C5.5743 79.0964 5.86181 79.0557 5.86181 79.0557C5.86181 79.0557 6.02594 79.9974 6.4345 80.1999C6.68011 80.3233 6.9967 80.3419 7.21321 80.3384C7.04792 83.4905 6.90825 87.0058 6.96645 89.0742C7.06423 92.593 7.27723 99.5292 7.22601 103.282C7.21321 104.241 7.18295 105.002 7.12941 105.433C6.39376 111.322 5.79313 128.425 6.722 136.349C7.1294 136.514 7.86739 137.413 7.86739 136.84C7.86739 137.821 7.00602 139.705 7.21321 140.766C7.28072 141.121 7.29469 141.461 7.62061 141.746C8.43192 142.457 10.4968 143.069 12.9377 142.974C15.0644 142.893 15.6557 141.874 15.8419 141.502C16.3308 140.521 15.6382 138.394 14.9817 136.921C15.5963 135.98 15.7802 134.997 15.7802 134.754C15.7802 133.93 15.7802 133.835 15.6592 131.809C15.5858 130.632 16.7696 114.146 17.6822 106.659C17.8207 105.523 17.9639 104.392 18.1094 103.282C19.2501 94.5601 20.5037 87.0302 20.5037 87.0302C20.5037 87.0302 20.1801 96.0303 19.6598 103.282C19.4631 106.023 19.2373 108.516 18.9905 110.176C16.9035 124.215 18.2956 133.864 18.2956 133.896C18.2956 135.334 18.7251 136.023 19.0313 136.227C19.5225 136.554 23.0808 136.349 23.0808 136.349C23.0808 136.349 23.9794 135.532 25.4519 136.023C26.0723 136.229 26.7276 136.615 27.3562 136.791C30.4419 137.658 34.531 137.003 34.531 137.003C34.531 137.003 36.2491 135.858 34.6952 134.631C34.1516 134.201 31.7514 133.895 30.2778 133.077C28.7867 132.245 27.9067 130.05 27.9067 130.05C27.9067 130.05 27.7834 127.966 27.6192 125.185C27.4563 122.404 27.3329 114.265 28.4783 108.376C28.6948 107.263 28.9893 105.469 29.3257 103.281C29.6073 101.453 29.9181 99.3512 30.2405 97.114L43.1516 99.1125C43.4216 99.1125 43.6416 98.8914 43.6416 98.6225V80.4653C43.6416 80.1941 43.4216 79.9753 43.1516 79.9753L36.7962 79.3187C37.2164 78.3596 37.6552 76.7475 37.7658 76.2749C37.9229 75.6079 37.5667 75.2052 37.5027 73.4778C37.6133 73.4546 37.7134 73.4313 37.7832 73.4115L37.7786 73.4068C38.1918 73.2334 38.8902 72.7829 39.0054 72.3208C38.889 67.6392 38.5398 55.018 38.1045 52.4875C38.7144 48.2121 37.3456 30.5822 36.8241 28.7559C36.2677 26.8109 28.8461 23.3154 28.3549 22.9895C28.015 22.7637 26.8312 21.6753 26.3272 21.2924C26.5065 19.785 27.0989 18.3929 27.1257 18.1088C27.1269 18.0832 27.8322 17.6223 28.072 16.9099C28.2187 16.4734 28.5143 15.6458 28.5143 15.6458C28.5143 15.6458 28.6971 15.6179 28.8857 15.3013C29.0754 14.9859 30.1067 12.3727 29.6422 11.9478C29.5084 11.8256 29.3 11.7418 29.1697 11.6987C29.335 11.6685 29.6341 11.3169 29.8262 9.33116C29.9053 8.51403 29.9053 5.73092 29.0277 4.46449C28.4759 3.66715 27.6297 2.82673 27.0617 2.82673C26.4936 2.82673 25.7359 2.70102 25.7359 2.70102C25.4193 2.38441 25.0421 1.81641 23.9689 1.81641C22.8946 1.81641 20.6841 2.32157 19.0441 2.95362C17.4005 3.5845 16.4542 4.28057 16.0759 5.41663C15.6952 6.55269 15.1912 10.2158 15.5079 10.7198C15.8885 11.3286 15.8547 11.3507 15.8873 11.4787C15.8873 11.4787 15.381 12.0468 15.6336 12.8045C15.8873 13.5623 16.6008 15.803 17.2469 15.6051C17.4156 16.1533 17.8382 17.7015 17.7264 19.5208C17.5472 19.5906 15.7686 21.822 15.4008 22.0676C15.0329 22.3132 5.03422 24.1186 3.43954 26.0822C1.51895 28.4416 0.709956 45.7677 0.21875 52.7599ZM33.4357 78.8706C33.2134 78.7729 32.9853 78.7379 32.7722 78.8636C32.8654 78.1722 32.9515 77.5332 33.0307 76.9442L33.4357 78.8706ZM28.1698 23.1431L27.5168 26.1975L26.2189 37.9352L24.6126 29.2716L25.595 27.4511L23.877 25.4816L26.5542 21.7219L28.1698 23.1431ZM33.5475 72.0217C33.5789 71.7155 33.5952 71.0264 33.5952 71.0264C35.0223 70.782 37.4003 71.598 38.2186 72.088C38.0742 72.677 37.8321 73.2369 37.7716 73.4022C37.4282 73.0565 35.6578 71.8017 33.5475 72.0217ZM18.0314 24.5853L16.1283 21.3133L17.489 19.9165C17.5064 19.8944 17.5169 19.8816 17.5169 19.8816L17.5204 19.8851L17.7625 19.6372L23.2345 25.3419L21.3709 27.578L22.7945 29.516L22.8061 29.5149L22.0088 37.6453C20.8436 33.427 19.5201 28.8851 18.3899 25.6481C18.2665 25.2407 18.1478 24.8938 18.0314 24.5853ZM3.87952 72.6758C5.59642 70.6516 10.4433 71.0812 10.4433 71.0812C10.4433 71.0812 10.4584 71.4944 10.4433 72.0624C7.06772 72.1846 4.20079 73.9027 4.20079 73.9027L3.87952 72.6758Z" fill="black"/>
</svg>
