<svg width="236" height="177" viewBox="0 0 236 177" fill="none" xmlns="http://www.w3.org/2000/svg">
<path d="M106.402 24.8296C106.402 24.8296 119.765 24.3084 128.797 31.0834C137.83 37.8583 112.712 35.2526 112.712 35.2526L106.402 24.8296Z" fill="#FFC1B7"/>
<path d="M114.383 18.3154L112.468 27.0447L118.897 28.7384L121.223 20.6606L114.383 18.3154Z" fill="#FFC1B7"/>
<path opacity="0.3" d="M119.728 25.8104L121.223 20.6606L114.327 18.3154L112.857 24.9594C115.139 25.3132 117.432 25.5727 119.728 25.8104Z" fill="#DE7356"/>
<path d="M114.796 7.37124C114.796 7.37124 119.124 1.24775 125.289 3.07177C131.453 4.89579 131.322 21.9634 124.108 24.5692C114.721 27.9602 108.239 14.537 114.796 7.37124Z" fill="#FFC1B7"/>
<path d="M113.943 12.4248C113.943 12.4248 113.395 9.97508 111.112 10.7916C108.828 11.6082 111.568 16.0539 113.304 16.5076C115.039 16.9612 113.943 12.4248 113.943 12.4248Z" fill="#FFC1B7"/>
<path d="M122.072 6.34635C122.072 6.34635 121.067 12.3345 115.679 12.5159C115.679 12.5159 114.953 15.5238 114.131 16.8847L113.669 11.6087C113.669 11.6087 111.718 10.0325 111.477 12.2438C111.096 15.7361 113.304 16.508 113.304 16.508C113.304 16.508 113.03 19.2299 113.943 20.863C113.943 20.863 109.103 16.2358 110.564 9.70334C112.025 3.17083 117.505 0.358223 120.61 1.80989C123.716 3.26156 122.072 6.34635 122.072 6.34635Z" fill="#7A8DB5"/>
<path d="M119.423 2.35458C119.423 2.35458 120.337 9.43146 126.639 11.7904L126.182 10.5202C126.182 10.5202 132.21 13.5143 128.009 22.8594C128.009 22.8594 134.036 18.4137 132.758 11.609C131.479 4.80427 126.73 -0.458028 119.423 2.35458Z" fill="#7A8DB5"/>
<path d="M115.313 2.53584C115.313 2.53584 114.674 -0.548956 110.382 0.0861484C106.089 0.721253 103.075 6.34647 105.176 11.881C107.276 17.4154 101.979 17.5062 101.979 17.5062C101.979 17.5062 107.002 21.2261 108.555 15.6916C110.108 10.1571 110.016 0.0861486 114.765 3.08021" fill="#7A8DB5"/>
<path d="M130.715 32.2632C130.028 31.2532 129.196 30.367 128.259 29.5878C124.382 31.7235 119.87 31.7333 115.614 30.3993C112.654 29.4709 108.481 27.9256 107.214 24.6797C105.978 24.7849 104.893 24.9432 104.029 25.1322C95.7246 26.9501 94.728 51.4891 94.728 51.4891C94.728 51.4891 125.97 68.8931 129.497 50.7571C130.848 43.8119 133.295 36.0539 130.715 32.2632Z" fill="#88D2D0"/>
<path opacity="0.1" d="M124.297 45.227C121.203 44.719 118.155 44.114 115.196 43.0209C112.458 42.0098 109.554 40.8612 107.201 39.0662C105.764 37.9698 104.423 36.7471 102.972 35.6852C102.445 36.2242 101.536 36.3327 101.14 35.4533C100.473 33.9744 99.4552 32.8204 98.2781 31.8311C95.2087 39.6719 94.7275 51.4888 94.7275 51.4888C94.7275 51.4888 125.969 68.8929 129.497 50.7568C129.839 48.9959 130.252 47.1828 130.636 45.3954C128.544 45.7286 126.402 45.5725 124.297 45.227Z" fill="#2F3F5C"/>
<path d="M180.285 141.715C180.285 144.46 178.045 146.686 175.281 146.686H61.8504C59.0867 146.686 56.8462 144.46 56.8462 141.715V54.5513C56.8462 51.8058 59.0867 49.5801 61.8504 49.5801H175.281C178.045 49.5801 180.285 51.8058 180.285 54.5513V141.715Z" fill="white"/>
<path d="M180.285 66.4826V54.5513C180.285 51.8058 178.045 49.5801 175.281 49.5801H61.8504C59.0867 49.5801 56.8462 51.8058 56.8462 54.5513V66.4826H180.285Z" fill="#DE7356"/>
<path d="M72.0261 60.5167C73.9608 60.5167 75.5292 58.9586 75.5292 57.0367C75.5292 55.1147 73.9608 53.5566 72.0261 53.5566C70.0914 53.5566 68.5229 55.1147 68.5229 57.0367C68.5229 58.9586 70.0914 60.5167 72.0261 60.5167Z" fill="#2F3F5C"/>
<path d="M73.8607 57.2023C73.8607 58.3004 72.9645 59.1907 71.859 59.1907C70.7536 59.1907 69.8574 58.3004 69.8574 57.2023V47.5958C69.8574 46.4977 70.7536 45.6074 71.859 45.6074C72.9645 45.6074 73.8607 46.4977 73.8607 47.5958V57.2023Z" fill="#7A8DB5"/>
<path d="M102.052 60.5167C103.987 60.5167 105.555 58.9586 105.555 57.0367C105.555 55.1147 103.987 53.5566 102.052 53.5566C100.117 53.5566 98.5488 55.1147 98.5488 57.0367C98.5488 58.9586 100.117 60.5167 102.052 60.5167Z" fill="#2F3F5C"/>
<path d="M132.077 60.5167C134.012 60.5167 135.58 58.9586 135.58 57.0367C135.58 55.1147 134.012 53.5566 132.077 53.5566C130.143 53.5566 128.574 55.1147 128.574 57.0367C128.574 58.9586 130.143 60.5167 132.077 60.5167Z" fill="#2F3F5C"/>
<path d="M162.103 60.5167C164.038 60.5167 165.606 58.9586 165.606 57.0367C165.606 55.1147 164.038 53.5566 162.103 53.5566C160.169 53.5566 158.6 55.1147 158.6 57.0367C158.6 58.9586 160.169 60.5167 162.103 60.5167Z" fill="#2F3F5C"/>
<path d="M103.887 57.2023C103.887 58.3004 102.99 59.1907 101.885 59.1907C100.779 59.1907 99.8833 58.3004 99.8833 57.2023V47.5958C99.8833 46.4977 100.779 45.6074 101.885 45.6074C102.99 45.6074 103.887 46.4977 103.887 47.5958V57.2023Z" fill="#7A8DB5"/>
<path d="M133.912 57.2023C133.912 58.3004 133.016 59.1907 131.911 59.1907C130.805 59.1907 129.909 58.3004 129.909 57.2023V47.5958C129.909 46.4977 130.805 45.6074 131.911 45.6074C133.016 45.6074 133.912 46.4977 133.912 47.5958V57.2023Z" fill="#7A8DB5"/>
<path d="M163.938 57.2023C163.938 58.3004 163.042 59.1907 161.937 59.1907C160.831 59.1907 159.935 58.3004 159.935 57.2023V47.5958C159.935 46.4977 160.831 45.6074 161.937 45.6074C163.042 45.6074 163.938 46.4977 163.938 47.5958V57.2023Z" fill="#7A8DB5"/>
<g opacity="0.3">
<path d="M175.281 70.79H61.5171V140.057H175.281V70.79Z" stroke="#7A8DB5" stroke-width="2.7396" stroke-miterlimit="10" stroke-linecap="round" stroke-linejoin="round"/>
<path d="M77.4829 70.79V139.394" stroke="#7A8DB5" stroke-width="2.7396" stroke-miterlimit="10" stroke-linecap="round" stroke-linejoin="round"/>
<path d="M93.7827 70.79V139.394" stroke="#7A8DB5" stroke-width="2.7396" stroke-miterlimit="10" stroke-linecap="round" stroke-linejoin="round"/>
<path d="M110.083 70.79V139.394" stroke="#7A8DB5" stroke-width="2.7396" stroke-miterlimit="10" stroke-linecap="round" stroke-linejoin="round"/>
<path d="M126.382 70.79V139.394" stroke="#7A8DB5" stroke-width="2.7396" stroke-miterlimit="10" stroke-linecap="round" stroke-linejoin="round"/>
<path d="M142.682 70.79V139.394" stroke="#7A8DB5" stroke-width="2.7396" stroke-miterlimit="10" stroke-linecap="round" stroke-linejoin="round"/>
<path d="M158.981 70.79V139.394" stroke="#7A8DB5" stroke-width="2.7396" stroke-miterlimit="10" stroke-linecap="round" stroke-linejoin="round"/>
<path d="M61.5171 83.3838H174.948" stroke="#7A8DB5" stroke-width="2.7396" stroke-miterlimit="10" stroke-linecap="round" stroke-linejoin="round"/>
<path d="M61.5171 97.8564H174.948" stroke="#7A8DB5" stroke-width="2.7396" stroke-miterlimit="10" stroke-linecap="round" stroke-linejoin="round"/>
<path d="M61.5171 112.328H174.948" stroke="#7A8DB5" stroke-width="2.7396" stroke-miterlimit="10" stroke-linecap="round" stroke-linejoin="round"/>
<path d="M61.5171 126.8H174.948" stroke="#7A8DB5" stroke-width="2.7396" stroke-miterlimit="10" stroke-linecap="round" stroke-linejoin="round"/>
</g>
<path d="M66.688 79.0752H82.0346L83.3692 92.6632L66.688 93.6576V79.0752Z" fill="#88D2D0"/>
<path d="M107.557 85.041H92.5168L91.209 98.6294L107.557 99.6237V85.041Z" fill="#FFC1B7"/>
<path d="M75.8629 113.212H60.8231L59.5156 126.8L75.8629 127.794V113.212Z" fill="#FFC1B7"/>
<path d="M112.228 129.119H97.1877L95.8799 142.707L112.228 143.702V129.119Z" fill="#FFDC8D"/>
<path d="M138.583 95.3154H123.543L122.236 108.903L138.583 109.898V95.3154Z" fill="#FFDC8D"/>
<path d="M114.007 74.5727C117.273 75.918 120.219 77.8524 123.15 79.7918C124.047 80.3863 124.882 78.9502 123.992 78.3608C120.929 76.3339 117.86 74.3793 114.451 72.9744C113.457 72.5654 113.028 74.1691 114.007 74.5727Z" fill="#DE7356"/>
<path d="M120.814 72.395C118.384 74.1385 116.102 76.063 113.973 78.1589C113.208 78.9119 114.388 80.083 115.152 79.3307C117.18 77.335 119.341 75.4867 121.656 73.8264C122.519 73.2069 121.687 71.7683 120.814 72.395Z" fill="#DE7356"/>
<path d="M65.9661 102.743C69.2314 104.089 72.1777 106.023 75.108 107.962C76.006 108.557 76.8404 107.121 75.9501 106.531C72.8879 104.505 69.8192 102.55 66.4096 101.145C65.4159 100.736 64.9874 102.34 65.9661 102.743Z" fill="#DE7356"/>
<path d="M72.7726 100.566C70.3425 102.309 68.0606 104.234 65.9315 106.33C65.1665 107.083 66.3465 108.254 67.1111 107.502C69.1387 105.506 71.3 103.658 73.6147 101.997C74.4776 101.377 73.6465 99.9392 72.7726 100.566Z" fill="#DE7356"/>
<path d="M79.9777 103.406C83.2429 104.752 86.1893 106.686 89.12 108.626C90.0179 109.22 90.8523 107.784 89.962 107.195C86.8999 105.168 83.8308 103.213 80.4215 101.808C79.4278 101.399 78.9989 103.003 79.9777 103.406Z" fill="#DE7356"/>
<path d="M86.7848 101.229C84.355 102.973 82.0728 104.897 79.9437 106.993C79.1787 107.746 80.3587 108.917 81.1233 108.165C83.1509 106.169 85.3122 104.321 87.6269 102.66C88.4898 102.041 87.6587 100.602 86.7848 101.229Z" fill="#DE7356"/>
<path d="M124.957 124.236C127.375 120.679 126.522 116.711 122.851 114.46C119.519 112.418 114.609 112.561 112.027 115.703C109.479 118.805 109.733 122.808 113.617 124.442C117.011 125.87 121.205 125.803 124.792 125.28C125.854 125.125 125.401 123.529 124.349 123.682C120.37 124.262 109.19 124.349 112.725 117.659C114.351 114.582 118.179 114.189 121.144 115.448C124.655 116.937 125.635 120.283 123.517 123.4C122.913 124.288 124.359 125.117 124.957 124.236Z" fill="#DE7356"/>
<path d="M96.4702 37.2871L104.019 38.0946L103.09 44.0936C103.09 44.0936 121.246 45.5515 122.407 47.6281C123.568 49.7047 121.594 57.4344 121.826 49.5893C121.826 49.5893 119.968 59.0494 120.781 49.5893C120.781 49.5893 118.342 58.4727 119.503 49.7047C119.503 49.7047 117.297 56.9728 118.226 49.4739C118.226 49.4739 95.1926 51.708 94.7283 49.6314C94.2639 47.5548 96.4702 37.2871 96.4702 37.2871Z" fill="#FFC1B7"/>
<path opacity="0.3" d="M103.695 40.1879L104.019 38.0946L96.47 37.2871C96.47 37.2871 96.257 38.2782 95.9775 39.706C98.5586 39.7502 101.129 39.9331 103.695 40.1879Z" fill="#DE7356"/>
<path d="M104.832 39.3641L95.4253 38.095C95.4253 38.095 97.8642 25.0583 106.458 24.3662L104.832 39.3641Z" fill="#88D2D0"/>
<path d="M123.746 41.3379L131.591 42.3468C131.591 42.3468 128.905 55.7577 128.448 56.8395C127.991 57.9214 120.675 72.9193 118.701 72.4577C116.726 71.996 116.726 71.996 116.726 71.996C116.726 71.996 113.358 79.495 116.146 70.6115C118.933 61.728 122.533 55.2677 122.533 55.2677L123.746 41.3379Z" fill="#FFC1B7"/>
<path opacity="0.3" d="M131.062 44.9623C131.378 43.4101 131.591 42.3468 131.591 42.3468L123.746 41.3379L123.618 42.8059C126.081 43.5898 128.565 44.3007 131.062 44.9623Z" fill="#DE7356"/>
<path d="M124.737 34.7107L123.174 41.5938L131.988 43.6573C131.988 43.6573 132.858 37.5781 130.626 32.8398C128.643 33.3908 126.675 33.9986 124.737 34.7107Z" fill="#88D2D0"/>
<path opacity="0.15" d="M184.622 165.576C212.997 165.576 236 163.795 236 161.599C236 159.403 212.997 157.622 184.622 157.622C156.248 157.622 133.245 159.403 133.245 161.599C133.245 163.795 156.248 165.576 184.622 165.576Z" fill="#2F3F5C"/>
<path d="M202.946 63.4629L209.558 67.8128C209.558 67.8128 187.77 90.5267 184.676 93.519C181.581 96.5112 184.043 92.718 184.043 92.718C184.043 92.718 179.314 98.2028 182.996 92.2854C182.996 92.2854 178.201 97.5321 182.581 91.5273C182.581 91.5273 178.134 95.0403 183.495 89.23C183.495 89.23 180.07 88.7774 184.606 88.2109L202.946 63.4629Z" fill="#FFC1B7"/>
<path opacity="0.3" d="M202.946 63.4629L209.558 67.8128C209.558 67.8128 187.77 90.5267 184.676 93.519C181.581 96.5112 184.043 92.718 184.043 92.718C184.043 92.718 179.314 98.2028 182.996 92.2854C182.996 92.2854 178.201 97.5321 182.581 91.5273C182.581 91.5273 178.134 95.0403 183.495 89.23C183.495 89.23 180.07 88.7774 184.606 88.2109L202.946 63.4629Z" fill="#DE7356"/>
<path opacity="0.3" d="M204.655 72.9176C207.544 69.9127 209.558 67.8128 209.558 67.8128L202.946 63.4629L198.8 69.0576C200.883 70.1289 202.775 71.5084 204.655 72.9176Z" fill="#DE7356"/>
<path d="M202.861 69.7957L199.524 67.6966C199.524 67.6966 202.861 62.173 206.419 60.2949L202.861 69.7957Z" fill="white"/>
<path d="M208.535 40.0463C208.535 40.0463 205.649 35.4859 199.877 36.7569C194.105 38.0278 196.204 43.1115 193.056 44.831C189.907 46.5505 187.371 50.3633 191.131 53.5781C194.892 56.7928 188.697 59.7654 197.691 62.4746C206.873 65.2408 209.322 55.3723 209.322 55.3723L208.535 40.0463Z" fill="#88D2D0"/>
<path opacity="0.1" d="M208.535 40.0463C208.535 40.0463 205.649 35.4859 199.877 36.7569C194.105 38.0278 196.204 43.1115 193.056 44.831C189.907 46.5505 187.371 50.3633 191.131 53.5781C194.892 56.7928 188.697 59.7654 197.691 62.4746C206.873 65.2408 209.322 55.3723 209.322 55.3723L208.535 40.0463Z" fill="#2F3F5C"/>
<path d="M162.835 81.8331L151.266 83.3164L151.563 85.6046L163.132 84.1213L162.835 81.8331Z" fill="#60B2AE"/>
<path d="M166.522 80.913C166.592 81.4577 166.205 81.956 165.657 82.0264L148.452 84.2326C147.903 84.303 147.402 83.9183 147.331 83.3739L146.448 76.5808C146.377 76.0361 146.765 75.5378 147.313 75.4674L164.518 73.2612C165.066 73.1908 165.568 73.5755 165.639 74.1199L166.522 80.913Z" fill="#88D2D0"/>
<path d="M147.78 75.4085L147.318 75.4678L148.461 84.2655L148.923 84.2062L147.78 75.4085Z" fill="#60B2AE"/>
<path d="M148.828 75.2757L148.366 75.335L149.509 84.1326L149.971 84.0734L148.828 75.2757Z" fill="#60B2AE"/>
<path d="M149.874 75.1419L149.412 75.2012L150.554 83.9989L151.016 83.9396L149.874 75.1419Z" fill="#60B2AE"/>
<path d="M150.926 75.0052L150.463 75.0645L151.606 83.8621L152.069 83.8029L150.926 75.0052Z" fill="#60B2AE"/>
<path d="M151.976 74.8694L151.514 74.9287L152.658 83.7264L153.12 83.6671L151.976 74.8694Z" fill="#60B2AE"/>
<path d="M153.022 74.7356L152.56 74.7949L153.703 83.5926L154.165 83.5333L153.022 74.7356Z" fill="#60B2AE"/>
<path d="M154.073 74.5999L153.611 74.6592L154.755 83.4569L155.217 83.3975L154.073 74.5999Z" fill="#60B2AE"/>
<path d="M155.122 74.4641L154.66 74.5234L155.804 83.3211L156.266 83.2618L155.122 74.4641Z" fill="#60B2AE"/>
<path d="M156.167 74.3343L155.705 74.3936L156.848 83.1912L157.31 83.132L156.167 74.3343Z" fill="#60B2AE"/>
<path d="M157.22 74.1946L156.757 74.2539L157.901 83.0516L158.364 82.9923L157.22 74.1946Z" fill="#60B2AE"/>
<path d="M158.264 74.0657L157.802 74.125L158.945 82.9227L159.407 82.8634L158.264 74.0657Z" fill="#60B2AE"/>
<path d="M159.317 73.9241L158.854 73.9834L159.998 82.7811L160.461 82.7218L159.317 73.9241Z" fill="#60B2AE"/>
<path d="M160.365 73.7932L159.902 73.8525L161.046 82.6502L161.509 82.5909L160.365 73.7932Z" fill="#60B2AE"/>
<path d="M161.41 73.6605L160.947 73.7197L162.09 82.5174L162.553 82.4581L161.41 73.6605Z" fill="#60B2AE"/>
<path d="M162.458 73.5276L161.996 73.5869L163.139 82.3846L163.601 82.3253L162.458 73.5276Z" fill="#60B2AE"/>
<path d="M163.504 73.3949L163.042 73.4541L164.184 82.2518L164.646 82.1926L163.504 73.3949Z" fill="#60B2AE"/>
<path d="M164.555 73.2591L164.093 73.3184L165.236 82.116L165.698 82.0568L164.555 73.2591Z" fill="#60B2AE"/>
<path d="M140.633 88.9537C140.796 89.166 140.755 89.4697 140.542 89.632L136.23 92.9033C136.016 93.0655 135.711 93.0249 135.547 92.8126L133.511 90.1633C133.347 89.951 133.388 89.6472 133.602 89.485L137.914 86.2136C138.127 86.0514 138.433 86.0921 138.596 86.3044L140.633 88.9537Z" fill="#88D2D0"/>
<path d="M133.954 89.2138L133.602 89.4814L136.214 92.8792L136.567 92.6116L133.954 89.2138Z" fill="#60B2AE"/>
<path d="M134.75 88.6172L134.397 88.8848L137.009 92.283L137.362 92.0153L134.75 88.6172Z" fill="#60B2AE"/>
<path d="M135.542 88.0185L135.189 88.2861L137.802 91.6843L138.154 91.4167L135.542 88.0185Z" fill="#60B2AE"/>
<path d="M136.33 87.415L135.977 87.6826L138.59 91.0804L138.942 90.8127L136.33 87.415Z" fill="#60B2AE"/>
<path d="M137.111 86.8174L136.758 87.085L139.37 90.4827L139.723 90.2151L137.111 86.8174Z" fill="#60B2AE"/>
<path d="M137.903 86.2177L137.55 86.4854L140.162 89.8831L140.515 89.6155L137.903 86.2177Z" fill="#60B2AE"/>
<path d="M191.414 149.571C206.663 134.422 206.663 109.861 191.414 94.7127C176.165 79.5641 151.441 79.5641 136.192 94.7127C120.943 109.861 120.943 134.422 136.192 149.571C151.441 164.719 176.165 164.719 191.414 149.571Z" fill="#2F3F5C"/>
<path d="M187.01 148.536C201.472 134.17 201.472 110.877 187.01 96.511C172.549 82.1448 149.102 82.1448 134.64 96.511C120.179 110.877 120.179 134.17 134.64 148.536C149.102 162.902 172.549 162.902 187.01 148.536Z" fill="white"/>
<path d="M165.826 160.995C144.472 163.733 124.857 148.702 122.1 127.489C119.344 106.276 134.474 86.7897 155.829 84.0515C177.183 81.3133 196.798 96.3435 199.555 117.557C202.311 138.77 187.181 158.256 165.826 160.995ZM156.345 88.0251C137.196 90.4806 123.629 107.954 126.1 126.976C128.572 145.999 146.162 159.477 165.31 157.021C184.459 154.566 198.026 137.092 195.555 118.07C193.082 99.0479 175.493 85.5696 156.345 88.0251Z" fill="#5D77A6"/>
<path d="M165.762 121.667C165.998 123.482 164.708 125.143 162.88 125.378C161.053 125.612 159.381 124.33 159.145 122.515C158.909 120.7 160.199 119.038 162.026 118.804C163.853 118.57 165.526 119.851 165.762 121.667Z" fill="#88D2D0"/>
<path d="M163.428 120.964C163.499 121.509 163.112 122.007 162.564 122.077L162.123 122.134C161.574 122.204 161.073 121.82 161.002 121.275L157.898 97.3903C157.827 96.8455 158.214 96.3472 158.762 96.2768L159.204 96.2202C159.752 96.1498 160.254 96.5345 160.325 97.0789L163.428 120.964Z" fill="#88D2D0"/>
<path d="M162.389 123.325C161.841 123.395 161.339 123.01 161.268 122.466L161.211 122.028C161.141 121.483 161.528 120.985 162.076 120.914L176.193 119.104C176.742 119.034 177.243 119.418 177.314 119.963L177.371 120.401C177.442 120.945 177.055 121.444 176.507 121.515L162.389 123.325Z" fill="#88D2D0"/>
<path d="M159.552 93.7252C159.615 94.2094 159.271 94.6525 158.784 94.7149C158.297 94.7773 157.851 94.4358 157.788 93.9517L157.461 91.4316C157.398 90.9475 157.742 90.5043 158.229 90.4419C158.716 90.3795 159.162 90.7214 159.225 91.2055L159.552 93.7252Z" fill="#4B6590"/>
<path d="M191.284 119.174C190.797 119.237 190.351 118.895 190.288 118.411C190.225 117.927 190.569 117.484 191.056 117.421L193.593 117.096C194.08 117.034 194.526 117.376 194.589 117.859C194.652 118.344 194.308 118.787 193.821 118.849L191.284 119.174Z" fill="#4B6590"/>
<path d="M174.069 96.1526C173.831 96.5801 173.29 96.7351 172.86 96.4992C172.43 96.2633 172.273 95.7258 172.511 95.2983L173.747 93.074C173.985 92.6468 174.526 92.4915 174.956 92.7274C175.386 92.9633 175.542 93.5011 175.305 93.9283L174.069 96.1526Z" fill="#4B6590"/>
<path d="M185.865 105.616C185.495 105.937 184.932 105.898 184.609 105.531C184.286 105.163 184.325 104.605 184.695 104.284L186.622 102.613C186.992 102.292 187.555 102.331 187.878 102.698C188.201 103.066 188.162 103.624 187.792 103.945L185.865 105.616Z" fill="#4B6590"/>
<path d="M165.635 150.674C165.572 150.19 165.916 149.747 166.403 149.684C166.891 149.622 167.337 149.964 167.4 150.448L167.727 152.968C167.79 153.452 167.446 153.895 166.959 153.957C166.471 154.02 166.025 153.678 165.963 153.194L165.635 150.674Z" fill="#4B6590"/>
<path d="M188.809 133.572C188.379 133.336 188.223 132.798 188.461 132.371C188.698 131.944 189.239 131.788 189.669 132.024L191.908 133.252C192.338 133.488 192.495 134.026 192.257 134.453C192.02 134.88 191.479 135.036 191.049 134.8L188.809 133.572Z" fill="#4B6590"/>
<path d="M179.283 145.29C178.96 144.922 178.999 144.364 179.369 144.043C179.739 143.722 180.301 143.76 180.624 144.128L182.306 146.043C182.628 146.41 182.59 146.969 182.22 147.29C181.85 147.61 181.288 147.572 180.965 147.205L179.283 145.29Z" fill="#4B6590"/>
<path d="M133.931 125.22C134.418 125.158 134.864 125.5 134.927 125.984C134.99 126.468 134.646 126.911 134.159 126.973L131.622 127.299C131.134 127.361 130.688 127.019 130.626 126.535C130.563 126.051 130.907 125.608 131.394 125.546L133.931 125.22Z" fill="#4B6590"/>
<path d="M151.146 148.242C151.383 147.815 151.924 147.659 152.354 147.895C152.785 148.131 152.941 148.669 152.703 149.096L151.467 151.321C151.23 151.748 150.688 151.903 150.258 151.667C149.828 151.431 149.672 150.893 149.909 150.466L151.146 148.242Z" fill="#4B6590"/>
<path d="M139.35 138.778C139.72 138.457 140.282 138.496 140.605 138.863C140.928 139.231 140.89 139.789 140.52 140.11L138.592 141.781C138.222 142.102 137.66 142.063 137.337 141.696C137.014 141.328 137.052 140.77 137.422 140.449L139.35 138.778Z" fill="#4B6590"/>
<path d="M136.405 110.824C136.835 111.06 136.991 111.597 136.754 112.025C136.516 112.452 135.975 112.607 135.545 112.371L133.306 111.143C132.876 110.907 132.72 110.369 132.957 109.942C133.195 109.515 133.736 109.36 134.166 109.596L136.405 110.824Z" fill="#4B6590"/>
<path d="M145.931 99.1051C146.254 99.4728 146.216 100.031 145.846 100.352C145.476 100.673 144.914 100.635 144.591 100.267L142.909 98.3524C142.586 97.9848 142.625 97.4263 142.995 97.1055C143.365 96.7846 143.927 96.8228 144.25 97.1904L145.931 99.1051Z" fill="#4B6590"/>
<path d="M219.635 142.73C219.635 142.73 220.834 159.583 221.85 160.975C222.866 162.368 230.867 164.282 224.277 159.923L227.877 142.247L219.635 142.73Z" fill="#FFC1B7"/>
<path opacity="0.2" d="M226.804 147.516L227.877 142.247L219.635 142.73C219.635 142.73 219.862 145.914 220.201 149.629C222.36 148.782 224.551 148.028 226.804 147.516Z" fill="#2F3F5C"/>
<path d="M221.506 160.215C221.506 160.215 221.488 160.975 221.942 161.334C222.395 161.692 231.626 165.222 224.954 160.38C224.954 160.38 226.629 162.309 221.506 160.215Z" fill="white"/>
<path d="M203.555 142.496C203.555 142.496 196.046 158.743 195.415 159.098C194.209 159.778 184.983 160.749 193.577 157.338L196.911 137.285L203.555 142.496Z" fill="#FFC1B7"/>
<path opacity="0.2" d="M201.549 146.796C202.703 144.339 203.555 142.495 203.555 142.495L196.911 137.285L195.81 143.91C197.691 144.932 199.603 145.903 201.549 146.796Z" fill="#2F3F5C"/>
<path d="M195.837 158.459C195.837 158.459 195.65 159.196 195.116 159.42C194.582 159.645 184.736 160.584 192.471 157.698C192.471 157.698 190.337 159.11 195.837 158.459Z" fill="white"/>
<path d="M209.238 84.5276L230.017 78.877C230.017 78.877 234.797 83.8391 235.301 94.5201C235.805 105.201 229.944 145.114 229.944 145.114C229.944 145.114 224.702 148.201 216.176 145.922L219.922 100.422L205.162 144.428C205.162 144.428 198.723 143.557 192.494 140L209.238 84.5276Z" fill="#FFC330"/>
<path opacity="0.1" d="M230.685 79.7019C230.279 79.1513 230.016 78.877 230.016 78.877L209.237 84.5276L208.583 86.6942C217.676 85.6174 227.087 81.4352 230.685 79.7019Z" fill="#2F3F5C"/>
<path opacity="0.1" d="M206.917 92.2158L192.493 140C198.722 143.557 205.161 144.428 205.161 144.428L219.921 100.421C213.851 98.4936 208.572 93.7945 206.917 92.2158Z" fill="#2F3F5C"/>
<path d="M208.532 85.2616C208.532 85.2616 224.606 82.1267 231.248 78.8332C231.248 78.8332 221.877 58.7479 215.872 57.4222C209.866 56.0965 202.638 62.9458 202.304 64.4925C200.802 71.4573 200.525 77.3075 206.975 76.8655L208.532 85.2616Z" fill="white"/>
<path d="M205.641 60.9579L204.306 58.9694L211.868 55.6553L213.425 59.6325L205.641 60.9579Z" fill="white"/>
<path opacity="0.1" d="M201.473 72.3194C201.767 75.2706 203.245 77.1215 206.975 76.866L208.532 85.2621C208.532 85.2621 224.606 82.1272 231.249 78.8338C231.249 78.8338 229.807 75.7439 227.692 71.9082C210.762 77.0163 204.075 74.6123 201.473 72.3194Z" fill="#2F3F5C"/>
<path d="M210.978 67.1445L218.318 70.1273C218.318 70.1273 200.414 98.4084 197.967 101.944C195.52 105.479 197.188 101.281 197.188 101.281C197.188 101.281 193.63 107.578 196.076 101.06C196.076 101.06 192.407 107.136 195.52 100.397C195.52 100.397 191.851 104.706 195.965 97.9667C195.965 97.9667 192.518 98.1877 196.855 96.7513L210.978 67.1445Z" fill="#FFC1B7"/>
<path opacity="0.3" d="M217.283 71.7619C217.937 70.7287 218.318 70.1273 218.318 70.1273L210.978 67.1445L210.483 68.1817C212.964 68.9119 215.163 70.2841 217.283 71.7619Z" fill="#DE7356"/>
<path d="M207.947 41.0583C207.947 41.0583 197.976 36.9596 195.913 46.4379C193.85 55.9162 199.094 60.527 204.423 58.8191C209.752 57.1112 212.073 53.2687 212.674 48.4016C213.276 43.5345 212.159 41.1436 207.947 41.0583Z" fill="#FFC1B7"/>
<path d="M221.968 47.352C219.758 43.7925 213.721 48.2625 214.486 42.8819C215.251 37.5013 209.555 34.7693 203.943 36.0112C199.638 36.9638 199.437 41.5577 199.437 41.5577C199.437 41.5577 198.927 43.627 201.307 44.2893C203.688 44.9516 206.324 44.7031 205.473 47.6833C204.337 50.947 203.518 51.4083 205.303 53.3953C207.089 55.3819 203.942 57.6998 206.408 59.6864C208.874 61.6731 212.785 55.8787 217.207 58.0308C221.628 60.1829 222.733 54.6368 220.608 52.733C218.482 50.8287 224.179 50.9115 221.968 47.352Z" fill="#88D2D0"/>
<path d="M222.424 56.5028C222.424 56.5028 222.445 56.3642 222.484 56.104C222.517 55.8423 222.523 55.4612 222.461 54.9811C222.38 54.5086 222.226 53.9286 221.852 53.3824C221.745 53.258 221.661 53.1066 221.529 52.9941C221.4 52.8834 221.273 52.755 221.118 52.6352C220.967 52.5129 220.796 52.3456 220.699 52.1224C220.646 52.0113 220.623 51.8753 220.631 51.7399C220.646 51.606 220.691 51.4789 220.754 51.3722C221.017 50.9516 221.39 50.699 221.722 50.3971C222.057 50.1042 222.386 49.7874 222.57 49.406C222.98 48.6464 222.48 47.6807 221.818 46.9748C221.496 46.654 221.061 46.397 220.582 46.2751C220.099 46.1499 219.576 46.1179 219.039 46.1299C218.5 46.143 217.949 46.1989 217.377 46.233C216.808 46.2598 216.204 46.2947 215.572 46.0816C215.26 45.9768 214.95 45.7674 214.745 45.4879C214.543 45.2121 214.41 44.8974 214.356 44.594C214.288 44.2888 214.273 43.9894 214.27 43.6955C214.266 43.5478 214.281 43.4048 214.286 43.2596L214.306 42.851C214.354 41.8047 214.152 40.7616 213.655 39.8968C213.167 39.0298 212.446 38.3374 211.656 37.8412C210.861 37.3473 210.011 37.0374 209.205 36.8454C207.584 36.477 206.161 36.5231 205.191 36.6407C204.705 36.7053 204.322 36.767 204.063 36.8218C203.805 36.877 203.667 36.9067 203.667 36.9067C203.667 36.9067 203.802 36.865 204.055 36.7866C204.308 36.7111 204.683 36.6055 205.171 36.5119C206.14 36.341 207.583 36.1544 209.285 36.4774C210.13 36.6425 211.036 36.9289 211.909 37.4232C212.775 37.9178 213.61 38.6408 214.171 39.6054C214.741 40.5613 215.01 41.7259 214.955 42.8789L214.938 43.2981C214.934 43.4294 214.921 43.5634 214.926 43.6929C214.93 43.9535 214.946 44.2133 215.002 44.4525C215.107 44.9403 215.356 45.3123 215.802 45.4531C216.243 45.6109 216.796 45.604 217.341 45.5768C217.89 45.5482 218.454 45.4948 219.026 45.4846C219.597 45.4734 220.184 45.5151 220.752 45.6774C221.324 45.8399 221.844 46.1473 222.257 46.5814C222.372 46.6913 222.438 46.7922 222.522 46.8957L222.582 46.9726C222.622 47.0245 222.625 47.0368 222.648 47.071L222.759 47.2441C222.906 47.476 223.026 47.7271 223.116 47.9906C223.203 48.2566 223.249 48.5408 223.237 48.8257C223.225 49.1116 223.134 49.3885 223.006 49.6263C222.473 50.5796 221.498 50.9592 221.079 51.5628C220.982 51.7094 220.967 51.8448 221.024 51.9888C221.084 52.1387 221.194 52.2647 221.33 52.3942C221.472 52.5187 221.601 52.6646 221.738 52.8021C221.874 52.9371 221.957 53.1066 222.062 53.2489C222.424 53.8637 222.539 54.4752 222.591 54.9662C222.626 55.4623 222.573 55.8561 222.519 56.1105C222.457 56.3667 222.424 56.5028 222.424 56.5028Z" fill="#88D2D0"/>
<path opacity="0.15" d="M34.1822 165.576C53.0605 165.576 68.3643 163.795 68.3643 161.599C68.3643 159.403 53.0605 157.622 34.1822 157.622C15.3039 157.622 0 159.403 0 161.599C0 163.795 15.3039 165.576 34.1822 165.576Z" fill="#2F3F5C"/>
<path d="M22.1505 152.51C22.1505 152.51 23.2293 158.94 22.1505 159.369C21.0717 159.798 -1.15147 171.586 16.325 156.154V151.438L22.1505 152.51Z" fill="#2F3F5C"/>
<path d="M9.71486 163.217C8.61449 166.414 21.341 159.691 22.1506 159.369C22.4308 159.257 22.5645 158.74 22.6102 158.037C20.705 158.957 12.5187 163.148 9.71486 163.217Z" fill="white"/>
<path d="M41.6855 152.029C41.6855 152.029 42.4568 158.502 43.6134 158.615C44.7696 158.727 69.4222 163.883 48.3038 153.912L46.9784 149.384L41.6855 152.029Z" fill="#2F3F5C"/>
<path d="M56.6364 158.861C58.5917 161.626 44.4816 158.699 43.6136 158.615C43.3133 158.586 43.0393 158.126 42.7979 157.464C44.8861 157.818 53.9246 159.573 56.6364 158.861Z" fill="white"/>
<path d="M8.55788 88.4238C8.55788 88.4238 6.61616 111.144 15.0307 153.153C15.0307 153.153 17.1884 155.082 23.8768 153.582C23.8768 153.582 21.7191 107.285 22.582 101.07L25.1711 101.713C25.1711 101.713 38.9797 149.938 40.49 153.582C40.49 153.582 45.0208 153.582 48.689 150.153C48.689 150.153 38.5483 99.998 36.3907 95.2826C34.233 90.5672 8.55788 88.4238 8.55788 88.4238Z" fill="#DE7356"/>
<path opacity="0.2" d="M27.6522 95.872C30.6248 96.2338 33.7228 96.486 36.8113 96.4428C36.6491 95.9315 36.5081 95.5395 36.3904 95.2826C34.2328 90.5672 8.55765 88.4238 8.55765 88.4238C8.55765 88.4238 8.47691 89.3681 8.41992 91.2263C14.6199 93.4604 21.1238 95.0768 27.6522 95.872Z" fill="#2F3F5C"/>
<path opacity="0.2" d="M38.469 102.681L22.582 101.07L25.1711 101.713C25.1711 101.713 38.9797 149.939 40.49 153.583C40.49 153.583 45.0208 153.583 48.6887 150.153C48.6887 150.153 42.1646 117.884 38.469 102.681Z" fill="#2F3F5C"/>
<path d="M30.2147 39.823C30.2147 39.823 30.8621 36.4472 28.6774 36.1256C26.4928 35.8041 26.6546 43.0381 29.4866 43.4399C32.3183 43.8416 30.7002 39.7425 30.7002 39.7425" fill="#FFA398"/>
<path d="M26.9072 55.9968C26.9072 55.9968 29.9716 36.367 33.6935 30.0174C36.923 24.5076 47.4481 30.1781 47.7718 33.3932C48.0954 36.6083 46.72 52.6833 41.5418 53.3264C36.3637 53.9695 35.9589 51.3975 35.9589 51.3975L37.4151 50.7544L36.4441 57.1846L26.9072 55.9968Z" fill="#FFA398"/>
<path d="M46.316 46.4143C45.8564 48.497 45.0315 55.9292 41.6233 55.8182C36.6878 55.6574 28.5969 54.4518 29.0824 47.5393C29.5679 40.6268 30.1342 39.7427 30.296 38.5371C30.4579 37.3315 29.6487 36.769 29.6487 36.769C29.6487 36.769 28.8395 28.5707 34.5031 25.9987C40.1668 23.4267 44.4755 27.9091 49.6536 27.1056L47.287 28.8923C47.287 28.8923 50.0379 29.053 52.3033 27.7669C52.3033 27.7669 52.9507 33.8755 47.1252 34.5186C41.2997 35.1616 36.6067 32.1073 36.6067 32.1073C36.6067 32.1073 37.3348 36.8496 33.2895 37.6534C33.2895 37.6534 29.7294 47.0573 32.4803 47.8612C35.2312 48.6651 33.1277 44.8875 35.8786 44.5659C38.6295 44.2444 44.6168 44.7267 43.9695 47.2987C43.3221 49.8707 43.7521 51.1695 45.1276 49.5618C45.1276 49.5618 46.4055 46.0085 46.316 46.4143Z" fill="#2F3F5C"/>
<path d="M65.4237 85.8525C65.4237 85.8525 72.6074 89.5198 72.2081 90.1146C71.8088 90.7095 68.8157 89.2226 68.8157 89.2226C68.8157 89.2226 69.1149 90.5109 68.4168 90.6104C68.4168 90.6104 68.4168 91.6015 67.6185 91.4034C67.6185 91.4034 67.1195 92.1963 66.0221 91.7997C64.9246 91.4034 62.9292 90.3128 62.9292 90.3128L65.4237 85.8525Z" fill="#FFA398"/>
<path d="M27.5443 52.0407C27.5443 52.0407 19.4534 49.308 16.217 55.2558C12.9806 61.2037 7.96425 84.5127 7.31689 88.5317C7.31689 88.5317 16.7025 94.4795 34.8264 94.158L40.8137 71.3312C40.8137 71.3312 46.801 82.7446 48.0954 84.352C49.3901 85.9597 63.9539 92.0679 63.9539 92.0679L66.7048 86.1201L53.5972 77.2787C53.5972 77.2787 48.7428 61.0429 45.5063 58.9528C42.2699 56.8632 36.4444 55.4162 36.4444 55.4162C36.4444 55.4162 35.9589 56.7024 32.0751 56.3809C28.1917 56.0597 27.5443 52.0407 27.5443 52.0407Z" fill="#7A8DB5"/>
<path opacity="0.2" d="M41.6786 65.5508C31.7786 66.3358 21.8895 67.2627 11.9833 67.962C9.73256 76.4503 7.71194 86.0795 7.31738 88.531C7.31738 88.531 16.703 94.4789 34.8269 94.1574L40.1661 73.8013C40.5987 71.037 41.0213 68.2727 41.6786 65.5508Z" fill="#2F3F5C"/>
<path d="M26.2721 67.7949L23.1143 97.3734L44.0168 97.0743L47.0242 69.2887L26.2721 67.7949Z" fill="#4B6590"/>
<path d="M23.8228 88.21L32.7228 97.5333" stroke="white" stroke-width="0.9447" stroke-miterlimit="10" stroke-linecap="round"/>
<path d="M34.8269 68.1162L24.8257 77.2029" stroke="white" stroke-width="0.9447" stroke-miterlimit="10" stroke-linecap="round"/>
<path d="M42.1543 81.6533L41.4404 86.2838C41.4404 86.2838 46.5992 87.0826 46.007 85.8301C46.007 85.8301 47.7569 84.9366 46.2346 84.3316C46.2346 84.3316 47.6919 83.7524 45.8704 83.3184C45.8704 83.3184 49.1492 82.594 42.1543 81.6533Z" fill="#FFA398"/>
<path d="M14.25 62.5257C14.25 62.5257 15.8158 86.8241 16.7839 86.8963C17.752 86.9689 42.4616 86.3995 42.4616 86.3995L42.6768 81.4181L24.4518 77.7976L24.7564 58.7979L14.25 62.5257Z" fill="#7A8DB5"/>
</svg>
