<svg width="74" height="62" viewBox="0 0 74 62" fill="none" xmlns="http://www.w3.org/2000/svg">
<path d="M72.3832 24.0372C72.3832 30.0095 69.0493 35.2422 64.0795 37.8906C59.9897 40.0704 55.0992 40.3069 50.8098 38.5297C43.5494 35.5177 39.5923 27.5175 41.7241 19.8281C43.5596 13.1594 49.6614 8.36328 56.7687 8.36328C65.4362 8.36328 72.3832 15.4165 72.3832 24.0372Z" fill="url(#paint0_radial_549_17457)"/>
<path opacity="0.13" d="M72.3595 23.1641C72.6804 28.7595 69.9735 34.1378 65.2293 37.2131C60.8606 40.0455 55.4437 40.4488 50.8105 38.5292C61.5065 40.8167 71.7944 33.4502 72.3595 23.1641Z" fill="white"/>
<path opacity="0.13" d="M64.479 31.5016C69.445 26.5167 69.445 18.4345 64.479 13.4496C59.513 8.46467 51.4616 8.46467 46.4956 13.4496C41.5296 18.4345 41.5296 26.5167 46.4956 31.5016C51.4616 36.4865 59.513 36.4865 64.479 31.5016Z" fill="white"/>
<path opacity="0.13" d="M53.8061 29.0925C58.6006 29.0925 62.4872 25.191 62.4872 20.3783C62.4872 15.5656 58.6006 11.6641 53.8061 11.6641C49.0117 11.6641 45.125 15.5656 45.125 20.3783C45.125 25.191 49.0117 29.0925 53.8061 29.0925Z" fill="white"/>
<path d="M71.9274 27.8097C71.8209 28.2447 71.6952 28.673 71.553 29.093C70.4503 27.6947 68.7031 27.1319 67.0846 26.1593C63.3601 23.9202 60.9573 19.6583 60.9551 15.3102C60.9536 13.1092 61.525 10.9824 61.0166 8.9502C61.4376 9.06904 61.8513 9.20562 62.2574 9.35878C62.5745 11.4026 62.0915 13.3668 62.0929 15.3092C62.0951 19.2674 64.2817 23.143 67.669 25.1797C69.0622 26.0162 70.6881 26.5942 71.9274 27.8097Z" fill="#362A2D"/>
<path d="M70.8467 17.2495C68.8316 18.8184 66.3496 20.2017 63.9207 21.4821C58.3553 24.4787 52.06 27.845 46.4967 30.6528C45.5611 31.1247 44.488 31.6661 43.3285 32.0202C43.1304 31.6853 42.9442 31.3422 42.7715 30.9918C43.9304 30.6689 45.0341 30.1118 45.9852 29.6321C51.5048 26.8467 56.8915 23.9606 62.3567 21.0273C65.1481 19.5265 67.9582 18.0844 70.3067 16.2227C70.4992 16.5569 70.6791 16.8995 70.8467 17.2495Z" fill="#362A2D"/>
<path d="M64.0784 37.8906C64.1937 35.6241 63.4655 33.304 62.8118 31.5643C60.8431 26.324 57.9384 21.3884 55.0004 16.6483C53.4712 14.1798 51.8108 11.591 49.1797 10.335C49.5841 10.1091 49.9989 9.90044 50.4245 9.71094C52.8971 11.197 54.4672 13.6244 55.9666 16.045C58.9364 20.8366 61.8686 25.821 63.8762 31.1615C64.502 32.8274 65.1887 34.9949 65.2276 37.2136C64.8551 37.4551 64.4719 37.6809 64.0784 37.8906Z" fill="#362A2D"/>
<path d="M57.1571 32.3086C56.2401 34.84 54.8861 37.2125 53.1821 39.2943C52.7741 39.1982 52.3722 39.0861 51.9771 38.9584C53.7536 36.8849 55.1572 34.4875 56.0876 31.9182C57.2114 28.8145 56.8975 27.2157 55.074 24.9166C52.8769 22.1539 51.365 21.1548 47.6401 20.426C45.692 20.0444 43.7076 19.8435 41.7227 19.8264C41.8287 19.4412 41.9497 19.0622 42.0846 18.6895C44.0215 18.7268 45.9562 18.9324 47.8578 19.3046C51.7874 20.0749 53.5049 21.2163 55.6593 23.8295C57.9138 26.5612 58.5224 28.5386 57.1571 32.3086Z" fill="#362A2D"/>
<path opacity="0.23" d="M48.2086 15.9178C49.5965 13.9193 51.8275 12.5579 54.1703 12.4581C55.0138 12.4222 56.0474 12.7039 56.2558 13.5691C56.4014 14.1738 56.046 14.8049 55.5755 15.1814C55.1049 15.5578 54.53 15.7511 53.9977 16.0203C51.9814 17.0403 50.5712 19.2846 50.463 21.6457C50.4366 22.2211 50.4812 22.8031 50.3823 23.3695C50.2834 23.9359 50.0078 24.5075 49.52 24.7636C48.0159 25.5533 46.6054 23.2625 46.4565 21.9426C46.2284 19.9226 47.0988 17.516 48.2086 15.9178Z" fill="white"/>
<path d="M30.4768 13.6195C30.4142 13.4844 30.3503 13.35 30.2847 13.2166L29.4725 13.6464L28.711 12.1967L29.51 11.7738C29.4345 11.645 29.3575 11.5175 29.2795 11.3911L28.5035 11.8017L27.7421 10.352L28.3575 10.0263C28.2682 9.9042 28.1772 9.78412 28.0854 9.66564L27.5346 9.95712L26.7731 8.50742L27.0074 8.3834C26.9032 8.26921 26.7974 8.15698 26.6906 8.04635L26.5656 8.1125L26.3478 7.69788C26.0522 7.40517 25.7491 7.12487 25.4396 6.85578C25.4173 6.83673 25.395 6.81769 25.3728 6.79864C25.2734 6.71272 25.1733 6.62834 25.0723 6.54555L23.8121 7.21254L23.0506 5.76283L23.6171 5.46299C23.4756 5.36798 23.3326 5.27545 23.1889 5.18488L22.8431 5.36791L22.5444 4.79927C22.3123 4.6669 22.0784 4.54064 21.8429 4.42085L22.4497 5.57616L21.0584 6.31258L20.2967 4.86243L21.4742 4.2392C21.3047 4.15786 21.1346 4.07972 20.963 4.00507L20.0892 4.46752L19.5651 3.46971C19.3659 3.40415 19.1661 3.3428 18.9659 3.2861L19.6959 4.6757L18.3045 5.41204L17.543 3.96233L18.8714 3.25929C18.6568 3.19961 18.4421 3.14502 18.2268 3.09574L17.3356 3.56749L16.9659 2.86371C16.7872 2.83944 16.6086 2.81842 16.43 2.80076L16.9421 3.77574L15.5508 4.51215L14.7893 3.06244L15.3995 2.73949C15.1402 2.73382 14.8814 2.73563 14.6231 2.7461C14.554 2.7485 14.4851 2.75133 14.4162 2.75526C14.3224 2.76064 14.2288 2.76638 14.1351 2.77401L14.1885 2.87585L12.7972 3.61219L12.4823 3.01279C12.3325 3.04441 12.1833 3.0796 12.0345 3.11747L12.4037 3.82037L11.0124 4.55671L10.5167 3.61292C10.3786 3.66809 10.2417 3.72645 10.1055 3.78736L10.619 4.76496L9.22766 5.5013L8.71258 4.52065L8.71215 4.52087C8.585 4.59887 8.45979 4.67853 8.33626 4.76132L8.83431 5.70955L7.44254 6.44617L7.0678 5.73274C6.95238 5.83421 6.83898 5.93736 6.7279 6.04276L7.0492 6.65444L5.65786 7.39077L5.5945 7.27011C5.52368 7.35755 5.45416 7.44536 5.38646 7.5344C5.35525 7.57504 5.32454 7.61538 5.29449 7.65601C5.12859 7.87837 4.96951 8.10618 4.81802 8.33994L5.47198 7.99386L6.23347 9.44358L4.84213 10.1799L4.31482 9.17601C4.22757 9.33323 4.14393 9.49191 4.06247 9.65277L4.44872 10.3882L3.51328 10.8832C3.43218 11.0894 3.35579 11.298 3.28403 11.5092L4.65611 10.783L5.4176 12.2327L4.02626 12.9691L3.27447 11.5378C3.20683 11.7345 3.14391 11.9338 3.08504 12.1344L3.63284 13.1774L2.71537 13.6629C2.67975 13.8472 2.64795 14.0323 2.61899 14.2187L3.84031 13.5723L4.60201 15.0224L3.21067 15.7589L2.57156 14.5421C2.53586 14.8027 2.50588 15.0658 2.48285 15.3303L2.81726 15.967L2.42738 16.1734C2.42065 16.3435 2.41595 16.5142 2.41406 16.6851L3.02472 16.362L3.78621 17.8117L2.48191 18.502C2.48952 18.5877 2.49733 18.6738 2.50624 18.76C2.51355 18.8334 2.52138 18.9079 2.52935 18.9816C2.56946 19.3366 2.61979 19.693 2.68069 20.0494L2.97041 20.6009L2.80126 20.6905C2.83189 20.8414 2.86476 20.9922 2.89937 21.1432L3.1778 20.9959L3.93929 22.4456L3.34435 22.7605C3.3899 22.9035 3.43718 23.0467 3.48707 23.1896L4.14668 22.8405L4.90817 24.2902L4.08817 24.7242C4.14791 24.8603 4.20917 24.9961 4.27239 25.1313L5.11556 24.6851L5.87705 26.1348L5.02078 26.588C5.09341 26.7178 5.16777 26.8467 5.24351 26.9748L6.08451 26.5297L6.84601 27.9794L6.13354 28.3565C6.21927 28.4793 6.30639 28.6014 6.39517 28.7227L7.05347 28.3743L7.81496 29.824L7.42415 30.0308C7.52278 30.1474 7.62256 30.2628 7.7238 30.3769L8.02235 30.2188L8.59412 31.3074C8.69405 31.4093 8.79521 31.5094 8.89745 31.6084C9.00948 31.7184 9.12317 31.8265 9.23773 31.9329C9.35685 32.0449 9.47726 32.1549 9.59892 32.2632L9.38458 31.8551L10.7759 31.1188L11.5374 32.5685L10.5679 33.0816C10.6956 33.1834 10.8242 33.2835 10.9545 33.3817L11.7448 32.9634L12.5065 34.4136L12.4676 34.4341C12.4925 34.4495 12.5169 34.4652 12.5418 34.4807C12.6634 34.557 12.7859 34.6318 12.9089 34.7053C13.0303 34.7779 13.1521 34.8491 13.2747 34.9188L13.1073 34.6002L14.4987 33.8639L15.2601 35.3136L14.6543 35.6342C14.8254 35.7153 14.9968 35.7928 15.1682 35.867L15.4676 35.7085L15.658 36.0709C15.8675 36.1551 16.0768 36.2345 16.2858 36.309L15.861 35.5003L17.2524 34.7639L18.0138 36.2136L17.2471 36.6194C17.4589 36.6812 17.6705 36.7374 17.8808 36.7888L18.2212 36.6086L18.3748 36.9008C18.5615 36.9405 18.7475 36.9755 18.9329 37.0064L18.6146 36.4004L20.0059 35.664L20.7674 37.1137L20.6358 37.1834C20.6929 37.1857 20.7502 37.1873 20.8066 37.1883C20.9755 37.1931 21.1434 37.1935 21.3101 37.1898C21.4045 37.1887 21.4986 37.186 21.5921 37.182L22.7596 36.5641L23.0071 37.0353C23.1604 37.0091 23.3127 36.9801 23.4636 36.9473L23.153 36.3558L24.5447 35.6192L25.0029 36.4914C25.1419 36.4381 25.2795 36.3821 25.4162 36.3221L25.4166 36.3219L24.9382 35.411L26.3295 34.6746L26.8061 35.582C26.9322 35.5018 27.0562 35.4188 27.1781 35.3329L26.7229 34.4663L28.1143 33.73L28.4182 34.3087C28.53 34.2014 28.6397 34.0912 28.7474 33.9781L28.5077 33.5217L29.6311 32.9271C29.6984 32.8372 29.7647 32.7454 29.8292 32.6524C29.9259 32.5154 30.02 32.3754 30.1113 32.2322C30.1318 32.2 30.1526 32.1683 30.1724 32.1359L30.085 32.1822L29.3236 30.7325L30.7149 29.9961L31.0154 30.5682C31.0944 30.3963 31.17 30.2212 31.2426 30.0437L31.1082 29.7879L31.4051 29.6308C31.4816 29.4276 31.5545 29.2208 31.6238 29.0103L30.9008 29.3929L30.1394 27.9432L31.5307 27.2069L31.9301 27.9673C31.9865 27.7513 32.0388 27.5318 32.0875 27.3098L31.9242 26.9987L32.1799 26.8633C32.2157 26.6795 32.2489 26.4937 32.2789 26.3062L31.7167 26.6037L30.9552 25.154L32.3466 24.4177L32.4777 24.6674C32.4866 24.5567 32.4946 24.4465 32.5013 24.3358C32.5124 24.1634 32.5211 23.9906 32.5277 23.8172C32.5281 23.8136 32.5278 23.8099 32.528 23.8059L31.7709 22.3645L32.5175 21.9694C32.5104 21.806 32.5007 21.6429 32.4892 21.4796L31.5634 21.9696L30.8019 20.5199L32.1933 19.7836L32.3454 20.0732C32.3303 19.9583 32.3141 19.8435 32.2964 19.729C32.2736 19.5739 32.2487 19.4189 32.2219 19.2638C32.1888 19.0666 32.1525 18.8699 32.1131 18.6737L31.6178 17.7307L31.8722 17.5961C31.8356 17.4478 31.7971 17.3 31.7574 17.1522L31.4103 17.3359L30.6488 15.8862L31.263 15.5611C31.2135 15.4191 31.1623 15.2779 31.1098 15.1375L30.4415 15.4912L29.68 14.0415L30.4768 13.6195ZM10.5687 30.7238L9.17734 31.4602L8.41584 30.0105L9.80718 29.2742L10.5687 30.7238ZM9.59971 28.8792L8.20837 29.6156L7.44688 28.1659L8.83822 27.4296L9.59971 28.8792ZM8.63084 27.0346L7.23949 27.771L6.478 26.3213L7.86934 25.5849L8.63084 27.0346ZM7.66196 25.1899L6.27061 25.9263L5.50912 24.4766L6.90046 23.7402L7.66196 25.1899ZM6.69307 23.3453L5.30173 24.0816L4.54024 22.6319L5.93158 21.8956L6.69307 23.3453ZM5.72419 21.5007L4.33286 22.237L3.57136 20.7873L4.9627 20.051L5.72419 21.5007ZM4.75531 19.6561L3.36397 20.3925L2.60248 18.9428L3.99382 18.2064L4.75531 19.6561ZM14.2913 33.4689L12.9 34.2052L12.1383 32.7551L13.5296 32.0187L14.2913 33.4689ZM13.3222 31.6238L11.9309 32.3603L11.1694 30.9105L12.5607 30.1742L13.3222 31.6238ZM12.3534 29.7792L10.962 30.5156L10.2005 29.0658L11.5919 28.3295L12.3534 29.7792ZM11.3845 27.9346L9.99314 28.671L9.23165 27.2213L10.623 26.485L11.3845 27.9346ZM10.4156 26.09L9.02425 26.8264L8.26276 25.3767L9.6541 24.6403L10.4156 26.09ZM9.44671 24.2453L8.05537 24.9817L7.29388 23.532L8.68522 22.7956L9.44671 24.2453ZM8.47783 22.4007L7.08649 23.1371L6.325 21.6873L7.71634 20.951L8.47783 22.4007ZM7.50895 20.5561L6.11761 21.2925L5.35612 19.8428L6.74745 19.1065L7.50895 20.5561ZM6.53999 18.7115L5.14866 19.4479L4.38717 17.9982L5.7785 17.2618L6.53999 18.7115ZM5.57111 16.8669L4.17978 17.6033L3.41828 16.1535L4.80962 15.4172L5.57111 16.8669ZM17.045 34.3689L15.6536 35.1053L14.8921 33.6556L16.2835 32.9192L17.045 34.3689ZM16.0761 32.5243L14.6847 33.2607L13.923 31.8106L15.3144 31.0742L16.0761 32.5243ZM15.107 30.6793L13.7157 31.4157L12.9542 29.9659L14.3455 29.2296L15.107 30.6793ZM14.1381 28.8346L12.7468 29.571L11.9853 28.1213L13.3766 27.3848L14.1381 28.8346ZM13.1692 26.99L11.7779 27.7264L11.0164 26.2767L12.4077 25.5403L13.1692 26.99ZM12.2003 25.1454L10.809 25.8818L10.0475 24.4321L11.4389 23.6957L12.2003 25.1454ZM11.2314 23.3008L9.84006 24.0372L9.07856 22.5875L10.4699 21.8511L11.2314 23.3008ZM10.2625 21.4561L8.87117 22.1925L8.10968 20.7428L9.50102 20.0064L10.2625 21.4561ZM9.29363 19.6115L7.90229 20.3479L7.1408 18.8982L8.53214 18.1618L9.29363 19.6115ZM8.32475 17.7669L6.93341 18.5033L6.17192 17.0536L7.56326 16.3172L8.32475 17.7669ZM7.35586 15.9223L5.96453 16.6587L5.20304 15.209L6.59437 14.4726L7.35586 15.9223ZM6.38698 14.0776L4.99565 14.814L4.23393 13.3639L5.62527 12.6275L6.38698 14.0776ZM19.7986 35.269L18.4073 36.0054L17.6458 34.5557L19.0371 33.8193L19.7986 35.269ZM18.8297 33.4243L17.4384 34.1608L16.6769 32.711L18.0682 31.9746L18.8297 33.4243ZM17.8608 31.5797L16.4695 32.3161L15.7078 30.866L17.0991 30.1296L17.8608 31.5797ZM16.8917 29.7347L15.5004 30.4711L14.7389 29.0214L16.1303 28.2849L16.8917 29.7347ZM15.9228 27.89L14.5315 28.6264L13.77 27.1767L15.1613 26.4403L15.9228 27.89ZM14.9539 26.0454L13.5626 26.7818L12.8011 25.3321L14.1924 24.5957L14.9539 26.0454ZM13.985 24.2008L12.5937 24.9371L11.8322 23.4874L13.2235 22.751L13.985 24.2008ZM13.0161 22.3562L11.6248 23.0926L10.8633 21.6429L12.2547 20.9065L13.0161 22.3562ZM12.0473 20.5115L10.6559 21.2479L9.89444 19.7982L11.2858 19.0618L12.0473 20.5115ZM11.0784 18.6669L9.68704 19.4033L8.92555 17.9536L10.3169 17.2172L11.0784 18.6669ZM10.1095 16.8223L8.71816 17.5586L7.95667 16.1089L9.34801 15.3725L10.1095 16.8223ZM9.14062 14.9777L7.74928 15.7141L6.98779 14.2644L8.37913 13.528L9.14062 14.9777ZM8.17166 13.133L6.78033 13.8694L6.01862 12.4193L7.40995 11.6829L8.17166 13.133ZM7.20256 11.288L5.81123 12.0243L5.04973 10.5746L6.44107 9.8382L7.20256 11.288ZM22.5522 36.169L21.1609 36.9053L20.3994 35.4556L21.7908 34.7193L22.5522 36.169ZM21.5834 34.3244L20.192 35.0607L19.4305 33.611L20.8219 32.8747L21.5834 34.3244ZM20.6144 32.4797L19.2231 33.2161L18.4616 31.7664L19.8529 31.03L20.6144 32.4797ZM19.6455 30.6351L18.2542 31.3715L17.4925 29.9213L18.8838 29.185L19.6455 30.6351ZM18.6764 28.7901L17.2851 29.5264L16.5236 28.0767L17.9149 27.3404L18.6764 28.7901ZM17.7075 26.9454L16.3162 27.6818L15.5547 26.2321L16.9461 25.4958L17.7075 26.9454ZM16.7387 25.1008L15.3473 25.8372L14.5858 24.3874L15.9772 23.6511L16.7387 25.1008ZM15.7698 23.2562L14.3784 23.9925L13.617 22.5428L15.0083 21.8065L15.7698 23.2562ZM14.8008 21.4116L13.4095 22.1479L12.648 20.6982L14.0393 19.9619L14.8008 21.4116ZM13.8319 19.5669L12.4406 20.3034L11.6791 18.8536L13.0705 18.1173L13.8319 19.5669ZM12.8631 17.7223L11.4717 18.4587L10.7102 17.009L12.1016 16.2725L12.8631 17.7223ZM11.8942 15.8777L10.5028 16.614L9.74135 15.1643L11.1327 14.4279L11.8942 15.8777ZM10.9253 14.0331L9.53396 14.7694L8.77247 13.3197L10.1638 12.5834L10.9253 14.0331ZM9.95642 12.1884L8.56508 12.9248L7.80338 11.4746L9.19471 10.7383L9.95642 12.1884ZM8.98732 10.3434L7.59599 11.0797L6.8345 9.63002L8.22583 8.89361L8.98732 10.3434ZM8.01844 8.49876L6.62711 9.2351L5.86561 7.7854L7.25695 7.04906L8.01844 8.49876ZM24.3374 35.2242L22.9456 35.9608L22.1841 34.5111L23.5759 33.7745L24.3374 35.2242ZM23.3685 33.3795L21.9767 34.1161L21.2152 32.6664L22.607 31.9298L23.3685 33.3795ZM22.3996 31.5349L21.0078 32.2716L20.2463 30.8219L21.6381 30.0852L22.3996 31.5349ZM21.4307 29.6903L20.0389 30.4269L19.2772 28.9768L20.669 28.2402L21.4307 29.6903ZM20.4616 27.8453L19.0698 28.5819L18.3084 27.1322L19.7001 26.3956L20.4616 27.8453ZM19.4927 26.0006L18.1009 26.7373L17.3394 25.2876L18.7312 24.5509L19.4927 26.0006ZM18.5238 24.156L17.132 24.8926L16.3705 23.4429L17.7623 22.7063L18.5238 24.156ZM17.5549 22.3114L16.1631 23.048L15.4016 21.5983L16.7934 20.8617L17.5549 22.3114ZM16.586 20.4668L15.1942 21.2034L14.4328 19.7537L15.8245 19.0171L16.586 20.4668ZM15.6171 18.6221L14.2254 19.3588L13.4639 17.9091L14.8556 17.1724L15.6171 18.6221ZM14.6483 16.7775L13.2565 17.5141L12.495 16.0644L13.8868 15.3278L14.6483 16.7775ZM13.6794 14.9329L12.2876 15.6695L11.5261 14.2198L12.9179 13.4832L13.6794 14.9329ZM12.7105 13.0883L11.3187 13.8249L10.5572 12.3752L11.949 11.6386L12.7105 13.0883ZM11.7416 11.2436L10.3498 11.9803L9.58813 10.5301L10.9799 9.7935L11.7416 11.2436ZM10.7724 9.39858L9.38067 10.1352L8.61918 8.6855L10.0109 7.94888L10.7724 9.39858ZM9.80356 7.55396L8.41179 8.29058L7.6503 6.84088L9.04207 6.10425L9.80356 7.55396ZM26.1221 34.2795L24.7308 35.0159L23.9693 33.5662L25.3606 32.8299L26.1221 34.2795ZM25.1532 32.4349L23.7619 33.1713L23.0004 31.7216L24.3917 30.9852L25.1532 32.4349ZM24.1843 30.5904L22.793 31.3268L22.0315 29.8771L23.4229 29.1406L24.1843 30.5904ZM23.2155 28.7457L21.8241 29.4821L21.0624 28.032L22.4538 27.2956L23.2155 28.7457ZM22.2463 26.9007L20.855 27.637L20.0935 26.1873L21.4848 25.4509L22.2463 26.9007ZM21.2774 25.056L19.8861 25.7925L19.1246 24.3427L20.5159 23.6063L21.2774 25.056ZM20.3085 23.2114L18.9172 23.9478L18.1557 22.4981L19.547 21.7617L20.3085 23.2114ZM19.3397 21.3668L17.9483 22.1031L17.1868 20.6534L18.5782 19.9171L19.3397 21.3668ZM18.3708 19.5222L16.9794 20.2586L16.2179 18.8089L17.6093 18.0725L18.3708 19.5222ZM17.4019 17.6775L16.0106 18.414L15.2491 16.9643L16.6404 16.2278L17.4019 17.6775ZM16.433 15.8329L15.0417 16.5693L14.2802 15.1196L15.6715 14.3832L16.433 15.8329ZM15.4641 13.9883L14.0728 14.7246L13.3113 13.2749L14.7026 12.5385L15.4641 13.9883ZM14.4952 12.1437L13.1038 12.8801L12.3423 11.4304L13.7337 10.694L14.4952 12.1437ZM13.5263 10.299L12.135 11.0355L11.3732 9.58532L12.7646 8.84891L13.5263 10.299ZM12.5572 8.45399L11.1659 9.19033L10.4044 7.74062L11.7957 7.00421L12.5572 8.45399ZM11.5883 6.60936L10.197 7.34578L9.43548 5.89607L10.8268 5.15966L11.5883 6.60936ZM27.9068 33.335L26.5155 34.0713L25.754 32.6216L27.1453 31.8853L27.9068 33.335ZM26.9379 31.4904L25.5466 32.2267L24.7851 30.777L26.1764 30.0407L26.9379 31.4904ZM25.969 29.6458L24.5777 30.3821L23.8162 28.9324L25.2075 28.196L25.969 29.6458ZM25.0001 27.8011L23.6088 28.5375L22.8471 27.0873L24.2384 26.351L25.0001 27.8011ZM24.0311 25.9561L22.6397 26.6924L21.8782 25.2427L23.2696 24.5064L24.0311 25.9561ZM23.0622 24.1114L21.6708 24.8478L20.9093 23.3981L22.3007 22.6617L23.0622 24.1114ZM22.0933 22.2668L20.702 23.0032L19.9405 21.5535L21.3318 20.8171L22.0933 22.2668ZM21.1243 20.4222L19.733 21.1585L18.9715 19.7088L20.3628 18.9724L21.1243 20.4222ZM20.1555 18.5776L18.7641 19.3139L18.0026 17.8642L19.394 17.1279L20.1555 18.5776ZM19.1866 16.733L17.7952 17.4693L17.0337 16.0196L18.4251 15.2833L19.1866 16.733ZM18.2177 14.8883L16.8264 15.6247L16.0649 14.175L17.4562 13.4386L18.2177 14.8883ZM17.2488 13.0437L15.8575 13.78L15.096 12.3303L16.4873 11.5939L17.2488 13.0437ZM16.2799 11.1991L14.8886 11.9354L14.1271 10.4857L15.5184 9.74937L16.2799 11.1991ZM15.311 9.35445L13.9197 10.0908L13.158 8.64065L14.5493 7.90432L15.311 9.35445ZM14.3419 7.5094L12.9505 8.24574L12.189 6.79603L13.5804 6.05962L14.3419 7.5094ZM13.373 5.66477L11.9817 6.40111L11.2202 4.9514L12.6115 4.21507L13.373 5.66477ZM29.6915 32.3903L28.3002 33.1267L27.5387 31.677L28.9301 30.9406L29.6915 32.3903ZM28.7227 30.5458L27.3313 31.2822L26.5698 29.8325L27.9612 29.0961L28.7227 30.5458ZM27.7538 28.7012L26.3624 29.4376L25.601 27.9879L26.9923 27.2515L27.7538 28.7012ZM26.7849 26.8565L25.3936 27.5929L24.6319 26.1428L26.0232 25.4065L26.7849 26.8565ZM25.8157 25.0115L24.4244 25.7479L23.6629 24.2982L25.0542 23.5618L25.8157 25.0115ZM24.8469 23.1669L23.4555 23.9033L22.694 22.4536L24.0854 21.7172L24.8469 23.1669ZM23.878 21.3222L22.4866 22.0586L21.7251 20.6089L23.1165 19.8725L23.878 21.3222ZM22.9091 19.4776L21.5178 20.214L20.7563 18.7643L22.1476 18.0279L22.9091 19.4776ZM21.9402 17.633L20.5489 18.3694L19.7874 16.9197L21.1787 16.1833L21.9402 17.633ZM20.9713 15.7884L19.58 16.5247L18.8185 15.075L20.2098 14.3386L20.9713 15.7884ZM20.0024 13.9437L18.6111 14.6802L17.8496 13.2304L19.241 12.494L20.0024 13.9437ZM19.0336 12.0991L17.6422 12.8355L16.8807 11.3857L18.2721 10.6493L19.0336 12.0991ZM18.0647 10.2545L16.6733 10.9909L15.9119 9.5412L17.3032 8.80486L18.0647 10.2545ZM17.0957 8.40986L15.7044 9.14627L14.9427 7.69614L16.334 6.95973L17.0957 8.40986ZM16.1266 6.56481L14.7353 7.30122L13.9738 5.85151L15.3651 5.11518L16.1266 6.56481ZM15.1577 4.72018L13.7664 5.45652L13.0049 4.00681L14.3963 3.2704L15.1577 4.72018ZM30.5074 29.6012L29.1161 30.3376L28.3546 28.8879L29.7459 28.1515L30.5074 29.6012ZM29.5385 27.7566L28.1471 28.493L27.3856 27.0433L28.777 26.3069L29.5385 27.7566ZM28.5696 25.9119L27.1782 26.6483L26.4165 25.1981L27.8079 24.4617L28.5696 25.9119ZM27.6005 24.0669L26.2092 24.8033L25.4477 23.3536L26.839 22.6172L27.6005 24.0669ZM26.6316 22.2223L25.2403 22.9587L24.4788 21.509L25.8701 20.7726L26.6316 22.2223ZM25.6627 20.3776L24.2714 21.1141L23.5099 19.6643L24.9012 18.9279L25.6627 20.3776ZM24.6938 18.5329L23.3025 19.2694L22.541 17.8196L23.9324 17.0833L24.6938 18.5329ZM23.725 16.6884L22.3336 17.4248L21.5721 15.9751L22.9635 15.2387L23.725 16.6884ZM22.756 14.8438L21.3647 15.5801L20.6032 14.1304L21.9945 13.394L22.756 14.8438ZM21.7871 12.9991L20.3958 13.7355L19.6343 12.2858L21.0256 11.5494L21.7871 12.9991ZM20.8182 11.1545L19.4269 11.8909L18.6654 10.4412L20.0568 9.70482L20.8182 11.1545ZM19.8494 9.3099L18.458 10.0463L17.6965 8.59661L19.0879 7.86019L19.8494 9.3099ZM18.8805 7.46527L17.4891 8.20161L16.7274 6.75147L18.1188 6.01506L18.8805 7.46527ZM17.9114 5.62022L16.5201 6.35663L15.7586 4.90692L17.1499 4.17059L17.9114 5.62022ZM31.3232 26.812L29.9319 27.5483L29.1704 26.0986L30.5617 25.3623L31.3232 26.812ZM30.3543 24.9674L28.963 25.7037L28.2013 24.2536L29.5926 23.5172L30.3543 24.9674ZM29.3852 23.1223L27.9938 23.8586L27.2323 22.4089L28.6237 21.6726L29.3852 23.1223ZM28.4163 21.2777L27.025 22.014L26.2635 20.5643L27.6548 19.8279L28.4163 21.2777ZM27.4474 19.4331L26.0561 20.1694L25.2946 18.7197L26.6859 17.9833L27.4474 19.4331ZM26.4785 17.5884L25.0872 18.3248L24.3257 16.8751L25.717 16.1387L26.4785 17.5884ZM25.5096 15.7438L24.1183 16.4802L23.3568 15.0305L24.7482 14.2942L25.5096 15.7438ZM24.5408 13.8992L23.1494 14.6356L22.3879 13.1859L23.7793 12.4495L24.5408 13.8992ZM23.5719 12.0546L22.1805 12.7909L21.4191 11.3412L22.8104 10.6048L23.5719 12.0546ZM22.603 10.2099L21.2117 10.9463L20.4502 9.49657L21.8415 8.76023L22.603 10.2099ZM21.6341 8.36531L20.2428 9.10165L19.4813 7.65194L20.8726 6.9156L21.6341 8.36531ZM20.6652 6.52068L19.2738 7.25702L18.5121 5.80688L19.9035 5.07047L20.6652 6.52068ZM32.139 24.0228L30.7477 24.7592L29.986 23.309L31.3773 22.5726L32.139 24.0228ZM31.1699 22.1777L29.7786 22.9141L29.0171 21.4644L30.4084 20.728L31.1699 22.1777ZM30.201 20.3331L28.8097 21.0695L28.0482 19.6198L29.4396 18.8834L30.201 20.3331ZM29.2322 18.4885L27.8408 19.2248L27.0793 17.7751L28.4707 17.0387L29.2322 18.4885ZM28.2633 16.6438L26.8719 17.3802L26.1105 15.9305L27.5018 15.1941L28.2633 16.6438ZM27.2944 14.7992L25.9031 15.5356L25.1416 14.0859L26.5329 13.3496L27.2944 14.7992ZM26.3255 12.9546L24.9342 13.691L24.1727 12.2413L25.564 11.505L26.3255 12.9546ZM25.3566 11.11L23.9652 11.8464L23.2037 10.3967L24.5951 9.66026L25.3566 11.11ZM24.3877 9.26534L22.9963 10.0018L22.2349 8.55205L23.6262 7.81564L24.3877 9.26534ZM23.4188 7.42072L22.0275 8.15713L21.266 6.70742L22.6573 5.97101L23.4188 7.42072ZM31.9858 19.3884L30.5945 20.1248L29.833 18.6751L31.2243 17.9387L31.9858 19.3884ZM31.0168 17.5439L29.6255 18.2803L28.864 16.8306L30.2554 16.0942L31.0168 17.5439ZM30.048 15.6992L28.6566 16.4356L27.8951 14.9859L29.2865 14.2495L30.048 15.6992ZM29.0791 13.8546L27.6877 14.591L26.9263 13.1413L28.3176 12.4049L29.0791 13.8546ZM28.1102 12.01L26.7189 12.7464L25.9574 11.2967L27.3487 10.5604L28.1102 12.01ZM27.1413 10.1654L25.75 10.9018L24.9885 9.45208L26.3798 8.71567L27.1413 10.1654ZM26.1724 8.32075L24.7811 9.05716L24.0196 7.60746L25.4109 6.87105L26.1724 8.32075Z" fill="#CCCCCC"/>
<path d="M21.4731 4.23873C21.5965 4.29732 21.719 4.35809 21.8416 4.42045L21.6868 4.12562L21.4731 4.23873ZM18.8703 3.25888C18.9016 3.26753 18.933 3.27618 18.9648 3.2857L18.9332 3.22559L18.8703 3.25888ZM3.26367 11.5189L3.27338 11.5373C3.27606 11.5275 3.27938 11.5179 3.28293 11.5087L3.26367 11.5189Z" fill="#C23413"/>
<path d="M32.9732 30.7496L32.9549 30.7967C32.1312 32.9094 31.481 34.5781 31.228 36.799C30.9752 39.0149 31.2766 40.7278 32.3034 42.909L31.5347 43.2738L30.6059 43.7143C29.4295 41.2163 29.0697 39.1508 29.3622 36.5841C29.3883 36.3561 29.4182 36.1334 29.4515 35.915C29.7784 33.7731 30.445 32.0622 31.2061 30.11L31.2248 30.0625L32.0743 30.3962L32.9725 30.7491L32.9732 30.7496Z" fill="#C23413"/>
<path d="M28.5437 45.0857C27.4447 43.1985 26.2811 41.7415 24.1741 40.7654C22.7256 40.0944 21.2091 39.6549 19.2893 39.0985C18.9125 38.9893 18.5225 38.8762 18.1172 38.7569L18.646 36.9482C19.0485 37.0668 19.4359 37.1791 19.8101 37.2876C21.7273 37.8431 23.3832 38.3229 24.961 39.0539C27.6634 40.3059 29.0591 42.2355 30.1648 44.1345L28.5437 45.0857Z" fill="#C23413"/>
<path d="M30.4765 13.6195C34.2216 21.3933 33.3668 34.6135 23.4634 36.9472C15.3679 38.4769 7.20643 31.8583 4.08798 24.724C2.00343 20.0042 1.719 14.3243 4.06234 9.65255C6.2878 5.03158 11.3429 2.2071 16.4301 2.80068C22.6491 3.42973 27.9257 8.03202 30.4765 13.6195ZM31.1729 10.8935C28.0443 5.44343 22.306 1.21876 15.9659 0.871597C15.5875 0.850953 15.2063 0.84412 14.8236 0.851534C6.6385 0.915137 0.756926 8.06996 0.549825 15.9926C0.323898 20.6846 1.81314 25.3874 4.46091 29.2414C10.1504 37.7952 22.244 42.6236 29.4546 35.9155C29.9838 35.4235 30.4862 34.8699 30.9582 34.2506C31.7162 33.2561 32.3947 32.0934 32.9755 30.7498C32.9938 30.7081 33.0117 30.6656 33.0298 30.6234C35.5146 24.2452 34.5539 16.7646 31.1729 10.8935Z" fill="#C23413"/>
<path opacity="0.26" d="M16.6268 37.9124C13.1306 37.1723 10.1102 35.0179 7.60802 32.5313C4.04626 29.0344 1.44598 23.4814 1.05459 18.4466C0.454146 12.3701 2.73333 5.51908 9.93984 2.17264C10.2841 2.01279 10.369 2.51674 10.0002 2.63116C9.14997 2.90432 7.45617 4.11321 6.75116 4.66201C5.32789 5.76724 3.94401 7.62771 3.13168 9.23152C0.678921 14.1168 1.3806 20.0136 3.35696 25.1101C5.51949 30.3531 9.64643 34.3975 14.7801 36.8341C15.3995 37.1089 16.0661 37.3443 16.7185 37.526C16.9614 37.5747 16.8782 37.9803 16.6268 37.9124Z" fill="white"/>
<g opacity="0.26">
<path d="M28.2263 43.1533C28.1399 43.199 28.0306 43.1834 27.9605 43.1086C25.5582 40.5401 22.1743 38.8996 18.6766 38.6077C18.5542 38.5976 18.4633 38.4897 18.4734 38.3669C18.4836 38.2439 18.5911 38.1526 18.7134 38.1629C22.3195 38.4638 25.808 40.1551 28.2848 42.8031C28.3688 42.8929 28.3644 43.0342 28.2749 43.1186C28.2599 43.1326 28.2435 43.1442 28.2263 43.1533Z" fill="white"/>
</g>
<path d="M32.7969 44.7119C32.7988 44.6571 32.8007 44.6022 32.8035 44.5469C32.8107 44.6031 32.8092 44.6588 32.7969 44.7119Z" fill="#A82000"/>
<path d="M33.0289 30.6239C33.0108 30.666 32.9929 30.7086 32.9746 30.7502L32.9752 30.7504L32.957 30.7976C32.1332 32.9102 31.483 34.579 31.2301 36.7999C30.9773 39.0157 31.2787 40.7287 32.3054 42.9099L31.5367 43.2747C30.1857 40.9577 30.1685 38.0385 30.7 35.3875C30.7764 35.0066 30.8629 34.6278 30.9572 34.251C31.2801 32.9547 31.6908 31.6785 32.0764 30.3972C32.3974 29.3313 32.7009 28.2617 32.9228 27.1718C33.8227 22.7529 33.3264 18.0579 31.5215 13.9271C29.7171 9.796 26.6128 6.24922 22.7646 3.92041C20.6903 2.6653 18.1991 1.81702 15.9648 0.87207C22.3049 1.21916 28.0433 5.44383 31.1719 10.894C34.553 16.7651 35.5136 24.2457 33.0289 30.6239Z" fill="#A82000"/>
<path d="M39.4498 56.2753C39.5313 56.4304 38.5305 57.1208 37.2146 57.8173C35.8986 58.5138 34.7658 58.9526 34.6843 58.7975C34.6029 58.6424 35.6036 57.952 36.9196 57.2555C38.2355 56.5591 39.3683 56.1202 39.4498 56.2753Z" fill="#542D18"/>
<path d="M39.4517 56.2745L34.6859 58.7968L33.8613 56.0207L33.8004 55.8976L33.5468 55.3859L33.2762 54.8388L33.034 54.3501L31.6908 51.6376L31.4202 51.0916L30.9043 50.0498L30.6626 49.5609L29.43 47.0729L29.1778 46.5627L28.0352 44.2554L31.9792 42.168L33.3972 45.0007L33.6411 45.4885L34.3557 46.9159L34.6099 47.4234L35.9299 50.0596L36.1738 50.5474L36.5633 51.3253L36.8303 51.8591L37.801 53.7976L37.8555 53.9067L38.0928 54.2584L39.4517 56.2745Z" fill="#85401D"/>
<path d="M37.8537 53.9079L38.0909 54.2596C37.8297 54.4259 37.5618 54.5817 37.2882 54.7265C36.949 54.906 36.6015 55.0686 36.2467 55.2121C35.4607 55.5311 34.6378 55.7608 33.7986 55.8988L33.5449 55.3871C34.4016 55.2589 35.2429 55.0313 36.0431 54.7064C36.6536 54.4585 37.2421 54.1537 37.7992 53.7988L37.8537 53.9079Z" fill="#B8653A"/>
<path d="M35.3788 53.3797C34.7129 53.971 34.0055 54.4609 33.2754 54.8406L33.0332 54.352C33.7209 53.9936 34.3885 53.5309 35.0185 52.9714C35.5851 52.4686 36.098 51.9083 36.5625 51.3271L36.8295 51.861C36.3892 52.3957 35.9071 52.9105 35.3788 53.3797Z" fill="#B8653A"/>
<path d="M33.4079 50.92C34.2836 50.7515 35.1332 50.4599 35.9295 50.0615L36.1734 50.5493C35.3327 50.9706 34.4351 51.278 33.5103 51.4563C32.9102 51.572 32.3008 51.6327 31.6905 51.6395L31.4199 51.0935C32.0854 51.1035 32.7522 51.0467 33.4079 50.92Z" fill="#B8653A"/>
<path d="M34.3553 46.917L34.6095 47.4245C34.3427 47.6695 34.0703 47.9006 33.8011 48.1221C32.994 48.7871 32.023 49.5303 30.9038 50.0509L30.6621 49.562C31.733 49.0664 32.6726 48.3454 33.4561 47.7003C33.7565 47.4531 34.0611 47.1938 34.3553 46.917Z" fill="#B8653A"/>
<path d="M33.3953 45.002L33.6392 45.4897C33.2819 45.6922 32.9289 45.8752 32.5757 46.0419C31.5151 46.5422 30.4623 46.8874 29.4281 47.0742L29.1758 46.564C30.2135 46.3933 31.274 46.0535 32.3443 45.5481C32.6931 45.3837 33.042 45.2024 33.3953 45.002Z" fill="#B8653A"/>
<path opacity="0.32" d="M39.4486 56.2745L37.9747 57.0546C37.8355 56.946 37.7102 56.8093 37.6009 56.6737C36.7644 55.6343 36.251 54.3791 35.7058 53.1603C35.2491 52.1398 34.7626 51.1328 34.256 50.1364C33.3377 48.3306 32.3516 46.5607 31.3474 44.8021C31.0961 44.3619 30.8438 43.923 30.591 43.4842C30.5122 43.3471 30.4099 43.1959 30.332 43.0381L31.976 42.168L33.3941 45.0007L33.638 45.4884L34.3525 46.9159L34.6068 47.4234L35.9266 50.0596L36.1705 50.5474L36.5601 51.3253L36.8271 51.8591L37.7978 53.7976L37.8523 53.9067L38.0895 54.2584L39.4486 56.2745Z" fill="#542D18"/>
<g opacity="0.18">
<path d="M35.2174 55.6632C34.8758 55.835 34.4778 55.7316 34.3283 55.4322L29.0138 44.7868C28.8644 44.4874 29.0201 44.1055 29.3617 43.9336C29.7033 43.7618 30.1013 43.8652 30.2508 44.1646L35.5653 54.81C35.7148 55.1093 35.559 55.4913 35.2174 55.6632Z" fill="white"/>
</g>
<path d="M50.3366 59.2041C44.5428 59.2041 39.4668 55.9451 36.8978 51.0874C34.7833 47.0895 34.554 42.3093 36.2779 38.1165C39.206 31.0045 46.9752 27.1556 54.4199 29.2353C60.8888 31.0295 65.5416 36.9939 65.5416 43.9412C65.5416 52.3342 58.7737 59.2041 50.3366 59.2041Z" fill="url(#paint1_radial_549_17457)"/>
<path opacity="0.13" d="M57.8459 51.2102C62.6816 46.356 62.6816 38.4858 57.8459 33.6316C53.0101 28.7774 45.1698 28.7774 40.334 33.6316C35.4983 38.4858 35.4983 46.356 40.334 51.2102C45.1698 56.0644 53.0101 56.0644 57.8459 51.2102Z" fill="white"/>
<path d="M52.696 37.9774C52.6821 37.9774 52.6681 37.9757 52.654 37.9723C52.5594 37.9491 52.5015 37.8534 52.5246 37.7585L53.7629 32.6711C53.786 32.5762 53.8816 32.518 53.976 32.5412C54.0705 32.5644 54.1285 32.6601 54.1054 32.7551L52.867 37.8424C52.8474 37.9232 52.7753 37.9774 52.696 37.9774Z" fill="#999999"/>
<path d="M63.4391 38.5536C63.371 38.5536 63.3062 38.5139 63.2773 38.4472C63.261 38.4095 61.6153 34.658 59.1975 33.0359C59.1166 32.9816 59.0948 32.8717 59.1489 32.7905C59.203 32.7093 59.3126 32.6875 59.3933 32.7417C61.8982 34.4222 63.5323 38.1483 63.6007 38.3061C63.6395 38.3958 63.5986 38.5 63.5093 38.539C63.4865 38.549 63.4626 38.5536 63.4391 38.5536Z" fill="#999999"/>
<path d="M62.266 43.7238C62.2651 43.7238 62.2641 43.7238 62.2631 43.7238L56.8453 43.6361C56.7479 43.6345 56.6703 43.554 56.6719 43.4563C56.6734 43.3596 56.7521 43.2822 56.8481 43.2822C56.849 43.2822 56.85 43.2822 56.851 43.2822L62.2688 43.3699C62.3661 43.3715 62.4438 43.452 62.4422 43.5496C62.4407 43.6465 62.362 43.7238 62.266 43.7238Z" fill="#999999"/>
<path d="M54.926 54.8191C54.8543 54.8191 54.7869 54.7748 54.7606 54.7033L52.7941 49.3524C52.7605 49.2607 52.8072 49.159 52.8985 49.1252C52.9898 49.0915 53.0912 49.1383 53.1248 49.23L55.0913 54.5809C55.125 54.6726 55.0782 54.7742 54.9869 54.8081C54.9668 54.8155 54.9462 54.8191 54.926 54.8191Z" fill="#999999"/>
<path d="M41.4264 51.0483C41.3711 51.0483 41.3166 51.0222 41.2823 50.9734C41.2261 50.8936 41.2451 50.7832 41.3246 50.7268L46.2769 47.2179C46.3564 47.1616 46.4665 47.1806 46.5225 47.2605C46.5787 47.3403 46.5597 47.4507 46.4802 47.507L41.5279 51.0159C41.4971 51.0377 41.4616 51.0483 41.4264 51.0483Z" fill="#999999"/>
<path d="M46.1851 40.4343C46.153 40.4343 46.1206 40.4255 46.0915 40.4071L40.9497 37.1617C40.8673 37.1096 40.8424 37.0004 40.8943 36.9177C40.9461 36.835 41.0549 36.8101 41.1373 36.8621L46.2792 40.1075C46.3616 40.1596 46.3863 40.2687 46.3346 40.3515C46.301 40.4049 46.2437 40.4343 46.1851 40.4343Z" fill="#999999"/>
<path d="M42.6686 32.0962C42.613 32.0962 42.5584 32.07 42.5241 32.0208C42.4683 31.9408 42.4875 31.8305 42.5672 31.7744C42.5938 31.7557 45.2685 29.8977 49.2203 29.3358C49.3163 29.322 49.4059 29.3893 49.4195 29.4862C49.4332 29.5829 49.366 29.6725 49.2697 29.6861C45.4058 30.2356 42.7955 32.0459 42.7696 32.0641C42.7388 32.0858 42.7036 32.0962 42.6686 32.0962Z" fill="#999999"/>
<path d="M36.7984 47.379C36.7177 47.379 36.6448 47.323 36.6265 47.2405C35.7874 43.4583 36.6379 40.5746 36.6745 40.4536C36.7028 40.3601 36.8012 40.3074 36.8943 40.3359C36.9875 40.3642 37.04 40.463 37.0119 40.5565C37.0032 40.5853 36.1528 43.477 36.9707 47.1636C36.9918 47.259 36.9319 47.3535 36.8369 47.3747C36.824 47.3777 36.8111 47.379 36.7984 47.379Z" fill="#999999"/>
<path d="M49.3413 57.9518C47.376 57.9518 45.9119 57.4451 44.9923 56.989C43.8561 56.4255 43.2899 55.8261 43.2663 55.8008C43.1998 55.7295 43.2035 55.6175 43.2745 55.5507C43.3456 55.484 43.457 55.4876 43.5236 55.5588C43.5326 55.5685 44.0836 56.1466 45.1647 56.6797C46.1652 57.1731 47.8385 57.7283 50.1272 57.5705C50.2246 57.5641 50.3085 57.6374 50.3151 57.7349C50.3218 57.8324 50.2485 57.9168 50.1513 57.9235C49.8726 57.9428 49.6025 57.9518 49.3413 57.9518Z" fill="#999999"/>
<path d="M60.3131 54.4794C60.2609 54.4794 60.2092 54.4562 60.1744 54.4118C60.1142 54.335 60.1276 54.2238 60.204 54.1634C60.2273 54.145 62.5466 52.2795 63.7448 48.6304C63.7753 48.5376 63.8748 48.4871 63.9674 48.5177C64.0599 48.5483 64.11 48.6484 64.0796 48.7412C62.8463 52.4972 60.5203 54.3639 60.4219 54.4416C60.3896 54.467 60.3512 54.4794 60.3131 54.4794Z" fill="#999999"/>
<path d="M59.2957 32.8888L53.9363 32.7134L49.2461 29.5114L50.5119 28.6797H50.5123C53.4824 28.7127 56.2477 29.6009 58.5761 31.1106L59.2957 32.8888Z" fill="#362A2D"/>
<path d="M36.8396 40.5048L36.0898 38.5942C37.0787 35.94 38.7826 33.6361 40.9665 31.9189H42.6668L41.043 37.0108L36.8396 40.5048Z" fill="#362A2D"/>
<path d="M43.3925 55.6796H40.6196C38.642 54.0284 37.088 51.8827 36.1465 49.4314C36.3928 48.5699 36.7972 47.2021 36.7972 47.2021L41.4248 50.8706L43.3925 55.6796Z" fill="#362A2D"/>
<path d="M52.0221 59.1111L50.1367 57.7466L54.9256 54.6426L60.3133 54.3018L59.786 55.8996H59.7856C57.6048 57.6385 54.9377 58.7884 52.0221 59.1111Z" fill="#362A2D"/>
<path d="M63.9143 48.6849L62.2676 43.546L63.4402 38.376L64.8712 39.4364C65.3088 40.8598 65.5444 42.3726 65.5444 43.9406C65.5444 45.3016 65.367 46.621 65.0337 47.8767L63.9143 48.6849Z" fill="#362A2D"/>
<path d="M52.9579 49.2922L46.3756 47.3621L46.1855 40.2569L52.6959 37.8008L56.8466 43.459L52.9579 49.2922Z" fill="#362A2D"/>
<path opacity="0.13" d="M65.519 43.0918C65.8314 48.5405 63.1956 53.7777 58.5758 56.7724C54.3288 59.5257 49.0552 59.9266 44.5352 58.0539C54.9514 60.2816 64.9686 53.1075 65.519 43.0918Z" fill="white"/>
<path opacity="0.13" d="M47.4515 48.8649C52.1202 48.8649 55.905 45.0658 55.905 40.3792C55.905 35.6927 52.1202 31.8936 47.4515 31.8936C42.7828 31.8936 38.998 35.6927 38.998 40.3792C38.998 45.0658 42.7828 48.8649 47.4515 48.8649Z" fill="white"/>
<path opacity="0.23" d="M41.9996 36.0351C43.3511 34.089 45.5237 32.7632 47.8049 32.666C48.6263 32.631 49.6329 32.9054 49.8358 33.7479C49.9775 34.3368 49.6315 34.9513 49.1732 35.3178C48.715 35.6844 48.1552 35.8726 47.6369 36.1348C45.6735 37.128 44.3002 39.3135 44.1949 41.6126C44.1692 42.1728 44.2127 42.7397 44.1163 43.2911C44.0199 43.8426 43.7516 44.3993 43.2766 44.6487C41.812 45.4177 40.4384 43.1871 40.2934 41.9017C40.0714 39.9348 40.9189 37.5912 41.9996 36.0351Z" fill="white"/>
<path d="M30.9276 44.0598C31.0924 44.1068 31.2546 44.1584 31.4144 44.2143C31.7252 44.323 32.0263 44.448 32.3169 44.5878C32.5905 44.7197 32.8549 44.865 33.1095 45.0226C33.3166 45.1503 33.517 45.2867 33.7108 45.4306C35.3388 46.6385 36.4873 48.3817 36.9732 50.3293C37.0252 50.5375 37.0696 50.7479 37.1061 50.9606C37.2952 52.0583 37.276 53.208 37.0174 54.3532C36.9825 54.5099 36.9425 54.6669 36.8982 54.8233C36.7011 55.5185 36.4252 56.17 36.0828 56.7704C35.9599 56.9865 35.8276 57.1963 35.6879 57.3991C34.5658 59.0258 32.9286 60.2067 31.0762 60.7739C30.8407 60.8461 30.6014 60.9082 30.3593 60.9601C29.0174 61.2484 27.5874 61.2202 26.1754 60.8167C25.516 60.6283 24.8962 60.3681 24.322 60.047C24.1184 59.9334 23.9206 59.8122 23.7289 59.6834C23.5362 59.5544 23.3496 59.418 23.1693 59.2747C21.6885 58.0988 20.6339 56.4681 20.1571 54.6527C20.1021 54.4435 20.0545 54.2318 20.0152 54.0179C19.7864 52.7769 19.8238 51.4679 20.1722 50.1714C20.1828 50.1319 20.1937 50.0924 20.2048 50.053C20.4103 49.3285 20.7014 48.6518 21.0637 48.0308C21.0912 47.9837 21.1192 47.9368 21.1475 47.8902C21.2627 47.7003 21.3846 47.5163 21.5135 47.3375C22.7435 45.6275 24.5519 44.4315 26.5724 43.9546C26.8228 43.8957 27.0762 43.8474 27.3325 43.811C28.4998 43.6441 29.7204 43.7148 30.9276 44.0598Z" fill="url(#paint2_radial_549_17457)"/>
<path opacity="0.29" d="M37.2148 51.9521C37.224 52.1126 37.2284 52.2744 37.2284 52.4372C37.2284 53.1599 37.1407 53.8623 36.9751 54.534C36.9159 54.7757 36.8461 55.0138 36.767 55.2472C36.1315 57.1201 34.8789 58.7058 33.252 59.7605C33.045 59.8946 32.832 60.0201 32.6133 60.1367C31.4012 60.7828 30.018 61.1486 28.5502 61.1486C27.8646 61.1486 27.1975 61.0686 26.5576 60.9177C26.3308 60.8644 26.1075 60.802 25.8879 60.7311C25.6674 60.6598 25.4507 60.5799 25.2383 60.4918C25.9384 60.6416 26.6668 60.7204 27.4144 60.7204C29.0743 60.7204 30.6386 60.3317 32.0094 59.645C32.2566 59.5212 32.4974 59.3879 32.7314 59.2454C34.5713 58.1247 35.988 56.4397 36.7066 54.4494C36.796 54.2013 36.8751 53.9485 36.942 53.6914C37.0892 53.1299 37.182 52.5486 37.2148 51.9521Z" fill="white"/>
<path d="M31.4139 44.2139C31.7247 44.3226 32.0259 44.4476 32.3165 44.5874C31.9679 45.4201 32.0462 46.3648 32.1947 47.2451C32.4881 48.9414 33.2156 50.5355 33.6301 52.2115C34.2734 54.8967 33.546 58.0059 30.6314 58.8834C28.4704 59.5738 26.1241 58.8517 24.2368 57.7264C21.7227 56.2323 20.4948 53.2886 20.1719 50.1711C20.1825 50.1315 20.1934 50.0921 20.2045 50.0527C20.41 49.3282 20.7011 48.6515 21.0634 48.0305C21.2065 50.5114 21.6659 53.0034 22.6516 54.8505C24.4095 58.1123 30.4264 60.3634 32.6241 56.4555C34.2525 52.8069 30.9927 49.3954 31.1063 45.7241C31.1115 45.2104 31.2151 44.6911 31.4139 44.2139Z" fill="#F1FDC3"/>
<path opacity="0.29" d="M31.3655 54.8368C33.642 52.5517 33.642 48.8468 31.3655 46.5617C29.0891 44.2765 25.3983 44.2765 23.1218 46.5617C20.8454 48.8468 20.8454 52.5517 23.1218 54.8368C25.3983 57.1219 29.0891 57.1219 31.3655 54.8368Z" fill="white"/>
<path opacity="0.39" d="M23.9868 46.8119C24.9793 45.895 26.3529 45.4254 27.6361 45.6539C28.0981 45.7362 28.6253 46.0138 28.6347 46.5085C28.6413 46.8542 28.3729 47.1537 28.0725 47.3012C27.772 47.4487 27.437 47.4842 27.1159 47.5661C25.8996 47.8763 24.8657 48.9239 24.5242 50.192C24.441 50.501 24.3955 50.8223 24.274 51.1177C24.1525 51.4131 23.9345 51.69 23.6391 51.7701C22.7284 52.0171 22.2373 50.6039 22.3146 49.8697C22.4327 48.7461 23.1932 47.5452 23.9868 46.8119Z" fill="white"/>
<defs>
<radialGradient id="paint0_radial_549_17457" cx="0" cy="0" r="1" gradientUnits="userSpaceOnUse" gradientTransform="translate(56.7658 24.0377) scale(17.8032 17.871)">
<stop stop-color="#FF6A0A"/>
<stop offset="0.2497" stop-color="#FB690A"/>
<stop offset="0.4745" stop-color="#F06409"/>
<stop offset="0.6897" stop-color="#DE5D09"/>
<stop offset="0.8977" stop-color="#C55208"/>
<stop offset="1" stop-color="#B54C07"/>
</radialGradient>
<radialGradient id="paint1_radial_549_17457" cx="0" cy="0" r="1" gradientUnits="userSpaceOnUse" gradientTransform="translate(50.3362 43.9385) rotate(90) scale(15.2645 15.2065)">
<stop stop-color="#DBDBDB"/>
<stop offset="0.2834" stop-color="#CBCBCB"/>
<stop offset="0.6226" stop-color="#C1C1C1"/>
<stop offset="1" stop-color="#BDBDBD"/>
</radialGradient>
<radialGradient id="paint2_radial_549_17457" cx="0" cy="0" r="1" gradientUnits="userSpaceOnUse" gradientTransform="translate(28.5516 52.4382) scale(10.4349 10.4747)">
<stop stop-color="#CEFD14"/>
<stop offset="0.5001" stop-color="#CCF917"/>
<stop offset="0.9895" stop-color="#C4ED1F"/>
<stop offset="1" stop-color="#C4ED1F"/>
</radialGradient>
</defs>
</svg>
