<svg width="317" height="135" viewBox="0 0 317 135" fill="none" xmlns="http://www.w3.org/2000/svg">
<path d="M198.103 104.905C197.623 105.611 196.962 105.998 196.625 105.768L192.935 103.259C192.598 103.03 192.714 102.273 193.194 101.567C193.674 100.861 194.336 100.475 194.672 100.704L198.362 103.213C198.699 103.442 198.583 104.2 198.103 104.905Z" fill="#2B242A"/>
<path d="M193.012 100.865C193.012 100.865 192.651 102.289 195.142 103.982C197.633 105.676 198.824 104.816 198.824 104.816C198.824 104.816 209.395 87.913 210.85 85.7726C212.306 83.6319 208.296 80.2603 206.54 82.842C204.785 85.4235 193.012 100.865 193.012 100.865Z" fill="#95C11F"/>
<path d="M198.361 104.422C200.19 101.499 208.745 87.8373 210.043 85.9281C210.053 85.9137 210.06 85.8995 210.069 85.8856C207.622 85.7426 197.941 104.076 198.361 104.422Z" fill="white"/>
<path d="M198.32 103.901C197.543 103.059 196.981 102.064 196.96 100.89C196.933 99.3932 197.463 97.9606 198.054 96.6094C199.453 93.4094 201.137 90.4245 203.874 88.1798C205.89 86.5268 208.365 85.2276 211.027 85.4382C211.903 83.3055 208.207 80.3911 206.54 82.842C204.785 85.4232 193.012 100.865 193.012 100.865C193.012 100.865 192.651 102.289 195.142 103.982C197.633 105.676 198.824 104.816 198.824 104.816C198.824 104.816 198.886 104.717 199 104.535C198.755 104.337 198.525 104.122 198.32 103.901Z" fill="#BBCBC8"/>
<path d="M199.639 103.514L193.85 102.884C194.054 103.112 194.308 103.351 194.621 103.599L199.269 104.105C199.376 103.935 199.499 103.737 199.639 103.514Z" fill="white"/>
<path d="M201.173 101.065L193.497 100.229C193.274 100.522 193.121 100.723 193.053 100.811L200.803 101.655C200.923 101.464 201.046 101.268 201.173 101.065Z" fill="white"/>
<path d="M203.212 97.8143L195.935 97.0215C195.783 97.2212 195.636 97.4161 195.492 97.6046L202.841 98.4048C202.964 98.2096 203.087 98.0128 203.212 97.8143Z" fill="white"/>
<path d="M205.255 94.5638L198.367 93.8135C198.219 94.0096 198.071 94.2043 197.926 94.3966L204.884 95.1546C205.008 94.9575 205.131 94.7605 205.255 94.5638Z" fill="white"/>
<path d="M207.305 91.3137L200.791 90.6045C200.645 90.7983 200.499 90.9926 200.352 91.1882L206.931 91.9042C207.057 91.7045 207.181 91.5084 207.305 91.3137Z" fill="white"/>
<path d="M209.365 88.0657L203.203 87.3945C203.059 87.5857 202.913 87.7806 202.766 87.9782L208.989 88.6556C209.119 88.4512 209.244 88.2541 209.365 88.0657Z" fill="white"/>
<path d="M209.899 84.6509L205.585 84.1807C205.451 84.3635 205.308 84.5591 205.156 84.7653L211.004 85.4024L209.899 84.6509Z" fill="white"/>
<path d="M212.66 82.6585C214.283 80.272 232.703 71.4817 237.763 69.1938C236.14 68.3484 224.089 70.0493 224.089 70.0493C224.089 70.0493 227.083 71.0678 224.12 72.7096C220.056 74.962 215.252 77.4418 214.3 77.9322C212.777 78.7162 212.237 77.9889 212.396 76.6531C212.493 75.8417 213.033 70.4153 213.729 65.6435C214.077 63.2523 216.272 64.7656 216.272 64.7656C216.272 64.7656 213.047 48.3355 211.985 51.6652C212.056 58.1272 210.434 77.3506 208.67 79.9447C206.906 82.5406 211.037 85.0459 212.66 82.6585Z" fill="#352E35"/>
<path d="M218.978 36.6925C226.052 26.2899 238.532 22.4442 246.854 28.1027C254.744 33.4674 256.063 45.4489 250.151 55.5434C250.769 55.8713 251.432 56.1593 252.01 56.545C258.61 45.2814 257.14 31.9101 248.336 25.9233C239.051 19.6098 225.127 23.9004 217.235 35.5068C216.285 36.9037 215.468 38.3426 214.777 39.8045C215.394 40.1548 216.057 40.4103 216.706 40.6906C217.339 39.3304 218.095 37.991 218.978 36.6925Z" fill="#95C11F"/>
<path d="M252.393 35.0236L252.079 35.4862L250.221 34.2231L251.235 32.7317C251.164 32.615 251.092 32.4995 251.018 32.3849L249.911 34.0125L248.054 32.7494L249.317 30.8914L250.588 31.7554C250.351 31.4251 250.101 31.1038 249.839 30.7933L249.528 30.5818L249.584 30.4988C249.498 30.4028 249.412 30.3074 249.324 30.214L249.218 30.3709L247.36 29.1078L247.649 28.683C247.551 28.6062 247.45 28.5309 247.35 28.4564L247.05 28.8969L245.192 27.6335L245.447 27.258C245.336 27.1992 245.224 27.1413 245.111 27.0855L244.882 27.4226L243.255 26.3163C242.87 26.186 242.479 26.0717 242.084 25.9728L242.504 26.2581L241.24 28.1164L239.383 26.853L240.218 25.6242C240.078 25.6065 239.938 25.5908 239.798 25.5766L239.073 26.6427L237.405 25.5078C237.152 25.5182 236.898 25.5329 236.644 25.5536L235.432 27.3363L233.573 26.0729L233.581 26.0608C233.398 26.1063 233.215 26.1541 233.031 26.2049L231.79 28.0299L230.433 27.1071C230.296 27.1638 230.161 27.2223 230.025 27.2822L231.579 28.3398L230.316 30.1978L228.458 28.9344L229.379 27.5803C229.15 27.6902 228.922 27.8027 228.695 27.9209L228.148 28.7241L227.738 28.4452C227.619 28.5143 227.5 28.584 227.382 28.6555L227.938 29.0336L226.675 30.8917L225.368 30.0031C225.262 30.0814 225.156 30.1603 225.051 30.2403L226.464 31.2009L225.201 33.0593L223.342 31.7956L223.573 31.4559C223.143 31.836 222.722 32.2333 222.311 32.6469L221.559 33.7529L221.38 33.6312C221.296 33.7242 221.212 33.8178 221.129 33.913L221.348 34.0627L220.085 35.9208L219.711 35.6658C219.636 35.7657 219.562 35.8667 219.489 35.968L219.875 36.2303L218.611 38.0884L218.241 37.8364C218.176 37.943 218.11 38.0497 218.046 38.1566L218.401 38.3979L217.138 40.256L216.97 40.1416C216.914 40.2551 216.859 40.3694 216.805 40.4831L216.927 40.5658L216.442 41.2786C216.2 41.834 215.978 42.3928 215.776 42.9532L217.621 44.2074L216.357 46.0658L215.079 45.197C215.046 45.3261 215.013 45.4546 214.982 45.5834L216.147 46.3756L214.884 48.2337L214.514 47.9823C214.494 48.1205 214.475 48.2591 214.458 48.397L214.673 48.5432L214.394 48.9538C214.368 49.2085 214.347 49.4616 214.329 49.7148L214.982 48.7536L216.84 50.017L215.577 51.8747L214.274 50.9885C214.272 51.1395 214.271 51.2901 214.272 51.4399L215.367 52.1843L214.393 53.6166C214.424 53.9123 214.461 54.2062 214.505 54.4972L216.187 55.6404L215.116 57.2151C215.162 57.3675 215.209 57.5188 215.26 57.6691L216.496 55.851L218.354 57.1144L217.091 58.9724L215.284 57.7433C215.351 57.9447 215.424 58.1441 215.499 58.3423L216.88 59.2817L216.297 60.1401C216.361 60.2657 216.428 60.39 216.495 60.5135L217.19 59.492L219.048 60.7551L217.826 62.5517C218.184 63.0155 218.568 63.4574 218.978 63.8774L219.742 64.3965L219.653 64.5261C219.747 64.6106 219.841 64.6936 219.937 64.7752L220.052 64.6071L221.91 65.8705L221.751 66.1038C221.857 66.17 221.964 66.2353 222.072 66.2982L222.219 66.0811L223.834 67.1791C224.3 67.3749 224.775 67.5456 225.255 67.6928L224.598 67.2455L225.861 65.3878L227.718 66.6506L226.753 68.0709C226.886 68.0977 227.02 68.122 227.155 68.145L228.028 66.8615L229.885 68.1246L229.712 68.3795C229.863 68.3819 230.013 68.3822 230.164 68.3807L230.195 68.3352L230.261 68.3798C230.472 68.376 230.685 68.3704 230.897 68.3595L230.406 68.0257L231.669 66.1676L233.527 67.431L233.061 68.1172C233.233 68.088 233.405 68.0567 233.578 68.023L233.837 67.6419L234.202 67.8901C234.365 67.8523 234.529 67.8124 234.692 67.7701L234.047 67.3321L235.185 65.6596L237.043 66.923L236.957 67.0497C237.163 66.9711 237.37 66.8899 237.576 66.8048L238.826 64.966L239.893 65.6912C240.014 65.6241 240.136 65.5559 240.258 65.4868L239.036 64.6564L240.3 62.7984L241.972 63.9353L241.383 64.8006C241.664 64.6195 241.943 64.4322 242.219 64.2381L242.281 64.1463L242.316 64.1696C242.424 64.0928 242.532 64.0154 242.639 63.9368L242.492 63.8367L243.755 61.9787L244.469 62.4643C244.565 62.3789 244.661 62.2938 244.757 62.2073L243.966 61.6694L245.229 59.8113L246.388 60.5992C246.474 60.5067 246.56 60.4151 246.645 60.3209L245.44 59.5015L246.703 57.6437L248.095 58.5902C248.171 58.4915 248.247 58.3911 248.322 58.2912L246.914 57.3339L248.177 55.4758L249.599 56.443C249.667 56.3378 249.734 56.2321 249.799 56.126L248.387 55.166L249.651 53.3079L250.908 54.1628C250.966 54.0506 251.022 53.9377 251.077 53.8249L249.862 52.9981L251.125 51.1398L252.008 51.74C252.055 51.6207 252.101 51.5013 252.146 51.3817L251.335 50.8305L252.599 48.9724L252.881 49.1647C252.917 49.0374 252.952 48.9104 252.986 48.7828L252.809 48.6629L253.139 48.1778C253.218 47.8497 253.29 47.5218 253.355 47.1939L252.499 48.452L250.827 47.315L252.091 45.457L253.498 46.4143C253.521 46.2776 253.542 46.1414 253.562 46.0049L252.301 45.1474L253.564 43.2894L253.803 43.4518C253.809 43.3035 253.813 43.1553 253.816 43.0078L253.775 42.9798L253.818 42.9163C253.822 42.6933 253.822 42.4708 253.819 42.2496L253.465 42.7695L251.607 41.5061L252.87 39.648L253.694 40.2078C253.676 40.0427 253.656 39.8781 253.633 39.7142L253.081 39.3388L253.481 38.7503C253.449 38.5775 253.415 38.405 253.379 38.2343L252.771 39.1281L250.913 37.8647L252.176 36.0064L252.933 36.5213C252.872 36.3249 252.807 36.1299 252.74 35.9367L252.387 35.6968L252.558 35.4437C252.506 35.3025 252.451 35.1625 252.393 35.0236ZM217.831 43.8976L215.972 42.6342L217.236 40.7761L219.094 42.0395L217.831 43.8976ZM219.305 41.7297L217.446 40.466L218.709 38.6082L220.568 39.8716L219.305 41.7297ZM220.778 39.5621L218.92 38.2987L220.183 36.4406L222.042 37.704L220.778 39.5621ZM222.252 37.3945L220.394 36.1311L221.657 34.273L223.516 35.5367L222.252 37.3945ZM223.727 35.2269L221.868 33.9635L223.132 32.1054L224.99 33.3688L223.727 35.2269ZM217.05 49.7065L215.192 48.4431L216.455 46.5851L218.313 47.8488L217.05 49.7065ZM218.524 47.5389L216.666 46.2755L217.929 44.4172L219.787 45.6806L218.524 47.5389ZM219.998 45.3713L218.14 44.1079L219.403 42.2499L221.261 43.5133L219.998 45.3713ZM221.472 43.2034L219.614 41.94L220.877 40.0823L222.735 41.3457L221.472 43.2034ZM222.946 41.0361L221.088 39.7727L222.351 37.9147L224.209 39.1781L222.946 41.0361ZM224.42 38.8682L222.561 37.6048L223.825 35.7468L225.683 37.0102L224.42 38.8682ZM225.894 36.7006L224.036 35.4372L225.299 33.5789L227.157 34.8423L225.894 36.7006ZM227.368 34.533L225.51 33.2696L226.773 31.4116L228.631 32.675L227.368 34.533ZM228.842 32.3651L226.984 31.1017L228.247 29.2437L230.105 30.5071L228.842 32.3651ZM216.396 55.3299L214.538 54.0665L215.676 52.3943L217.533 53.6577L216.396 55.3299ZM217.744 53.3481L215.886 52.0847L217.149 50.2267L219.008 51.4901L217.744 53.3481ZM219.218 51.1805L217.36 49.9171L218.623 48.0591L220.481 49.3225L219.218 51.1805ZM220.692 49.0132L218.834 47.7498L220.097 45.8918L221.955 47.1552L220.692 49.0132ZM222.166 46.8453L220.307 45.5819L221.571 43.7239L223.429 44.9873L222.166 46.8453ZM223.64 44.6774L221.782 43.414L223.045 41.556L224.903 42.8194L223.64 44.6774ZM225.114 42.5098L223.256 41.2464L224.519 39.3881L226.377 40.6515L225.114 42.5098ZM226.587 40.3422L224.73 39.0788L225.992 37.2208L227.851 38.4842L226.587 40.3422ZM228.061 38.1746L226.203 36.9112L227.466 35.0532L229.325 36.3166L228.061 38.1746ZM229.536 36.0067L227.677 34.7433L228.941 32.8853L230.799 34.1487L229.536 36.0067ZM231.009 33.8391L229.151 32.5757L230.415 30.718L232.273 31.9814L231.009 33.8391ZM232.483 31.6715L230.625 30.4081L231.889 28.5501L233.747 29.8135L232.483 31.6715ZM233.957 29.5039L232.099 28.2405L233.363 26.3825L235.221 27.6459L233.957 29.5039ZM218.564 56.8042L216.706 55.5405L217.843 53.8683L219.701 55.1317L218.564 56.8042ZM219.912 54.8224L218.054 53.5587L219.317 51.7007L221.175 52.9644L219.912 54.8224ZM221.386 52.6548L219.527 51.3911L220.791 49.5331L222.649 50.7965L221.386 52.6548ZM222.86 50.4869L221.001 49.2235L222.265 47.3652L224.123 48.6286L222.86 50.4869ZM224.334 48.3193L222.475 47.0559L223.739 45.1976L225.597 46.4613L224.334 48.3193ZM225.808 46.1514L223.95 44.888L225.213 43.03L227.071 44.2937L225.808 46.1514ZM227.282 43.9841L225.423 42.7207L226.686 40.8627L228.545 42.1264L227.282 43.9841ZM228.756 41.8162L226.897 40.5528L228.161 38.6948L230.019 39.9585L228.756 41.8162ZM230.229 39.6486L228.371 38.3852L229.634 36.5269L231.493 37.7906L230.229 39.6486ZM231.703 37.481L229.845 36.2173L231.108 34.3593L232.966 35.6227L231.703 37.481ZM233.177 35.3131L231.319 34.0497L232.582 32.1917L234.441 33.4551L233.177 35.3131ZM234.651 33.1458L232.793 31.8821L234.056 30.0241L235.914 31.2875L234.651 33.1458ZM236.125 30.9779L234.267 29.7145L235.53 27.8565L237.388 29.1199L236.125 30.9779ZM237.599 28.8103L235.74 27.5466L237.004 25.6886L238.862 26.952L237.599 28.8103ZM219.257 60.4459L217.399 59.1827L218.663 57.3247L220.521 58.5878L219.257 60.4459ZM220.732 58.278L218.874 57.0146L220.011 55.3423L221.869 56.6054L220.732 58.278ZM222.079 56.2959L220.221 55.0325L221.484 53.1744L223.342 54.4378L222.079 56.2959ZM223.553 54.1283L221.695 52.8652L222.958 51.0071L224.816 52.2702L223.553 54.1283ZM225.027 51.9607L223.169 50.6975L224.433 48.8395L226.29 50.1026L225.027 51.9607ZM226.501 49.7931L224.643 48.5299L225.906 46.6719L227.764 47.935L226.501 49.7931ZM227.975 47.6252L226.117 46.3618L227.38 44.504L229.239 45.7671L227.975 47.6252ZM229.449 45.4576L227.591 44.1944L228.854 42.3361L230.712 43.5995L229.449 45.4576ZM230.923 43.2899L229.065 42.0268L230.328 40.1688L232.186 41.4319L230.923 43.2899ZM232.397 41.1223L230.539 39.8589L231.802 38.0009L233.66 39.264L232.397 41.1223ZM233.871 38.9547L232.013 37.6913L233.276 35.8333L235.134 37.0964L233.871 38.9547ZM235.345 36.7868L233.487 35.5237L234.75 33.6657L236.608 34.9288L235.345 36.7868ZM236.819 34.6192L234.961 33.3561L236.224 31.4978L238.082 32.7609L236.819 34.6192ZM238.292 32.4516L236.435 31.1885L237.698 29.3305L239.556 30.5936L238.292 32.4516ZM239.766 30.284L237.909 29.0206L239.172 27.1626L241.03 28.4257L239.766 30.284ZM219.951 64.0872L218.093 62.8241L219.356 60.9663L221.214 62.2294L219.951 64.0872ZM221.425 61.9199L219.567 60.6568L220.831 58.7987L222.688 60.0618L221.425 61.9199ZM222.899 59.752L221.041 58.4886L222.179 56.8163L224.036 58.0794L222.899 59.752ZM224.247 57.7699L222.389 56.5065L223.652 54.6487L225.51 55.9118L224.247 57.7699ZM225.721 55.6023L223.863 54.3392L225.126 52.4811L226.984 53.7442L225.721 55.6023ZM227.194 53.4347L225.337 52.1716L226.6 50.3132L228.458 51.5763L227.194 53.4347ZM228.668 51.2668L226.811 50.0037L228.074 48.1453L229.932 49.4084L228.668 51.2668ZM230.142 49.0992L228.285 47.8361L229.548 45.978L231.406 47.2414L230.142 49.0992ZM231.617 46.9316L229.759 45.6685L231.022 43.8104L232.88 45.0738L231.617 46.9316ZM233.09 44.764L231.232 43.5009L232.496 41.6428L234.354 42.9059L233.09 44.764ZM234.564 42.5964L232.706 41.333L233.97 39.4749L235.828 40.738L234.564 42.5964ZM236.038 40.4288L234.18 39.1657L235.444 37.3073L237.302 38.5704L236.038 40.4288ZM237.513 38.2609L235.655 36.9978L236.918 35.1394L238.775 36.4025L237.513 38.2609ZM238.986 36.0933L237.128 34.8302L238.392 32.9721L240.25 34.2352L238.986 36.0933ZM240.46 33.9254L238.602 32.6623L239.866 30.8039L241.723 32.0673L240.46 33.9254ZM241.934 31.7581L240.076 30.4947L241.34 28.6366L243.197 29.8997L241.934 31.7581ZM243.408 29.5905L241.55 28.3273L242.813 26.4693L244.671 27.7324L243.408 29.5905ZM222.119 65.5615L220.261 64.2981L221.524 62.4403L223.382 63.7038L222.119 65.5615ZM223.593 63.3939L221.735 62.1305L222.998 60.2725L224.856 61.5359L223.593 63.3939ZM225.067 61.226L223.209 59.9626L224.347 58.2904L226.204 59.5538L225.067 61.226ZM226.415 59.2439L224.557 57.9805L225.82 56.1225L227.678 57.3859L226.415 59.2439ZM227.889 57.0763L226.031 55.8129L227.294 53.9549L229.152 55.2183L227.889 57.0763ZM229.362 54.909L227.505 53.6456L228.768 51.7873L230.626 53.0507L229.362 54.909ZM230.837 52.7411L228.978 51.4777L230.242 49.6197L232.1 50.8831L230.837 52.7411ZM232.31 50.5732L230.452 49.3098L231.716 47.4518L233.573 48.7152L232.31 50.5732ZM233.784 48.4056L231.926 47.1422L233.189 45.2842L235.047 46.5476L233.784 48.4056ZM235.258 46.238L233.4 44.9746L234.663 43.1166L236.522 44.38L235.258 46.238ZM236.732 44.0704L234.874 42.807L236.137 40.949L237.996 42.2124L236.732 44.0704ZM238.206 41.9028L236.348 40.6394L237.611 38.7813L239.47 40.0447L238.206 41.9028ZM239.68 39.7349L237.822 38.4715L239.085 36.6135L240.943 37.8769L239.68 39.7349ZM241.154 37.5673L239.296 36.3039L240.559 34.4458L242.418 35.7092L241.154 37.5673ZM242.628 35.3997L240.77 34.1363L242.033 32.2782L243.892 33.5416L242.628 35.3997ZM244.102 33.2321L242.244 31.9687L243.507 30.1103L245.365 31.3737L244.102 33.2321ZM245.576 31.0645L243.717 29.8011L244.981 27.943L246.839 29.2064L245.576 31.0645ZM224.287 67.0352L222.429 65.7721L223.692 63.9144L225.55 65.1775L224.287 67.0352ZM225.76 64.8676L223.902 63.6045L225.166 61.7465L227.024 63.0096L225.76 64.8676ZM227.235 62.6997L225.377 61.4366L226.514 59.7641L228.372 61.0272L227.235 62.6997ZM228.582 60.7179L226.724 59.4545L227.988 57.5965L229.845 58.8596L228.582 60.7179ZM230.056 58.55L228.198 57.2869L229.461 55.4289L231.319 56.692L230.056 58.55ZM231.53 56.3824L229.672 55.1193L230.936 53.261L232.793 54.5241L231.53 56.3824ZM233.004 54.2148L231.146 52.9517L232.41 51.0937L234.267 52.3571L233.004 54.2148ZM234.478 52.0469L232.62 50.7838L233.883 48.9258L235.741 50.1892L234.478 52.0469ZM235.952 49.8793L234.094 48.6162L235.357 46.7582L237.215 48.0213L235.952 49.8793ZM237.426 47.7117L235.568 46.4486L236.831 44.5909L238.689 45.854L237.426 47.7117ZM238.9 45.5441L237.042 44.281L238.305 42.423L240.163 43.6861L238.9 45.5441ZM240.373 43.3765L238.516 42.1134L239.779 40.2554L241.637 41.5185L240.373 43.3765ZM241.847 41.2089L239.99 39.9458L241.253 38.0875L243.111 39.3509L241.847 41.2089ZM243.322 39.041L241.464 37.7779L242.727 35.9199L244.585 37.183L243.322 39.041ZM244.795 36.8734L242.938 35.61L244.201 33.752L246.059 35.0151L244.795 36.8734ZM246.269 34.7058L244.411 33.4427L245.675 31.5844L247.533 32.8475L246.269 34.7058ZM247.743 32.5382L245.886 31.2751L247.149 29.4171L249.007 30.6802L247.743 32.5382ZM227.928 66.3416L226.07 65.0785L227.334 63.2202L229.191 64.4833L227.928 66.3416ZM229.403 64.1737L227.545 62.9106L228.682 61.2384L230.54 62.5015L229.403 64.1737ZM230.75 62.1916L228.892 60.9285L230.156 59.0705L232.013 60.3336L230.75 62.1916ZM232.224 60.024L230.366 58.7609L231.629 56.9029L233.487 58.166L232.224 60.024ZM233.698 57.8564L231.84 56.5936L233.103 54.7353L234.961 55.9981L233.698 57.8564ZM235.172 55.6888L233.314 54.4257L234.578 52.5677L236.435 53.8308L235.172 55.6888ZM236.646 53.5209L234.788 52.2578L236.051 50.4001L237.909 51.6632L236.646 53.5209ZM238.119 51.3533L236.262 50.0902L237.525 48.2322L239.383 49.4953L238.119 51.3533ZM239.594 49.1857L237.736 47.9226L238.999 46.0646L240.857 47.3277L239.594 49.1857ZM241.067 47.0181L239.21 45.755L240.473 43.897L242.331 45.1598L241.067 47.0181ZM242.542 44.8505L240.684 43.5874L241.947 41.7294L243.804 42.9925L242.542 44.8505ZM244.015 42.6826L242.158 41.4198L243.421 39.5618L245.278 40.8246L244.015 42.6826ZM245.489 40.515L243.631 39.2519L244.895 37.3939L246.752 38.657L245.489 40.515ZM246.963 38.3474L245.106 37.0843L246.369 35.2263L248.227 36.4894L246.963 38.3474ZM248.437 36.1798L246.579 34.9167L247.843 33.0584L249.7 34.3215L248.437 36.1798ZM230.096 67.8156L228.238 66.5525L229.501 64.6945L231.359 65.9579L230.096 67.8156ZM231.57 65.6474L229.712 64.3843L230.849 62.7118L232.707 63.9749L231.57 65.6474ZM232.918 63.6656L231.06 62.4025L232.323 60.5445L234.181 61.8076L232.918 63.6656ZM234.391 61.498L232.533 60.2349L233.797 58.3769L235.655 59.6403L234.391 61.498ZM235.865 59.3304L234.007 58.067L235.271 56.209L237.129 57.4724L235.865 59.3304ZM237.339 57.1625L235.482 55.8994L236.745 54.0414L238.603 55.3045L237.339 57.1625ZM238.813 54.9949L236.956 53.7318L238.219 51.8741L240.077 53.1372L238.813 54.9949ZM240.287 52.8273L238.429 51.5639L239.693 49.7059L241.55 50.969L240.287 52.8273ZM241.761 50.6597L239.903 49.3966L241.166 47.5386L243.024 48.8017L241.761 50.6597ZM243.235 48.4918L241.377 47.2287L242.641 45.3707L244.498 46.6338L243.235 48.4918ZM244.709 46.3242L242.851 45.0611L244.115 43.2031L245.972 44.4662L244.709 46.3242ZM246.183 44.1569L244.325 42.8935L245.588 41.0352L247.446 42.2986L246.183 44.1569ZM247.657 41.9887L245.799 40.7256L247.062 38.8673L248.92 40.1307L247.657 41.9887ZM249.131 39.8211L247.273 38.558L248.536 36.7L250.394 37.9631L249.131 39.8211ZM250.604 37.6538L248.747 36.3907L250.01 34.5324L251.868 35.7955L250.604 37.6538ZM250.618 47.6249L252.29 48.7618L251.027 50.6199L249.354 49.4829L250.618 47.6249ZM249.144 49.7925L250.816 50.9294L249.552 52.7875L247.881 51.6505L249.144 49.7925ZM247.67 51.9604L249.342 53.0973L248.079 54.9554L246.407 53.8184L247.67 51.9604ZM246.196 54.128L247.868 55.2649L246.604 57.123L244.933 55.986L246.196 54.128ZM244.722 56.2956L246.394 57.4325L245.131 59.2903L243.459 58.1536L244.722 56.2956ZM243.248 58.4635L244.92 59.6004L243.656 61.4585L241.985 60.3215L243.248 58.4635ZM241.774 60.6308L243.446 61.7677L242.183 63.6258L240.511 62.4888L241.774 60.6308ZM251.398 41.8153L253.256 43.0787L251.992 44.9368L250.134 43.6734L251.398 41.8153ZM249.924 43.9832L251.782 45.2466L250.518 47.1047L248.66 45.8413L249.924 43.9832ZM248.45 46.1508L250.308 47.4142L249.045 49.2723L247.187 48.0089L248.45 46.1508ZM246.976 48.3187L248.834 49.5821L247.571 51.4405L245.713 50.1771L246.976 48.3187ZM245.502 50.4863L247.36 51.7497L246.097 53.6078L244.239 52.3444L245.502 50.4863ZM244.028 52.6539L245.886 53.9173L244.623 55.7754L242.765 54.5117L244.028 52.6539ZM242.554 54.8218L244.412 56.0852L243.149 57.943L241.291 56.6796L242.554 54.8218ZM241.08 56.9894L242.938 58.2528L241.675 60.1109L239.817 58.8475L241.08 56.9894ZM239.606 59.1567L241.465 60.4202L240.201 62.2785L238.343 61.0151L239.606 59.1567ZM238.132 61.3246L239.99 62.588L238.727 64.4461L236.869 63.1827L238.132 61.3246ZM236.659 63.4922L238.517 64.7556L237.253 66.6137L235.395 65.3503L236.659 63.4922ZM233.738 67.1218L231.88 65.8581L233.017 64.1858L234.875 65.4495L233.738 67.1218ZM235.086 65.1397L233.227 63.876L234.49 62.0179L236.349 63.2813L235.086 65.1397ZM236.559 62.9721L234.701 61.7084L235.964 59.8506L237.822 61.114L236.559 62.9721ZM238.033 60.8045L236.175 59.5411L237.438 57.6827L239.296 58.9461L238.033 60.8045ZM239.507 58.6369L237.649 57.3732L238.912 55.5154L240.77 56.7788L239.507 58.6369ZM240.981 56.469L239.123 55.2053L240.386 53.3475L242.244 54.6109L240.981 56.469ZM242.455 54.3016L240.597 53.038L241.86 51.1799L243.718 52.4433L242.455 54.3016ZM243.929 52.134L242.071 50.8704L243.334 49.0123L245.192 50.276L243.929 52.134ZM245.403 49.9662L243.545 48.7025L244.808 46.8444L246.667 48.1078L245.403 49.9662ZM246.877 47.7985L245.019 46.5349L246.282 44.6768L248.14 45.9402L246.877 47.7985ZM248.351 45.6307L246.493 44.3673L247.756 42.5092L249.614 43.7726L248.351 45.6307ZM249.825 43.4631L247.967 42.1994L249.23 40.3413L251.088 41.605L249.825 43.4631ZM252.562 39.4374L251.299 41.2952L249.441 40.0317L250.704 38.1737L252.562 39.4374Z" fill="#9D9D9C"/>
<path d="M252.69 55.3225C251.984 55.1656 251.289 54.976 250.619 54.714C250.166 55.5502 249.665 56.3755 249.114 57.1846C242.041 67.5872 229.561 71.433 221.238 65.7744C213.652 60.6165 212.142 49.3422 217.291 39.5091C216.63 39.2412 215.87 38.898 215.403 38.5518C209.598 49.5454 211.268 62.1818 219.756 67.9535C229.042 74.267 242.966 69.977 250.858 58.3706C251.536 57.374 252.145 56.3552 252.69 55.3225Z" fill="#352E35"/>
<path d="M218.529 37.3766L216.572 36.5244C215.684 37.9426 214.927 39.3989 214.299 40.8729L216.252 41.7233C216.866 40.247 217.625 38.7901 218.529 37.3766Z" fill="#D1D1D1"/>
<path d="M249.701 56.2865L251.655 57.137C252.532 55.7129 253.278 54.2521 253.894 52.7734L251.936 51.9209C251.336 53.4023 250.592 54.8654 249.701 56.2865Z" fill="#D1D1D1"/>
<path d="M247.154 27.4751C255.343 33.0433 256.586 45.5804 250.119 55.8442C250.311 55.5825 250.5 55.3169 250.685 55.0454C257.608 44.8638 256.082 32.4389 247.669 26.7183C239.257 20.998 226.932 25.3507 220.742 33.3228C219.065 35.483 217.569 37.8266 216.008 41.0869C216.75 39.8294 219.511 34.9894 222.083 32.2904C229.307 24.7064 239.822 22.4895 247.154 27.4751Z" fill="white"/>
<path d="M220.368 67.2612C211.8 61.4348 212.443 50.9554 212.636 46.8447C210.495 55.0791 213.164 63.4695 219.853 68.0177C227.185 73.0031 237.166 70.9575 243.887 65.5382C239.727 68.2451 228.041 72.479 220.368 67.2612Z" fill="#2B242A"/>
<path d="M213.169 83.0049C212.968 83.2991 212.534 83.3517 212.197 83.1228L208.507 80.6131C208.171 80.3847 208.06 79.9612 208.26 79.6669C208.459 79.3736 208.894 79.3207 209.23 79.5494L212.92 82.0587C213.257 82.2877 213.368 82.7113 213.169 83.0049Z" fill="#2B242A"/>
<path d="M208.305 80.2465L206.898 82.3145L211.208 85.2451L212.614 83.1772L208.305 80.2465Z" fill="#161013"/>
<path d="M211.51 85.4444C211.31 85.7381 210.876 85.7906 210.539 85.562L206.849 83.0526C206.512 82.8243 206.402 82.4004 206.602 82.1065C206.801 81.8129 207.236 81.7603 207.572 81.9889L211.262 84.4986C211.599 84.7272 211.71 85.1508 211.51 85.4444Z" fill="#2B242A"/>
<path d="M226.687 100.467C227.199 101.15 227.349 101.901 227.024 102.145L223.453 104.822C223.127 105.066 222.448 104.711 221.937 104.028C221.425 103.344 221.274 102.594 221.6 102.349L225.171 99.6727C225.496 99.4287 226.175 99.784 226.687 100.467Z" fill="#2B242A"/>
<path d="M221.213 103.972C221.213 103.972 222.442 104.775 224.853 102.969C227.262 101.162 226.836 99.7563 226.836 99.7563C226.836 99.7563 214.277 84.2727 212.725 82.2014C211.173 80.1303 206.682 82.8297 208.555 85.3275C210.427 87.8257 221.213 103.972 221.213 103.972Z" fill="#A1D2D9"/>
<path d="M226.313 100.066C224.143 97.388 213.995 84.863 212.611 83.0154C212.601 83.0018 212.589 82.9908 212.579 82.9775C211.65 85.2447 225.85 100.351 226.313 100.066Z" fill="white"/>
<path d="M225.808 99.9362C224.759 100.398 223.636 100.607 222.518 100.246C221.094 99.7859 219.911 98.8193 218.824 97.8218C216.251 95.4598 213.973 92.8996 212.739 89.5821C211.83 87.1383 211.403 84.3763 212.466 81.9263C210.733 80.4062 206.777 82.9561 208.555 85.3278C210.427 87.8256 221.213 103.972 221.213 103.972C221.213 103.972 222.442 104.775 224.853 102.969C227.262 101.162 226.836 99.7563 226.836 99.7563C226.836 99.7563 226.763 99.6653 226.627 99.4984C226.361 99.6668 226.084 99.8142 225.808 99.9362Z" fill="#BACDD8"/>
<path d="M225.868 98.5635L223.393 103.835C223.675 103.715 223.983 103.553 224.319 103.338L226.307 99.1055C226.18 98.9493 226.032 98.7679 225.868 98.5635Z" fill="white"/>
<path d="M224.049 96.3184L220.768 103.308C220.973 103.615 221.113 103.825 221.175 103.917L224.488 96.8604C224.346 96.6849 224.2 96.5045 224.049 96.3184Z" fill="white"/>
<path d="M221.637 93.334L218.525 99.9603C218.665 100.168 218.801 100.371 218.933 100.568L222.075 93.8766C221.93 93.697 221.784 93.5162 221.637 93.334Z" fill="white"/>
<path d="M219.224 90.3467L216.279 96.6185C216.416 96.8223 216.552 97.025 216.687 97.2255L219.662 90.8899C219.516 90.7085 219.37 90.5278 219.224 90.3467Z" fill="white"/>
<path d="M216.815 87.3545L214.031 93.2848C214.167 93.4863 214.304 93.6874 214.44 93.8904L217.253 87.8986C217.106 87.7149 216.96 87.5338 216.815 87.3545Z" fill="white"/>
<path d="M214.412 84.3516L211.777 89.9629C211.911 90.1605 212.049 90.3617 212.188 90.5652L214.848 84.8983C214.696 84.709 214.551 84.5267 214.412 84.3516Z" fill="white"/>
<path d="M211.355 82.7386L209.51 86.6673C209.64 86.8529 209.778 87.052 209.924 87.2623L212.424 81.9375L211.355 82.7386Z" fill="white"/>
<path d="M210.366 79.4795C208.636 77.1704 206.298 56.8957 205.775 51.3662C204.449 52.627 202.148 64.5777 202.148 64.5777C202.148 64.5777 204.082 62.0766 204.674 65.4116C205.486 69.9867 206.273 75.3351 206.428 76.3955C206.675 78.0905 205.812 78.3649 204.6 77.7809C203.864 77.4262 198.907 75.154 194.619 72.9483C192.47 71.8429 194.613 70.2578 194.613 70.2578C194.613 70.2578 178.026 67.9774 180.831 70.0623C186.967 72.0911 204.624 79.8635 206.505 82.3734C208.387 84.8843 212.098 81.7897 210.366 79.4795Z" fill="#259DAB"/>
<path d="M178.202 26.4393L178.538 26.8868L176.74 28.2341L175.658 26.7914C175.525 26.8204 175.392 26.8514 175.26 26.8839L176.44 28.4586L174.642 29.8062L173.295 28.0084L174.525 27.0862C174.136 27.2035 173.75 27.3352 173.372 27.4829L173.07 27.7086L173.01 27.6286C172.892 27.6782 172.774 27.7284 172.657 27.7816L172.77 27.9334L170.973 29.281L170.665 28.8704C170.56 28.9383 170.457 29.0086 170.354 29.0795L170.673 29.5058L168.875 30.8534L168.603 30.4903C168.511 30.5769 168.421 30.6637 168.331 30.7521L168.575 31.0779L167.001 32.258C166.752 32.5808 166.518 32.9132 166.296 33.2543L166.702 32.9501L168.05 34.7478L166.252 36.0954L165.361 34.9065C165.299 35.0332 165.238 35.1608 165.179 35.289L165.952 36.3202L164.337 37.5305C164.265 37.7736 164.197 38.0182 164.134 38.2654L165.427 39.9902L163.629 41.3375L163.62 41.3257C163.604 41.5144 163.59 41.7038 163.578 41.8934L164.901 43.6593L163.588 44.6438C163.598 44.7915 163.609 44.9392 163.621 45.0869L165.126 43.9591L166.474 45.7569L164.676 47.1048L163.694 45.7944C163.724 46.0464 163.756 46.2989 163.793 46.5521L164.376 47.3296L163.98 47.6264C164.006 47.762 164.034 47.897 164.063 48.0323L164.601 47.6291L165.948 49.4272L164.684 50.3748C164.724 50.5003 164.764 50.6262 164.806 50.7517L166.173 49.727L167.521 51.5248L165.723 52.8721L165.477 52.5433C165.697 53.0729 165.936 53.6005 166.193 54.1239L166.995 55.1941L166.822 55.3238C166.884 55.4337 166.945 55.5436 167.007 55.6535L167.22 55.494L168.568 57.2917L168.205 57.5632C168.275 57.6663 168.347 57.7688 168.419 57.871L168.793 57.5913L170.14 59.389L169.782 59.6578C169.861 59.7541 169.941 59.851 170.022 59.9459L170.365 59.6889L171.713 61.4869L171.549 61.6077C171.638 61.6975 171.729 61.7856 171.819 61.8736L171.936 61.7856L172.453 62.4753C172.9 62.885 173.357 63.2758 173.821 63.6486L175.606 62.3108L176.954 64.1088L175.717 65.0355C175.828 65.1091 175.939 65.1814 176.051 65.2532L177.178 64.4087L178.525 66.2061L178.168 66.4741C178.293 66.5379 178.417 66.6005 178.542 66.6616L178.75 66.506L179.048 66.9033C179.28 67.0105 179.513 67.1124 179.747 67.2111L179.05 66.2812L180.848 64.9336L182.196 66.7314L180.934 67.6769C181.076 67.7283 181.218 67.7771 181.361 67.8249L182.42 67.0309L183.459 68.4169C183.749 68.4833 184.039 68.5433 184.328 68.5965L185.955 67.3771L187.097 68.901C187.256 68.9069 187.415 68.9105 187.574 68.9123L186.254 67.1526L188.053 65.805L189.4 67.6031L187.651 68.9137C187.864 68.9146 188.075 68.9111 188.288 68.9046L189.625 67.9023L190.247 68.7332C190.387 68.7132 190.525 68.6904 190.665 68.6665L189.924 67.6781L191.722 66.3305L193.024 68.0692C193.579 67.8816 194.122 67.6616 194.653 67.4096L195.391 66.8557L195.485 66.981C195.595 66.9201 195.704 66.8578 195.813 66.7937L195.691 66.6312L197.489 65.2836L197.658 65.509C197.755 65.4301 197.851 65.3504 197.946 65.2689L197.789 65.0588L199.352 63.8876C199.687 63.5104 200.003 63.1169 200.299 62.7093L199.661 63.1869L198.314 61.3892L200.112 60.0419L201.141 61.4157C201.21 61.2982 201.277 61.1791 201.342 61.0595L200.411 59.8174L202.209 58.4698L202.394 58.7164C202.445 58.5749 202.495 58.4323 202.542 58.2887L202.509 58.2447L202.572 58.1974C202.638 57.996 202.701 57.7933 202.76 57.5889L202.285 57.9449L200.937 56.1468L202.735 54.7992L203.233 55.4635C203.261 55.2907 203.288 55.1173 203.311 54.9434L203.035 54.5747L203.388 54.31C203.406 54.1431 203.421 53.9753 203.434 53.8073L202.81 54.2749L201.597 52.6564L203.395 51.3088L203.487 51.4314C203.48 51.2105 203.469 50.9886 203.456 50.7659L202.122 48.987L203.155 48.2134C203.131 48.0763 203.106 47.9393 203.079 47.8016L201.898 48.6875L200.55 46.8897L202.168 45.6768L202.796 46.5137C202.716 46.1896 202.629 45.8653 202.535 45.5413L202.468 45.4523L202.501 45.4272C202.464 45.2996 202.425 45.1726 202.386 45.0456L202.243 45.1525L200.895 43.3545L201.586 42.8366C201.537 42.7182 201.488 42.5994 201.437 42.481L200.67 43.0549L199.323 41.2569L200.445 40.4165C200.386 40.3054 200.327 40.194 200.265 40.083L199.099 40.9573L197.751 39.1593L199.099 38.1493C199.03 38.0453 198.959 37.9416 198.889 37.8386L197.527 38.8597L196.179 37.0617L197.556 36.0296C197.478 35.9321 197.4 35.8343 197.321 35.7377L195.955 36.7618L194.607 34.9641L195.824 34.0519C195.737 33.9609 195.648 33.8717 195.56 33.7822L194.382 34.6645L193.035 32.8665L193.89 32.2261C193.792 32.1428 193.694 32.0604 193.596 31.9785L192.81 32.5672L191.463 30.7695L191.737 30.5645C191.628 30.4892 191.519 30.415 191.41 30.3417L191.239 30.47L190.887 30.0009C190.603 29.8195 190.316 29.6452 190.027 29.4771L190.94 30.6945L189.321 31.9073L187.973 30.1096L189.336 29.0884C189.214 29.0228 189.092 28.9587 188.969 28.8946L187.749 29.8097L186.401 28.012L186.632 27.8386C186.494 27.7848 186.355 27.7331 186.217 27.682L186.176 27.7122L186.13 27.6504C185.921 27.5748 185.711 27.5027 185.5 27.4336L185.877 27.9364L184.079 29.2842L182.731 27.4865L183.528 26.8895C183.365 26.8528 183.204 26.8186 183.041 26.7864L182.507 27.1869L182.08 26.6177C181.906 26.5914 181.732 26.5681 181.559 26.5465L182.207 27.4114L180.409 28.759L179.061 26.9607L179.793 26.4118C179.588 26.4062 179.382 26.4044 179.177 26.4056L178.837 26.6611L178.653 26.4163C178.504 26.4225 178.353 26.4298 178.202 26.4393ZM175.381 62.0113L173.583 63.3585L172.236 61.5608L174.034 60.2132L175.381 62.0113ZM173.809 59.9137L172.011 61.2609L170.663 59.4629L172.461 58.1156L173.809 59.9137ZM172.237 57.8164L170.439 59.1637L169.091 57.3656L170.889 56.0183L172.237 57.8164ZM170.665 55.7188L168.867 57.0661L167.52 55.2683L169.317 53.921L170.665 55.7188ZM169.093 53.6212L167.295 54.9685L165.947 53.1704L167.745 51.8231L169.093 53.6212ZM180.623 64.6341L178.825 65.9816L177.478 64.1842L179.276 62.8363L180.623 64.6341ZM179.051 62.5365L177.253 63.8841L175.906 62.086L177.703 60.7384L179.051 62.5365ZM177.479 60.4389L175.681 61.7865L174.333 59.9884L176.131 58.6411L177.479 60.4389ZM175.907 58.3416L174.109 59.6895L172.761 57.8911L174.559 56.5435L175.907 58.3416ZM174.335 56.244L172.537 57.5916L171.19 55.7938L172.987 54.4462L174.335 56.244ZM172.763 54.1464L170.965 55.494L169.617 53.6962L171.415 52.3489L172.763 54.1464ZM171.19 52.0488L169.393 53.3964L168.045 51.5983L169.843 50.251L171.19 52.0488ZM169.618 49.9512L167.821 51.2991L166.473 49.5013L168.271 48.1537L169.618 49.9512ZM168.046 47.8536L166.248 49.2012L164.901 47.4031L166.698 46.0555L168.046 47.8536ZM185.73 67.0776L183.933 68.4248L182.72 66.8064L184.517 65.4591L185.73 67.0776ZM184.293 65.1596L182.495 66.5069L181.147 64.7091L182.945 63.3618L184.293 65.1596ZM182.721 63.0623L180.923 64.4099L179.575 62.6121L181.373 61.2648L182.721 63.0623ZM181.148 60.9647L179.351 62.3123L178.003 60.5142L179.801 59.1666L181.148 60.9647ZM179.576 58.8671L177.779 60.2144L176.431 58.4166L178.229 57.0693L179.576 58.8671ZM178.004 56.7695L176.207 58.1168L174.859 56.3187L176.656 54.9714L178.004 56.7695ZM176.432 54.6719L174.634 56.0192L173.287 54.2211L175.084 52.8738L176.432 54.6719ZM174.86 52.5743L173.062 53.9219L171.715 52.1241L173.513 50.7768L174.86 52.5743ZM173.288 50.477L171.49 51.8246L170.142 50.0265L171.94 48.6789L173.288 50.477ZM171.715 48.3794L169.918 49.7267L168.57 47.9289L170.368 46.5816L171.715 48.3794ZM170.144 46.2818L168.346 47.6291L166.998 45.831L168.796 44.4834L170.144 46.2818ZM168.571 44.1842L166.774 45.5318L165.426 43.7337L167.224 42.3864L168.571 44.1842ZM166.999 42.0866L165.202 43.4339L163.854 41.6361L165.652 40.2886L166.999 42.0866ZM187.828 65.5055L186.03 66.8528L184.817 65.2343L186.615 63.8864L187.828 65.5055ZM186.39 63.5872L184.592 64.9348L183.245 63.137L185.043 61.7894L186.39 63.5872ZM184.818 61.4896L183.021 62.8375L181.673 61.0397L183.471 59.6918L184.818 61.4896ZM183.246 59.3923L181.449 60.7399L180.101 58.9418L181.898 57.5945L183.246 59.3923ZM181.674 57.2947L179.876 58.6426L178.529 56.8448L180.326 55.4972L181.674 57.2947ZM180.102 55.1971L178.304 56.545L176.956 54.7469L178.754 53.399L180.102 55.1971ZM178.53 53.0998L176.732 54.4474L175.384 52.6493L177.182 51.3017L178.53 53.0998ZM176.958 51.0022L175.16 52.3498L173.813 50.552L175.61 49.2044L176.958 51.0022ZM175.386 48.9046L173.588 50.2522L172.24 48.4541L174.038 47.1066L175.386 48.9046ZM173.814 46.807L172.015 48.1546L170.668 46.3568L172.466 45.0093L173.814 46.807ZM172.241 44.7094L170.443 46.057L169.095 44.259L170.894 42.9117L172.241 44.7094ZM170.669 42.6118L168.871 43.9597L167.523 42.1617L169.321 40.8141L170.669 42.6118ZM169.097 40.5142L167.299 41.8618L165.951 40.0641L167.749 38.7168L169.097 40.5142ZM167.525 38.4169L165.727 39.7645L164.379 37.9665L166.177 36.6189L167.525 38.4169ZM191.498 66.031L189.7 67.3783L188.352 65.5802L190.15 64.2329L191.498 66.031ZM189.926 63.9334L188.128 65.2807L186.915 63.6622L188.712 62.3146L189.926 63.9334ZM188.488 62.0154L186.69 63.3627L185.342 61.5649L187.14 60.2173L188.488 62.0154ZM186.915 59.9178L185.118 61.2654L183.771 59.4676L185.568 58.12L186.915 59.9178ZM185.344 57.8205L183.546 59.1678L182.198 57.3697L183.996 56.0224L185.344 57.8205ZM183.771 55.7226L181.974 57.0699L180.626 55.2721L182.424 53.9248L183.771 55.7226ZM182.199 53.6253L180.402 54.9729L179.054 53.1748L180.852 51.8275L182.199 53.6253ZM180.627 51.5277L178.83 52.875L177.482 51.0769L179.28 49.7296L180.627 51.5277ZM179.055 49.4301L177.257 50.7774L175.91 48.9796L177.707 47.6324L179.055 49.4301ZM177.483 47.3325L175.685 48.6801L174.338 46.882L176.135 45.5345L177.483 47.3325ZM175.911 45.2349L174.113 46.5822L172.765 44.7845L174.563 43.4372L175.911 45.2349ZM174.339 43.1373L172.541 44.4849L171.193 42.6869L172.991 41.3396L174.339 43.1373ZM172.766 41.0397L170.969 42.3873L169.621 40.5896L171.419 39.242L172.766 41.0397ZM171.195 38.9424L169.397 40.2897L168.049 38.492L169.847 37.1447L171.195 38.9424ZM169.622 36.8449L167.825 38.1924L166.477 36.3944L168.275 35.0468L169.622 36.8449ZM195.168 66.5559L193.369 67.9038L192.021 66.106L193.82 64.7584L195.168 66.5559ZM193.595 64.4589L191.797 65.8065L190.45 64.0084L192.248 62.6608L193.595 64.4589ZM192.023 62.361L190.225 63.7089L189.012 62.0904L190.81 60.7425L192.023 62.361ZM190.586 60.443L188.787 61.7909L187.44 59.9931L189.238 58.6452L190.586 60.443ZM189.013 58.3454L187.215 59.6933L185.868 57.8955L187.666 56.5479L189.013 58.3454ZM187.442 56.2481L185.643 57.596L184.296 55.7979L186.094 54.45L187.442 56.2481ZM185.869 54.1502L184.071 55.4981L182.724 53.7003L184.522 52.3525L185.869 54.1502ZM184.297 52.0529L182.499 53.4008L181.151 51.6027L182.949 50.2549L184.297 52.0529ZM182.725 49.9553L180.927 51.3032L179.579 49.5054L181.377 48.1576L182.725 49.9553ZM181.153 47.8577L179.355 49.2056L178.007 47.4078L179.805 46.06L181.153 47.8577ZM179.581 45.7604L177.782 47.1083L176.435 45.3103L178.233 43.9624L179.581 45.7604ZM178.008 43.6625L176.21 45.0104L174.863 43.2127L176.661 41.8651L178.008 43.6625ZM176.437 41.5653L174.638 42.9128L173.291 41.1151L175.089 39.7672L176.437 41.5653ZM174.865 39.4677L173.066 40.8155L171.719 39.0178L173.517 37.6699L174.865 39.4677ZM173.292 37.3701L171.494 38.7176L170.146 36.9199L171.945 35.5723L173.292 37.3701ZM171.72 35.2725L169.922 36.6204L168.574 34.822L170.373 33.4741L171.72 35.2725ZM170.148 33.1749L168.35 34.5225L167.002 32.7247L168.8 31.3768L170.148 33.1749ZM197.265 64.9841L195.467 66.3314L194.12 64.5336L195.917 63.1863L197.265 64.9841ZM195.693 62.8868L193.895 64.2341L192.547 62.436L194.345 61.0887L195.693 62.8868ZM194.12 60.7892L192.323 62.1365L191.11 60.518L192.908 59.1707L194.12 60.7892ZM192.683 58.8709L190.885 60.2185L189.538 58.4204L191.335 57.0731L192.683 58.8709ZM191.111 56.7736L189.313 58.1209L187.966 56.3231L189.763 54.9759L191.111 56.7736ZM189.539 54.676L187.741 56.0236L186.393 54.2253L188.191 52.878L189.539 54.676ZM187.966 52.5784L186.169 53.9257L184.821 52.128L186.619 50.7807L187.966 52.5784ZM186.395 50.4808L184.597 51.8281L183.249 50.0301L185.047 48.6828L186.395 50.4808ZM184.822 48.3835L183.025 49.7311L181.677 47.9331L183.474 46.5858L184.822 48.3835ZM183.25 46.2859L181.452 47.6335L180.105 45.8358L181.903 44.4882L183.25 46.2859ZM181.678 44.1883L179.88 45.5356L178.533 43.7376L180.33 42.3903L181.678 44.1883ZM180.106 42.0908L178.308 43.4383L176.961 41.6406L178.758 40.293L180.106 42.0908ZM178.534 39.9932L176.736 41.3405L175.389 39.5424L177.186 38.1951L178.534 39.9932ZM176.962 37.8956L175.164 39.2432L173.816 37.4451L175.614 36.0975L176.962 37.8956ZM175.39 35.798L173.592 37.1456L172.244 35.3478L174.042 34.0002L175.39 35.798ZM173.818 33.7007L172.02 35.0483L170.672 33.2502L172.47 31.9026L173.818 33.7007ZM172.245 31.6028L170.448 32.9504L169.1 31.1526L170.897 29.8053L172.245 31.6028ZM199.362 63.412L197.564 64.7593L196.217 62.9615L198.015 61.6139L199.362 63.412ZM197.79 61.3147L195.993 62.6623L194.645 60.8642L196.442 59.5169L197.79 61.3147ZM196.218 59.2171L194.42 60.5644L193.208 58.9459L195.005 57.5987L196.218 59.2171ZM194.78 57.2988L192.983 58.6464L191.635 56.8486L193.432 55.5011L194.78 57.2988ZM193.208 55.2015L191.411 56.5488L190.063 54.7511L191.861 53.4035L193.208 55.2015ZM191.636 53.1039L189.838 54.4515L188.49 52.6535L190.289 51.3062L191.636 53.1039ZM190.064 51.0063L188.267 52.3539L186.919 50.5559L188.716 49.2086L190.064 51.0063ZM188.492 48.9087L186.694 50.2563L185.347 48.4583L187.144 47.1107L188.492 48.9087ZM186.92 46.8112L185.122 48.1587L183.774 46.3607L185.572 45.0134L186.92 46.8112ZM185.348 44.7136L183.55 46.0609L182.202 44.2631L184 42.9155L185.348 44.7136ZM183.776 42.6163L181.978 43.9636L180.63 42.1655L182.428 40.8179L183.776 42.6163ZM182.203 40.5187L180.406 41.8663L179.058 40.0685L180.856 38.7209L182.203 40.5187ZM180.631 38.4211L178.834 39.7687L177.486 37.9709L179.284 36.6233L180.631 38.4211ZM179.059 36.3235L177.262 37.6708L175.914 35.873L177.712 34.5257L179.059 36.3235ZM177.487 34.2259L175.69 35.5735L174.342 33.7757L176.139 32.4281L177.487 34.2259ZM175.915 32.1286L174.117 33.4759L172.769 31.6778L174.567 30.3302L175.915 32.1286ZM174.343 30.0307L172.545 31.3783L171.198 29.5802L172.995 28.2329L174.343 30.0307ZM199.888 59.7423L198.09 61.0902L196.742 59.2921L198.54 57.9446L199.888 59.7423ZM198.316 57.6447L196.518 58.9923L195.305 57.3739L197.103 56.0263L198.316 57.6447ZM196.878 55.7267L195.08 57.0746L193.732 55.2769L195.53 53.9293L196.878 55.7267ZM195.306 53.6294L193.508 54.9767L192.161 53.1793L193.959 51.8317L195.306 53.6294ZM193.734 51.5318L191.936 52.8794L190.588 51.0814L192.386 49.7341L193.734 51.5318ZM192.162 49.434L190.364 50.7815L189.016 48.9838L190.814 47.6362L192.162 49.434ZM190.59 47.3367L188.791 48.684L187.444 46.8859L189.242 45.5383L190.59 47.3367ZM189.017 45.2391L187.22 46.5867L185.872 44.7889L187.67 43.4413L189.017 45.2391ZM187.445 43.1418L185.647 44.4894L184.299 42.6916L186.098 41.344L187.445 43.1418ZM185.873 41.0442L184.075 42.3918L182.727 40.5937L184.525 39.2461L185.873 41.0442ZM184.301 38.9466L182.503 40.2942L181.156 38.4964L182.954 37.1488L184.301 38.9466ZM182.729 36.8487L180.931 38.1963L179.583 36.3985L181.381 35.0509L182.729 36.8487ZM181.157 34.7514L179.359 36.099L178.011 34.3012L179.809 32.9536L181.157 34.7514ZM179.585 32.6538L177.787 34.0017L176.439 32.2039L178.237 30.856L179.585 32.6538ZM178.013 30.5565L176.215 31.9041L174.867 30.106L176.665 28.7584L178.013 30.5565ZM201.985 58.1705L200.187 59.5181L198.839 57.7201L200.637 56.3725L201.985 58.1705ZM200.413 56.0729L198.615 57.4205L197.402 55.8021L199.2 54.4542L200.413 56.0729ZM198.976 54.1547L197.177 55.5022L195.83 53.7045L197.628 52.3569L198.976 54.1547ZM197.403 52.0574L195.605 53.4049L194.257 51.6072L196.056 50.2599L197.403 52.0574ZM195.831 49.9598L194.033 51.3073L192.685 49.5093L194.483 48.1617L195.831 49.9598ZM194.259 47.8622L192.461 49.2098L191.114 47.412L192.912 46.0644L194.259 47.8622ZM192.687 45.7646L190.889 47.1122L189.541 45.3141L191.339 43.9665L192.687 45.7646ZM191.115 43.667L189.317 45.0149L187.969 43.2168L189.767 41.8692L191.115 43.667ZM189.543 41.5694L187.745 42.9173L186.397 41.1195L188.195 39.7719L189.543 41.5694ZM187.971 39.4721L186.173 40.8197L184.825 39.0216L186.623 37.674L187.971 39.4721ZM186.399 37.3745L184.6 38.7221L183.253 36.9246L185.051 35.577L186.399 37.3745ZM184.826 35.2769L183.028 36.6248L181.68 34.8267L183.479 33.4791L184.826 35.2769ZM183.254 33.1793L181.456 34.5269L180.108 32.7291L181.906 31.3812L183.254 33.1793ZM181.682 31.0817L179.884 32.4293L178.537 30.6315L180.335 29.2839L181.682 31.0817ZM180.11 28.9844L178.312 30.332L176.964 28.5339L178.762 27.1861L180.11 28.9844ZM189.546 32.2078L191.164 30.9949L192.512 32.7923L190.894 34.0052L189.546 32.2078ZM191.118 34.3053L192.736 33.0922L194.084 34.8902L192.466 36.1034L191.118 34.3053ZM192.69 36.4029L194.309 35.1901L195.656 36.9878L194.037 38.2007L192.69 36.4029ZM194.262 38.5005L195.88 37.2876L197.228 39.0857L195.61 40.2986L194.262 38.5005ZM195.834 40.5978L197.452 39.3847L198.8 41.1827L197.182 42.3956L195.834 40.5978ZM197.406 42.6954L199.025 41.4825L200.372 43.2803L198.754 44.4935L197.406 42.6954ZM198.978 44.793L200.597 43.5801L201.945 45.3782L200.326 46.5911L198.978 44.793ZM184.304 29.5847L186.102 28.2371L187.45 30.0348L185.651 31.3827L184.304 29.5847ZM185.876 31.6822L187.674 30.3347L189.022 32.1324L187.224 33.48L185.876 31.6822ZM187.448 33.7798L189.246 32.4323L190.594 34.2297L188.796 35.5776L187.448 33.7798ZM189.02 35.8771L190.818 34.5296L192.165 36.3276L190.368 37.6752L189.02 35.8771ZM190.593 37.9747L192.391 36.6271L193.738 38.4249L191.94 39.7722L190.593 37.9747ZM192.165 40.0723L193.962 38.7247L195.31 40.5225L193.512 41.8698L192.165 40.0723ZM193.737 42.1699L195.534 40.8223L196.882 42.6204L195.085 43.968L193.737 42.1699ZM195.309 44.2675L197.107 42.9199L198.454 44.7177L196.656 46.0653L195.309 44.2675ZM196.881 46.3648L198.679 45.0172L200.027 46.8153L198.229 48.1629L196.881 46.3648ZM198.453 48.4627L200.251 47.1148L201.599 48.9126L199.801 50.2605L198.453 48.4627ZM200.025 50.56L201.823 49.2127L203.171 51.0105L201.373 52.3581L200.025 50.56ZM202.511 54.5006L200.713 55.8479L199.5 54.2294L201.298 52.8821L202.511 54.5006ZM201.073 52.5826L199.275 53.9299L197.928 52.1324L199.726 50.7848L201.073 52.5826ZM199.501 50.485L197.703 51.8323L196.356 50.0345L198.154 48.6869L199.501 50.485ZM197.929 48.3874L196.131 49.7347L194.784 47.9366L196.581 46.5893L197.929 48.3874ZM196.357 46.2898L194.559 47.6371L193.211 45.8393L195.009 44.492L196.357 46.2898ZM194.785 44.1925L192.987 45.5401L191.639 43.742L193.437 42.3944L194.785 44.1925ZM193.213 42.0949L191.415 43.4422L190.067 41.6441L191.865 40.2968L193.213 42.0949ZM191.641 39.9973L189.843 41.3449L188.496 39.5471L190.293 38.1995L191.641 39.9973ZM190.068 37.9L188.271 39.2476L186.923 37.4495L188.721 36.1019L190.068 37.9ZM188.496 35.8021L186.698 37.1497L185.351 35.3519L187.149 34.0043L188.496 35.8021ZM186.924 33.7045L185.127 35.0521L183.779 33.254L185.576 31.9067L186.924 33.7045ZM185.352 31.6069L183.554 32.9545L182.207 31.1567L184.004 29.8092L185.352 31.6069ZM182.433 27.7119L183.78 29.5093L181.982 30.8569L180.635 29.0591L182.433 27.7119Z" fill="#DADADA"/>
<path d="M198.878 34.3142L198.879 34.3127C198.842 34.2678 198.804 34.2238 198.767 34.1789C198.707 34.1077 198.648 34.0359 198.587 33.9644C198.537 33.9045 198.486 33.8445 198.435 33.7851L198.435 33.7848C198.401 33.7458 198.367 33.7074 198.333 33.6682C198.255 33.5792 198.178 33.4897 198.1 33.4014C198.097 33.3982 198.094 33.3946 198.09 33.3911C198.072 33.3704 198.055 33.35 198.036 33.3299C198.023 33.3152 198.009 33.3004 197.996 33.2853C197.84 33.1116 197.682 32.9403 197.523 32.771C197.515 32.7619 197.507 32.7524 197.499 32.7439L197.498 32.7442C196.847 32.0506 196.173 31.3945 195.478 30.7789L195.477 30.7798C187.096 23.3521 175.862 21.6394 168.278 27.3237C159.293 34.0578 158.833 48.621 167.251 59.8516C167.74 60.5038 168.248 61.1301 168.773 61.7297C168.784 61.7415 168.794 61.7539 168.804 61.766C168.913 61.8892 169.022 62.0103 169.131 62.1309C169.162 62.1648 169.191 62.1988 169.222 62.2325C169.315 62.3347 169.41 62.4354 169.505 62.5364C169.515 62.5477 169.526 62.5595 169.537 62.5707L169.536 62.571C169.545 62.581 169.555 62.5911 169.565 62.6011C169.592 62.6292 169.618 62.6575 169.644 62.6859C169.709 62.7541 169.775 62.8212 169.841 62.8888C169.888 62.9382 169.936 62.9875 169.983 63.0365C170.013 63.0667 170.042 63.0965 170.071 63.126C170.127 63.1833 170.185 63.2395 170.241 63.2962C170.297 63.3517 170.353 63.4073 170.409 63.4622C170.44 63.4923 170.47 63.5233 170.501 63.5532C170.507 63.5591 170.513 63.565 170.518 63.5703C170.557 63.6069 170.596 63.6439 170.635 63.6808C170.703 63.7467 170.771 63.8119 170.84 63.8772C170.911 63.9449 170.984 64.0119 171.056 64.079C171.129 64.1463 171.201 64.2137 171.274 64.2799C171.307 64.31 171.34 64.3404 171.373 64.3705L171.373 64.3694C179.774 71.9382 191.119 73.7212 198.76 67.9941C207.745 61.2603 208.204 46.6968 199.787 35.4659C199.491 35.0719 199.187 34.6896 198.878 34.3142ZM197.18 65.8853C190.307 71.0364 180.091 69.4105 172.554 62.5663C172.54 62.5527 172.524 62.5394 172.51 62.5261C172.402 62.4274 172.295 62.3273 172.187 62.2266C172.161 62.202 172.136 62.1775 172.109 62.153C172.008 62.0567 171.907 61.9598 171.807 61.8615C171.776 61.831 171.745 61.8003 171.714 61.7696C171.617 61.6739 171.521 61.5779 171.425 61.4807C171.425 61.4807 171.424 61.4801 171.424 61.4798C171.394 61.4488 171.363 61.4175 171.334 61.3865C171.241 61.2913 171.148 61.1959 171.057 61.0996C171.044 61.0858 171.031 61.0725 171.019 61.0595C170.902 60.9354 170.786 60.8104 170.671 60.6837C170.653 60.6642 170.636 60.6447 170.618 60.6252C170.496 60.4899 170.374 60.3532 170.254 60.2146C170.243 60.2019 170.232 60.1901 170.222 60.1774C170.094 60.0306 169.968 59.8811 169.842 59.7305C169.838 59.7252 169.833 59.7199 169.829 59.7148C169.698 59.5568 169.568 59.397 169.44 59.2351C169.271 59.0224 169.103 58.8074 168.939 58.5885C161.394 48.5223 161.806 35.4695 169.859 29.4337C176.621 24.3653 186.62 25.8591 194.119 32.4284C194.21 32.5076 194.3 32.5876 194.39 32.6685C194.443 32.7164 194.497 32.7645 194.55 32.8133C194.639 32.8948 194.728 32.9778 194.816 33.0608C194.869 33.1099 194.921 33.1586 194.973 33.2082C195.065 33.2963 195.157 33.3861 195.248 33.4753C195.295 33.5211 195.342 33.5657 195.388 33.6117C195.519 33.7414 195.648 33.8729 195.777 34.0061C195.826 34.0569 195.875 34.1092 195.924 34.1606C196.009 34.2501 196.094 34.3396 196.179 34.4309C196.244 34.5003 196.308 34.5715 196.372 34.6415C196.418 34.6932 196.466 34.7452 196.512 34.7974C196.536 34.8237 196.56 34.85 196.583 34.8763C196.646 34.9466 196.708 35.0178 196.77 35.0884C196.821 35.1478 196.872 35.2069 196.924 35.2659C196.98 35.3324 197.037 35.398 197.092 35.4647C197.178 35.5667 197.263 35.6697 197.348 35.7734C197.604 36.086 197.856 36.4038 198.101 36.7308C205.645 46.7964 205.233 59.8498 197.18 65.8853Z" fill="#259DAB"/>
<path d="M169.363 28.9456C177.287 23.0064 189.548 25.8992 197.158 35.3465C196.973 35.0803 196.783 34.8151 196.586 34.5525C189.202 24.6999 176.955 22.1116 168.813 28.2133C160.673 34.3153 160.791 47.3847 166.324 55.8262C167.823 58.114 169.553 60.2901 172.131 62.8243C171.182 61.7145 167.5 57.5321 165.782 54.2233C160.952 44.9285 162.266 34.2639 169.363 28.9456Z" fill="white"/>
<path d="M198.305 67.192C190.014 73.4065 180.31 69.3983 176.484 67.8812C183.579 72.5785 192.382 72.7759 198.854 67.9243C205.949 62.6069 207.252 52.5027 204.306 44.3867C205.517 49.2008 205.73 61.6271 198.305 67.192Z" fill="#9D9D9C"/>
<path d="M210.859 79.1105C211.072 79.395 210.982 79.823 210.656 80.067L207.085 82.7436C206.759 82.9875 206.323 82.9548 206.109 82.6703C205.896 82.3864 205.987 81.9584 206.313 81.7141L209.884 79.0372C210.21 78.7935 210.646 78.8266 210.859 79.1105Z" fill="#2B242A"/>
<path d="M210.837 79.6875L206.666 82.8135L208.166 84.8151L212.337 81.6891L210.837 79.6875Z" fill="#161013"/>
<path d="M212.629 81.4711C212.842 81.755 212.751 82.183 212.426 82.427L208.854 85.1042C208.528 85.3482 208.092 85.3151 207.879 85.0312C207.666 84.7467 207.757 84.3187 208.082 84.0747L211.654 81.3982C211.98 81.1539 212.416 81.1867 212.629 81.4711Z" fill="#2B242A"/>
<path d="M219.326 77.606C219.326 83.2773 214.727 87.8751 209.056 87.8751C203.385 87.8751 198.787 83.2776 198.787 77.606C198.787 71.9344 203.385 67.3369 209.056 67.3369C214.728 67.3369 219.326 71.9344 219.326 77.606Z" fill="#D4D921"/>
<path d="M202.508 80.9719C201.116 78.4413 200.992 75.3069 201.591 72.5254C201.799 71.5592 202.094 70.6157 202.488 69.7139C200.227 71.5976 198.787 74.434 198.787 77.6068C198.787 83.2781 203.385 87.8759 209.056 87.8759C210.863 87.8759 212.56 87.4077 214.034 86.5883C209.561 87.0308 204.717 84.9866 202.508 80.9719Z" fill="#C1CCBC"/>
<path d="M203.483 86.2295C203.723 86.223 203.979 86.1784 204.228 86.0783L204.323 86.0384L204.347 86.028C204.331 86.0366 204.382 86.01 204.379 86.0112L204.388 86.0068L204.423 85.9882C204.471 85.9619 204.513 85.9421 204.567 85.9099C204.63 85.87 204.692 85.829 204.754 85.7861C204.814 85.7433 204.863 85.7005 204.918 85.6562C205.344 85.2952 205.658 84.7868 205.846 84.2557C206.041 83.7219 206.143 83.161 206.197 82.592C206.252 82.0219 206.258 81.4412 206.234 80.853C206.209 80.2649 206.158 79.6685 206.092 79.0662C206.058 78.7699 206.023 78.4701 205.988 78.1676C205.969 78.0128 205.96 77.8772 205.945 77.7313C205.934 77.5857 205.923 77.4392 205.912 77.2921C205.839 76.1205 205.886 74.9 206.239 73.8176C206.324 73.5465 206.437 73.2915 206.561 73.0461C206.685 72.8006 206.832 72.5726 207.002 72.3652C207.337 71.9454 207.761 71.6096 208.246 71.3567C208.731 71.103 209.276 70.9381 209.841 70.8318L210.286 70.7618L210.688 70.7243C210.83 70.7195 210.972 70.7148 211.113 70.7101C211.254 70.7151 211.394 70.7198 211.534 70.7249C212.094 70.7556 212.64 70.8631 213.155 71.0409C213.669 71.2155 214.159 71.4539 214.593 71.7717C215.029 72.0846 215.432 72.4452 215.769 72.8629C216.122 73.2661 216.405 73.7255 216.664 74.1845L216.714 74.2696C216.699 74.235 216.714 74.2669 216.711 74.2622L216.717 74.274L216.729 74.2977L216.751 74.3452L216.842 74.5337C216.902 74.6589 216.961 74.7833 217.02 74.9068C217.15 75.1567 217.23 75.3891 217.324 75.6222C217.37 75.7386 217.415 75.8541 217.461 75.9684C217.503 76.0851 217.538 76.2059 217.576 76.3229C217.614 76.4404 217.651 76.5574 217.687 76.6729C217.705 76.7308 217.723 76.7887 217.741 76.846C217.755 76.9045 217.769 76.9627 217.783 77.0206C218.032 77.9408 218.142 78.8172 218.179 79.595C218.217 80.3736 218.185 81.0566 218.127 81.6149C218.095 81.9088 218.107 82.3102 218.069 82.5327C218.569 81.6152 219.091 80.3142 219.213 79.1276C219.187 78.4361 218.836 77.5993 218.672 76.8038C218.661 76.7409 218.65 76.6773 218.638 76.6135C218.623 76.5512 218.607 76.488 218.592 76.4245C218.561 76.2975 218.53 76.1693 218.499 76.0399C218.466 75.9105 218.439 75.7794 218.401 75.6473C218.359 75.5156 218.318 75.3826 218.275 75.2482C218.19 74.9812 218.107 74.6976 218.003 74.4513C217.954 74.3231 217.904 74.1943 217.853 74.0646L217.778 73.869L217.759 73.82L217.749 73.7955L217.744 73.7831C217.739 73.7704 217.75 73.7943 217.731 73.7515L217.683 73.6504C217.431 73.1084 217.147 72.5539 216.766 72.0382C216.405 71.5094 215.943 71.0297 215.425 70.6005C214.909 70.1654 214.3 69.831 213.661 69.5728C213.017 69.3214 212.333 69.1672 211.641 69.1079C210.252 69.0125 208.85 69.2361 207.536 69.9167C206.886 70.2623 206.279 70.7488 205.811 71.3496C205.574 71.6465 205.371 71.9694 205.205 72.3043C205.037 72.6384 204.898 72.984 204.797 73.3329C204.587 74.0303 204.486 74.7328 204.448 75.4151C204.406 76.0984 204.434 76.763 204.487 77.4081C204.502 77.5694 204.519 77.7278 204.538 77.8882C204.559 78.0468 204.578 78.2152 204.601 78.3608C204.647 78.66 204.692 78.9566 204.736 79.2496C204.821 79.8274 204.889 80.3896 204.931 80.9331C204.971 81.4757 204.991 82.0009 204.967 82.4948C204.945 82.9887 204.879 83.4525 204.754 83.8528C204.632 84.2554 204.444 84.5791 204.21 84.8098C204.181 84.8361 204.15 84.8686 204.122 84.8908C204.095 84.9109 204.069 84.9318 204.044 84.954C204.008 84.9791 203.956 85.0092 203.914 85.0361L203.88 85.0571L203.879 85.0574L203.874 85.0595L203.827 85.0831C203.701 85.1445 203.565 85.1797 203.422 85.1927C203.28 85.2069 203.13 85.1947 202.983 85.1687C202.835 85.1436 202.689 85.1052 202.548 85.0544C202.267 84.9581 202.011 84.8243 201.783 84.6943C201.649 84.6152 201.526 84.5372 201.412 84.461C202.02 85.1386 202.717 85.7332 203.483 86.2295Z" fill="#C1CCBC"/>
<path d="M204.049 85.7335L204.148 85.6934L204.172 85.683C204.156 85.6919 204.208 85.665 204.206 85.6662L204.215 85.6618L204.251 85.6432C204.301 85.6169 204.344 85.5971 204.401 85.5649C204.465 85.525 204.53 85.4839 204.594 85.4411C204.656 85.3983 204.707 85.3554 204.764 85.3111C205.204 84.9499 205.529 84.4418 205.723 83.9104C205.925 83.3769 206.03 82.8156 206.087 82.2467C206.143 81.6766 206.15 81.0961 206.124 80.5077C206.099 79.9196 206.046 79.3232 205.978 78.7206C205.942 78.4243 205.906 78.1248 205.87 77.8223C205.851 77.6675 205.841 77.5319 205.826 77.386C205.815 77.2404 205.804 77.0939 205.792 76.9467C205.717 75.7749 205.765 74.5546 206.13 73.472C206.218 73.2011 206.335 72.9459 206.463 72.7008C206.592 72.4556 206.745 72.2275 206.92 72.0199C207.266 71.6001 207.706 71.2645 208.207 71.0114C208.709 70.7579 209.273 70.5928 209.858 70.4865L210.318 70.4165L210.735 70.3787C210.881 70.3739 211.027 70.3695 211.173 70.3648C211.319 70.3698 211.464 70.3745 211.609 70.3795C212.189 70.4103 212.754 70.5178 213.286 70.6956C213.819 70.8702 214.326 71.1086 214.775 71.4261C215.225 71.7389 215.643 72.0996 215.991 72.5176C216.357 72.9208 216.65 73.3802 216.918 73.8389L216.969 73.9243C216.953 73.8897 216.969 73.9213 216.966 73.9169L216.972 73.9287L216.984 73.9526L217.008 73.9999L217.101 74.1887C217.163 74.3139 217.225 74.4383 217.286 74.5614C217.42 74.8116 217.503 75.0444 217.6 75.2775C217.648 75.3939 217.695 75.5094 217.742 75.6237C217.786 75.7401 217.822 75.8612 217.862 75.9782C217.9 76.0957 217.939 76.2127 217.977 76.3282C217.995 76.3861 218.014 76.444 218.032 76.5016C218.047 76.5598 218.061 76.618 218.075 76.6759C218.333 77.5963 218.446 78.4725 218.485 79.2502C218.524 80.0292 218.491 80.7121 218.431 81.2704C218.398 81.5643 218.358 81.8225 218.318 82.0456C218.813 81.0146 219.14 79.8883 219.266 78.7017C219.24 78.0102 219.164 77.2551 218.995 76.4596C218.983 76.3967 218.971 76.3332 218.96 76.2697C218.944 76.2068 218.928 76.1439 218.912 76.0804C218.88 75.9533 218.848 75.8251 218.816 75.6958C218.782 75.5664 218.753 75.4352 218.714 75.3032C218.671 75.1714 218.628 75.0385 218.584 74.9044C218.496 74.6371 218.41 74.3535 218.303 74.1071C218.251 73.9792 218.2 73.8504 218.148 73.7205L218.069 73.5252L218.05 73.4759L218.04 73.4513L218.035 73.4392C218.029 73.4265 218.041 73.4502 218.021 73.4076L217.971 73.3066C217.711 72.7646 217.416 72.2101 217.023 71.6943C216.649 71.1656 216.17 70.6862 215.635 70.257C215.101 69.8215 214.471 69.4875 213.81 69.2293C213.144 68.9779 212.436 68.8237 211.72 68.764C210.283 68.6689 208.832 68.8922 207.472 69.5728C206.8 69.9184 206.172 70.4052 205.688 71.0055C205.443 71.3024 205.233 71.6255 205.06 71.9602C204.887 72.2943 204.743 72.6399 204.638 72.9888C204.422 73.6862 204.317 74.3886 204.277 75.0707C204.234 75.7542 204.263 76.4186 204.318 77.0637C204.334 77.225 204.351 77.3836 204.371 77.544C204.392 77.7027 204.412 77.871 204.436 78.0167C204.483 78.3156 204.53 78.6125 204.576 78.9055C204.663 79.4833 204.734 80.0454 204.778 80.589C204.819 81.1319 204.841 81.6568 204.815 82.1507C204.792 82.6443 204.724 83.1084 204.595 83.5083C204.468 83.9116 204.274 84.2347 204.032 84.4654C204.002 84.492 203.969 84.5242 203.94 84.5466C203.913 84.5664 203.886 84.5877 203.86 84.6099C203.823 84.635 203.769 84.6651 203.725 84.692L203.69 84.7127L203.689 84.713L203.684 84.7153L203.636 84.7387C203.505 84.8001 203.365 84.8352 203.216 84.8485C203.069 84.8627 202.914 84.8506 202.762 84.8246C202.609 84.7995 202.458 84.7608 202.313 84.7103C202.022 84.614 201.756 84.4802 201.521 84.3502C201.365 84.2616 201.224 84.1742 201.094 84.0897C201.64 84.7593 202.269 85.3587 202.964 85.8727C203.06 85.8818 203.158 85.8872 203.26 85.8857C203.513 85.8815 203.785 85.8363 204.049 85.7335Z" fill="white"/>
<path opacity="0.4" d="M218.343 75.5671C218.343 79.7304 214.968 83.1055 210.804 83.1055C206.641 83.1055 203.266 79.7304 203.266 75.5671C203.266 71.4035 206.641 68.0283 210.804 68.0283C214.968 68.0283 218.343 71.4035 218.343 75.5671Z" fill="white"/>
<path opacity="0.4" d="M215.841 78.875C218.145 76.5704 218.145 72.8339 215.841 70.5293C213.536 68.2247 209.8 68.2247 207.495 70.5293C205.191 72.8339 205.191 76.5704 207.495 78.875C209.8 81.1796 213.536 81.1796 215.841 78.875Z" fill="white"/>
<path opacity="0.4" d="M217.149 73.4267C217.149 75.7488 215.266 77.6308 212.944 77.6308C210.623 77.6308 208.74 75.7485 208.74 73.4267C208.74 71.1052 210.622 69.2227 212.944 69.2227C215.266 69.2227 217.149 71.1052 217.149 73.4267Z" fill="white"/>
<path d="M98.4203 112.409H92.9531V17.0176C92.9531 15.9806 93.794 15.1396 94.8311 15.1396H96.5423C97.5793 15.1396 98.4203 15.9806 98.4203 17.0176V112.409Z" fill="#1F3049"/>
<path d="M50.5096 112.409H45.043V17.0176C45.043 15.9806 45.8839 15.1396 46.9209 15.1396H48.6322C49.6692 15.1396 50.5101 15.9806 50.5101 17.0176V112.409H50.5096Z" fill="#1F3049"/>
<path d="M139.174 8.01367H132.463V16.7656C131.902 19.0553 131.584 21.6645 131.584 24.4356C131.584 27.2068 131.902 29.8159 132.463 32.1057V40.8576H139.174C143.366 40.8576 146.764 33.505 146.764 24.4356C146.764 15.3662 143.366 8.01367 139.174 8.01367Z" fill="#253757"/>
<path d="M132.463 40.8585C136.655 40.8585 140.053 33.5059 140.053 24.4361C140.053 15.3662 136.655 8.01367 132.463 8.01367C128.271 8.01367 124.873 15.3662 124.873 24.4361C124.873 33.5059 128.271 40.8585 132.463 40.8585Z" fill="#253757"/>
<path d="M129.847 0.84082H120.204V13.4163C119.399 16.7062 118.941 20.4551 118.941 24.4374C118.941 28.4188 119.399 32.1682 120.204 35.4581V48.0335H129.847C135.87 48.0335 140.753 37.4691 140.753 24.4374C140.753 11.4048 135.87 0.84082 129.847 0.84082Z" fill="#3C577F"/>
<path opacity="0.3" d="M129.847 0.84082H120.204V13.4163C119.399 16.7062 118.941 20.4551 118.941 24.4374C118.941 28.4188 119.399 32.1682 120.204 35.4581V48.0335H129.847C135.87 48.0335 140.753 37.4691 140.753 24.4374C140.753 11.4048 135.87 0.84082 129.847 0.84082Z" fill="url(#paint0_linear_549_16388)"/>
<path d="M120.203 48.0331C126.226 48.0331 131.108 37.4687 131.108 24.4369C131.108 11.4052 126.226 0.84082 120.203 0.84082C114.18 0.84082 109.297 11.4052 109.297 24.4369C109.297 37.4687 114.18 48.0331 120.203 48.0331Z" fill="#253757"/>
<g opacity="0.2">
<path d="M120.203 40.2363C116.006 40.2363 112.719 33.2965 112.719 24.4368C112.719 15.577 116.006 8.6377 120.203 8.6377C124.401 8.6377 127.689 15.5775 127.689 24.4368C127.689 33.2961 124.401 40.2363 120.203 40.2363ZM120.203 9.31753C116.451 9.31753 113.399 16.1 113.399 24.4372C113.399 32.7745 116.451 39.5569 120.203 39.5569C123.956 39.5569 127.009 32.7745 127.009 24.4372C127.009 16.1 123.956 9.31753 120.203 9.31753Z" fill="white"/>
</g>
<path d="M119.62 20.4229H7.58789V28.4496H119.62V20.4229Z" fill="white"/>
<path d="M121.475 24.4393C121.475 26.6553 120.639 28.4496 119.619 28.4496C118.593 28.4496 117.764 26.6553 117.764 24.4393C117.764 22.2172 118.593 20.4229 119.619 20.4229C120.638 20.4224 121.475 22.2167 121.475 24.4393Z" fill="white"/>
<path opacity="0.5" d="M121.477 24.4395C121.477 26.6554 120.641 28.4498 119.621 28.4498H29.0117V24.4395H121.477Z" fill="#6A9CE5"/>
<path d="M26.2823 0.84082H16.6395V13.4163C15.8345 16.7062 15.377 20.4551 15.377 24.4374C15.377 28.4188 15.8345 32.1682 16.6395 35.4581V48.0335H26.2827C32.306 48.0335 37.1885 37.4691 37.1885 24.4374C37.188 11.4048 32.3055 0.84082 26.2823 0.84082Z" fill="#3C577F"/>
<path opacity="0.3" d="M26.2823 0.84082H16.6395V13.4163C15.8345 16.7062 15.377 20.4551 15.377 24.4374C15.377 28.4188 15.8345 32.1682 16.6395 35.4581V48.0335H26.2827C32.306 48.0335 37.1885 37.4691 37.1885 24.4374C37.188 11.4048 32.3055 0.84082 26.2823 0.84082Z" fill="url(#paint1_linear_549_16388)"/>
<path d="M16.6402 48.0331C22.6633 48.0331 27.5459 37.4687 27.5459 24.4369C27.5459 11.4052 22.6633 0.84082 16.6402 0.84082C10.6171 0.84082 5.73438 11.4052 5.73438 24.4369C5.73438 37.4687 10.6171 48.0331 16.6402 48.0331Z" fill="#253757"/>
<path d="M14.3011 8.01465H7.58968V16.7665C7.02937 19.0563 6.71094 21.6654 6.71094 24.4366C6.71094 27.2077 7.02937 29.8169 7.58968 32.1066V40.8585H14.3011C18.4931 40.8585 21.8913 33.506 21.8913 24.4366C21.8913 15.3672 18.4931 8.01465 14.3011 8.01465Z" fill="#3C577F"/>
<path opacity="0.3" d="M14.3011 8.01465H7.58968V16.7665C7.02937 19.0563 6.71094 21.6654 6.71094 24.4366C6.71094 27.2077 7.02937 29.8169 7.58968 32.1066V40.8585H14.3011C18.4931 40.8585 21.8913 33.506 21.8913 24.4366C21.8913 15.3672 18.4931 8.01465 14.3011 8.01465Z" fill="url(#paint2_linear_549_16388)"/>
<path d="M7.5902 40.8585C11.7822 40.8585 15.1804 33.5059 15.1804 24.4361C15.1804 15.3662 11.7822 8.01367 7.5902 8.01367C3.39825 8.01367 0 15.3662 0 24.4361C0 33.5059 3.39825 40.8585 7.5902 40.8585Z" fill="#253757"/>
<path d="M7.59037 28.4528C8.61541 28.4528 9.44636 26.6548 9.44636 24.4369C9.44636 22.2189 8.61541 20.4209 7.59037 20.4209C6.56533 20.4209 5.73438 22.2189 5.73438 24.4369C5.73438 26.6548 6.56533 28.4528 7.59037 28.4528Z" fill="white"/>
<path d="M58.6503 112.409H53.1836V17.0176C53.1836 15.9806 54.0245 15.1396 55.0615 15.1396H56.7728C57.8098 15.1396 58.6507 15.9806 58.6507 17.0176L58.6503 112.409Z" fill="#253757"/>
<path d="M55.9171 33.2673H48.1938C47.2796 33.2673 46.5391 32.5263 46.5391 31.6121V30.104C46.5391 29.1898 47.2801 28.4492 48.1938 28.4492H55.9171V33.2673Z" fill="#253757"/>
<path d="M103.827 33.2673H96.104C95.1898 33.2673 94.4492 32.5263 94.4492 31.6121V30.104C94.4492 29.1898 95.1902 28.4492 96.104 28.4492H103.827V33.2673Z" fill="#253757"/>
<path d="M71.7752 121.402H31.8496V118.587C31.8496 115.175 34.6156 112.409 38.0274 112.409H65.5974C69.0092 112.409 71.7752 115.175 71.7752 118.587V121.402Z" fill="#2F4A70"/>
<path d="M120.152 121.402H80.2266V118.587C80.2266 115.175 82.9926 112.409 86.4043 112.409H113.974C117.386 112.409 120.152 115.175 120.152 118.587V121.402Z" fill="#2F4A70"/>
<path d="M125.738 72.2188H122.153V76.8945C121.854 78.1178 121.684 79.5115 121.684 80.9921C121.684 82.4727 121.854 83.8665 122.153 85.0898V89.7655H125.738C127.978 89.7655 129.793 85.8373 129.793 80.9921C129.793 76.1469 127.978 72.2188 125.738 72.2188Z" fill="#253757"/>
<path d="M122.153 89.7655C124.392 89.7655 126.208 85.8375 126.208 80.9921C126.208 76.1467 124.392 72.2188 122.153 72.2188C119.913 72.2188 118.098 76.1467 118.098 80.9921C118.098 85.8375 119.913 89.7655 122.153 89.7655Z" fill="#253757"/>
<path d="M120.754 68.3857H115.602V75.1042C115.172 76.8617 114.928 78.8648 114.928 80.992C114.928 83.1193 115.172 85.1219 115.602 86.8799V93.5983H120.754C123.972 93.5983 126.581 87.9542 126.581 80.992C126.581 74.0294 123.972 68.3857 120.754 68.3857Z" fill="#3C577F"/>
<path opacity="0.3" d="M120.754 68.3857H115.602V75.1042C115.172 76.8617 114.928 78.8648 114.928 80.992C114.928 83.1193 115.172 85.1219 115.602 86.8799V93.5983H120.754C123.972 93.5983 126.581 87.9542 126.581 80.992C126.581 74.0294 123.972 68.3857 120.754 68.3857Z" fill="url(#paint3_linear_549_16388)"/>
<path d="M115.604 93.5983C118.821 93.5983 121.43 87.9543 121.43 80.992C121.43 74.0298 118.821 68.3857 115.604 68.3857C112.386 68.3857 109.777 74.0298 109.777 80.992C109.777 87.9543 112.386 93.5983 115.604 93.5983Z" fill="#253757"/>
<g opacity="0.2">
<path d="M115.602 89.4326C113.36 89.4326 111.604 85.7248 111.604 80.9917C111.604 76.2586 113.36 72.5508 115.602 72.5508C117.845 72.5508 119.601 76.2586 119.601 80.9917C119.601 85.7248 117.844 89.4326 115.602 89.4326ZM115.602 72.914C113.597 72.914 111.967 76.5378 111.967 80.9917C111.967 85.4456 113.598 89.0694 115.602 89.0694C117.607 89.0694 119.238 85.4456 119.238 80.9917C119.238 76.5378 117.607 72.914 115.602 72.914Z" fill="white"/>
</g>
<path d="M115.29 78.8477H74.3984V83.1358H115.29V78.8477Z" fill="white"/>
<path d="M116.281 80.9936C116.281 82.1772 115.835 83.1363 115.29 83.1363C114.742 83.1363 114.299 82.1777 114.299 80.9936C114.299 79.8062 114.742 78.8477 115.29 78.8477C115.835 78.8477 116.281 79.8062 116.281 80.9936Z" fill="white"/>
<path opacity="0.5" d="M116.281 80.9941C116.281 82.1778 115.834 83.1368 115.29 83.1368H85.8438V80.9941H116.281Z" fill="#6A9CE5"/>
<path d="M84.3872 68.3857H79.2352V75.1042C78.8052 76.8617 78.5605 78.8648 78.5605 80.992C78.5605 83.1193 78.8052 85.1219 79.2352 86.8799V93.5983H84.3872C87.6052 93.5983 90.2134 87.9542 90.2134 80.992C90.2139 74.0294 87.6052 68.3857 84.3872 68.3857Z" fill="#3C577F"/>
<path opacity="0.3" d="M84.3872 68.3857H79.2352V75.1042C78.8052 76.8617 78.5605 78.8648 78.5605 80.992C78.5605 83.1193 78.8052 85.1219 79.2352 86.8799V93.5983H84.3872C87.6052 93.5983 90.2134 87.9542 90.2134 80.992C90.2139 74.0294 87.6052 68.3857 84.3872 68.3857Z" fill="url(#paint4_linear_549_16388)"/>
<path d="M79.2363 93.5983C82.4541 93.5983 85.0625 87.9543 85.0625 80.992C85.0625 74.0298 82.4541 68.3857 79.2363 68.3857C76.0186 68.3857 73.4102 74.0298 73.4102 80.992C73.4102 87.9543 76.0186 93.5983 79.2363 93.5983Z" fill="#253757"/>
<path d="M77.9864 72.2188H74.4009V76.8945C74.1016 78.1178 73.9316 79.5115 73.9316 80.9921C73.9316 82.4727 74.1016 83.8665 74.4009 85.0898V89.7655H77.9864C80.2257 89.7655 82.0415 85.8373 82.0415 80.9921C82.0415 76.1469 80.2257 72.2188 77.9864 72.2188Z" fill="#3C577F"/>
<path opacity="0.3" d="M77.9864 72.2188H74.4009V76.8945C74.1016 78.1178 73.9316 79.5115 73.9316 80.9921C73.9316 82.4727 74.1016 83.8665 74.4009 85.0898V89.7655H77.9864C80.2257 89.7655 82.0415 85.8373 82.0415 80.9921C82.0415 76.1469 80.2257 72.2188 77.9864 72.2188Z" fill="url(#paint5_linear_549_16388)"/>
<path d="M74.4009 89.7655C76.6405 89.7655 78.4561 85.8375 78.4561 80.9921C78.4561 76.1467 76.6405 72.2188 74.4009 72.2188C72.1613 72.2188 70.3457 76.1467 70.3457 80.9921C70.3457 85.8375 72.1613 89.7655 74.4009 89.7655Z" fill="#253757"/>
<path d="M74.3999 83.1376C74.9477 83.1376 75.3917 82.1771 75.3917 80.9922C75.3917 79.8072 74.9477 78.8467 74.3999 78.8467C73.8522 78.8467 73.4082 79.8072 73.4082 80.9922C73.4082 82.1771 73.8522 83.1376 74.3999 83.1376Z" fill="white"/>
<path d="M106.56 112.409H101.094V17.0176C101.094 15.9806 101.935 15.1396 102.972 15.1396H104.683C105.72 15.1396 106.561 15.9806 106.561 17.0176V112.409H106.56Z" fill="#253757"/>
<path d="M316.732 125.055H204.51V101.228H297.646L316.732 125.055Z" fill="#EA6C6C"/>
<path opacity="0.3" d="M309.247 115.711H204.51V101.228H297.646L309.247 115.711Z" fill="url(#paint6_linear_549_16388)"/>
<path d="M211.618 121.488H309.759L295.254 103.44H211.496" stroke="white" stroke-miterlimit="10"/>
<path d="M170.697 124.816H50.4258V134.161H170.697V124.816Z" fill="url(#paint7_linear_549_16388)"/>
<path d="M195.906 78.5871C195.972 78.6609 196.035 78.7305 196.097 78.8089C197.287 80.1532 198.345 81.5684 199.272 83.0392L199.585 83.5449C207.677 96.8707 205.408 114.473 193.382 125.266L193.291 125.348C185.785 132.037 176.076 134.676 166.829 133.418C161.263 132.661 155.872 130.489 151.235 126.934C151.076 126.818 150.917 126.693 150.767 126.569C149.405 125.489 148.111 124.284 146.903 122.956C146.832 122.885 146.77 122.816 146.703 122.742C146.637 122.668 146.575 122.598 146.512 122.521C145.322 121.177 144.268 119.765 143.341 118.295C143.23 118.127 143.127 117.96 143.028 117.789C134.936 104.463 137.201 86.8562 149.227 76.0639C161.254 65.2716 179.002 64.9181 191.377 74.4003C191.536 74.5166 191.691 74.6365 191.846 74.7654C193.208 75.8454 194.497 77.0454 195.705 78.3742C195.777 78.4433 195.839 78.5129 195.906 78.5871Z" fill="#FFAD76"/>
<path opacity="0.6" d="M195.906 78.5871C195.972 78.6609 196.035 78.7305 196.097 78.8089C197.287 80.1532 198.345 81.5684 199.272 83.0392L199.585 83.5449C207.677 96.8707 205.408 114.473 193.382 125.266L193.291 125.348C185.785 132.037 176.076 134.676 166.829 133.418C161.263 132.661 155.872 130.489 151.235 126.934C151.076 126.818 150.917 126.693 150.767 126.569C149.405 125.489 148.111 124.284 146.903 122.956C146.832 122.885 146.77 122.816 146.703 122.742C146.637 122.668 146.575 122.598 146.512 122.521C145.322 121.177 144.268 119.765 143.341 118.295C143.23 118.127 143.127 117.96 143.028 117.789C134.936 104.463 137.201 86.8562 149.227 76.0639C161.254 65.2716 179.002 64.9181 191.377 74.4003C191.536 74.5166 191.691 74.6365 191.846 74.7654C193.208 75.8454 194.497 77.0454 195.705 78.3742C195.777 78.4433 195.839 78.5129 195.906 78.5871Z" fill="url(#paint8_linear_549_16388)"/>
<g opacity="0.2">
<path d="M195.721 78.3791L146.514 122.535L146.904 122.971L196.111 78.8146L195.721 78.3791Z" fill="white"/>
<path d="M191.847 74.7645L143.342 118.294C143.231 118.126 143.128 117.959 143.029 117.788L191.378 74.3994C191.537 74.5161 191.692 74.6361 191.847 74.7645Z" fill="white"/>
<path d="M199.273 83.0391L150.768 126.568C150.918 126.693 151.077 126.817 151.236 126.933L199.585 83.5447L199.273 83.0391Z" fill="white"/>
</g>
<path d="M274.361 95.4277H271.924V98.6046C271.721 99.4357 271.605 100.383 271.605 101.389C271.605 102.395 271.721 103.342 271.924 104.173V107.35H274.361C275.882 107.35 277.116 104.681 277.116 101.389C277.116 98.0966 275.882 95.4277 274.361 95.4277Z" fill="#253757"/>
<path d="M271.925 107.35C273.447 107.35 274.68 104.681 274.68 101.389C274.68 98.0966 273.447 95.4277 271.925 95.4277C270.404 95.4277 269.17 98.0966 269.17 101.389C269.17 104.681 270.404 107.35 271.925 107.35Z" fill="#253757"/>
<path d="M270.977 92.8232H267.476V97.3878C267.184 98.5822 267.018 99.9428 267.018 101.388C267.018 102.833 267.184 104.195 267.476 105.389V109.953H270.977C273.163 109.953 274.935 106.119 274.935 101.388C274.936 96.658 273.163 92.8232 270.977 92.8232Z" fill="#3C577F"/>
<path opacity="0.3" d="M270.977 92.8232H267.476V97.3878C267.184 98.5822 267.018 99.9428 267.018 101.388C267.018 102.833 267.184 104.195 267.476 105.389V109.953H270.977C273.163 109.953 274.935 106.119 274.935 101.388C274.936 96.658 273.163 92.8232 270.977 92.8232Z" fill="url(#paint9_linear_549_16388)"/>
<path d="M267.476 109.953C269.662 109.953 271.435 106.119 271.435 101.388C271.435 96.658 269.662 92.8232 267.476 92.8232C265.29 92.8232 263.518 96.658 263.518 101.388C263.518 106.119 265.29 109.953 267.476 109.953Z" fill="#253757"/>
<g opacity="0.2">
<path d="M267.475 107.124C265.951 107.124 264.758 104.605 264.758 101.388C264.758 98.1723 265.951 95.6533 267.475 95.6533C268.998 95.6533 270.192 98.1723 270.192 101.388C270.192 104.605 268.998 107.124 267.475 107.124ZM267.475 95.9003C266.113 95.9003 265.005 98.3624 265.005 101.388C265.005 104.415 266.113 106.877 267.475 106.877C268.837 106.877 269.945 104.415 269.945 101.388C269.945 98.3624 268.837 95.9003 267.475 95.9003Z" fill="white"/>
</g>
<path d="M267.265 99.9316H239.482V102.845H267.265V99.9316Z" fill="white"/>
<path d="M267.939 101.389C267.939 102.194 267.635 102.845 267.265 102.845C266.892 102.845 266.592 102.194 266.592 101.389C266.592 100.583 266.893 99.9316 267.265 99.9316C267.636 99.9316 267.939 100.583 267.939 101.389Z" fill="white"/>
<path opacity="0.5" d="M267.937 101.39C267.937 102.194 267.633 102.845 267.263 102.845H247.256V101.39H267.937Z" fill="#6A9CE5"/>
<path d="M246.268 92.8232H242.767V97.3878C242.475 98.5822 242.309 99.9428 242.309 101.388C242.309 102.833 242.475 104.195 242.767 105.389V109.953H246.268C248.454 109.953 250.226 106.119 250.226 101.388C250.227 96.658 248.454 92.8232 246.268 92.8232Z" fill="#3C577F"/>
<path opacity="0.3" d="M246.268 92.8232H242.767V97.3878C242.475 98.5822 242.309 99.9428 242.309 101.388C242.309 102.833 242.475 104.195 242.767 105.389V109.953H246.268C248.454 109.953 250.226 106.119 250.226 101.388C250.227 96.658 248.454 92.8232 246.268 92.8232Z" fill="url(#paint10_linear_549_16388)"/>
<path d="M242.767 109.953C244.953 109.953 246.726 106.119 246.726 101.388C246.726 96.658 244.953 92.8232 242.767 92.8232C240.581 92.8232 238.809 96.658 238.809 101.388C238.809 106.119 240.581 109.953 242.767 109.953Z" fill="#253757"/>
<path d="M241.919 95.4277H239.483V98.6046C239.279 99.4357 239.164 100.383 239.164 101.389C239.164 102.395 239.28 103.342 239.483 104.173V107.35H241.919C243.441 107.35 244.675 104.681 244.675 101.389C244.675 98.0966 243.441 95.4277 241.919 95.4277Z" fill="#3C577F"/>
<path opacity="0.3" d="M241.919 95.4277H239.483V98.6046C239.279 99.4357 239.164 100.383 239.164 101.389C239.164 102.395 239.28 103.342 239.483 104.173V107.35H241.919C243.441 107.35 244.675 104.681 244.675 101.389C244.675 98.0966 243.441 95.4277 241.919 95.4277Z" fill="url(#paint11_linear_549_16388)"/>
<path d="M239.482 107.35C241.004 107.35 242.237 104.681 242.237 101.389C242.237 98.0966 241.004 95.4277 239.482 95.4277C237.96 95.4277 236.727 98.0966 236.727 101.389C236.727 104.681 237.96 107.35 239.482 107.35Z" fill="#253757"/>
<path d="M239.482 102.846C239.854 102.846 240.156 102.193 240.156 101.388C240.156 100.583 239.854 99.9307 239.482 99.9307C239.11 99.9307 238.809 100.583 238.809 101.388C238.809 102.193 239.11 102.846 239.482 102.846Z" fill="white"/>
<defs>
<linearGradient id="paint0_linear_549_16388" x1="129.847" y1="-9.63974" x2="129.847" y2="25.7742" gradientUnits="userSpaceOnUse">
<stop stop-color="#F3F1F5"/>
<stop offset="1" stop-color="#E8E6EA" stop-opacity="0"/>
</linearGradient>
<linearGradient id="paint1_linear_549_16388" x1="26.2825" y1="-9.63974" x2="26.2825" y2="25.7742" gradientUnits="userSpaceOnUse">
<stop stop-color="#F3F1F5"/>
<stop offset="1" stop-color="#E8E6EA" stop-opacity="0"/>
</linearGradient>
<linearGradient id="paint2_linear_549_16388" x1="14.301" y1="-6.92712" x2="14.301" y2="25.6248" gradientUnits="userSpaceOnUse">
<stop stop-color="#F3F1F5"/>
<stop offset="1" stop-color="#E8E6EA" stop-opacity="0"/>
</linearGradient>
<linearGradient id="paint3_linear_549_16388" x1="120.755" y1="62.7864" x2="120.755" y2="81.7063" gradientUnits="userSpaceOnUse">
<stop stop-color="#F3F1F5"/>
<stop offset="1" stop-color="#E8E6EA" stop-opacity="0"/>
</linearGradient>
<linearGradient id="paint4_linear_549_16388" x1="84.3873" y1="62.7864" x2="84.3873" y2="81.7063" gradientUnits="userSpaceOnUse">
<stop stop-color="#F3F1F5"/>
<stop offset="1" stop-color="#E8E6EA" stop-opacity="0"/>
</linearGradient>
<linearGradient id="paint5_linear_549_16388" x1="77.9863" y1="64.2361" x2="77.9863" y2="81.627" gradientUnits="userSpaceOnUse">
<stop stop-color="#F3F1F5"/>
<stop offset="1" stop-color="#E8E6EA" stop-opacity="0"/>
</linearGradient>
<linearGradient id="paint6_linear_549_16388" x1="256.878" y1="93.1309" x2="256.878" y2="112.497" gradientUnits="userSpaceOnUse">
<stop stop-color="#F3F1F5"/>
<stop offset="1" stop-color="#E8E6EA" stop-opacity="0"/>
</linearGradient>
<linearGradient id="paint7_linear_549_16388" x1="55.8772" y1="129.488" x2="209.612" y2="129.488" gradientUnits="userSpaceOnUse">
<stop stop-color="#C5BD96" stop-opacity="0"/>
<stop offset="1" stop-color="#C1B98E"/>
</linearGradient>
<linearGradient id="paint8_linear_549_16388" x1="176.601" y1="137.119" x2="167.097" y2="71.6874" gradientUnits="userSpaceOnUse">
<stop stop-color="#C15E44"/>
<stop offset="1" stop-color="#B87445" stop-opacity="0"/>
</linearGradient>
<linearGradient id="paint9_linear_549_16388" x1="270.977" y1="89.019" x2="270.977" y2="101.874" gradientUnits="userSpaceOnUse">
<stop stop-color="#F3F1F5"/>
<stop offset="1" stop-color="#E8E6EA" stop-opacity="0"/>
</linearGradient>
<linearGradient id="paint10_linear_549_16388" x1="246.268" y1="89.019" x2="246.268" y2="101.874" gradientUnits="userSpaceOnUse">
<stop stop-color="#F3F1F5"/>
<stop offset="1" stop-color="#E8E6EA" stop-opacity="0"/>
</linearGradient>
<linearGradient id="paint11_linear_549_16388" x1="241.919" y1="90.0041" x2="241.919" y2="101.82" gradientUnits="userSpaceOnUse">
<stop stop-color="#F3F1F5"/>
<stop offset="1" stop-color="#E8E6EA" stop-opacity="0"/>
</linearGradient>
</defs>
</svg>
