<svg width="181" height="166" viewBox="0 0 181 166" fill="none" xmlns="http://www.w3.org/2000/svg">
<path d="M18.637 32.123C18.3701 28.6783 16.9589 25.376 14.9044 22.5983C12.8499 19.8206 11.5186 18.3007 8.60968 16.4364C7.67971 15.8402 5.16775 14.6026 4.0725 14.4559C2.97764 14.3096 1.92233 14.5915 1.33279 15.5258C0.864247 16.2684 0.878481 17.2395 1.1774 18.0651C1.47593 18.891 2.02671 19.5992 2.5949 20.2686C7.07949 25.5535 13.0836 29.2801 18.637 32.123Z" fill="#ADCE46"/>
<path d="M1.72266 15.0762C20.5728 30.1416 34.3307 52.0822 41.2529 75.1987C48.1751 98.3152 48.2309 122.506 40.7634 145.452" stroke="#4C290F" stroke-width="0.75" stroke-miterlimit="10" stroke-linecap="round"/>
<path d="M32.8278 42.1341C34.0812 38.3126 34.9056 34.3044 34.7336 30.286C34.5612 26.2676 33.3382 22.2254 30.8358 19.0769C29.9706 17.9888 28.7694 16.9402 27.3843 17.0576C26.2436 17.1541 25.2919 18.0615 24.8483 19.1172C24.4046 20.1729 24.386 21.356 24.4572 22.4987C24.9349 30.1405 29.0494 37.0121 32.8278 42.1341Z" fill="#ADCE46"/>
<path d="M27.418 17.1069C32.5479 27.7297 34.1144 40.3602 31.7302 51.913" stroke="#4C290F" stroke-width="0.75" stroke-miterlimit="10" stroke-linecap="round"/>
<path d="M26.526 54.6817C23.1059 49.6162 17.8214 45.8402 11.9209 44.2459C10.3733 43.8276 8.71379 43.5583 7.18202 44.0301C5.64986 44.5018 4.30629 45.9042 4.37351 47.506C4.42136 48.6467 5.16233 49.67 6.09309 50.3315C7.02386 50.993 8.13176 51.3496 9.22543 51.6782C15.0817 53.4377 21.098 54.6666 26.526 54.6817Z" fill="#ADCE46"/>
<path d="M36.957 63.0684C29.3033 54.571 16.5391 48.708 4.625 46.4341" stroke="#4C290F" stroke-width="0.75" stroke-miterlimit="10" stroke-linecap="round"/>
<path d="M42.9295 64.1054C46.5193 58.7316 47.6632 51.79 45.9871 45.5486C45.7175 44.5447 45.3165 43.4775 44.4273 42.9394C43.0972 42.134 41.3127 42.9252 40.3128 44.1157C38.4517 46.3311 38.3619 49.518 38.6818 52.3937C39.1756 56.838 40.4302 61.1965 42.9295 64.1054Z" fill="#ADCE46"/>
<path d="M43.2306 42.5898C44.1894 53.1928 43.6177 64.1228 41.0195 74.447" stroke="#4C290F" stroke-width="0.75" stroke-miterlimit="10" stroke-linecap="round"/>
<path d="M33.1806 76.8269C29.2649 71.8362 23.3771 68.4377 17.097 67.5442C15.2082 67.2753 13.0367 67.3196 11.714 68.6948C9.98774 70.4903 10.7825 73.6882 12.7057 75.2714C14.6289 76.8542 17.2504 77.2294 19.7315 77.4477C24.6617 77.8798 29.6251 77.9316 33.1806 76.8269Z" fill="#ADCE46"/>
<path d="M10.8828 70.4866C17.2084 71.6957 23.9388 72.749 29.8773 75.2412C35.8158 77.733 40.8551 81.704 44.2108 87.2004" stroke="#4C290F" stroke-width="0.75" stroke-miterlimit="10" stroke-linecap="round"/>
<path d="M36.8561 101.584C32.704 95.9607 26.3642 91.9981 19.4898 90.7296C17.8778 90.4323 15.853 90.46 15.0392 91.8826C14.5379 92.7596 14.7241 93.9031 15.2618 94.7579C15.7996 95.6132 16.6339 96.2335 17.4725 96.7966C23.3003 100.708 30.3348 102.794 36.8561 101.584Z" fill="#ADCE46"/>
<path d="M15.0039 92.0635C21.2694 93.7491 27.8258 96.2258 33.4543 99.4531C39.0828 102.681 43.8157 106.837 46.3427 112.813" stroke="#4C290F" stroke-width="0.75" stroke-miterlimit="10" stroke-linecap="round"/>
<path d="M34.6362 118.696C31.2266 113.305 25.1446 109.701 18.7791 109.298C17.0714 109.189 15.0596 109.465 14.2004 110.944C13.5267 112.105 13.8596 113.647 14.6824 114.707C15.5053 115.768 16.7262 116.437 17.9449 117C23.3254 119.483 29.3975 120.447 34.6362 118.696Z" fill="#ADCE46"/>
<path d="M13.957 111.509C19.9382 112.772 25.6359 113.753 31.0552 116.582C36.4745 119.411 41.3351 123.522 44.8296 128.538" stroke="#4C290F" stroke-width="0.75" stroke-miterlimit="10" stroke-linecap="round"/>
<path d="M50.058 80.0998C52.0666 77.6974 53.8261 75.0498 54.9249 72.1179C56.0241 69.186 56.4369 65.9481 55.7557 62.8921C55.5738 62.0764 55.3029 61.2536 54.7573 60.6206C54.212 59.9871 53.3406 59.5795 52.5292 59.7799C51.3944 60.0603 50.8369 61.3169 50.4901 62.4331C48.6369 68.3976 48.1901 74.794 50.058 80.0998Z" fill="#ADCE46"/>
<path d="M53.5054 59.8677C53.4216 65.1118 52.5003 71.0776 51.2069 76.1604C49.9132 81.2432 48.0999 85.5669 44.6445 89.5126" stroke="#4C290F" stroke-width="0.75" stroke-miterlimit="10" stroke-linecap="round"/>
<path d="M52.0352 102.647C56.9279 98.091 60.0175 91.6488 60.5078 84.9812C60.6138 83.5415 60.3504 81.7215 58.9737 81.2886C58.2022 81.0458 57.3411 81.385 56.7582 81.9457C56.1758 82.5064 55.8196 83.2569 55.4957 83.9978C52.9818 89.7505 51.6762 96.0278 52.0352 102.647Z" fill="#ADCE46"/>
<path d="M58.9992 81.2959C57.6837 91.7217 53.0042 102.962 46.4102 111.144" stroke="#4C290F" stroke-width="0.75" stroke-miterlimit="10" stroke-linecap="round"/>
<path d="M53.7634 121.618C57.0491 120.222 60.123 118.164 62.2581 115.303C64.3933 112.442 65.5075 108.719 64.7902 105.222C64.566 104.129 64.0659 102.958 63.0343 102.534C61.7852 102.02 60.3934 102.835 59.4077 103.758C57.1563 105.867 55.6743 108.691 54.7305 111.628C53.7863 114.565 53.3459 117.636 53.7634 121.618Z" fill="#ADCE46"/>
<path d="M63.2469 102.664C61.0995 113.666 54.269 123.074 44.7969 129.168" stroke="#4C290F" stroke-width="0.75" stroke-miterlimit="10" stroke-linecap="round"/>
<path d="M134.41 94.9046C131.319 87.0294 136.057 77.9788 134.041 69.7624C133.802 68.7894 133.377 67.734 132.457 67.3383C131.385 66.8768 130.093 67.5854 129.523 68.6043C128.953 69.6233 128.928 70.8506 128.964 72.0178C129.213 80.3567 131.732 88.4394 134.41 94.9046Z" fill="#ADCE46"/>
<path d="M132.039 67.2512C129.925 79.6497 132.256 92.5942 138.218 103.57" stroke="#4C290F" stroke-width="0.75" stroke-miterlimit="10" stroke-linecap="round"/>
<path d="M153.723 56.7588C159.395 48.4753 165.554 39.7813 174.781 35.8229C176.685 35.0061 179.289 34.5905 180.497 36.2745C181.161 37.2001 181.115 38.4974 180.636 39.531C180.157 40.5646 179.31 41.3783 178.43 42.1015C170.746 48.4148 159.246 49.7666 153.723 56.7588Z" fill="#ADCE46"/>
<path d="M180.63 36.5696C170.291 41.138 160.342 47.5956 153.723 56.7582C148.632 63.8061 145.654 72.3724 143.247 80.7271C139.354 94.2477 137.021 108.217 136.312 122.269" stroke="#4C290F" stroke-width="0.75" stroke-miterlimit="10" stroke-linecap="round"/>
<path d="M142.973 71.7748C143.302 63.4442 150.768 57.1183 152.894 49.0569C153.126 48.1775 153.293 47.2527 153.112 46.3615C152.931 45.4703 152.336 44.6146 151.465 44.3529C150.584 44.0879 149.608 44.4837 148.953 45.129C148.297 45.7743 147.902 46.6335 147.548 47.4828C144.515 54.7589 143.514 62.6938 142.973 71.7748Z" fill="#ADCE46"/>
<path d="M152.156 44.8782C149.169 51.1357 146.045 56.8931 144.318 63.6085C142.849 69.3208 142.448 75.8259 142.906 81.7067" stroke="#4C290F" stroke-width="0.75" stroke-miterlimit="10" stroke-linecap="round"/>
<path d="M148.594 74.9042C153.17 68.1773 162.964 67.1196 168.449 61.11C169.498 59.9605 170.366 58.1552 169.393 56.9409C168.34 55.6274 166.237 56.2826 164.784 57.1323C157.684 61.2851 151.898 67.6482 148.594 74.9042Z" fill="#ADCE46"/>
<path d="M169.562 57.3403C157.235 63.4761 150.133 70.1548 141.652 86.6745" stroke="#4C290F" stroke-width="0.75" stroke-miterlimit="10" stroke-linecap="round"/>
<path d="M142.926 95.1326C148.614 90.9117 154.301 86.6912 159.988 82.4704C160.847 81.833 161.802 80.9876 161.677 79.9256C161.574 79.0518 160.709 78.4195 159.836 78.3124C158.963 78.2052 158.094 78.5085 157.289 78.864C153.561 80.5112 150.461 83.3545 147.96 86.5714C145.458 89.788 143.504 93.3901 142.926 95.1326Z" fill="#ADCE46"/>
<path d="M161.449 79.4038C159.292 80.0558 157.381 81.3302 155.578 82.6813C148.546 87.9511 143.188 93.7223 138.492 101.992" stroke="#4C290F" stroke-width="0.75" stroke-miterlimit="10" stroke-linecap="round"/>
<path d="M164.432 124.254L114.376 118.899C109.028 118.326 103.627 118.499 98.3264 119.411L29.6914 131.225L88.0754 142.124L164.432 124.254Z" fill="#F180DC"/>
<path d="M88.075 158.026L86.0977 157.619L160.775 136.282L164.432 137.219L88.075 158.026Z" fill="#D54CC8"/>
<path d="M86.0977 157.619V143.747L162.528 126.566V137.174L86.0977 157.619Z" fill="white"/>
<mask id="mask0_2363_12978" style="mask-type:luminance" maskUnits="userSpaceOnUse" x="86" y="126" width="77" height="32">
<path d="M86.0938 157.62V143.748L162.524 126.567V137.175L86.0938 157.62Z" fill="white"/>
</mask>
<g mask="url(#mask0_2363_12978)">
<path d="M86.0938 146.332L162.524 128.38" stroke="#F1DC85" stroke-width="1.25" stroke-miterlimit="10" stroke-linecap="round" stroke-linejoin="round"/>
<path d="M86.0938 149.187L162.524 130.692" stroke="#F1DC85" stroke-width="1.25" stroke-miterlimit="10" stroke-linecap="round" stroke-linejoin="round"/>
<path d="M86.0938 152.18L162.524 132.958" stroke="#F1DC85" stroke-width="1.25" stroke-miterlimit="10" stroke-linecap="round" stroke-linejoin="round"/>
<path d="M86.0938 155.171L162.524 135.044" stroke="#F1DC85" stroke-width="1.25" stroke-miterlimit="10" stroke-linecap="round" stroke-linejoin="round"/>
</g>
<path d="M34.126 133.411C34.126 133.411 26.3569 131.742 25.0141 136.539C23.3143 142.613 29.7059 144.155 29.7059 144.155L86.099 157.618V143.747L34.126 133.411Z" fill="#FBF4D3"/>
<mask id="mask1_2363_12978" style="mask-type:luminance" maskUnits="userSpaceOnUse" x="24" y="133" width="63" height="25">
<path d="M34.1378 133.411C34.1378 133.411 26.3686 131.742 25.0258 136.539C23.326 142.614 29.7176 144.155 29.7176 144.155L86.1107 157.619V143.747L34.1378 133.411Z" fill="white"/>
</mask>
<g mask="url(#mask1_2363_12978)">
<path d="M86.1143 146.331L23.8281 133.774" stroke="#F1DC85" stroke-width="1.25" stroke-miterlimit="10" stroke-linecap="round" stroke-linejoin="round"/>
<path d="M86.1092 149.187L17.9297 135.134" stroke="#F1DC85" stroke-width="1.25" stroke-miterlimit="10" stroke-linecap="round" stroke-linejoin="round"/>
<path d="M86.1074 155.17L18.5625 139.576" stroke="#F1DC85" stroke-width="1.25" stroke-miterlimit="10" stroke-linecap="round" stroke-linejoin="round"/>
<path d="M86.1107 152.179L15.5742 137.038" stroke="#F1DC85" stroke-width="1.25" stroke-miterlimit="10" stroke-linecap="round" stroke-linejoin="round"/>
</g>
<path d="M34.1259 133.411L86.0993 143.747L88.0762 144.11V142.124L34.5209 131.474C34.3283 131.434 32.9132 131.153 31.1818 131.153C25.3406 131.153 23.6174 134.193 23.1105 136.006C22.4799 138.259 22.6886 140.373 23.7135 142.12C25.4564 145.09 28.8604 145.984 29.2467 146.077L88.0759 160.123V158.026L86.0989 157.618L29.7057 144.155C29.7057 144.155 23.3137 142.614 25.014 136.539C26.3563 131.742 34.1259 133.411 34.1259 133.411Z" fill="#D54CC8"/>
<path d="M88.0742 144.11L164.431 126.067V124.254L88.0742 142.125V144.11Z" fill="#E769D5"/>
<path d="M88.0742 158.027V160.123L164.431 139.214V137.219L88.0742 158.027Z" fill="#E769D5"/>
<path d="M29.8086 127.178L37.0392 126.204L38.1202 128.734L29.8086 127.178Z" fill="#175EC5"/>
<path d="M32.5977 120.175V127.7L86.0894 137.718V129.196L32.5977 120.175Z" fill="white"/>
<mask id="mask2_2363_12978" style="mask-type:luminance" maskUnits="userSpaceOnUse" x="32" y="120" width="55" height="18">
<path d="M32.5898 120.174V127.7L86.0816 137.718V129.195L32.5898 120.174Z" fill="white"/>
</mask>
<g mask="url(#mask2_2363_12978)">
<path d="M32.5898 121.192L86.0816 130.395" stroke="#F1DC85" stroke-width="0.75" stroke-miterlimit="10" stroke-linecap="round" stroke-linejoin="round"/>
<path d="M32.5898 122.416L86.0816 131.709" stroke="#F1DC85" stroke-width="0.75" stroke-miterlimit="10" stroke-linecap="round" stroke-linejoin="round"/>
<path d="M86.0816 132.834L32.5898 123.459" stroke="#F1DC85" stroke-width="0.75" stroke-miterlimit="10" stroke-linecap="round" stroke-linejoin="round"/>
<path d="M32.5898 124.773L86.0816 134.202" stroke="#F1DC85" stroke-width="0.75" stroke-miterlimit="10" stroke-linecap="round" stroke-linejoin="round"/>
<path d="M32.5898 125.794L86.0816 135.631" stroke="#F1DC85" stroke-width="0.75" stroke-miterlimit="10" stroke-linecap="round" stroke-linejoin="round"/>
<path d="M86.0816 136.748L32.5898 126.865" stroke="#F1DC85" stroke-width="0.75" stroke-miterlimit="10" stroke-linecap="round" stroke-linejoin="round"/>
</g>
<path d="M86.9498 128.334V138.806L29.8086 128.379V127.178L32.5965 127.7L86.0882 137.718V129.196L29.8086 119.699V118.735L86.9498 128.334Z" fill="#1E6AD7"/>
<path d="M29.8086 118.735L97.0518 110.292L152.908 115.732L86.9498 128.334L29.8086 118.735Z" fill="#337DFF"/>
<path d="M86.9492 128.334L152.907 115.732V124.526L86.9492 138.806V128.334Z" fill="#175EC5"/>
<path d="M95.2188 126.754V137.015L97.9672 136.42V126.166L95.2188 126.754Z" fill="white"/>
<path d="M127.535 120.58V130.019L145.783 126.069V117.093L127.535 120.58Z" fill="#FFE033"/>
<path d="M152.907 115.732L86.9492 128.334" stroke="white" stroke-width="1.25" stroke-miterlimit="10" stroke-linecap="round"/>
<path d="M152.907 124.527L86.9492 138.806" stroke="white" stroke-width="1.25" stroke-miterlimit="10" stroke-linecap="round"/>
<path d="M159.062 107.818L77.5718 99.0496L29.293 105.872L109.34 117.347L159.062 107.818Z" fill="#FFA531"/>
<path d="M29.293 114.916L33.4185 113.858L113.131 126.377L109.34 127.176L29.293 114.916Z" fill="#D26C0F"/>
<path d="M110.82 118.569V126.884L158.982 116.315C159.447 116.213 159.779 115.801 159.779 115.325V110.298C159.779 109.66 159.198 109.181 158.572 109.302L110.82 118.569Z" fill="white"/>
<mask id="mask3_2363_12978" style="mask-type:luminance" maskUnits="userSpaceOnUse" x="110" y="109" width="50" height="18">
<path d="M110.82 118.569V126.883L158.982 116.314C159.447 116.212 159.779 115.8 159.779 115.324V110.297C159.779 109.66 159.198 109.181 158.572 109.302L110.82 118.569Z" fill="white"/>
</mask>
<g mask="url(#mask3_2363_12978)">
<path d="M110.82 121.429L159.779 111.139" stroke="#F1DC85" stroke-width="1.25" stroke-miterlimit="10" stroke-linecap="round" stroke-linejoin="round"/>
<path d="M159.779 113.768L110.82 124.479" stroke="#F1DC85" stroke-width="1.25" stroke-miterlimit="10" stroke-linecap="round" stroke-linejoin="round"/>
</g>
<path d="M110.823 118.569L31.3633 106.847V114.689L110.823 126.883V118.569Z" fill="#FBF4D3"/>
<mask id="mask4_2363_12978" style="mask-type:luminance" maskUnits="userSpaceOnUse" x="31" y="106" width="80" height="21">
<path d="M110.823 118.569L31.3633 106.846V114.689L110.823 126.883V118.569Z" fill="white"/>
</mask>
<g mask="url(#mask4_2363_12978)">
<path d="M110.823 121.429L31.3633 109.283" stroke="#F1DC85" stroke-width="1.25" stroke-miterlimit="10" stroke-linecap="round" stroke-linejoin="round"/>
<path d="M110.823 124.479L31.3633 112.196" stroke="#F1DC85" stroke-width="1.25" stroke-miterlimit="10" stroke-linecap="round" stroke-linejoin="round"/>
</g>
<path d="M158.766 107.801C158.606 107.801 158.445 107.816 158.288 107.847L109.336 117.347V118.855L110.819 118.57L158.57 109.303C159.196 109.181 159.777 109.66 159.777 110.298V115.325C159.777 115.801 159.446 116.213 158.981 116.315L110.819 126.884L109.336 127.177V128.727L159.299 117.763C160.435 117.514 161.26 116.488 161.26 115.325V110.298C161.26 108.921 160.141 107.801 158.766 107.801Z" fill="#D26C0F"/>
<path d="M109.336 117.346L29.2891 105.872V107.164L109.336 118.854V117.346Z" fill="#F18F25"/>
<path d="M109.336 127.176V128.727L29.2891 116.174V114.916L109.336 127.176Z" fill="#F18F25"/>
<path d="M151.286 97.7374L81.7897 93.292L41.9728 99.7445C41.9728 99.7445 36.2771 100.385 36.2309 104.278C36.1846 108.17 40.22 108.198 40.22 108.198L120.038 115.055L151.286 97.7374Z" fill="#FFE033"/>
<path d="M118.354 106.598L40.0195 100.205" stroke="#F180DC" stroke-width="1.25" stroke-miterlimit="10" stroke-linecap="round"/>
<path d="M64.6969 104.043L42.3467 102.051C41.508 101.976 40.6848 102.358 40.2269 103.065C39.5476 104.113 39.6279 105.141 40.4919 106.147C40.8766 106.595 41.4285 106.865 42.0169 106.917L64.2691 108.875C65.5442 108.987 66.6901 108.04 66.7672 106.762C66.77 106.715 66.7739 106.667 66.7787 106.62C66.9095 105.323 65.9942 104.159 64.6969 104.043Z" fill="#FFA531"/>
<path d="M103.929 111.516C104.58 111.516 105.107 110.988 105.107 110.337C105.107 109.686 104.58 109.159 103.929 109.159C103.278 109.159 102.75 109.686 102.75 110.337C102.75 110.988 103.278 111.516 103.929 111.516Z" fill="#F180DC"/>
<path d="M108.077 111.709C108.728 111.709 109.256 111.181 109.256 110.53C109.256 109.879 108.728 109.351 108.077 109.351C107.426 109.351 106.898 109.879 106.898 110.53C106.898 111.181 107.426 111.709 108.077 111.709Z" fill="#F180DC"/>
<path d="M113.428 110.87C113.428 111.521 112.9 112.049 112.249 112.049C111.598 112.049 111.07 111.521 111.07 110.87C111.07 110.219 111.598 109.691 112.249 109.691C112.9 109.691 113.428 110.219 113.428 110.87Z" fill="#F180DC"/>
<path d="M101.257 105.202C101.257 105.202 99.7109 106.726 99.7109 109.321C99.7109 111.916 101.257 113.44 101.257 113.44" stroke="#F180DC" stroke-width="1.25" stroke-miterlimit="10" stroke-linecap="round"/>
<path d="M99.0275 105.02C99.0275 105.02 97.625 106.212 97.625 108.841C97.625 111.47 98.6171 113.097 99.0275 113.44" stroke="#F180DC" stroke-width="1.25" stroke-miterlimit="10" stroke-linecap="round"/>
<path d="M151.288 105.418L148.316 104.829L149.121 106.003L151.288 105.418Z" fill="#CEA90F"/>
<path d="M149.802 99.6238V105.819L121.544 113.405C121.544 113.405 117.797 114.554 117.797 110.836C117.797 107.3 122.058 106.363 122.058 106.363L149.802 99.6238Z" fill="white"/>
<mask id="mask5_2363_12978" style="mask-type:luminance" maskUnits="userSpaceOnUse" x="117" y="99" width="33" height="15">
<path d="M149.798 99.623V105.819L121.541 113.404C121.541 113.404 117.793 114.553 117.793 110.835C117.793 107.299 122.054 106.363 122.054 106.363L149.798 99.623Z" fill="white"/>
</mask>
<g mask="url(#mask5_2363_12978)">
<path d="M149.797 100.59L118.605 108.442" stroke="#F1DC85" stroke-width="1.25" stroke-miterlimit="10" stroke-linecap="round" stroke-linejoin="round"/>
<path d="M149.797 102.131L117.828 110.291" stroke="#F1DC85" stroke-width="1.25" stroke-miterlimit="10" stroke-linecap="round" stroke-linejoin="round"/>
<path d="M149.794 103.552L117.906 111.856" stroke="#F1DC85" stroke-width="1.25" stroke-miterlimit="10" stroke-linecap="round" stroke-linejoin="round"/>
<path d="M149.8 104.908L118.82 113.189" stroke="#F1DC85" stroke-width="1.25" stroke-miterlimit="10" stroke-linecap="round" stroke-linejoin="round"/>
</g>
<path d="M149.804 105.819L121.547 113.405C121.547 113.405 117.799 114.553 117.799 110.836C117.799 107.3 122.06 106.363 122.06 106.363L149.804 99.6236L151.287 99.2124V97.7375L121.722 104.919C121.515 104.967 120.338 105.258 119.135 106.022C117.291 107.192 116.316 108.857 116.316 110.836C116.316 113.438 117.852 115.055 120.324 115.055C121.122 115.055 121.781 114.88 121.947 114.832L151.286 106.956V105.419L149.804 105.819Z" fill="#ECC818"/>
<path d="M89.6289 93.6548L160.46 84.1123V96.2162L89.6289 107.555V93.6548Z" fill="white"/>
<mask id="mask6_2363_12978" style="mask-type:luminance" maskUnits="userSpaceOnUse" x="89" y="84" width="72" height="24">
<path d="M89.6406 93.6548L160.472 84.1123V96.2162L89.6406 107.555V93.6548Z" fill="white"/>
</mask>
<g mask="url(#mask6_2363_12978)">
<path d="M97.0664 92.6542C97.0664 92.6542 97.3001 94.7787 99.7935 94.4434C99.7935 94.4434 98.3427 97.191 101.833 97.2815C101.833 97.2815 101.607 100.092 104.191 99.8655C104.191 99.8655 105.143 101.813 108.542 100.205L113.14 94.6976C113.14 94.6976 113.824 93.4284 112.248 92.3857C112.248 92.3857 113.521 91.7203 113.14 90.489L97.0664 92.6542Z" fill="#91C2FB"/>
<path d="M142.406 86.5464C142.406 86.5464 140.928 89.3782 144.283 90.2548L148.635 93.6548C148.635 93.6548 151.173 95.9062 154.377 92.8541C154.377 92.8541 157.406 94.6674 158.94 91.7055C158.94 91.7055 161.569 91.5545 160.904 88.9856L160.474 84.1123L142.406 86.5464Z" fill="#91C2FB"/>
<path d="M89.6406 101.316C89.6406 101.316 92.2071 99.321 94.1877 101.588C94.1877 101.588 97.0156 101.047 97.0682 104.173C97.0682 104.173 99.7497 107.69 93.9924 108.198C88.235 108.705 93.7666 108.198 93.7666 108.198L89.6406 107.555V101.316Z" fill="#91C2FB"/>
<path d="M117.259 103.133C117.259 103.133 115.446 102.266 117.259 100.204C119.071 98.1423 137.325 96.2689 137.325 96.2689C137.325 96.2689 139.471 95.7248 138.564 98.2032C138.564 98.2032 141.405 97.8102 141.012 100.016C140.619 102.222 117.259 103.133 117.259 103.133Z" fill="#91C2FB"/>
</g>
<path d="M107.215 94.7488L147.003 89.3884C148.942 89.127 150.666 90.6351 150.666 92.5915C150.666 94.1794 149.513 95.5317 147.945 95.7828L108.157 102.152C106.193 102.467 104.414 100.95 104.414 98.961V97.9515C104.414 96.3335 105.611 94.9647 107.215 94.7488Z" fill="#F6EBBE"/>
<path d="M39.1094 89.7788L114.021 82.772L160.463 84.1124L89.632 93.6549L39.1094 89.7788Z" fill="#91C2FB"/>
<path d="M39.1094 99.7063L43.348 99.1243L43.3931 100.24L39.1094 99.7063Z" fill="#1E6AD7"/>
<path d="M41.5859 91.0706V100.001L88.686 106.212V95.1202L41.5859 91.0706Z" fill="white"/>
<mask id="mask7_2363_12978" style="mask-type:luminance" maskUnits="userSpaceOnUse" x="41" y="91" width="48" height="16">
<path d="M41.5938 91.0706V100.001L88.6939 106.212V95.1202L41.5938 91.0706Z" fill="white"/>
</mask>
<g mask="url(#mask7_2363_12978)">
<path d="M41.5938 92.8401L88.6939 97.3278" stroke="#F1DC85" stroke-width="1.25" stroke-miterlimit="10" stroke-linecap="round" stroke-linejoin="round"/>
<path d="M41.5938 94.8801L88.6939 99.7079" stroke="#F1DC85" stroke-width="1.25" stroke-miterlimit="10" stroke-linecap="round" stroke-linejoin="round"/>
<path d="M41.5938 96.8147L88.6939 101.915" stroke="#F1DC85" stroke-width="1.25" stroke-miterlimit="10" stroke-linecap="round" stroke-linejoin="round"/>
<path d="M88.6939 104.029L41.5938 98.8381" stroke="#F1DC85" stroke-width="1.25" stroke-miterlimit="10" stroke-linecap="round" stroke-linejoin="round"/>
</g>
<path d="M88.6803 95.1201V106.211L41.5802 100.001L39.1094 99.7063V100.715L89.632 107.555V93.6544L39.1094 89.7783V90.9005L41.5802 91.0705L88.6803 95.1201Z" fill="#71ACE9"/>
<path d="M38.3281 73.1L106.891 69.7644L129.523 71.4322C129.523 71.4322 141.899 71.8952 142.806 77.8787C143.918 85.2189 136.142 85.9931 136.142 85.9931L70.4063 91.5872L38.3281 73.1Z" fill="#F180DC"/>
<mask id="mask8_2363_12978" style="mask-type:luminance" maskUnits="userSpaceOnUse" x="38" y="69" width="105" height="23">
<path d="M38.332 73.1L106.895 69.7644L129.527 71.4322C129.527 71.4322 141.903 71.8952 142.809 77.8787C143.922 85.2189 136.146 85.9931 136.146 85.9931L70.4102 91.5872L38.332 73.1Z" fill="white"/>
</mask>
<g mask="url(#mask8_2363_12978)">
<path d="M79.4795 75.4682C79.4795 75.4682 84.2401 76.9043 84.2401 84.5204C84.2401 92.1361 74.9922 93.2923 74.9922 93.2923L91.3684 92.9056C91.3684 92.9056 96.0716 86.6967 94.6434 81.6648C93.2153 76.633 89.6341 74.8359 89.6341 74.8359L79.4795 75.4682Z" fill="#F6EBBE"/>
</g>
<path d="M70.4688 76.0295L134.308 72.0522" stroke="#F6EBBE" stroke-width="0.75" stroke-miterlimit="10"/>
<path d="M125.849 72.5789C125.849 72.5789 130.204 75.0003 130.204 80.3041C130.204 85.608 125.359 86.9108 125.359 86.9108" stroke="#F6EBBE" stroke-width="0.75" stroke-miterlimit="10"/>
<path d="M38.3281 86.558L40.7325 86.4319L41.0651 86.8854L38.3281 86.558Z" fill="#D54CC8"/>
<path d="M39.8125 86.7192V74.7058L66.5133 76.8366C66.5133 76.8366 75.8518 77.1537 75.8518 83.9083C75.8518 90.6628 69.4147 90.1188 69.4147 90.1188L39.8125 86.7192Z" fill="white"/>
<mask id="mask9_2363_12978" style="mask-type:luminance" maskUnits="userSpaceOnUse" x="39" y="74" width="37" height="17">
<path d="M39.8125 86.7197V74.7063L66.5133 76.8371C66.5133 76.8371 75.8518 77.1542 75.8518 83.9088C75.8518 90.6633 69.4147 90.1193 69.4147 90.1193L39.8125 86.7197Z" fill="white"/>
</mask>
<g mask="url(#mask9_2363_12978)">
<path d="M39.8125 76.429L73.5075 79.1327" stroke="#F1DC85" stroke-width="1.25" stroke-miterlimit="10" stroke-linecap="round" stroke-linejoin="round"/>
<path d="M39.8125 78.4998L75.4243 81.6009" stroke="#F1DC85" stroke-width="1.25" stroke-miterlimit="10" stroke-linecap="round" stroke-linejoin="round"/>
<path d="M39.8125 80.7805L75.8518 83.8097" stroke="#F1DC85" stroke-width="1.25" stroke-miterlimit="10" stroke-linecap="round" stroke-linejoin="round"/>
<path d="M39.8125 82.7722L75.6157 85.9579" stroke="#F1DC85" stroke-width="1.25" stroke-miterlimit="10" stroke-linecap="round" stroke-linejoin="round"/>
<path d="M39.8125 84.906L74.3532 88.3475" stroke="#F1DC85" stroke-width="1.25" stroke-miterlimit="10" stroke-linecap="round" stroke-linejoin="round"/>
</g>
<path d="M75.4963 78.9659C74.5667 77.9256 73.2982 77.083 71.7261 76.4611C69.3229 75.5101 66.9458 75.3721 66.601 75.3567L38.3281 73.1006V74.5715L39.8109 74.7063L66.5116 76.8371C66.5116 76.8371 75.8501 77.1546 75.8501 83.9088C75.8501 90.6629 69.4131 90.1193 69.4131 90.1193L39.8113 86.7193L38.3285 86.5579V88.0411L69.266 91.5945L69.2881 91.5965C69.3194 91.5992 69.4874 91.6123 69.7503 91.6123C70.6609 91.6123 72.4327 91.4636 74.0685 90.4668C75.5575 89.5598 77.3329 87.6856 77.3329 83.9084C77.3329 81.9923 76.7149 80.3292 75.4963 78.9659Z" fill="#E769D5"/>
<path d="M142.855 68.9869L140.305 68.7908L140.02 69.1529L142.855 68.9869Z" fill="#F18F25"/>
<path d="M77.9062 60.7291L140.978 57.4651V69.0854L77.9062 73.5348V60.7291Z" fill="white"/>
<mask id="mask10_2363_12978" style="mask-type:luminance" maskUnits="userSpaceOnUse" x="77" y="57" width="64" height="17">
<path d="M77.9062 60.7293L140.978 57.4653V69.0857L77.9062 73.5351V60.7293Z" fill="white"/>
</mask>
<g mask="url(#mask10_2363_12978)">
<path d="M77.9062 62.7842L140.978 59.4297" stroke="#F1DC85" stroke-width="1.25" stroke-miterlimit="10" stroke-linecap="round" stroke-linejoin="round"/>
<path d="M77.9062 65.1412L140.978 61.5146" stroke="#F1DC85" stroke-width="1.25" stroke-miterlimit="10" stroke-linecap="round" stroke-linejoin="round"/>
<path d="M140.978 67.4082L77.9062 71.5785" stroke="#F1DC85" stroke-width="1.25" stroke-miterlimit="10" stroke-linecap="round" stroke-linejoin="round"/>
<path d="M140.978 65.5L77.9062 69.4935" stroke="#F1DC85" stroke-width="1.25" stroke-miterlimit="10" stroke-linecap="round" stroke-linejoin="round"/>
<path d="M140.978 63.7817L77.9062 67.4083" stroke="#F1DC85" stroke-width="1.25" stroke-miterlimit="10" stroke-linecap="round" stroke-linejoin="round"/>
</g>
<path d="M79.7969 59.7769V61.0311L142.854 57.6161V56.1658L79.7969 59.7769Z" fill="#FFA531"/>
<path d="M79.7969 73.4014V74.7062L142.854 70.2185V68.9868L140.98 69.0853L79.7969 73.4014Z" fill="#FFA531"/>
<path d="M77.9024 60.7295L39.3267 59.3638C38.0124 59.3171 36.9219 60.3701 36.9219 61.6848V69.1356C36.9219 70.3701 37.8874 71.3886 39.1199 71.455L77.902 73.5352V60.7295H77.9024Z" fill="#FBF4D3"/>
<mask id="mask11_2363_12978" style="mask-type:luminance" maskUnits="userSpaceOnUse" x="36" y="59" width="42" height="15">
<path d="M77.9141 60.7295L39.3384 59.3638C38.0241 59.3171 36.9336 60.3701 36.9336 61.6848V69.1356C36.9336 70.3701 37.8992 71.3886 39.1316 71.455L77.9137 73.5352V60.7295H77.9141Z" fill="white"/>
</mask>
<g mask="url(#mask11_2363_12978)">
<path d="M77.9137 62.7843L36.9336 61.6851" stroke="#F1DC85" stroke-width="1.25" stroke-miterlimit="10" stroke-linecap="round" stroke-linejoin="round"/>
<path d="M77.9137 65.1415L36.9336 63.7817" stroke="#F1DC85" stroke-width="1.25" stroke-miterlimit="10" stroke-linecap="round" stroke-linejoin="round"/>
<path d="M77.9137 71.5786L36.9336 69.6748" stroke="#F1DC85" stroke-width="1.25" stroke-miterlimit="10" stroke-linecap="round" stroke-linejoin="round"/>
<path d="M77.9137 69.4937L36.9336 67.9976" stroke="#F1DC85" stroke-width="1.25" stroke-miterlimit="10" stroke-linecap="round" stroke-linejoin="round"/>
<path d="M77.9162 67.4083L36.957 66.0256" stroke="#F1DC85" stroke-width="1.25" stroke-miterlimit="10" stroke-linecap="round" stroke-linejoin="round"/>
</g>
<path d="M39.3258 59.3637L79.7903 61.0315V59.7773L38.3416 58.2594C36.864 58.2052 35.6367 59.3886 35.6367 60.867V69.8326C35.6367 71.2185 36.7205 72.3628 38.1044 72.4383L79.7903 74.7067V73.4019L39.1194 71.4549C37.8869 71.3889 36.9214 70.37 36.9214 69.1355V61.6847C36.921 60.37 38.0115 59.3174 39.3258 59.3637Z" fill="#F18F25"/>
<path d="M142.851 56.1658L95.977 55.0776L38.1367 58.2598L79.7934 59.7769L142.851 56.1658Z" fill="#FFA531"/>
<path d="M59.6289 40.4114V58.3711L140.547 54.669V39.1082L59.6289 40.4114Z" fill="#91C2FB"/>
<path d="M66.7617 43.5926V54.8049L88.8838 53.7773V43.2905L66.7617 43.5926Z" fill="#337DFF"/>
<path d="M92.2695 43.4722V53.5054L137.08 52.1531V42.5825L92.2695 43.4722Z" fill="#175EC5"/>
<path d="M43.3906 56.4029L45.6689 56.2214L45.8733 56.4962L43.3906 56.4029Z" fill="#1E6AD7"/>
<path d="M44.4805 56.5576V41.3562L58.7148 41.5677V56.9807L44.4805 56.5576Z" fill="white"/>
<mask id="mask12_2363_12978" style="mask-type:luminance" maskUnits="userSpaceOnUse" x="44" y="41" width="15" height="16">
<path d="M44.4805 56.5576V41.3562L58.7148 41.5677V56.9807L44.4805 56.5576Z" fill="white"/>
</mask>
<g mask="url(#mask12_2363_12978)">
<path d="M44.4805 42.7163L58.7148 42.9579" stroke="#F1DC85" stroke-width="1.25" stroke-miterlimit="10" stroke-linecap="round" stroke-linejoin="round"/>
<path d="M58.7148 44.9828L44.4805 44.7712" stroke="#F1DC85" stroke-width="1.25" stroke-miterlimit="10" stroke-linecap="round" stroke-linejoin="round"/>
<path d="M44.4805 46.7742L58.7148 46.9857" stroke="#F1DC85" stroke-width="1.25" stroke-miterlimit="10" stroke-linecap="round" stroke-linejoin="round"/>
<path d="M44.4805 54.5027L58.7148 54.8048" stroke="#F1DC85" stroke-width="1.25" stroke-miterlimit="10" stroke-linecap="round" stroke-linejoin="round"/>
<path d="M58.7148 52.1454L44.4805 51.9038" stroke="#F1DC85" stroke-width="1.25" stroke-miterlimit="10" stroke-linecap="round" stroke-linejoin="round"/>
<path d="M58.7148 49.6668L44.4805 49.3647" stroke="#F1DC85" stroke-width="1.25" stroke-miterlimit="10" stroke-linecap="round" stroke-linejoin="round"/>
</g>
<path d="M59.6197 40.4112L43.3906 40.1965V41.3562L58.7131 41.5678V56.9808L43.3906 56.4031V57.6948L59.6197 58.371V40.4112Z" fill="#71ACE9"/>
<path d="M43.3906 40.1967L108.851 39.1082H140.538L59.6197 40.4114L43.3906 40.1967Z" fill="#337DFF"/>
<path d="M79.6739 24.7183L56.7037 27.581C54.5499 27.8495 52.6947 29.2266 51.8146 31.2104L48.6854 38.2638C48.2975 39.1381 48.9377 40.1222 49.8941 40.1222C50.4097 40.1222 50.8779 39.8229 51.0942 39.3548L53.769 33.5701C54.6745 31.6113 56.5356 30.2662 58.6795 30.021L80.0151 27.5782C80.7031 27.4996 81.2377 26.9424 81.2875 26.2517C81.3539 25.3458 80.575 24.606 79.6739 24.7183Z" fill="#175EC5"/>
<path d="M125.915 24.6448L102.898 27.1054C100.74 27.3359 98.8612 28.6806 97.9467 30.6489L94.6949 37.6463C94.292 38.5138 94.9144 39.509 95.8708 39.5256C96.386 39.5347 96.8597 39.2433 97.0843 38.7795L99.86 33.0423C100.8 31.0997 102.684 29.7874 104.832 29.5794L126.207 27.5103C126.896 27.4434 127.44 26.8958 127.503 26.2062C127.584 25.3016 126.818 24.5483 125.915 24.6448Z" fill="#175EC5"/>
<path d="M126.69 24.5232C126.077 24.5232 125.478 24.3591 124.947 24.0535C120.464 20.9287 110.513 20.6084 107.292 23.6617C107.292 23.6617 105.743 23.3442 104.232 23.3442C102.721 23.3442 101.172 23.6617 101.172 23.6617C97.9505 20.608 87.9991 20.9287 83.5161 24.0535C82.9859 24.3591 82.386 24.5232 81.774 24.5232C80.7416 24.403 79.6076 24.7549 79.5938 25.9739C79.5957 27.1471 80.7159 27.5547 81.7242 27.4247C80.0904 44.0048 103.099 44.1073 101.512 26.4275C101.512 26.4275 102.509 25.8834 104.232 25.8834C105.954 25.8834 106.952 26.4275 106.952 26.4275C105.365 44.1073 128.373 44.0052 126.739 27.4247C127.748 27.5547 128.868 27.1471 128.87 25.9739C128.856 24.7549 127.722 24.403 126.69 24.5232ZM95.5283 37.0648C89.6285 40.9152 82.2623 34.9245 83.2646 28.034C83.2959 26.7853 84.0388 25.6628 85.1835 25.1626C87.3273 23.9187 95.6746 22.5387 97.5618 24.1104C101.612 26.1641 99.4399 34.6106 95.5283 37.0648ZM112.935 37.0648C109.024 34.6102 106.851 26.1641 110.902 24.1104C112.789 22.5383 121.136 23.9183 123.28 25.1626C124.425 25.6628 125.168 26.7853 125.199 28.034C126.201 34.9249 118.835 40.9156 112.935 37.0648Z" fill="#FFA531"/>
<path d="M81.6031 25.9627C81.6031 26.2664 81.3572 26.5123 81.0535 26.5123C80.7498 26.5123 80.5039 26.2664 80.5039 25.9627C80.5039 25.659 80.7498 25.4131 81.0535 25.4131C81.3572 25.4131 81.6031 25.659 81.6031 25.9627Z" fill="#175EC5"/>
<path d="M126.844 25.9627C126.844 26.2664 127.09 26.5123 127.393 26.5123C127.697 26.5123 127.943 26.2664 127.943 25.9627C127.943 25.659 127.697 25.4131 127.393 25.4131C127.09 25.4131 126.844 25.659 126.844 25.9627Z" fill="#175EC5"/>
<path opacity="0.5" d="M85.1869 25.1624C84.0422 25.6626 83.2993 26.7851 83.2681 28.0338C82.2657 34.9244 89.632 40.915 95.5317 37.0646C99.4434 34.61 101.616 26.1639 97.5652 24.1103C95.678 22.5385 87.3308 23.9185 85.1869 25.1624Z" fill="white"/>
<mask id="mask13_2363_12978" style="mask-type:luminance" maskUnits="userSpaceOnUse" x="83" y="23" width="17" height="16">
<path d="M85.1947 25.1624C84.0501 25.6626 83.3071 26.7851 83.2759 28.0338C82.2735 34.9244 89.6398 40.915 95.5395 37.0646C99.4512 34.61 101.623 26.1639 97.573 24.1103C95.6858 22.5385 87.3386 23.9185 85.1947 25.1624Z" fill="white"/>
</mask>
<g mask="url(#mask13_2363_12978)">
<path d="M81.0664 35.7652L98.2954 18.5361" stroke="white" stroke-width="1.5" stroke-miterlimit="10"/>
<path d="M87.2031 42.5822L102.314 27.4717" stroke="white" stroke-width="3" stroke-miterlimit="10"/>
</g>
<path opacity="0.5" d="M123.285 25.1624C124.429 25.6626 125.172 26.7851 125.203 28.0338C126.205 34.9244 118.84 40.915 112.94 37.0646C109.028 34.61 106.856 26.1639 110.906 24.1103C112.794 22.5385 121.141 23.9185 123.285 25.1624Z" fill="white"/>
<mask id="mask14_2363_12978" style="mask-type:luminance" maskUnits="userSpaceOnUse" x="108" y="23" width="18" height="16">
<path d="M123.288 25.1624C124.433 25.6626 125.176 26.7851 125.207 28.0338C126.209 34.9244 118.843 40.915 112.944 37.0646C109.032 34.61 106.86 26.1639 110.91 24.1103C112.797 22.5385 121.145 23.9185 123.288 25.1624Z" fill="white"/>
</mask>
<g mask="url(#mask14_2363_12978)">
<path d="M108.742 38.2727L127.794 19.2205" stroke="white" stroke-width="2.25" stroke-miterlimit="10"/>
</g>
<path d="M126.848 13.5931C126.848 9.01008 124.048 6.20909 119.465 6.20909C124.048 6.20909 126.848 3.40849 126.848 -1.17456C126.848 3.40849 129.649 6.20909 134.232 6.20909C129.649 6.20948 126.848 9.01008 126.848 13.5931Z" fill="white"/>
<path d="M169.829 111.558C169.829 106.975 167.028 104.174 162.445 104.174C167.028 104.174 169.829 101.373 169.829 96.7903C169.829 101.373 172.63 104.174 177.213 104.174C172.63 104.174 169.829 106.975 169.829 111.558Z" fill="white"/>
<path d="M175.482 95.3209C175.482 92.4515 173.729 90.6979 170.859 90.6979C173.729 90.6979 175.482 88.9443 175.482 86.075C175.482 88.9443 177.236 90.6979 180.105 90.6979C177.236 90.6975 175.482 92.4511 175.482 95.3209Z" fill="white"/>
<path d="M21.5157 65.1836C21.5157 63.0279 20.1983 61.7108 18.043 61.7108C20.1987 61.7108 21.5157 60.3937 21.5157 58.238C21.5157 60.3937 22.8328 61.7108 24.9885 61.7108C22.8332 61.7108 21.5157 63.0279 21.5157 65.1836Z" fill="white"/>
<path d="M44.8958 24.5707C44.8958 22.2739 43.4922 20.8702 41.1953 20.8702C43.4922 20.8702 44.8958 19.4665 44.8958 17.1697C44.8958 19.4665 46.2995 20.8702 48.5964 20.8702C46.2995 20.8702 44.8958 22.2739 44.8958 24.5707Z" fill="white"/>
<path d="M4.62298 110.086C4.62298 107.216 2.8694 105.463 0 105.463C2.8694 105.463 4.62298 103.709 4.62298 100.84C4.62298 103.709 6.37657 105.463 9.24597 105.463C6.37657 105.463 4.62298 107.216 4.62298 110.086Z" fill="white"/>
<path d="M139.599 157.336C139.599 155.148 138.262 153.811 136.074 153.811C138.262 153.811 139.599 152.474 139.599 150.286C139.599 152.474 140.936 153.811 143.124 153.811C140.936 153.811 139.599 155.148 139.599 157.336Z" fill="white"/>
<path d="M9.53026 3.18162C9.53026 1.56484 8.54216 0.577137 6.92578 0.577137C8.54256 0.577137 9.53026 -0.41096 9.53026 -2.02734C9.53026 -0.410565 10.5184 0.577137 12.1347 0.577137C10.518 0.576741 9.53026 1.56484 9.53026 3.18162Z" fill="white"/>
<path d="M164.645 24.2524C164.645 25.7542 163.428 26.9716 161.926 26.9716C160.424 26.9716 159.207 25.7542 159.207 24.2524C159.207 22.7507 160.424 21.5337 161.926 21.5337C163.428 21.5333 164.645 22.7507 164.645 24.2524Z" fill="white"/>
<path d="M168.751 18.5079C168.751 18.891 168.44 19.2018 168.057 19.2018C167.674 19.2018 167.363 18.891 167.363 18.5079C167.363 18.1247 167.674 17.814 168.057 17.814C168.44 17.8144 168.751 18.1251 168.751 18.5079Z" fill="white"/>
<path d="M153.724 18.0847C153.724 18.2341 153.604 18.3551 153.454 18.3551C153.305 18.3551 153.184 18.2341 153.184 18.0847C153.184 17.9352 153.305 17.8142 153.454 17.8142C153.604 17.8142 153.724 17.9352 153.724 18.0847Z" fill="white"/>
<path d="M159.68 6.26881C159.68 6.60253 159.41 6.87258 159.076 6.87258C158.743 6.87258 158.473 6.60213 158.473 6.26881C158.473 5.9351 158.743 5.66504 159.076 5.66504C159.41 5.66504 159.68 5.93549 159.68 6.26881Z" fill="white"/>
<path d="M162.294 13.6666C162.294 14.2301 161.837 14.6867 161.274 14.6867C160.711 14.6867 160.254 14.2301 160.254 13.6666C160.254 13.1032 160.711 12.6465 161.274 12.6465C161.837 12.6465 162.294 13.1032 162.294 13.6666Z" fill="white"/>
<path d="M168.054 9.79244C168.054 10.119 167.789 10.384 167.463 10.384C167.136 10.384 166.871 10.119 166.871 9.79244C166.871 9.46584 167.136 9.20093 167.463 9.20093C167.79 9.20132 168.054 9.46584 168.054 9.79244Z" fill="white"/>
<path d="M37.7427 12.8658C38.1788 12.8658 38.5323 12.5123 38.5323 12.0762C38.5323 11.6401 38.1788 11.2866 37.7427 11.2866C37.3066 11.2866 36.9531 11.6401 36.9531 12.0762C36.9531 12.5123 37.3066 12.8658 37.7427 12.8658Z" fill="white"/>
<path d="M64.9227 15.7922C64.9227 16.1872 64.6025 16.5075 64.2075 16.5075C63.8125 16.5075 63.4922 16.1872 63.4922 15.7922C63.4922 15.3972 63.8125 15.0769 64.2075 15.0769C64.6025 15.0765 64.9227 15.3968 64.9227 15.7922Z" fill="white"/>
<path d="M17.3914 10.8786C17.3914 11.2542 17.087 11.5587 16.7113 11.5587C16.3357 11.5587 16.0312 11.2542 16.0312 10.8786C16.0312 10.5029 16.3357 10.1985 16.7113 10.1985C17.087 10.1985 17.3914 10.5029 17.3914 10.8786Z" fill="white"/>
<path d="M11.3032 37.6018C11.7727 37.6018 12.1533 37.2212 12.1533 36.7517C12.1533 36.2822 11.7727 35.9016 11.3032 35.9016C10.8337 35.9016 10.4531 36.2822 10.4531 36.7517C10.4531 37.2212 10.8337 37.6018 11.3032 37.6018Z" fill="white"/>
<path d="M5.32168 60.3447C5.32168 60.608 5.10816 60.8219 4.84443 60.8219C4.5811 60.8219 4.36719 60.6084 4.36719 60.3447C4.36719 60.0813 4.5807 59.8674 4.84443 59.8674C5.10816 59.8678 5.32168 60.0813 5.32168 60.3447Z" fill="white"/>
<path d="M29.8822 83.7485C29.8822 84.2878 29.4452 84.7247 28.9059 84.7247C28.3666 84.7247 27.9297 84.2878 27.9297 83.7485C27.9297 83.2095 28.3666 82.7722 28.9059 82.7722C29.4449 82.7722 29.8822 83.2091 29.8822 83.7485Z" fill="white"/>
<path d="M23.7555 83.4544C23.7555 83.6165 23.6239 83.7482 23.4618 83.7482C23.2992 83.7482 23.168 83.6165 23.168 83.4544C23.168 83.2919 23.2996 83.1606 23.4618 83.1606C23.6239 83.1606 23.7555 83.2919 23.7555 83.4544Z" fill="white"/>
<path d="M29.6849 87.7716C29.6849 88.0872 29.4291 88.3426 29.1139 88.3426C28.7984 88.3426 28.543 88.0872 28.543 87.7716C28.543 87.4561 28.7988 87.2007 29.1139 87.2007C29.4294 87.2007 29.6849 87.4561 29.6849 87.7716Z" fill="white"/>
<path d="M6.98477 125.365C6.98477 125.677 6.73093 125.931 6.41817 125.931C6.10541 125.931 5.85156 125.677 5.85156 125.365C5.85156 125.052 6.10541 124.798 6.41817 124.798C6.73093 124.798 6.98477 125.052 6.98477 125.365Z" fill="white"/>
<path d="M17.9445 135.199C18.5158 135.199 18.9789 134.736 18.9789 134.165C18.9789 133.593 18.5158 133.13 17.9445 133.13C17.3733 133.13 16.9102 133.593 16.9102 134.165C16.9102 134.736 17.3733 135.199 17.9445 135.199Z" fill="white"/>
<path d="M12.6292 128.771C13.0694 128.771 13.4263 128.414 13.4263 127.973C13.4263 127.533 13.0694 127.176 12.6292 127.176C12.1889 127.176 11.832 127.533 11.832 127.973C11.832 128.414 12.1889 128.771 12.6292 128.771Z" fill="white"/>
<path d="M167.849 122.27C167.915 122.27 167.968 122.217 167.968 122.151C167.968 122.086 167.915 122.032 167.849 122.032C167.784 122.032 167.73 122.086 167.73 122.151C167.73 122.217 167.784 122.27 167.849 122.27Z" fill="white"/>
<path d="M175.137 118.569C175.921 118.569 176.556 117.934 176.556 117.15C176.556 116.367 175.921 115.731 175.137 115.731C174.354 115.731 173.719 116.367 173.719 117.15C173.719 117.934 174.354 118.569 175.137 118.569Z" fill="white"/>
<path d="M172.902 126.158C173.353 126.158 173.718 125.793 173.718 125.342C173.718 124.892 173.353 124.526 172.902 124.526C172.451 124.526 172.086 124.892 172.086 125.342C172.086 125.793 172.451 126.158 172.902 126.158Z" fill="white"/>
<path d="M165.986 153.811C166.849 153.811 167.549 153.111 167.549 152.247C167.549 151.383 166.849 150.683 165.986 150.683C165.122 150.683 164.422 151.383 164.422 152.247C164.422 153.111 165.122 153.811 165.986 153.811Z" fill="white"/>
<path d="M151.28 155.343C151.28 155.513 151.142 155.651 150.972 155.651C150.802 155.651 150.664 155.513 150.664 155.343C150.664 155.173 150.802 155.035 150.972 155.035C151.142 155.035 151.28 155.173 151.28 155.343Z" fill="white"/>
<path d="M155.609 149.544C155.609 150.027 155.218 150.417 154.736 150.417C154.254 150.417 153.863 150.026 153.863 149.544C153.863 149.062 154.254 148.671 154.736 148.671C155.218 148.671 155.609 149.062 155.609 149.544Z" fill="white"/>
<path d="M133.81 30.5378C133.81 31.1056 133.35 31.5658 132.782 31.5658C132.214 31.5658 131.754 31.1056 131.754 30.5378C131.754 29.97 132.214 29.5098 132.782 29.5098C133.35 29.5102 133.81 29.9704 133.81 30.5378Z" fill="white"/>
<path d="M108.723 7.24775C108.723 7.49567 108.522 7.69692 108.273 7.69692C108.025 7.69692 107.824 7.49567 107.824 7.24775C107.824 6.99984 108.025 6.79858 108.273 6.79858C108.522 6.79858 108.723 6.99984 108.723 7.24775Z" fill="white"/>
<path d="M174.428 54.3201C174.82 54.3201 175.137 54.0025 175.137 53.6107C175.137 53.219 174.82 52.9014 174.428 52.9014C174.036 52.9014 173.719 53.219 173.719 53.6107C173.719 54.0025 174.036 54.3201 174.428 54.3201Z" fill="white"/>
<path d="M159.881 36.6915C159.881 37.5646 159.173 38.2727 158.3 38.2727C157.427 38.2727 156.719 37.565 156.719 36.6915C156.719 35.8185 157.427 35.1104 158.3 35.1104C159.173 35.1107 159.881 35.8185 159.881 36.6915Z" fill="white"/>
<path d="M152.667 38.9691C152.817 38.9691 152.939 38.8473 152.939 38.6971C152.939 38.5468 152.817 38.425 152.667 38.425C152.516 38.425 152.395 38.5468 152.395 38.6971C152.395 38.8473 152.516 38.9691 152.667 38.9691Z" fill="white"/>
<path d="M162.907 34.3379C163.208 34.3379 163.451 34.0943 163.451 33.7938C163.451 33.4933 163.208 33.2498 162.907 33.2498C162.607 33.2498 162.363 33.4933 162.363 33.7938C162.363 34.0943 162.607 34.3379 162.907 34.3379Z" fill="white"/>
<path d="M170.178 51.3733C170.178 51.5433 170.04 51.6809 169.87 51.6809C169.7 51.6809 169.562 51.5433 169.562 51.3733C169.562 51.2033 169.7 51.0657 169.87 51.0657C170.04 51.0657 170.178 51.2033 170.178 51.3733Z" fill="white"/>
<path d="M163.991 72.4834C163.991 72.7463 163.778 72.9594 163.515 72.9594C163.252 72.9594 163.039 72.7463 163.039 72.4834C163.039 72.2204 163.252 72.0073 163.515 72.0073C163.778 72.0073 163.991 72.2204 163.991 72.4834Z" fill="white"/>
<path d="M167.804 78.6723C167.804 79.085 167.469 79.42 167.056 79.42C166.644 79.42 166.309 79.085 166.309 78.6723C166.309 78.2595 166.643 77.9246 167.056 77.9246C167.469 77.9246 167.804 78.2595 167.804 78.6723Z" fill="white"/>
<path d="M26.398 155.918C26.398 156.463 25.9568 156.905 25.4119 156.905C24.8674 156.905 24.4258 156.463 24.4258 155.918C24.4258 155.374 24.867 154.932 25.4119 154.932C25.9564 154.933 26.398 155.374 26.398 155.918Z" fill="white"/>
<path d="M37.6525 164.044C38.5349 164.044 39.2503 163.329 39.2503 162.447C39.2503 161.564 38.5349 160.849 37.6525 160.849C36.77 160.849 36.0547 161.564 36.0547 162.447C36.0547 163.329 36.77 164.044 37.6525 164.044Z" fill="white"/>
<path d="M20.448 159.353C20.448 159.521 20.3112 159.659 20.142 159.659C19.9731 159.659 19.8359 159.522 19.8359 159.353C19.8359 159.183 19.9727 159.047 20.142 159.047C20.3108 159.047 20.448 159.184 20.448 159.353Z" fill="white"/>
<path d="M26.7742 165.235C26.7742 165.61 26.4698 165.915 26.0941 165.915C25.7185 165.915 25.4141 165.61 25.4141 165.235C25.4141 164.859 25.7185 164.555 26.0941 164.555C26.4698 164.555 26.7742 164.859 26.7742 165.235Z" fill="white"/>
<path d="M33.9617 156.939C33.9617 157.314 33.6573 157.619 33.2816 157.619C32.906 157.619 32.6016 157.314 32.6016 156.939C32.6016 156.563 32.906 156.259 33.2816 156.259C33.6573 156.259 33.9617 156.563 33.9617 156.939Z" fill="white"/>
<path d="M132.384 161.251C132.384 161.874 131.879 162.379 131.257 162.379C130.634 162.379 130.129 161.874 130.129 161.251C130.129 160.628 130.634 160.123 131.257 160.123C131.879 160.123 132.384 160.628 132.384 161.251Z" fill="white"/>
<path d="M7.1975 148.443C7.1975 149.154 6.62062 149.731 5.9093 149.731C5.19798 149.731 4.62109 149.154 4.62109 148.443C4.62109 147.731 5.19798 147.155 5.9093 147.155C6.62062 147.155 7.1975 147.731 7.1975 148.443Z" fill="white"/>
<path d="M140.847 10.8562C141.241 10.8562 141.561 10.5364 141.561 10.1421C141.561 9.74769 141.241 9.42798 140.847 9.42798C140.453 9.42798 140.133 9.74769 140.133 10.1421C140.133 10.5364 140.453 10.8562 140.847 10.8562Z" fill="white"/>
</svg>
