<svg width="43" height="51" viewBox="0 0 43 51" fill="none" xmlns="http://www.w3.org/2000/svg">
<path d="M42.5577 28.6534V37.8767C42.5577 45.1332 36.6914 50.9995 29.4349 50.9995V32.0782H13.5994H13.5655C12.9212 32.1121 12.4465 32.0782 11.8361 32.0782C11.6666 32.0782 11.497 32.0782 11.3275 32.0782C5.22383 31.8409 0.476562 26.6528 0.476562 20.5152V13.157C0.476562 5.90044 6.34283 0.0341797 13.5994 0.0341797V18.9554H29.4349H29.5027C30.1131 18.9554 30.5539 18.9554 31.1304 18.9554C36.1489 18.9554 40.4214 22.0072 42.1508 26.2798C42.4221 27.0258 42.5577 27.8396 42.5577 28.6534Z" fill="url(#paint0_linear_2331_4780)"/>
<path d="M13.5642 34.2138V37.876C13.5642 45.1325 7.69794 50.9988 0.441406 50.9988V28.2119C1.22131 29.7378 2.34031 31.0603 3.69668 32.0775C5.69731 33.6035 8.17267 34.519 10.9193 34.519C11.8348 34.519 12.7165 34.3834 13.5642 34.2138Z" fill="url(#paint1_linear_2331_4780)"/>
<path d="M42.5565 0V23.0921C41.7088 21.4644 40.522 20.0402 39.03 18.9552C37.0633 17.531 34.6557 16.6833 32.0108 16.6833C31.1292 16.6833 30.2476 16.785 29.4337 16.9545V13.1567C29.3998 5.90017 35.3 0 42.5565 0Z" fill="url(#paint2_linear_2331_4780)"/>
<path d="M35.5684 9.02051H32.7539V11.835H35.5684V9.02051Z" fill="white"/>
<path d="M40.4863 9.02051H37.6719V11.835H40.4863V9.02051Z" fill="white"/>
<path d="M40.4551 6.78223H37.6406C37.6406 5.22241 38.8953 3.96777 40.4551 3.96777V6.78223Z" fill="white"/>
<defs>
<linearGradient id="paint0_linear_2331_4780" x1="0.445468" y1="25.4965" x2="42.5436" y2="25.4965" gradientUnits="userSpaceOnUse">
<stop stop-color="#4274B9"/>
<stop offset="1" stop-color="#6FC281"/>
</linearGradient>
<linearGradient id="paint1_linear_2331_4780" x1="0.444221" y1="39.5867" x2="13.5738" y2="39.5867" gradientUnits="userSpaceOnUse">
<stop stop-color="#4274B9"/>
<stop offset="1" stop-color="#6FC281"/>
</linearGradient>
<linearGradient id="paint2_linear_2331_4780" x1="29.4128" y1="11.5477" x2="42.5424" y2="11.5477" gradientUnits="userSpaceOnUse">
<stop stop-color="#4274B9"/>
<stop offset="1" stop-color="#6FC281"/>
</linearGradient>
</defs>
</svg>
