<svg width="46" height="46" viewBox="0 0 46 46" fill="none" xmlns="http://www.w3.org/2000/svg">
<path d="M27.3384 32.9675C27.1811 32.8996 27.0471 32.7868 26.9529 32.6431C26.8588 32.4995 26.8086 32.3313 26.8087 32.1593C26.8076 32.0364 26.8316 31.9146 26.8793 31.8015C26.927 31.6883 26.9974 31.5862 27.0861 31.5015C27.1402 31.4497 27.1919 31.3987 27.2307 31.3576C27.505 31.0675 27.7471 30.7483 27.9525 30.4055C28.4928 29.4998 28.7607 28.4565 28.7237 27.4013C28.6868 26.3461 28.3466 25.3243 27.7443 24.459C27.1419 23.5937 26.3032 22.9219 25.3292 22.5248C24.3551 22.1277 23.2875 22.0221 22.2551 22.2209C21.2031 22.4059 20.2308 22.9046 19.4647 23.6521C18.6986 24.3996 18.1741 25.3613 17.9595 26.4122C17.7612 27.3171 17.7949 28.2577 18.0576 29.1459C18.3203 30.0341 18.8033 30.8407 19.4613 31.49C19.5506 31.5751 19.6221 31.6771 19.6716 31.7903C19.721 31.9034 19.7475 32.0253 19.7495 32.1489V32.1535C19.751 32.3269 19.7016 32.4969 19.6074 32.6422C19.5132 32.7875 19.3783 32.9016 19.2198 32.9702C17.0497 33.8731 15.3191 35.5954 14.4005 37.7667C13.7546 39.2538 13.4307 40.8616 13.45 42.4838V43.6527C13.45 43.9034 13.4992 44.1516 13.5947 44.3832C13.6903 44.6148 13.8303 44.8252 14.0068 45.0024C14.1833 45.1796 14.3928 45.3202 14.6234 45.4161C14.854 45.5119 15.1012 45.5612 15.3508 45.5612H31.2119C31.7158 45.5611 32.199 45.3601 32.5553 45.0022C32.9116 44.6443 33.1118 44.1589 33.1118 43.6529V42.4722C33.1311 40.8506 32.8065 39.2435 32.1598 37.7576C31.2394 35.5882 29.5082 33.8682 27.3384 32.9675Z" fill="#E02DC3"/>
<path d="M17.0636 31.7932C16.3498 31.1811 15.5432 30.6873 14.6744 30.3305C14.5171 30.2625 14.3832 30.1498 14.289 30.0061C14.1949 29.8625 14.1447 29.6943 14.1447 29.5223C14.1436 29.3994 14.1677 29.2776 14.2154 29.1644C14.2632 29.0513 14.3336 28.9492 14.4223 28.8645C14.4762 28.8126 14.5281 28.7617 14.5669 28.7205C14.8411 28.4306 15.0831 28.1115 15.2885 27.7689C15.8289 26.8633 16.0969 25.8199 16.06 24.7647C16.0231 23.7095 15.683 22.6876 15.0806 21.8223C14.4783 20.9569 13.6395 20.2852 12.6655 19.888C11.6914 19.4909 10.6238 19.3854 9.59135 19.5842C8.53926 19.7692 7.56694 20.2679 6.80082 21.0154C6.03471 21.7629 5.51026 22.7246 5.29568 23.7755C5.09737 24.6804 5.13113 25.621 5.39381 26.5092C5.65648 27.3974 6.13945 28.204 6.79742 28.8534C6.88674 28.9383 6.95825 29.0404 7.00773 29.1535C7.05721 29.2667 7.08366 29.3886 7.08553 29.5122V29.5169C7.08717 29.6903 7.03776 29.8603 6.94353 30.0056C6.8493 30.1509 6.71443 30.265 6.55586 30.3336C4.38578 31.2365 2.65526 32.9588 1.73655 35.1301C1.09069 36.6171 0.766681 38.2249 0.78597 39.8471V41.0166C0.78596 41.2671 0.835093 41.5153 0.930565 41.7468C1.02604 41.9783 1.16598 42.1887 1.34239 42.3659C1.51881 42.543 1.72825 42.6836 1.95875 42.7795C2.18925 42.8754 2.4363 42.9247 2.68579 42.9247H11.4407V42.4832C11.4189 40.5738 11.8037 38.6819 12.5692 36.934C13.4878 34.7858 15.0615 32.9859 17.0636 31.7932Z" fill="#E02DC3"/>
<path d="M44.831 35.1206C43.9108 32.9513 42.1797 31.2313 40.0101 30.3305C39.8528 30.2625 39.7189 30.1497 39.6248 30.0061C39.5306 29.8625 39.4804 29.6943 39.4804 29.5223C39.4793 29.3994 39.5034 29.2776 39.5511 29.1645C39.5989 29.0513 39.6692 28.9492 39.7579 28.8644C39.812 28.8126 39.8639 28.7616 39.9024 28.7205C40.1768 28.4306 40.4189 28.1115 40.6243 27.7689C41.1647 26.8633 41.4326 25.8199 41.3957 24.7647C41.3588 23.7095 41.0187 22.6876 40.4163 21.8223C39.814 20.9569 38.9752 20.2852 38.0012 19.888C37.0271 19.4909 35.9595 19.3854 34.9271 19.5842C33.875 19.7691 32.9026 20.2678 32.1365 21.0153C31.3704 21.7628 30.846 22.7246 30.6315 23.7755C30.4331 24.6804 30.4668 25.621 30.7295 26.5092C30.9922 27.3974 31.4751 28.204 32.1331 28.8534C32.2225 28.9383 32.2939 29.0404 32.3434 29.1535C32.3929 29.2667 32.4194 29.3886 32.4213 29.5121V29.5169C32.4229 29.6903 32.3735 29.8603 32.2793 30.0056C32.185 30.1509 32.0502 30.265 31.8916 30.3336C31.0249 30.6902 30.2202 31.1831 29.5078 31.7937C31.5066 32.9841 33.0786 34.7799 33.998 36.9234C34.7652 38.6705 35.1509 40.5625 35.129 42.4719V42.9247H43.8831C44.387 42.9247 44.8703 42.7237 45.2266 42.3658C45.5829 42.008 45.7831 41.5226 45.7831 41.0165V39.8352C45.8024 38.2136 45.4779 36.6064 44.831 35.1206Z" fill="#E02DC3"/>
<path d="M13.9808 11.8552L15.7954 12.1972C15.9654 12.2279 16.1244 12.3029 16.2564 12.4147C16.3885 12.5265 16.489 12.6711 16.548 12.8341C16.6308 13.07 16.726 13.3012 16.8331 13.527C16.9059 13.684 16.9364 13.8575 16.9217 14.0301C16.9069 14.2027 16.8473 14.3684 16.7489 14.5107L15.707 16.0406C15.6224 16.1647 15.5837 16.3146 15.5975 16.4643C15.6114 16.614 15.677 16.7542 15.7829 16.8605L16.8902 17.9727C16.9961 18.0791 17.1356 18.145 17.2847 18.1589C17.4338 18.1729 17.583 18.134 17.7066 18.049L19.2298 17.0025C19.3714 16.9036 19.5364 16.8438 19.7082 16.829C19.8801 16.8142 20.0528 16.8449 20.2091 16.918C20.434 17.0255 20.6643 17.121 20.8991 17.2042C21.0614 17.2634 21.2054 17.3644 21.3167 17.497C21.428 17.6297 21.5026 17.7894 21.5332 17.9601L21.8737 19.7827C21.9013 19.9305 21.9794 20.064 22.0947 20.1601C22.2099 20.2561 22.3549 20.3086 22.5046 20.3086H24.0711C24.2208 20.3087 24.3659 20.2561 24.4811 20.1601C24.5963 20.0641 24.6745 19.9306 24.7021 19.7827L25.0426 17.9601C25.0732 17.7894 25.1478 17.6297 25.2591 17.4971C25.3704 17.3644 25.5144 17.2634 25.6767 17.2042C25.9115 17.121 26.1418 17.0254 26.3667 16.9179C26.523 16.8448 26.6957 16.8141 26.8675 16.829C27.0394 16.8438 27.2043 16.9036 27.346 17.0025L28.8692 18.049C28.9928 18.1339 29.142 18.1728 29.2912 18.1588C29.4403 18.1449 29.5798 18.0791 29.6857 17.9727L30.7927 16.8606C30.8987 16.7543 30.9642 16.6142 30.9781 16.4644C30.992 16.3147 30.9533 16.1648 30.8687 16.0407L29.8267 14.5108C29.7283 14.3686 29.6688 14.2029 29.654 14.0303C29.6392 13.8577 29.6698 13.6842 29.7426 13.5272C29.8497 13.3014 29.9448 13.0701 30.0276 12.8343C30.0866 12.6712 30.1871 12.5266 30.3192 12.4148C30.4513 12.3031 30.6102 12.2281 30.7802 12.1974L32.5947 11.8553C32.7419 11.8277 32.8749 11.7492 32.9705 11.6334C33.0661 11.5177 33.1184 11.372 33.1184 11.2216V9.64862C33.1184 9.49823 33.0661 9.35254 32.9705 9.23681C32.8749 9.12108 32.7419 9.04259 32.5947 9.01494L30.7802 8.67296C30.6102 8.64224 30.4513 8.56725 30.3192 8.45548C30.1871 8.34371 30.0866 8.19909 30.0276 8.03606C29.9448 7.80019 29.8497 7.56888 29.7426 7.34311C29.6698 7.18606 29.6392 7.01259 29.654 6.84C29.6688 6.6674 29.7283 6.50171 29.8267 6.35943L30.8687 4.82952C30.9533 4.70541 30.9921 4.55547 30.9782 4.40569C30.9643 4.25591 30.8987 4.11572 30.7927 4.00941L29.6854 2.89731C29.5796 2.79087 29.44 2.72497 29.2909 2.71104C29.1417 2.69711 28.9925 2.73602 28.8689 2.82103L27.3457 3.86757C27.204 3.96641 27.0391 4.02622 26.8672 4.04104C26.6954 4.05585 26.5227 4.02516 26.3664 3.95202C26.1415 3.84453 25.9112 3.74899 25.6764 3.66579C25.5141 3.60657 25.3701 3.50559 25.2588 3.37294C25.1475 3.24029 25.0729 3.08062 25.0423 2.9099L24.7018 1.08716C24.6741 0.939452 24.5959 0.806093 24.4808 0.71012C24.3656 0.614146 24.2207 0.561587 24.0711 0.561524H22.5044C22.3547 0.561454 22.2097 0.61398 22.0944 0.710002C21.9792 0.806025 21.9011 0.939498 21.8735 1.08731L21.5331 2.91005C21.5025 3.08075 21.4278 3.2404 21.3165 3.37304C21.2053 3.50568 21.0613 3.60668 20.899 3.66594C20.6642 3.74909 20.4339 3.84463 20.2091 3.95217C20.0527 4.02531 19.88 4.056 19.7082 4.04118C19.5363 4.02637 19.3713 3.96656 19.2297 3.86772L17.7066 2.82103C17.5831 2.73604 17.4338 2.69713 17.2847 2.71103C17.1356 2.72493 16.9961 2.79078 16.8902 2.89716L15.7828 4.00934C15.6768 4.11564 15.6112 4.25581 15.5973 4.40558C15.5835 4.55535 15.6222 4.70527 15.7068 4.82937L16.7488 6.35928C16.8472 6.50156 16.9067 6.66725 16.9215 6.83985C16.9363 7.01245 16.9057 7.18591 16.8329 7.34296C16.7258 7.56873 16.6307 7.80004 16.5479 8.03591C16.4889 8.19895 16.3884 8.34359 16.2563 8.45536C16.1242 8.56712 15.9653 8.64211 15.7953 8.67281L13.9807 9.01487C13.8335 9.0426 13.7006 9.12111 13.605 9.23682C13.5094 9.35254 13.4571 9.49817 13.457 9.64855V11.2214C13.457 11.3718 13.5093 11.5175 13.605 11.6333C13.7006 11.749 13.8336 11.8275 13.9808 11.8552ZM23.2877 6.77544C24.0084 6.77544 24.7128 6.99007 25.312 7.39219C25.9112 7.7943 26.3782 8.36584 26.654 9.03454C26.9297 9.70323 27.0019 10.439 26.8613 11.1489C26.7207 11.8588 26.3737 12.5109 25.8642 13.0227C25.3546 13.5345 24.7054 13.883 23.9986 14.0243C23.2918 14.1655 22.5592 14.093 21.8935 13.816C21.2277 13.5391 20.6586 13.07 20.2583 12.4682C19.8579 11.8664 19.6442 11.1589 19.6442 10.4351C19.6442 9.46451 20.0281 8.53369 20.7114 7.84738C21.3947 7.16107 22.3214 6.77548 23.2877 6.77544Z" fill="#E02DC3"/>
</svg>
