<svg width="46" height="46" viewBox="0 0 46 46" fill="none" xmlns="http://www.w3.org/2000/svg">
<path d="M35.1985 45.5615H10.6531C10.1192 45.5615 9.6743 45.1846 9.6334 44.6962L7.65646 21.1359C3.59112 20.7028 0.425781 17.5275 0.425781 13.6865C0.425781 9.54371 4.18737 6.04496 8.64033 6.04496C9.57101 6.04496 10.4843 6.2109 11.3362 6.53246C12.7721 2.91371 17.2384 0.561523 22.9258 0.561523C28.2685 0.561523 32.0056 2.54152 34.319 6.6084C35.2261 6.23715 36.209 6.04402 37.2112 6.04402C41.6642 6.04496 45.4258 9.54371 45.4258 13.6865C45.4258 17.5275 42.2604 20.7028 38.1951 21.1359L36.2182 44.6962C36.1773 45.1846 35.7324 45.5615 35.1985 45.5615ZM11.6001 43.6865H34.2504L36.2233 20.1768C36.2652 19.6884 36.7101 19.3115 37.244 19.3115C40.6282 19.3115 43.3803 16.7887 43.3803 13.6865C43.3803 10.2881 40.1291 7.91996 37.2112 7.91996C36.2069 7.91996 35.2691 8.17684 34.4253 8.6859C34.1748 8.83684 33.8618 8.87996 33.5744 8.80121C33.286 8.7234 33.0498 8.53402 32.9281 8.2809C31.0033 4.29371 27.8257 2.43652 22.9258 2.43652C17.6516 2.43652 13.6609 4.70059 12.9951 8.06996C12.9337 8.37934 12.7077 8.63996 12.3917 8.76371C12.0767 8.88934 11.7136 8.85934 11.4273 8.6859C10.5835 8.17684 9.64567 7.91996 8.64135 7.91996C5.72249 7.91996 2.47124 10.2881 2.47124 13.6865C2.47124 16.7887 5.22339 19.3115 8.6076 19.3115C9.14146 19.3115 9.58635 19.6884 9.62726 20.1768L11.6001 43.6865Z" fill="url(#paint0_linear_1353_21316)"/>
<path d="M35.831 38.0625H10.0071C9.44256 38.0625 8.98438 37.6434 8.98438 37.125C8.98438 36.6066 9.44256 36.1875 10.0071 36.1875H35.831C36.3955 36.1875 36.8537 36.6066 36.8537 37.125C36.8537 37.6434 36.3955 38.0625 35.831 38.0625Z" fill="url(#paint1_linear_1353_21316)"/>
<path d="M17.8079 38.0615C17.2433 38.0615 16.7852 37.6425 16.7852 37.124V29.624C16.7852 29.1056 17.2433 28.6865 17.8079 28.6865C18.3724 28.6865 18.8306 29.1056 18.8306 29.624V37.124C18.8306 37.6425 18.3724 38.0615 17.8079 38.0615Z" fill="url(#paint2_linear_1353_21316)"/>
<path d="M22.9251 38.0605C22.3605 38.0605 21.9023 37.6415 21.9023 37.123V27.748C21.9023 27.2296 22.3605 26.8105 22.9251 26.8105C23.4896 26.8105 23.9478 27.2296 23.9478 27.748V37.123C23.9478 37.6415 23.4896 38.0605 22.9251 38.0605Z" fill="url(#paint3_linear_1353_21316)"/>
<path d="M28.0462 38.0615C27.4816 38.0615 27.0234 37.6425 27.0234 37.124V29.624C27.0234 29.1056 27.4816 28.6865 28.0462 28.6865C28.6107 28.6865 29.0689 29.1056 29.0689 29.624V37.124C29.0689 37.6425 28.6107 38.0615 28.0462 38.0615Z" fill="url(#paint4_linear_1353_21316)"/>
<defs>
<linearGradient id="paint0_linear_1353_21316" x1="45.4258" y1="23.0615" x2="0.425783" y2="23.0615" gradientUnits="userSpaceOnUse">
<stop offset="0.05" stop-color="#F9F9FD"/>
<stop offset="0.43" stop-color="#E5E7F2"/>
<stop offset="0.86" stop-color="#37323C" stop-opacity="0.6"/>
</linearGradient>
<linearGradient id="paint1_linear_1353_21316" x1="36.8537" y1="37.125" x2="8.98438" y2="37.125" gradientUnits="userSpaceOnUse">
<stop offset="0.05" stop-color="#F9F9FD"/>
<stop offset="0.43" stop-color="#E5E7F2"/>
<stop offset="0.86" stop-color="#37323C" stop-opacity="0.6"/>
</linearGradient>
<linearGradient id="paint2_linear_1353_21316" x1="18.8306" y1="33.374" x2="16.7852" y2="33.374" gradientUnits="userSpaceOnUse">
<stop offset="0.05" stop-color="#F9F9FD"/>
<stop offset="0.43" stop-color="#E5E7F2"/>
<stop offset="0.86" stop-color="#37323C" stop-opacity="0.6"/>
</linearGradient>
<linearGradient id="paint3_linear_1353_21316" x1="23.9478" y1="32.4355" x2="21.9023" y2="32.4355" gradientUnits="userSpaceOnUse">
<stop offset="0.05" stop-color="#F9F9FD"/>
<stop offset="0.43" stop-color="#E5E7F2"/>
<stop offset="0.86" stop-color="#37323C" stop-opacity="0.6"/>
</linearGradient>
<linearGradient id="paint4_linear_1353_21316" x1="29.0689" y1="33.374" x2="27.0234" y2="33.374" gradientUnits="userSpaceOnUse">
<stop offset="0.05" stop-color="#F9F9FD"/>
<stop offset="0.43" stop-color="#E5E7F2"/>
<stop offset="0.86" stop-color="#37323C" stop-opacity="0.6"/>
</linearGradient>
</defs>
</svg>
