<svg width="58" height="57" viewBox="0 0 58 57" fill="none" xmlns="http://www.w3.org/2000/svg">
<rect x="0.5" y="0.561523" width="57" height="56" rx="10" fill="#028AE6"/>
<path d="M33.16 12.5615C31.2881 12.5638 29.4433 13.0083 27.776 13.8589C26.1088 14.7094 24.6664 15.9418 23.5665 17.4556C22.4666 18.9694 21.7405 20.7216 21.4472 22.5693C21.154 24.417 21.3021 26.3078 21.8793 28.0875L13.341 36.606C13.1207 36.8317 12.9982 37.1351 13 37.4504V43.3763C13 43.6907 13.125 43.9921 13.3474 44.2144C13.5698 44.4367 13.8714 44.5615 14.1859 44.5615H20.1153C20.4298 44.5615 20.7314 44.4367 20.9538 44.2144C21.1762 43.9921 21.3012 43.6907 21.3012 43.3763V41.006H23.6729C23.9875 41.006 24.2891 40.8811 24.5115 40.6588C24.7339 40.4366 24.8588 40.1351 24.8588 39.8208V37.4504H27.2306C27.5461 37.4522 27.8496 37.3298 28.0755 37.1097L29.4837 35.6875C31.1133 36.2155 32.8381 36.3844 34.5392 36.1826C36.2404 35.9807 37.8776 35.4129 39.3382 34.5182C40.7988 33.6236 42.0481 32.4232 43.0001 30.9999C43.9522 29.5765 44.5843 27.9639 44.8531 26.273C45.1219 24.5821 45.0209 22.853 44.5572 21.2049C44.0934 19.5567 43.2779 18.0285 42.1666 16.7255C41.0554 15.4224 39.6749 14.3755 38.1201 13.6567C36.5653 12.9379 34.8731 12.5642 33.16 12.5615ZM36.1247 23.8208C35.6556 23.8208 35.197 23.6818 34.807 23.4213C34.417 23.1608 34.113 22.7906 33.9335 22.3575C33.7539 21.9244 33.707 21.4478 33.7985 20.988C33.89 20.5282 34.1159 20.1058 34.4476 19.7743C34.7793 19.4428 35.2019 19.217 35.662 19.1256C36.122 19.0341 36.5989 19.0811 37.0323 19.2605C37.4657 19.4399 37.8361 19.7437 38.0967 20.1335C38.3573 20.5233 38.4964 20.9816 38.4964 21.4504C38.4964 22.0791 38.2465 22.682 37.8018 23.1265C37.357 23.571 36.7537 23.8208 36.1247 23.8208Z" fill="black"/>
</svg>
