<svg width="41" height="40" viewBox="0 0 41 40" fill="none" xmlns="http://www.w3.org/2000/svg">
<path d="M37.6547 7.52925L33.6521 6.33105L28.0341 16.0673C27.806 16.464 27.4988 16.7932 27.1377 17.0277C26.7766 17.2622 26.372 17.3954 25.957 17.4163L28.1924 33.7238C28.2564 34.193 28.2229 34.6728 28.0946 35.1245C27.9663 35.5761 27.7468 35.9869 27.4539 36.3237L26.8473 37.0169H40.4241V11.6287C40.4258 10.6911 40.1546 9.77951 39.6533 9.03735C39.1519 8.2952 38.4488 7.76466 37.6547 7.52925Z" fill="#E02DC3"/>
<path d="M15.3331 17.4163C14.9182 17.3954 14.5135 17.2622 14.1524 17.0277C13.7913 16.7932 13.484 16.464 13.256 16.0673L7.63794 6.33105L3.63542 7.52925C2.84057 7.7643 2.13659 8.29452 1.63409 9.03656C1.1316 9.77861 0.859088 10.6904 0.859375 11.6287V37.0169H14.4363L13.8297 36.3237C13.5368 35.9869 13.3173 35.5761 13.1889 35.1245C13.0606 34.6728 13.0271 34.193 13.0911 33.7238L15.3331 17.4163Z" fill="#E02DC3"/>
<path d="M23.2783 15.5396L20.6408 11.4854L18.0032 15.5472L18.168 16.1952L15.6953 34.1908L20.6408 39.8427L25.5862 34.1908L23.1135 16.1952L23.2783 15.5396Z" fill="#E02DC3"/>
<path d="M30.1783 0.279297L20.6406 6.43575L25.8289 14.409L31.7679 4.1145L30.1783 0.279297Z" fill="#E02DC3"/>
<path d="M9.51953 4.1145L15.4585 14.409L20.6468 6.43575L11.1092 0.279297L9.51953 4.1145Z" fill="#E02DC3"/>
</svg>
