<svg width="61" height="53" viewBox="0 0 61 53" fill="none" xmlns="http://www.w3.org/2000/svg">
<path d="M10.9326 52.5465H31.4352V28.1655H3.11719C4.35155 33.9615 6.09008 42.1748 6.87309 46.0891C7.50097 49.2218 8.96266 51.2486 10.9326 52.5465Z" fill="#C1690A"/>
<path d="M49.6185 52.5465C51.5891 51.2486 53.0508 49.2212 53.678 46.0891C54.461 42.1748 56.2002 33.9615 57.4326 28.1655H31.4375V52.5465H49.6185Z" fill="#DD7C07"/>
<mask id="mask0_493_4622" style="mask-type:luminance" maskUnits="userSpaceOnUse" x="0" y="0" width="61" height="39">
<path d="M31.437 0.186063C16.9697 0.170015 0.389463 7.7955 0.131358 23.5192C-0.107356 37.9858 17.1342 39.2904 31.437 38.924C45.7404 39.2904 60.6597 37.9858 60.421 23.5192C60.1616 7.7955 45.9043 0.169346 31.437 0.186063Z" fill="white"/>
</mask>
<g mask="url(#mask0_493_4622)">
<path d="M31.437 0.186063C16.9697 0.170015 0.389463 7.7955 0.131358 23.5192C-0.107356 37.9858 17.1342 39.2904 31.437 38.924C45.7404 39.2904 60.6597 37.9858 60.421 23.5192C60.1616 7.7955 45.9043 0.169346 31.437 0.186063Z" fill="#CB7A3A"/>
</g>
<mask id="mask1_493_4622" style="mask-type:luminance" maskUnits="userSpaceOnUse" x="0" y="0" width="61" height="39">
<path d="M31.437 0.186063C16.9697 0.170015 0.389463 7.7955 0.131358 23.5192C-0.107356 37.9858 17.1342 39.2904 31.437 38.924C45.7404 39.2904 60.6597 37.9858 60.421 23.5192C60.1616 7.7955 45.9043 0.169346 31.437 0.186063Z" fill="white"/>
</mask>
<g mask="url(#mask1_493_4622)">
<path d="M31.437 0.18606C16.9697 0.170012 0.389463 7.7955 0.131358 23.5192C-0.107356 37.9858 17.1342 39.2904 31.437 38.9239V0.18606Z" fill="#DD7C07"/>
<path d="M31.4375 0.18606C45.9054 0.170012 60.1621 7.7955 60.4215 23.5192C60.6602 37.9858 45.7409 39.2904 31.4375 38.9239V0.18606Z" fill="#F79100"/>
</g>
</svg>
