<svg width="288" height="209" viewBox="0 0 288 209" fill="none" xmlns="http://www.w3.org/2000/svg">
<path fill-rule="evenodd" clip-rule="evenodd" d="M228.558 40.5769C246.55 40.5769 261.137 43.9135 261.137 48.0305C261.137 52.1468 246.55 55.4841 228.558 55.4841C210.566 55.4841 195.98 52.1475 195.98 48.0305C195.98 43.9142 210.566 40.5769 228.558 40.5769Z" fill="#C2C7D8"/>
<path fill-rule="evenodd" clip-rule="evenodd" d="M258.487 50.9812C253.491 53.6305 241.975 55.4843 228.564 55.4843C215.153 55.4843 203.637 53.6305 198.641 50.9812C203.637 48.3342 215.153 46.4796 228.564 46.4796C241.975 46.4789 253.491 48.3334 258.487 50.9812Z" fill="#B8BDCA"/>
<path fill-rule="evenodd" clip-rule="evenodd" d="M272.112 61.3025C271.648 62.0402 271.14 62.7335 270.594 63.3817L240.203 44.3095C240.551 43.535 240.953 42.7756 241.415 42.0372C246.735 33.5614 257.92 31.0015 266.396 36.3218C274.873 41.6414 277.433 52.8267 272.112 61.3025Z" fill="#829E32"/>
<path fill-rule="evenodd" clip-rule="evenodd" d="M271.274 62.6411C271.097 62.9221 270.914 63.1955 270.726 63.4636L240.074 44.2269C240.232 43.94 240.401 43.6568 240.576 43.3758C245.896 34.8992 257.08 32.3408 265.557 37.6604C274.035 42.98 276.595 54.1645 271.274 62.6411Z" fill="#9BBC37"/>
<path fill-rule="evenodd" clip-rule="evenodd" d="M270.396 62.092C275.414 54.0984 273.001 43.5516 265.006 38.5354C257.014 33.5178 246.466 35.9305 241.45 43.9249C241.274 44.2058 241.107 44.4912 240.949 44.7774L269.846 62.9145C270.036 62.6471 270.22 62.373 270.396 62.092Z" fill="#E4E79A"/>
<path fill-rule="evenodd" clip-rule="evenodd" d="M269.951 51.4076L257.468 53.1946C257.276 53.2216 257.145 53.3493 257.127 53.5288C257.109 53.7084 257.205 53.8886 257.381 53.9983L268.761 61.1034C268.88 61.1792 269.007 61.2055 269.137 61.1853C269.267 61.165 269.363 61.1019 269.424 60.9982C270.989 58.3069 271.388 55.0717 270.563 51.8117C270.531 51.684 270.453 51.5789 270.333 51.4985C270.211 51.4189 270.084 51.3889 269.951 51.4076Z" fill="#A9C345"/>
<path fill-rule="evenodd" clip-rule="evenodd" d="M262.631 42.0884L256.625 51.5979C256.531 51.7466 256.551 51.9366 256.678 52.0959C256.805 52.2544 257.003 52.3355 257.195 52.3077L269.667 50.5215C269.8 50.5034 269.899 50.4396 269.961 50.3329C270.021 50.2255 270.027 50.1068 269.976 49.9814C268.711 46.8033 266.36 43.9948 263.294 42.0005C263.177 41.9231 263.052 41.8931 262.922 41.9104C262.792 41.9284 262.695 41.9877 262.631 42.0884Z" fill="#A9C345"/>
<path fill-rule="evenodd" clip-rule="evenodd" d="M251.327 39.7156L254.876 50.8648C254.934 51.0481 255.092 51.1886 255.292 51.2329C255.492 51.2787 255.673 51.2141 255.767 51.0654L261.731 41.6183C261.799 41.5116 261.808 41.3907 261.759 41.2607C261.71 41.1315 261.616 41.0301 261.483 40.964C258.347 39.3881 254.894 38.7744 251.655 39.2048C251.525 39.2221 251.428 39.2807 251.364 39.3799C251.301 39.479 251.287 39.5924 251.327 39.7156Z" fill="#A9C345"/>
<path fill-rule="evenodd" clip-rule="evenodd" d="M243.015 45.0237L253.265 51.4234C253.442 51.5338 253.646 51.5428 253.799 51.4474C253.954 51.352 254.013 51.1808 253.956 50.9968L250.439 39.9459C250.397 39.813 250.307 39.7078 250.177 39.6357C250.046 39.5629 249.911 39.5433 249.779 39.5794C246.843 40.3733 244.418 42.0491 242.822 44.3859C242.755 44.4843 242.741 44.5985 242.777 44.7232C242.815 44.8486 242.895 44.9493 243.015 45.0237Z" fill="#A9C345"/>
<path fill-rule="evenodd" clip-rule="evenodd" d="M257.692 41.9666C257.405 42.9694 255.423 49.6831 255.67 49.7327C255.914 49.783 258.296 43.1489 258.581 42.1476C259.019 40.616 258.13 40.435 257.692 41.9666Z" fill="#97B636"/>
<path fill-rule="evenodd" clip-rule="evenodd" d="M254.434 41.673C254.478 42.7141 254.72 49.7087 254.968 49.6794C255.218 49.6494 255.378 42.6037 255.334 41.5626C255.264 39.9716 254.364 40.0806 254.434 41.673Z" fill="#97B636"/>
<path fill-rule="evenodd" clip-rule="evenodd" d="M265.045 47.1664C264.158 47.711 258.168 51.3315 258.315 51.5335C258.461 51.7363 264.693 48.4433 265.58 47.8987C266.937 47.0635 266.401 46.3288 265.045 47.1664Z" fill="#97B636"/>
<path fill-rule="evenodd" clip-rule="evenodd" d="M262.841 44.7498C262.171 45.5467 257.632 50.8761 257.835 51.0218C258.039 51.1668 262.909 46.0748 263.579 45.2771C264.603 44.0542 263.865 43.5284 262.841 44.7498Z" fill="#97B636"/>
<path fill-rule="evenodd" clip-rule="evenodd" d="M267.121 57.3939C266.145 57.0318 259.605 54.5358 259.536 54.7769C259.465 55.018 265.896 57.9039 266.871 58.2674C268.366 58.8225 268.615 57.9497 267.121 57.3939Z" fill="#97B636"/>
<path fill-rule="evenodd" clip-rule="evenodd" d="M267.677 54.1684C266.636 54.1316 259.641 53.8319 259.652 54.082C259.663 54.3329 266.676 55.0382 267.716 55.0735C269.309 55.1291 269.269 54.2224 267.677 54.1684Z" fill="#97B636"/>
<path fill-rule="evenodd" clip-rule="evenodd" d="M246.567 44.5786C247.34 45.2764 252.576 49.9237 252.393 50.0965C252.212 50.2685 246.681 45.9006 245.908 45.202C244.726 44.1354 245.385 43.5104 246.567 44.5786Z" fill="#97B636"/>
<path fill-rule="evenodd" clip-rule="evenodd" d="M249.179 42.6038C249.693 43.5097 253.189 49.5744 252.961 49.6803C252.734 49.7862 248.869 43.8935 248.356 42.9876C247.572 41.6003 248.395 41.2172 249.179 42.6038Z" fill="#97B636"/>
<path fill-rule="evenodd" clip-rule="evenodd" d="M260.527 48.4385C259.632 49.1799 258.433 50.4711 258.626 50.6724C258.822 50.8722 260.337 49.9085 261.232 49.1648C262.601 48.0299 261.895 47.302 260.527 48.4385Z" fill="#E4E79A"/>
<path fill-rule="evenodd" clip-rule="evenodd" d="M262.508 54.7874C261.404 54.4253 259.671 54.0956 259.608 54.3667C259.54 54.6387 261.164 55.4086 262.269 55.7706C263.958 56.3242 264.197 55.3402 262.508 54.7874Z" fill="#E4E79A"/>
<path fill-rule="evenodd" clip-rule="evenodd" d="M255.219 45.6689C255.069 46.8226 255.064 48.5841 255.344 48.5976C255.624 48.6134 256.08 46.8752 256.231 45.7222C256.463 43.96 255.452 43.9075 255.219 45.6689Z" fill="#E4E79A"/>
<path fill-rule="evenodd" clip-rule="evenodd" d="M250.533 46.8289C251.366 47.6416 252.456 49.0237 252.245 49.2085C252.036 49.3925 250.602 48.3079 249.771 47.4967C248.499 46.2528 249.262 45.5857 250.533 46.8289Z" fill="#E4E79A"/>
<path fill-rule="evenodd" clip-rule="evenodd" d="M252.342 147.534C252.342 151.65 241.695 154.987 228.562 154.987C215.429 154.987 204.782 151.651 204.782 147.534L196.008 48.3054C196.64 52.2947 210.971 55.4848 228.562 55.4848C246.15 55.4848 260.482 52.2955 261.115 48.3062L252.342 147.534Z" fill="#C2C7D8"/>
<path fill-rule="evenodd" clip-rule="evenodd" d="M204.846 148.083C204.804 147.902 204.782 147.718 204.782 147.534L196.008 48.3054C196.64 52.2947 210.971 55.4848 228.562 55.4848C241.001 55.4848 251.809 53.8894 257.296 51.5451L249.096 144.288V144.289C249.096 148.405 238.45 151.743 225.315 151.743C216.604 151.742 208.988 150.272 204.846 148.083Z" fill="#E3E5EF"/>
<path fill-rule="evenodd" clip-rule="evenodd" d="M237.476 43.0301C236.558 38.4391 235.589 35.4293 233.498 35.1235C231.406 34.8171 227.938 37.0622 225.948 37.368C223.958 37.6744 225.234 34.9695 227.172 34.5106C229.111 34.0517 229.111 34.0517 229.111 34.0517C229.111 34.0517 222.734 31.3994 221.253 28.6442C219.774 25.8897 221.05 26.0422 222.988 26.8587C224.927 27.676 225.131 27.676 225.131 27.676C225.131 27.676 221.152 23.5943 221.406 20.5334C221.662 17.4724 224.264 15.7884 226.101 18.9522C227.937 22.1153 227.376 21.757 228.14 20.7887C228.907 19.819 229.213 20.8383 229.416 23.2375C229.621 25.6351 232.886 29.8182 232.886 29.8182C232.886 29.8182 230.997 26.1962 231.661 24.3086C232.324 22.421 233.344 24.7675 233.344 24.7675C233.344 24.7675 233.6 23.4928 234.618 24.2575C235.638 25.0229 233.753 27.2666 235.793 29.1039C237.833 30.9397 237.936 35.8882 237.884 39.1023C237.834 42.3157 237.476 43.0301 237.476 43.0301Z" fill="#4B6324"/>
<path fill-rule="evenodd" clip-rule="evenodd" d="M236.356 33.5035C233.405 25.0937 230.602 20.9617 230.896 19.4128C231.192 17.8632 232.519 19.1912 233.036 20.0768C233.552 20.9617 232.888 19.5601 233.256 16.9784C233.627 14.3959 234.88 14.8391 235.471 16.6095C236.06 18.38 234.069 11.0766 236.502 10.2654C238.938 9.45417 239.453 16.1671 239.822 19.5608C240.192 22.9545 241.964 16.5359 242.7 18.2328C243.437 19.9296 240.929 27.233 240.929 27.233L237.61 41.2493L236.356 33.5035Z" fill="#4B6324"/>
<path fill-rule="evenodd" clip-rule="evenodd" d="M238.648 33.4389C238.751 30.2255 241.558 25.7877 241.454 22.4707C241.352 19.1551 238.445 16.7064 238.802 14.6648C239.159 12.624 242.169 16.3999 241.454 14.1555C240.74 11.9104 240.588 8.74807 242.015 10.0235C243.444 11.2975 244.362 14.5634 244.516 12.4197C244.669 10.2782 242.679 7.36972 244.006 7.87975C245.332 8.39052 245.332 8.39052 244.718 5.99213C244.107 3.59523 245.382 4.25698 245.892 4.81959C246.402 5.37994 245.637 2.93121 247.628 2.52334C249.618 2.11547 249.26 -0.0786105 250.23 1.40114C251.198 2.88089 249.77 7.36971 249.463 8.84946C249.157 10.3292 250.586 7.26831 250.892 8.44159C251.197 9.61563 248.648 16.1446 247.373 18.7465C246.098 21.3477 245.739 21.8577 245.739 21.8577C245.739 21.8577 248.954 19.0004 249.72 16.8589C250.484 14.7159 251.403 13.2361 251.657 14.8699C251.913 16.5014 253.035 16.451 253.086 13.4412C253.136 10.4314 254.463 10.6357 254.616 11.3493C254.77 12.0636 255.433 9.10561 255.483 6.91077C255.534 4.71743 257.319 5.68716 257.42 6.09503C257.523 6.5029 259.31 2.21837 260.585 3.44274C261.859 4.66635 261.248 6.29934 261.248 6.29934C261.248 6.29934 263.544 3.23918 263.952 4.82033C264.36 6.40149 263.342 8.64666 263.342 8.64666C263.342 8.64666 263.901 12.6247 263.443 13.4923C262.983 14.3591 261.198 17.574 261.198 17.574C261.198 17.574 257.984 19.5112 255.994 20.2774C254.006 21.042 247.884 22.4196 244.056 26.0927C240.23 29.7658 238.648 33.4389 238.648 33.4389Z" fill="#4B6324"/>
<path fill-rule="evenodd" clip-rule="evenodd" d="M240.19 29.8147C242.33 23.397 252.51 18.9705 258.337 19.9297C264.166 20.8882 261.289 20.9618 259.075 21.4793C256.862 21.9961 263.353 20.7409 264.018 23.3977C264.682 26.0523 263.649 24.6514 262.1 23.913C260.55 23.1754 258.042 23.6922 258.707 23.9874C259.37 24.2826 261.067 25.1682 260.625 25.9794C260.181 26.7907 249.411 29.8891 246.68 32.9876C243.951 36.0853 237.901 43.4623 237.901 43.4623C237.901 43.4623 236.871 38.1509 240.19 29.8147Z" fill="#5B782B"/>
<path fill-rule="evenodd" clip-rule="evenodd" d="M238.576 44.9435C242.963 38.7714 246.076 36.6794 249.698 36.3219C253.321 35.9651 251.994 34.1286 249.748 34.384C247.505 34.6393 248.372 32.7517 250.31 32.5992C252.249 32.446 254.034 34.3839 254.136 33.1093C254.237 31.8338 251.534 31.4259 251.534 31.4259C251.534 31.4259 254.162 30.2008 255.819 32.3439C257.477 34.4861 258.318 33.6959 258.166 32.7525C258.013 31.8083 257.425 31.2727 257.425 31.2727C257.425 31.2727 259.619 30.5081 261.38 32.1914C263.141 33.8739 263.702 32.8035 263.141 31.8856C262.58 30.967 260.769 29.7163 260.769 29.7163C260.769 29.7163 261.917 29.0531 260.922 28.3395C259.927 27.6252 258.523 27.4975 258.523 27.4975C258.523 27.4975 260.539 26.6051 260.233 26.1199C259.927 25.6354 257.02 25.024 252.224 26.5277C247.429 28.0338 244.801 32.3957 243.143 35.0735C241.486 37.7513 240.771 39.5368 239.673 40.6853C238.577 41.8323 238.577 41.8323 238.577 41.8323C238.577 41.8323 236.791 35.226 241.536 29.5128C246.28 23.7988 249.494 22.4731 256.126 20.6365C262.758 18.8 270.461 20.1265 275.308 21.3509C280.153 22.5752 277.424 19.7697 277.424 19.7697C277.424 19.7697 280.663 20.8408 281.734 20.152C282.806 19.4632 280.077 18.4702 280.077 18.4702C280.077 18.4702 284.592 18.5468 283.673 17.6274C282.755 16.7096 278.546 16.2754 278.367 16.2754C278.19 16.2754 287.116 13.1897 287.423 11.6078C287.728 10.0266 281.249 12.4235 279.107 13.24C276.965 14.0565 279.516 11.7603 279.924 9.51661C280.332 7.27219 276.965 10.0274 276.965 10.0274C276.965 10.0274 277.475 8.75119 276.199 8.64904C274.924 8.54688 270.435 16.0974 270.69 15.1787C270.945 14.2601 271.811 11.9646 270.996 12.3214C270.18 12.6789 269.516 15.4852 266.404 16.5563C263.292 17.6275 262.68 17.6274 262.68 17.6274C262.68 17.6274 266.863 15.4341 267.987 13.2919C269.108 11.1488 266.15 12.3725 266.15 12.3725C266.15 12.3725 269.16 4.87379 268.701 4.00622C268.242 3.14016 264.058 9.77199 264.058 9.77199C264.058 9.77199 264.874 5.84352 263.905 5.79169C262.937 5.74136 262.58 8.24117 262.528 8.64904C262.477 9.05766 261.303 12.4754 260.639 13.1386C259.978 13.8019 259.671 8.54765 258.396 7.98729C257.121 7.42544 258.753 13.5465 258.753 13.5465C258.753 13.5465 256.611 10.8431 255.998 12.5775C255.387 14.3127 256.967 15.5874 257.017 17.8843C257.069 20.1791 252.885 20.4345 248.805 22.0156C244.723 23.5968 240.693 28.036 238.96 32.2192C237.225 36.4015 237.786 39.1064 237.021 43.6966C236.255 48.2883 233.145 52.6247 232.685 56.6546C232.227 60.6845 232.379 62.675 233.552 62.3175C234.724 61.9569 233.756 52.9785 238.576 44.9435Z" fill="#5B782B"/>
<path fill-rule="evenodd" clip-rule="evenodd" d="M248.988 141.054C248.988 144.591 239.839 147.458 228.555 147.458C217.271 147.458 208.123 144.591 208.123 141.054C208.123 141.054 207.121 122.542 201.496 59.0107C202.639 62.155 214.366 64.6271 228.666 64.6271C243.055 64.6271 254.839 62.1235 255.856 58.9514L248.988 141.054Z" fill="#AE3116"/>
<path fill-rule="evenodd" clip-rule="evenodd" d="M248.995 141.055C248.995 144.591 239.847 147.458 228.563 147.458C217.278 147.458 208.131 144.591 208.131 141.055C208.131 141.055 207.868 136.208 206.859 122.977C233.068 125.958 244.776 116.644 252.17 103.114L248.995 141.055Z" fill="#A42F15"/>
<path fill-rule="evenodd" clip-rule="evenodd" d="M224.951 65.8998C226.164 66.5751 228.514 69.6255 230.074 72.1057C231.635 74.5853 231.726 75.5009 231.726 75.5009L229.756 80.2338L228.832 83.5201C228.832 83.5201 231.166 82.8546 231.572 82.4985C231.98 82.1425 238.987 78.7481 239.59 78.8833C240.193 79.0193 247.38 82.5106 248.382 83.6861C249.385 84.8609 249.461 86.418 249.467 86.8229C249.474 87.2292 248.911 95.28 248.529 96.1543C248.147 97.0302 246.445 97.8271 243.022 99.4819C239.599 101.137 238.474 102.277 238.183 102.265C237.89 102.254 237.108 102.264 236.628 101.993C236.149 101.72 234.75 101.336 234.75 101.336L233.717 105.569C233.717 105.569 235.34 103.739 237.404 103.931C239.47 104.12 244.971 105.094 245.79 105.312C246.611 105.529 248.521 106.935 248.939 108.814C249.358 110.693 250.452 116.589 250.37 117.343C250.288 118.096 250.206 118.575 248.983 119.555C247.761 120.536 243.271 125.413 243.271 125.413L241.546 126.243C241.546 126.243 241.697 134.76 241.202 135.652C240.707 136.546 233.674 142.674 230.961 142.064C228.248 141.455 221.744 137.506 221.162 135.332C220.58 133.16 220.863 128.059 220.863 128.059C220.863 128.059 213.662 129.161 212.151 127.719C210.641 126.276 209.394 123.224 208.492 120.87C207.591 118.517 207.23 117.005 207.23 117.005L212.308 108.113C212.308 108.113 213.589 106.685 214.438 106.549C215.289 106.413 216.423 105.881 216.423 105.881C216.423 105.881 213.258 101.742 213.452 100.781C213.647 99.8199 215.723 91.2351 216.873 90.4396C218.023 89.6442 218.847 89.1634 218.847 89.1634C218.847 89.1634 219.194 88.6144 218.844 88.6121C218.496 88.6098 216.676 90.1234 214.86 87.8587C213.042 85.594 208.042 80.8798 208.685 78.7421C209.328 76.6043 212.228 68.4402 212.805 68.0563C213.382 67.6725 215.836 66.6667 217.841 66.3152C219.847 65.9644 222.573 65.2057 223.11 65.2944C223.647 65.3823 224.951 65.8998 224.951 65.8998Z" fill="#9B2E13"/>
<path fill-rule="evenodd" clip-rule="evenodd" d="M250.031 118.565C250.511 117.882 250.496 117.656 250.436 116.77C250.08 114.513 249.647 108.827 248.317 107C246.602 104.643 243.902 104.705 241.409 104.213L237.433 103.431C236.515 103.328 236.298 103.328 235.601 103.686C235.531 103.694 235.464 103.724 235.398 103.775C235.184 103.941 228.943 109.57 227.915 111.195C227.451 111.634 227.224 112.368 227.39 113.535C227.574 114.842 228.703 121.439 229.353 122.613C230.06 123.888 231.072 124.674 232.495 124.953C231.176 124.432 230.272 123.782 229.609 122.477C229.053 121.384 228.053 114.659 227.907 113.442C227.836 112.854 227.839 112.296 228.193 111.798C229.265 110.289 233.498 111.924 234.033 112.03C236.695 112.553 239.491 112.428 240.907 115.039C241.481 116.095 242.615 122.784 242.784 123.982C242.952 125.157 242.582 126.266 241.252 126.331C240.936 126.347 233.113 125.048 232.494 124.954C234.043 125.304 240.499 127.009 241.833 126.681C242.257 126.578 242.576 126.364 242.808 126.085C243.611 125.283 249.835 119.048 250.031 118.59C245.226 123.001 247.106 121.237 243.291 124.878C243.333 124.554 243.329 124.218 243.291 123.891C243.187 123.048 242.054 116.144 241.792 115.383C240.568 111.84 237.286 111.933 234.158 111.367C233.011 111.161 231.129 110.57 229.633 110.618C233.071 107.245 231.45 108.846 235.869 104.435C238.389 103.884 236.603 103.998 241.375 104.858C248.378 106.119 248.097 105.866 249.461 112.879C249.826 114.759 250.68 116.842 250.031 118.565L250.037 118.578C250.038 118.572 250.037 118.566 250.031 118.565ZM250.031 118.59C250.034 118.586 250.034 118.582 250.037 118.578C250.037 118.582 250.038 118.583 250.04 118.585L250.031 118.59ZM250.04 118.585L250.046 118.579L250.047 118.598L250.04 118.585Z" fill="#89260F"/>
<path fill-rule="evenodd" clip-rule="evenodd" d="M241.794 124.741C242.021 127.623 242.262 134.104 241.797 135.366L241.871 135.313C241.577 136.268 241.44 136.413 240.619 137.087C238.615 138.483 234.3 142.096 231.894 142.434C228.85 142.861 226.953 140.744 224.825 139.176L221.577 136.776C221.047 136.312 220.74 135.726 220.683 135.068C220.558 133.636 220.492 127.649 220.678 124.82C220.307 122.669 224.179 120.938 225.315 120.202C227.893 118.526 230.697 115.933 233.784 118.159C235.135 119.039 240.828 122.457 241.535 123.675C241.745 124.038 241.821 124.394 241.794 124.741ZM221.13 125.783C221.432 130.55 221.361 128.795 221.448 133.531C221.502 136.4 223.209 136.603 225.66 138.282C227.499 139.542 229.134 141.396 231.665 141.112C233.452 140.913 238.317 137.325 239.906 136.281C240.559 135.852 240.686 135.384 240.844 135.081C241.077 129.226 240.975 128.314 241.109 126.179C240.011 127.477 237.921 128.496 237.258 128.949C234.658 130.73 231.844 133.412 228.496 131.267C227.983 130.938 221.623 126.354 221.257 125.94C221.212 125.887 221.171 125.836 221.13 125.783ZM233.782 118.159C230.219 116.594 228.589 118.557 225.597 120.624C225.369 120.781 221.637 122.73 221.363 124.192C221.031 125.981 225.188 127.923 225.568 128.187C227.772 129.725 229.621 131.823 232.46 131.045C233.604 130.73 239.224 126.915 240.198 126.215C241.141 125.535 241.683 124.525 240.825 123.537C240.65 123.338 234.245 118.517 233.782 118.159Z" fill="#89260F"/>
<path fill-rule="evenodd" clip-rule="evenodd" d="M224.4 127.413C223.854 128.05 223.612 128.081 222.731 128.21C219.867 128.363 214.548 129.363 212.024 127.792C209.885 126.461 209.34 123.901 208.484 121.884L206.905 118.15C206.607 117.236 206.559 117.008 206.77 116.236C206.768 116.148 206.791 116.058 206.836 115.968C207.099 115.428 212.298 106.936 212.867 106.854C212.887 106.852 212.946 106.876 213.038 106.921C214.437 105.75 217.724 106.198 218.882 106.183C221.989 106.138 225.66 105.436 227.13 108.948C225.006 105.699 222.481 106.484 218.892 106.624C218.276 106.647 213.078 105.973 212.991 108.28C212.958 109.188 215.961 115.987 216.39 116.902C217.883 120.092 221.484 119.342 224.286 119.293C225.317 119.275 230.687 120.136 230.241 117.252C230.192 116.939 227.347 109.538 227.13 108.948C227.784 110.396 230.754 116.379 230.701 117.751C230.596 120.519 225.535 119.837 224.301 119.881C221.175 119.992 217.38 120.754 215.71 117.181C215.483 116.697 213.166 110.968 212.57 109.267C210.08 113.122 211.246 111.331 207.862 116.44C207.826 118.949 207.531 117.054 209.354 121.657C211.965 128.239 211.611 127.956 218.705 127.928C220.743 127.917 222.76 128.336 224.4 127.413C224.41 127.413 224.413 127.413 224.416 127.412C227.441 122.212 226.553 123.673 228.554 120.442C228.883 120.395 229.185 120.341 229.453 120.283C227.736 122.9 224.521 127.727 224.4 127.413Z" fill="#89260F"/>
<path fill-rule="evenodd" clip-rule="evenodd" d="M247.755 97.0831C248.415 96.5739 248.469 96.3545 248.678 95.4922C249.012 93.2313 250.304 87.6773 249.582 85.5358C248.652 82.7739 246.057 82.025 243.826 80.8081L240.267 78.8694C239.422 78.4976 239.216 78.4323 238.442 78.5645C238.375 78.5517 238.301 78.5607 238.224 78.5885C237.968 78.6839 230.328 82.182 228.861 83.4251C228.285 83.706 227.851 84.3377 227.658 85.4998C227.441 86.803 226.543 93.4348 226.811 94.7501C227.105 96.178 227.833 97.2318 229.107 97.9244C228.004 97.0313 227.338 96.1419 227.096 94.6967C226.893 93.4882 227.954 86.7714 228.179 85.5674C228.288 84.9867 228.458 84.4542 228.945 84.0838C230.421 82.9661 233.969 85.7935 234.448 86.0541C236.832 87.3528 239.534 88.0709 240.104 90.9854C240.334 92.1624 239.413 98.8859 239.217 100.079C239.024 101.25 238.339 102.198 237.05 101.862C236.744 101.782 229.67 98.1986 229.106 97.9237C230.48 98.7206 236.131 102.283 237.5 102.37C237.936 102.398 238.303 102.291 238.608 102.093C239.615 101.567 247.421 97.4842 247.746 97.1072C241.84 99.8759 244.162 98.7559 239.43 101.086C239.568 100.791 239.666 100.469 239.724 100.145C239.881 99.3103 240.867 92.3825 240.845 91.5787C240.738 87.8328 237.579 86.9367 234.764 85.4599C233.73 84.9176 232.114 83.7924 230.672 83.3905C234.961 81.2017 232.936 82.2443 238.473 79.3592C241.044 79.5883 239.304 79.1624 243.599 81.4113C249.905 84.7133 249.711 84.3888 248.912 91.4871C248.698 93.3913 248.888 95.6327 247.755 97.0831L247.753 97.0967C247.758 97.0906 247.758 97.0861 247.755 97.0831ZM247.747 97.1079C247.751 97.1034 247.752 97.0996 247.753 97.0959C247.753 97.0996 247.753 97.1012 247.756 97.1042L247.747 97.1079ZM247.755 97.1042L247.764 97.0997L247.758 97.1184L247.755 97.1042Z" fill="#89260F"/>
<path fill-rule="evenodd" clip-rule="evenodd" d="M236.321 97.3722C235.677 100.191 233.963 106.445 233.145 107.51L233.23 107.483C232.664 108.304 232.489 108.402 231.502 108.799C229.172 109.532 223.973 111.685 221.576 111.288C218.544 110.783 217.368 108.195 215.808 106.061L213.428 102.798C213.061 102.196 212.943 101.545 213.086 100.9C213.396 99.4957 215.128 93.7645 216.151 91.122C216.442 88.9572 220.655 88.4674 221.957 88.1039C224.92 87.2776 228.372 85.6447 230.651 88.6928C231.676 89.9367 236.082 94.904 236.393 96.2778C236.487 96.6872 236.451 97.0507 236.321 97.3722ZM216.295 92.1766C215.156 96.8149 215.615 95.1188 214.277 99.6632C213.467 102.418 215.035 103.121 216.871 105.458C218.25 107.212 219.254 109.47 221.754 109.958C223.519 110.302 229.235 108.337 231.063 107.818C231.814 107.604 232.076 107.195 232.315 106.955C234.293 101.437 234.47 100.537 235.239 98.5403C233.8 99.4499 231.501 99.7954 230.734 100.03C227.718 100.95 224.232 102.665 221.679 99.6144C221.289 99.1487 216.595 92.8699 216.371 92.3636C216.343 92.3005 216.318 92.2382 216.295 92.1766ZM230.652 88.6935C227.721 86.1344 225.579 87.518 222.102 88.5929C221.839 88.674 217.695 89.4154 216.996 90.7291C216.14 92.3366 219.527 95.4358 219.808 95.8008C221.452 97.9273 222.585 100.483 225.528 100.592C226.714 100.635 233.217 98.6785 234.356 98.3014C235.462 97.9356 236.281 97.1341 235.756 95.9346C235.652 95.6919 230.984 89.1735 230.652 88.6935Z" fill="#89260F"/>
<path fill-rule="evenodd" clip-rule="evenodd" d="M228.069 85.6104C227.687 86.3563 227.458 86.4434 226.631 86.7747C223.882 87.5919 218.944 89.8033 216.123 88.8666C213.731 88.0711 212.604 85.7103 211.302 83.9481L208.895 80.6859C208.392 79.8664 208.292 79.6553 208.316 78.8561C208.295 78.7705 208.295 78.6781 208.317 78.5797C208.449 77.9938 211.522 68.5204 212.057 68.3101C212.076 68.3026 212.138 68.3116 212.237 68.3349C213.324 66.8701 216.628 66.5381 217.748 66.2527C220.76 65.4843 224.166 63.9437 226.414 67.0173V67.0181C223.591 64.353 221.32 65.7066 217.862 66.6793C217.267 66.8461 212.056 67.405 212.51 69.6681C212.689 70.5583 217.196 76.469 217.827 77.2584C220.022 80.0106 223.35 78.4415 226.061 77.7407C227.061 77.4823 232.485 77.0662 231.377 74.3658C231.258 74.0728 226.763 67.5394 226.414 67.0181C227.387 68.2733 231.67 73.3976 231.94 74.7436C232.485 77.4582 227.405 77.9773 226.214 78.3085C223.2 79.1461 219.69 80.7723 217.23 77.6881C216.898 77.2697 213.307 72.2393 212.331 70.725C210.81 75.0546 211.527 73.0423 209.428 78.7983C209.978 81.2463 209.249 79.4743 212.096 83.5237C216.17 89.3143 215.761 89.122 222.651 87.4394C224.631 86.9542 226.686 86.8919 228.069 85.6104C228.077 85.6074 228.082 85.6066 228.084 85.6051C229.81 79.8431 229.288 81.4708 230.48 77.8616C230.788 77.7384 231.07 77.6175 231.318 77.4973C230.257 80.4433 228.259 85.8861 228.069 85.6104Z" fill="#89260F"/>
<path fill-rule="evenodd" clip-rule="evenodd" d="M228.669 52.3855C243.726 52.3855 255.932 55.1256 255.932 58.505C255.932 61.8859 243.726 64.6269 228.669 64.6269C213.612 64.6269 201.406 61.8859 201.406 58.505C201.406 55.1256 213.612 52.3855 228.669 52.3855Z" fill="#B63317"/>
<path fill-rule="evenodd" clip-rule="evenodd" d="M241.674 12.3665C239.677 12.3665 238.058 13.9852 238.058 15.9817C238.058 17.0513 238.524 18.012 239.262 18.6738C234.547 34.0369 229.505 49.862 225.364 65.3348C225.23 65.8366 224.258 69.2047 224.411 69.7613C224.862 69.4015 226.043 66.0995 226.227 65.6135C231.924 50.6139 237.093 34.7971 242.259 19.5504C243.977 19.271 245.29 17.7807 245.29 15.9825C245.29 13.9859 243.672 12.3665 241.674 12.3665Z" fill="#AFB0B0"/>
<path fill-rule="evenodd" clip-rule="evenodd" d="M241.678 12.3665C239.681 12.3665 238.062 13.9852 238.062 15.9817C238.062 17.0513 238.528 18.012 239.265 18.6738C235.584 30.6748 231.701 42.956 228.203 55.132C232.519 43.122 236.581 30.7905 240.639 18.812C242.358 18.5333 243.67 17.0423 243.67 15.2441C243.67 14.1023 243.141 13.0861 242.316 12.4228C242.108 12.386 241.895 12.3665 241.678 12.3665Z" fill="#C4C4C4"/>
<path fill-rule="evenodd" clip-rule="evenodd" d="M237.513 28.5302C243.161 29.9897 247.09 33.68 246.291 36.7725C245.492 39.8649 240.266 41.1885 234.619 39.729C228.973 38.2695 225.042 34.5792 225.841 31.4852C226.641 28.3935 231.866 27.0707 237.513 28.5302Z" fill="#78922F"/>
<path fill-rule="evenodd" clip-rule="evenodd" d="M237.516 28.5303C242.582 29.8395 246.264 32.9433 246.392 35.8014C244.18 36.6479 241.022 36.7463 237.72 35.893C232.654 34.5838 228.972 31.48 228.844 28.6227C231.057 27.7754 234.214 27.677 237.516 28.5303Z" fill="#829E32"/>
<path fill-rule="evenodd" clip-rule="evenodd" d="M234.416 39.8913C240.064 41.35 243.994 45.0403 243.194 48.1335C242.395 51.226 237.169 52.5503 231.521 51.09C225.875 49.6313 221.945 45.9402 222.744 42.8477C223.544 39.7545 228.769 38.4318 234.416 39.8913Z" fill="#78922F"/>
<path fill-rule="evenodd" clip-rule="evenodd" d="M234.415 39.8914C238.142 40.8544 241.122 42.7908 242.487 44.8842C240.765 47.0558 236.258 47.8332 231.446 46.5893C227.719 45.6256 224.739 43.6907 223.375 41.5965C225.097 39.4257 229.601 38.6475 234.415 39.8914Z" fill="#829E32"/>
<path fill-rule="evenodd" clip-rule="evenodd" d="M228.086 42.1772C229.739 42.7353 230.889 44.1467 230.655 45.329C230.422 46.5113 228.89 47.0184 227.237 46.4595C225.583 45.9022 224.433 44.4908 224.667 43.307C224.9 42.1254 226.432 41.6191 228.086 42.1772Z" fill="#82160B"/>
<path fill-rule="evenodd" clip-rule="evenodd" d="M242.842 32.7336C244.496 33.2917 245.647 34.7046 245.413 35.8861C245.178 37.0692 243.648 37.5754 241.994 37.0173C240.34 36.46 239.191 35.0478 239.425 33.8648C239.658 32.6817 241.19 32.1747 242.842 32.7336Z" fill="#82160B"/>
<path fill-rule="evenodd" clip-rule="evenodd" d="M227.429 42.4096C228.548 42.7198 229.328 43.507 229.169 44.168C229.011 44.8275 227.973 45.1092 226.852 44.7982C225.73 44.4865 224.951 43.7 225.11 43.0398C225.27 42.3795 226.306 42.0971 227.429 42.4096Z" fill="#A52715"/>
<path fill-rule="evenodd" clip-rule="evenodd" d="M242.185 33.2613C243.306 33.5722 244.086 34.3594 243.927 35.0189C243.769 35.6785 242.731 35.9609 241.611 35.6507C240.489 35.3397 239.71 34.551 239.868 33.8922C240.027 33.232 241.064 32.9496 242.185 33.2613Z" fill="#A52715"/>
<path fill-rule="evenodd" clip-rule="evenodd" d="M236.862 28.7009C239.086 29.1944 240.586 30.1078 240.214 30.7387C239.842 31.3705 237.739 31.4816 235.515 30.9874C233.294 30.4931 231.794 29.5805 232.166 28.9487C232.538 28.3178 234.641 28.2059 236.862 28.7009Z" fill="#A0BD3D"/>
<path fill-rule="evenodd" clip-rule="evenodd" d="M234.5 40.3937C236.724 40.8879 238.223 41.8006 237.852 42.4315C237.479 43.0632 235.376 43.1744 233.153 42.6809C230.93 42.1859 229.431 41.2733 229.803 40.6416C230.175 40.0106 232.278 39.8994 234.5 40.3937Z" fill="#A0BD3D"/>
<path fill-rule="evenodd" clip-rule="evenodd" d="M240.239 13.0157C241.045 12.6762 241.766 12.7694 241.848 13.2223C241.928 13.6752 241.341 14.3167 240.534 14.6547C239.728 14.9942 239.006 14.9019 238.925 14.4489C238.845 13.9952 239.433 13.3537 240.239 13.0157Z" fill="white"/>
<path fill-rule="evenodd" clip-rule="evenodd" d="M247.847 65.2546C248.194 64.8873 248.396 64.3412 248.384 63.6674L248.264 56.3505C248.237 54.7461 247.014 52.9997 245.545 52.4694L238.514 49.9343C237.908 49.7157 237.352 49.7367 236.909 49.9501L236.893 49.9305L228.953 55.5603L239.924 70.9107L247.865 65.2801L247.847 65.2546Z" fill="#AE3116"/>
<path fill-rule="evenodd" clip-rule="evenodd" d="M230.934 68.5048L238.176 71.1165C239.586 71.6251 240.72 70.7297 240.692 69.1252L240.572 61.8076C240.545 60.2032 239.368 58.474 237.959 57.9655L230.718 55.3531C229.305 54.8438 228.173 55.7414 228.2 57.3451L228.318 64.662C228.345 66.2664 229.522 67.9955 230.934 68.5048Z" fill="#AA2F15"/>
<path fill-rule="evenodd" clip-rule="evenodd" d="M223.194 69.5586C222.788 69.8606 222.224 69.9973 221.557 69.9079L214.302 68.9367C212.713 68.7241 211.119 67.3052 210.763 65.7841L209.063 58.5063C208.917 57.8798 209.003 57.3292 209.266 56.9131L209.248 56.8966L215.766 49.6638L229.734 62.3476L223.218 69.5804L223.194 69.5586Z" fill="#AE3116"/>
<path fill-rule="evenodd" clip-rule="evenodd" d="M228.388 53.1304L230.139 60.626C230.481 62.087 229.459 63.1071 227.868 62.8952L220.616 61.924C219.025 61.7114 217.445 60.3421 217.102 58.8804L215.351 51.384C215.009 49.923 216.031 48.9014 217.621 49.1155L224.875 50.0875C226.465 50.2993 228.046 51.6687 228.388 53.1304Z" fill="#AA2F15"/>
<path fill-rule="evenodd" clip-rule="evenodd" d="M237.488 79.164C237.308 79.635 236.904 80.0541 236.29 80.3358L229.64 83.3899C228.182 84.06 226.079 83.7122 224.965 82.617L219.637 77.374C219.179 76.9218 218.958 76.4118 218.958 75.9198L218.934 75.9161L220.577 66.3195L239.161 69.5749L237.519 79.1708L237.488 79.164Z" fill="#AE3116"/>
<path fill-rule="evenodd" clip-rule="evenodd" d="M233.102 62.5004L238.587 67.9004C239.658 68.9527 239.338 70.3626 237.881 71.0334L231.231 74.0875C229.774 74.7576 227.705 74.4451 226.635 73.3927L221.149 67.992C220.079 66.9404 220.398 65.5312 221.855 64.8612L228.505 61.8063C229.965 61.1356 232.032 61.4488 233.102 62.5004Z" fill="#AA2F15"/>
<path fill-rule="evenodd" clip-rule="evenodd" d="M247.658 65.0896C248.186 64.5457 248.204 64.3429 248.278 63.54C248.285 61.4661 248.716 56.3087 247.789 54.4804C246.591 52.1211 244.163 51.7883 242 50.9876L238.551 49.7114C237.741 49.4883 237.548 49.456 236.873 49.6761C236.81 49.6731 236.745 49.6911 236.679 49.7264C236.462 49.8451 230.058 53.9877 228.904 55.2969C228.424 55.6237 228.115 56.2479 228.094 57.3167C228.071 58.5156 228.132 64.5893 228.546 65.7348C228.995 66.9794 229.789 67.8297 231.022 68.2849C229.916 67.6277 229.201 66.9156 228.793 65.6499C228.453 64.5915 228.528 58.4202 228.573 57.3092C228.594 56.7729 228.677 56.2719 229.066 55.8775C230.244 54.6795 233.801 56.7541 234.264 56.9254C236.575 57.7794 239.098 58.0709 239.991 60.6135C240.351 61.6418 240.405 67.7989 240.384 68.8971C240.364 69.9742 239.872 70.9147 238.671 70.7825C238.386 70.7502 231.563 68.4577 231.021 68.2842C232.36 68.8212 237.9 71.2797 239.142 71.1791C239.536 71.1475 239.852 71.0033 240.099 70.7855C240.935 70.1808 247.411 65.4944 247.655 65.1121C242.712 68.3713 244.652 67.0621 240.707 69.7737C240.793 69.4905 240.837 69.1885 240.849 68.8903C240.877 68.1197 240.858 61.7703 240.734 61.0499C240.147 57.6991 237.193 57.3092 234.471 56.3515C233.474 55.9992 231.874 55.1993 230.527 55.0273C234.093 52.5004 232.409 53.7 237.003 50.3859C239.342 50.2552 237.725 50.0998 241.875 51.5592C247.969 53.6992 247.755 53.4326 247.966 59.9119C248.022 61.6508 248.486 63.6391 247.658 65.0896L247.66 65.1031C247.662 65.0963 247.662 65.0911 247.658 65.0896ZM247.655 65.1128C247.656 65.1091 247.658 65.1053 247.66 65.1023C247.66 65.1053 247.661 65.1061 247.661 65.1083L247.655 65.1128ZM247.661 65.1083L247.668 65.1038L247.667 65.1203L247.661 65.1083Z" fill="#89260F"/>
<path fill-rule="evenodd" clip-rule="evenodd" d="M239.391 69.4354C239.181 72.0493 238.462 77.891 237.864 78.9553L237.938 78.9185C237.537 79.7313 237.391 79.8409 236.559 80.3277C234.562 81.2899 230.175 83.9046 227.972 83.861C225.18 83.8047 223.786 81.6332 222.107 79.9221L219.541 77.3028C219.133 76.8108 218.944 76.2414 218.986 75.6428C219.08 74.3418 219.886 68.9681 220.461 66.4616C220.438 64.4785 224.158 63.4878 225.279 62.9905C227.833 61.8608 230.717 59.9432 233.163 62.3829C234.247 63.3654 238.855 67.248 239.314 68.4416C239.452 68.7984 239.466 69.1281 239.391 69.4354ZM220.728 67.3892C220.312 71.7038 220.501 70.1219 219.897 74.3771C219.53 76.9573 221.031 77.3839 222.984 79.2423C224.45 80.6364 225.648 82.5323 227.957 82.6442C229.587 82.7223 234.464 80.209 236.037 79.5029C236.686 79.213 236.866 78.8111 237.05 78.5625C238.101 73.3496 238.143 72.518 238.572 70.6252C237.401 71.6302 235.381 72.2409 234.722 72.5518C232.135 73.7732 229.227 75.769 226.536 73.3638C226.125 72.9965 221.087 67.9721 220.821 67.5477C220.786 67.4951 220.755 67.4426 220.728 67.3892ZM233.163 62.3829C230.197 60.466 228.453 61.9893 225.473 63.4104C225.247 63.5178 221.622 64.7264 221.166 65.9974C220.609 67.5515 224.055 69.8913 224.357 70.1835C226.111 71.8773 227.463 74.0248 230.121 73.7364C231.191 73.6215 236.774 71.0112 237.748 70.5245C238.694 70.0513 239.324 69.2243 238.697 68.2155C238.571 68.0127 233.526 62.7697 233.163 62.3829Z" fill="#89260F"/>
<path fill-rule="evenodd" clip-rule="evenodd" d="M223.421 69.322C222.841 69.8132 222.619 69.8072 221.811 69.7952C219.224 69.5188 214.315 69.6472 212.279 67.876C210.554 66.376 210.434 64.0031 209.959 62.0719L209.082 58.4988C208.948 57.6372 208.937 57.4261 209.237 56.7644C209.249 56.6855 209.282 56.6074 209.335 56.533C209.649 56.0884 215.532 49.2259 216.054 49.2364C216.071 49.2364 216.121 49.2665 216.196 49.3205C217.618 48.4733 220.5 49.3491 221.539 49.5016C224.328 49.9094 227.72 49.8088 228.531 53.1687C227.098 49.9508 224.722 50.2918 221.485 49.8974C220.929 49.8291 216.369 48.477 215.961 50.5314C215.797 51.3389 217.51 57.8648 217.761 58.7474C218.638 61.8203 221.974 61.6678 224.49 62.0269C225.417 62.1598 230.105 63.7057 230.121 61.0571C230.123 60.7687 228.64 53.726 228.531 53.1687C228.909 54.5613 230.706 60.3488 230.461 61.5702C229.969 64.0347 225.53 62.6946 224.419 62.5564C221.602 62.2056 218.092 62.3416 217.111 58.8991C216.978 58.4327 215.729 52.9643 215.439 51.3554C212.652 54.4501 213.957 53.0139 210.187 57.1031C209.793 59.3446 209.8 57.6071 210.771 61.9931C212.16 68.2666 211.884 67.9617 218.244 68.9592C220.071 69.2461 221.817 69.9124 223.421 69.322C223.431 69.3227 223.434 69.3235 223.437 69.3235C226.897 65.0998 225.89 66.2806 228.147 63.6741C228.45 63.6786 228.729 63.6756 228.979 63.6621C227.059 65.7586 223.483 69.6194 223.421 69.322Z" fill="#89260F"/>
<path fill-rule="evenodd" clip-rule="evenodd" d="M259.885 49.9658C256.418 54.375 239.759 55.836 236.235 56.1094C226.659 56.853 212.354 56.4714 203.273 53.4638C201.787 52.9718 198.009 52.1651 196.605 49.7622C199.35 53.4496 216.098 55.4033 231.349 54.9857C244.41 54.6289 256.831 52.5437 259.885 49.9658Z" fill="white"/>
<path fill-rule="evenodd" clip-rule="evenodd" d="M255.135 58.8837C255.805 62.8272 239.531 64.5247 236.27 64.7831C227.409 65.4832 214.171 65.1234 205.767 62.2923C204.392 61.8289 200.993 60.6481 201.292 58.8844L201.412 59.1503C204.481 65.4043 251.808 66.2111 255.135 58.8837Z" fill="white"/>
<path fill-rule="evenodd" clip-rule="evenodd" d="M252.284 69.9181L246.337 140.766C246.337 144.291 237.188 147.148 225.904 147.148C223.905 147.148 221.971 147.059 220.145 146.892C222.71 147.255 225.56 147.458 228.56 147.458C239.844 147.458 248.991 144.591 248.991 141.054L254.864 70.8563L254.922 70.178L254.977 69.5155L255.128 67.6984L255.297 65.6771L255.514 63.0924L255.859 58.9574C255.791 59.1677 255.676 59.3758 255.516 59.5793C255.271 60.2809 254.477 60.9006 253.34 61.4467C253.223 61.503 253.104 61.5571 252.981 61.6119L252.954 61.9364L252.559 66.6386L252.399 68.5315L252.363 68.9724L252.284 69.9181Z" fill="#89260F"/>
<path fill-rule="evenodd" clip-rule="evenodd" d="M229.105 97.9247C227.831 97.2322 227.103 96.1791 226.809 94.7504C226.606 93.7559 227.071 89.7155 227.403 87.2442C225.809 87.1826 224.197 87.9443 222.099 88.5933C221.835 88.6744 217.692 89.4158 216.992 90.7295C216.137 92.337 219.523 95.4362 219.805 95.8012C221.449 97.9277 222.582 100.484 225.525 100.593C226.256 100.619 229.009 99.886 231.279 99.231C230.324 98.6571 229.518 98.1651 229.105 97.9247C229.304 98.0216 230.312 98.5309 231.55 99.1528C232.847 98.7758 233.945 98.437 234.354 98.3018C235.459 97.936 236.279 97.1345 235.754 95.935C235.649 95.6931 230.982 89.1747 230.648 88.6939C229.667 87.8376 228.774 87.423 227.891 87.2901C227.506 89.7403 226.94 93.7859 227.093 94.6971C227.336 96.1423 228.001 97.0316 229.105 97.9247ZM228.429 119.256C228.39 119.068 228.35 118.877 228.311 118.685C227.985 118.898 227.655 119.134 227.312 119.385C227.695 119.366 228.076 119.326 228.429 119.256ZM230.265 117.744C229.72 117.892 229.204 118.138 228.683 118.45C228.727 118.691 228.769 118.93 228.811 119.163C229.6 118.938 230.189 118.514 230.265 117.744ZM227.909 113.443C227.838 112.855 227.841 112.296 228.195 111.799C228.201 111.791 228.208 111.784 228.211 111.777C229.102 114.112 230.216 117.056 230.245 117.251C230.255 117.309 230.261 117.366 230.265 117.422C229.706 117.554 229.156 117.783 228.616 118.067C228.275 116.077 227.983 114.057 227.909 113.443ZM221.752 109.958C222.755 110.155 225.036 109.604 227.153 108.997C227.146 108.977 227.14 108.961 227.135 108.947C225.011 105.698 222.486 106.483 218.897 106.623C218.739 106.628 218.276 106.588 217.674 106.565C218.713 108.052 219.757 109.569 221.752 109.958ZM227.588 110.141C227.699 110.435 227.826 110.768 227.964 111.125C227.949 111.15 227.934 111.173 227.917 111.196C227.454 111.635 227.227 112.369 227.392 113.536C227.486 114.207 227.83 116.271 228.229 118.279C227.642 118.617 227.068 119.008 226.501 119.397C225.525 119.384 224.647 119.285 224.291 119.291C221.49 119.339 217.889 120.089 216.395 116.899C215.966 115.984 212.963 109.185 212.996 108.278C213.044 107.01 214.637 106.642 216.164 106.564C217.56 108.583 218.776 110.822 221.574 111.287C222.99 111.523 225.386 110.868 227.588 110.141ZM234.762 85.461C233.729 84.9187 232.112 83.7935 230.67 83.3916C234.96 81.2028 232.935 82.2454 238.471 79.3602C241.043 79.5893 239.303 79.1634 243.597 81.4123C249.904 84.7144 249.709 84.3899 248.91 91.4882C248.705 93.3089 248.87 95.4414 247.891 96.8919C247.692 97.0459 247.454 97.2059 247.173 97.3749C241.987 99.8048 244 98.8351 239.428 101.086C239.566 100.791 239.663 100.47 239.722 100.145C239.879 99.3106 240.865 92.3828 240.843 91.5791C240.737 87.8331 237.578 86.9378 234.762 85.461Z" fill="#AA2F15"/>
<path fill-rule="evenodd" clip-rule="evenodd" d="M209.755 134.25C209.193 134.562 208.991 135.271 209.303 135.833C209.615 136.394 210.323 136.597 210.886 136.285C211.448 135.972 211.65 135.263 211.338 134.702C211.025 134.14 210.316 133.938 209.755 134.25Z" fill="#B63317"/>
<path fill-rule="evenodd" clip-rule="evenodd" d="M208.769 126.951C207.849 127.463 207.518 128.625 208.03 129.544C208.542 130.466 209.703 130.796 210.624 130.284C211.544 129.772 211.876 128.611 211.364 127.69C210.851 126.77 209.689 126.439 208.769 126.951Z" fill="#B63317"/>
<path fill-rule="evenodd" clip-rule="evenodd" d="M213.647 139.148C212.79 139.624 212.482 140.705 212.959 141.562C213.435 142.419 214.517 142.728 215.374 142.251C216.231 141.775 216.538 140.694 216.063 139.837C215.585 138.98 214.504 138.671 213.647 139.148Z" fill="#B63317"/>
<path fill-rule="evenodd" clip-rule="evenodd" d="M208.816 117.921C208.457 118.121 208.328 118.574 208.527 118.934C208.727 119.292 209.18 119.422 209.539 119.222C209.898 119.023 210.027 118.57 209.828 118.21C209.628 117.852 209.176 117.722 208.816 117.921Z" fill="#B63317"/>
<path fill-rule="evenodd" clip-rule="evenodd" d="M208.575 85.856C208.014 86.1684 207.811 86.8768 208.123 87.4379C208.437 87.999 209.144 88.2018 209.706 87.8893C210.268 87.5776 210.47 86.8692 210.158 86.3074C209.845 85.7455 209.137 85.5435 208.575 85.856Z" fill="#AE3116"/>
<path fill-rule="evenodd" clip-rule="evenodd" d="M209.851 92.0327C209.305 92.3361 209.108 93.0257 209.413 93.5718C209.717 94.1178 210.405 94.3139 210.952 94.0104C211.498 93.707 211.695 93.0182 211.391 92.4713C211.088 91.9253 210.398 91.7292 209.851 92.0327Z" fill="#B84129"/>
<path fill-rule="evenodd" clip-rule="evenodd" d="M217.258 82.5738C216.612 82.9321 216.38 83.7464 216.739 84.3931C217.098 85.0384 217.913 85.2704 218.561 84.9114C219.205 84.5516 219.437 83.7374 219.078 83.0914C218.718 82.4469 217.904 82.2148 217.258 82.5738Z" fill="#B1402C"/>
<path fill-rule="evenodd" clip-rule="evenodd" d="M212.363 90.0361C212.004 90.2359 211.875 90.6881 212.074 91.0479C212.274 91.407 212.727 91.5362 213.086 91.3371C213.445 91.1373 213.573 90.6844 213.375 90.3246C213.174 89.9655 212.722 89.8363 212.363 90.0361Z" fill="#B84129"/>
<path fill-rule="evenodd" clip-rule="evenodd" d="M241.526 78.5073C240.669 78.9835 240.361 80.0644 240.837 80.9222C241.314 81.7793 242.395 82.0872 243.252 81.6103C244.109 81.1333 244.418 80.0531 243.94 79.1953C243.465 78.339 242.383 78.0303 241.526 78.5073Z" fill="#BE543F"/>
<path fill-rule="evenodd" clip-rule="evenodd" d="M240.539 74.4748C239.992 74.7782 239.796 75.467 240.1 76.0139C240.403 76.5607 241.093 76.756 241.64 76.4525C242.186 76.1491 242.381 75.461 242.078 74.9142C241.774 74.3674 241.084 74.1713 240.539 74.4748Z" fill="#BE543F"/>
<path fill-rule="evenodd" clip-rule="evenodd" d="M243.054 72.479C242.695 72.6788 242.566 73.131 242.766 73.49C242.966 73.8491 243.418 73.9783 243.778 73.78C244.136 73.5802 244.266 73.1265 244.066 72.7667C243.866 72.4084 243.414 72.2792 243.054 72.479Z" fill="#BE543F"/>
<path fill-rule="evenodd" clip-rule="evenodd" d="M219.086 141.502C216.141 141.281 213.681 139.996 213.681 138.166C213.681 138.166 210.591 111.43 205.57 54.8917C207.641 55.434 210.128 55.8952 212.926 56.252C215.174 102.42 218.709 134.602 219.086 141.502Z" fill="white"/>
<path fill-rule="evenodd" clip-rule="evenodd" d="M239.242 141.241C241.368 140.737 242.93 139.624 242.93 138.165C242.93 138.165 244.361 124.267 249.38 67.7278C248.674 67.9126 246.593 68.1987 245.794 68.364C240.811 125.143 240.717 139.019 240.717 139.019C240.717 139.903 240.154 140.663 239.242 141.241Z" fill="white"/>
<path fill-rule="evenodd" clip-rule="evenodd" d="M232.463 131.045C233.482 130.765 238.041 127.714 239.722 126.551C237.262 126.158 233.611 125.206 232.497 124.954C232.993 125.03 238.013 125.861 240.227 126.195C241.155 125.515 241.677 124.515 240.828 123.536C240.712 123.403 237.796 121.192 235.745 119.642C234.736 118.878 233.938 118.276 233.786 118.158C232.58 117.628 231.596 117.503 230.706 117.648C230.708 117.683 230.708 117.716 230.706 117.748C230.666 118.806 229.901 119.361 228.902 119.642C228.949 119.891 228.998 120.131 229.045 120.361C229.188 120.336 229.328 120.309 229.457 120.281C229.354 120.439 229.245 120.606 229.132 120.777C229.232 121.237 229.329 121.639 229.42 121.951C229.486 122.181 229.552 122.361 229.611 122.476C230.274 123.782 231.178 124.431 232.496 124.953C231.074 124.673 230.063 123.888 229.356 122.613C229.284 122.481 229.204 122.282 229.121 122.029C229.04 121.787 228.958 121.495 228.873 121.169C228.641 121.52 228.395 121.89 228.144 122.268C226.466 124.786 224.498 127.655 224.404 127.412C224.382 127.439 224.357 127.465 224.337 127.489C224.952 127.852 225.451 128.104 225.571 128.187C227.775 129.725 229.623 131.824 232.463 131.045ZM224.42 127.411C224.417 127.412 224.414 127.412 224.404 127.412C224.37 127.432 224.335 127.451 224.301 127.469C222.975 126.685 221.141 125.404 221.367 124.192C221.421 123.897 221.616 123.585 221.894 123.27C222.997 122.019 225.418 120.749 225.6 120.624C225.943 120.387 226.269 120.15 226.581 119.921C227.225 119.912 227.91 119.867 228.533 119.735C228.584 119.971 228.637 120.2 228.689 120.421C228.645 120.428 228.604 120.434 228.558 120.441C227.928 121.459 227.585 122.011 227.315 122.453C226.727 123.412 226.492 123.849 224.42 127.411Z" fill="#AE3116"/>
<path fill-rule="evenodd" clip-rule="evenodd" d="M236.253 107.23C235.706 107.533 235.511 108.222 235.815 108.768C236.118 109.315 236.806 109.511 237.354 109.207C237.9 108.904 238.097 108.214 237.793 107.667C237.49 107.121 236.8 106.925 236.253 107.23Z" fill="#BD422C"/>
<path fill-rule="evenodd" clip-rule="evenodd" d="M238.776 105.233C238.417 105.433 238.29 105.885 238.488 106.244C238.688 106.604 239.141 106.733 239.5 106.533C239.859 106.333 239.987 105.881 239.789 105.522C239.589 105.162 239.135 105.033 238.776 105.233Z" fill="#BD422C"/>
<path d="M100.262 144.247L89.4312 107.311C91.2941 104.773 91.8972 101.441 90.917 98.3793L86.4537 84.239C84.8778 79.316 79.7475 75.1172 74.7156 74.6755C73.1682 74.5643 71.5968 74.5065 70.045 74.5065C55.6118 74.5065 41.3228 79.4107 29.7597 88.3545C25.8643 91.474 23.8166 97.6988 25.1018 102.538L28.811 116.264C29.6185 119.302 31.9102 121.726 34.8434 122.84L45.8041 160.217C47.054 164.478 51.0253 167.454 55.4623 167.454C56.42 167.454 57.374 167.316 58.2986 167.045L93.4348 156.742C98.7619 155.178 101.824 149.573 100.262 144.247Z" fill="#A35110"/>
<path d="M83.0959 106.929C82.8405 106.061 83.141 105.125 83.8523 104.568C85.1999 103.513 85.7384 101.791 85.2231 100.182L80.7614 86.0494C79.9276 83.4445 76.8299 80.8598 74.2587 80.6232C67.2025 80.1162 60.1658 80.8741 53.3386 82.8758C46.1262 84.9911 39.4402 88.4043 33.4672 93.0215C31.2363 94.8205 30.2485 98.7084 30.8554 100.991L34.5646 114.722C34.9724 116.259 36.3373 117.353 38.0446 117.517C38.943 117.603 39.6994 118.228 39.9533 119.094L51.5194 158.539C52.1563 160.709 54.4406 161.958 56.6114 161.321L91.7461 151.017C93.9184 150.38 95.166 148.097 94.5298 145.925L83.0959 106.929Z" fill="#F1C380"/>
<path d="M52.0565 122.201C51.2205 122.446 50.7405 123.323 50.9862 124.159C51.2318 124.995 52.1084 125.475 52.9444 125.23C53.7812 124.985 54.2604 124.108 54.0155 123.272C53.7706 122.435 52.8933 121.955 52.0565 122.201Z" fill="#A35110"/>
<path d="M66.1042 128.606C65.0999 128.901 64.5253 129.953 64.819 130.957C65.1134 131.96 66.1658 132.535 67.17 132.24C68.1736 131.946 68.7489 130.894 68.4537 129.891C68.1593 128.887 67.1077 128.312 66.1042 128.606Z" fill="#A35110"/>
<path d="M60.8925 90.6612C59.889 90.9564 59.3143 92.0079 59.608 93.0107C59.9032 94.0158 60.9548 94.5904 61.9591 94.2959C62.9626 94.0007 63.538 92.9499 63.2428 91.9456C62.9484 90.9421 61.896 90.3667 60.8925 90.6612Z" fill="#A35110"/>
<path d="M61.2128 117.541C60.3768 117.786 59.8968 118.663 60.1424 119.5C60.3873 120.335 61.2646 120.814 62.1006 120.569C62.9367 120.324 63.4166 119.448 63.171 118.611C62.9269 117.775 62.0496 117.296 61.2128 117.541Z" fill="#A35110"/>
<path d="M72.6112 122.751C71.7752 122.997 71.2952 123.874 71.5408 124.71C71.7865 125.546 72.663 126.026 73.4991 125.78C74.3358 125.536 74.8143 124.659 74.5694 123.822C74.3253 122.985 73.448 122.506 72.6112 122.751Z" fill="#A35110"/>
<path d="M72.1891 93.2705C71.353 93.5154 70.8738 94.3927 71.1187 95.2287C71.3643 96.0648 72.2409 96.5447 73.0777 96.2999C73.9137 96.0542 74.3929 95.1777 74.1473 94.3416C73.9024 93.5056 73.0258 93.0249 72.1891 93.2705Z" fill="#A35110"/>
<path d="M53.8808 91.4034C53.0447 91.6482 52.5647 92.5256 52.8104 93.3616C53.056 94.1976 53.9318 94.6776 54.7686 94.4327C55.6046 94.1871 56.0839 93.3098 55.8382 92.4738C55.5934 91.6377 54.7175 91.1585 53.8808 91.4034Z" fill="#A35110"/>
<path d="M43.2551 103.401C42.4183 103.646 41.9399 104.523 42.1855 105.36C42.4311 106.196 43.307 106.675 44.143 106.43C44.979 106.185 45.4582 105.308 45.2134 104.472C44.9685 103.634 44.0919 103.157 43.2551 103.401Z" fill="#A35110"/>
<path d="M76.1999 139.463C75.6981 139.609 75.4104 140.136 75.5584 140.638C75.7056 141.139 76.2314 141.427 76.7332 141.28C77.2349 141.133 77.5226 140.605 77.3747 140.104C77.2282 139.603 76.7016 139.315 76.1999 139.463Z" fill="#A35110"/>
<path d="M81.4544 129.366C80.9534 129.514 80.6642 130.04 80.8122 130.541C80.9594 131.043 81.486 131.331 81.9877 131.184C82.4887 131.036 82.7779 130.51 82.6299 130.007C82.4842 129.507 81.9569 129.22 81.4544 129.366Z" fill="#A35110"/>
<path d="M59.091 85.6008C58.5884 85.7488 58.3015 86.2738 58.4487 86.7756C58.5967 87.2781 59.1218 87.5658 59.6243 87.4178C60.126 87.2713 60.413 86.744 60.2658 86.2422C60.1185 85.7412 59.5927 85.4536 59.091 85.6008Z" fill="#A35110"/>
<path d="M73.9272 100.326C73.4247 100.472 73.137 100.999 73.2849 101.502C73.4322 102.003 73.958 102.291 74.459 102.143C74.9615 101.997 75.2484 101.47 75.1012 100.968C74.9547 100.466 74.4282 100.179 73.9272 100.326Z" fill="#A35110"/>
<path d="M56.729 139.251C55.3905 139.643 54.625 141.047 55.0164 142.385C55.4085 143.723 56.8116 144.49 58.1501 144.097C59.4887 143.705 60.2556 142.302 59.862 140.964C59.4699 139.625 58.0675 138.859 56.729 139.251Z" fill="#A35110"/>
<path d="M85.5463 143.3C84.2085 143.692 83.4408 145.096 83.8329 146.435C84.2258 147.772 85.6297 148.539 86.9675 148.146C88.306 147.754 89.0714 146.35 88.6801 145.013C88.2887 143.675 86.8848 142.907 85.5463 143.3Z" fill="#A35110"/>
<path d="M68.798 142.289C68.128 142.486 67.7464 143.186 67.9417 143.856C68.1378 144.525 68.8386 144.908 69.5078 144.712C70.1771 144.516 70.5609 143.815 70.3649 143.146C70.1688 142.477 69.4665 142.094 68.798 142.289Z" fill="#A35110"/>
<path d="M73.7572 132.283C73.4237 132.381 73.2321 132.731 73.3305 133.066C73.4289 133.4 73.7797 133.593 74.1132 133.494C74.4475 133.397 74.6397 133.045 74.5413 132.71C74.443 132.376 74.0922 132.185 73.7572 132.283Z" fill="#A35110"/>
<path d="M65.0284 98.0032C64.0248 98.2976 63.4502 99.35 63.7454 100.353C64.0399 101.357 65.0915 101.932 66.095 101.639C67.0993 101.343 67.6739 100.291 67.3794 99.2884C67.085 98.2841 66.0326 97.7095 65.0284 98.0032Z" fill="#A35110"/>
<path d="M71.7592 113.133C71.2567 113.278 70.969 113.806 71.117 114.307C71.2642 114.81 71.79 115.098 72.291 114.95C72.7935 114.803 73.0812 114.276 72.9347 113.775C72.7868 113.272 72.261 112.985 71.7592 113.133Z" fill="#A35110"/>
<path d="M52.5522 105.938C52.0497 106.085 51.762 106.611 51.9099 107.113C52.0572 107.615 52.583 107.903 53.084 107.755C53.5865 107.608 53.8742 107.081 53.7262 106.58C53.5797 106.079 53.0539 105.79 52.5522 105.938Z" fill="#A35110"/>
<path d="M122.322 118.785C124.665 116.53 125.921 113.281 125.579 109.97L124.112 95.2126C123.551 89.7938 119.158 84.3503 114.044 82.7999C108.162 81.1166 102.067 80.2633 95.926 80.2633C85.9057 80.2633 75.8201 82.5866 66.7598 86.983C66.7373 86.9943 66.714 87.0048 66.6915 87.0168C61.9938 89.3942 58.5326 95.3778 58.8127 100.656L59.6255 114.847C59.799 118.104 61.5454 121.062 64.2112 122.903L67.2421 161.371C67.6822 166.961 72.4167 171.341 78.0195 171.341C78.3034 171.341 78.5896 171.33 78.8773 171.307L115.38 168.432C121.327 167.963 125.785 162.743 125.316 156.797L122.322 118.785Z" fill="#BB631E"/>
<path d="M116.653 114.655C118.188 113.899 119.069 112.325 118.894 110.644L117.427 95.8948C117.146 93.1757 114.645 90.0096 112.177 89.2517C105.375 87.307 98.331 86.6054 91.2402 87.1635C83.7461 87.7547 76.5028 89.7227 69.7095 93.0164C67.1571 94.3189 65.3919 97.9214 65.5181 100.28L66.3316 114.481C66.4149 116.068 67.5274 117.419 69.1649 117.93C70.0257 118.199 70.6379 118.966 70.7085 119.866L73.9354 160.844C74.1134 163.099 76.0927 164.789 78.3483 164.612L114.85 161.737C117.106 161.56 118.797 159.58 118.619 157.325L115.428 116.81C115.357 115.908 115.842 115.054 116.653 114.655Z" fill="#FCD9AC"/>
<path d="M81.907 125.387C81.0387 125.456 80.3897 126.216 80.4581 127.085C80.5272 127.954 81.2866 128.602 82.1549 128.534C83.0247 128.466 83.673 127.705 83.6054 126.836C83.537 125.968 82.7753 125.319 81.907 125.387Z" fill="#BB631E"/>
<path d="M94.3479 134.539C93.3053 134.621 92.5256 135.534 92.6075 136.576C92.6901 137.619 93.602 138.398 94.6453 138.316C95.6879 138.233 96.4661 137.321 96.3842 136.279C96.3023 135.236 95.3904 134.457 94.3479 134.539Z" fill="#BB631E"/>
<path d="M97.0306 96.3329C95.9873 96.4156 95.2098 97.3275 95.291 98.37C95.3736 99.4134 96.2855 100.192 97.3288 100.109C98.3707 100.028 99.1488 99.1159 99.067 98.0733C98.9843 97.03 98.0732 96.2511 97.0306 96.3329Z" fill="#BB631E"/>
<path d="M91.8264 122.706C90.9566 122.775 90.3083 123.535 90.3759 124.404C90.4443 125.272 91.2052 125.921 92.0735 125.853C92.9418 125.785 93.5916 125.024 93.5232 124.155C93.4556 123.286 92.694 122.637 91.8264 122.706Z" fill="#BB631E"/>
<path d="M101.912 130.144C101.043 130.212 100.394 130.972 100.462 131.841C100.53 132.71 101.29 133.359 102.16 133.29C103.028 133.221 103.678 132.462 103.609 131.593C103.54 130.725 102.78 130.075 101.912 130.144Z" fill="#BB631E"/>
<path d="M107.555 101.203C106.687 101.272 106.037 102.033 106.107 102.9C106.175 103.769 106.935 104.418 107.803 104.35C108.672 104.282 109.321 103.522 109.252 102.653C109.184 101.784 108.425 101.134 107.555 101.203Z" fill="#BB631E"/>
<path d="M90.0132 95.6189C89.1442 95.688 88.4952 96.4474 88.5635 97.3172C88.6319 98.1855 89.392 98.8353 90.2611 98.7661C91.1294 98.6978 91.7784 97.9376 91.7093 97.0693C91.641 96.1995 90.8816 95.5513 90.0132 95.6189Z" fill="#BB631E"/>
<path d="M77.1492 105.181C76.2794 105.25 75.6319 106.01 75.7003 106.879C75.7686 107.748 76.528 108.396 77.3971 108.329C78.2654 108.26 78.9159 107.5 78.8461 106.632C78.7784 105.761 78.019 105.113 77.1492 105.181Z" fill="#BB631E"/>
<path d="M102.001 147.235C101.48 147.277 101.091 147.733 101.132 148.253C101.172 148.774 101.628 149.163 102.15 149.123C102.672 149.081 103.061 148.626 103.019 148.104C102.978 147.583 102.522 147.194 102.001 147.235Z" fill="#BB631E"/>
<path d="M109.22 138.434C108.699 138.475 108.309 138.931 108.351 139.451C108.391 139.973 108.848 140.362 109.37 140.321C109.89 140.279 110.281 139.824 110.24 139.303C110.198 138.782 109.742 138.393 109.22 138.434Z" fill="#BB631E"/>
<path d="M96.2985 91.0079C95.7772 91.05 95.3881 91.5052 95.4287 92.0265C95.47 92.547 95.9259 92.9369 96.4472 92.8948C96.9685 92.8542 97.3576 92.3983 97.3171 91.8778C97.275 91.3557 96.8198 90.9674 96.2985 91.0079Z" fill="#BB631E"/>
<path d="M107.803 108.466C107.281 108.507 106.891 108.963 106.933 109.484C106.974 110.005 107.43 110.394 107.95 110.353C108.472 110.312 108.861 109.857 108.821 109.335C108.78 108.814 108.323 108.425 107.803 108.466Z" fill="#BB631E"/>
<path d="M82.9835 143.033C81.5924 143.143 80.5558 144.358 80.664 145.748C80.7737 147.137 81.989 148.176 83.3809 148.068C84.7705 147.958 85.8086 146.742 85.6989 145.352C85.5885 143.962 84.3731 142.923 82.9835 143.033Z" fill="#BB631E"/>
<path d="M110.354 152.909C108.964 153.018 107.926 154.234 108.035 155.624C108.144 157.014 109.361 158.052 110.751 157.944C112.142 157.833 113.181 156.618 113.071 155.227C112.961 153.837 111.745 152.799 110.354 152.909Z" fill="#BB631E"/>
<path d="M94.1795 148.484C93.4832 148.538 92.9641 149.147 93.0197 149.842C93.0745 150.537 93.6822 151.056 94.3778 151.001C95.0726 150.947 95.5924 150.338 95.5383 149.644C95.482 148.949 94.8728 148.43 94.1795 148.484Z" fill="#BB631E"/>
<path d="M101.085 139.708C100.738 139.736 100.479 140.038 100.506 140.386C100.534 140.735 100.837 140.994 101.184 140.966C101.531 140.939 101.792 140.635 101.765 140.287C101.736 139.939 101.433 139.681 101.085 139.708Z" fill="#BB631E"/>
<path d="M99.5696 104.365C98.5277 104.447 97.7496 105.36 97.8299 106.402C97.9125 107.445 98.8244 108.224 99.8663 108.141C100.91 108.059 101.689 107.147 101.607 106.104C101.523 105.062 100.612 104.284 99.5696 104.365Z" fill="#BB631E"/>
<path d="M103.064 120.554C102.543 120.596 102.153 121.052 102.194 121.574C102.236 122.094 102.692 122.485 103.212 122.443C103.734 122.402 104.124 121.945 104.083 121.424C104.041 120.904 103.586 120.513 103.064 120.554Z" fill="#BB631E"/>
<path d="M85.7321 109.573C85.2108 109.614 84.8217 110.069 84.8623 110.591C84.9036 111.112 85.3595 111.501 85.8801 111.46C86.4021 111.419 86.7905 110.964 86.7499 110.441C86.7101 109.92 86.2542 109.531 85.7321 109.573Z" fill="#BB631E"/>
<path d="M246.794 131.259C218.13 101.207 174.679 99.8903 165.968 100.057C157.254 99.8903 113.166 101.207 84.5023 131.259C77.4762 138.625 79.1152 150.182 90.658 151.83C93.2524 157.437 99.1384 165.107 105.987 165.107H165.967H225.308C232.157 165.107 238.04 157.437 240.637 151.83C252.179 150.183 253.818 138.625 246.794 131.259Z" fill="#EFA765"/>
<path d="M165.964 141.305H89.7955C89.4312 142.613 89.2344 143.986 89.2344 145.404C89.2344 154.213 96.7345 165.106 105.984 165.106H165.964V141.305H165.964Z" fill="#C87217"/>
<path d="M165.966 100.057C157.253 99.8903 113.164 101.207 84.5007 131.259C77.1718 138.941 79.2645 151.193 92.1931 151.993C97.1417 152.298 102.466 145.137 107.421 144.95C113.497 144.718 120.041 149.295 125.82 152.037C130.482 154.25 136.738 155.329 141.642 152.95C146.715 150.488 148.735 146.481 155.299 147.663C157.996 148.148 159.508 150.713 161.931 151.373C163.305 151.748 164.763 151.724 165.966 151.469V100.057Z" fill="#D88436"/>
<path d="M165.965 141.305H241.492C241.857 142.613 242.054 143.986 242.054 145.404C242.054 154.213 234.555 165.106 225.306 165.106H165.965V141.305Z" fill="#DF9140"/>
<path d="M165.967 100.057C174.679 99.8903 218.129 101.207 246.793 131.259C254.121 138.941 252.029 151.193 239.1 151.993C234.152 152.298 228.828 145.137 223.872 144.95C217.796 144.718 211.255 149.295 205.475 152.037C200.812 154.25 194.556 155.329 189.652 152.95C184.58 150.488 182.56 146.481 175.996 147.663C173.299 148.148 168.388 150.713 165.967 151.373C164.592 151.748 167.168 151.724 165.967 151.469V100.057Z" fill="#EFA765"/>
<path d="M145.4 110.536L137.598 132.377C135.921 137.072 143.569 139.548 145.246 134.854L153.045 113.013C154.721 108.317 147.075 105.844 145.4 110.536Z" fill="#AD5E19"/>
<path d="M128.015 109.497L111.112 126.022C107.477 129.577 113.262 134.94 116.898 131.388L133.803 114.863C137.435 111.309 131.649 105.946 128.015 109.497Z" fill="#AD5E19"/>
<path d="M186.816 110.536L194.615 132.377C196.293 137.072 188.646 139.548 186.97 134.854L179.168 113.013C177.492 108.317 185.14 105.844 186.816 110.536Z" fill="#C87217"/>
<path d="M204.19 109.497L221.094 126.022C224.728 129.577 218.941 134.94 215.306 131.388L198.405 114.863C194.77 111.309 200.555 105.946 204.19 109.497Z" fill="#C87217"/>
<path d="M161.617 113.037V136.106C161.617 141.065 169.693 141.065 169.693 136.106V113.037C169.693 108.08 161.617 108.08 161.617 113.037Z" fill="#C87217"/>
<path d="M165.974 109.329C164.025 109.409 161.617 110.642 161.617 113.037V136.106C161.617 138.503 164.025 139.737 165.974 139.816V109.329Z" fill="#AD5E19"/>
<mask id="mask0_503_10921" style="mask-type:luminance" maskUnits="userSpaceOnUse" x="0" y="138" width="151" height="71">
<path d="M8.60995 198.024C27.716 211.326 136.998 216.043 148.103 187.997C163.331 149.538 92.2572 138.353 75.032 138.353C33.9723 138.353 0.686152 157.21 0.67188 180.478C0.667373 189.161 3.77485 194.655 8.60995 198.024Z" fill="white"/>
</mask>
<g mask="url(#mask0_503_10921)">
<path d="M8.60995 198.024C27.716 211.326 136.998 216.043 148.103 187.997C163.331 149.538 92.2572 138.353 75.032 138.353C33.9723 138.353 0.686152 157.21 0.67188 180.478C0.667373 189.161 3.77485 194.655 8.60995 198.024Z" fill="#E2841F"/>
</g>
<mask id="mask1_503_10921" style="mask-type:luminance" maskUnits="userSpaceOnUse" x="0" y="138" width="151" height="71">
<path d="M8.60995 198.024C27.716 211.326 136.998 216.043 148.103 187.997C163.331 149.538 92.2572 138.353 75.032 138.353C33.9723 138.353 0.686152 157.21 0.67188 180.478C0.667373 189.161 3.77485 194.655 8.60995 198.024Z" fill="white"/>
</mask>
<g mask="url(#mask1_503_10921)">
<path d="M42.7363 126.335C45.1933 129.946 15.9791 157.282 19.414 181.448C29.3231 154.831 54.2085 126.265 54.8056 126.274L42.7363 126.335Z" fill="#FFA131"/>
</g>
<mask id="mask2_503_10921" style="mask-type:luminance" maskUnits="userSpaceOnUse" x="0" y="138" width="151" height="71">
<path d="M8.60995 198.024C27.716 211.326 136.998 216.043 148.103 187.997C163.331 149.538 92.2572 138.353 75.032 138.353C33.9723 138.353 0.686152 157.21 0.67188 180.478C0.667373 189.161 3.77485 194.655 8.60995 198.024Z" fill="white"/>
</mask>
<g mask="url(#mask2_503_10921)">
<path d="M67.9756 127.801C70.2156 131.55 39.4465 157.121 41.4535 181.448C52.9107 155.459 79.4321 128.406 80.0277 128.451L67.9756 127.801Z" fill="#FFA131"/>
</g>
<mask id="mask3_503_10921" style="mask-type:luminance" maskUnits="userSpaceOnUse" x="0" y="138" width="151" height="71">
<path d="M8.60995 198.024C27.716 211.326 136.998 216.043 148.103 187.997C163.331 149.538 92.2572 138.353 75.032 138.353C33.9723 138.353 0.686152 157.21 0.67188 180.478C0.667373 189.161 3.77485 194.655 8.60995 198.024Z" fill="white"/>
</mask>
<g mask="url(#mask3_503_10921)">
<path d="M94.9364 128.895C97.026 132.729 65.2677 157.061 66.3103 181.448C78.7875 155.934 106.36 129.953 106.954 130.021L94.9364 128.895Z" fill="#FFA131"/>
</g>
<mask id="mask4_503_10921" style="mask-type:luminance" maskUnits="userSpaceOnUse" x="0" y="138" width="151" height="71">
<path d="M8.60995 198.024C27.716 211.326 136.998 216.043 148.103 187.997C163.331 149.538 92.2572 138.353 75.032 138.353C33.9723 138.353 0.686152 157.21 0.67188 180.478C0.667373 189.161 3.77485 194.655 8.60995 198.024Z" fill="white"/>
</mask>
<g mask="url(#mask4_503_10921)">
<path d="M121.6 128.895C123.69 132.729 91.9318 157.061 92.9743 181.448C105.452 155.934 133.025 129.953 133.618 130.021L121.6 128.895Z" fill="#FFA131"/>
</g>
<mask id="mask5_503_10921" style="mask-type:luminance" maskUnits="userSpaceOnUse" x="0" y="138" width="151" height="71">
<path d="M8.60995 198.024C27.716 211.326 136.998 216.043 148.103 187.997C163.331 149.538 92.2572 138.353 75.032 138.353C33.9723 138.353 0.686152 157.21 0.67188 180.478C0.667373 189.161 3.77485 194.655 8.60995 198.024Z" fill="white"/>
</mask>
<g mask="url(#mask5_503_10921)">
<path d="M106.65 122.671C104.622 126.539 136.768 150.357 136.118 174.758C123.232 149.448 95.2442 123.913 94.6523 123.991L106.65 122.671Z" fill="#FFA131"/>
</g>
<mask id="mask6_503_10921" style="mask-type:luminance" maskUnits="userSpaceOnUse" x="0" y="138" width="151" height="71">
<path d="M8.60995 198.024C27.716 211.326 136.998 216.043 148.103 187.997C163.331 149.538 92.2572 138.353 75.032 138.353C33.9723 138.353 0.686152 157.21 0.67188 180.478C0.667373 189.161 3.77485 194.655 8.60995 198.024Z" fill="white"/>
</mask>
<g mask="url(#mask6_503_10921)">
<path d="M81.7426 127.011C79.9466 130.992 113.436 152.879 114.222 177.276C99.8699 152.767 70.4304 128.922 69.8438 129.033L81.7426 127.011Z" fill="#FFA131"/>
</g>
<mask id="mask7_503_10921" style="mask-type:luminance" maskUnits="userSpaceOnUse" x="0" y="138" width="151" height="71">
<path d="M8.60995 198.024C27.716 211.326 136.998 216.043 148.103 187.997C163.331 149.538 92.2572 138.353 75.032 138.353C33.9723 138.353 0.686152 157.21 0.67188 180.478C0.667373 189.161 3.77485 194.655 8.60995 198.024Z" fill="white"/>
</mask>
<g mask="url(#mask7_503_10921)">
<path d="M55.0868 131.18C53.4486 135.228 87.7795 155.77 89.532 180.117C74.2199 156.196 43.8587 133.537 43.2773 133.672L55.0868 131.18Z" fill="#FFA131"/>
</g>
<mask id="mask8_503_10921" style="mask-type:luminance" maskUnits="userSpaceOnUse" x="0" y="138" width="151" height="71">
<path d="M8.60995 198.024C27.716 211.326 136.998 216.043 148.103 187.997C163.331 149.538 92.2572 138.353 75.032 138.353C33.9723 138.353 0.686152 157.21 0.67188 180.478C0.667373 189.161 3.77485 194.655 8.60995 198.024Z" fill="white"/>
</mask>
<g mask="url(#mask8_503_10921)">
<path d="M28.5922 134.227C26.954 138.276 61.285 158.818 63.0374 183.165C47.7253 159.244 17.3634 136.585 16.7812 136.72L28.5922 134.227Z" fill="#FFA131"/>
</g>
<path opacity="0.3" d="M77.2894 138.408C76.4653 138.373 75.7059 138.354 75.0359 138.354C33.9762 138.354 0.69006 157.211 0.675788 180.478C0.67053 189.162 3.77875 194.655 8.6131 198.024C17.7493 204.385 47.5073 208.779 77.2886 208.57V138.408H77.2894Z" fill="#8E4B0E"/>
<path opacity="0.5" d="M268.761 153.719H240.746H235.029H207.015C207.015 153.719 205.648 179.795 226.387 192.098H235.029H240.746H249.387C270.129 179.795 268.761 153.719 268.761 153.719Z" fill="#D9E6EE"/>
<path d="M268.761 153.719H240.746H235.029H207.015C207.015 153.719 205.648 179.795 226.387 192.098H235.029H240.746H249.387C270.129 179.795 268.761 153.719 268.761 153.719Z" fill="#EABF8C"/>
<path d="M208.207 165.401C210.068 173.938 214.742 185.189 226.388 192.098H249.388C261.035 185.189 265.71 173.937 267.571 165.401H208.207Z" fill="#9B6539"/>
<path d="M211.512 175.356C214.344 181.483 218.941 187.679 226.392 192.099H249.392C256.842 187.68 261.44 181.483 264.273 175.356H211.512Z" fill="#80522E"/>
<path d="M273.152 153.719H269.167C268.896 155.464 268.944 157.278 268.947 159.054H273.153C275.026 159.054 276.565 160.509 276.7 162.35L275.118 169.284C273.94 173.046 272.026 173.532 270.486 173.532H265.517C264.659 175.352 263.655 177.078 262.488 178.701C263.031 178.805 263.592 178.864 264.165 178.864H270.486C273.203 178.864 278.086 177.812 280.246 170.757C280.265 170.693 280.281 170.633 280.296 170.568L281.975 163.202C282.02 163.008 282.042 162.809 282.042 162.609C282.041 157.708 278.053 153.719 273.152 153.719Z" fill="#6EBEBF" stroke="#673E20" stroke-width="2" stroke-miterlimit="10" stroke-linecap="round" stroke-linejoin="round"/>
<path d="M249.636 186.337H243.918H235.277C220.641 177.655 218.681 162.115 217.814 153.719H207.015C207.015 153.719 205.648 179.795 226.387 192.098H235.029H240.746H249.387C252.242 190.405 254.677 188.449 256.755 186.336H249.636V186.337Z" fill="#C3D1D9"/>
<path d="M268.761 153.719H240.746H235.029H207.015C207.015 153.719 205.648 179.795 226.387 192.098H235.029H240.746H249.387C270.129 179.795 268.761 153.719 268.761 153.719Z" stroke="#673E20" stroke-width="2" stroke-miterlimit="10"/>
<path d="M252.828 161.165C252.983 161.025 253.141 160.886 253.302 160.751C255.273 159.101 258.648 156.545 261.369 156.776C261.434 156.781 261.487 156.763 261.534 156.738C261.545 156.741 261.552 156.747 261.565 156.748C269.717 157.59 261.114 173.964 257.592 176.673C254.287 179.215 251.951 175.751 250.819 173.01C249.069 168.768 249.301 164.383 252.828 161.165Z" fill="white"/>
<path d="M268.661 158.066H252.906" stroke="#673E20" stroke-width="2" stroke-miterlimit="10" stroke-linecap="round" stroke-linejoin="round"/>
<path d="M241.547 158.066H247.734" stroke="#673E20" stroke-width="2" stroke-miterlimit="10" stroke-linecap="round" stroke-linejoin="round"/>
<path d="M230.242 170.672H218.59" stroke="#673E20" stroke-width="2" stroke-miterlimit="10" stroke-linecap="round" stroke-linejoin="round"/>
<path d="M210.191 170.672H214.769" stroke="#673E20" stroke-width="2" stroke-miterlimit="10" stroke-linecap="round" stroke-linejoin="round"/>
<path d="M208.59 191.541H267.185L262.041 197.379H214.111L208.59 191.541Z" fill="#6EBEBF" stroke="#673E20" stroke-width="2" stroke-miterlimit="10" stroke-linecap="round" stroke-linejoin="round"/>
<path d="M268.726 153.719C267.414 150.358 264.163 147.962 260.335 147.935C259.378 147.929 258.456 148.073 257.588 148.341C257.739 147.606 257.82 146.843 257.82 146.062C257.82 139.864 252.795 134.839 246.595 134.839C241.497 134.839 237.199 138.24 235.831 142.896C234.015 139.813 230.67 137.737 226.833 137.737C221.091 137.737 216.435 142.37 216.389 148.101C216.046 148.059 215.699 148.032 215.346 148.029C211.511 148.002 208.224 150.363 206.875 153.718H268.726V153.719Z" fill="white"/>
<path d="M232.974 151.244C233.211 151.246 233.444 151.263 233.674 151.292C233.704 147.448 236.826 144.341 240.678 144.341C243.251 144.341 245.494 145.732 246.713 147.8C247.631 144.678 250.513 142.395 253.932 142.395C255.206 142.395 256.405 142.714 257.455 143.274C256.214 138.426 251.829 134.839 246.595 134.839C241.497 134.839 237.199 138.241 235.831 142.897C234.015 139.813 230.67 137.738 226.833 137.738C221.091 137.738 216.435 142.371 216.389 148.102C216.046 148.06 215.699 148.032 215.346 148.029C211.511 148.003 208.224 150.364 206.875 153.719H228.055C229.17 152.211 230.954 151.229 232.974 151.244Z" fill="#F9DDB6"/>
<path d="M268.726 153.719C267.414 150.358 264.163 147.962 260.335 147.935C259.378 147.929 258.456 148.073 257.588 148.341C257.739 147.606 257.82 146.843 257.82 146.062C257.82 139.864 252.795 134.839 246.595 134.839C241.497 134.839 237.199 138.24 235.831 142.896C234.015 139.813 230.67 137.737 226.833 137.737C221.091 137.737 216.435 142.37 216.389 148.101C216.046 148.059 215.699 148.032 215.346 148.029C211.511 148.002 208.224 150.363 206.875 153.718H268.726V153.719Z" stroke="#673E20" stroke-width="2" stroke-miterlimit="10" stroke-linecap="round" stroke-linejoin="round"/>
<path d="M202.141 204.156C202.141 205.922 194.055 207.352 184.082 207.352C174.108 207.352 166.023 205.922 166.023 204.156C166.023 202.391 174.109 200.961 184.082 200.961C194.055 200.961 202.141 202.392 202.141 204.156Z" fill="#CBE9FC" stroke="#673E20" stroke-width="2" stroke-miterlimit="10" stroke-linecap="round" stroke-linejoin="round"/>
<path d="M202.141 203.158C202.141 204.924 194.055 206.354 184.082 206.354C174.108 206.354 166.023 204.923 166.023 203.158C166.023 201.393 174.109 199.963 184.082 199.963C194.055 199.963 202.141 201.393 202.141 203.158Z" fill="#CBE9FC" stroke="#673E20" stroke-width="2" stroke-miterlimit="10" stroke-linecap="round" stroke-linejoin="round"/>
<path d="M144.214 100.633C144.48 99.6659 145.479 99.0951 146.448 99.3602L163.332 103.989C166.717 104.916 169.939 108.335 170.666 111.768L180.225 156.905L176.668 157.657L167.111 112.522C166.664 110.413 164.45 108.064 162.371 107.494L145.487 102.867C144.517 102.602 143.948 101.602 144.214 100.633Z" fill="#CBE9FC" stroke="#673E20" stroke-width="2" stroke-miterlimit="10" stroke-linecap="round" stroke-linejoin="round"/>
<path d="M144.696 99.8149C146.228 101.383 148.336 102.478 150.351 103.287C152.789 104.262 155.358 105.133 157.906 105.778C160.579 106.454 164.008 106.788 166.106 108.769C167.566 110.148 168.102 111.763 168.431 113.702C168.75 115.582 169.279 117.335 169.846 119.152C171.091 123.136 171.646 127.217 172.363 131.317C172.73 133.414 173.122 135.516 173.688 137.57C173.97 138.593 174.32 139.589 174.508 140.634C174.875 142.678 175.122 144.742 175.493 146.785C175.966 149.396 176.722 155.26 180.038 156.024L180.224 156.904L176.668 157.657L167.11 112.521C166.663 110.412 164.449 108.063 162.37 107.494L145.486 102.866C144.518 102.6 143.948 101.6 144.214 100.632C144.302 100.311 144.473 100.033 144.696 99.8149Z" fill="#CCCCCC"/>
<path d="M166.526 112.422C166.621 112.866 167.056 113.15 167.501 113.056L170.379 112.446C170.824 112.352 171.108 111.915 171.014 111.471C170.919 111.027 170.483 110.743 170.039 110.837L167.159 111.447C166.716 111.541 166.431 111.978 166.526 112.422Z" fill="#CBE9FC" stroke="#673E20" stroke-width="2" stroke-miterlimit="10" stroke-linecap="round" stroke-linejoin="round"/>
<path d="M165.992 111.115C166.209 111.513 166.71 111.659 167.108 111.441L169.691 110.029C170.088 109.809 170.235 109.311 170.017 108.912C169.8 108.514 169.299 108.367 168.901 108.585L166.318 109.997C165.92 110.216 165.774 110.716 165.992 111.115Z" fill="#CBE9FC" stroke="#673E20" stroke-width="2" stroke-miterlimit="10" stroke-linecap="round" stroke-linejoin="round"/>
<path d="M164.949 109.411C165.167 109.809 165.667 109.956 166.065 109.737L168.648 108.326C169.046 108.107 169.192 107.608 168.974 107.21C168.756 106.811 168.256 106.664 167.857 106.882L165.276 108.295C164.878 108.513 164.73 109.013 164.949 109.411Z" fill="#CBE9FC" stroke="#673E20" stroke-width="2" stroke-miterlimit="10" stroke-linecap="round" stroke-linejoin="round"/>
<path d="M163.809 108.492C164.102 108.838 164.621 108.881 164.967 108.587L167.212 106.684C167.557 106.389 167.6 105.87 167.307 105.524C167.013 105.178 166.494 105.135 166.148 105.428L163.902 107.332C163.558 107.625 163.515 108.145 163.809 108.492Z" fill="#CBE9FC" stroke="#673E20" stroke-width="2" stroke-miterlimit="10" stroke-linecap="round" stroke-linejoin="round"/>
<path d="M164.956 132.319C164.534 131.635 164.322 130.834 164.398 129.996C164.561 128.184 166.009 126.746 167.869 126.339C167.868 126.299 167.863 126.26 167.863 126.22C167.863 123.419 170.387 121.148 173.499 121.148C174.03 121.148 174.541 121.22 175.027 121.342C175.652 120.363 176.823 119.701 178.17 119.701C178.252 119.701 178.333 119.707 178.414 119.712C179.093 117.761 181.118 116.345 183.51 116.345C185.952 116.345 188.007 117.821 188.644 119.834C188.967 119.748 189.308 119.701 189.663 119.701C191.128 119.701 192.387 120.485 192.958 121.611C193.672 121.317 194.463 121.148 195.299 121.148C198.413 121.148 200.937 123.419 200.937 126.22C200.937 126.458 200.913 126.691 200.877 126.92C201.719 127.299 202.299 128.08 202.299 128.984C202.299 129.252 202.247 129.508 202.153 129.747C203.255 130.498 203.971 131.684 203.971 133.022C203.971 135.292 201.927 137.13 199.404 137.13C196.883 137.13 167.394 136.744 165.978 136.744C164.561 136.744 163.414 135.71 163.414 134.436C163.413 133.488 164.047 132.675 164.956 132.319Z" fill="#F7DAA2" stroke="#673E20" stroke-width="2" stroke-miterlimit="10" stroke-linecap="round" stroke-linejoin="round"/>
<path d="M186.793 121.813C185.996 121.71 185.571 120.298 184.875 119.948C183.325 119.166 181.529 118.91 179.628 121.569C178.382 121.457 175.887 121.934 174.8 124.33C172.873 122.907 171.242 123.282 169.262 123.975C170.271 123.111 171.628 122.573 173.132 122.573C173.663 122.573 174.173 122.643 174.659 122.766C175.284 121.786 176.456 121.124 177.803 121.124C177.884 121.124 178.851 120.841 178.932 120.846C179.611 118.894 180.75 117.768 183.144 117.768C185.525 117.768 187.536 119.175 188.224 121.115C187.871 121.577 187.423 121.894 186.793 121.813Z" fill="white"/>
<path d="M164.958 132.319C164.536 131.635 164.324 130.834 164.4 129.996C164.529 128.559 165.468 127.36 166.778 126.72C166.177 127.601 166.277 128.55 167.593 128.593C166.326 130.847 169.012 134.606 173.817 133.394C174.904 136.454 184.403 137.789 186.201 133.045C190.954 135.411 197.937 133.944 196.596 128.311C197.761 126.593 198.805 124.519 199.036 122.431C200.2 123.36 200.937 124.712 200.937 126.221C200.937 126.459 200.913 126.692 200.877 126.921C201.719 127.299 202.299 128.081 202.299 128.985C202.299 129.253 202.247 129.509 202.153 129.748C203.255 130.499 203.971 131.685 203.971 133.023C203.971 135.292 201.927 137.131 199.404 137.131C196.883 137.131 167.394 136.745 165.978 136.745C164.561 136.745 163.414 135.711 163.414 134.437C163.414 133.488 164.049 132.675 164.958 132.319Z" fill="#E8D3CB"/>
<path d="M183.905 202.959C177.512 202.959 174.826 200.473 174.826 200.473C174.826 200.473 185.701 196.866 178.22 183.96C174.336 182.362 165.272 175.197 165.272 165.317C165.272 153.144 170.35 147.276 164.82 137.768H203.259C197.729 147.275 202.806 153.144 202.806 165.317C202.806 175.63 192.931 182.984 189.38 184.136C180.908 195.867 192.595 200.473 192.595 200.473C192.595 200.473 191.405 201.762 188.349 202.483" fill="#CBE9FC"/>
<path d="M183.905 202.959C177.512 202.959 174.826 200.473 174.826 200.473C174.826 200.473 185.701 196.866 178.22 183.96C174.336 182.362 165.272 175.197 165.272 165.317C165.272 153.144 170.35 147.276 164.82 137.768H203.259C197.729 147.275 202.806 153.144 202.806 165.317C202.806 175.63 192.931 182.984 189.38 184.136C180.908 195.867 192.595 200.473 192.595 200.473C192.595 200.473 191.405 201.762 188.349 202.483" stroke="#673E20" stroke-width="2" stroke-miterlimit="10" stroke-linecap="round" stroke-linejoin="round"/>
<path d="M199.506 149.723C199.935 153.894 201.341 158.299 201.341 164.452C201.341 173.958 192.239 180.736 188.966 181.798C185.888 182.92 181.405 183.566 178.679 181.636C175.1 180.163 166.746 173.559 166.746 164.452C166.746 158.299 168.151 153.893 168.582 149.723H199.506Z" fill="#683C11"/>
<path d="M164.863 139.526H202.798C203.902 139.526 203.902 136.954 202.798 136.954H164.863C163.759 136.954 163.759 139.526 164.863 139.526Z" fill="#CBE9FC" stroke="#673E20" stroke-width="2" stroke-miterlimit="10" stroke-linecap="round" stroke-linejoin="round"/>
<path d="M186.188 138.921C189.537 138.675 192.964 138.855 196.195 138.057C196.573 137.964 196.878 137.826 197.122 137.659H202.797C203.905 137.659 203.905 139.527 202.797 139.527H180.277C182.247 139.31 184.211 139.067 186.188 138.921Z" fill="#CCCCCC"/>
<path d="M177.41 155.366C177.41 155.836 177.79 156.216 178.26 156.216C178.728 156.216 179.108 155.836 179.108 155.366C179.108 154.898 178.728 154.517 178.26 154.517C177.79 154.517 177.41 154.898 177.41 155.366Z" fill="white"/>
<path d="M172.895 160.342C172.895 161.824 174.096 163.026 175.579 163.026C177.062 163.026 178.264 161.824 178.264 160.342C178.264 158.86 177.062 157.657 175.579 157.657C174.096 157.657 172.895 158.86 172.895 160.342Z" fill="white"/>
<path d="M174.113 156.097C174.113 156.501 174.441 156.827 174.844 156.827C175.248 156.827 175.575 156.5 175.575 156.097C175.575 155.695 175.248 155.366 174.844 155.366C174.44 155.366 174.113 155.694 174.113 156.097Z" fill="white"/>
<path d="M169.918 159.711C169.918 160.374 170.454 160.91 171.116 160.91C171.778 160.91 172.315 160.374 172.315 159.711C172.315 159.049 171.778 158.512 171.116 158.512C170.454 158.512 169.918 159.049 169.918 159.711Z" fill="white"/>
<path d="M174.414 164.456C174.414 164.924 174.794 165.304 175.263 165.304C175.732 165.304 176.111 164.924 176.111 164.456C176.111 163.986 175.732 163.606 175.263 163.606C174.794 163.606 174.414 163.986 174.414 164.456Z" fill="white"/>
<path d="M171.59 164.654C171.59 165.012 171.881 165.304 172.24 165.304C172.597 165.304 172.889 165.012 172.889 164.654C172.889 164.296 172.597 164.004 172.24 164.004C171.881 164.005 171.59 164.296 171.59 164.654Z" fill="white"/>
<path d="M173.789 168.832C173.789 169.677 174.475 170.363 175.319 170.363C176.165 170.363 176.85 169.677 176.85 168.832C176.85 167.986 176.164 167.302 175.319 167.302C174.474 167.302 173.789 167.986 173.789 168.832Z" fill="white"/>
<path opacity="0.4" d="M171.593 160.811C168.237 174.238 181.83 183.981 179.111 183.981C159.133 171.996 168.262 157.014 168.961 151.221C169.66 145.429 167.453 140.18 170.172 140.18C172.891 140.18 174.294 150.008 171.593 160.811Z" fill="#FACDBD"/>
<path opacity="0.4" d="M175.832 160.998C173.002 174.547 183.954 183.549 183.954 183.549C183.954 183.549 168.274 175.166 175.379 154.794C176.155 150.569 174.691 140.53 174.691 140.53C174.691 140.53 178.109 150.099 175.832 160.998Z" fill="#FACDBD"/>
<path d="M181.909 192.921C181.909 196.424 179.637 197.864 180.226 197.864C180.815 197.864 184.041 196.424 184.041 192.921C184.041 189.417 180.815 185.18 180.226 185.18C179.637 185.181 181.909 189.417 181.909 192.921Z" fill="white"/>
<path d="M185.646 192.273C186.347 198.763 190.87 200.561 190.543 200.561C190.437 200.561 188.244 202.233 187.497 201.81C187.211 201.647 188.316 200.56 187.997 200.313C186.543 199.187 185.118 196.167 184.899 192.521C184.69 189.024 187.173 184.931 187.5 184.931C187.828 184.93 185.269 188.792 185.646 192.273Z" fill="#C2DDED"/>
<path d="M167.336 202.959C167.336 203.538 171.451 204.856 173.363 204.856C175.276 204.856 170.117 203.687 170.117 203.108C170.117 202.529 175.874 201.361 173.963 201.361C172.051 201.36 167.336 202.379 167.336 202.959Z" fill="white"/>
<path d="M201.335 203.008C201.335 203.587 194.58 205.38 192.668 205.38C190.756 205.38 197.013 203.737 197.013 203.158C197.013 202.579 192.797 201.41 194.708 201.41C196.621 201.409 201.335 202.429 201.335 203.008Z" fill="#C2DDED"/>
<path d="M199.982 151.221C207.947 172.855 190.255 182.869 188.342 182.869C186.431 182.869 200.076 171.544 191.393 152.062C190.775 150.675 186.199 140.18 186.199 140.18C186.199 140.18 198.971 140.18 200.083 140.18C201.994 140.18 199.084 144.73 199.982 151.221Z" fill="#CCCCCC"/>
<path d="M165.488 138.029C165.488 138.266 172.085 138.458 180.223 138.458C188.361 138.458 194.957 138.266 194.957 138.029C194.957 137.793 188.361 137.601 180.223 137.601C172.085 137.601 165.488 137.792 165.488 138.029Z" fill="white"/>
<path d="M147.677 100.409C147.613 100.627 151.234 101.871 155.765 103.187C160.295 104.504 164.019 105.393 164.082 105.176C164.145 104.958 160.524 103.715 155.994 102.399C151.464 101.081 147.74 100.191 147.677 100.409Z" fill="white"/>
<path d="M164.093 107.934C164.166 108.02 164.789 107.622 165.485 107.042C166.181 106.463 166.687 105.922 166.614 105.836C166.541 105.748 165.918 106.148 165.222 106.727C164.526 107.307 164.021 107.847 164.093 107.934Z" fill="white"/>
<path d="M165.402 108.932C165.458 109.031 166.143 108.748 166.929 108.299C167.716 107.851 168.308 107.407 168.252 107.309C168.196 107.211 167.512 107.494 166.726 107.942C165.938 108.391 165.346 108.834 165.402 108.932Z" fill="white"/>
<path d="M166.629 110.651C166.685 110.749 167.369 110.466 168.155 110.018C168.941 109.568 169.535 109.125 169.478 109.026C169.422 108.928 168.739 109.212 167.952 109.66C167.165 110.109 166.573 110.553 166.629 110.651Z" fill="white"/>
<path d="M167.153 112.136C167.173 112.248 167.911 112.21 168.803 112.052C169.695 111.893 170.402 111.674 170.382 111.563C170.362 111.451 169.623 111.488 168.732 111.647C167.839 111.806 167.132 112.025 167.153 112.136Z" fill="white"/>
<path d="M190.454 128.3C190.342 127.861 190.098 127.513 189.812 127.244C189.52 126.979 189.179 126.788 188.829 126.679C188.478 126.58 188.125 126.539 187.824 126.617C187.526 126.698 187.287 126.832 187.106 127.059C186.881 127.344 186.466 127.392 186.182 127.166C186.049 127.061 185.968 126.915 185.943 126.759L185.924 126.643C185.813 125.979 185.39 125.535 184.77 125.41C184.154 125.288 183.525 125.523 183.237 126.06L183.202 126.127C183.034 126.439 182.646 126.556 182.333 126.389L182.311 126.377C182.016 126.204 181.705 126.082 181.375 126.051C181.045 126.022 180.697 126.087 180.362 126.234C180.033 126.389 179.716 126.626 179.478 126.94C179.242 127.252 179.07 127.645 179.119 128.098C178.866 127.715 178.85 127.171 179.012 126.707C179.17 126.237 179.471 125.807 179.879 125.487C180.279 125.156 180.798 124.941 181.346 124.893C181.897 124.831 182.458 124.962 182.94 125.194L182.014 125.511C182.239 124.947 182.694 124.43 183.263 124.166C183.826 123.89 184.46 123.824 185.058 123.938C185.654 124.053 186.232 124.364 186.643 124.844C187.06 125.322 187.272 125.945 187.295 126.522L186.112 126.106C186.533 125.7 187.124 125.423 187.697 125.418C188.268 125.403 188.801 125.558 189.234 125.836C189.672 126.106 190.03 126.48 190.256 126.918C190.487 127.352 190.566 127.862 190.454 128.3Z" fill="#673E20"/>
<path d="M183 126.025C183 126.357 183.776 125.749 184.523 125.79C185.915 125.868 186.128 126.964 186.128 126.632C186.128 126.302 185.976 125.228 184.563 125.191C183.816 125.171 183 125.694 183 126.025Z" fill="white"/>
<path d="M186.668 127.531C186.668 127.862 187.444 127.253 188.191 127.295C189.583 127.374 189.795 128.469 189.795 128.138C189.795 127.806 189.643 126.733 188.231 126.696C187.483 126.676 186.668 127.199 186.668 127.531Z" fill="white"/>
<path d="M179.375 128.187C179.608 128.423 179.732 127.444 180.293 126.949C181.338 126.025 182.259 126.657 182.027 126.421C181.794 126.185 180.932 125.528 179.901 126.495C179.355 127.006 179.141 127.952 179.375 128.187Z" fill="white"/>
</svg>
