<svg width="407" height="103" viewBox="0 0 407 103" fill="none" xmlns="http://www.w3.org/2000/svg">
<path opacity="0.95" d="M0.761719 0.000978051C2.27392 5.01838 9.19465 10.1121 21.2202 12.5135C31.4535 14.557 42.8872 14.4771 54.0234 14.927C62.346 15.2635 69.5322 17.17 72.9944 19.8962C76.1072 22.3475 81.4492 24.2931 88.5441 25.2542C94.2035 26.0207 101.028 26.1544 107.915 26.1051C112.262 26.3125 116.518 26.6842 120.466 27.6081C122.915 28.1809 125.22 28.9917 126.127 30.0959C127.079 31.2529 126.322 32.558 124.803 33.6058C122.05 35.5058 118.28 36.3303 117.242 38.6578C115.574 42.4001 120.215 45.9769 129.005 47.1857C135.153 48.0314 142.355 47.307 148.761 47.4964C154.971 47.6796 168.266 49.4551 165.666 53.0501C164.847 54.1824 162.296 54.9286 159.82 55.5125C157.526 56.0531 155.07 56.6125 153.402 57.4856C152.402 58.0085 151.75 58.6791 151.965 59.3406C152.265 60.2665 154.132 60.9609 156.023 61.4682C162.56 63.2225 171.74 64.3603 179.443 65.2383C184.177 65.7778 196.251 67.1719 193.287 69.7396C191.214 71.5356 179.749 72.5704 175.413 73.361C171.346 74.1023 162.749 75.322 162.712 77.4055C162.677 79.4428 170.966 80.1108 175.257 80.3693C183.826 80.8851 192.921 80.8825 201.587 81.1348C204.009 81.2052 206.499 81.2825 208.672 81.6715C209.548 81.8283 210.395 82.0509 210.774 82.374C211.609 83.0847 209.775 83.8593 207.782 84.1541C204.125 84.6953 200.116 84.9502 196.36 85.3939C188.152 86.3641 177.627 87.678 178.743 91.4624C179.381 93.6271 186.002 94.6199 190.822 95.4075C195.535 96.1776 203.139 97.1334 204.421 99.2085C205.077 100.269 203.971 101.342 203.021 102.332C202.914 102.444 202.768 102.58 202.629 102.726C202.984 102.744 203.339 102.763 203.695 102.778C206.03 102.766 208.365 102.77 210.7 102.775C213.288 100.815 212.385 98.4395 209.103 96.6506C205.261 94.5566 198.856 93.2698 193.034 92.0182C192.243 91.8481 191.525 91.6332 190.997 91.3626C187.407 89.5252 196.24 88.3147 199.435 87.7967C204.637 86.9539 234.209 84.2708 228.544 80.622C225.158 78.4409 212.633 77.6712 206.489 77.4919C200.635 77.3214 194.662 77.5959 188.788 77.561C187.57 77.5539 186.234 77.5248 185.346 77.2269C184.043 76.7903 184.439 75.9701 185.689 75.5143C188.302 74.5617 193.97 74.0746 197.46 73.6968C200.836 73.3313 204.457 73.1142 207.725 72.6336C211.377 72.0967 216.856 71.2895 216.956 69.6255C217.073 67.6824 214.304 66.941 220.135 65.7305C224.037 64.9201 228.349 64.5389 232.614 64.0594C238.925 63.35 245.56 62.9196 250.971 61.4675C252.861 60.9603 254.728 60.2655 255.028 59.3396C255.243 58.6781 254.592 58.0075 253.592 57.4846C251.924 56.6115 249.468 56.0521 247.174 55.5115C244.697 54.928 242.146 54.1814 241.327 53.0491C238.727 49.4542 252.022 47.6787 258.232 47.4954C264.639 47.3063 271.841 48.0304 277.989 47.1847C286.779 45.9755 291.421 42.3988 289.752 38.6568C288.714 36.3294 284.944 35.5049 282.191 33.6048C280.672 32.557 279.915 31.2523 280.866 30.0949C281.774 28.9907 284.079 28.1799 286.527 27.6071C289.623 26.883 292.906 26.498 296.275 26.2652C304.333 26.2668 312.413 26.0709 318.451 25.2529C325.545 24.2918 330.887 22.3462 333.999 19.8952C337.462 17.169 344.648 15.2622 352.97 14.926C364.106 14.4761 375.54 14.556 385.774 12.5125C397.799 10.1111 404.72 5.0174 406.232 0L0.761719 0.000978051ZM2.39614 0.000978051C1.81515 0.000978051 1.69385 0.000978051 2.27848 0.000978051C2.85946 0.000978051 2.98077 0.000978051 2.39614 0.000978051Z" fill="#E4E4E7"/>
</svg>
