<svg width="78" height="69" viewBox="0 0 78 69" fill="none" xmlns="http://www.w3.org/2000/svg">
<path d="M75.2309 16.1674C72.6055 12.4849 67.3142 12.8526 61.8008 13.0166V21.91C63.9879 21.6386 66.3506 21.0849 67.741 22.138C70.4969 24.2255 70.1903 34.8085 68.2787 37.4285C66.9418 39.2609 64.3221 39.3208 61.8008 39.2957V48.8145C61.9944 48.8129 62.1902 48.8097 62.3904 48.803C72.6951 48.4604 77.1274 43.4694 77.4128 34.4235C77.5897 28.8157 78.6242 20.9265 75.2309 16.1674Z" fill="#FAD7D8"/>
<path d="M31.0824 13.0839C48.048 13.0839 61.8014 10.2669 61.8014 6.79194C61.8014 3.317 48.048 0.5 31.0824 0.5C14.1167 0.5 0.363281 3.317 0.363281 6.79194C0.363281 10.2669 14.1167 13.0839 31.0824 13.0839Z" fill="#FCE7EF"/>
<path d="M31.0864 11.0518C46.1041 11.0518 58.2783 9.14453 58.2783 6.79177C58.2783 4.43902 46.1041 2.53174 31.0864 2.53174C16.0688 2.53174 3.89453 4.43902 3.89453 6.79177C3.89453 9.14453 16.0688 11.0518 31.0864 11.0518Z" fill="#DCADC3"/>
<path d="M7.52734 8.92174C12.229 10.195 21.0159 11.0517 31.0806 11.0517C41.1453 11.0517 49.9321 10.195 54.6338 8.92174C49.9321 7.64845 41.1453 6.79175 31.0806 6.79175C21.0159 6.79175 12.229 7.64845 7.52734 8.92174Z" fill="#582F28"/>
<path d="M54.7539 10.804V61.4958C59.1596 60.4068 61.8082 59.0088 61.8082 57.484V6.79272C61.8076 8.31731 59.159 9.7151 54.7539 10.804Z" fill="#D9DADD"/>
<path d="M36.6775 12.9786C34.8628 13.0471 32.994 13.0841 31.0823 13.0841C14.1175 13.0841 0.364699 10.2674 0.363281 6.79272V57.484C0.363281 60.9589 14.1167 63.776 31.0823 63.776C32.9939 63.776 34.8627 63.739 36.6775 63.6704V12.9786Z" fill="#D9DADD"/>
<path d="M22.0316 12.8058C9.48483 12.0145 0.364446 9.62215 0.363281 6.79272V57.484C0.363281 60.3136 9.48407 62.7062 22.0316 63.4976V12.8058Z" fill="#D9DADD"/>
<path d="M31.0816 63.7757C19.9058 63.7757 10.1249 62.5532 4.75 60.7256V63.3745C4.75 66.3531 16.5391 68.7678 31.0816 68.7678C45.6242 68.7678 57.4132 66.3531 57.4132 63.3745V60.7256C52.0383 62.5532 42.2574 63.7757 31.0816 63.7757Z" fill="#E8B3B9"/>
<path d="M71.4981 23.9941C71.2872 23.0824 70.9447 22.1412 70.3242 21.4061C69.7481 20.7236 68.9695 20.4321 68.13 20.1519C67.3496 19.8914 66.537 19.583 65.9164 19.0429C65.466 18.6509 65.3033 18.139 65.2812 17.5698C65.2654 17.1627 65.2956 16.7536 65.3229 16.3475C65.3509 15.9303 65.4053 15.5103 65.5117 15.1043C65.6614 14.5333 65.9341 13.9818 66.4105 13.5951C66.7783 13.2964 67.2214 13.1096 67.6762 12.9648C65.8291 12.8683 63.83 12.9563 61.8008 13.0166V21.9098C63.9879 21.6384 66.3506 21.0847 67.741 22.1378C70.4969 24.2253 70.1903 34.8083 68.2787 37.4283C66.9418 39.2607 64.3221 39.3206 61.8008 39.2955V48.8143C61.9944 48.8127 62.1902 48.8095 62.3904 48.8028C64.1966 48.7428 65.8185 48.5367 67.2731 48.1943C66.5802 47.7689 65.9457 47.2811 65.5893 46.5475C65.2113 45.7692 65.1716 44.8856 65.186 44.0408C65.1976 43.358 65.2818 42.6574 65.6034 42.0387C65.8979 41.4721 66.3851 41.0355 66.9206 40.677C67.663 40.1798 68.5217 39.8645 69.2378 39.3313C70.6426 38.2855 71.3077 36.7001 71.5786 35.0598C71.8666 33.3149 71.7712 31.5394 71.8005 29.7805C71.8325 27.8544 71.9367 25.8889 71.4981 23.9941Z" fill="#F1C2CA"/>
</svg>
