<svg width="54" height="82" viewBox="0 0 54 82" fill="none" xmlns="http://www.w3.org/2000/svg">
<path d="M52.1766 81.9996H1.82205L0.216797 81.0811H53.7819L52.1766 81.9996Z" fill="#634032"/>
<path d="M53.7817 8.13379H0.216797V81.0814H53.7817V8.13379Z" fill="#915139"/>
<path d="M52.1768 9.48633H1.82227V79.7277H52.1768V9.48633Z" fill="#C78A75"/>
<path d="M26.9995 32.09C17.7871 32.09 9.17211 29.5346 1.82227 25.0957V63.129H52.1768V25.0957C44.8271 29.5346 36.2119 32.09 26.9995 32.09Z" fill="#BF7F69"/>
<path d="M26.9995 51.5265C17.7871 51.5265 9.17211 48.9711 1.82227 44.5322V79.727H52.1768V44.5322C44.8271 48.9712 36.2119 51.5265 26.9995 51.5265Z" fill="#B5725C"/>
<path d="M26.9995 68.0265C17.7871 68.0265 9.17211 65.4711 1.82227 61.0322V79.7284H52.1768V61.0322C44.8271 65.4711 36.2119 68.0265 26.9995 68.0265Z" fill="#AD664E"/>
<path d="M10.7312 8.6817C10.7312 8.68155 10.7312 8.68155 10.7312 8.6817C10.7304 8.68562 10.7298 8.68968 10.7291 8.69374C10.6999 8.84357 10.6774 8.99586 10.6623 9.15033C10.6619 9.15425 10.6619 9.15832 10.6615 9.16209C10.6544 9.23759 10.6484 9.31337 10.6448 9.38959C10.6409 9.47016 10.6387 9.55132 10.6387 9.63291C10.6387 11.6731 11.8847 13.4128 13.6356 14.0912L15.2637 15.259H37.6954L39.3233 14.0912C41.0742 13.4128 42.3201 11.673 42.3201 9.63291C42.3201 9.55132 42.3181 9.47002 42.3142 9.38945C42.311 9.32615 42.3058 9.26386 42.3004 9.20129C42.2988 9.18431 42.2981 9.16688 42.2968 9.1499C42.2904 9.08645 42.2821 9.02403 42.2735 8.96146C42.2712 8.94549 42.2699 8.92908 42.2674 8.91311C42.2602 8.86331 42.251 8.81395 42.242 8.76474C42.2372 8.73715 42.2333 8.70913 42.2278 8.6817C42.2278 8.68184 42.2278 8.68199 42.2277 8.68213C42.1909 8.49499 42.1426 8.31221 42.0854 8.13379H10.8736C10.8162 8.31192 10.768 8.49471 10.7312 8.6817Z" fill="#915139"/>
<path d="M49.917 77.8227H4.07812L4.81854 12.8594H49.1765L49.917 77.8227Z" fill="#915139"/>
<path d="M48.4786 76.7623H5.51959L5.21094 13.1689H48.7874L48.4786 76.7623Z" fill="#B0B0B0"/>
<path d="M48.7874 13.1689H5.21094V76.0457H48.7874V13.1689Z" fill="white"/>
<path d="M12.166 13.1689C12.5915 13.5643 13.0886 13.8793 13.6349 14.091L15.263 15.2588H37.6948L39.3227 14.091C39.869 13.8793 40.3662 13.5643 40.7914 13.1689H12.166Z" fill="#D5D6D9"/>
<path d="M39.0182 13.541H13.9453L15.6786 14.7483H37.2849L39.0182 13.541Z" fill="#12B3B2"/>
<path d="M37.2839 5.03191H32.4721C32.4721 2.25275 30.2194 0 27.4402 0H25.5212C22.7422 0 20.4893 2.25289 20.4893 5.03191H15.6775C13.2171 5.03191 11.2227 7.02624 11.2227 9.4866C11.2227 11.9468 13.2171 13.9413 15.6775 13.9413H37.2838C39.7443 13.9413 41.7386 11.9468 41.7386 9.4866C41.7386 7.02624 39.7444 5.03191 37.2839 5.03191ZM26.4807 7.60609C24.9364 7.60609 23.6847 6.35435 23.6847 4.81008C23.6847 3.26581 24.9364 2.01407 26.4807 2.01407C28.0248 2.01407 29.2766 3.26595 29.2766 4.81008C29.2767 6.35435 28.0248 7.60609 26.4807 7.60609Z" fill="#24D1D0"/>
<path d="M15.799 5.62402H15.678C13.5487 5.62402 11.8164 7.35645 11.8164 9.48579C11.8164 9.5186 11.818 9.55098 11.8189 9.58364C13.1447 8.26295 14.4713 6.94298 15.799 5.62402Z" fill="#5CEBEA"/>
<path d="M20.5258 5.62469L13.4863 12.664C14.1093 13.0949 14.8639 13.3479 15.6771 13.3479H16.441C18.779 11.01 21.117 8.672 23.4548 6.33418C23.2228 5.87556 23.0912 5.35799 23.0912 4.80994C23.0912 2.94105 24.6116 1.42073 26.4803 1.42073C27.0284 1.42073 27.5461 1.55241 28.0047 1.7844C28.3151 1.47401 28.6255 1.16347 28.936 0.852935C28.4681 0.684962 27.9646 0.592773 27.4397 0.592773H25.5576L21.0818 5.06836L20.5258 5.62469Z" fill="#5CEBEA"/>
<path d="M29.3829 3.065L30.564 1.88411C30.2923 1.61437 29.9855 1.37918 29.6517 1.18652L28.6387 2.19973C28.9328 2.44334 29.1848 2.73646 29.3829 3.065Z" fill="#5CEBEA"/>
<path d="M24.7335 7.71338C24.4048 7.51492 24.1118 7.26317 23.8682 6.96875C21.7415 9.09534 19.6149 11.2219 17.4883 13.3487H19.0982C20.9765 11.4703 22.855 9.59171 24.7335 7.71338Z" fill="#5CEBEA"/>
<path d="M40.6773 7.64899C40.3718 7.08772 39.9321 6.60965 39.4004 6.25977C37.0272 8.62662 34.6508 10.9899 32.2695 13.3483H34.9781C36.8778 11.4486 38.7775 9.5488 40.6773 7.64899Z" fill="#5CEBEA"/>
<path d="M36.1251 5.62402H33.1864C30.612 8.19849 28.0372 10.773 25.4629 13.3474H28.402L36.1251 5.62402Z" fill="#5CEBEA"/>
<path d="M37.2838 12.162H15.6775C13.5219 12.162 11.724 10.6308 11.3117 8.59668C11.2534 8.88413 11.2227 9.18161 11.2227 9.48634C11.2227 11.9465 13.2171 13.941 15.6775 13.941H37.2838C39.7443 13.941 41.7386 11.9465 41.7386 9.48634C41.7386 9.18161 41.7078 8.88428 41.6496 8.59668C41.2373 10.6306 39.4393 12.162 37.2838 12.162Z" fill="#12B3B2"/>
<path d="M37.2838 13.4774H15.6775C13.2951 13.4774 11.3495 11.6072 11.2286 9.25488C11.2248 9.33139 11.2227 9.40863 11.2227 9.48615C11.2227 11.9464 13.2171 13.9408 15.6775 13.9408H37.2838C39.7443 13.9408 41.7386 11.9464 41.7386 9.48615C41.7386 9.40863 41.7364 9.33168 41.7325 9.25503C41.6117 11.6072 39.6662 13.4774 37.2838 13.4774Z" fill="#0E8585"/>
<path d="M26.4814 2.54082C27.9364 2.54082 29.1311 3.65275 29.2641 5.07332C29.2722 4.98636 29.2774 4.89853 29.2774 4.80968C29.2774 3.26541 28.0257 2.01367 26.4816 2.01367C24.9373 2.01367 23.6855 3.26555 23.6855 4.80968C23.6855 4.89853 23.6908 4.98636 23.6988 5.07332C23.8317 3.65275 25.0263 2.54082 26.4814 2.54082Z" fill="#449998"/>
<path d="M17.9023 24.7068C17.9023 25.5259 17.2386 26.1895 16.4195 26.1895H11.3577C10.5388 26.1895 9.875 25.5257 9.875 24.7068V19.6448C9.875 18.826 10.5388 18.1621 11.3577 18.1621H16.4197C17.2388 18.1621 17.9024 18.826 17.9024 19.6448V24.7068H17.9023Z" fill="#BBBCBF"/>
<path d="M17.449 24.4219C17.449 25.1484 16.8603 25.7373 16.1337 25.7373H11.6434C10.9168 25.7373 10.3281 25.1486 10.3281 24.4219V19.9315C10.3281 19.2051 10.917 18.6162 11.6434 18.6162H16.1337C16.8603 18.6162 17.449 19.2051 17.449 19.9315V24.4219Z" fill="#E6E7EB"/>
<path d="M13.6443 25.5464C13.3787 25.5464 13.113 25.445 12.9103 25.2424L9.0208 21.3529C8.61546 20.9475 8.61546 20.2904 9.0208 19.885C9.42629 19.4796 10.0834 19.4796 10.4887 19.885L13.6443 23.0406L18.2831 18.4017C18.6884 17.9963 19.3457 17.9963 19.751 18.4017C20.1563 18.807 20.1563 19.4641 19.751 19.8696L14.3782 25.2424C14.1754 25.445 13.9099 25.5464 13.6443 25.5464Z" fill="#E0092F"/>
<path d="M19.7508 18.5764L14.378 23.9492C14.1753 24.1518 13.9096 24.2532 13.6441 24.2532C13.3784 24.2532 13.1127 24.1518 12.9101 23.9492L9.02056 20.0597C8.99283 20.0319 8.96728 20.0025 8.94318 19.9724C8.61755 20.3801 8.6431 20.9756 9.02056 21.3532L12.9101 25.2427C13.1127 25.4454 13.3784 25.5467 13.6441 25.5467C13.9096 25.5467 14.1753 25.4454 14.378 25.2427L19.7508 19.8699C20.1282 19.4923 20.1538 18.8968 19.8281 18.4893C19.804 18.5193 19.7786 18.5486 19.7508 18.5764Z" fill="#C40829"/>
<path d="M17.9023 35.948C17.9023 36.7671 17.2386 37.4307 16.4195 37.4307H11.3577C10.5388 37.4307 9.875 36.767 9.875 35.948V30.886C9.875 30.0671 10.5388 29.4033 11.3577 29.4033H16.4197C17.2388 29.4033 17.9024 30.0671 17.9024 30.886V35.948H17.9023Z" fill="#BBBCBF"/>
<path d="M17.449 35.6631C17.449 36.3898 16.8603 36.9786 16.1337 36.9786H11.6434C10.9168 36.9786 10.3281 36.3898 10.3281 35.6631V31.1727C10.3281 30.4463 10.917 29.8574 11.6434 29.8574H16.1337C16.8603 29.8574 17.449 30.4463 17.449 31.1727V35.6631Z" fill="#E6E7EB"/>
<path d="M13.6443 36.7874C13.3787 36.7874 13.113 36.6861 12.9103 36.4834L9.0208 32.5941C8.61546 32.1886 8.61546 31.5315 9.0208 31.1262C9.42629 30.721 10.0834 30.721 10.4887 31.1262L13.6443 34.2818L18.2831 29.6429C18.6884 29.2375 19.3457 29.2375 19.751 29.6429C20.1563 30.0482 20.1563 30.7053 19.751 31.1106L14.3782 36.4834C14.1754 36.6861 13.9099 36.7874 13.6443 36.7874Z" fill="#E0092F"/>
<path d="M19.7508 29.8177L14.378 35.1905C14.1753 35.393 13.9096 35.4945 13.6441 35.4945C13.3784 35.4945 13.1127 35.393 12.9101 35.1905L9.02056 31.301C8.99283 31.2731 8.96728 31.244 8.94318 31.2138C8.61755 31.6213 8.6431 32.217 9.02056 32.5946L12.9101 36.4839C13.1127 36.6866 13.3784 36.7879 13.6441 36.7879C13.9096 36.7879 14.1753 36.6866 14.378 36.4839L19.7508 31.1111C20.1282 30.7337 20.1538 30.138 19.8281 29.7305C19.804 29.7605 19.7786 29.7897 19.7508 29.8177Z" fill="#C40829"/>
<path d="M17.9023 47.1912C17.9023 48.0103 17.2386 48.674 16.4195 48.674H11.3577C10.5388 48.674 9.875 48.0103 9.875 47.1912V42.1292C9.875 41.3102 10.5388 40.6465 11.3577 40.6465H16.4197C17.2388 40.6465 17.9024 41.3104 17.9024 42.1292V47.1912H17.9023Z" fill="#BBBCBF"/>
<path d="M17.449 46.9063C17.449 47.6329 16.8603 48.2218 16.1337 48.2218H11.6434C10.9168 48.2218 10.3281 47.6329 10.3281 46.9063V42.4158C10.3281 41.6894 10.917 41.1006 11.6434 41.1006H16.1337C16.8603 41.1006 17.449 41.6894 17.449 42.4158V46.9063Z" fill="#E6E7EB"/>
<path d="M13.6443 48.0307C13.3787 48.0307 13.113 47.9294 12.9103 47.7267L9.0208 43.8374C8.61546 43.4319 8.61546 42.7747 9.0208 42.3696C9.42629 41.9643 10.0834 41.9643 10.4887 42.3696L13.6443 45.5251L18.2831 40.886C18.6884 40.4807 19.3457 40.4807 19.751 40.886C20.1563 41.2915 20.1563 41.9486 19.751 42.3539L14.3782 47.7267C14.1754 47.9294 13.9099 48.0307 13.6443 48.0307Z" fill="#E0092F"/>
<path d="M19.7508 41.0596L14.378 46.4326C14.1753 46.6352 13.9096 46.7366 13.6441 46.7366C13.3784 46.7366 13.1127 46.6352 12.9101 46.4326L9.02056 42.5431C8.99283 42.5152 8.96728 42.486 8.94318 42.4557C8.61755 42.8636 8.6431 43.459 9.02056 43.8368L12.9101 47.7261C13.1127 47.9288 13.3784 48.0301 13.6441 48.0301C13.9096 48.0301 14.1753 47.9288 14.378 47.7261L19.7508 42.3533C20.1282 41.9757 20.1538 41.3802 19.8281 40.9727C19.804 41.0027 19.7786 41.032 19.7508 41.0596Z" fill="#C40829"/>
<path d="M17.9023 58.4321C17.9023 59.2513 17.2386 59.9152 16.4195 59.9152H11.3577C10.5388 59.9152 9.875 59.2515 9.875 58.4321V53.3704C9.875 52.5515 10.5388 51.8877 11.3577 51.8877H16.4197C17.2388 51.8877 17.9024 52.5515 17.9024 53.3704V58.4321H17.9023Z" fill="#BBBCBF"/>
<path d="M17.449 58.1459C17.449 58.8722 16.8603 59.4613 16.1337 59.4613H11.6434C10.9168 59.4613 10.3281 58.8722 10.3281 58.1459V53.6553C10.3281 52.9287 10.917 52.3398 11.6434 52.3398H16.1337C16.8603 52.3398 17.449 52.9287 17.449 53.6553V58.1459Z" fill="#E6E7EB"/>
<path d="M17.9023 69.6744C17.9023 70.4935 17.2386 71.1573 16.4195 71.1573H11.3577C10.5388 71.1573 9.875 70.4935 9.875 69.6744V64.6125C9.875 63.7935 10.5388 63.1299 11.3577 63.1299H16.4197C17.2388 63.1299 17.9024 63.7935 17.9024 64.6125V69.6744H17.9023Z" fill="#BBBCBF"/>
<path d="M17.449 69.3889C17.449 70.1153 16.8603 70.7041 16.1337 70.7041H11.6434C10.9168 70.7041 10.3281 70.1153 10.3281 69.3889V64.8983C10.3281 64.1717 10.917 63.583 11.6434 63.583H16.1337C16.8603 63.583 17.449 64.1717 17.449 64.8983V69.3889Z" fill="#E6E7EB"/>
</svg>
