<svg width="259" height="168" viewBox="0 0 259 168" fill="none" xmlns="http://www.w3.org/2000/svg">
<path d="M50.4591 140.658C50.4591 140.658 50.3648 140.321 50.1404 139.732C49.8632 139.175 49.5122 138.315 48.7516 137.453C47.9996 136.602 47.0073 135.594 45.5839 134.866C44.1753 134.111 42.398 133.673 40.5918 133.647C38.7878 133.666 36.9344 134.127 35.5485 135.059C34.1325 135.973 33.3952 137.253 33.0141 138.326C32.6114 139.422 32.8238 140.395 32.9777 140.994C33.0981 141.298 33.2004 141.524 33.2935 141.671C33.3782 141.817 33.423 141.896 33.423 141.896C33.423 141.896 33.4253 141.808 33.4293 141.645C33.4259 141.486 33.4582 141.248 33.5111 140.963C33.5804 140.387 33.9149 139.617 34.4363 138.834C34.9458 138.035 35.8615 137.294 36.8992 136.781C37.9579 136.285 39.2558 135.981 40.5918 136.008C41.9322 135.987 43.2739 136.271 44.4667 136.704C45.66 137.155 46.7818 137.72 47.6287 138.355C48.4767 138.982 49.2356 139.531 49.6917 139.975C50.191 140.394 50.4591 140.658 50.4591 140.658Z" fill="#08697F"/>
<path d="M42.3799 129.592C42.3799 129.592 42.3378 129.532 42.26 129.419C42.1828 129.304 42.064 129.138 41.901 128.931C41.5426 128.557 41.0496 127.949 40.2408 127.438C39.4388 126.936 38.4459 126.34 37.227 125.985C36.0166 125.61 34.6607 125.403 33.1851 125.473C32.4541 125.537 31.6998 125.681 30.9932 125.95C30.2758 126.219 29.6294 126.63 29.1449 127.121C28.6416 127.602 28.3043 128.194 28.1549 128.788C28.0055 129.376 28.0538 129.991 28.2361 130.479C28.599 131.482 29.5147 131.941 30.0668 132.122C30.6762 132.274 31.0057 132.174 31.0017 132.191C31.0017 132.191 30.9324 132.157 30.8023 132.091C30.6796 132.018 30.5075 131.908 30.3502 131.731C29.9901 131.43 29.747 130.82 29.7464 130.222C29.726 129.629 30.2082 129.035 30.854 128.587C31.1937 128.366 31.5663 128.182 31.9883 128.057C32.4188 127.927 32.8977 127.848 33.4066 127.825C34.4199 127.729 35.5639 127.85 36.6061 127.988C37.6479 128.147 38.6646 128.315 39.495 128.594C40.3203 128.867 41.0803 129.067 41.5665 129.284C41.8272 129.373 42.0305 129.451 42.1669 129.507C42.306 129.563 42.3799 129.592 42.3799 129.592Z" fill="#08697F"/>
<path d="M56.1464 158.515C56.1242 158.392 53.8727 146.025 47.2805 132.355C41.1784 119.702 30.0013 103.305 11.409 97.0479L11.0068 97.9362C45.9394 109.694 54.9661 158.172 55.053 158.66L56.1464 158.515Z" fill="#08697F"/>
<path d="M53.7702 149.113C53.7026 148.906 47.182 128.373 58.8589 117.368L58.0433 116.725C45.9489 128.123 52.6371 149.16 52.7058 149.371L53.7702 149.113Z" fill="#08697F"/>
<path d="M50.3517 139.345C50.2693 139.143 41.9095 119.158 19.9756 119.759L20.0114 120.713C41.1262 120.133 49.2293 139.464 49.3082 139.66L50.3517 139.345Z" fill="#08697F"/>
<path d="M44.8755 127.686C44.7522 127.42 32.7646 100.921 50.8077 92.834L50.2987 91.9873C31.3582 100.471 43.7213 127.765 43.8485 128.04L44.8755 127.686Z" fill="#08697F"/>
<path d="M25.3442 104.535C25.3442 104.535 25.1363 104.347 24.7467 104.031C24.3332 103.763 23.7629 103.295 22.9291 102.959C22.1038 102.63 21.0768 102.224 19.8562 102.117C18.6339 101.984 17.2707 102.143 16.0029 102.577C14.7573 103.052 13.6019 103.832 12.934 104.845C12.2314 105.853 12.1706 106.948 12.2694 107.795C12.3609 108.668 12.8885 109.286 13.21 109.649C13.41 109.822 13.5662 109.943 13.6866 110.015C13.8002 110.088 13.861 110.127 13.861 110.127C13.861 110.127 13.8405 110.064 13.8013 109.947C13.7587 109.834 13.7224 109.659 13.6917 109.449C13.5883 109.037 13.6587 108.442 13.8081 107.827C13.9433 107.199 14.3943 106.548 14.918 106.025C15.4724 105.51 16.2011 105.038 17.0667 104.752C17.9136 104.419 18.8628 104.264 19.7846 104.191C20.7144 104.138 21.6624 104.114 22.4747 104.223C23.2824 104.327 24.0276 104.355 24.5246 104.445C25.0443 104.493 25.3442 104.535 25.3442 104.535Z" fill="#08697F"/>
<path d="M13.9331 98.4975C13.9331 98.4975 13.7252 98.3104 13.3355 97.9933C12.9215 97.7258 12.3518 97.2573 11.5179 96.9222C10.6926 96.5929 9.66569 96.1867 8.44563 96.0799C7.22329 95.9466 5.86009 96.1063 4.59232 96.54C3.34613 97.0153 2.19138 97.7944 1.52285 98.8077C0.82023 99.8161 0.759454 100.911 0.858286 101.758C0.949734 102.631 1.47741 103.249 1.79889 103.612C1.99883 103.785 2.1556 103.906 2.27601 103.978C2.38961 104.051 2.45039 104.09 2.45039 104.09C2.45039 104.09 2.42994 104.027 2.39075 103.91C2.34815 103.797 2.3118 103.622 2.28113 103.412C2.17775 103 2.24818 102.405 2.39757 101.79C2.53275 101.162 2.98374 100.51 3.50744 99.9881C4.06181 99.4731 4.79055 99.0012 5.65618 98.7151C6.50307 98.3819 7.4522 98.2266 8.37406 98.154C9.30388 98.1006 10.2519 98.0766 11.0641 98.1864C11.8718 98.2898 12.617 98.3177 13.114 98.4083C13.6332 98.4564 13.9331 98.4975 13.9331 98.4975Z" fill="#08697F"/>
<path d="M37.1713 116.491C37.1713 116.491 37.085 116.273 36.8856 115.899C36.6488 115.562 36.3449 115.007 35.7616 114.516C35.1822 114.035 34.4688 113.443 33.5339 113.035C32.6148 112.604 31.53 112.321 30.369 112.203C29.2131 112.135 27.9578 112.257 26.9127 112.733C25.8233 113.182 25.1445 114.006 24.7622 114.686C24.3527 115.391 24.4385 116.082 24.5112 116.485C24.5765 116.695 24.6458 116.847 24.7049 116.947C24.7605 117.045 24.7901 117.097 24.7901 117.097C24.7901 117.097 24.8088 117.041 24.8435 116.938C24.8758 116.837 24.9417 116.692 25.044 116.527C25.1871 116.183 25.5938 115.796 26.0368 115.431C26.4878 115.045 27.1552 114.806 27.8164 114.661C28.5105 114.525 29.2943 114.465 30.1236 114.554C30.9529 114.594 31.8134 114.775 32.6256 114.956C33.4277 115.154 34.2314 115.33 34.8726 115.595C35.5094 115.854 36.1296 116.03 36.5119 116.223C36.9356 116.378 37.1713 116.491 37.1713 116.491Z" fill="#08697F"/>
<path d="M40.2312 107.663C40.2312 107.663 40.3061 107.439 40.4118 107.037C40.4618 106.644 40.6214 106.053 40.5595 105.363C40.493 104.68 40.4447 103.85 40.155 103.01C39.8824 102.162 39.4575 101.317 38.8657 100.467C38.2312 99.6561 37.3832 98.8393 36.2813 98.3954C35.7616 98.1641 35.1277 98.0239 34.5796 98.0171C34.0229 98.0039 33.5163 98.0823 33.071 98.1901C32.1582 98.4066 31.6214 98.9785 31.363 99.3313C31.246 99.5302 31.1858 99.69 31.1596 99.8012C31.1324 99.9085 31.1182 99.9658 31.1182 99.9658C31.1182 99.9658 31.1727 99.932 31.2749 99.8683C31.3721 99.8061 31.5311 99.7287 31.7322 99.665C32.1002 99.4905 32.6944 99.4645 33.2925 99.5037C33.5958 99.518 33.9201 99.5969 34.2177 99.7169C34.525 99.8394 34.7562 99.9923 35.0476 100.181C35.5855 100.569 36.1137 101.091 36.5636 101.742C37.0577 102.361 37.4849 103.105 37.9177 103.771C38.3215 104.451 38.7805 105.084 39.0673 105.671C39.3553 106.253 39.7183 106.738 39.887 107.098C40.1136 107.452 40.2312 107.663 40.2312 107.663Z" fill="#08697F"/>
<path d="M41.5188 118.036C41.5188 118.036 41.6227 117.867 41.8045 117.572C41.9351 117.278 42.2373 116.876 42.4532 116.421C42.6656 115.96 43.041 115.484 43.3733 115.032C43.7238 114.593 44.0992 114.163 44.557 113.838C44.9745 113.478 45.4647 113.246 45.9231 113.075C46.3746 112.932 46.9432 112.804 47.426 112.875C47.8974 112.931 48.3899 112.999 48.683 113.157C48.8449 113.22 48.9789 113.283 49.0596 113.334C49.1459 113.385 49.1913 113.413 49.1913 113.413C49.1913 113.413 49.1874 113.365 49.18 113.274C49.1749 113.18 49.1493 113.048 49.0993 112.868C48.9511 112.56 48.6875 112.014 48.0445 111.659C47.4288 111.311 46.5558 110.947 45.5147 111.027C44.4832 111.078 43.4943 111.513 42.723 112.087C41.9874 112.695 41.4381 113.436 41.178 114.185C40.8923 114.921 40.9309 115.636 40.9411 116.199C40.9548 116.77 41.1865 117.235 41.2757 117.547C41.4308 117.858 41.5188 118.036 41.5188 118.036Z" fill="#08697F"/>
<path d="M42.7354 100.331C42.7354 100.331 42.7831 100.285 42.8728 100.2C42.9654 100.118 43.0818 99.9916 43.2664 99.8563C43.5612 99.5481 44.1184 99.2189 44.6915 98.8489C45.2737 98.4726 46.0581 98.2021 46.8409 97.9703C47.2413 97.8645 47.652 97.7812 48.066 97.717C48.4829 97.666 48.9027 97.645 49.3156 97.6646C49.7291 97.6724 50.1455 97.7219 50.5561 97.8013C50.9634 97.8934 51.3644 98.0041 51.7546 98.1355C52.5112 98.4226 53.2718 98.7396 53.8187 99.1532C54.3544 99.5609 54.8837 99.9245 55.149 100.251C55.3222 100.398 55.4284 100.532 55.5136 100.62C55.5954 100.71 55.6392 100.759 55.6392 100.759C55.6392 100.759 55.6414 100.698 55.646 100.584C55.6466 100.47 55.6659 100.294 55.6432 100.076C55.5704 99.6564 55.4801 98.9885 55.0161 98.3197C54.556 97.6675 53.9176 96.883 52.9332 96.3225C52.4521 96.0319 51.8978 95.7991 51.3059 95.6193C50.7078 95.4512 50.0705 95.3469 49.4201 95.3057C48.7681 95.3037 48.124 95.3665 47.5128 95.4949C46.9067 95.636 46.3336 95.8315 45.8281 96.0882C44.8 96.5861 44.0912 97.3211 43.5749 97.9414C43.0546 98.5789 42.9029 99.237 42.7939 99.651C42.7507 99.8666 42.7535 100.043 42.7439 100.156C42.7382 100.27 42.7354 100.331 42.7354 100.331Z" fill="#08697F"/>
<path d="M48.4961 93.684C48.4961 93.684 48.5608 93.6585 48.6818 93.6105C48.804 93.5659 48.9692 93.4894 49.2004 93.4272C49.6116 93.2439 50.2745 93.1293 50.9692 92.9833C51.6758 92.8343 52.5204 92.8515 53.3457 92.9029C53.762 92.9411 54.1778 93.0034 54.5879 93.0847C54.9946 93.1788 55.3899 93.3018 55.7614 93.4596C56.138 93.607 56.4986 93.7937 56.84 94.0054C57.1723 94.2279 57.4909 94.4655 57.7903 94.7184C58.3554 95.2383 58.9104 95.7875 59.2256 96.3535C59.5329 96.9096 59.8544 97.4236 59.9492 97.8142C60.0418 98.0077 60.0787 98.1665 60.1168 98.2763C60.1509 98.3875 60.1691 98.4468 60.1691 98.4468C60.1691 98.4468 60.1992 98.3919 60.2548 98.2885C60.3077 98.1836 60.4048 98.0288 60.4837 97.8205C60.6076 97.4099 60.8291 96.7651 60.7064 95.9924C60.5803 95.2368 60.3497 94.2989 59.6993 93.4502C59.3892 93.0205 58.9854 92.6187 58.5224 92.2527C58.0487 91.8955 57.5103 91.5838 56.9309 91.3261C56.3322 91.1031 55.7108 90.9429 55.0906 90.8542C54.4686 90.7783 53.8529 90.7645 53.2713 90.8297C52.0995 90.9395 51.1129 91.3761 50.3557 91.771C49.5872 92.1811 49.1482 92.7348 48.8596 93.0788C48.7222 93.2626 48.6443 93.4252 48.5841 93.5267C48.5262 93.6291 48.4961 93.684 48.4961 93.684Z" fill="#08697F"/>
<path d="M51.5305 132.166C51.5305 132.166 51.6202 131.984 51.7776 131.667C51.8724 131.349 52.1053 130.877 52.1502 130.311C52.1916 129.749 52.291 129.067 52.1831 128.357C52.1002 127.639 51.8775 126.915 51.568 126.167C51.2062 125.442 50.72 124.683 50.006 124.122C49.6686 123.836 49.2545 123.603 48.8467 123.445C48.4383 123.287 48.035 123.193 47.6664 123.128C46.9138 122.994 46.2702 123.205 45.9016 123.334C45.7136 123.423 45.5818 123.505 45.4978 123.566C45.4154 123.625 45.3711 123.657 45.3711 123.657C45.3711 123.657 45.608 123.674 45.9516 123.793C46.2969 123.858 46.7116 124.12 47.1194 124.369C47.5556 124.626 47.864 125.05 48.1799 125.478C48.4775 125.931 48.7848 126.442 49.0262 127.039C49.321 127.615 49.5663 128.26 49.8447 128.839C50.098 129.427 50.4371 129.975 50.6291 130.473C50.825 130.966 51.1244 131.383 51.2505 131.687C51.4282 131.991 51.5305 132.166 51.5305 132.166Z" fill="#08697F"/>
<path d="M51.6735 141.152C51.6735 141.152 51.7751 140.937 51.9768 140.581C52.1244 140.221 52.4596 139.735 52.7453 139.183C53.0264 138.623 53.5018 138.05 53.9716 137.497C54.4589 136.957 55.0093 136.43 55.6625 136.033C56.2805 135.599 56.9899 135.316 57.6721 135.126C58.3531 134.964 59.1046 134.849 59.7453 134.941C60.3758 135.021 60.9858 135.11 61.3675 135.28C61.572 135.348 61.7395 135.411 61.8446 135.464C61.9548 135.515 62.0133 135.543 62.0133 135.543C62.0133 135.543 61.9917 135.488 61.9503 135.386C61.9111 135.28 61.8378 135.133 61.7282 134.94C61.468 134.609 61.0523 134.047 60.2701 133.693C59.5124 133.343 58.4883 132.991 57.3165 133.07C56.1487 133.117 54.9809 133.546 54.0119 134.15C53.0758 134.793 52.3187 135.606 51.8836 136.467C51.4224 137.314 51.3264 138.177 51.2554 138.869C51.185 139.57 51.3787 140.156 51.4497 140.543C51.582 140.937 51.6735 141.152 51.6735 141.152Z" fill="#08697F"/>
<path d="M53.3018 124.442C53.3018 124.442 53.5108 124.269 53.8896 124.003C54.2185 123.709 54.8064 123.384 55.3926 122.974C55.9844 122.559 56.7666 122.198 57.5623 121.836C58.3689 121.486 59.2277 121.143 60.132 120.934C61.022 120.669 61.9331 120.547 62.7385 120.511C63.5445 120.502 64.2971 120.549 64.889 120.838C65.4655 121.111 65.9983 121.427 66.2465 121.755C66.5464 122.061 66.652 122.302 66.652 122.302C66.652 122.302 66.6674 122.241 66.6969 122.128C66.7236 122.012 66.7503 121.838 66.7514 121.604C66.6946 121.169 66.5435 120.436 65.871 119.815C65.2292 119.202 64.171 118.596 62.9623 118.441C61.7553 118.245 60.496 118.392 59.3339 118.676C58.1758 119.003 57.0858 119.491 56.2201 120.114C55.3301 120.712 54.728 121.473 54.2458 122.094C53.763 122.728 53.5829 123.362 53.4352 123.768C53.3347 124.199 53.3018 124.442 53.3018 124.442Z" fill="#08697F"/>
<path d="M57.1572 118.712C57.1572 118.712 57.3663 118.539 57.7451 118.273C58.074 117.979 58.6619 117.654 59.248 117.244C59.8399 116.829 60.622 116.468 61.4178 116.107C62.2249 115.756 63.0832 115.413 63.988 115.204C64.8781 114.939 65.7891 114.817 66.5946 114.781C67.4005 114.772 68.1537 114.82 68.745 115.108C69.3215 115.381 69.8543 115.697 70.1025 116.025C70.4024 116.331 70.5081 116.573 70.5081 116.573C70.5081 116.573 70.524 116.512 70.5529 116.398C70.5796 116.282 70.6063 116.108 70.6075 115.874C70.5507 115.439 70.3996 114.707 69.7271 114.086C69.0847 113.473 68.0265 112.866 66.8183 112.711C65.6113 112.516 64.3521 112.663 63.19 112.947C62.0318 113.273 60.9418 113.761 60.0762 114.384C59.1861 114.982 58.584 115.743 58.1018 116.364C57.619 116.997 57.439 117.632 57.2913 118.038C57.1902 118.47 57.1572 118.712 57.1572 118.712Z" fill="#08697F"/>
<path d="M17.9562 100.255C17.9562 100.255 17.8591 100.03 17.6892 99.6368C17.4785 99.2752 17.2604 98.7004 16.9003 98.1178C16.535 97.5347 16.2306 96.8125 15.9176 96.1103C15.6285 95.4047 15.3712 94.6677 15.307 93.9357C15.1849 93.2124 15.2792 92.5103 15.4706 91.9051C15.6842 91.322 16.0363 90.7085 16.5254 90.3219C16.9951 89.9324 17.4882 89.5933 17.9096 89.4688C18.1141 89.3885 18.2913 89.3292 18.4146 89.3052C18.5407 89.2758 18.6077 89.2606 18.6077 89.2606C18.6077 89.2606 18.5446 89.2346 18.4271 89.1856C18.3066 89.1312 18.1249 89.0734 17.8721 89.0087C17.3899 88.945 16.5617 88.8514 15.7069 89.1974C14.8742 89.5252 13.8836 90.0784 13.2798 91.0388C12.6562 91.9752 12.4773 93.1223 12.5869 94.1885C12.751 95.2513 13.1725 96.2494 13.7723 97.0477C14.3448 97.8547 15.0974 98.43 15.6813 98.9204C16.2732 99.4114 16.906 99.6932 17.2865 99.9328C17.7131 100.138 17.9562 100.255 17.9562 100.255Z" fill="#08697F"/>
<path d="M29.975 121.436C29.975 121.436 29.77 121.306 29.3849 121.095C28.9907 120.936 28.4181 120.623 27.653 120.493C26.8982 120.368 25.9513 120.211 24.9238 120.354C23.8878 120.472 22.8171 120.862 21.8822 121.442C20.9813 122.061 20.2168 122.888 19.8726 123.818C19.4932 124.743 19.6306 125.655 19.83 126.348C20.0277 127.062 20.5485 127.526 20.849 127.809C21.0353 127.939 21.179 128.03 21.2863 128.084C21.3886 128.139 21.4431 128.168 21.4431 128.168C21.4431 128.168 21.4278 128.114 21.3988 128.013C21.3676 127.916 21.3409 127.767 21.3187 127.588C21.229 127.243 21.2897 126.736 21.3625 126.222C21.4238 125.696 21.7402 125.136 22.0804 124.651C22.4513 124.172 22.925 123.692 23.5379 123.322C24.119 122.912 24.8131 122.616 25.5049 122.367C26.2075 122.136 26.9362 121.899 27.6031 121.815C28.2625 121.726 28.8663 121.573 29.2889 121.542C29.7194 121.466 29.975 121.436 29.975 121.436Z" fill="#08697F"/>
<path d="M23.0746 120.602C23.0746 120.602 22.8696 120.472 22.4845 120.261C22.0903 120.102 21.5172 119.789 20.7527 119.659C19.9978 119.534 19.0509 119.377 18.0234 119.52C16.9874 119.638 15.9161 120.028 14.9818 120.608C14.0809 121.227 13.3164 122.054 12.9722 122.984C12.5928 123.909 12.7302 124.821 12.9296 125.514C13.1273 126.228 13.6481 126.692 13.9486 126.975C14.1349 127.105 14.2786 127.196 14.3859 127.25C14.4882 127.305 14.5427 127.334 14.5427 127.334C14.5427 127.334 14.5274 127.28 14.4984 127.179C14.4672 127.082 14.4405 126.933 14.4183 126.754C14.3286 126.409 14.3894 125.902 14.4621 125.388C14.5234 124.862 14.8398 124.302 15.18 123.818C15.5509 123.338 16.0246 122.858 16.6375 122.488C17.2186 122.078 17.9127 121.782 18.6045 121.533C19.3071 121.302 20.0358 121.065 20.7027 120.981C21.3621 120.892 21.9659 120.739 22.3885 120.708C22.819 120.632 23.0746 120.602 23.0746 120.602Z" fill="#08697F"/>
<path d="M109.401 52.0099C109.401 52.0099 109.496 51.6723 109.72 51.0834C109.997 50.5267 110.348 49.6668 111.109 48.8049C111.861 47.9537 112.853 46.9458 114.277 46.2177C115.685 45.4621 117.462 45.025 119.269 44.999C121.073 45.0176 122.926 45.4787 124.312 46.4102C125.728 47.3246 126.465 48.6044 126.846 49.6771C127.25 50.7737 127.037 51.7468 126.883 52.3456C126.762 52.6494 126.66 52.8753 126.567 53.0223C126.482 53.1688 126.437 53.2472 126.437 53.2472C126.437 53.2472 126.435 53.16 126.431 52.9968C126.435 52.8371 126.402 52.5994 126.349 52.3142C126.28 51.739 125.946 50.9687 125.424 50.1852C124.915 49.387 123.999 48.6456 122.962 48.1326C121.903 47.6362 120.605 47.3329 119.269 47.3598C117.929 47.3383 116.587 47.6225 115.394 48.0556C114.201 48.5064 113.079 49.0714 112.232 49.7069C111.385 50.3332 110.625 50.8825 110.169 51.3264C109.669 51.7453 109.401 52.0099 109.401 52.0099Z" fill="#08697F"/>
<path d="M117.48 40.9437C117.48 40.9437 117.522 40.8834 117.6 40.7702C117.678 40.6551 117.796 40.4894 117.959 40.2822C118.318 39.9083 118.811 39.3002 119.62 38.7896C120.422 38.2869 121.415 37.6915 122.633 37.3358C123.844 36.9614 125.2 36.7547 126.675 36.8252C127.406 36.8884 128.161 37.0325 128.867 37.3015C129.585 37.5705 130.231 37.9816 130.716 38.4731C131.219 38.9533 131.557 39.5462 131.705 40.1401C131.855 40.7281 131.807 41.3425 131.624 41.8306C131.261 42.8341 130.346 43.2932 129.794 43.474C129.184 43.6259 128.855 43.526 128.859 43.5431C128.859 43.5431 128.928 43.5083 129.059 43.4427C129.181 43.3702 129.353 43.2599 129.511 43.083C129.871 42.7822 130.114 42.1721 130.114 41.5733C130.135 40.9809 129.653 40.387 129.007 39.9387C128.667 39.7182 128.295 39.5339 127.873 39.409C127.442 39.2791 126.963 39.1998 126.454 39.1772C125.441 39.0812 124.297 39.2022 123.255 39.3399C122.213 39.4987 121.196 39.6672 120.366 39.9455C119.541 40.2185 118.781 40.4184 118.294 40.636C118.034 40.7246 117.831 40.8026 117.694 40.8589C117.554 40.9143 117.48 40.9437 117.48 40.9437Z" fill="#08697F"/>
<path d="M103.714 69.867C103.735 69.7435 105.988 57.3764 112.58 43.7068C118.682 31.0536 129.859 14.6572 148.451 8.39941L148.853 9.28778C113.921 21.0453 104.894 69.5235 104.807 70.0115L103.714 69.867Z" fill="#08697F"/>
<path d="M106.091 60.4642C106.158 60.2579 112.679 39.7245 101.002 28.72L101.818 28.0762C113.912 39.4741 107.224 60.5117 107.155 60.7224L106.091 60.4642Z" fill="#08697F"/>
<path d="M109.509 50.6963C109.591 50.4939 117.951 30.5088 139.885 31.111L139.849 32.0645C118.734 31.4849 110.631 50.8159 110.552 51.0114L109.509 50.6963Z" fill="#08697F"/>
<path d="M114.985 39.0373C115.108 38.7713 127.096 12.2726 109.053 4.18461L109.562 3.33789C128.502 11.8213 116.139 39.1157 116.012 39.3906L114.985 39.0373Z" fill="#08697F"/>
<path d="M134.517 15.8862C134.517 15.8862 134.724 15.699 135.114 15.3825C135.528 15.1149 136.098 14.6465 136.932 14.3109C137.757 13.9816 138.784 13.5754 140.004 13.4685C141.226 13.3353 142.59 13.495 143.857 13.9287C145.103 14.404 146.258 15.1831 146.926 16.1964C147.629 17.2048 147.69 18.2999 147.591 19.1467C147.499 20.0198 146.971 20.6372 146.65 20.9998C146.45 21.1728 146.294 21.2938 146.173 21.3659C146.059 21.4389 145.999 21.4781 145.999 21.4781C145.999 21.4781 146.019 21.4154 146.058 21.2983C146.101 21.1856 146.137 21.0101 146.168 20.7999C146.271 20.3883 146.201 19.793 146.052 19.1775C145.916 18.5498 145.465 17.8981 144.942 17.3763C144.387 16.8613 143.659 16.3894 142.793 16.1033C141.946 15.7701 140.997 15.6147 140.075 15.5422C139.145 15.4888 138.197 15.4648 137.385 15.5746C136.577 15.678 135.832 15.7059 135.335 15.7965C134.817 15.845 134.517 15.8862 134.517 15.8862Z" fill="#08697F"/>
<path d="M145.928 9.84812C145.928 9.84812 146.136 9.66094 146.525 9.3444C146.939 9.07686 147.509 8.60842 148.343 8.27277C149.168 7.94349 150.195 7.53728 151.416 7.43046C152.638 7.29718 154.001 7.45692 155.269 7.89057C156.515 8.36587 157.67 9.14497 158.339 10.1578C159.041 11.1662 159.102 12.2614 159.003 13.1081C158.912 13.9813 158.383 14.5987 158.062 14.9613C157.863 15.1342 157.706 15.2553 157.585 15.3273C157.472 15.4003 157.411 15.4395 157.411 15.4395C157.411 15.4395 157.431 15.3768 157.471 15.2597C157.513 15.147 157.55 14.9716 157.58 14.7613C157.684 14.3497 157.613 13.7544 157.464 13.1395C157.329 12.5118 156.878 11.8601 156.354 11.3382C155.8 10.8232 155.071 10.3513 154.205 10.0652C153.358 9.73248 152.409 9.57666 151.487 9.50414C150.557 9.45073 149.61 9.42672 148.797 9.53648C147.99 9.63987 147.244 9.6678 146.747 9.75845C146.228 9.80696 145.928 9.84812 145.928 9.84812Z" fill="#08697F"/>
<path d="M122.688 27.8417C122.688 27.8417 122.775 27.6242 122.974 27.2503C123.211 26.9132 123.515 26.3585 124.098 25.868C124.678 25.3863 125.391 24.7944 126.326 24.3863C127.244 23.9556 128.33 23.6728 129.491 23.5547C130.647 23.4861 131.902 23.6086 132.947 24.0849C134.037 24.5338 134.715 25.3574 135.098 26.0376C135.507 26.7422 135.421 27.4341 135.349 27.8368C135.283 28.0471 135.214 28.1994 135.155 28.2989C135.099 28.3964 135.07 28.4484 135.07 28.4484C135.07 28.4484 135.051 28.3935 135.016 28.2896C134.984 28.1887 134.918 28.0431 134.816 27.8785C134.672 27.535 134.266 27.1479 133.823 26.7824C133.372 26.3967 132.705 26.1571 132.043 26.0126C131.349 25.8764 130.565 25.8161 129.736 25.9058C128.906 25.9454 128.046 26.1267 127.234 26.3075C126.432 26.506 125.628 26.6814 124.987 26.9465C124.35 27.2057 123.73 27.3811 123.347 27.5742C122.924 27.7295 122.688 27.8417 122.688 27.8417Z" fill="#08697F"/>
<path d="M119.629 19.0143C119.629 19.0143 119.554 18.7913 119.449 18.3891C119.399 17.9951 119.239 17.4042 119.301 16.7147C119.368 16.0312 119.416 15.2011 119.706 14.3613C119.978 13.514 120.403 12.6683 120.995 11.8182C121.629 11.0072 122.477 10.1904 123.579 9.74693C124.099 9.51565 124.732 9.3755 125.281 9.36864C125.838 9.35541 126.344 9.43382 126.79 9.54162C127.702 9.7582 128.24 10.33 128.498 10.6828C128.615 10.8818 128.675 11.0415 128.701 11.1522C128.728 11.2596 128.742 11.3169 128.742 11.3169C128.742 11.3169 128.688 11.2831 128.586 11.2194C128.489 11.1571 128.33 11.0797 128.128 11.0165C127.76 10.8421 127.166 10.8161 126.568 10.8553C126.265 10.8695 125.941 10.9484 125.643 11.0685C125.336 11.191 125.104 11.3438 124.813 11.5325C124.275 11.9201 123.747 12.4424 123.297 13.0936C122.803 13.7135 122.376 14.4563 121.943 15.1222C121.539 15.8023 121.08 16.4359 120.793 17.0224C120.505 17.6046 120.142 18.0892 119.974 18.4498C119.747 18.8036 119.629 19.0143 119.629 19.0143Z" fill="#08697F"/>
<path d="M118.341 29.3872C118.341 29.3872 118.238 29.2186 118.056 28.9231C117.925 28.6291 117.623 28.2273 117.407 27.7721C117.195 27.311 116.819 26.8357 116.487 26.383C116.137 25.9444 115.761 25.5147 115.303 25.1893C114.886 24.8292 114.396 24.5979 113.937 24.4269C113.486 24.2838 112.917 24.1554 112.434 24.226C111.963 24.2823 111.47 24.3504 111.177 24.5087C111.015 24.5719 110.881 24.6346 110.801 24.6856C110.714 24.7366 110.669 24.764 110.669 24.764C110.669 24.764 110.673 24.716 110.68 24.6258C110.685 24.5317 110.711 24.399 110.761 24.2196C110.909 23.9119 111.173 23.3651 111.816 23.0103C112.432 22.6629 113.304 22.2988 114.346 22.3782C115.377 22.4292 116.366 22.8648 117.137 23.4381C117.873 24.0462 118.422 24.787 118.682 25.5362C118.968 26.2727 118.929 26.9871 118.919 27.5501C118.906 28.121 118.674 28.5865 118.585 28.8981C118.43 29.2093 118.341 29.3872 118.341 29.3872Z" fill="#08697F"/>
<path d="M117.126 11.6818C117.126 11.6818 117.078 11.6367 116.988 11.5514C116.896 11.4691 116.779 11.3427 116.595 11.2074C116.3 10.8997 115.743 10.5699 115.169 10.2C114.587 9.82368 113.803 9.5532 113.02 9.32143C112.62 9.21559 112.209 9.13228 111.795 9.06809C111.378 9.01713 110.959 8.99607 110.545 9.01567C110.132 9.02351 109.715 9.07349 109.305 9.15238C108.898 9.2445 108.497 9.35524 108.106 9.48656C107.35 9.77321 106.589 10.0907 106.042 10.5043C105.507 10.912 104.977 11.2755 104.712 11.6029C104.539 11.7499 104.432 11.8831 104.348 11.9713C104.266 12.062 104.222 12.1105 104.222 12.1105C104.222 12.1105 104.22 12.0497 104.216 11.9356C104.214 11.8214 104.196 11.646 104.218 11.4279C104.291 11.0085 104.381 10.3401 104.845 9.67129C105.305 9.0191 105.943 8.2346 106.928 7.67404C107.409 7.38347 107.963 7.15072 108.555 6.97089C109.153 6.80282 109.79 6.69846 110.441 6.6573C111.093 6.65485 111.737 6.71806 112.348 6.84644C112.954 6.98707 113.527 7.18307 114.033 7.43983C115.061 7.93767 115.77 8.67315 116.286 9.293C116.806 9.93 116.958 10.5886 117.067 11.0026C117.11 11.2182 117.107 11.3941 117.117 11.5078C117.123 11.621 117.126 11.6818 117.126 11.6818Z" fill="#08697F"/>
<path d="M111.365 5.03587C111.365 5.03587 111.3 5.01039 111.179 4.96237C111.056 4.91778 110.892 4.84134 110.66 4.7791C110.249 4.59584 109.586 4.48119 108.891 4.33517C108.185 4.18621 107.34 4.20336 106.515 4.25481C106.098 4.29303 105.683 4.35526 105.273 4.4366C104.866 4.53068 104.471 4.65367 104.099 4.81145C103.722 4.95894 103.362 5.14563 103.02 5.35731C102.688 5.57977 102.369 5.81742 102.07 6.07026C101.505 6.59015 100.949 7.13943 100.635 7.70539C100.328 8.26153 100.006 8.77506 99.9112 9.16608C99.8186 9.36012 99.7817 9.51839 99.7436 9.62864C99.7095 9.73987 99.6914 9.79916 99.6914 9.79916C99.6914 9.79916 99.6613 9.74427 99.6056 9.64088C99.5528 9.53602 99.4556 9.38119 99.3767 9.17294C99.2529 8.76232 99.0313 8.11698 99.154 7.34475C99.2801 6.58917 99.5107 5.6513 100.161 4.80262C100.471 4.37289 100.875 3.97109 101.338 3.60506C101.812 3.24785 102.35 2.93621 102.93 2.67847C103.528 2.45552 104.15 2.2953 104.77 2.20661C105.391 2.13115 106.008 2.11693 106.589 2.1821C107.761 2.29186 108.748 2.72846 109.505 3.1234C110.273 3.53353 110.712 4.08723 111.001 4.43121C111.138 4.61496 111.216 4.77764 111.276 4.87907C111.335 4.98099 111.365 5.03587 111.365 5.03587Z" fill="#08697F"/>
<path d="M108.331 43.5178C108.331 43.5178 108.241 43.336 108.084 43.0185C107.989 42.7005 107.756 42.2286 107.711 41.6622C107.67 41.1002 107.571 40.4181 107.679 39.7086C107.762 38.9902 107.984 38.267 108.294 37.5188C108.656 36.7931 109.142 36.035 109.856 35.4735C110.193 35.1878 110.607 34.9541 111.015 34.7968C111.423 34.6381 111.827 34.5445 112.195 34.4793C112.948 34.3455 113.592 34.5567 113.96 34.6851C114.149 34.7743 114.28 34.8561 114.365 34.9174C114.447 34.9766 114.491 35.008 114.491 35.008C114.491 35.008 114.254 35.0252 113.91 35.1442C113.565 35.2094 113.15 35.4715 112.742 35.72C112.307 35.9767 111.998 36.4016 111.682 36.8293C111.384 37.2816 111.077 37.7932 110.836 38.39C110.541 38.9662 110.295 39.6116 110.017 40.1902C109.764 40.7782 109.424 41.3266 109.233 41.8239C109.037 42.3173 108.737 42.7338 108.611 43.0376C108.433 43.3434 108.331 43.5178 108.331 43.5178Z" fill="#08697F"/>
<path d="M108.187 52.5038C108.187 52.5038 108.085 52.2887 107.884 51.9329C107.736 51.5723 107.401 51.0867 107.115 50.5345C106.834 49.9749 106.359 49.4011 105.889 48.8484C105.402 48.3089 104.851 47.7816 104.198 47.3847C103.58 46.9506 102.871 46.6674 102.188 46.4777C101.507 46.3156 100.756 46.2009 100.115 46.2925C99.4848 46.3724 98.8748 46.4616 98.4925 46.6316C98.288 46.6997 98.1205 46.7629 98.0154 46.8154C97.9052 46.8668 97.8467 46.8943 97.8467 46.8943C97.8467 46.8943 97.8683 46.8399 97.9097 46.7374C97.9489 46.6311 98.0222 46.4841 98.1318 46.2915C98.392 45.9608 98.8077 45.3983 99.5899 45.0445C100.348 44.6946 101.372 44.3428 102.543 44.4212C103.711 44.4688 104.879 44.8975 105.848 45.5017C106.784 46.1445 107.541 46.958 107.976 47.8184C108.438 48.6656 108.534 49.5295 108.605 50.2204C108.675 50.9211 108.481 51.5071 108.41 51.8947C108.279 52.2887 108.187 52.5038 108.187 52.5038Z" fill="#08697F"/>
<path d="M106.559 35.7929C106.559 35.7929 106.35 35.6199 105.971 35.3543C105.642 35.0599 105.054 34.735 104.468 34.3253C103.876 33.9103 103.094 33.5492 102.298 33.1876C101.492 32.8372 100.633 32.4942 99.7284 32.2855C98.8384 32.0199 97.9273 31.8979 97.1219 31.8621C96.3159 31.8533 95.5633 31.9003 94.9709 32.1889C94.3949 32.4619 93.8616 32.7789 93.6134 33.1062C93.3135 33.4125 93.2078 33.6536 93.2078 33.6536C93.2078 33.6536 93.1919 33.5928 93.1629 33.4791C93.1362 33.363 93.1095 33.1895 93.1084 32.9553C93.1652 32.5202 93.3163 31.7881 93.9888 31.1668C94.6312 30.5538 95.6894 29.9472 96.8975 29.7924C98.1045 29.5968 99.3638 29.7438 100.526 30.0276C101.684 30.3544 102.774 30.8419 103.64 31.4652C104.53 32.0635 105.132 32.8245 105.614 33.4458C106.097 34.0789 106.277 34.7134 106.425 35.1191C106.526 35.5503 106.559 35.7929 106.559 35.7929Z" fill="#08697F"/>
<path d="M102.704 30.0634C102.704 30.0634 102.495 29.8904 102.116 29.6248C101.787 29.3303 101.199 29.0055 100.613 28.5958C100.021 28.1803 99.2389 27.8197 98.4432 27.4581C97.6366 27.1077 96.7778 26.7647 95.873 26.556C94.9829 26.2904 94.0724 26.1684 93.2664 26.1326C92.4604 26.1238 91.7078 26.1708 91.1154 26.4594C90.5389 26.7324 90.0061 27.0489 89.7579 27.3767C89.458 27.683 89.3523 27.9241 89.3523 27.9241C89.3523 27.9241 89.337 27.8633 89.3075 27.7496C89.2808 27.6335 89.2541 27.46 89.2529 27.2258C89.3097 26.7907 89.4608 26.0586 90.1333 25.4373C90.7757 24.8243 91.8339 24.2177 93.0421 24.0628C94.2491 23.8673 95.5083 24.0143 96.6704 24.2985C97.8286 24.6254 98.9186 25.1129 99.7842 25.7362C100.674 26.3345 101.276 27.0955 101.759 27.7168C102.241 28.3499 102.421 28.9844 102.569 29.3901C102.671 29.8213 102.704 30.0634 102.704 30.0634Z" fill="#08697F"/>
<path d="M141.904 11.6067C141.904 11.6067 142.002 11.3818 142.171 10.9883C142.382 10.6267 142.6 10.052 142.96 9.46935C143.326 8.88625 143.63 8.16399 143.943 7.46182C144.232 6.75622 144.489 6.01926 144.554 5.2872C144.676 4.56396 144.581 3.86178 144.39 3.25663C144.176 2.67353 143.824 2.06006 143.335 1.67345C142.865 1.2839 142.372 0.944815 141.951 0.820355C141.747 0.739995 141.569 0.680705 141.446 0.656695C141.32 0.627785 141.253 0.612107 141.253 0.612107C141.253 0.612107 141.316 0.586137 141.434 0.537137C141.553 0.482747 141.736 0.424927 141.988 0.360247C142.471 0.296547 143.299 0.202958 144.154 0.549388C144.986 0.877198 145.977 1.43041 146.581 2.39081C147.204 3.32671 147.383 4.47429 147.274 5.54053C147.11 6.60334 146.688 7.60147 146.088 8.39968C145.516 9.20671 144.763 9.78197 144.179 10.2725C143.587 10.7634 142.955 11.0452 142.574 11.2848C142.148 11.4896 141.904 11.6067 141.904 11.6067Z" fill="#08697F"/>
<path d="M129.886 32.7867C129.886 32.7867 130.091 32.6569 130.476 32.4457C130.87 32.2869 131.443 31.9738 132.208 31.8449C132.963 31.7195 133.909 31.5622 134.937 31.7053C135.973 31.8234 137.044 32.2134 137.979 32.7941C138.879 33.4124 139.644 34.2396 139.988 35.1691C140.368 36.0947 140.23 37.0066 140.031 37.6994C139.833 38.4139 139.312 38.8779 139.012 39.1601C138.825 39.2905 138.682 39.3816 138.575 39.4355C138.473 39.4904 138.418 39.5193 138.418 39.5193C138.418 39.5193 138.434 39.4659 138.463 39.3654C138.494 39.2684 138.52 39.119 138.543 38.9396C138.632 38.5947 138.572 38.088 138.499 37.574C138.438 37.0482 138.121 36.4887 137.781 36.0036C137.41 35.5238 136.936 35.0441 136.323 34.6737C135.742 34.2641 135.048 33.9676 134.356 33.7187C133.654 33.4884 132.925 33.2512 132.258 33.1674C131.599 33.0783 130.994 32.9254 130.572 32.8945C130.142 32.8176 129.886 32.7867 129.886 32.7867Z" fill="#08697F"/>
<path d="M136.786 31.9527C136.786 31.9527 136.991 31.8229 137.376 31.6117C137.77 31.4529 138.343 31.1398 139.108 31.0109C139.863 30.8855 140.81 30.7282 141.837 30.8713C142.873 30.9894 143.945 31.3794 144.879 31.9601C145.78 32.5784 146.545 33.4056 146.889 34.3351C147.268 35.2607 147.131 36.1726 146.931 36.8655C146.734 37.5799 146.213 38.0439 145.912 38.3261C145.726 38.4565 145.582 38.5476 145.475 38.6015C145.373 38.6564 145.318 38.6853 145.318 38.6853C145.318 38.6853 145.333 38.6319 145.362 38.5315C145.394 38.4344 145.42 38.285 145.442 38.1056C145.532 37.7607 145.471 37.254 145.399 36.74C145.337 36.2142 145.021 35.6542 144.681 35.1696C144.31 34.6899 143.836 34.2101 143.223 33.8397C142.642 33.4296 141.948 33.1336 141.256 32.8847C140.554 32.6544 139.825 32.4172 139.158 32.3334C138.499 32.2443 137.895 32.0914 137.472 32.0605C137.042 31.9831 136.786 31.9527 136.786 31.9527Z" fill="#08697F"/>
<path d="M140.424 126.836C140.424 126.836 140.519 126.499 140.742 125.91C141.02 125.353 141.371 124.493 142.131 123.631C142.883 122.78 143.875 121.772 145.298 121.044C146.707 120.289 148.484 119.851 150.291 119.825C152.095 119.844 153.948 120.305 155.334 121.236C156.75 122.151 157.487 123.431 157.868 124.503C158.272 125.6 158.059 126.573 157.905 127.172C157.784 127.476 157.682 127.701 157.589 127.848C157.504 127.995 157.459 128.073 157.459 128.073C157.459 128.073 157.457 127.986 157.453 127.823C157.457 127.663 157.424 127.426 157.371 127.14C157.302 126.565 156.967 125.794 156.446 125.011C155.936 124.213 155.021 123.471 153.984 122.958C152.925 122.462 151.627 122.159 150.291 122.186C148.951 122.164 147.609 122.448 146.416 122.881C145.223 123.332 144.101 123.897 143.254 124.533C142.406 125.159 141.647 125.708 141.191 126.152C140.692 126.572 140.424 126.836 140.424 126.836Z" fill="#08697F"/>
<path d="M148.504 115.77C148.504 115.77 148.546 115.71 148.624 115.597C148.702 115.482 148.82 115.316 148.983 115.109C149.341 114.735 149.834 114.127 150.643 113.616C151.445 113.113 152.438 112.518 153.657 112.162C154.867 111.788 156.223 111.581 157.699 111.651C158.43 111.715 159.184 111.859 159.891 112.128C160.608 112.397 161.254 112.808 161.739 113.299C162.243 113.779 162.58 114.372 162.729 114.966C162.878 115.554 162.83 116.169 162.648 116.657C162.285 117.66 161.369 118.119 160.817 118.3C160.208 118.452 159.878 118.352 159.882 118.369C159.882 118.369 159.951 118.335 160.082 118.269C160.204 118.196 160.377 118.086 160.534 117.909C160.894 117.608 161.137 116.998 161.138 116.399C161.158 115.807 160.676 115.213 160.03 114.765C159.691 114.544 159.318 114.36 158.896 114.235C158.465 114.105 157.987 114.026 157.478 114.003C156.464 113.907 155.32 114.028 154.278 114.166C153.236 114.325 152.22 114.493 151.389 114.772C150.563 115.045 149.804 115.245 149.318 115.462C149.057 115.551 148.854 115.629 148.717 115.685C148.578 115.741 148.504 115.77 148.504 115.77Z" fill="#08697F"/>
<path d="M134.737 144.693C134.759 144.57 137.011 132.203 143.603 118.533C149.705 105.88 160.882 89.4829 179.475 83.2256L179.877 84.114C144.944 95.8715 135.918 144.35 135.831 144.838L134.737 144.693Z" fill="#08697F"/>
<path d="M137.114 135.29C137.181 135.084 143.702 114.551 132.025 103.546L132.841 102.902C144.935 114.3 138.247 135.337 138.178 135.549L137.114 135.29Z" fill="#08697F"/>
<path d="M140.532 125.522C140.614 125.32 148.974 105.334 170.908 105.936L170.873 106.89C149.758 106.31 141.655 125.641 141.576 125.837L140.532 125.522Z" fill="#08697F"/>
<path d="M146.009 113.864C146.133 113.597 158.12 87.0987 140.077 79.0108L140.586 78.1641C159.527 86.6474 147.164 113.942 147.036 114.217L146.009 113.864Z" fill="#08697F"/>
<path d="M165.54 90.7124C165.54 90.7124 165.748 90.5252 166.138 90.2087C166.551 89.9411 167.121 89.4727 167.955 89.137C168.78 88.8078 169.807 88.4015 171.027 88.2947C172.25 88.1614 173.613 88.3212 174.881 88.7548C176.127 89.2301 177.282 90.0092 177.95 91.0225C178.653 92.0305 178.714 93.1261 178.615 93.9728C178.523 94.846 177.996 95.4634 177.674 95.826C177.474 95.999 177.318 96.12 177.198 96.1925C177.084 96.2655 177.023 96.3047 177.023 96.3047C177.023 96.3047 177.044 96.242 177.083 96.1249C177.126 96.0122 177.162 95.8368 177.193 95.6266C177.296 95.215 177.226 94.6196 177.076 94.0047C176.941 93.377 176.49 92.7253 175.966 92.203C175.412 91.688 174.683 91.2161 173.818 90.9299C172.971 90.5967 172.022 90.4414 171.1 90.3689C170.17 90.3155 169.222 90.2915 168.41 90.4012C167.602 90.5046 166.856 90.5325 166.36 90.6232C165.84 90.6712 165.54 90.7124 165.54 90.7124Z" fill="#08697F"/>
<path d="M176.951 84.6753C176.951 84.6753 177.159 84.4881 177.549 84.1715C177.962 83.904 178.532 83.4356 179.366 83.0999C180.192 82.7706 181.219 82.3644 182.439 82.2576C183.662 82.1243 185.025 82.2841 186.292 82.7177C187.538 83.193 188.693 83.9721 189.362 84.9854C190.065 85.9934 190.125 87.089 190.027 87.9357C189.935 88.8089 189.407 89.4263 189.086 89.7894C188.886 89.9624 188.729 90.0834 188.609 90.1554C188.495 90.2284 188.434 90.2676 188.434 90.2676C188.434 90.2676 188.455 90.2049 188.494 90.0878C188.537 89.9751 188.573 89.7997 188.604 89.5895C188.707 89.1779 188.637 88.5825 188.487 87.9671C188.352 87.3394 187.901 86.6877 187.377 86.1658C186.823 85.6509 186.094 85.179 185.229 84.8928C184.382 84.5596 183.433 84.4043 182.511 84.3318C181.581 84.2784 180.633 84.2544 179.821 84.3641C179.013 84.4675 178.267 84.4954 177.771 84.5861C177.252 84.6341 176.951 84.6753 176.951 84.6753Z" fill="#08697F"/>
<path d="M153.712 102.668C153.712 102.668 153.798 102.45 153.998 102.076C154.234 101.739 154.538 101.185 155.122 100.694C155.701 100.213 156.414 99.6206 157.349 99.2124C158.268 98.7822 159.353 98.499 160.514 98.3809C161.67 98.3123 162.925 98.4348 163.971 98.9111C165.06 99.3599 165.739 100.184 166.121 100.864C166.531 101.568 166.445 102.26 166.372 102.663C166.307 102.873 166.237 103.026 166.178 103.125C166.123 103.223 166.093 103.275 166.093 103.275C166.093 103.275 166.074 103.219 166.04 103.116C166.007 103.015 165.942 102.869 165.839 102.705C165.696 102.361 165.289 101.974 164.846 101.609C164.395 101.223 163.728 100.983 163.067 100.839C162.373 100.703 161.589 100.642 160.759 100.732C159.93 100.772 159.069 100.953 158.257 101.134C157.455 101.332 156.651 101.508 156.01 101.773C155.373 102.032 154.753 102.207 154.371 102.4C153.948 102.556 153.712 102.668 153.712 102.668Z" fill="#08697F"/>
<path d="M150.653 93.8405C150.653 93.8405 150.578 93.6175 150.472 93.2152C150.422 92.8213 150.263 92.2303 150.325 91.5409C150.391 90.8573 150.439 90.0273 150.728 89.1874C151.001 88.3402 151.426 87.4945 152.018 86.6443C152.652 85.8334 153.5 85.0165 154.602 84.5731C155.122 84.3418 155.755 84.2017 156.304 84.1948C156.861 84.1816 157.367 84.26 157.813 84.3678C158.725 84.5844 159.262 85.1562 159.521 85.509C159.638 85.7079 159.698 85.8677 159.724 85.9789C159.751 86.0862 159.765 86.1435 159.765 86.1435C159.765 86.1435 159.711 86.1097 159.609 86.046C159.511 85.9838 159.352 85.9064 159.151 85.8427C158.783 85.6682 158.189 85.6423 157.591 85.6815C157.288 85.6957 156.963 85.7746 156.666 85.8946C156.358 86.0171 156.127 86.17 155.836 86.3587C155.298 86.7462 154.77 87.2686 154.32 87.9198C153.826 88.5392 153.399 89.2825 152.966 89.9484C152.562 90.629 152.103 91.2621 151.816 91.8486C151.528 92.4307 151.165 92.9153 150.997 93.276C150.77 93.6298 150.653 93.8405 150.653 93.8405Z" fill="#08697F"/>
<path d="M149.365 104.213C149.365 104.213 149.261 104.044 149.079 103.749C148.949 103.455 148.646 103.054 148.431 102.598C148.218 102.137 147.843 101.662 147.51 101.209C147.16 100.771 146.785 100.341 146.327 100.016C145.909 99.6555 145.419 99.4242 144.961 99.2532C144.51 99.1101 143.941 98.9817 143.458 99.0523C142.986 99.1086 142.494 99.1767 142.201 99.335C142.039 99.3982 141.905 99.4605 141.824 99.5119C141.738 99.5634 141.692 99.5903 141.692 99.5903C141.692 99.5903 141.696 99.5423 141.704 99.4521C141.709 99.358 141.734 99.2253 141.784 99.0459C141.933 98.7382 142.196 98.1913 142.839 97.8366C143.455 97.4892 144.328 97.1246 145.369 97.2045C146.401 97.2554 147.389 97.6911 148.16 98.2644C148.896 98.8725 149.445 99.6133 149.705 100.363C149.991 101.099 149.952 101.813 149.942 102.376C149.928 102.947 149.697 103.413 149.607 103.724C149.454 104.036 149.365 104.213 149.365 104.213Z" fill="#08697F"/>
<path d="M148.148 86.5079C148.148 86.5079 148.101 86.4623 148.011 86.3776C147.918 86.2948 147.802 86.1688 147.617 86.0331C147.322 85.7254 146.765 85.3956 146.192 85.0257C145.61 84.6493 144.826 84.3789 144.043 84.1471C143.643 84.0412 143.232 83.9579 142.818 83.8938C142.401 83.8428 141.982 83.8217 141.568 83.8413C141.155 83.8492 140.738 83.8991 140.328 83.978C139.92 84.0702 139.519 84.1809 139.129 84.3122C138.373 84.5989 137.612 84.9164 137.065 85.3299C136.529 85.7376 136 86.1012 135.735 86.428C135.562 86.575 135.455 86.7083 135.37 86.7965C135.288 86.8872 135.245 86.9357 135.245 86.9357C135.245 86.9357 135.242 86.8749 135.238 86.7607C135.237 86.6466 135.218 86.4712 135.24 86.2526C135.313 85.8332 135.403 85.1648 135.867 84.496C136.327 83.8438 136.966 83.0593 137.95 82.4987C138.431 82.2082 138.986 81.9754 139.577 81.7956C140.175 81.6275 140.813 81.5231 141.463 81.4825C142.115 81.4805 142.759 81.5432 143.37 81.6716C143.977 81.8127 144.55 82.0082 145.055 82.265C146.083 82.7628 146.792 83.4983 147.309 84.1182C147.829 84.7557 147.981 85.4137 148.09 85.8278C148.133 86.0434 148.13 86.2193 148.14 86.333C148.146 86.4471 148.148 86.5079 148.148 86.5079Z" fill="#08697F"/>
<path d="M142.389 79.862C142.389 79.862 142.324 79.8366 142.203 79.7885C142.08 79.7439 141.916 79.6675 141.684 79.6053C141.273 79.422 140.61 79.3074 139.915 79.1613C139.209 79.0124 138.364 79.029 137.539 79.081C137.122 79.1192 136.706 79.1814 136.296 79.2628C135.89 79.3568 135.494 79.4798 135.123 79.6376C134.746 79.7851 134.386 79.9718 134.045 80.1835C133.713 80.4059 133.394 80.6436 133.095 80.8964C132.529 81.4163 131.974 81.9656 131.659 82.5316C131.352 83.0877 131.03 83.6017 130.936 83.9922C130.843 84.1863 130.806 84.3446 130.768 84.4548C130.734 84.566 130.716 84.6253 130.716 84.6253C130.716 84.6253 130.686 84.5704 130.63 84.4671C130.577 84.3622 130.48 84.2074 130.401 83.9991C130.277 83.5885 130.056 82.9436 130.178 82.1709C130.305 81.4153 130.535 80.4775 131.186 79.6288C131.496 79.1986 131.899 78.7973 132.362 78.4312C132.836 78.074 133.375 77.7624 133.954 77.5046C134.553 77.2817 135.174 77.1215 135.794 77.0328C136.416 76.9573 137.032 76.9431 137.614 77.0083C138.785 77.118 139.772 77.5546 140.529 77.9496C141.298 78.3597 141.737 78.9134 142.025 79.2574C142.163 79.4411 142.24 79.6038 142.301 79.7052C142.358 79.8072 142.389 79.862 142.389 79.862Z" fill="#08697F"/>
<path d="M139.354 118.344C139.354 118.344 139.265 118.162 139.107 117.845C139.012 117.527 138.78 117.055 138.735 116.489C138.693 115.927 138.594 115.245 138.702 114.536C138.785 113.817 139.007 113.094 139.317 112.346C139.679 111.62 140.165 110.862 140.879 110.301C141.216 110.015 141.63 109.781 142.038 109.624C142.447 109.465 142.85 109.372 143.218 109.306C143.971 109.173 144.615 109.384 144.983 109.512C145.171 109.601 145.303 109.683 145.387 109.745C145.469 109.804 145.513 109.835 145.513 109.835C145.513 109.835 145.276 109.852 144.933 109.971C144.587 110.037 144.173 110.299 143.765 110.547C143.329 110.804 143.02 111.229 142.704 111.656C142.407 112.109 142.099 112.62 141.858 113.217C141.563 113.793 141.318 114.439 141.04 115.017C140.786 115.605 140.447 116.154 140.256 116.651C140.06 117.144 139.76 117.561 139.634 117.865C139.457 118.17 139.354 118.344 139.354 118.344Z" fill="#08697F"/>
<path d="M139.211 127.33C139.211 127.33 139.109 127.115 138.907 126.759C138.76 126.398 138.424 125.913 138.139 125.361C137.858 124.801 137.382 124.228 136.912 123.675C136.425 123.136 135.875 122.608 135.221 122.211C134.604 121.777 133.894 121.494 133.212 121.304C132.531 121.141 131.779 121.027 131.139 121.119C130.508 121.199 129.898 121.288 129.516 121.458C129.311 121.526 129.144 121.589 129.039 121.642C128.929 121.693 128.87 121.72 128.87 121.72C128.87 121.72 128.892 121.666 128.933 121.564C128.972 121.457 129.046 121.31 129.155 121.118C129.415 120.787 129.831 120.224 130.613 119.871C131.37 119.521 132.395 119.169 133.566 119.247C134.734 119.295 135.902 119.724 136.871 120.328C137.807 120.971 138.564 121.784 138.999 122.645C139.46 123.491 139.556 124.356 139.628 125.047C139.698 125.747 139.505 126.333 139.434 126.721C139.302 127.115 139.211 127.33 139.211 127.33Z" fill="#08697F"/>
<path d="M137.582 110.619C137.582 110.619 137.373 110.446 136.995 110.181C136.666 109.886 136.078 109.562 135.492 109.152C134.9 108.736 134.118 108.375 133.322 108.014C132.515 107.663 131.657 107.32 130.752 107.112C129.862 106.846 128.951 106.724 128.146 106.688C127.34 106.679 126.587 106.727 125.995 107.015C125.419 107.288 124.886 107.605 124.638 107.932C124.338 108.239 124.232 108.48 124.232 108.48C124.232 108.48 124.216 108.419 124.187 108.305C124.16 108.189 124.133 108.016 124.133 107.781C124.19 107.346 124.341 106.614 125.013 105.993C125.655 105.38 126.714 104.773 127.922 104.619C129.129 104.423 130.388 104.57 131.55 104.854C132.708 105.181 133.798 105.668 134.664 106.291C135.554 106.89 136.156 107.651 136.638 108.271C137.121 108.905 137.301 109.54 137.449 109.945C137.55 110.377 137.582 110.619 137.582 110.619Z" fill="#08697F"/>
<path d="M133.728 104.89C133.728 104.89 133.519 104.717 133.14 104.451C132.811 104.157 132.224 103.832 131.637 103.422C131.045 103.007 130.263 102.646 129.467 102.284C128.66 101.934 127.802 101.591 126.897 101.382C126.007 101.117 125.096 100.995 124.29 100.959C123.484 100.95 122.732 100.997 122.14 101.286C121.563 101.559 121.031 101.876 120.782 102.203C120.482 102.509 120.377 102.75 120.377 102.75C120.377 102.75 120.361 102.689 120.332 102.576C120.305 102.46 120.278 102.286 120.277 102.052C120.334 101.617 120.485 100.885 121.158 100.263C121.8 99.6505 122.858 99.0439 124.066 98.889C125.273 98.6935 126.533 98.8405 127.695 99.1247C128.853 99.4515 129.943 99.9391 130.809 100.562C131.699 101.161 132.301 101.922 132.783 102.542C133.266 103.176 133.446 103.811 133.594 104.216C133.695 104.648 133.728 104.89 133.728 104.89Z" fill="#08697F"/>
<path d="M172.928 86.4329C172.928 86.4329 173.025 86.208 173.195 85.8145C173.406 85.4529 173.624 84.8781 173.984 84.2955C174.349 83.7124 174.653 82.9902 174.966 82.288C175.256 81.5824 175.513 80.8454 175.577 80.1134C175.699 79.3901 175.605 78.688 175.413 78.0828C175.2 77.4997 174.848 76.8862 174.359 76.4996C173.889 76.1101 173.396 75.771 172.974 75.6465C172.771 75.5662 172.593 75.5069 172.469 75.4829C172.343 75.454 172.276 75.4383 172.276 75.4383C172.276 75.4383 172.339 75.4123 172.457 75.3633C172.577 75.3089 172.759 75.2511 173.012 75.1864C173.494 75.1227 174.322 75.0291 175.177 75.3756C176.01 75.7034 177 76.2566 177.604 77.217C178.228 78.1529 178.407 79.3005 178.297 80.3667C178.133 81.4295 177.712 82.4276 177.112 83.2258C176.539 84.0329 175.787 84.6081 175.203 85.0986C174.61 85.5896 173.978 85.8714 173.598 86.111C173.172 86.3158 172.928 86.4329 172.928 86.4329Z" fill="#08697F"/>
<path d="M160.909 107.613C160.909 107.613 161.114 107.483 161.499 107.272C161.894 107.113 162.467 106.8 163.231 106.671C163.985 106.545 164.933 106.388 165.96 106.532C166.996 106.65 168.068 107.04 169.002 107.62C169.903 108.239 170.667 109.066 171.012 109.995C171.391 110.92 171.254 111.833 171.054 112.526C170.857 113.24 170.336 113.704 170.035 113.986C169.849 114.117 169.705 114.208 169.598 114.262C169.496 114.317 169.442 114.346 169.442 114.346C169.442 114.346 169.457 114.292 169.486 114.191C169.517 114.094 169.544 113.945 169.566 113.765C169.656 113.42 169.595 112.914 169.522 112.4C169.461 111.874 169.145 111.314 168.804 110.829C168.433 110.35 167.96 109.87 167.347 109.499C166.766 109.089 166.072 108.793 165.38 108.544C164.677 108.314 163.949 108.077 163.282 107.993C162.622 107.904 162.018 107.751 161.596 107.72C161.165 107.643 160.909 107.613 160.909 107.613Z" fill="#08697F"/>
<path d="M167.81 106.779C167.81 106.779 168.015 106.649 168.4 106.438C168.794 106.279 169.366 105.966 170.132 105.837C170.886 105.711 171.833 105.554 172.861 105.698C173.897 105.816 174.968 106.206 175.902 106.786C176.803 107.405 177.568 108.232 177.912 109.161C178.291 110.086 178.154 110.999 177.955 111.692C177.757 112.406 177.236 112.87 176.936 113.152C176.749 113.283 176.606 113.374 176.499 113.428C176.397 113.483 176.342 113.512 176.342 113.512C176.342 113.512 176.357 113.458 176.386 113.357C176.418 113.26 176.444 113.111 176.466 112.931C176.556 112.586 176.495 112.08 176.423 111.566C176.361 111.04 176.045 110.48 175.705 109.995C175.334 109.516 174.86 109.036 174.247 108.665C173.666 108.256 172.972 107.959 172.28 107.71C171.578 107.48 170.849 107.243 170.182 107.159C169.523 107.07 168.919 106.917 168.496 106.886C168.066 106.809 167.81 106.779 167.81 106.779Z" fill="#08697F"/>
<path d="M149.419 165.002H55.4584C51.3262 165.002 47.9756 162.112 47.9756 158.547V37.5949C47.9756 34.0297 51.3257 31.1396 55.4584 31.1396H149.42C153.553 31.1396 156.903 34.0297 156.903 37.5949V158.547C156.902 162.112 153.552 165.002 149.419 165.002Z" fill="#0F7292"/>
<path d="M149.175 38.2295H55.7041V157.912H149.175V38.2295Z" fill="white"/>
<path d="M75.4964 50.0234H63.1191V60.701H75.4964V50.0234Z" fill="#F08879"/>
<path d="M75.4964 83.9971H63.1191V94.6747H75.4964V83.9971Z" fill="#F08879"/>
<path d="M75.4964 117.863H63.1191V128.541H75.4964V117.863Z" fill="#F08879"/>
<path d="M141.757 50.0234H85.998V52.2882H141.757V50.0234Z" fill="#D1D3D4"/>
<path d="M141.757 57.0693H85.998V59.3341H141.757V57.0693Z" fill="#D1D3D4"/>
<path d="M141.757 64.1162H85.998V66.381H141.757V64.1162Z" fill="#D1D3D4"/>
<path d="M120.254 71.1621H85.998V73.4269H120.254V71.1621Z" fill="#D1D3D4"/>
<path d="M141.757 83.9971H85.998V86.2618H141.757V83.9971Z" fill="#D1D3D4"/>
<path d="M141.757 91.043H85.998V93.3078H141.757V91.043Z" fill="#D1D3D4"/>
<path d="M141.757 98.0898H85.998V100.355H141.757V98.0898Z" fill="#D1D3D4"/>
<path d="M120.254 105.136H85.998V107.401H120.254V105.136Z" fill="#D1D3D4"/>
<path d="M141.757 117.863H85.998V120.128H141.757V117.863Z" fill="#D1D3D4"/>
<path d="M141.757 124.909H85.998V127.174H141.757V124.909Z" fill="#D1D3D4"/>
<path d="M141.757 131.955H85.998V134.22H141.757V131.955Z" fill="#D1D3D4"/>
<path d="M120.254 139.002H85.998V141.267H120.254V139.002Z" fill="#D1D3D4"/>
<path d="M72.8712 52.2881H65.7451V58.4356H72.8712V52.2881Z" fill="white"/>
<path d="M72.8712 86.2617H65.7451V92.4093H72.8712V86.2617Z" fill="white"/>
<path d="M72.8712 120.128H65.7451V126.275H72.8712V120.128Z" fill="white"/>
<path d="M128.393 43.0165H76.4856C73.8796 43.0165 71.7666 41.1942 71.7666 38.9456C71.7666 33.2861 77.0848 28.6982 83.6452 28.6982H121.234C127.794 28.6982 133.112 33.2861 133.112 38.9456C133.112 41.1937 130.999 43.0165 128.393 43.0165Z" fill="#4099AD"/>
<path d="M107.643 22.486C106.314 21.3394 104.474 20.6289 102.44 20.6289C98.3733 20.6289 95.0732 23.4709 95.0732 26.9793V28.6992H109.801V26.9793C109.801 25.2251 108.978 23.6375 107.643 22.486ZM102.44 28.219C100.821 28.219 99.515 27.092 99.515 25.6955C99.515 24.3039 100.821 23.172 102.44 23.172C104.053 23.172 105.365 24.3039 105.365 25.6955C105.365 27.092 104.053 28.219 102.44 28.219Z" fill="#4099AD"/>
<path d="M240.318 162.234L239.332 164.584C239.098 165.149 238.17 165.149 237.926 164.584L236.94 162.234H240.318Z" fill="#263172"/>
<path d="M244.819 85.8564V151.521H232.449V105.254V85.5114V78.8323V75.4463C232.449 74.3095 233.494 73.383 234.802 73.3408V73.3746H242.457V73.3408C243.765 73.3746 244.82 74.3095 244.82 75.4463V77.7121C244.176 77.2153 243.326 76.9286 242.242 76.9119C239.225 76.8531 237.732 80.3317 239.196 82.1422C240.66 83.9616 244.009 82.6729 244.683 85.9324C244.683 85.9324 244.731 85.9069 244.819 85.8564Z" fill="#0F7292"/>
<path d="M244.819 77.7111C244.175 77.2142 243.325 76.9276 242.242 76.9109C239.225 76.8521 237.731 80.3306 239.196 82.1412C240.66 83.9605 244.009 82.6718 244.682 85.9313C244.682 85.9313 244.731 85.9063 244.819 85.8554C245.258 85.6025 246.596 84.6005 246.547 82.0907C246.508 80.162 245.991 78.5955 244.819 77.7111Z" fill="#EED7BA"/>
<path d="M244.819 151.521L240.318 162.234H236.94L232.449 151.521H244.819Z" fill="#0D5768"/>
<path d="M242.456 69.4155V73.3404C242.426 73.3404 242.407 73.3404 242.377 73.3404H234.889C234.859 73.3404 234.83 73.3404 234.801 73.3404V69.4155C234.801 68.4134 235.455 67.5457 236.402 67.0993C236.841 66.8969 237.339 66.7793 237.866 66.7793H239.39C241.089 66.7793 242.456 67.9582 242.456 69.4155Z" fill="#0D5768"/>
<path d="M236.354 66.7786L236.403 67.0985C235.456 67.5449 234.802 68.4122 234.802 69.4148V73.3397C233.493 73.3818 232.448 74.3084 232.448 75.4452V78.8311L231.59 79.252L231.394 78.9487L224.072 67.8649C223.584 77.1969 225.692 91.6583 225.692 91.6583C217.481 94.7409 188.103 92.2899 188.103 92.2899L188.679 64.5461C182.822 67.3337 156.9 67.1568 156.9 67.1568L157.271 58.3133C157.271 58.3133 180.947 54.5232 189.656 50.733C195.192 48.3159 199.185 47.204 201.352 46.7072L201.342 46.7155C202.611 48.1306 203.48 49.0484 207.513 49.1244C211.535 49.1915 213.693 46.3872 213.693 46.3872C213.693 46.3872 225.732 45.8232 236.354 66.7786Z" fill="#FECA7A"/>
<path d="M232.449 78.832V85.5112L230.126 86.3535L229.579 103.308H227.812V91.6592V81.0978L231.59 79.2534L232.449 78.832Z" fill="#0D5768"/>
<path d="M230.75 105.252C230.75 105.353 230.75 105.463 230.74 105.572C230.613 107.097 227.812 106.836 227.812 106.836V103.307H229.579C230.027 103.307 230.75 103.939 230.75 105.252Z" fill="#0D5768"/>
<path d="M225.692 91.6592L223.662 95.3734V95.6512C211.956 97.5465 189.413 95.3058 189.413 95.3058L188.104 92.2903C188.104 92.2913 217.481 94.7423 225.692 91.6592Z" fill="#F7BA6B"/>
<path d="M223.662 95.6511L224.639 158.264H224.092H216.154H215.364C211.292 138.328 207.719 102.819 207.719 102.819H205.6L191.556 157.715H190.961H182.662H181.871L189.413 95.3057C189.413 95.3057 211.956 97.546 223.662 95.6511Z" fill="#0D5768"/>
<path d="M224.091 158.264V163.725C224.091 164.43 223.429 165.002 222.611 165.002H215.292C214.482 165.002 213.907 164.322 214.153 163.656L216.153 158.264H224.091Z" fill="#845E40"/>
<path d="M211.174 45.1582L213.693 46.3881C213.693 46.3881 211.536 49.1929 207.513 49.1252C203.481 49.0493 202.612 48.1315 201.343 46.7164L201.352 46.7081C202.592 46.4302 203.237 46.346 203.237 46.346C203.237 46.346 208.489 48.5274 211.213 45.7227C211.213 45.7227 211.194 45.512 211.174 45.1582Z" fill="#F7BA6B"/>
<path d="M212.512 27.9597C213.898 31.7161 211.868 38.1003 211.379 40.0711C211.311 40.3322 211.262 40.6184 211.223 40.93C209.68 39.7001 209.895 38.1591 209.895 38.1591C211.555 36.5588 211.418 34.5375 210.217 34.0656C209.016 33.5943 208.45 36.2216 208.401 36.3819C208.362 36.5421 206.937 36.3481 206.878 36.3481C206.82 36.3481 206.917 35.3627 206.82 34.5792C206.722 33.7873 205.697 33.6609 205.258 32.9283C204.808 32.187 205.13 31.4882 204.496 30.6459C203.871 29.8036 201.567 30.2417 200.063 30.4524C199.36 30.5533 198.033 30.6631 196.812 30.4524C195.416 30.225 194.186 29.5679 194.244 27.9931C194.371 25.0452 198.969 25.4328 198.969 25.4328C199.086 25.4328 203.275 26.0306 204.789 25.8875C206.293 25.7533 211.135 24.2034 212.512 27.9597Z" fill="#845E40"/>
<path d="M211.174 45.158C211.194 45.5117 211.213 45.7225 211.213 45.7225C208.489 48.5272 203.237 46.3457 203.237 46.3457V45.4025V43.3641C202.016 43.3641 200.044 43.5493 198.55 42.1092C196.353 40.012 196.735 30.6633 196.812 30.4526C198.033 30.6633 199.36 30.5535 200.064 30.4526C201.567 30.2419 203.871 29.8038 204.496 30.6461C205.131 31.4884 204.809 32.1877 205.258 32.9286C205.697 33.6611 206.722 33.7875 206.82 34.5794C206.918 35.3629 206.82 36.3483 206.878 36.3483C206.937 36.3483 208.363 36.5418 208.401 36.3821C208.45 36.2223 209.016 33.5945 210.217 34.0658C211.418 34.5377 211.555 36.559 209.895 38.1593C209.895 38.1593 209.68 39.7008 211.223 40.9303C211.038 42.387 211.116 44.2402 211.174 45.158Z" fill="#EED7BA"/>
<path d="M203.237 45.4023V46.3456C203.237 46.3456 202.593 46.4299 201.353 46.7077L203.237 45.4023Z" fill="#F7BA6B"/>
<path d="M190.96 157.716L190.375 163.523C190.292 164.346 189.498 164.979 188.54 164.982C185.159 164.992 177.609 165.012 174.482 164.997C173.985 164.995 173.755 164.465 174.128 164.182C176.611 162.298 182.662 157.716 182.662 157.716H190.96Z" fill="#845E40"/>
<path d="M18.6077 167.322H256.97C257.712 167.322 258.315 166.802 258.315 166.161C258.315 165.52 257.713 165.001 256.97 165.001H18.6077C17.8648 165.001 17.2627 165.52 17.2627 166.161C17.2627 166.802 17.8648 167.322 18.6077 167.322Z" fill="#D1EBF2"/>
</svg>
