<svg width="414" height="379" viewBox="0 0 414 379" fill="none" xmlns="http://www.w3.org/2000/svg">
<path d="M411.976 183.967C407.515 140.638 384.289 97.4145 364.25 73.5393C279.331 -27.642 108.889 -27.4484 27.7163 99.6415C4.818 135.483 -9.5548 215.177 7.45316 274.119C29.2147 349.561 114.969 378.939 210.334 378.285C299.439 377.64 369.503 341.339 395.734 291.192C412.148 259.781 416.436 227.296 411.976 183.967Z" fill="#849BA7"/>
<path d="M27.7163 99.6415C4.818 135.483 -9.55479 215.177 7.45316 274.119C11.0345 286.773 16.803 298.793 24.53 309.702L119.258 258.49L199.906 214.806L389.465 112.277C381.577 96.9466 372.638 83.5364 364.25 73.5474C279.331 -27.642 108.889 -27.4483 27.7163 99.6415Z" fill="#ACACAC"/>
<g opacity="0.2">
<path d="M27.862 160.511C28.8291 159.921 29.6341 159.125 30.2116 158.189C30.7891 157.252 31.123 156.201 31.1861 155.122V148.828C31.1861 146.843 29.6963 146.036 27.862 147.029L5.92821 158.898C4.92065 163.739 4.02505 168.75 3.25 173.825L27.862 160.511Z" fill="white"/>
<path d="M20.043 113.979L27.8623 109.743C28.8294 109.153 29.6344 108.357 30.2119 107.42C30.7894 106.484 31.1233 105.433 31.1864 104.353V98.0597C31.2376 97.6542 31.1614 97.2436 30.9671 96.8781C30.7728 96.5126 30.469 96.2082 30.0927 96.0022C29.2947 97.2017 28.5025 98.4147 27.7159 99.6412C24.8091 104.249 22.2454 109.04 20.043 113.979Z" fill="white"/>
<path d="M61.2578 58.6201L67.8888 55.0295C68.8529 54.4406 69.6555 53.6473 70.2316 52.7137C70.8076 51.7801 71.1408 50.7325 71.2042 49.6558C67.8055 52.5013 64.49 55.4894 61.2578 58.6201Z" fill="white"/>
<path d="M31.186 221.341V215.048C31.186 213.063 29.6962 212.256 27.8619 213.248L0.304688 228.175C0.488402 232.5 0.79842 236.814 1.23474 241.118L27.8619 226.715C28.8267 226.126 29.6303 225.333 30.2077 224.399C30.7851 223.466 31.1202 222.418 31.186 221.341Z" fill="white"/>
<path d="M111.207 127.349V121.055C111.207 119.071 109.717 118.264 107.883 119.256L77.1397 135.886C76.1737 136.477 75.3701 137.273 74.794 138.209C74.218 139.146 73.8857 140.196 73.8242 141.276V147.569C73.8242 149.554 75.3054 150.361 77.1397 149.368L107.883 132.739C108.85 132.148 109.655 131.353 110.233 130.416C110.81 129.48 111.144 128.429 111.207 127.349Z" fill="white"/>
<path d="M8.23438 276.66C8.88886 278.734 9.57779 280.783 10.327 282.792V278.855C10.327 277.346 9.45723 276.523 8.23438 276.66Z" fill="white"/>
<path d="M8.45155 202.937C9.41752 202.346 10.2212 201.55 10.7972 200.613C11.3733 199.677 11.7055 198.626 11.767 197.547V191.253C11.767 189.268 10.2858 188.461 8.45155 189.454L0.976662 193.512C0.586269 198.128 0.319308 202.767 0.175781 207.431L8.45155 202.937Z" fill="white"/>
<path d="M117.113 94.6873L147.848 78.0577C148.815 77.4672 149.62 76.6715 150.198 75.735C150.775 74.7986 151.109 73.7478 151.172 72.6679V66.3662C151.172 64.3894 149.682 63.5825 147.848 64.575L117.113 81.2045C116.146 81.795 115.341 82.5908 114.764 83.5272C114.186 84.4637 113.852 85.5145 113.789 86.5944V92.888C113.789 94.8729 115.279 95.6797 117.113 94.6873Z" fill="white"/>
<path d="M137.687 199.386L168.43 182.757C169.395 182.167 170.199 181.372 170.775 180.437C171.351 179.502 171.683 178.453 171.746 177.375V171.073C171.746 169.088 170.264 168.29 168.43 169.282L137.687 185.912C136.721 186.501 135.918 187.296 135.342 188.231C134.766 189.166 134.433 190.215 134.371 191.293V197.595C134.371 199.58 135.852 200.379 137.687 199.386Z" fill="white"/>
<path d="M57.6999 77.0407L88.4348 60.3788C89.4019 59.7883 90.2068 58.9926 90.7843 58.0561C91.3619 57.1197 91.6957 56.0689 91.7589 54.9889V48.6954C91.7589 46.7105 90.269 45.9036 88.4348 46.8961L57.6999 63.5579C56.7312 64.1475 55.9246 64.9428 55.3455 65.8793C54.7664 66.8159 54.4313 67.8671 54.3672 68.9478V75.2413C54.3672 77.2262 55.8656 78.0331 57.6999 77.0407Z" fill="white"/>
<path d="M113.789 125.993C113.789 127.978 115.279 128.785 117.113 127.793L147.848 111.163C148.815 110.573 149.62 109.777 150.198 108.841C150.775 107.904 151.109 106.853 151.172 105.773V99.4798C151.172 97.4949 149.682 96.688 147.848 97.6805L117.113 114.31C116.146 114.901 115.341 115.696 114.764 116.633C114.186 117.569 113.852 118.62 113.789 119.7V125.993Z" fill="white"/>
<path d="M67.8621 207.1L37.1444 223.73C36.1773 224.32 35.3724 225.116 34.7948 226.052C34.2173 226.989 33.8834 228.04 33.8203 229.12V235.413C33.8203 237.398 35.3101 238.205 37.1444 237.212L67.8879 220.583C68.8539 219.992 69.6575 219.196 70.2336 218.259C70.8096 217.323 71.1419 216.272 71.2034 215.193V208.899C71.1775 206.915 69.6963 206.108 67.8621 207.1Z" fill="white"/>
<path d="M190.949 1.21143C181.725 1.85078 172.56 3.0937 163.521 4.93109L157.105 8.40062C156.138 8.99113 155.333 9.78687 154.756 10.7233C154.178 11.6598 153.844 12.7106 153.781 13.7905V20.0921C153.781 22.077 155.271 22.8758 157.105 21.8834L187.849 5.25384C189.383 4.31424 190.488 2.8731 190.949 1.21143Z" fill="white"/>
<path d="M91.7589 187.461V181.167C91.7589 179.182 90.269 178.376 88.4348 179.368L57.6999 195.998C56.7312 196.587 55.9246 197.382 55.3455 198.319C54.7664 199.255 54.4313 200.307 54.3672 201.387V207.681C54.3672 209.666 55.857 210.473 57.6913 209.48L88.4262 192.851C89.3948 192.261 90.2015 191.466 90.7805 190.529C91.3596 189.593 91.6948 188.542 91.7589 187.461Z" fill="white"/>
<path d="M131.754 232.081V225.787C131.754 223.802 130.273 222.995 128.439 223.988L97.6952 240.617C96.7281 241.208 95.9231 242.004 95.3456 242.94C94.7681 243.877 94.4342 244.927 94.3711 246.007V252.301C94.3711 254.286 95.8609 255.093 97.6952 254.1L128.43 237.471C129.398 236.881 130.203 236.085 130.781 235.148C131.358 234.212 131.692 233.161 131.754 232.081Z" fill="white"/>
<path d="M237.089 162.327L267.832 145.697C268.8 145.107 269.604 144.311 270.182 143.375C270.76 142.438 271.093 141.387 271.156 140.308V134.014C271.156 132.029 269.667 131.222 267.832 132.215L237.089 148.844C236.123 149.435 235.319 150.231 234.743 151.168C234.167 152.104 233.835 153.155 233.773 154.234V160.528C233.773 162.513 235.255 163.319 237.089 162.327Z" fill="white"/>
<path d="M257.672 167.692L288.415 151.063C289.381 150.472 290.185 149.676 290.761 148.739C291.337 147.803 291.669 146.752 291.731 145.673V139.379C291.731 137.395 290.25 136.588 288.415 137.58L257.672 154.21C256.705 154.8 255.9 155.596 255.322 156.532C254.745 157.469 254.411 158.52 254.348 159.6V165.893C254.348 167.886 255.881 168.693 257.672 167.692Z" fill="white"/>
<path d="M233.773 73.4502V79.7437C233.773 81.7286 235.255 82.5355 237.089 81.543L267.832 64.9135C268.8 64.323 269.604 63.5272 270.182 62.5908C270.76 61.6543 271.093 60.6035 271.156 59.5236V53.23C271.156 51.2451 269.667 50.4383 267.832 51.4307L237.089 68.0603C236.123 68.6512 235.319 69.4472 234.743 70.3837C234.167 71.3202 233.835 72.3708 233.773 73.4502Z" fill="white"/>
<path d="M254.625 13.5807C253.658 14.1712 252.853 14.967 252.275 15.9034C251.698 16.8399 251.364 17.8907 251.301 18.9706V25.2722C251.301 27.2491 252.791 28.0559 254.625 27.0635L279.039 13.8228C273.935 11.9293 268.748 10.2349 263.478 8.7395L254.625 13.5807Z" fill="white"/>
<path d="M248.414 45.2988L217.68 61.9283C216.712 62.5189 215.908 63.3146 215.33 64.251C214.752 65.1875 214.419 66.2383 214.355 67.3182V73.6118C214.355 75.5967 215.845 76.4036 217.68 75.4111L248.414 58.7654C249.382 58.1749 250.186 57.3792 250.764 56.4427C251.342 55.5063 251.675 54.4555 251.739 53.3755V47.082C251.739 45.1132 250.249 44.3063 248.414 45.2988Z" fill="white"/>
<path d="M291.731 73.1678C291.731 71.1829 290.25 70.376 288.415 71.3685L257.672 87.998C256.705 88.5885 255.9 89.3843 255.322 90.3207C254.745 91.2572 254.411 92.308 254.348 93.3879V99.6815C254.348 101.666 255.837 102.473 257.672 101.481L288.415 84.8512C289.381 84.2603 290.185 83.4643 290.761 82.5278C291.337 81.5913 291.669 80.5407 291.731 79.4614V73.1678Z" fill="white"/>
<path d="M368.4 94.3967L337.691 111.018C336.724 111.609 335.919 112.404 335.342 113.341C334.764 114.277 334.43 115.328 334.367 116.408V122.71C334.367 124.695 335.848 125.493 337.683 124.501L368.426 107.871C369.393 107.281 370.198 106.485 370.776 105.549C371.353 104.612 371.687 103.561 371.75 102.482V96.188C371.724 94.2031 370.235 93.4043 368.4 94.3967Z" fill="white"/>
<path d="M367.959 78.1301L357.074 84.0364C356.107 84.6269 355.302 85.4227 354.725 86.3591C354.147 87.2956 353.813 88.3464 353.75 89.4263V95.7199C353.75 97.7048 355.24 98.5116 357.074 97.5192L374.986 87.8368C372.638 84.378 370.296 81.1424 367.959 78.1301Z" fill="white"/>
<path d="M211.746 122.661V116.368C211.746 114.383 210.257 113.576 208.422 114.568L177.679 131.198C176.714 131.79 175.911 132.586 175.335 133.522C174.759 134.459 174.426 135.509 174.363 136.588V142.881C174.363 144.866 175.853 145.673 177.679 144.681L208.422 128.051C209.389 127.461 210.194 126.665 210.772 125.728C211.349 124.792 211.683 123.741 211.746 122.661Z" fill="white"/>
<path d="M328.407 49.7689L297.663 66.3984C296.697 66.9893 295.894 67.7854 295.317 68.7219C294.741 69.6584 294.409 70.7089 294.348 71.7883V78.0819C294.348 80.0668 295.829 80.8736 297.663 79.8812L328.407 63.2516C329.374 62.6611 330.179 61.8654 330.756 60.9289C331.334 59.9925 331.668 58.9417 331.731 57.8617V51.5682C331.731 49.5833 330.241 48.7764 328.407 49.7689Z" fill="white"/>
<path d="M187.849 175.414L157.105 192.044C156.138 192.634 155.333 193.43 154.756 194.366C154.178 195.303 153.844 196.354 153.781 197.434V203.727C153.781 205.712 155.271 206.519 157.105 205.526L187.849 188.897C188.816 188.306 189.621 187.511 190.198 186.574C190.776 185.638 191.11 184.587 191.173 183.507V177.213C191.164 175.229 189.674 174.422 187.849 175.414Z" fill="white"/>
<path d="M27.5866 295.92C28.5525 295.329 29.3562 294.533 29.9322 293.597C30.5083 292.66 30.8406 291.61 30.9021 290.53V284.237C30.9021 282.252 29.4209 281.445 27.5866 282.437L13.3516 290.135C14.9675 293.736 16.7753 297.258 18.7683 300.689L27.5866 295.92Z" fill="white"/>
<path d="M313.758 111.034V117.328C313.758 119.313 315.248 120.12 317.082 119.127L347.817 102.498C348.784 101.907 349.589 101.111 350.166 100.175C350.744 99.2386 351.078 98.1878 351.141 97.1078V90.8143C351.141 88.8294 349.651 88.0225 347.817 89.0149L317.082 105.645C316.115 106.235 315.31 107.031 314.732 107.967C314.155 108.904 313.821 109.954 313.758 111.034Z" fill="white"/>
</g>
<path opacity="0.15" d="M136.604 313.195C136.26 313.011 135.907 312.844 135.544 312.695L135.674 312.622L75.3922 281.719V260.926L61.8203 268.261V289.054L117.744 317.722C117.865 319.158 118.933 320.586 120.965 321.683C125.271 324.023 132.272 324.023 136.595 321.683C138.765 320.522 139.842 318.972 139.842 317.431C139.842 315.89 138.765 314.357 136.604 313.195Z" fill="black"/>
<path opacity="0.15" d="M118.908 323.2C118.562 323.014 118.206 322.847 117.84 322.7L117.969 322.627L57.6875 291.724V270.972L44.1328 278.233V299.026L100.057 327.695C100.177 329.131 101.236 330.559 103.277 331.656C107.583 333.996 114.585 333.996 118.908 331.656C121.078 330.486 122.154 328.945 122.154 327.404C122.154 325.863 121.078 324.362 118.908 323.2Z" fill="black"/>
<path opacity="0.15" d="M324.07 359.953C318.078 356.576 311.607 354.006 304.849 352.32C296.186 349.996 285.904 348.286 278.566 345.47C268.99 341.815 264.702 336.401 264.418 330.398C264.254 327.001 265.795 322.99 273.529 319.4C275.793 318.338 278.196 317.56 280.676 317.084C284.141 316.488 287.691 316.463 291.165 317.012C306.77 319.174 314.132 324.806 320.135 330.43C326.137 336.054 332.802 338.878 344.678 343.34C349.759 345.236 355.167 347.035 359.998 348.988L360.11 349.036C362.535 349.905 364.897 350.921 367.18 352.078C370.332 353.934 373.165 355.911 374.569 358.218C375.973 360.526 375.869 363.205 373.268 366.053C372.409 367.015 371.308 367.764 370.065 368.232C368.487 368.825 366.844 369.253 365.165 369.506C361.865 370.067 358.509 370.281 355.158 370.144C352.503 370.015 349.865 369.677 347.27 369.135C338.987 367.475 331.115 364.359 324.07 359.953Z" fill="black"/>
<path d="M72.9347 257.892L77.3611 260.313L68.4911 274.667L64.0647 272.247C62.928 271.633 62.2305 270.318 62.2305 268.446C62.3472 266.409 62.9749 264.425 64.0626 262.658C65.1504 260.89 66.6676 259.387 68.4911 258.272C70.2307 257.36 71.798 257.255 72.9347 257.892Z" fill="#455A64"/>
<path d="M66.6562 270.867C66.7746 268.829 67.4039 266.845 68.4931 265.078C69.5824 263.31 71.1009 261.808 72.9255 260.692C76.3702 258.82 79.1948 260.337 79.1948 264.081C79.0764 266.119 78.4471 268.103 77.3579 269.87C76.2687 271.638 74.7502 273.141 72.9255 274.256C69.4636 276.128 66.6562 274.611 66.6562 270.867Z" fill="#263238"/>
<g opacity="0.3">
<path d="M68.4922 269.874C68.5753 268.433 69.0203 267.029 69.7909 265.779C70.5615 264.528 71.636 263.466 72.9272 262.677C75.3729 261.354 77.3622 262.427 77.3622 265.098C77.279 266.54 76.8341 267.943 76.0635 269.193C75.2929 270.444 74.2184 271.507 72.9272 272.295C70.4815 273.594 68.4922 272.521 68.4922 269.874Z" fill="black"/>
</g>
<g opacity="0.3">
<path d="M74.2275 263.379C74.1444 264.821 73.6994 266.224 72.9288 267.475C72.1582 268.726 71.0837 269.788 69.7925 270.577C69.4367 270.764 69.0579 270.91 68.6644 271.012C68.5505 270.643 68.4925 270.26 68.4922 269.875C68.5753 268.433 69.0203 267.03 69.7909 265.779C70.5615 264.528 71.636 263.466 72.9272 262.677C73.2853 262.489 73.6672 262.342 74.0639 262.242C74.1705 262.613 74.2255 262.995 74.2275 263.379Z" fill="black"/>
</g>
<path d="M69.7888 272.586L121.743 300.721C121.983 300.85 122.182 301.035 122.321 301.259C122.46 301.483 122.534 301.737 122.535 301.996V318.65H135.074V304.183V300.431C135.074 298.581 134.555 296.763 133.568 295.161C132.581 293.559 131.16 292.229 129.45 291.305L76.0581 262.395C75.5561 262.176 75.0009 262.087 74.4498 262.137C73.8987 262.186 73.3718 262.373 72.9235 262.677C71.6323 263.466 70.5578 264.528 69.7872 265.779C69.0166 267.029 68.5716 268.433 68.4885 269.875C68.4255 270.395 68.5139 270.922 68.7443 271.399C68.9748 271.876 69.3386 272.286 69.7975 272.586H69.7888Z" fill="#455A64"/>
<path d="M135.078 300.987C135.074 300.171 134.967 299.359 134.759 298.567C134.802 298.881 134.94 301.124 130.333 302.561C125.355 304.11 122.539 302.561 122.539 302.561V318.658H135.078V304.739V300.987Z" fill="#37474F"/>
<g opacity="0.3">
<path d="M69.7928 272.585L121.747 300.721C121.986 300.85 122.186 301.035 122.325 301.259C122.464 301.483 122.538 301.737 122.539 301.996V318.649H127.189V306.216V304.602C127.186 302.749 126.663 300.929 125.671 299.326C124.679 297.722 123.255 296.392 121.54 295.468L69.1727 267.107C68.7675 267.983 68.5369 268.921 68.4924 269.874C68.4294 270.395 68.5178 270.922 68.7482 271.399C68.9787 271.876 69.3426 272.286 69.8014 272.585H69.7928Z" fill="black"/>
</g>
<path d="M137.677 311.953V316.754C137.677 317.988 136.815 319.231 135.093 320.167C133.147 321.094 130.994 321.577 128.811 321.577C126.628 321.577 124.475 321.094 122.529 320.167C120.806 319.231 119.945 317.988 119.945 316.762V311.92H122.589C122.601 312.243 122.684 312.56 122.832 312.851C122.98 313.143 123.19 313.403 123.45 313.615L123.666 313.808C123.905 314 124.162 314.173 124.432 314.325C125.807 314.981 127.328 315.323 128.871 315.323C130.414 315.323 131.936 314.981 133.311 314.325C133.582 314.175 133.839 314.002 134.077 313.808L134.292 313.615C134.552 313.402 134.762 313.143 134.91 312.851C135.058 312.56 135.141 312.243 135.153 311.92L137.677 311.953Z" fill="#263238"/>
<path d="M137.677 311.953C137.677 313.179 136.815 314.422 135.093 315.358C133.146 316.281 130.994 316.762 128.811 316.762C126.628 316.762 124.476 316.281 122.529 315.358C120.806 314.422 119.945 313.179 119.945 311.953C119.945 310.726 120.806 309.492 122.529 308.556V311.977C122.541 312.299 122.623 312.616 122.772 312.908C122.92 313.199 123.13 313.459 123.39 313.671L123.605 313.865C123.845 314.057 124.101 314.229 124.372 314.381C125.747 315.037 127.268 315.379 128.811 315.379C130.354 315.379 131.875 315.037 133.25 314.381C133.522 314.231 133.779 314.059 134.017 313.865L134.232 313.671C134.491 313.459 134.702 313.199 134.85 312.908C134.998 312.616 135.081 312.299 135.093 311.977V308.58C136.815 309.492 137.677 310.726 137.677 311.953Z" fill="#455A64"/>
<path d="M54.8332 267.688L59.2595 270.108L50.3982 284.463L45.9632 282.042C44.8264 281.429 44.1289 280.114 44.1289 278.242C44.2473 276.203 44.8766 274.22 45.9658 272.452C47.055 270.685 48.5735 269.182 50.3982 268.067C52.1291 267.155 53.705 267.066 54.8332 267.688Z" fill="#455A64"/>
<path d="M48.5547 280.654C48.673 278.616 49.3023 276.633 50.3916 274.865C51.4808 273.097 52.9993 271.595 54.8239 270.48C58.2686 268.608 61.0932 270.125 61.0932 273.868C60.9749 275.907 60.3456 277.89 59.2563 279.658C58.1671 281.426 56.6486 282.928 54.8239 284.043C51.3621 285.923 48.5547 284.406 48.5547 280.654Z" fill="#263238"/>
<g opacity="0.3">
<path d="M50.3945 279.67C50.4774 278.229 50.9213 276.826 51.6903 275.576C52.4593 274.325 53.5318 273.262 54.8209 272.472C57.2752 271.149 59.2559 272.222 59.2559 274.893C59.1741 276.335 58.7297 277.739 57.959 278.99C57.1883 280.24 56.113 281.303 54.8209 282.09C52.3752 283.389 50.3945 282.316 50.3945 279.67Z" fill="black"/>
</g>
<g opacity="0.3">
<path d="M56.0861 273.174C56.0043 274.617 55.5599 276.02 54.7892 277.271C54.0185 278.522 52.9433 279.584 51.6511 280.372C51.296 280.56 50.917 280.707 50.523 280.807C50.4164 280.436 50.3614 280.054 50.3594 279.67C50.4423 278.229 50.8862 276.826 51.6552 275.576C52.4242 274.325 53.4966 273.262 54.7857 272.472C55.1446 272.285 55.5262 272.138 55.9225 272.037C56.0291 272.408 56.0841 272.79 56.0861 273.174Z" fill="black"/>
</g>
<path d="M51.6968 282.365L103.651 310.508C103.888 310.639 104.086 310.825 104.223 311.048C104.36 311.272 104.433 311.525 104.434 311.783V327.88H116.973V313.978V310.226C116.973 308.376 116.453 306.559 115.466 304.957C114.479 303.355 113.059 302.025 111.35 301.1L57.9575 272.19C57.4539 271.971 56.8974 271.882 56.345 271.932C55.7926 271.982 55.2642 272.168 54.8142 272.472C53.5251 273.262 52.4526 274.325 51.6836 275.576C50.9146 276.826 50.4707 278.229 50.3878 279.67C50.3306 280.185 50.4208 280.706 50.6494 281.178C50.8779 281.65 51.2364 282.057 51.6882 282.357L51.6968 282.365Z" fill="#455A64"/>
<path d="M116.976 310.226C116.973 309.41 116.866 308.597 116.657 307.805C116.709 308.128 116.838 310.363 112.231 311.799C107.254 313.348 104.438 311.799 104.438 311.799V327.896H116.976V313.978V310.226Z" fill="#37474F"/>
<g opacity="0.3">
<path d="M51.6999 282.365L103.654 310.508C103.891 310.639 104.089 310.825 104.226 311.048C104.363 311.272 104.436 311.525 104.437 311.783V327.88H109.088V316.019V314.405C109.089 312.553 108.569 310.734 107.581 309.13C106.592 307.526 105.169 306.195 103.456 305.272L51.0799 276.902C50.6705 277.777 50.4398 278.715 50.3996 279.67C50.3423 280.185 50.4325 280.706 50.6611 281.178C50.8896 281.65 51.2482 282.057 51.6999 282.357V282.365Z" fill="black"/>
</g>
<path d="M119.584 321.748V326.549C119.584 327.783 118.723 329.026 117 329.962C115.052 330.889 112.898 331.372 110.714 331.372C108.529 331.372 106.375 330.889 104.427 329.962C102.705 329.026 101.844 327.783 101.844 326.557V321.716H104.488C104.498 322.038 104.58 322.356 104.728 322.648C104.876 322.939 105.088 323.199 105.349 323.41C105.413 323.478 105.482 323.543 105.555 323.604C105.793 323.798 106.05 323.971 106.322 324.12C107.698 324.776 109.221 325.118 110.765 325.118C112.31 325.118 113.832 324.776 115.209 324.12C115.48 323.969 115.736 323.796 115.975 323.604C116.053 323.539 116.113 323.475 116.182 323.41C116.439 323.195 116.647 322.935 116.795 322.644C116.943 322.353 117.027 322.037 117.043 321.716L119.584 321.748Z" fill="#263238"/>
<path d="M119.584 321.748C119.584 322.974 118.723 324.217 117 325.153C115.051 326.076 112.898 326.557 110.714 326.557C108.53 326.557 106.376 326.076 104.427 325.153C102.705 324.217 101.844 322.974 101.844 321.748C101.844 320.521 102.705 319.287 104.427 318.351V321.772C104.438 322.095 104.52 322.412 104.668 322.704C104.816 322.996 105.027 323.255 105.288 323.466C105.353 323.535 105.422 323.6 105.495 323.66C105.733 323.854 105.989 324.027 106.262 324.176C107.638 324.833 109.161 325.175 110.705 325.175C112.25 325.175 113.772 324.833 115.149 324.176C115.42 324.025 115.676 323.852 115.915 323.66C115.993 323.595 116.053 323.531 116.122 323.466C116.379 323.252 116.587 322.992 116.735 322.701C116.883 322.41 116.967 322.094 116.983 321.772V318.375C118.714 319.287 119.584 320.521 119.584 321.748Z" fill="#455A64"/>
<path d="M198.574 82.8746C198.574 57.8617 189.196 40.2801 174.048 32.0823C158.9 23.8845 137.966 25.0706 114.835 37.5851C68.5903 62.598 31.1211 123.436 31.1211 173.47C31.1211 198.483 40.4992 216.064 55.647 224.254C70.7948 232.444 91.7297 231.266 114.861 218.759C161.088 193.746 198.574 132.909 198.574 82.8746Z" fill="#BA68C8"/>
<path opacity="0.95" d="M198.574 82.8746C198.574 57.8617 189.196 40.2801 174.048 32.0823C158.9 23.8845 137.966 25.0706 114.835 37.5851C68.5903 62.598 31.1211 123.436 31.1211 173.47C31.1211 198.483 40.4992 216.064 55.647 224.254C70.7948 232.444 91.7297 231.266 114.861 218.759C161.088 193.746 198.574 132.909 198.574 82.8746Z" fill="white"/>
<g opacity="0.2">
<path d="M67.8638 207.1L47.2734 218.235C49.7648 220.575 52.5732 222.599 55.6267 224.254C56.5568 224.763 57.504 225.23 58.4772 225.658L67.8638 220.583C68.8298 219.992 69.6334 219.196 70.2095 218.259C70.7856 217.323 71.1178 216.272 71.1793 215.193V208.899C71.1793 206.915 69.6981 206.108 67.8638 207.1Z" fill="#BA68C8"/>
<path d="M113.789 92.888C113.789 94.8729 115.279 95.6797 117.113 94.6873L147.848 78.0577C148.815 77.4672 149.62 76.6715 150.198 75.735C150.775 74.7986 151.109 73.7478 151.172 72.6679V66.3662C151.172 64.3894 149.682 63.5825 147.848 64.575L117.113 81.2045C116.146 81.795 115.341 82.5908 114.764 83.5272C114.186 84.4637 113.852 85.5145 113.789 86.5944V92.888Z" fill="#BA68C8"/>
<path d="M147.848 97.6807L117.113 114.31C116.146 114.901 115.341 115.697 114.764 116.633C114.186 117.569 113.852 118.62 113.789 119.7V125.994C113.789 127.979 115.279 128.785 117.113 127.793L147.848 111.163C148.815 110.573 149.62 109.777 150.198 108.841C150.775 107.904 151.109 106.854 151.172 105.774V99.48C151.172 97.4951 149.682 96.6883 147.848 97.6807Z" fill="#BA68C8"/>
<path d="M91.7617 55.0217V53.5532C87.4094 57.2834 83.2646 61.2207 79.3438 65.3496L88.4376 60.3793C89.4002 59.792 90.2023 59.0014 90.7796 58.0709C91.3569 57.1404 91.6933 56.0961 91.7617 55.0217Z" fill="#BA68C8"/>
<path d="M167.87 169.581L137.687 185.912C136.721 186.501 135.918 187.296 135.342 188.231C134.766 189.166 134.433 190.216 134.371 191.294V197.595C134.371 199.58 135.852 200.379 137.687 199.387L147.159 194.255C154.816 186.61 161.746 178.354 167.87 169.581Z" fill="#BA68C8"/>
<path d="M177.679 131.198C176.714 131.79 175.911 132.586 175.335 133.522C174.759 134.459 174.426 135.509 174.363 136.588V142.881C174.363 144.866 175.853 145.673 177.679 144.681L184.353 141.074C186.965 135.447 189.264 129.697 191.242 123.847L177.679 131.198Z" fill="#BA68C8"/>
<path d="M91.7589 187.461V181.168C91.7589 179.183 90.269 178.376 88.4348 179.368L57.6999 195.998C56.7312 196.587 55.9246 197.383 55.3455 198.319C54.7664 199.256 54.4313 200.307 54.3672 201.388V207.681C54.3672 209.666 55.857 210.473 57.6913 209.481L88.4262 192.851C89.3948 192.261 90.2015 191.466 90.7805 190.53C91.3596 189.593 91.6948 188.542 91.7589 187.461Z" fill="#BA68C8"/>
<path d="M107.856 119.281L77.1124 135.91C76.1464 136.501 75.3427 137.297 74.7667 138.234C74.1906 139.17 73.8584 140.221 73.7969 141.3V147.594C73.7969 149.579 75.2781 150.385 77.1124 149.393L107.856 132.763C108.831 132.173 109.643 131.375 110.226 130.434C110.808 129.493 111.144 128.436 111.206 127.349V121.056C111.206 119.095 109.69 118.288 107.856 119.281Z" fill="#BA68C8"/>
</g>
<path opacity="0.2" d="M251.975 202.057L86.6316 228.749C74.8681 230.564 64.3103 228.95 55.6298 224.262C40.4819 216.056 31.1211 198.483 31.1211 173.47C31.1211 123.444 68.6161 62.5982 114.861 37.5772C137.983 25.0707 158.918 23.8604 174.065 32.0824C182.729 36.7703 189.497 44.5243 193.709 54.9813L251.975 202.057Z" fill="#BA68C8"/>
<path opacity="0.2" d="M251.975 202.057L86.6316 228.749C74.8681 230.564 64.3103 228.95 55.6298 224.262C40.4819 216.056 31.1211 198.483 31.1211 173.47C31.1211 123.444 68.6161 62.5982 114.861 37.5772C137.983 25.0707 158.918 23.8604 174.065 32.0824C182.729 36.7703 189.497 44.5243 193.709 54.9813L251.975 202.057Z" fill="white"/>
<path d="M363.43 197.708L355.033 179.062C351.02 169.452 352.527 156.469 352.527 156.469C357.358 156.389 361.888 157.922 365.023 163.239C368.157 168.556 374.34 187.445 375.753 191.552C377.01 195.084 377.706 198.771 377.82 202.493C378.095 207.237 376.803 215.968 376.468 220.688C376.313 222.875 376.338 224.972 376.347 227.143C376.356 229.313 375.727 231.661 375.4 233.945C375.207 235.024 374.714 236.038 373.97 236.882C373.505 237.422 372.765 237.6 372.325 238.108C371.886 238.617 371.895 239.367 371.223 239.835C370.551 240.303 369.501 240.279 368.872 240.795C368.267 241.407 367.623 241.984 366.943 242.522C366.281 242.831 365.71 243.288 365.281 243.853C364.911 244.41 364.67 245.556 363.817 245.62C362.965 245.685 362.543 244.87 362.353 244.144C362.102 242.702 362.35 241.224 363.059 239.924C363.783 238.568 364.162 237.075 365.057 235.809C365.796 234.555 366.228 233.163 366.323 231.734C366.435 230.774 366.116 229.628 364.971 230.378C363.619 231.258 362.319 232.847 360.493 232.872C359.227 232.872 358.986 231.992 359.546 231.113C360.476 229.665 361.29 228.154 361.983 226.594C362.689 224.98 363.214 223.367 363.972 221.793C364.382 220.971 364.851 220.176 365.376 219.413C366.797 217.275 366.237 214.79 365.987 212.434C365.626 209.166 364.196 201.88 363.43 197.708Z" fill="#FFA8A7"/>
<path d="M351.707 155.727C358.519 156.203 362.325 157.51 365.959 163.795C369.593 170.081 374.442 185.234 375.501 188.357C376.875 192.125 377.743 196.039 378.084 200.008C378.278 202.282 378.295 204.566 378.136 206.842C378.136 206.842 377.215 208.512 371.764 208.512C366.312 208.512 364.702 207.617 364.702 207.617L362.98 197.87L351.785 174.729L351.707 155.727Z" fill="#455A64"/>
<path d="M272.248 326.759C271.697 326.533 271.241 327.84 271.387 328.566C271.783 330.672 273.971 333.464 277.777 335.57C281.583 337.676 290.057 339.104 292.537 339.758C295.017 340.411 298.849 342.864 301.149 343.97C305.368 345.987 308.813 345.753 310.725 344.857C311.059 344.659 311.346 344.398 311.569 344.091C311.791 343.785 311.943 343.438 312.017 343.074C312.516 341.46 312.482 341.113 312.292 341.065L272.248 326.759Z" fill="#263238"/>
<path d="M313.387 336.328C313.172 338.335 312.641 340.301 311.811 342.162C311.318 342.61 310.729 342.955 310.084 343.175C309.438 343.394 308.75 343.484 308.065 343.437C304.862 343.437 302.037 342.38 299.092 340.766C297.2 339.651 295.154 338.783 293.012 338.184C290.429 337.547 284.668 336.385 282.118 335.651C279.736 334.965 277.529 333.828 275.634 332.31C274.213 331.076 272.189 328.687 272.086 327.299C272.517 324.282 273.412 322.684 275.531 322.248C277.649 321.813 280.448 322.386 284.194 323.233C285.313 323.491 286.708 323.846 287.32 323.967C289.611 324.403 291.729 324.879 293.443 325.282C294.867 325.728 296.379 325.868 297.869 325.694C298.549 325.631 299.183 325.345 299.66 324.887C300.263 324.266 300.616 323.201 301.322 323.346C301.322 323.346 313.146 329.131 314.128 329.535C315.222 329.946 313.921 331.277 313.387 336.328Z" fill="#37474F"/>
<path d="M272.086 327.267C272.275 325.169 273.059 322.426 275.694 322.095C279.638 321.595 283.496 323.104 287.285 323.935L282.687 322.942C277.382 321.902 272.887 320.74 272.086 327.267Z" fill="white"/>
<path d="M286.355 323.532C285.875 323.69 285.437 323.943 285.071 324.274C284.676 324.633 284.326 325.033 284.029 325.468C283.659 326.017 284.4 326.372 284.951 325.775C285.376 325.269 285.865 324.814 286.406 324.419C286.79 324.149 287.261 324.01 287.741 324.024L288.395 324.153C288.387 323.661 286.94 323.419 286.355 323.532Z" fill="#FAFAFA"/>
<path d="M292.211 324.621C292.008 324.537 291.788 324.493 291.565 324.493C291.343 324.493 291.123 324.537 290.919 324.621C290.395 324.823 289.942 325.158 289.611 325.589C289.19 326.097 288.815 326.637 288.491 327.203C288.31 327.574 289.283 327.856 289.533 327.469C289.856 326.966 290.207 326.478 290.584 326.009C290.782 325.775 291.634 324.911 292.306 325.016L292.616 325.089C292.668 324.96 292.504 324.806 292.383 324.734L292.211 324.621Z" fill="#FAFAFA"/>
<path d="M295.559 325.532C295.259 325.499 294.956 325.562 294.698 325.71C294.367 325.934 294.076 326.206 293.837 326.517C293.441 327.052 293.13 327.64 292.916 328.26C292.735 328.752 293.777 328.913 293.889 328.59C294.159 327.714 294.673 326.92 295.378 326.291C295.693 326.019 296.075 325.825 296.489 325.726C296.489 325.629 296.36 325.573 296.257 325.557C296.154 325.54 295.714 325.532 295.559 325.532Z" fill="#FAFAFA"/>
<path d="M318.752 317.174C318.752 317.174 315.04 327.735 313.904 330.14C313.542 330.947 311.828 330.745 310.881 330.834C309.742 330.878 308.619 331.099 307.557 331.487C304.784 332.811 303.036 332.786 302.958 328.97C302.958 328.163 302.562 327.744 301.546 327.614C300.77 327.629 299.998 327.503 299.273 327.243C299.186 327.146 299.273 327.001 299.419 326.921C299.878 326.647 300.27 326.284 300.567 325.857C300.864 325.43 301.06 324.948 301.141 324.443C302.295 319.925 302.864 316.028 304.164 310.477L318.752 317.174Z" fill="#FFA8A7"/>
<path d="M327.724 212.7C327.724 212.7 322.049 219.066 318.621 230.984C315.514 242.05 313.15 253.287 311.542 264.63C310.724 269.705 310.121 273.32 308.649 282.559C307.426 290.248 302.035 318.868 302.035 318.868C302.035 318.868 305.988 322.095 309.312 323.257C312.412 324.355 315.28 324.79 316.417 324.355C316.417 324.355 320.232 315.172 324.951 303.15C327.228 297.643 329.045 291.977 330.385 286.206C331.005 283.229 330.858 277.936 330.798 275.265L356.168 238.552C358.216 236.279 359.82 233.684 360.904 230.887C364.237 223.044 359.983 211.732 359.983 211.732L327.724 212.7Z" fill="#263238"/>
<path d="M318.621 230.984C314.574 245.152 312.378 260.338 310.113 274.861C307.788 289.11 304.731 304.618 302.035 318.86C304.412 304.546 307.469 289.086 309.682 274.805C312.076 260.281 314.246 245.088 318.621 230.984Z" fill="white"/>
<path d="M352.688 223.012H321.532C320.37 225.604 319.397 228.268 318.621 230.984C315.728 241.174 313.507 251.522 311.973 261.968C312.73 266.744 313.583 271.65 314.384 275.023C316.477 283.898 317.777 290.224 319.439 293.895C321.101 297.567 325.071 302.771 325.088 302.771C327.302 297.364 329.072 291.808 330.384 286.149C331.004 283.172 330.858 277.879 330.798 275.208L349.227 248.582L350.656 240.311C355.367 233.114 354.841 227.724 352.688 223.012Z" fill="black"/>
<path d="M363.585 333.811C361.983 331.39 361.113 326.799 357.6 317.415L343.898 327.905L352.019 340.008C352.276 340.627 352.472 341.267 352.605 341.92C354.353 344.3 363.585 333.811 363.585 333.811Z" fill="#FFA8A7"/>
<path d="M368.415 338.927C368.415 338.789 368.476 337.66 368.415 337.523C368.071 336.304 367.27 335.965 366.236 335.288C365.201 334.631 364.248 333.868 363.395 333.012C363.05 332.56 362.981 332.326 362.447 332.125C361.752 331.921 361.017 331.861 360.294 331.951C359.571 332.04 358.878 332.275 358.262 332.641C355.3 334.093 354.395 335.868 354.568 337.757C354.697 339.201 354.826 341.129 353.457 341.993C352.888 342.356 351.993 340.04 351.993 340.04C351.132 341.355 352.337 343.187 352.949 345.866C353.304 347.345 353.334 348.877 353.035 350.368C352.733 352.716 352.389 352.708 351.054 352.869C349.909 353.014 346.654 352.813 344.673 354.104C343.919 354.516 343.321 355.139 342.963 355.886C342.604 356.632 342.504 357.465 342.675 358.267C343.028 359.171 345.999 363.552 356.833 361.914C359.976 361.438 366.581 356.807 366.486 356.379C366.43 355.937 366.43 355.49 366.486 355.048C366.486 354.007 366.564 352.966 366.615 351.933C366.574 350.94 366.638 349.946 366.805 348.964C367.005 348.168 367.137 347.359 367.201 346.543C367.408 344.454 367.623 342.372 367.83 340.29C367.942 339.653 368.501 339.556 368.415 338.927Z" fill="#37474F"/>
<path d="M369.782 338.515C370.85 339.483 370.196 342.299 368.766 345.672C368.129 347.165 366.949 349.747 367.293 352.482C367.638 355.217 367.698 356.516 366.949 357.799C365.769 359.808 359.466 362.382 355.754 363.189C357.999 360.239 359.306 356.753 359.526 353.136C359.905 347.092 360.387 343.195 363.349 340.508C367.078 337.135 369.782 338.515 369.782 338.515Z" fill="black"/>
<path d="M342.699 358.267C342.699 358.267 344.869 362.084 353.257 361.955C356.564 361.906 358.329 360.398 358.424 355.702C358.527 350.054 359.01 344.309 360.964 341.501C362.919 338.693 366.037 337.321 368.457 337.523C369.022 337.683 369.502 338.038 369.8 338.515C369.8 338.515 367.38 337.773 363.617 340.694C360.835 342.856 360.086 347.367 360.129 352.966C360.129 355.387 360.301 358.114 359.552 359.946C359.205 360.751 358.662 361.469 357.967 362.043C357.272 362.617 356.444 363.032 355.548 363.254C350.984 364.448 344.749 362.447 343.173 360.672C342.904 360.331 342.721 359.938 342.639 359.521C342.557 359.104 342.578 358.676 342.699 358.267Z" fill="#263238"/>
<path d="M352.778 351.844C352.438 352.069 352.196 352.402 352.097 352.78C352.06 353.264 352.162 353.748 352.394 354.181C352.626 354.614 352.979 354.981 353.415 355.241C353.923 355.54 354.362 355.435 353.561 354.435C353.048 353.656 352.777 352.759 352.778 351.844Z" fill="#FAFAFA"/>
<path d="M353.198 348.907C353.198 348.907 352.931 349.069 352.871 349.86C353.01 350.859 353.564 351.766 354.413 352.385C355.274 352.789 354.817 351.836 354.413 351.368C353.816 350.644 353.401 349.803 353.198 348.907Z" fill="#FAFAFA"/>
<path d="M352.931 345.672C352.931 345.672 352.638 345.745 352.931 346.826C353.338 347.509 353.982 348.041 354.757 348.335C355.325 348.399 355.618 348.133 354.903 347.657C354.369 347.286 353.034 346.196 352.931 345.672Z" fill="#FAFAFA"/>
<path d="M347.4 212.7C348.881 214.12 352.567 218.889 353.17 226.223C353.398 231.043 351.782 235.781 348.614 239.585C347.426 255.851 346.298 286.561 346.298 286.561C350.328 291.894 351.353 295.315 354.005 303.247C355.615 308.088 361.196 327.178 361.196 327.178C353.032 328.332 348.072 335.054 348.072 335.054C348.072 335.054 336.756 317.972 329.229 306.087C323.718 297.389 321.823 293.645 319.981 288.715C318.258 284.18 317.053 278.694 315.399 268.108C313.746 257.522 312.127 243.587 311.317 233.162C310.508 222.737 310.973 211.853 310.973 211.853L347.4 212.7Z" fill="#263238"/>
<path d="M348.076 335.054C344.175 329.268 336.468 317.609 332.687 311.759C327.736 303.909 322.216 296.211 319.339 287.408C317.042 278.522 315.316 269.515 314.172 260.434C312.958 251.373 311.994 242.28 311.348 233.162C311.744 237.713 312.212 242.258 312.751 246.798C314.293 260.402 316.196 274.038 319.778 287.303C322.586 296.058 328.063 303.788 332.954 311.622L348.102 335.021L348.076 335.054Z" fill="white"/>
<path d="M362.119 225.449C360.791 225.047 359.628 224.272 358.786 223.23C358.387 222.504 358.097 221.73 357.925 220.93C357.58 219.593 357.11 218.286 356.521 217.025L355.66 217.38C356.22 218.601 356.67 219.864 357.004 221.156C357.196 222.043 357.523 222.899 357.977 223.698C358.983 224.969 360.409 225.893 362.033 226.328C362.067 226.038 362.102 225.787 362.119 225.449Z" fill="black"/>
<path d="M339.821 234.768C340.024 234.769 340.226 234.75 340.424 234.711C341.785 234.429 342.844 233.574 344.954 231.048C346.556 229.12 346.392 227.74 346.125 225.448C346.022 224.601 345.075 220.107 345.023 218.921L344.119 219.389C344.179 220.607 345.092 224.69 345.186 225.545C345.462 227.821 345.583 228.862 344.213 230.499C342.259 232.839 341.328 233.622 340.218 233.856C339.107 234.09 334.379 233.34 333.104 232.517C332.372 232.041 331.15 226.167 330.426 220.986L329.496 221.108C329.858 223.722 331.15 232.323 332.57 233.211C333.836 234.058 337.927 234.816 339.821 234.768Z" fill="black"/>
<path d="M330.723 150.983L332.436 162.747L349.496 161.932L347.653 149.192L330.723 150.983Z" fill="#FFA8A7"/>
<path d="M323.919 128.963C322.61 130.521 318.597 134.765 317.891 135.878L321.714 138.049L323.919 128.963Z" fill="#F28F8F"/>
<path d="M323.919 128.963C322.075 131.391 320.062 133.701 317.891 135.878C319.601 133.358 321.625 131.037 323.919 128.963Z" fill="white"/>
<path d="M333.391 117.143C328.121 116.61 324.702 120.112 323.169 130.625C323.109 131.037 322.463 131.682 321.972 133.256C319.854 140.001 321.033 146.424 322.256 148.135C325.313 150.434 328.706 151.297 333.624 150.902C337.37 150.604 346.928 149.538 351.785 144.794C357.486 139.219 360.397 130.803 356.315 126.446C350.614 120.306 336.319 117.433 333.391 117.143Z" fill="#FFA8A7"/>
<path d="M333.391 117.143C325.469 116.521 324.375 125.591 323.238 131.037C321.077 134.87 320.749 139.477 321.085 143.745C321.165 145.266 321.563 146.757 322.257 148.135C321.499 146.777 321.028 145.295 320.87 143.769C320.388 139.445 320.689 134.773 322.859 130.86C323.901 125.389 325.443 116.166 333.391 117.143Z" fill="white"/>
<path d="M322.273 148.135C322.945 149.079 327.776 151.402 330.808 151.58L330.523 149.369C327.727 149.301 324.953 148.886 322.273 148.135Z" fill="#F28F8F"/>
<path d="M332.364 135.563C332.416 135.732 332.517 135.884 332.657 136.001C332.797 136.118 332.969 136.195 333.154 136.224C333.339 136.252 333.529 136.231 333.702 136.163C333.874 136.095 334.023 135.982 334.13 135.838C334.685 135.076 335.329 134.375 336.05 133.748C336.966 133.041 338.128 132.674 339.314 132.715C343.74 133.03 342.655 138.492 340.485 140.397C336.928 143.503 335.042 140.816 335.042 140.816C335.042 140.816 332.459 146.101 336.205 149.191C336.205 149.191 342.629 151.79 347.676 150.321C351.448 146.513 353.971 144.108 356.511 140.832C362.539 133.07 362.539 125.389 358.673 123.194C358.888 120.443 357.304 116.295 351.258 113.907C345.506 111.624 341.656 111.85 337.48 112.067C333.303 112.285 328.205 114.068 324.338 111.043C323.865 112.135 323.677 113.318 323.789 114.493C323.901 115.667 324.311 116.8 324.984 117.796C324.359 117.515 323.641 117.477 322.987 117.692C322.333 117.907 321.797 118.357 321.496 118.942C321.196 119.527 321.156 120.2 321.385 120.813C321.615 121.426 322.095 121.928 322.719 122.21C322.306 122.431 321.987 122.779 321.816 123.195C321.645 123.611 321.633 124.07 321.781 124.493C321.952 124.909 322.246 125.27 322.629 125.535C323.012 125.799 323.467 125.956 323.942 125.986C324.807 126.033 325.674 125.982 326.526 125.833C327.74 129.012 331.572 130.125 333.854 129.996C333.794 129.996 333.492 130.432 333.449 130.488C333.32 130.666 333.2 130.851 333.088 131.037C332.87 131.416 332.688 131.813 332.545 132.223C332.264 133.048 332.156 133.917 332.226 134.781C332.223 135.047 332.27 135.312 332.364 135.563Z" fill="#455A64"/>
<path d="M324.356 111.043C323.905 112.136 323.735 113.313 323.86 114.479C323.984 115.645 324.399 116.768 325.071 117.756L325.217 117.966L324.967 117.861C324.366 117.612 323.684 117.592 323.067 117.805C322.449 118.019 321.945 118.449 321.661 119.005C321.376 119.561 321.334 120.199 321.543 120.784C321.752 121.368 322.196 121.854 322.78 122.137L322.935 122.21L322.78 122.282C320.618 123.573 322.203 126.147 324.502 125.978C325.194 125.982 325.885 125.933 326.569 125.833C325.55 126.054 324.496 126.095 323.46 125.954C321.549 125.558 320.877 123.081 322.694 122.137V122.282C322.049 121.994 321.552 121.476 321.314 120.845C321.076 120.213 321.115 119.518 321.424 118.914C321.732 118.309 322.284 117.844 322.958 117.621C323.633 117.398 324.374 117.435 325.019 117.724L324.924 117.837C324.249 116.832 323.843 115.69 323.742 114.506C323.642 113.323 323.849 112.134 324.347 111.043H324.356Z" fill="white"/>
<path d="M356.442 157.51C360.869 159.834 364.236 167.58 363.909 174.043C363.702 178.142 362.186 188.704 360.86 198.047C360.447 200.992 361.721 205.963 362.272 211.933C362.703 216.363 362.763 221.075 362.763 221.075C362.763 221.075 356.83 227.95 340.554 228.845C319.765 229.999 310.56 225.287 310.56 225.287C310.56 225.287 310.439 209.424 310.939 196.853C311.679 178.223 311.722 172.776 314.831 166.426C315.856 164.554 316.932 160.383 320.317 159.552C323.003 158.898 329.187 157.51 331.641 157.131C335.654 158.099 346.074 158.18 348.657 156.122L348.614 155.582C353.084 155.59 353.713 156.082 356.442 157.51Z" fill="#BA68C8"/>
<path d="M245.087 205.18C245.767 205.325 246.68 204.994 247.67 204.18C249.68 202.383 251.028 200.035 251.52 197.474C251.701 196.256 251.52 195.36 250.994 194.909L246.921 191.253C246.355 190.826 245.666 190.567 244.942 190.509C244.217 190.452 243.491 190.598 242.856 190.931C239.412 192.593 236.673 197.386 237.069 201C237.25 202.622 244.691 205.091 245.087 205.18Z" fill="#455A64"/>
<path d="M251.302 197.104C251.424 196.589 251.363 196.052 251.129 195.573C250.895 195.094 250.501 194.7 250.006 194.45C249.512 194.2 248.943 194.108 248.388 194.187C247.832 194.267 247.32 194.515 246.928 194.893C245.698 195.693 244.687 196.754 243.976 197.989C243.265 199.224 242.875 200.599 242.837 202.001C242.713 202.517 242.772 203.057 243.006 203.538C243.24 204.02 243.635 204.416 244.132 204.667C244.629 204.918 245.2 205.009 245.758 204.927C246.316 204.845 246.829 204.594 247.22 204.212C248.452 203.414 249.464 202.353 250.174 201.118C250.883 199.882 251.27 198.506 251.302 197.104Z" fill="#263238"/>
<path d="M272.66 216.275C272.956 216.384 273.277 216.42 273.592 216.379C273.908 216.338 274.206 216.221 274.46 216.041C275.172 215.575 275.757 214.96 276.168 214.244C276.58 213.527 276.806 212.731 276.828 211.918C276.849 211.62 276.789 211.323 276.651 211.054C276.514 210.786 276.305 210.555 276.044 210.384L250.106 196.523C249.721 196.335 249.293 196.241 248.859 196.25C248.426 196.258 248.002 196.369 247.626 196.571C246.669 197.06 245.884 197.8 245.367 198.699C244.85 199.599 244.624 200.62 244.715 201.638C244.743 202.043 244.879 202.434 245.111 202.777C245.343 203.12 245.663 203.402 246.041 203.599L272.66 216.275Z" fill="#455A64"/>
<path d="M276.831 211.917C276.852 211.62 276.791 211.323 276.654 211.054C276.517 210.786 276.308 210.555 276.047 210.384C275.76 210.256 275.441 210.205 275.125 210.236C274.809 210.268 274.508 210.38 274.256 210.562C273.518 211.026 272.913 211.651 272.491 212.383C272.069 213.116 271.845 213.934 271.836 214.766C271.814 215.068 271.883 215.369 272.036 215.636C272.188 215.903 272.417 216.124 272.697 216.275C272.993 216.384 273.315 216.42 273.63 216.379C273.945 216.338 274.244 216.221 274.497 216.041C275.203 215.572 275.781 214.955 276.187 214.239C276.592 213.523 276.812 212.728 276.831 211.917Z" fill="#263238"/>
<path d="M305.191 208.319C307.533 207.585 309.264 205.043 312.623 198.491C316.825 190.342 319.09 188.502 322.173 180.159C324.756 174.051 321.312 162.787 319.745 160.439C314.5 162.19 310.84 163.812 307.301 170.703C304.123 176.9 297.759 189.406 294.857 194.909C294.857 194.909 277.97 198.322 273.431 198.604C271.671 198.75 269.901 198.44 268.316 197.709C267.368 197.253 266.316 197.02 265.25 197.031C264.832 197.017 264.415 197.074 264.019 197.2C263.278 197.537 262.621 198.015 262.09 198.604C260.958 199.479 259.771 200.287 258.533 201.025C257.164 201.985 255.553 202.639 254.167 203.615C252.979 204.422 251.67 205.124 250.92 206.366C250.781 206.567 250.687 206.792 250.645 207.028C250.622 207.233 250.647 207.44 250.719 207.636C250.79 207.831 250.906 208.009 251.058 208.158C251.367 208.457 251.752 208.676 252.178 208.795C252.78 208.892 253.362 209.08 253.9 209.352C254.46 209.739 254.503 210.506 255.011 210.966C255.803 211.668 257.104 211.563 258.008 212.144C258.705 212.595 259.093 213.418 259.842 213.757C260.25 213.927 260.688 214.025 261.134 214.048C261.926 214.12 262.71 214.346 263.502 214.346C264.449 214.346 264.863 213.927 265.646 213.539C268.35 212.127 269.814 210.433 274.594 210.134C277.789 209.941 302.849 209.053 305.191 208.319Z" fill="#FFA8A7"/>
<path d="M320.251 159.552C314.542 160.827 311.166 162.779 307.412 169.234C303.967 175.213 294.494 194.32 294.494 194.32L285.021 196.813C284.266 197.848 283.746 199.017 283.495 200.249C283.243 201.48 283.264 202.747 283.557 203.97C284.462 208.117 286.425 209.981 286.425 209.981C286.425 209.981 291.256 209.852 299.489 209.586C307.722 209.319 308.316 207.536 310.124 204.18C311.933 200.823 323.042 180.571 323.042 180.571C323.042 180.571 327.537 165.595 320.251 159.552Z" fill="#455A64"/>
<path d="M331.674 157.204C327.834 157.865 324.045 158.818 320.273 159.705C317.43 160.231 314.769 161.403 312.522 163.118C308.871 166.192 306.933 170.541 304.772 174.576C301.327 181.144 298.098 187.792 294.782 194.409V194.489H294.688L285.215 196.958C280.616 197.612 275.742 199.056 271.075 198.653C269.464 198.516 268.112 197.539 266.579 197.257C265.818 197.108 265.032 197.108 264.271 197.257C263.552 197.526 262.916 197.958 262.42 198.516C260.034 200.517 257.184 201.88 254.523 203.47C253.274 204.349 251.793 205.083 250.992 206.374C251.776 205.051 253.248 204.309 254.437 203.413C257.063 201.799 259.905 200.355 262.187 198.37C262.706 197.782 263.376 197.326 264.134 197.047C264.929 196.89 265.75 196.89 266.545 197.047C268.121 197.321 269.421 198.282 271.031 198.419C275.699 198.782 280.504 197.338 285.051 196.652L294.472 194.142L294.343 194.247C297.587 187.593 300.937 180.988 304.393 174.431C306.606 170.396 308.587 166.015 312.29 162.933C314.591 161.14 317.368 159.966 320.324 159.536C323.623 158.672 327.954 157.801 331.64 157.196L331.674 157.204Z" fill="white"/>
<path opacity="0.3" d="M316.606 275.006C312.68 288.765 309.802 302.767 307.994 316.907C307.409 321.482 306.668 326.549 302.888 329.486C299.986 331.737 295.998 332.157 292.226 332.415C285.182 332.883 277.544 332.923 271.636 329.47C272.394 331.431 274.452 333.763 277.768 335.586C281.608 337.692 290.048 339.12 292.536 339.774C295.025 340.427 298.84 342.872 301.148 343.986C305.368 346.003 308.812 345.769 310.733 344.873C311.066 344.672 311.351 344.41 311.572 344.102C311.793 343.794 311.944 343.447 312.016 343.082C312.524 341.468 312.481 341.121 312.292 341.081C312.836 339.534 313.211 337.939 313.411 336.32C313.919 331.479 315.133 330.067 314.221 329.551C314.711 328.389 315.452 326.436 316.193 324.427C316.274 324.41 316.355 324.389 316.434 324.363C316.434 324.363 320.249 315.18 324.976 303.166C325.295 302.359 325.597 301.552 325.889 300.794C322.686 295.654 321.05 292.62 319.999 288.731C318.948 284.842 317.812 281.131 316.606 275.006ZM378.05 199.968C377.714 195.999 376.861 192.083 375.509 188.308C374.442 185.186 369.593 169.993 365.959 163.747C362.325 157.502 358.519 156.187 351.707 155.679C350.68 155.575 349.648 155.535 348.615 155.558C348.615 155.558 348.615 155.864 348.615 156.018L347.754 150.152C351.457 146.416 353.963 144.019 356.469 140.784C362.497 133.014 362.497 125.34 358.631 123.146C358.855 120.386 357.261 116.247 351.225 113.859C349.295 113.074 347.271 112.511 345.197 112.18C343.167 112.403 341.165 112.811 339.22 113.399C336.542 114.206 333.881 115.44 332.176 117.538C330.695 119.378 330.083 121.685 329.506 123.92C327.655 131.093 325.803 138.404 326.415 145.754C326.443 147.009 326.773 148.242 327.379 149.361C327.762 149.925 328.264 150.41 328.853 150.787C329.442 151.164 330.107 151.426 330.807 151.556C330.807 151.556 334.518 151.782 336.378 151.814C336.637 153.298 337.007 155.525 337.239 157.01C337.382 157.502 337.358 158.024 337.171 158.503C336.973 158.774 336.718 159.005 336.422 159.181C336.126 159.357 335.795 159.475 335.448 159.527C328.714 161.262 320.86 161.416 316.124 166.224C314.456 168.113 313.119 170.237 312.162 172.518L304.774 187.76C303.172 191.076 301.458 194.521 298.401 196.764C292.881 200.799 285.001 199.718 278.198 201.291C273.264 202.437 268.872 205.011 263.989 206.285C262.869 206.584 261.75 206.866 260.613 207.092C259.476 207.318 258.219 207.213 257.031 207.383C256.578 207.426 256.151 207.601 255.809 207.883C255.468 208.165 255.23 208.541 255.128 208.956C255.097 209.4 255.176 209.845 255.36 210.255C255.592 210.798 255.983 211.268 256.488 211.611C257.017 211.707 257.523 211.887 257.987 212.143C258.693 212.595 259.072 213.418 259.821 213.757C260.228 213.928 260.667 214.023 261.113 214.039C261.895 214.183 262.686 214.282 263.481 214.338C264.428 214.338 264.842 213.918 265.625 213.531L266.237 213.192C268.579 211.861 270.172 210.392 274.581 210.118L275.494 210.07C277.492 209.973 281.617 209.803 286.19 209.602C286.379 209.82 286.491 209.924 286.491 209.924C286.491 209.924 291.322 209.803 299.555 209.537C307.788 209.271 308.382 207.48 310.19 204.131L310.741 203.114V203.195C313.385 198.354 318.087 189.696 319.637 186.864C319.637 186.864 319.069 210.263 319.129 220.422C319.241 239.359 322.41 258.143 325.562 276.846C326.346 281.445 328.43 285.818 330.178 290.2C332.107 295.041 334.096 299.882 336.206 304.643C340.305 314.082 345.266 323.171 351.035 331.81C352.42 333.623 353.576 335.581 354.48 337.644C355.565 340.556 355.505 343.719 355.401 346.794C355.468 349.328 355.075 351.854 354.239 354.265C352.516 358.574 346.531 358.985 342.811 356.444C342.608 357.039 342.576 357.673 342.716 358.283C342.592 358.693 342.569 359.123 342.648 359.543C342.727 359.962 342.906 360.359 343.173 360.704C344.749 362.511 350.984 364.488 355.548 363.286L355.772 363.221C359.483 362.414 365.787 359.849 366.967 357.84C367.725 356.557 367.664 355.258 367.311 352.522C366.958 349.787 368.172 347.205 368.784 345.704C370.222 342.332 370.868 339.524 369.8 338.547C369.501 338.07 369.021 337.716 368.457 337.555C368.112 336.345 367.311 336.006 366.286 335.328C365.244 334.674 364.288 333.907 363.436 333.044C363.27 332.761 363.048 332.509 362.782 332.302C362.23 331.06 361.696 329.414 360.999 327.259H361.223C361.223 327.259 355.617 308.088 354.006 303.247C351.354 295.315 350.329 291.894 346.299 286.561C346.299 286.561 347.031 266.672 347.935 250.429L356.168 238.512C357.767 236.765 359.079 234.804 360.06 232.694C360.034 232.738 360.011 232.784 359.991 232.831C360.153 232.877 360.322 232.896 360.491 232.888C362.316 232.888 363.617 231.274 364.969 230.395C365.084 230.297 365.222 230.228 365.373 230.195C365.523 230.161 365.681 230.163 365.83 230.201L365.925 230.145C367.38 229.491 367.466 232.565 367.44 233.219C367.321 234.772 366.919 236.295 366.252 237.721C365.236 240.093 363.953 242.482 364.073 245.031C364.073 245.209 364.099 245.385 364.151 245.556C364.754 245.273 365.012 244.354 365.296 243.869C365.729 243.308 366.299 242.852 366.958 242.538C367.64 242.005 368.285 241.431 368.887 240.819C369.524 240.303 370.506 240.384 371.247 239.859C371.987 239.335 371.875 238.665 372.34 238.133C372.805 237.6 373.52 237.447 373.994 236.898C374.735 236.053 375.225 235.04 375.415 233.961C375.742 231.678 376.371 229.467 376.362 227.167C376.353 224.868 376.362 222.867 376.491 220.712C376.724 217.299 377.464 211.788 377.757 207.205C377.898 207.103 378.018 206.977 378.11 206.834C378.266 204.547 378.246 202.252 378.05 199.968ZM368.904 217.775C368.405 219.51 366.975 220.833 365.882 222.302C363.694 225.239 362.79 228.894 360.508 231.774C360.646 231.468 360.792 231.153 360.93 230.822C362.018 227.915 362.418 224.82 362.101 221.753C362.339 221.554 362.561 221.338 362.764 221.108C362.764 221.108 362.704 216.396 362.273 211.974C361.696 205.995 360.448 201.033 360.861 198.088C361.352 194.586 361.877 190.907 362.342 187.461C363.666 189.908 364.817 192.434 365.787 195.022C368.112 201.356 368.689 208.101 369.059 214.741C369.177 215.757 369.125 216.783 368.904 217.783V217.775Z" fill="black"/>
<path d="M82.053 142.47L73.0108 147.359V167.741L60.5239 174.494L75.1637 122.855L65.4498 128.156L49.7422 183.184V191.092L72.9936 178.505V190.285L82.0358 185.395V173.583L88.15 170.275V159.543L82.0358 162.851L82.053 142.47ZM114.958 101.32C101.98 108.339 91.4655 127.139 91.4655 143.374C91.4655 159.608 101.98 167.031 114.958 160.019C127.936 153.008 138.451 134.199 138.451 117.957C138.451 101.715 127.927 94.3401 114.958 101.36V101.32ZM114.958 148.715C106.975 153.032 100.508 148.449 100.508 138.484C100.508 128.519 106.975 116.932 114.958 112.616C122.941 108.299 129.4 112.882 129.4 122.855C129.4 132.828 122.932 144.439 114.958 148.755V148.715ZM173.827 113.164V92.8232L164.776 97.7128V118.094L152.298 124.848L166.938 73.2083L157.215 78.469L141.508 133.514V141.389L164.759 128.801V140.598L173.81 135.708V123.936L179.924 120.628V109.897L173.827 113.164Z" fill="#BA68C8"/>
<path d="M80.8032 109.445C80.8255 109.429 80.8527 109.421 80.8807 109.421C80.9086 109.421 80.9358 109.429 80.9582 109.445C81.0098 109.445 81.0271 109.525 81.0271 109.606V110.357C81.0277 110.439 81.0039 110.52 80.9582 110.591C80.9254 110.66 80.8714 110.719 80.8032 110.76L77.0915 112.769C77.0692 112.785 77.042 112.793 77.014 112.793C76.9861 112.793 76.9589 112.785 76.9365 112.769C76.9129 112.749 76.8945 112.724 76.8826 112.696C76.8707 112.668 76.8656 112.638 76.8676 112.608V105.79C76.8714 105.708 76.8949 105.628 76.9365 105.556C76.9693 105.486 77.0232 105.427 77.0915 105.386L80.7343 103.418C80.7573 103.4 80.7862 103.39 80.8161 103.39C80.8459 103.39 80.8748 103.4 80.8979 103.418C80.9211 103.44 80.9387 103.466 80.9491 103.496C80.9596 103.525 80.9627 103.556 80.9582 103.587V104.329C80.9587 104.413 80.9381 104.496 80.8979 104.571C80.8597 104.64 80.8034 104.698 80.7343 104.741L78.0044 106.217V107.896L80.5879 106.516C80.6116 106.499 80.6402 106.491 80.6697 106.491C80.6991 106.491 80.7278 106.499 80.7515 106.516C80.7751 106.536 80.7935 106.561 80.8054 106.589C80.8173 106.617 80.8225 106.647 80.8204 106.677V107.428C80.818 107.512 80.7944 107.595 80.7515 107.67C80.7184 107.742 80.6608 107.801 80.5879 107.839L78.0044 109.211V110.962L80.8032 109.445Z" fill="#37474F"/>
<path d="M84.5158 101.384C85.222 101.005 85.7559 100.924 86.1262 101.134C86.4965 101.344 86.6687 101.804 86.6687 102.53C86.6711 103.032 86.5748 103.529 86.3845 103.998C86.1859 104.466 85.8936 104.893 85.5234 105.257L86.686 107.234C86.6937 107.266 86.6937 107.299 86.686 107.331C86.6853 107.398 86.6676 107.465 86.6343 107.524C86.6025 107.578 86.5584 107.625 86.5051 107.662L85.7817 108.057C85.6698 108.113 85.5923 108.13 85.532 108.057C85.4875 108.023 85.4497 107.982 85.42 107.936L84.3178 106.072L83.1896 106.677V109.138C83.1913 109.221 83.1673 109.302 83.1207 109.372C83.0856 109.442 83.0323 109.503 82.9657 109.55L82.2768 109.913C82.2551 109.93 82.2276 109.939 82.1993 109.939C82.1709 109.939 82.1435 109.93 82.1218 109.913C82.0958 109.892 82.0758 109.866 82.0638 109.836C82.0517 109.807 82.048 109.775 82.0529 109.743V102.933C82.0513 102.851 82.0752 102.769 82.1218 102.699C82.1545 102.628 82.2082 102.566 82.2768 102.522L84.5158 101.384ZM83.2499 105.418L84.4728 104.757C84.7752 104.6 85.0393 104.386 85.2478 104.127C85.4498 103.847 85.5495 103.513 85.532 103.175C85.532 102.78 85.4373 102.57 85.2478 102.538C84.9706 102.527 84.6975 102.603 84.4728 102.756L83.2499 103.417V105.418Z" fill="#37474F"/>
<path d="M90.1376 98.302C90.8438 97.9228 91.3777 97.834 91.7394 98.0438C92.1011 98.2536 92.2905 98.7215 92.2905 99.4477C92.2965 100.455 91.9003 101.428 91.1796 102.175L92.3422 104.144C92.3501 104.178 92.3501 104.214 92.3422 104.249C92.3415 104.316 92.3238 104.382 92.2905 104.442C92.2586 104.499 92.211 104.546 92.1528 104.579L91.438 104.967C91.326 105.031 91.2399 105.039 91.1882 105.007C91.1414 104.972 91.1032 104.928 91.0763 104.878L89.9654 103.022L88.8459 103.627V106.088C88.8421 106.17 88.8186 106.25 88.777 106.322C88.7442 106.392 88.6903 106.451 88.622 106.492L87.9331 106.863C87.9098 106.876 87.8829 106.884 87.8555 106.884C87.8281 106.884 87.8013 106.876 87.778 106.863C87.7521 106.842 87.7321 106.816 87.72 106.787C87.7079 106.757 87.7042 106.725 87.7091 106.693V99.9157C87.7073 99.8306 87.7312 99.7466 87.778 99.6737C87.8109 99.6041 87.8648 99.5452 87.9331 99.5042L90.1376 98.302ZM88.8717 102.336L90.0946 101.675C90.3944 101.518 90.6555 101.303 90.861 101.045C91.0696 100.765 91.1726 100.427 91.1538 100.085C91.1538 99.6979 91.0591 99.48 90.861 99.4558C90.588 99.4458 90.3189 99.5195 90.0946 99.6656L88.8717 100.327V102.336Z" fill="#37474F"/>
<path d="M93.1875 99.4314C93.2054 99.0234 93.266 98.618 93.3683 98.2211C93.4702 97.8195 93.6265 97.4317 93.8334 97.0673C94.0358 96.6954 94.2907 96.3507 94.5912 96.0425C94.9032 95.7229 95.2664 95.4507 95.6676 95.2357C95.9937 95.0436 96.3615 94.9223 96.7441 94.8806C97.015 94.8541 97.2864 94.9263 97.5019 95.0824C97.7252 95.25 97.8876 95.4783 97.967 95.7359C98.0805 96.0648 98.1443 96.4071 98.1564 96.7526C98.1564 96.8817 98.1564 97.0269 98.1564 97.1883C98.1564 97.3497 98.1564 97.5191 98.1564 97.6885C98.1564 97.858 98.1564 98.0274 98.1564 98.1888C98.1564 98.3502 98.1564 98.5035 98.1564 98.6406C98.1385 99.0486 98.0779 99.454 97.9756 99.8509C97.8697 100.251 97.7136 100.639 97.5105 101.005C97.3081 101.379 97.05 101.724 96.7441 102.029C96.4351 102.352 96.0714 102.625 95.6676 102.836C95.3432 103.033 94.9749 103.157 94.5912 103.199C94.3217 103.225 94.0517 103.156 93.8334 103.006C93.6101 102.838 93.4477 102.61 93.3683 102.352C93.2586 102.023 93.1978 101.681 93.1875 101.336C93.1875 101.206 93.1875 101.061 93.1875 100.9C93.1875 100.739 93.1875 100.569 93.1875 100.4C93.1875 100.23 93.1875 100.061 93.1875 99.8994C93.1875 99.738 93.1875 99.5685 93.1875 99.4314ZM97.0111 97.4142C97.0299 97.237 97.0048 97.0581 96.9375 96.8915C96.8703 96.7249 96.7628 96.5752 96.6235 96.454C96.3824 96.3034 96.0638 96.3357 95.6676 96.5509C95.266 96.7717 94.938 97.093 94.7204 97.4788C94.4734 97.9052 94.3404 98.3814 94.3328 98.8666C94.3328 99.1409 94.3328 99.4394 94.3328 99.7703C94.3328 100.101 94.3328 100.392 94.3328 100.65C94.3119 100.827 94.3361 101.007 94.4035 101.173C94.4708 101.34 94.5794 101.49 94.7204 101.61C94.8741 101.694 95.0519 101.731 95.2292 101.717C95.4066 101.703 95.5748 101.637 95.7107 101.529C96.115 101.309 96.4459 100.988 96.6666 100.601C96.9095 100.176 97.0422 99.7036 97.0541 99.2216C97.0541 98.9473 97.0541 98.6487 97.0541 98.3179C97.0541 97.9871 97.0283 97.6724 97.0111 97.4142Z" fill="#37474F"/>
<path d="M101.67 92.0888C102.376 91.7096 102.91 91.6209 103.281 91.8306C103.651 92.0404 103.832 92.5084 103.832 93.2346C103.833 93.7362 103.737 94.2339 103.548 94.7031C103.35 95.1686 103.058 95.5935 102.686 95.9537L103.849 97.9306C103.858 97.965 103.858 98.001 103.849 98.0355C103.848 98.1029 103.831 98.1693 103.797 98.2291C103.771 98.2867 103.726 98.3348 103.668 98.3663L102.945 98.7536C102.833 98.8181 102.755 98.8262 102.695 98.7536C102.647 98.7235 102.608 98.6817 102.583 98.6325L101.481 96.7767L100.353 97.3819V99.8025C100.352 99.8838 100.332 99.9639 100.292 100.036C100.254 100.105 100.198 100.164 100.129 100.206L99.4399 100.577C99.4175 100.593 99.3903 100.601 99.3624 100.601C99.3344 100.601 99.3072 100.593 99.2849 100.577C99.2602 100.558 99.241 100.533 99.229 100.504C99.217 100.476 99.2125 100.446 99.216 100.416V93.5977C99.2197 93.5158 99.2433 93.4358 99.2849 93.3637C99.3177 93.2942 99.3716 93.2353 99.4399 93.1942L101.67 92.0888ZM100.404 96.1232L101.627 95.4535C101.929 95.2995 102.193 95.0879 102.402 94.8322C102.603 94.5482 102.702 94.2121 102.686 93.872C102.686 93.4767 102.592 93.2669 102.402 93.2346C102.126 93.2314 101.856 93.3074 101.627 93.4525L100.404 94.1141V96.1232Z" fill="#37474F"/>
<path d="M111.908 93.9366C111.804 93.9931 111.735 94.0012 111.684 93.9366C111.643 93.9108 111.606 93.8811 111.572 93.8479L109.212 90.7414V95.0905C109.208 95.1723 109.185 95.2524 109.143 95.3244C109.108 95.3948 109.051 95.4537 108.98 95.4939L108.299 95.865C108.276 95.8814 108.247 95.8903 108.218 95.8903C108.188 95.8903 108.159 95.8814 108.136 95.865C108.112 95.8447 108.094 95.8196 108.082 95.7917C108.07 95.7637 108.065 95.7337 108.067 95.7037V88.8856C108.071 88.8038 108.094 88.7237 108.136 88.6517C108.171 88.5813 108.228 88.5224 108.299 88.4822L108.894 88.1595C108.988 88.111 109.057 88.103 109.109 88.1595L109.221 88.2482L111.58 91.3547V87.0056C111.584 86.9212 111.608 86.8385 111.649 86.7636C111.685 86.6932 111.742 86.6343 111.813 86.5941L112.493 86.223C112.517 86.2066 112.546 86.1978 112.575 86.1978C112.604 86.1978 112.633 86.2066 112.657 86.223C112.68 86.2434 112.699 86.2684 112.711 86.2964C112.723 86.3243 112.728 86.3543 112.726 86.3844V93.2024C112.723 93.2844 112.7 93.3647 112.657 93.4364C112.619 93.5072 112.562 93.5682 112.493 93.6139L111.908 93.9366Z" fill="#37474F"/>
<path d="M105.029 97.019C105.042 96.9127 105.074 96.8092 105.123 96.7124C105.172 96.611 105.253 96.5263 105.356 96.4704L106.01 96.1153C106.028 96.1035 106.049 96.0972 106.071 96.0972C106.092 96.0972 106.113 96.1035 106.131 96.1153C106.149 96.1303 106.163 96.1491 106.172 96.1701C106.181 96.1911 106.185 96.2138 106.182 96.2364C106.182 96.2364 106.182 96.2848 106.182 96.3009L105.683 98.1487C105.683 98.2213 105.623 98.302 105.58 98.3988C105.531 98.4937 105.453 98.5725 105.356 98.6247L105.011 98.8103C104.996 98.8228 104.976 98.8297 104.955 98.8297C104.935 98.8297 104.915 98.8228 104.899 98.8103C104.899 98.8103 104.848 98.7538 104.848 98.6973L105.029 97.019Z" fill="#37474F"/>
<path d="M113.836 88.2643C113.853 87.8563 113.914 87.451 114.016 87.054C114.118 86.6499 114.275 86.2595 114.481 85.8922C114.683 85.5223 114.938 85.1802 115.239 84.8755C115.549 84.5541 115.913 84.2817 116.316 84.0686C116.64 83.8727 117.009 83.7511 117.392 83.7136C117.662 83.6856 117.933 83.7548 118.15 83.9073C118.371 84.0798 118.533 84.3101 118.615 84.5689C118.73 84.8975 118.794 85.2399 118.804 85.5855C118.804 85.7146 118.804 85.8599 118.804 86.0213V87.0056C118.804 87.167 118.804 87.3203 118.804 87.4575C118.787 87.8655 118.726 88.2709 118.624 88.6678C118.518 89.0682 118.362 89.4555 118.159 89.8216C117.953 90.1937 117.695 90.5383 117.392 90.8463C117.081 91.1666 116.718 91.4389 116.316 91.6532C115.991 91.8499 115.623 91.9741 115.239 92.0163C114.97 92.0427 114.699 91.9736 114.481 91.8226C114.256 91.6532 114.094 91.4218 114.016 91.161C113.907 90.8343 113.846 90.4948 113.836 90.1524C113.836 90.0153 113.836 89.8781 113.836 89.7167C113.836 89.5553 113.836 89.3859 113.836 89.2165C113.836 89.047 113.836 88.8776 113.836 88.7081C113.836 88.5387 113.792 88.4015 113.836 88.2643ZM117.659 86.2472C117.677 86.0688 117.651 85.8891 117.584 85.7214C117.517 85.5537 117.41 85.4024 117.272 85.2789C117.119 85.2092 116.948 85.1813 116.779 85.1984C116.61 85.2156 116.449 85.277 116.316 85.3758C115.915 85.6017 115.588 85.9252 115.368 86.3117C115.122 86.739 114.987 87.2143 114.972 87.6995C114.972 87.9739 114.972 88.2724 114.972 88.5952C114.972 88.9179 114.972 89.2165 114.972 89.4827C114.954 89.6594 114.981 89.8375 115.05 90.0028C115.119 90.1681 115.228 90.3161 115.368 90.4348C115.519 90.5078 115.689 90.5376 115.858 90.5204C116.026 90.5031 116.185 90.4397 116.316 90.338C116.703 90.1153 117.021 89.8008 117.237 89.4262C117.48 89.0012 117.613 88.5285 117.625 88.0465C117.625 87.7722 117.625 87.4736 117.625 87.1428C117.625 86.812 117.668 86.5054 117.659 86.2472Z" fill="#37474F"/>
<path d="M123.73 80.1553C123.754 80.139 123.782 80.1301 123.812 80.1301C123.841 80.1301 123.87 80.139 123.894 80.1553C123.918 80.1749 123.937 80.1999 123.949 80.228C123.961 80.2561 123.966 80.2866 123.962 80.3167V81.0671C123.959 81.149 123.935 81.229 123.894 81.3011C123.858 81.3714 123.801 81.4304 123.73 81.4705L122.214 82.2774V88.0627C122.211 88.1445 122.187 88.2246 122.145 88.2966C122.11 88.367 122.053 88.4259 121.982 88.4661L121.301 88.8372C121.278 88.8536 121.249 88.8625 121.22 88.8625C121.19 88.8625 121.162 88.8536 121.138 88.8372C121.113 88.8181 121.093 88.7933 121.081 88.765C121.069 88.7367 121.065 88.7061 121.069 88.6759V82.8987L119.553 83.7056C119.53 83.722 119.501 83.7308 119.471 83.7308C119.442 83.7308 119.413 83.722 119.39 83.7056C119.366 83.6852 119.348 83.6601 119.336 83.6322C119.324 83.6043 119.319 83.5742 119.321 83.5442V82.7938C119.323 82.7092 119.347 82.6263 119.39 82.5517C119.425 82.4814 119.482 82.4225 119.553 82.3823L123.73 80.1553Z" fill="#37474F"/>
<path d="M130.354 76.5728C130.376 76.5571 130.404 76.5486 130.431 76.5486C130.459 76.5486 130.487 76.5571 130.509 76.5728C130.534 76.5919 130.554 76.6168 130.566 76.645C130.578 76.6733 130.582 76.704 130.578 76.7342V77.4845C130.58 77.5671 130.556 77.6484 130.509 77.7185C130.474 77.7888 130.421 77.8498 130.354 77.8961L127.659 79.3484V81.3979L130.182 80.0343C130.205 80.0166 130.234 80.0069 130.264 80.0069C130.293 80.0069 130.322 80.0166 130.345 80.0343C130.37 80.0559 130.388 80.0823 130.4 80.1116C130.412 80.141 130.417 80.1724 130.414 80.2037V80.946C130.412 81.0306 130.388 81.1136 130.345 81.1881C130.31 81.2584 130.253 81.3174 130.182 81.3575L127.659 82.7211V85.1417C127.655 85.2236 127.631 85.3036 127.59 85.3757C127.557 85.4452 127.503 85.5042 127.435 85.5452L126.746 85.9163C126.723 85.932 126.696 85.9405 126.668 85.9405C126.64 85.9405 126.613 85.932 126.591 85.9163C126.565 85.8978 126.545 85.873 126.532 85.8445C126.52 85.8161 126.517 85.7852 126.522 85.7549V78.9369C126.52 78.8518 126.544 78.7678 126.591 78.6949C126.623 78.6253 126.677 78.5664 126.746 78.5254L130.354 76.5728Z" fill="#37474F"/>
<path d="M131.295 78.824C131.313 78.416 131.374 78.0107 131.476 77.6137C131.579 77.211 131.732 76.821 131.932 76.4518C132.142 76.0841 132.396 75.7402 132.69 75.4271C133.005 75.1071 133.371 74.8348 133.775 74.6202C134.098 74.4265 134.463 74.3025 134.843 74.2572C135.116 74.2349 135.389 74.3066 135.61 74.4589C135.826 74.6359 135.986 74.8646 136.075 75.1205C136.186 75.4495 136.247 75.7919 136.255 76.1372C136.255 76.2663 136.255 76.4115 136.255 76.5729V77.5734C136.255 77.7348 136.255 77.8881 136.255 78.0252C136.237 78.4332 136.177 78.8386 136.075 79.2355C135.972 79.6357 135.818 80.023 135.618 80.3894C135.413 80.7614 135.155 81.1061 134.852 81.4141C134.539 81.7325 134.176 82.0046 133.775 82.2209C133.447 82.417 133.076 82.5411 132.69 82.584C132.421 82.6081 132.151 82.5393 131.932 82.3904C131.712 82.218 131.553 81.9874 131.476 81.7288C131.366 81.402 131.305 81.0626 131.295 80.7202C131.295 80.583 131.295 80.4378 131.295 80.2764V79.2759C131.278 79.1064 131.286 78.937 131.295 78.824ZM135.119 76.8069C135.136 76.6278 135.11 76.4473 135.041 76.2794C134.973 76.1114 134.864 75.9606 134.723 75.8386C134.572 75.7656 134.402 75.7359 134.233 75.7531C134.065 75.7703 133.905 75.8337 133.775 75.9354C133.371 76.1571 133.043 76.4817 132.828 76.8714C132.581 77.2983 132.445 77.7738 132.432 78.2592C132.432 78.5336 132.432 78.8321 132.432 79.1548C132.432 79.4776 132.432 79.7761 132.432 80.0424C132.414 80.2191 132.441 80.3972 132.509 80.5625C132.578 80.7278 132.687 80.8757 132.828 80.9945C132.979 81.0675 133.149 81.0973 133.317 81.08C133.486 81.0628 133.645 80.9994 133.775 80.8977C134.174 80.6739 134.502 80.3533 134.723 79.9698C134.968 79.5454 135.104 79.0727 135.119 78.59C135.119 78.3157 135.119 78.0172 135.119 77.6863C135.119 77.3555 135.127 77.0651 135.119 76.8069Z" fill="#37474F"/>
<path d="M141.937 70.3115C141.96 70.2938 141.989 70.2842 142.019 70.2842C142.049 70.2842 142.078 70.2938 142.101 70.3115C142.124 70.3336 142.141 70.3603 142.152 70.3897C142.162 70.4191 142.165 70.4503 142.161 70.481V74.8058C142.165 75.2293 142.116 75.6518 142.015 76.0645C141.913 76.4651 141.76 76.8525 141.558 77.2183C141.352 77.5809 141.098 77.9171 140.8 78.2189C140.49 78.5338 140.133 78.8055 139.741 79.0257C139.42 79.2161 139.059 79.3398 138.682 79.3888C138.415 79.4246 138.145 79.364 137.924 79.2194C137.704 79.0451 137.548 78.8111 137.476 78.5497C137.367 78.1931 137.318 77.823 137.33 77.4523V73.1275C137.329 73.0461 137.35 72.9658 137.39 72.8935C137.428 72.8227 137.484 72.7617 137.554 72.716L138.243 72.3449C138.265 72.3291 138.292 72.3206 138.32 72.3206C138.348 72.3206 138.375 72.3291 138.398 72.3449C138.422 72.3665 138.441 72.3929 138.453 72.4222C138.465 72.4516 138.469 72.483 138.467 72.5143V76.7826C138.46 77.0145 138.492 77.2459 138.561 77.4685C138.603 77.6126 138.694 77.7401 138.82 77.8316C138.942 77.8988 139.086 77.9218 139.224 77.8961C139.407 77.8638 139.582 77.8009 139.741 77.7105C139.929 77.6077 140.103 77.483 140.258 77.3394C140.422 77.19 140.561 77.0187 140.671 76.831C140.787 76.6266 140.877 76.4099 140.938 76.1855C141.004 75.921 141.035 75.6502 141.033 75.3787V71.1023C141.037 71.0204 141.06 70.9404 141.102 70.8683C141.135 70.7965 141.192 70.7369 141.265 70.6988L141.937 70.3115Z" fill="#37474F"/>
<path d="M147.275 74.806C147.241 74.8244 147.202 74.8341 147.163 74.8341C147.124 74.8341 147.085 74.8244 147.051 74.806L146.939 74.7172L144.579 71.6754V76.0163C144.577 76.1009 144.553 76.1839 144.511 76.2584C144.477 76.3302 144.42 76.3898 144.347 76.4278L143.667 76.799C143.642 76.8142 143.614 76.8224 143.585 76.8224C143.556 76.8224 143.527 76.8142 143.503 76.799C143.479 76.7786 143.461 76.7535 143.449 76.7256C143.437 76.6977 143.432 76.6676 143.434 76.6376V69.8196C143.438 69.7377 143.461 69.6577 143.503 69.5856C143.541 69.5169 143.597 69.4585 143.667 69.4161L144.261 69.0934C144.355 69.0369 144.424 69.0369 144.476 69.0934C144.517 69.1192 144.554 69.1489 144.588 69.1821L146.948 72.2886V67.8831C146.95 67.7985 146.974 67.7155 147.016 67.641C147.052 67.5707 147.109 67.5117 147.18 67.4716L147.86 67.1004C147.884 67.084 147.913 67.0752 147.942 67.0752C147.972 67.0752 148 67.084 148.024 67.1004C148.048 67.1208 148.066 67.1459 148.078 67.1738C148.09 67.2017 148.095 67.2318 148.093 67.2618V74.096C148.089 74.1778 148.066 74.2579 148.024 74.33C147.988 74.4003 147.932 74.4592 147.86 74.4994L147.275 74.806Z" fill="#37474F"/>
<path d="M151.685 65.0105C152.018 64.8214 152.386 64.6927 152.77 64.6313C153.039 64.5974 153.312 64.6577 153.537 64.8007C153.764 64.9693 153.93 65.2008 154.01 65.4623C154.134 65.817 154.2 66.1868 154.208 66.5597C154.208 67.068 154.208 67.5925 154.208 68.125C154.191 68.566 154.125 69.0041 154.01 69.4321C153.911 69.8397 153.755 70.2331 153.545 70.6021C153.341 70.9633 153.086 71.2972 152.787 71.5945C152.479 71.911 152.122 72.1829 151.728 72.4014L149.601 73.5472C149.579 73.5642 149.552 73.5736 149.524 73.5736C149.495 73.5736 149.468 73.5642 149.446 73.5472C149.42 73.5268 149.4 73.5005 149.388 73.4709C149.376 73.4412 149.372 73.4091 149.377 73.3777V66.5516C149.375 66.469 149.399 66.3878 149.446 66.3176C149.479 66.2459 149.532 66.1843 149.601 66.1401L151.685 65.0105ZM153.072 67.1729C153.068 66.9808 153.033 66.7904 152.968 66.6081C152.922 66.466 152.832 66.3397 152.71 66.245C152.648 66.2011 152.577 66.1691 152.501 66.1511C152.426 66.1331 152.348 66.1294 152.271 66.1401C152.048 66.1722 151.834 66.2463 151.642 66.358L150.514 66.9712V71.7156L151.685 71.0782C151.909 70.9598 152.112 70.8101 152.288 70.6344C152.458 70.467 152.6 70.2766 152.71 70.0696C152.825 69.8658 152.912 69.6488 152.968 69.4241C153.028 69.1995 153.063 68.9696 153.072 68.7382C153.132 68.2057 153.132 67.6893 153.106 67.1729H153.072Z" fill="#37474F"/>
</svg>
