<svg width="45" height="31" viewBox="0 0 45 31" fill="none" xmlns="http://www.w3.org/2000/svg">
<path d="M31.8592 23.7107C30.7342 23.3046 28.896 23.1796 28.0924 22.8568C27.5299 22.6277 26.6359 22.3882 26.3547 22.0238C26.0634 21.6697 26.0634 19.0977 26.0634 19.0977C26.0634 19.0977 26.7665 18.4209 27.0578 17.6607C27.3491 16.9006 27.54 14.8388 27.54 14.8388C27.54 14.8388 27.6002 14.8596 27.6906 14.8596C27.9016 14.8596 28.2833 14.7138 28.4641 13.7558C28.6851 12.5791 29.107 11.9648 28.9965 11.1005C28.9161 10.5174 28.675 10.4236 28.5344 10.4236C28.4641 10.4236 28.4139 10.4445 28.4139 10.4445C28.4139 10.4445 28.9864 9.56977 28.9864 6.59163C28.9864 3.5302 26.7062 0.510413 22.4975 0.5C18.2786 0.510413 16.0085 3.5302 16.0085 6.59163C16.0085 9.55935 16.5811 10.4445 16.5811 10.4445C16.5811 10.4445 16.5308 10.4236 16.4605 10.4236C16.3099 10.4236 16.0688 10.5174 15.9985 11.1005C15.888 11.9648 16.2998 12.5896 16.5308 13.7558C16.7116 14.7138 17.0933 14.8596 17.3043 14.8596C17.3947 14.8596 17.455 14.8388 17.455 14.8388C17.455 14.8388 17.6458 16.911 17.9371 17.6607C18.2284 18.4209 18.9316 19.0977 18.9316 19.0977C18.9316 19.0977 18.9316 21.6697 18.6403 22.0238C18.349 22.3778 17.465 22.6277 16.9025 22.8568C16.0989 23.1796 14.2607 23.3046 13.1357 23.7107C12.0107 24.1168 8.53516 25.8141 8.53516 30.5H36.4598C36.4598 25.8141 32.9943 24.1168 31.8592 23.7107Z" fill="#076BA4"/>
<path d="M11.2602 22.3779C12.1643 21.9093 13.0482 21.9093 13.7313 21.8156C13.7313 21.8156 14.113 21.17 12.8574 20.9409C12.8574 20.9409 11.1397 20.4932 10.9388 20.2433C10.7379 19.9933 10.8585 18.6084 10.8585 18.6084C10.8585 18.6084 13.2592 18.5251 14.2134 17.6504C12.6565 15.2346 13.4902 12.4126 13.1688 9.77814C12.8574 7.15405 11.3406 5.50879 8.43765 5.50879C8.42761 5.50879 8.43765 5.50879 8.3372 5.50879C5.52465 5.50879 4.0782 7.15405 3.75676 9.78855C3.43533 12.4231 4.35945 15.5574 2.76233 17.6712C3.65632 18.4939 5.86618 18.5355 6.1173 18.5355C6.13739 18.5355 6.13739 18.5355 6.13739 18.5355L6.14743 18.5251C6.14743 18.5251 6.24788 20.0038 6.04698 20.2537C5.84609 20.5036 5.25344 20.7327 4.85165 20.8264C3.96771 21.0242 3.03354 21.347 2.26009 21.6282C1.48663 21.8989 0 23.5234 0 25.5018H8.05595C8.27694 24.6688 9.7937 23.1485 11.2602 22.3779Z" fill="#076BA4"/>
<path d="M36.9449 25.5018H45.0008C45.0008 23.5234 43.5142 21.8989 42.7407 21.6178C41.9673 21.3366 41.0231 21.0138 40.1492 20.816C39.7373 20.7223 39.1547 20.4932 38.9538 20.2433C38.7529 19.9933 38.8534 18.5147 38.8534 18.5147L38.8634 18.5251C38.8634 18.5251 38.8735 18.5251 38.8835 18.5251C39.1346 18.5251 41.3545 18.4939 42.2485 17.6608C40.6514 15.547 41.5655 12.4126 41.2441 9.77814C40.9226 7.15405 39.4762 5.50879 36.6636 5.50879C36.5632 5.50879 36.5632 5.50879 36.5632 5.50879C33.6602 5.50879 32.1334 7.15405 31.822 9.78855C31.5006 12.4231 32.3343 15.245 30.7773 17.6608C31.7316 18.5355 34.1323 18.6188 34.1323 18.6188C34.1323 18.6188 34.2529 20.0038 34.052 20.2537C33.8511 20.5036 32.1334 20.9513 32.1334 20.9513C30.8778 21.1804 31.2595 21.826 31.2595 21.826C31.9425 21.9198 32.8365 21.9198 33.7305 22.3883C35.2071 23.1485 36.7239 24.6688 36.9449 25.5018Z" fill="#076BA4"/>
</svg>
