<svg width="124" height="103" viewBox="0 0 124 103" fill="none" xmlns="http://www.w3.org/2000/svg">
<path d="M114.233 16.3674V97.3776C114.233 99.4933 112.454 101.201 110.257 101.201H12.637C10.4407 101.201 8.65137 99.4933 8.65137 97.3776V4.80073C8.65137 2.68499 10.4432 0.965642 12.637 0.965642H34.5667C35.9301 0.957847 37.2046 1.64326 37.9521 2.78635L43.0089 10.7027C43.7517 11.8516 45.0286 12.5403 46.3943 12.5285H110.261C112.454 12.5375 114.233 14.2516 114.233 16.3674Z" fill="black"/>
<path d="M114.233 16.3674V97.3776C114.233 99.4933 112.454 101.201 110.257 101.201H12.637C10.4407 101.201 8.65137 99.4933 8.65137 97.3776V4.80073C8.65137 2.68499 10.4432 0.965642 12.637 0.965642H34.5667C35.9301 0.957847 37.2046 1.64326 37.9521 2.78635L43.0089 10.7027C43.7517 11.8516 45.0286 12.5403 46.3943 12.5285H110.261C112.454 12.5375 114.233 14.2516 114.233 16.3674Z" fill="url(#paint0_linear_378_682)"/>
<path d="M114.233 16.3674V97.3776C114.233 99.4933 112.454 101.201 110.257 101.201H12.637C10.4407 101.201 8.65137 99.4933 8.65137 97.3776V4.80073C8.65137 2.68499 10.4432 0.965642 12.637 0.965642H34.5667C35.9301 0.957847 37.2046 1.64326 37.9521 2.78635L43.0089 10.7027C43.7517 11.8516 45.0286 12.5403 46.3943 12.5285H110.261C112.454 12.5375 114.233 14.2516 114.233 16.3674Z" fill="#3182CE"/>
<path d="M105.476 15.667H16.0662C14.184 15.667 12.6582 17.1928 12.6582 19.075V97.7932C12.6582 99.6754 14.184 101.201 16.0662 101.201H105.476C107.358 101.201 108.884 99.6754 108.884 97.7932V19.075C108.884 17.1928 107.358 15.667 105.476 15.667Z" fill="white"/>
<path d="M115.141 97.895C114.833 100.542 112.617 102.537 109.983 102.537H12.7668C10.1332 102.537 7.9162 100.543 7.6089 97.895L0.666494 38.1926C0.493116 36.7017 0.957772 35.2068 1.94332 34.085C2.92886 32.9631 4.34125 32.3213 5.8244 32.3213H28.0513C30.1258 32.3214 32.0014 31.0719 32.8218 29.1432L35.4979 22.8541C36.3183 20.9254 38.1939 19.676 40.2684 19.676H118.389C119.873 19.6749 121.286 20.3163 122.273 21.4383C123.259 22.5603 123.724 24.0558 123.551 25.5474L115.141 97.895Z" fill="#006FEE"/>
<defs>
<linearGradient id="paint0_linear_378_682" x1="61.442" y1="0.965576" x2="61.442" y2="101.201" gradientUnits="userSpaceOnUse">
<stop stop-color="#7A62E4"/>
<stop offset="1" stop-color="#656EE4"/>
</linearGradient>
</defs>
</svg>
