<svg width="119" height="119" viewBox="0 0 119 119" fill="none" xmlns="http://www.w3.org/2000/svg">
<circle cx="59.5" cy="59.5" r="58.5" fill="url(#paint0_linear_1532_10233)" stroke="#7EF8DA" stroke-width="2"/>
<g clip-path="url(#clip0_1532_10233)">
<path d="M76.2857 41.25H71.5714V36.1719C71.5714 35.5247 71.0437 35 70.3929 35H66.4643C65.8134 35 65.2857 35.5247 65.2857 36.1719V41.25H52.7143V36.1719C52.7143 35.5247 52.1866 35 51.5357 35H47.6071C46.9563 35 46.4286 35.5247 46.4286 36.1719V41.25H41.7143C39.1106 41.25 37 43.3486 37 45.9375V80.3125C37 82.9014 39.1106 85 41.7143 85H76.2857C78.8894 85 81 82.9014 81 80.3125V45.9375C81 43.3486 78.8894 41.25 76.2857 41.25ZM75.6964 80.3125H42.3036C42.1473 80.3125 41.9974 80.2508 41.8869 80.1409C41.7764 80.031 41.7143 79.882 41.7143 79.7266V50.625H76.2857V79.7266C76.2857 79.882 76.2236 80.031 76.1131 80.1409C76.0026 80.2508 75.8527 80.3125 75.6964 80.3125ZM70.5059 60.7178L56.5291 74.5038C56.067 74.9596 55.3208 74.9566 54.8623 74.4972L47.4873 67.1047C47.029 66.6452 47.0319 65.9032 47.494 65.4474L49.7253 63.2466C50.1874 62.7908 50.9337 62.7937 51.392 63.2533L55.7237 67.5952L66.6325 56.8354C67.0946 56.3796 67.8409 56.3825 68.2993 56.842L70.5127 59.0605C70.971 59.52 70.968 60.262 70.5059 60.7178Z" fill="white"/>
</g>
<defs>
<linearGradient id="paint0_linear_1532_10233" x1="13" y1="97" x2="103.5" y2="24" gradientUnits="userSpaceOnUse">
<stop stop-color="#068D40"/>
<stop offset="1" stop-color="#27CC6E"/>
</linearGradient>
<clipPath id="clip0_1532_10233">
<rect width="44" height="50" fill="white" transform="translate(37 35)"/>
</clipPath>
</defs>
</svg>
