<svg width="78" height="52" viewBox="0 0 78 52" fill="none" xmlns="http://www.w3.org/2000/svg">
<path fill-rule="evenodd" clip-rule="evenodd" d="M0.5 9.11503C0.5 9.11503 2.31078 13.6597 2.34962 19.4821C2.39158 25.867 4.08477 39.8177 4.08477 39.8177C4.08477 39.8177 5.37552 40.9749 5.90487 41.2308C8.14166 42.312 11.5133 45.6053 16.2047 43.4543C20.8963 41.3045 57.5044 22.7082 57.5044 22.7082L51.0385 7.73006L41.9828 2.39661L0.5 9.11503Z" fill="#D4C56E"/>
<path fill-rule="evenodd" clip-rule="evenodd" d="M7.51999 35.7164L4.08594 39.818C4.08594 39.818 6.28181 41.5957 7.37237 42.2458C8.46318 42.8971 10.7678 43.8303 10.7678 43.8303L7.51999 35.7164Z" fill="#B7A85C"/>
<path fill-rule="evenodd" clip-rule="evenodd" d="M44.843 10.1336L51.0359 7.73006L41.9805 2.39661L44.843 10.1336Z" fill="#B7A85C"/>
<path fill-rule="evenodd" clip-rule="evenodd" d="M17.39 51.8907C17.3622 51.9227 17.3345 51.9557 17.3066 51.9871C17.3011 51.9937 17.3086 52.0042 17.3143 51.9982C17.342 51.9662 17.3695 51.9338 17.3975 51.9011C17.4032 51.8955 17.3957 51.8844 17.39 51.8907Z" fill="#DA840D"/>
<path fill-rule="evenodd" clip-rule="evenodd" d="M56.2596 16.0269C56.0721 15.3837 55.5207 15.0254 55.0273 15.2255L42.4045 20.3538C42.1815 19.9634 41.9135 19.568 41.5898 19.1662C40.9141 18.3271 39.302 17.9478 37.6647 17.8774C36.4247 17.7911 35.1827 17.8741 34.3332 18.1087C30.4996 19.1674 20.9948 22.9041 17.2184 25.2193C15.7816 26.1021 14.698 27.0308 13.898 27.926C12.5402 29.4134 11.9723 30.8169 11.9024 31.766C11.7905 33.2705 11.7501 33.9754 12.3652 35.2166C13.2068 36.9164 13.8926 37.4554 14.6664 37.8976C15.4403 38.3394 17.3321 38.5513 17.972 38.4078C21.6995 37.5656 25.3526 36.1914 28.9074 34.1189C32.4618 32.047 33.7464 32.0863 35.6193 31.4718C37.493 30.858 38.9686 30.2483 40.6251 28.5398C42.3167 26.7963 43.4668 24.822 43.1962 22.6348L55.7053 17.5536C56.1974 17.3534 56.4463 16.6698 56.2596 16.0269Z" fill="#B7A85C"/>
<path fill-rule="evenodd" clip-rule="evenodd" d="M56.3389 19.1582C56.465 18.4821 56.1439 17.8407 55.6231 17.7244L42.2956 14.7547C42.2756 14.2799 42.2192 13.773 42.1169 13.228C41.904 12.0908 40.6666 10.802 39.2676 9.77025C38.2242 8.96018 37.1023 8.29721 36.2544 8.00002C32.4311 6.66059 22.4517 4.31546 18.113 4.11354C16.4618 4.03805 15.0988 4.21301 13.9973 4.52547C12.1431 5.02967 11.0175 5.92661 10.5299 6.71961C9.75632 7.97635 9.40489 8.57102 9.38443 10.0258C9.35568 12.0195 9.71333 12.8985 10.1906 13.7457C10.6677 14.5926 12.2246 15.9 12.8485 16.1522C16.4809 17.6202 20.2895 18.5765 24.3249 18.8608C28.3597 19.1445 29.464 19.9393 31.376 20.5094C33.2873 21.078 34.851 21.4162 37.0648 20.8961C39.3249 20.3656 41.2162 19.3113 41.9618 17.2289L55.1691 20.1711C55.6902 20.2871 56.2133 19.8332 56.3389 19.1582Z" fill="#B7A85C"/>
<path fill-rule="evenodd" clip-rule="evenodd" d="M56.8183 17.5263C57.3546 17.6521 57.6931 18.3151 57.5722 19.0071C57.451 19.6988 56.9172 20.1578 56.3801 20.0326L29.9077 13.8336C29.3708 13.7084 29.0323 13.0448 29.1535 12.3528C29.275 11.6611 29.8082 11.2024 30.3471 11.3279L56.8183 17.5263Z" fill="#E3AC8A"/>
<path fill-rule="evenodd" clip-rule="evenodd" d="M56.749 17.5202C57.2827 17.6451 57.6272 18.2473 57.5197 18.865C57.4114 19.4824 56.8911 19.8812 56.3579 19.7569L30.0758 13.6019C29.542 13.4779 29.1966 12.8752 29.3051 12.258C29.4126 11.6406 29.9328 11.2415 30.4674 11.3662L56.749 17.5202Z" fill="#E2CAB3"/>
<path fill-rule="evenodd" clip-rule="evenodd" d="M12.7637 15.3588C16.5217 16.9124 20.4517 17.9439 24.6091 18.2875C28.7665 18.6311 29.9127 19.4615 31.8877 20.0709C33.8624 20.6799 35.475 21.0475 37.7481 20.5418C41.2391 19.7668 43.8586 17.7674 42.858 12.7359C42.4467 10.6682 38.733 8.07264 36.657 7.32369C32.7042 5.89858 22.4034 3.36112 17.9355 3.09958C13.4679 2.83865 11.0456 4.36651 10.2648 5.64603C9.48374 6.92584 9.1292 7.53159 9.12506 9.02411C9.11962 11.0706 9.49773 11.9774 9.99885 12.8534C10.5005 13.7293 12.1183 15.0912 12.7637 15.3588Z" fill="#DA840D"/>
<path fill-rule="evenodd" clip-rule="evenodd" d="M25.8415 14.6067C17.0303 12.9057 10.2824 8.77958 10.771 5.38981C10.7897 5.25859 10.8208 5.12738 10.8617 5.00275C11.9636 3.89999 14.2755 2.85085 18.039 3.06985C22.5079 3.33318 32.8085 5.86944 36.76 7.29455C38.5552 7.94195 41.5596 10.1765 42.6121 12.0492C42.8048 14.7982 34.396 16.2532 25.8415 14.6067Z" fill="#F0A508"/>
<path fill-rule="evenodd" clip-rule="evenodd" d="M37.713 10.1766C37.3763 11.972 31.5332 12.768 24.9816 11.1233C18.4308 9.47796 12.1343 6.94979 12.6289 5.20413C13.3398 2.69693 19.3864 3.42192 25.996 4.71701C34.4636 6.37639 38.0509 8.38149 37.713 10.1766Z" fill="#EEBE30"/>
<path fill-rule="evenodd" clip-rule="evenodd" d="M38.3811 11.3866C37.9062 11.585 36.8412 12.0694 36.3738 11.6727C36.2194 11.5415 36.2267 10.4807 36.1915 10.2428C35.9703 8.72396 35.1151 7.76829 33.9681 7.09034C32.8765 6.44504 31.391 6.28327 30.4712 7.35996C29.8812 8.0517 29.9939 8.93906 29.7833 9.79676C29.7051 10.1164 29.0398 9.73565 28.9183 9.63679C28.6428 9.4115 28.4594 8.97201 28.3014 8.63918C27.5144 6.978 26.7437 5.88662 25.1903 5.17871C23.8566 4.57146 22.0373 4.26828 20.9024 5.51544C20.3915 6.07626 20.1644 6.80304 19.9142 7.54481C19.6184 8.41899 18.8607 7.92647 18.3945 7.49598C17.1157 6.31562 16.4333 4.54 14.81 3.84527C13.5744 3.31711 12.7827 5.4696 14.0199 6.03641C15.4763 6.70508 16.2212 8.70389 17.4811 9.73445C18.8275 10.8363 20.8532 10.7144 21.6729 8.90371C21.941 8.31083 22.0153 7.36895 22.6091 7.11431C23.1913 6.86506 24.0594 7.27279 24.5913 7.51575C26.1796 8.24073 26.2783 10.188 27.4605 11.4076C28.7622 12.7509 30.9272 12.6707 31.7417 10.7416C31.9251 10.3075 31.9362 9.74194 31.9854 9.2716C32.0046 9.09035 31.9906 9.02414 31.9833 9.00527C31.9939 9.01815 32.0274 9.04301 32.118 9.02923C32.5997 8.95554 33.1762 9.3396 33.5517 9.64308C34.425 10.3516 34.0987 11.9813 34.598 12.9978C35.5026 14.8396 37.7803 14.2794 39.1754 13.7024C40.4863 13.1608 39.6835 10.8429 38.3811 11.3866Z" fill="#8DB54F"/>
<path opacity="0.2" fill-rule="evenodd" clip-rule="evenodd" d="M20.8736 7.38401C20.8754 7.37982 20.8764 7.37533 20.8772 7.37173C20.9419 7.15903 21.0049 6.95262 21.0934 6.75309C21.1116 6.73482 21.1212 6.70996 21.123 6.68509C21.1243 6.6824 21.1258 6.6797 21.1271 6.677C21.1419 6.64644 21.1269 6.61829 21.1038 6.6051C21.0841 6.57844 21.0533 6.56586 21.0157 6.58683C20.4059 6.93225 20.3411 7.83788 19.9428 8.40888C19.8641 8.52123 19.7755 8.59552 19.6831 8.64945C19.5176 8.68 19.3513 8.70008 19.1843 8.71805C18.4319 8.56107 17.5361 7.4682 17.1673 7.04159C16.673 6.46879 16.2529 5.8214 15.7712 5.23541C15.68 5.12577 15.5746 4.99605 15.4571 4.87202C15.2312 4.57843 14.9575 4.37711 14.5928 4.33607C14.5752 4.32469 14.5543 4.316 14.5281 4.31839L14.4685 4.32439C14.3453 4.33607 14.3432 4.56076 14.4662 4.57364C15.4848 4.68568 15.7471 6.0323 16.3068 6.83698C16.8519 7.62338 17.6343 8.34837 18.3843 8.85526C18.8787 9.189 19.4792 9.3247 20.012 9.0413C20.5628 8.74861 20.7316 8.041 20.8736 7.38401Z" fill="white"/>
<path opacity="0.2" fill-rule="evenodd" clip-rule="evenodd" d="M28.7387 9.80528C27.2612 8.64979 27.0799 5.8496 24.9387 5.87926C24.6675 5.88286 24.6771 6.37417 24.9335 6.41462C26.8557 6.7145 26.9463 9.23068 28.3841 10.3385C28.6941 10.5764 29.0505 10.0485 28.7387 9.80528Z" fill="white"/>
<path opacity="0.2" fill-rule="evenodd" clip-rule="evenodd" d="M35.5878 10.5209C35.8726 8.97508 34.0318 7.12157 32.7543 7.5269C32.4912 7.60988 32.6062 8.12846 32.8719 8.06345C33.8285 7.82978 35.1866 9.29923 34.9947 10.4254C34.9199 10.8657 35.5072 10.9538 35.5878 10.5209Z" fill="white"/>
<path fill-rule="evenodd" clip-rule="evenodd" d="M24.9522 7.51483C24.7098 7.13196 24.3659 6.83688 23.9973 6.66821C23.8629 6.58643 23.7189 6.52291 23.5514 6.49176C23.4361 6.47049 23.3139 6.47618 23.1914 6.49775C22.667 6.72573 22.1208 7.0325 22.0625 7.72723C22.0897 7.73352 22.1192 7.72993 22.1451 7.70387C22.5015 7.34706 22.8801 7.08763 23.368 7.12927C23.8803 7.17361 24.362 7.55767 24.8626 7.69218C24.9483 7.71495 24.9988 7.58763 24.9522 7.51483Z" fill="#5F825C"/>
<path fill-rule="evenodd" clip-rule="evenodd" d="M34.1286 9.76222C33.9644 9.27091 33.6241 8.82842 33.151 8.67774C32.9254 8.60584 32.6957 8.52854 32.4629 8.54382C32.1345 8.56539 32.0736 8.74035 31.997 8.81974C31.9851 8.89433 31.975 8.96923 31.9688 9.04622C31.9902 9.06839 32.0177 9.08337 32.0558 9.07947C32.7812 9.01087 33.7852 9.97702 34.1224 10.6915C34.1444 10.7374 34.2017 9.98181 34.1286 9.76222Z" fill="#5F825C"/>
<path fill-rule="evenodd" clip-rule="evenodd" d="M56.4302 13.7605C56.9479 13.5541 57.5303 13.928 57.729 14.5961C57.9271 15.2638 57.6673 15.9723 57.1491 16.1785L31.6069 26.3343C31.0887 26.5407 30.5071 26.1668 30.3089 25.4981C30.1103 24.8304 30.37 24.1225 30.8885 23.916L56.4302 13.7605Z" fill="#E3AC8A"/>
<path fill-rule="evenodd" clip-rule="evenodd" d="M56.3643 13.7961C56.8789 13.5911 57.4408 13.9084 57.618 14.5043C57.7951 15.1001 57.5201 15.7484 57.0058 15.9533L31.6466 26.037C31.1315 26.2425 30.5703 25.9246 30.3935 25.3291C30.2168 24.7329 30.4908 24.0846 31.0062 23.8791L56.3643 13.7961Z" fill="#E7D8C8"/>
<path fill-rule="evenodd" clip-rule="evenodd" d="M17.4909 37.6861C21.4118 36.826 25.253 35.4128 28.989 33.2741C32.724 31.1372 34.0764 31.1813 36.0461 30.5509C38.0157 29.9206 39.5672 29.2924 41.3065 27.5258C43.9781 24.8124 45.3616 21.5539 42.2971 17.8013C41.0377 16.2591 36.6993 16.1947 34.5806 16.7651C30.5486 17.8505 20.5543 21.6938 16.5873 24.0854C12.6203 26.476 11.1998 29.2121 11.0859 30.7726C10.9724 32.3337 10.9318 33.0638 11.5818 34.3547C12.4722 36.1223 13.1958 36.6831 14.0113 37.1441C14.8263 37.6067 16.8183 37.8335 17.4909 37.6861Z" fill="#DA840D"/>
<path fill-rule="evenodd" clip-rule="evenodd" d="M28.4426 29.3789C20.0984 33.0721 12.4743 33.4649 11.4117 30.2561C11.3703 30.1314 11.3392 30.0005 11.3203 29.8693C11.7878 28.2737 13.3222 26.0152 16.6638 23.9987C20.6332 21.6095 30.6263 17.765 34.6581 16.6796C36.4898 16.1865 40.0583 16.3546 41.7854 17.3528C43.1552 19.6107 36.5398 25.7896 28.4426 29.3789Z" fill="#F0A508"/>
<path fill-rule="evenodd" clip-rule="evenodd" d="M36.7411 18.6065C37.2357 20.3515 32.5454 24.4597 26.1753 26.8779C19.806 29.2949 13.2692 30.8024 12.932 29.007C12.4474 26.4279 17.9794 23.5127 24.2465 20.7587C32.2758 17.2314 36.2462 16.8608 36.7411 18.6065Z" fill="#EEBE30"/>
<path fill-rule="evenodd" clip-rule="evenodd" d="M37.8454 19.2598C37.5227 19.7086 36.8162 20.7499 36.2402 20.6819C36.0491 20.6591 35.591 19.7406 35.4571 19.5558C34.6006 18.3751 33.4458 18.0516 32.1595 18.1388C30.9356 18.2211 29.5842 18.9515 29.2621 20.4192C29.0559 21.3614 29.5415 22.0594 29.7352 22.9234C29.8072 23.2439 29.067 23.3053 28.9189 23.2916C28.582 23.2595 28.2321 22.9872 27.9503 22.7931C26.5451 21.8206 25.402 21.3308 23.7531 21.6298C22.337 21.8871 20.636 22.6912 20.2028 24.4315C20.0075 25.2143 20.13 25.9749 20.2385 26.7613C20.3659 27.687 19.4973 27.7062 18.9063 27.6085C17.2869 27.3389 15.9216 26.2065 14.2178 26.5588C12.9216 26.8269 13.1806 29.1463 14.4954 28.9114C16.0438 28.6346 17.5612 29.9219 19.0985 30.0729C20.7417 30.2356 22.4357 28.9435 22.3497 26.9009C22.3225 26.2343 21.9736 25.3778 22.3745 24.8101C22.7674 24.2547 23.6943 24.098 24.2599 23.995C25.9464 23.6903 26.8836 25.3128 28.4372 25.6714C30.1478 26.0681 31.9795 24.7316 31.8384 22.5902C31.8065 22.1088 31.5682 21.6148 31.4056 21.1801C31.3424 21.012 31.301 20.9635 31.2862 20.9518C31.3015 20.9566 31.3411 20.9581 31.4129 20.8934C31.7964 20.5477 32.4612 20.5417 32.9183 20.5839C33.9814 20.6822 34.4136 22.2784 35.2895 22.8635C36.8757 23.9219 38.5941 22.1058 39.5442 20.7909C40.4372 19.5573 38.7311 18.0288 37.8454 19.2598Z" fill="#ED6366"/>
<path opacity="0.2" fill-rule="evenodd" clip-rule="evenodd" d="M20.9951 26.0607C20.9943 26.0559 20.9938 26.0526 20.9936 26.0478C20.9555 25.8261 20.9195 25.6113 20.9086 25.3878C20.9159 25.3614 20.9141 25.3351 20.904 25.3111C20.904 25.3087 20.904 25.3057 20.904 25.3024C20.9029 25.2668 20.8778 25.2515 20.8524 25.2533C20.8247 25.2422 20.7916 25.2497 20.7685 25.2901C20.394 25.9447 20.7341 26.7635 20.6408 27.4891C20.6225 27.6326 20.5787 27.7476 20.5225 27.8489C20.3927 27.9711 20.2583 28.0864 20.1224 28.1994C19.4047 28.5055 18.1536 28.0876 17.6489 27.9348C16.9722 27.7311 16.3268 27.4181 15.6547 27.1952C15.5281 27.1535 15.3805 27.1038 15.2246 27.0664C14.9014 26.9447 14.5777 26.9313 14.2446 27.1092C14.2247 27.1104 14.2032 27.1152 14.1817 27.132L14.1325 27.1718C14.0315 27.2542 14.1273 27.4492 14.2397 27.3896C15.1673 26.8887 15.9831 27.8968 16.8173 28.2632C17.6323 28.6218 18.6234 28.7887 19.4923 28.7863C20.0646 28.7851 20.6416 28.5511 20.9778 27.9939C21.3238 27.4199 21.1604 26.7102 20.9951 26.0607Z" fill="white"/>
<path opacity="0.2" fill-rule="evenodd" clip-rule="evenodd" d="M28.835 23.5444C27.0556 23.4129 25.6734 21.1043 23.8396 22.3835C23.6081 22.545 23.8316 22.9635 24.0701 22.8482C25.8583 21.9809 27.0385 24.0986 28.763 24.2122C29.1344 24.2355 29.2105 23.572 28.835 23.5444Z" fill="white"/>
<path opacity="0.2" fill-rule="evenodd" clip-rule="evenodd" d="M35.0574 20.1476C34.6262 18.6476 32.2281 18.1275 31.3041 19.2252C31.1129 19.4511 31.4387 19.8309 31.6397 19.6185C32.3622 18.857 34.1769 19.3291 34.5043 20.4124C34.6324 20.8363 35.1784 20.5685 35.0574 20.1476Z" fill="white"/>
<path fill-rule="evenodd" clip-rule="evenodd" d="M24.5694 23.785C24.1923 23.5966 23.7668 23.5439 23.3752 23.6149C23.2232 23.6224 23.0715 23.6517 22.9137 23.723C22.8042 23.7728 22.7022 23.8482 22.6061 23.939C22.2534 24.4429 21.9175 25.0274 22.1702 25.6604C22.1972 25.6505 22.2202 25.629 22.2311 25.5915C22.3823 25.0759 22.5955 24.6302 23.0337 24.3803C23.4957 24.1182 24.0792 24.1673 24.5697 23.99C24.6536 23.96 24.6409 23.8207 24.5694 23.785Z" fill="#C73A54"/>
<path fill-rule="evenodd" clip-rule="evenodd" d="M33.4661 20.349C33.109 20.0218 32.6229 19.8391 32.1474 19.9862C31.9221 20.0557 31.6898 20.1243 31.4961 20.2741C31.2221 20.4853 31.2462 20.6713 31.2148 20.7843C31.2369 20.8556 31.2617 20.9266 31.2894 20.9961C31.3169 21.0029 31.348 20.9997 31.3788 20.9739C31.9747 20.4907 33.2634 20.7351 33.867 21.1542C33.9059 21.1809 33.6246 20.4952 33.4661 20.349Z" fill="#C73A54"/>
<path fill-rule="evenodd" clip-rule="evenodd" d="M14.2969 24.5138C14.2821 25.6045 12.0958 26.4506 9.41308 26.402C6.73032 26.3553 4.56734 25.4314 4.58211 24.34C4.59687 23.2486 6.7829 22.4026 9.46565 22.4505C12.1489 22.4991 14.3116 23.4224 14.2969 24.5138Z" fill="#B7A85C"/>
<path fill-rule="evenodd" clip-rule="evenodd" d="M16.0619 17.7973L2.82422 17.631L4.17893 23.0906L4.18256 23.0936C4.48867 24.7062 6.69594 25.9348 9.38827 26.0139C12.2847 26.0993 14.0879 25.3479 14.6859 22.9345L14.695 22.9291L16.0619 17.7973Z" fill="#E7D8C8"/>
<path fill-rule="evenodd" clip-rule="evenodd" d="M16.1252 17.2503C16.1027 19.5248 13.1001 21.3297 9.41614 21.2842C5.73218 21.2375 2.76403 19.3573 2.78527 17.0826C2.80625 14.8087 5.81013 13.0023 9.49331 13.0481C13.1773 13.0948 16.1459 14.9759 16.1252 17.2503Z" fill="white"/>
<path fill-rule="evenodd" clip-rule="evenodd" d="M15.8947 17.1532C15.8742 19.297 12.976 20.9995 9.41766 20.9543C5.86268 20.9099 2.99527 19.1358 3.01573 16.992C3.03516 14.8479 5.93467 13.1463 9.49044 13.1909C13.0478 13.2359 15.9141 15.01 15.8947 17.1532Z" fill="#E2CAB3"/>
<path fill-rule="evenodd" clip-rule="evenodd" d="M15.4048 17.8974C15.389 19.623 12.7026 20.9876 9.40351 20.9468C6.10595 20.9058 3.44444 19.4729 3.46101 17.7476C3.47681 16.022 6.16422 14.6577 9.46256 14.699C12.7604 14.7401 15.4211 16.1718 15.4048 17.8974Z" fill="#8DB54F"/>
<path opacity="0.2" fill-rule="evenodd" clip-rule="evenodd" d="M9.55173 15.8179C7.30069 15.7901 5.40653 16.3925 4.84766 17.2341C5.63702 16.9324 6.78481 16.7499 8.06494 16.7658C10.4367 16.7958 12.3534 17.4932 12.3451 18.3227C12.3386 19.0585 10.821 19.6517 8.82556 19.755C9.05087 19.7709 9.27981 19.7838 9.51418 19.7865C12.1969 19.8204 14.3811 18.9591 14.391 17.8629C14.4008 16.7676 12.2347 15.8515 9.55173 15.8179Z" fill="white"/>
<path fill-rule="evenodd" clip-rule="evenodd" d="M4.20494 17.116C4.09513 17.1786 4.00734 17.2727 3.93379 17.3841C3.92058 17.4033 3.94208 17.4237 3.95865 17.412C4.05914 17.3395 4.16868 17.2838 4.24508 17.1756C4.26631 17.1457 4.23394 17.0984 4.20494 17.116Z" fill="#5F825C"/>
<path fill-rule="evenodd" clip-rule="evenodd" d="M4.78248 17.4946C4.64962 17.606 4.51729 17.7309 4.44684 17.9059C4.44037 17.9218 4.45565 17.9403 4.46989 17.9322C4.61103 17.8448 4.73949 17.7309 4.87312 17.6297C4.95237 17.5689 4.86017 17.4295 4.78248 17.4946Z" fill="#5F825C"/>
<path fill-rule="evenodd" clip-rule="evenodd" d="M5.06217 16.3363C4.99639 16.425 4.92051 16.5188 4.88658 16.6284C4.86768 16.6847 4.92388 16.7332 4.96532 16.6973C5.04586 16.6293 5.13028 16.5406 5.18441 16.4433C5.23827 16.3477 5.12666 16.2497 5.06217 16.3363Z" fill="#5F825C"/>
<path fill-rule="evenodd" clip-rule="evenodd" d="M5.65798 17.1047C5.65513 17.075 5.61991 17.0786 5.61603 17.1056C5.59505 17.2554 5.56293 17.4291 5.66109 17.5496C5.6831 17.5759 5.7248 17.5606 5.71936 17.5205C5.69968 17.3812 5.673 17.2461 5.65798 17.1047Z" fill="#5F825C"/>
<path fill-rule="evenodd" clip-rule="evenodd" d="M5.32434 18.1375C5.19718 18.1779 5.16688 18.3181 5.15263 18.458C5.14719 18.5125 5.22023 18.5371 5.23421 18.4823C5.26296 18.3699 5.32563 18.304 5.37147 18.2058C5.38727 18.1737 5.35516 18.1276 5.32434 18.1375Z" fill="#5F825C"/>
<path fill-rule="evenodd" clip-rule="evenodd" d="M5.95083 18.8777C5.84413 18.9493 5.77577 19.0511 5.73614 19.1862C5.72527 19.2222 5.76722 19.2524 5.78846 19.2198C5.85061 19.1203 5.93452 19.046 6.0016 18.9522C6.02775 18.916 5.98812 18.8519 5.95083 18.8777Z" fill="#5F825C"/>
<path fill-rule="evenodd" clip-rule="evenodd" d="M4.74374 18.6878C4.72846 18.6596 4.68936 18.6878 4.70153 18.7177C4.73908 18.8166 4.77845 18.914 4.85252 18.9814C4.87401 19.0014 4.90561 18.9721 4.89395 18.9424C4.85718 18.8483 4.79165 18.7761 4.74374 18.6878Z" fill="#5F825C"/>
<path fill-rule="evenodd" clip-rule="evenodd" d="M6.86386 17.9132C6.70278 17.9159 6.53081 17.9608 6.37102 17.9914C6.30991 18.0037 6.32492 18.107 6.3863 18.1004C6.5536 18.0828 6.76027 18.1199 6.88302 17.9617C6.89442 17.9456 6.88329 17.9129 6.86386 17.9132Z" fill="#5F825C"/>
<path fill-rule="evenodd" clip-rule="evenodd" d="M6.93797 16.8068C6.82816 16.7891 6.7339 16.8819 6.65465 16.9616C6.62176 16.9952 6.65154 17.0587 6.69427 17.0386C6.78698 16.9937 6.90042 16.9664 6.96154 16.87C6.97682 16.8445 6.96438 16.8106 6.93797 16.8068Z" fill="#5F825C"/>
<path fill-rule="evenodd" clip-rule="evenodd" d="M6.22238 15.9495C6.14002 16.0109 6.13044 16.1217 6.11076 16.2281C6.09858 16.2841 6.17032 16.2949 6.19026 16.2499C6.22807 16.1637 6.28376 16.09 6.28661 15.9914C6.28868 15.9492 6.25164 15.9276 6.22238 15.9495Z" fill="#5F825C"/>
<path fill-rule="evenodd" clip-rule="evenodd" d="M7.49798 15.8726C7.44126 15.8876 7.45291 15.9826 7.51092 15.9763C7.56868 15.9694 7.62384 15.9604 7.68159 15.9634C7.72303 15.9655 7.76446 16.0033 7.80875 16.0078C7.82454 16.0095 7.83853 15.9964 7.84034 15.9778C7.85977 15.7672 7.59458 15.8475 7.49798 15.8726Z" fill="#5F825C"/>
<path fill-rule="evenodd" clip-rule="evenodd" d="M7.30337 15.3356C7.22438 15.3296 7.17025 15.3593 7.09075 15.3821C7.02963 15.4 7.04154 15.5124 7.10654 15.4968C7.17906 15.4788 7.25054 15.4644 7.31451 15.4216C7.34584 15.4012 7.34584 15.3386 7.30337 15.3356Z" fill="#5F825C"/>
<path fill-rule="evenodd" clip-rule="evenodd" d="M8.10569 17.0716C8.03058 16.9668 7.8853 17.0003 7.78352 16.9347C7.7281 16.8991 7.67656 17.0072 7.72862 17.048C7.8278 17.1226 7.99381 17.2097 8.10077 17.119C8.11372 17.1085 8.11579 17.0857 8.10569 17.0716Z" fill="#5F825C"/>
<path fill-rule="evenodd" clip-rule="evenodd" d="M7.88717 18.1043C7.82424 18.0738 7.76053 18.0642 7.702 18.0204C7.65331 17.9845 7.5997 18.0642 7.64761 18.1037C7.71832 18.1633 7.79161 18.2074 7.8794 18.1819C7.91255 18.1729 7.92084 18.1208 7.88717 18.1043Z" fill="#5F825C"/>
<path fill-rule="evenodd" clip-rule="evenodd" d="M7.20275 19.0836C7.1103 19.0848 7.02639 19.089 6.93678 19.0644C6.88265 19.0501 6.85986 19.1558 6.91295 19.1738C7.0225 19.2097 7.12584 19.2418 7.22062 19.1561C7.24263 19.1355 7.23461 19.0836 7.20275 19.0836Z" fill="#5F825C"/>
<path fill-rule="evenodd" clip-rule="evenodd" d="M6.67183 19.8945C6.59595 19.8271 6.49573 19.8157 6.41363 19.7558C6.37401 19.727 6.32117 19.7804 6.35406 19.8259C6.42787 19.9272 6.55374 20.0239 6.66588 19.9541C6.68478 19.9421 6.69073 19.9113 6.67183 19.8945Z" fill="#5F825C"/>
<path fill-rule="evenodd" clip-rule="evenodd" d="M8.26263 20.0554C8.14039 20.0351 8.02643 20.1034 7.90109 20.1052C7.84826 20.1058 7.83609 20.1953 7.89255 20.2028C8.02411 20.2217 8.16784 20.2157 8.2805 20.1285C8.30821 20.1073 8.29112 20.0611 8.26263 20.0554Z" fill="#5F825C"/>
<path fill-rule="evenodd" clip-rule="evenodd" d="M8.20333 19.1709C8.0899 19.1936 8.00547 19.2829 7.89255 19.3138C7.83609 19.3278 7.84697 19.4267 7.90576 19.4168C8.0267 19.3959 8.15567 19.3494 8.23881 19.2401C8.26082 19.211 8.23389 19.1646 8.20333 19.1709Z" fill="#5F825C"/>
<path fill-rule="evenodd" clip-rule="evenodd" d="M9.81945 19.8358C9.60657 19.9071 9.39888 20.0086 9.18574 20.0871C9.13161 20.106 9.15855 20.2093 9.21371 20.1971C9.4341 20.1461 9.69229 20.0946 9.84716 19.8891C9.86296 19.8681 9.84406 19.8283 9.81945 19.8358Z" fill="#5F825C"/>
<path fill-rule="evenodd" clip-rule="evenodd" d="M9.14188 19.0208C9.04554 19.0849 8.98597 19.1781 8.93806 19.2952C8.91423 19.3557 8.99193 19.4034 9.02508 19.3519C9.07998 19.2653 9.15172 19.1973 9.19937 19.105C9.22035 19.0634 9.18953 18.9903 9.14188 19.0208Z" fill="#5F825C"/>
<path fill-rule="evenodd" clip-rule="evenodd" d="M8.97429 17.812C8.8461 17.8926 8.73655 18.0412 8.63866 18.1673C8.60499 18.2107 8.66637 18.2811 8.70314 18.2395C8.80803 18.1202 8.96497 18.0265 9.01677 17.8602C9.02557 17.8317 9.00019 17.7952 8.97429 17.812Z" fill="#5F825C"/>
<path fill-rule="evenodd" clip-rule="evenodd" d="M9.14322 16.3847C9.00286 16.403 8.89021 16.5612 8.79335 16.669C8.75554 16.7113 8.78972 16.8023 8.84384 16.7679C8.9666 16.6897 9.1383 16.604 9.18077 16.4398C9.1888 16.4099 9.17042 16.3811 9.14322 16.3847Z" fill="#5F825C"/>
<path fill-rule="evenodd" clip-rule="evenodd" d="M8.67149 15.8692C8.57852 15.9225 8.50937 16.013 8.44255 16.1031C8.39827 16.1597 8.47907 16.2263 8.52258 16.1726C8.5881 16.0917 8.66709 16.0303 8.71474 15.9336C8.73054 15.9003 8.70723 15.8491 8.67149 15.8692Z" fill="#5F825C"/>
<path fill-rule="evenodd" clip-rule="evenodd" d="M8.93095 15.2244C8.80716 15.1969 8.68311 15.2493 8.56294 15.2807C8.51969 15.2906 8.53005 15.3685 8.57252 15.3574C8.69191 15.3263 8.81544 15.3053 8.93198 15.2679C8.95296 15.2607 8.95296 15.2292 8.93095 15.2244Z" fill="#5F825C"/>
<path fill-rule="evenodd" clip-rule="evenodd" d="M10.2692 15.4406C10.1534 15.4259 10.0371 15.4011 9.92086 15.3969C9.90351 15.3963 9.90014 15.4268 9.91879 15.4283C10.0348 15.4412 10.147 15.4849 10.2643 15.4861C10.2904 15.487 10.2956 15.4439 10.2692 15.4406Z" fill="#5F825C"/>
<path fill-rule="evenodd" clip-rule="evenodd" d="M10.2226 15.967C10.1338 15.8022 9.87738 15.852 9.74141 15.9005C9.67745 15.9233 9.7005 16.0341 9.76007 16.0419C9.83828 16.0524 9.91597 16.0413 9.99444 16.0443C10.062 16.0473 10.1203 16.0755 10.1889 16.0647C10.2314 16.0581 10.2418 16.0042 10.2226 15.967Z" fill="#5F825C"/>
<path fill-rule="evenodd" clip-rule="evenodd" d="M10.2255 17.1122C10.0841 17.0559 9.92196 17.1383 9.78936 17.197C9.72591 17.2255 9.76787 17.3366 9.82976 17.309C9.96029 17.2527 10.1007 17.2446 10.2257 17.188C10.254 17.1742 10.254 17.1236 10.2255 17.1122Z" fill="#5F825C"/>
<path fill-rule="evenodd" clip-rule="evenodd" d="M10.2318 18.2227C10.1632 18.2491 10.1011 18.2901 10.0361 18.3258C9.9853 18.353 10.0223 18.4468 10.0705 18.4166C10.136 18.3731 10.2 18.3312 10.2572 18.2722C10.2779 18.2494 10.258 18.2119 10.2318 18.2227Z" fill="#5F825C"/>
<path fill-rule="evenodd" clip-rule="evenodd" d="M11.093 19.1404C10.9536 19.2039 10.8384 19.3564 10.7092 19.4475C10.6535 19.4867 10.7164 19.5766 10.7713 19.5395C10.898 19.4502 11.0678 19.348 11.1318 19.1857C11.1432 19.1569 11.115 19.1305 11.093 19.1404Z" fill="#5F825C"/>
<path fill-rule="evenodd" clip-rule="evenodd" d="M11.7943 19.8748C11.6521 19.9185 11.5229 20.0225 11.3923 20.1028C11.3411 20.1348 11.3755 20.2304 11.4304 20.201C11.563 20.1297 11.7114 20.0677 11.8292 19.9641C11.8613 19.9356 11.8391 19.8613 11.7943 19.8748Z" fill="#5F825C"/>
<path fill-rule="evenodd" clip-rule="evenodd" d="M13.4325 19.2013C13.2831 19.3172 13.1546 19.4793 13.0073 19.6036C12.9578 19.6447 13.015 19.7276 13.0653 19.6887C13.2111 19.5701 13.4074 19.4421 13.4879 19.248C13.5037 19.2091 13.4594 19.1809 13.4325 19.2013Z" fill="#5F825C"/>
<path fill-rule="evenodd" clip-rule="evenodd" d="M14.5366 17.9838C14.4625 18.095 14.4312 18.2559 14.39 18.3871C14.3675 18.4626 14.4669 18.5087 14.4913 18.4332C14.5353 18.2963 14.6179 18.1513 14.6011 18.0024C14.5972 17.9662 14.5552 17.956 14.5366 17.9838Z" fill="#5F825C"/>
<path fill-rule="evenodd" clip-rule="evenodd" d="M12.4112 18.5725C12.331 18.6743 12.2768 18.8109 12.2232 18.934C12.1989 18.9913 12.2805 19.0446 12.3079 18.9895C12.3683 18.8687 12.4545 18.757 12.4856 18.6201C12.4962 18.5659 12.4454 18.5296 12.4112 18.5725Z" fill="#5F825C"/>
<path fill-rule="evenodd" clip-rule="evenodd" d="M11.4837 17.4774C11.39 17.5574 11.3444 17.6839 11.284 17.7968C11.2384 17.8846 11.3521 17.981 11.3946 17.8927C11.4534 17.7716 11.5301 17.6521 11.5347 17.5101C11.5355 17.4792 11.507 17.4583 11.4837 17.4774Z" fill="#5F825C"/>
<path fill-rule="evenodd" clip-rule="evenodd" d="M11.3324 16.071C11.2431 16.1833 11.2179 16.3625 11.1664 16.5018C11.132 16.5872 11.2495 16.6399 11.2822 16.5551C11.3373 16.4122 11.4174 16.2501 11.3969 16.0899C11.3933 16.0509 11.3536 16.0458 11.3324 16.071Z" fill="#5F825C"/>
<path fill-rule="evenodd" clip-rule="evenodd" d="M12.2702 16.1407C12.1954 16.1689 12.1407 16.2231 12.0799 16.28C12.0071 16.3468 12.1091 16.466 12.17 16.3831C12.2166 16.3193 12.2656 16.2602 12.3023 16.1895C12.3166 16.1611 12.2961 16.1308 12.2702 16.1407Z" fill="#5F825C"/>
<path fill-rule="evenodd" clip-rule="evenodd" d="M13.0248 16.9341C12.8976 16.9946 12.8223 17.2067 12.7762 17.349C12.7591 17.4038 12.8269 17.4529 12.8562 17.4008C12.9315 17.269 13.0831 17.1309 13.0691 16.9631C13.0675 16.9386 13.0432 16.9251 13.0248 16.9341Z" fill="#5F825C"/>
<path fill-rule="evenodd" clip-rule="evenodd" d="M13.6621 17.8293C13.6289 17.8569 13.6007 17.8884 13.5696 17.9195C13.5121 17.9779 13.6007 18.0711 13.6427 18.0019C13.6662 17.9627 13.6882 17.9234 13.7092 17.8815C13.7271 17.8458 13.6947 17.8036 13.6621 17.8293Z" fill="#5F825C"/>
<path fill-rule="evenodd" clip-rule="evenodd" d="M13.9117 16.4866C13.8923 16.4782 13.8648 16.4872 13.8584 16.5129C13.8288 16.6223 13.8698 16.7481 13.8695 16.864C13.8692 16.9572 13.9933 16.9761 13.9964 16.8799C14.0016 16.7544 14.0389 16.5384 13.9117 16.4866Z" fill="#5F825C"/>
<path fill-rule="evenodd" clip-rule="evenodd" d="M11.513 15.397C11.3618 15.3215 11.182 15.3446 11.0196 15.3302C10.9614 15.3242 10.9562 15.4156 11.0103 15.4303C11.1683 15.4746 11.3405 15.5205 11.5037 15.5028C11.5518 15.4977 11.5549 15.4174 11.513 15.397Z" fill="#5F825C"/>
<path fill-rule="evenodd" clip-rule="evenodd" d="M10.8658 17.0706C10.8627 17.0071 10.7804 17.0017 10.7622 17.0568C10.7314 17.1548 10.7151 17.2485 10.7358 17.351C10.7433 17.3926 10.8006 17.4235 10.8231 17.3768C10.8715 17.2779 10.872 17.1838 10.8658 17.0706Z" fill="#5F825C"/>
<path fill-rule="evenodd" clip-rule="evenodd" d="M10.2315 19.2143C10.2227 19.1493 10.1289 19.1481 10.1289 19.2167C10.1289 19.3219 10.1315 19.3719 10.197 19.4423C10.2162 19.4624 10.2519 19.4432 10.2535 19.4138C10.2581 19.3243 10.2442 19.3138 10.2315 19.2143Z" fill="#5F825C"/>
<path fill-rule="evenodd" clip-rule="evenodd" d="M10.426 20.0973C10.3496 20.0967 10.3164 20.1428 10.261 20.2042C10.219 20.2504 10.2747 20.3337 10.3164 20.2866C10.363 20.2339 10.4128 20.1989 10.4444 20.1326C10.4508 20.1186 10.4399 20.0979 10.426 20.0973Z" fill="#5F825C"/>
<path fill-rule="evenodd" clip-rule="evenodd" d="M13.1537 16.0154C13.0936 15.9282 12.9926 15.9028 12.9139 15.8417C12.8722 15.8105 12.8165 15.8686 12.8502 15.916C12.918 16.0073 13.0219 16.1038 13.1312 16.0828C13.1573 16.078 13.1721 16.0403 13.1537 16.0154Z" fill="#5F825C"/>
<path fill-rule="evenodd" clip-rule="evenodd" d="M12.2534 17.3497C12.1465 17.4633 12.1366 17.6478 12.0993 17.8042C12.0866 17.8602 12.1491 17.9123 12.1814 17.8575C12.2609 17.7236 12.3397 17.5489 12.3272 17.3848C12.3239 17.3455 12.2791 17.3239 12.2534 17.3497Z" fill="#5F825C"/>
<path fill-rule="evenodd" clip-rule="evenodd" d="M77.5006 31.1585C77.5006 35.8632 68.2056 39.6771 56.7407 39.6771C45.2747 39.6771 35.9805 35.8635 35.9805 31.1585C35.9805 26.4545 45.2747 22.6411 56.7407 22.6411C68.2059 22.6414 77.5006 26.4545 77.5006 31.1585Z" fill="#E2CAB3"/>
<path fill-rule="evenodd" clip-rule="evenodd" d="M77.5006 30.2202C77.5006 34.9245 68.2056 38.7382 56.7407 38.7382C45.2747 38.7382 35.9805 34.9248 35.9805 30.2202C35.9805 25.5156 45.2747 21.7019 56.7407 21.7019C68.2059 21.7022 77.5006 25.5159 77.5006 30.2202Z" fill="white"/>
<path fill-rule="evenodd" clip-rule="evenodd" d="M77.5006 30.0861C77.5006 34.6422 68.2056 38.3354 56.7407 38.3354C45.2752 38.3354 35.9805 34.6422 35.9805 30.0861C35.9805 25.5301 45.2752 21.8359 56.7407 21.8359C68.2059 21.8359 77.5006 25.5301 77.5006 30.0861Z" fill="#E7D8C8"/>
<path fill-rule="evenodd" clip-rule="evenodd" d="M76.5806 30.0856C76.5806 33.3367 68.6302 35.9715 58.8235 35.9715C49.016 35.9715 41.0664 33.3364 41.0664 30.0856C41.0664 26.8346 49.016 24.1995 58.8235 24.1995C68.6299 24.1995 76.5806 26.8346 76.5806 30.0856Z" fill="#E2CAB3"/>
<path d="M71.5668 31.5411C71.5668 33.0126 64.9297 34.2056 56.7424 34.2056C48.5548 34.2056 41.918 33.0126 41.918 31.5411C41.918 30.0698 48.5548 28.8772 56.7424 28.8772C64.9297 28.8772 71.5668 30.0695 71.5668 31.5411Z" fill="#E2CAB3"/>
<path d="M41.2292 27.3193C41.2153 27.5248 41.2064 27.7367 41.2036 27.9556C41.1733 29.9446 42.6041 31.0917 44.2629 31.6219C49.5831 33.3215 53.2398 32.9119 56.3181 32.9754C59.4527 33.0396 64.9472 33.3616 69.1149 32.1318C70.782 31.6396 72.2535 30.5827 72.284 28.5932C72.2869 28.3751 72.2708 28.163 72.2429 27.9556L41.2292 27.3193Z" fill="#F0A508"/>
<path d="M44.2632 31.6523C44.2779 31.657 44.2927 31.6609 44.3077 31.6657C47.7868 29.6085 54.0639 28.3149 61.2099 28.4611C65.2155 28.5435 68.9321 29.0672 72.0287 29.8985C72.1851 29.5231 72.2771 29.1004 72.2846 28.6232C72.2879 28.4051 72.2719 28.1936 72.2424 27.9854L41.23 27.3494C41.216 27.5531 41.2067 27.7664 41.2036 27.9854C41.1728 29.9749 42.6047 31.1217 44.2632 31.6523Z" fill="#DA840D"/>
<path d="M72.2434 27.9555C72.2434 28.4861 65.1531 28.8774 56.5703 28.8774C47.9876 28.8774 41.2031 27.8492 41.2031 27.3192C41.2031 26.789 48.1611 26.3594 56.7441 26.3594C65.3272 26.3594 72.2434 27.4253 72.2434 27.9555Z" fill="#EEBE30"/>
<path d="M58.232 26.2287C58.232 27.2631 54.7145 28.1014 50.3759 28.1014C46.0367 28.1014 42.5195 27.2631 42.5195 26.2287C42.5195 25.1942 46.0367 24.3557 50.3759 24.3557C54.7145 24.3557 58.232 25.1942 58.232 26.2287Z" fill="#C73A54"/>
<path d="M72.3427 26.2287C72.3427 27.2631 68.7108 28.1014 64.2297 28.1014C59.7491 28.1014 56.1172 27.2631 56.1172 26.2287C56.1172 25.1942 59.7491 24.3557 64.2297 24.3557C68.7108 24.3557 72.3427 25.1942 72.3427 26.2287Z" fill="#C73A54"/>
<path d="M71.4469 19.9811C70.374 19.4571 68.7111 19.1006 66.8384 19.0623C66.3109 19.0521 65.8004 19.0668 65.3136 19.1048C64.3631 18.8403 63.2073 18.6737 61.9567 18.6476C60.558 18.6189 59.2706 18.7726 58.2541 19.0524C57.2446 18.3801 55.3447 17.9029 53.1597 17.8585C51.2873 17.8193 49.6151 18.1075 48.5269 18.5877C47.1675 18.505 45.9545 18.4589 45.3275 18.4454C43.625 18.4113 42.1964 18.8636 41.838 19.4981C41.0248 19.8097 40.4279 20.7294 40.4105 21.8286C40.3991 22.5761 40.6589 23.2501 41.0789 23.7151C41.0784 23.7154 41.0784 23.7157 41.0784 23.7157C41.0655 24.5449 44.0274 25.9538 45.9762 25.994C47.1685 26.0179 48.2252 25.7873 48.8693 25.4152C49.9311 25.831 51.4031 26.1048 53.0326 26.1381C54.8617 26.1758 56.5011 25.902 57.5906 25.4421C58.9927 26.1567 61.3655 26.6549 64.0643 26.71C67.7366 26.7849 70.8324 26.0155 71.7049 24.9074C72.6338 24.6938 73.3458 23.7052 73.3639 22.5039C73.3851 21.1617 72.5323 20.0533 71.4469 19.9811Z" fill="#945E41"/>
<path opacity="0.5" d="M42.9054 23.9611C42.9217 22.8613 43.5189 21.9422 44.3334 21.6303C44.6908 20.9958 46.119 20.5434 47.8215 20.5782C48.4488 20.5911 49.6621 20.6366 51.0207 20.7199C52.1092 20.24 53.7819 19.9518 55.6538 19.9904C57.8388 20.0344 59.7384 20.5129 60.7482 21.1854C61.7644 20.9053 63.0518 20.7516 64.4515 20.7801C65.7014 20.8056 66.858 20.9727 67.8079 21.237C68.295 21.1995 68.8052 21.1833 69.333 21.1944C70.8115 21.225 72.1579 21.4536 73.1882 21.808C73.1915 21.7531 73.1957 21.6986 73.1959 21.6438C73.2172 20.302 72.3641 19.1935 71.279 19.121C70.206 18.5973 68.5431 18.2405 66.6702 18.2022C66.1429 18.192 65.6322 18.2064 65.1453 18.2447C64.1949 17.9802 63.0393 17.8133 61.7885 17.7873C60.39 17.7588 59.1024 17.9125 58.0859 18.1923C57.0764 17.5201 55.1768 17.0428 52.9918 16.9985C51.1191 16.9589 49.4472 17.2474 48.3589 17.7277C46.9996 17.645 45.7865 17.5988 45.1593 17.5851C43.457 17.5512 42.0285 18.0036 41.67 18.6381C40.8569 18.9497 40.2597 19.8694 40.2426 20.9685C40.2309 21.716 40.4909 22.3901 40.9107 22.8547C40.9102 22.855 40.9102 22.8553 40.9102 22.8553C40.9035 23.3128 41.8019 23.9464 42.9354 24.4302C42.9147 24.2771 42.903 24.1213 42.9054 23.9611Z" fill="#945E41"/>
<g opacity="0.5">
<path d="M44.526 23.7217C44.3693 23.9653 44.2716 24.2897 44.189 24.5755C44.1784 24.6121 44.2261 24.6333 44.2372 24.5971C44.3271 24.3053 44.4817 24.0363 44.5573 23.7421C44.5635 23.7196 44.5387 23.7019 44.526 23.7217Z" fill="#945E41"/>
<path d="M45.5408 22.8601C45.2056 23.5156 44.7985 24.2897 44.7229 25.0564C44.7188 25.0959 44.768 25.0995 44.7744 25.0626C44.9184 24.2673 45.4175 23.6618 45.5975 22.8964C45.6063 22.858 45.561 22.8206 45.5408 22.8601Z" fill="#945E41"/>
<path d="M46.1556 23.7639C45.9797 24.0937 45.8251 24.4814 45.7777 24.867C45.772 24.9122 45.8321 24.9185 45.8386 24.8736C45.8958 24.4796 46.1071 24.1683 46.2004 23.7927C46.2079 23.7621 46.1719 23.733 46.1556 23.7639Z" fill="#945E41"/>
<path d="M46.8556 24.3749C46.7479 24.4993 46.7168 24.6916 46.6702 24.8537C46.6544 24.9094 46.7284 24.9423 46.7435 24.8863C46.7888 24.7237 46.846 24.5679 46.8929 24.4064C46.9001 24.3827 46.874 24.354 46.8556 24.3749Z" fill="#945E41"/>
<path d="M47.8643 22.337C47.7081 22.5353 47.5649 22.802 47.4906 23.0563C47.475 23.109 47.5434 23.1396 47.5608 23.0875C47.6048 22.9511 47.6677 22.8301 47.74 22.7118C47.806 22.6045 47.8865 22.5015 47.928 22.3771C47.943 22.3298 47.8907 22.3031 47.8643 22.337Z" fill="#945E41"/>
<path d="M49.1073 22.812C48.6429 23.3555 48.3593 24.2153 48.2661 24.9603C48.2589 25.0188 48.336 25.0269 48.3443 24.9693C48.4637 24.1715 48.832 23.5478 49.1479 22.8459C49.1593 22.8198 49.1251 22.7914 49.1073 22.812Z" fill="#945E41"/>
<path d="M49.8847 24.1402C49.7247 24.3175 49.6092 24.5656 49.5237 24.8014C49.4986 24.8715 49.5937 24.9134 49.6185 24.8436C49.7032 24.6099 49.8573 24.4119 49.9189 24.1692C49.9246 24.1474 49.9018 24.121 49.8847 24.1402Z" fill="#945E41"/>
<path d="M50.8611 24.4728C50.7521 24.6951 50.685 24.9492 50.6042 25.1867C50.5876 25.2359 50.6534 25.2652 50.6705 25.2161C50.7523 24.983 50.8552 24.7475 50.908 24.5025C50.9145 24.4716 50.8777 24.4396 50.8611 24.4728Z" fill="#945E41"/>
<path d="M51.277 22.4242C51.0786 22.5437 50.959 22.8322 50.8497 23.0455C50.8246 23.0943 50.8859 23.1474 50.9113 23.0982C50.9688 22.9886 51.0265 22.8801 51.09 22.7753C51.1563 22.6659 51.2392 22.5776 51.314 22.4778C51.3342 22.4511 51.3037 22.408 51.277 22.4242Z" fill="#945E41"/>
<path d="M52.4535 24.284C52.3144 24.5338 52.2393 24.9023 52.2344 25.1974C52.2334 25.2513 52.3051 25.2603 52.3066 25.2055C52.3118 25.0285 52.346 24.8625 52.3952 24.6953C52.4328 24.5671 52.4915 24.4407 52.5016 24.3053C52.5042 24.2759 52.4685 24.257 52.4535 24.284Z" fill="#945E41"/>
<path d="M53.0783 22.2378C52.8025 22.4047 52.6083 22.7981 52.4412 23.0893C52.4107 23.1429 52.4796 23.2019 52.5106 23.1486C52.5992 22.9976 52.6904 22.8493 52.7885 22.7064C52.8898 22.5599 53.0159 22.4368 53.1117 22.2864C53.1278 22.2612 53.1034 22.2226 53.0783 22.2378Z" fill="#945E41"/>
<path d="M53.8058 23.9146C53.7182 24.1213 53.66 24.3553 53.5851 24.5701C53.5662 24.6249 53.6393 24.6567 53.6584 24.6027C53.7322 24.3933 53.8537 24.1585 53.8482 23.9263C53.8477 23.8972 53.8172 23.8876 53.8058 23.9146Z" fill="#945E41"/>
<path d="M54.5534 22.0536C54.4156 22.1049 54.3245 22.275 54.2085 22.3703C54.1631 22.4077 54.2175 22.4859 54.2626 22.4485C54.3763 22.3538 54.4977 22.2247 54.5811 22.0941C54.5961 22.0704 54.5741 22.0461 54.5534 22.0536Z" fill="#945E41"/>
<path d="M55.6568 22.0945C55.5315 22.1811 55.439 22.3255 55.3419 22.4498C55.2254 22.5987 55.1101 22.7491 54.9889 22.8929C54.9532 22.9355 55.0027 23.0085 55.0394 22.9657C55.1435 22.8453 55.2438 22.721 55.3437 22.5957C55.4595 22.4513 55.6056 22.3144 55.6918 22.1443C55.7042 22.1197 55.6843 22.0754 55.6568 22.0945Z" fill="#945E41"/>
<path d="M56.1353 22.6244C55.6442 23.35 55.2744 24.2113 54.9341 25.0415C54.91 25.0999 54.9908 25.1349 55.0144 25.0774C55.3607 24.2398 55.7825 23.4669 56.186 22.6676C56.2065 22.6277 56.1609 22.5864 56.1353 22.6244Z" fill="#945E41"/>
<path d="M56.8736 23.2436C56.6503 23.6247 56.4452 24.0543 56.2779 24.4725C56.253 24.5348 56.339 24.5728 56.3639 24.5108C56.5289 24.0962 56.8117 23.7136 56.9168 23.2712C56.9238 23.2418 56.8904 23.2151 56.8736 23.2436Z" fill="#945E41"/>
<path d="M57.9883 23.2961C57.7982 23.5346 57.6504 23.8293 57.4957 24.099C57.4815 24.1241 57.5136 24.152 57.5284 24.1268C57.6863 23.8542 57.8596 23.5933 58.0178 23.3213C58.0311 23.2979 58.0041 23.2763 57.9883 23.2961Z" fill="#945E41"/>
<path d="M60.1468 23.6221C59.8241 24.0727 59.7197 24.6772 59.3258 25.073C59.2895 25.1095 59.3349 25.1754 59.3729 25.1407C59.7578 24.7869 60.0183 24.1733 60.1918 23.6509C60.2027 23.6179 60.1649 23.5966 60.1468 23.6221Z" fill="#945E41"/>
<path d="M61.0435 24.3306C60.8042 24.6497 60.5926 25.0197 60.379 25.363C60.3487 25.4115 60.4134 25.4669 60.4437 25.4184C60.6574 25.0769 60.943 24.7482 61.0917 24.3615C61.1054 24.3261 61.0629 24.3045 61.0435 24.3306Z" fill="#945E41"/>
<path d="M59.5485 22.2806C59.3672 22.2874 59.1983 22.4675 59.0761 22.6065C59.0372 22.6514 59.0901 22.7293 59.1302 22.685C59.2628 22.5367 59.4089 22.4513 59.5655 22.3456C59.5956 22.3255 59.5826 22.2791 59.5485 22.2806Z" fill="#945E41"/>
<path d="M63.104 22.6649C62.8547 22.7745 62.6697 23.096 62.512 23.3302C62.4822 23.3746 62.5418 23.4246 62.5721 23.3818C62.6622 23.2547 62.7529 23.1292 62.8526 23.0127C62.9435 22.9066 63.0504 22.8228 63.1367 22.7122C63.1558 22.6867 63.1271 22.6544 63.104 22.6649Z" fill="#945E41"/>
<path d="M62.8499 24.9404C62.7003 25.0614 62.5765 25.2229 62.4307 25.3514C62.3861 25.3903 62.4405 25.4688 62.4848 25.4296C62.6306 25.2996 62.7818 25.1588 62.8885 24.9832C62.9064 24.9532 62.8748 24.9206 62.8499 24.9404Z" fill="#945E41"/>
<path d="M64.8599 25.0258C64.6636 25.1237 64.4777 25.2301 64.2718 25.3014C64.0848 25.3661 63.8939 25.4134 63.7082 25.4826C63.6502 25.5042 63.6896 25.6022 63.7466 25.5818C64.1195 25.4476 64.6147 25.4266 64.8982 25.0809C64.9213 25.053 64.8866 25.0126 64.8599 25.0258Z" fill="#945E41"/>
<path d="M64.5701 23.4745C64.501 23.5437 64.4543 23.6399 64.3974 23.722C64.3217 23.8304 64.2352 23.9284 64.15 24.0266C64.1115 24.0719 64.1651 24.1501 64.2044 24.1048C64.3453 23.9416 64.56 23.7396 64.6105 23.509C64.6162 23.4823 64.5916 23.4529 64.5701 23.4745Z" fill="#945E41"/>
<path d="M64.9905 22.5096C64.8784 22.53 64.7629 22.6097 64.6803 22.6972C64.635 22.7451 64.6943 22.8317 64.7401 22.7838C64.8235 22.6966 64.938 22.6693 65.019 22.5842C65.0457 22.5564 65.0283 22.5027 64.9905 22.5096Z" fill="#945E41"/>
<path d="M66.8491 23.4588C66.6414 23.6517 66.4625 23.9151 66.3413 24.1886C66.3136 24.2512 66.4011 24.2883 66.4291 24.2272C66.5534 23.9555 66.7474 23.7635 66.9108 23.5277C66.9421 23.4825 66.887 23.424 66.8491 23.4588Z" fill="#945E41"/>
<path d="M67.1387 24.6909C66.9737 24.8772 66.8329 25.0929 66.6726 25.2855C66.5115 25.4791 66.3369 25.6567 66.1564 25.8257C66.1139 25.8655 66.166 25.9401 66.209 25.9018C66.5648 25.5857 66.9654 25.2082 67.1975 24.7565C67.2198 24.7133 67.1744 24.6507 67.1387 24.6909Z" fill="#945E41"/>
<path d="M68.9101 23.274C68.8164 23.3114 68.7483 23.4235 68.6789 23.5034C68.5988 23.5954 68.5191 23.6874 68.4391 23.7797C68.3896 23.8366 68.4577 23.9357 68.5077 23.8782C68.5872 23.7856 68.6667 23.6937 68.7467 23.6008C68.8179 23.5184 68.9205 23.4342 68.9539 23.3219C68.9635 23.2892 68.9366 23.2632 68.9101 23.274Z" fill="#945E41"/>
<path d="M68.7336 24.6917C68.6368 24.7816 68.5565 24.8978 68.4731 25.0035C68.3695 25.1354 68.261 25.2624 68.153 25.39C68.1064 25.4454 68.1698 25.5407 68.219 25.4853C68.4153 25.2636 68.6704 25.0314 68.7966 24.7444C68.8152 24.7016 68.7629 24.6644 68.7336 24.6917Z" fill="#945E41"/>
<path d="M70.4084 24.0236C70.3284 24.1146 70.26 24.2159 70.1743 24.301C70.0715 24.4031 69.956 24.4882 69.8405 24.5691C69.7734 24.6158 69.8229 24.7465 69.8902 24.6991C70.0971 24.5544 70.3968 24.3663 70.4817 24.0856C70.4962 24.0382 70.4436 23.9831 70.4084 24.0236Z" fill="#945E41"/>
<path d="M71.0818 22.9279C70.9163 22.9845 70.7694 23.1131 70.6161 23.2035C70.5537 23.2404 70.5977 23.356 70.6607 23.3189C70.8129 23.2293 70.98 23.1373 71.1157 23.0163C71.1478 22.9875 71.1245 22.9132 71.0818 22.9279Z" fill="#945E41"/>
<path d="M71.8977 23.644C71.6794 23.878 71.5183 24.2096 71.235 24.354C71.1861 24.3789 71.2192 24.4562 71.2677 24.4388C71.4319 24.3813 71.5771 24.2512 71.7017 24.1191C71.7077 24.1128 71.7149 24.1053 71.7209 24.0988C71.7356 24.111 71.7566 24.1143 71.774 24.0925L71.891 23.946C71.9016 23.9328 71.8985 23.9172 71.8908 23.9049C71.9335 23.8492 71.9723 23.7911 71.9977 23.7285C72.0249 23.6629 71.9441 23.5943 71.8977 23.644Z" fill="#945E41"/>
</g>
<path d="M63.6808 19.3832C60.0748 19.9348 49.7763 24.8132 49.7763 24.8132L44.5387 21.8299C42.8079 20.5942 41.4861 19.989 41.5001 19.0708L41.5068 18.6837C41.5206 17.7652 42.6023 17.0426 43.9221 17.0696L68.902 17.5816C70.2218 17.6085 71.2807 18.3752 71.2665 19.2937C71.2665 19.2937 64.9897 19.1831 63.6808 19.3832Z" fill="#EEBE30"/>
<path d="M41.7167 12.3745C41.7167 12.3745 41.1788 13.5962 40.8621 14.1346C40.2659 15.1462 39.1803 18.0633 39.2979 19.7316C39.4157 21.4003 39.783 23.9869 40.425 23.8335C41.031 23.69 41.1307 20.8005 41.9643 20.4366C42.7993 20.0729 43.7963 21.705 44.4231 21.5028C44.7372 21.4018 45.057 20.2116 45.3077 19.8557C45.951 18.9362 47.659 18.2712 48.4794 18.2853C48.9632 18.2933 49.8688 19.0034 50.3249 19.2766C51.1226 19.7511 53.7727 22.2469 55.0375 21.3155C55.7611 20.7838 57.8619 16.2781 58.6249 16.5312C59.3099 16.7583 60.2054 19.4357 60.8412 19.4911C61.6839 19.5639 63.3111 18.3572 64.1522 18.225C64.7987 18.125 66.0726 18.7739 66.7203 18.7862C67.3195 18.7987 68.3153 18.657 68.8975 18.8997C69.3927 19.1061 70.2343 19.8599 70.651 20.3748C71.2355 21.098 73.0111 22.0489 73.4881 21.0831C73.787 20.4794 73.7176 18.5965 73.7176 18.5965C73.7176 18.5965 74.5885 17.7277 74.2156 16.3814C73.8929 15.216 70.7189 12.6271 70.7189 12.6271L45.2482 13.1453L41.7167 12.3745Z" fill="#5F825C"/>
<path d="M74.3961 17.6412C74.2537 17.1274 73.5557 16.3359 72.82 15.6118C72.6454 16.0501 72.3955 16.3023 72.3955 16.3023C72.3955 16.3023 72.4647 18.1858 72.1663 18.7898C71.6896 19.7553 69.9137 18.8038 69.329 18.0812C68.9138 17.5666 68.0711 16.8128 67.5765 16.6064C66.9946 16.3631 65.9988 16.5048 65.3987 16.4926C64.751 16.4791 63.4781 15.8317 62.8307 15.9329C61.9895 16.0645 60.3626 17.2709 59.5202 17.1975C58.8854 17.1418 57.9889 14.4635 57.3033 14.237C56.5412 13.9848 54.4396 18.4887 53.7162 19.0213C52.4511 19.953 49.8018 17.4575 49.0039 16.9815C48.5476 16.7098 47.643 16.0004 47.1587 15.9914C46.7982 15.9854 46.2662 16.1103 45.7283 16.3305C45.4958 16.1642 45.235 16.0579 44.9895 16.1969C44.7644 16.3245 44.571 16.5013 44.4099 16.7262C44.2988 16.8817 44.1846 17.0282 44.052 17.1597C43.6658 17.5438 43.5104 16.8778 43.4387 16.5678C43.4136 16.4608 43.3084 16.427 43.2442 16.5132C42.7907 17.1217 42.7902 17.9566 42.4618 18.6355C42.0029 17.9105 41.6702 17.1043 41.53 16.2139C41.513 16.1058 41.4047 16.089 41.3467 16.1624C40.2717 17.53 39.3355 19.1133 39.0519 20.9638C38.7862 22.6981 39.4302 24.303 40.5304 25.4522C40.5604 25.4836 40.6218 25.4635 40.6322 25.4177C40.6601 25.2916 40.6834 25.1664 40.7036 25.0414C41.2239 24.6271 41.3583 22.0402 42.1451 21.6969C42.9793 21.3341 43.9766 22.9653 44.6031 22.7637C44.9175 22.6621 45.2378 21.4722 45.488 21.1154C46.1313 20.1972 47.8403 19.5312 48.66 19.5453C49.144 19.554 50.0491 20.264 50.5057 20.5366C51.3031 21.0115 53.9524 23.5076 55.2183 22.5753C55.9411 22.0435 58.0417 17.5381 58.8054 17.7919C59.4904 18.0177 60.863 22.3296 61.4983 22.3856C62.3407 22.4587 63.3585 20.5411 64.2007 20.4093C64.8468 20.3098 66.2526 20.0336 66.9003 20.0465C67.5001 20.0591 68.4961 19.9171 69.078 20.1594C69.5729 20.3665 70.4149 21.1208 70.8308 21.6358C71.415 22.3584 73.1914 23.3092 73.6684 22.344C73.9667 21.74 73.8976 19.856 73.8976 19.856C73.8976 19.856 74.7685 18.9869 74.3961 17.6412Z" fill="#8DB54F"/>
<path d="M71.3911 13.8909C71.993 13.6507 71.7342 12.6902 71.6019 12.1024C70.1488 5.68718 64.9506 0.138021 56.4589 0.00261008C47.9671 -0.1334 40.9788 5.06315 40.8509 11.6105C40.839 12.219 40.7812 13.3574 41.3732 13.615C46.8289 15.9961 62.7928 17.3223 71.3911 13.8909Z" fill="#F0A508"/>
<path d="M51.4853 6.51965C51.3245 6.86447 51.0471 7.09725 50.8645 7.03943C50.6817 6.98161 50.6638 6.65506 50.8249 6.31024C50.9852 5.96572 51.2628 5.73295 51.4457 5.79047C51.628 5.84829 51.6461 6.17423 51.4853 6.51965Z" fill="#E7D8C8"/>
<path d="M53.7473 7.81818C53.7049 8.18188 53.5091 8.47456 53.3107 8.47306C53.1126 8.47216 52.9854 8.17648 53.0276 7.81429C53.0698 7.4512 53.2656 7.1576 53.4637 7.1582C53.6629 7.1597 53.7895 7.45509 53.7473 7.81818Z" fill="#E7D8C8"/>
<path d="M55.5982 5.44535C55.6045 5.80574 55.4475 6.11521 55.2476 6.13738C55.0484 6.15895 54.8811 5.88394 54.8752 5.52354C54.869 5.16285 55.0256 4.85308 55.2251 4.83151C55.425 4.80994 55.5925 5.08465 55.5982 5.44535Z" fill="#E7D8C8"/>
<path d="M49.2894 6.46433C49.0885 6.79386 48.7855 6.99728 48.614 6.91969C48.4428 6.84209 48.4669 6.51136 48.6694 6.18272C48.8701 5.85438 49.1734 5.65036 49.3448 5.72825C49.5163 5.80644 49.4917 6.13628 49.2894 6.46433Z" fill="#E7D8C8"/>
<path d="M57.1642 3.57585C57.2211 3.92816 57.1072 4.25021 56.9099 4.29515C56.711 4.33979 56.5048 4.09083 56.4484 3.73912C56.3914 3.38711 56.5043 3.06506 56.7024 3.01983C56.9 2.97519 57.1067 3.22415 57.1642 3.57585Z" fill="#E7D8C8"/>
<path d="M59.0865 5.85598C59.1435 6.20859 59.03 6.53034 58.8317 6.57527C58.6348 6.62021 58.4276 6.37126 58.3702 6.01925C58.3129 5.66725 58.4282 5.34519 58.6253 5.30085C58.8226 5.25502 59.0287 5.50367 59.0865 5.85598Z" fill="#E7D8C8"/>
<path d="M60.5421 2.67293C60.7485 2.96173 60.777 3.28678 60.6064 3.39882C60.4367 3.51026 60.1311 3.36676 59.9252 3.07826C59.7199 2.78947 59.6906 2.46502 59.8608 2.35357C60.0312 2.24153 60.3365 2.38473 60.5421 2.67293Z" fill="#E7D8C8"/>
<path d="M62.2229 5.97308C62.2799 6.32509 62.1659 6.64744 61.9678 6.69268C61.771 6.73702 61.5635 6.48806 61.5066 6.13695C61.4504 5.78465 61.5638 5.4623 61.7609 5.41767C61.9593 5.37243 62.1662 5.62107 62.2229 5.97308Z" fill="#E7D8C8"/>
<path d="M64.4806 8.44482C64.5383 8.79713 64.4241 9.11888 64.2263 9.16382C64.0287 9.20875 63.8222 8.95951 63.7648 8.6081C63.7078 8.25609 63.8207 7.93433 64.0188 7.8894C64.2175 7.84386 64.4239 8.09341 64.4806 8.44482Z" fill="#E7D8C8"/>
<path d="M60.7159 8.60325C60.8218 8.94178 60.7527 9.27042 60.5595 9.33783C60.3673 9.40493 60.1247 9.18534 60.0188 8.84741C59.9121 8.51038 59.9817 8.18084 60.1744 8.11374C60.3668 8.04633 60.61 8.26563 60.7159 8.60325Z" fill="#E7D8C8"/>
<path d="M65.6177 5.56229C65.8172 5.85469 65.8399 6.18034 65.6672 6.28909C65.4955 6.39843 65.1938 6.24983 64.9936 5.95744C64.7942 5.66445 64.7719 5.33911 64.9436 5.22946C65.1158 5.12071 65.4175 5.2693 65.6177 5.56229Z" fill="#E7D8C8"/>
<path d="M63.9529 3.27978C64.2158 3.52454 64.3083 3.83341 64.1591 3.96942C64.0099 4.10513 63.6766 4.01735 63.414 3.77319C63.1509 3.52843 63.0592 3.21896 63.2079 3.08355C63.357 2.94754 63.6906 3.03532 63.9529 3.27978Z" fill="#E7D8C8"/>
<path d="M67.8519 8.10759C68.1137 8.35205 68.2067 8.66092 68.057 8.79753C67.9086 8.93324 67.5748 8.84546 67.3119 8.60041C67.0493 8.35625 66.9579 8.04738 67.106 7.91107C67.2562 7.77476 67.589 7.86283 67.8519 8.10759Z" fill="#E7D8C8"/>
<path d="M56.8459 8.36296C56.8892 8.63169 56.8024 8.87734 56.6517 8.91089C56.501 8.94594 56.344 8.75571 56.3005 8.48819C56.2565 8.21946 56.3432 7.9747 56.494 7.93995C56.6447 7.90609 56.8024 8.09573 56.8459 8.36296Z" fill="#E7D8C8"/>
<path d="M53.3643 4.11355C53.1928 4.35591 52.9528 4.49642 52.8284 4.42841C52.7026 4.36041 52.7401 4.10936 52.9108 3.8679C53.082 3.62523 53.3215 3.48443 53.4466 3.55213C53.5722 3.61984 53.5352 3.87178 53.3643 4.11355Z" fill="#E7D8C8"/>
<path d="M71.1438 10.4746C68.3139 11.5001 64.9312 12.0983 61.2935 12.0983C52.9529 12.0983 45.9413 8.96171 43.9097 4.70825C42.0349 6.63187 40.9019 9.01444 40.8509 11.6109C40.839 12.2194 40.7812 13.3578 41.3732 13.6154C46.8291 15.9959 62.7933 17.3221 71.3914 13.891C71.9932 13.6508 71.7345 12.6903 71.6022 12.1025C71.4771 11.5525 71.3227 11.0091 71.1438 10.4746Z" fill="#DA840D"/>
</svg>
