<svg width="78" height="40" viewBox="0 0 78 40" fill="none" xmlns="http://www.w3.org/2000/svg">
<path d="M0.632025 37.5481L0.628595 37.5955C0.563565 38.5526 1.39013 39.3284 2.33991 39.1955C7.94333 38.4117 25.53 35.9355 43.5724 33.2253C53.9698 31.6635 69.982 28.74 75.2266 27.7725C76.2306 27.5871 76.9545 26.7132 76.9545 25.6921V24.9808C76.9545 24.9808 56.7176 20.9757 42.7076 24.0738C28.6982 27.1713 0.632025 37.5481 0.632025 37.5481Z" fill="#DC6E10"/>
<path d="M40.6337 2.59155C40.6337 2.59155 28.6066 11.0694 19.532 19.0732C11.6349 26.0389 0.632812 37.5475 0.632812 37.5475C0.632812 37.5475 15.1762 35.2041 35.6173 32.3023C48.3791 30.4906 76.9552 24.9796 76.9552 24.9796C76.9552 24.9796 68.8259 17.4515 60.6966 12.2765C50.4652 5.76319 40.6337 2.59155 40.6337 2.59155Z" fill="url(#paint0_linear_510_15354)"/>
<path d="M32.4743 32.9731C32.7373 31.9851 32.7504 27.8682 31.2992 26.405C29.848 24.9419 26.5503 23.6088 26.3444 23.643C26.3444 23.643 24.604 26.777 23.2344 30.6548C24.7546 30.4204 25.9286 30.3468 26.3444 30.4979C28.0061 31.1026 27.8555 34.1294 29.0437 34.8013C29.9844 35.3336 30.3192 34.9519 30.8697 34.1294C31.0688 33.831 31.7972 33.7146 31.791 34.6644C31.7864 35.325 31.4812 37.4254 33.1144 37.1413C33.1897 37.1282 33.2564 37.1048 33.3249 37.0842C31.5839 37.1339 32.2119 33.9605 32.4743 32.9731Z" fill="#FCDA80"/>
<path opacity="0.7" d="M32.4743 32.9731C32.7373 31.9851 32.7504 27.8682 31.2992 26.405C29.848 24.9419 26.5503 23.6088 26.3444 23.643C26.3444 23.643 24.604 26.777 23.2344 30.6548C24.7546 30.4204 25.9286 30.3468 26.3444 30.4979C28.0061 31.1026 27.8555 34.1294 29.0437 34.8013C29.9844 35.3336 30.3192 34.9519 30.8697 34.1294C31.0688 33.831 31.7972 33.7146 31.791 34.6644C31.7864 35.325 31.4812 37.4254 33.1144 37.1413C33.1897 37.1282 33.2564 37.1048 33.3249 37.0842C31.5839 37.1339 32.2119 33.9605 32.4743 32.9731Z" fill="url(#paint1_linear_510_15354)"/>
<path d="M9.08337 36.495C9.24537 34.9856 8.00524 33.4757 7.1068 32.2281C6.68467 31.6417 6.66071 30.9475 6.75256 30.3748C6.34811 30.9366 6.19181 31.3274 6.02296 31.6908C5.72576 32.3291 7.05774 33.3239 7.83639 34.9531C8.02064 35.3393 8.16667 36.2058 8.09765 37.0831C7.95219 38.9159 8.00581 39.9998 9.46157 39.9998C10.1147 39.9998 10.5808 39.7043 10.8934 39.2103C8.22771 40.2536 8.92193 38.0044 9.08337 36.495Z" fill="#FCDA80"/>
<path opacity="0.7" d="M9.08337 36.495C9.24537 34.9856 8.00524 33.4757 7.1068 32.2281C6.68467 31.6417 6.66071 30.9475 6.75256 30.3748C6.34811 30.9366 6.19181 31.3274 6.02296 31.6908C5.72576 32.3291 7.05774 33.3239 7.83639 34.9531C8.02064 35.3393 8.16667 36.2058 8.09765 37.0831C7.95219 38.9159 8.00581 39.9998 9.46157 39.9998C10.1147 39.9998 10.5808 39.7043 10.8934 39.2103C8.22771 40.2536 8.92193 38.0044 9.08337 36.495Z" fill="url(#paint2_linear_510_15354)"/>
<path d="M25.744 19.6711C26.2666 22.905 30.809 24.9312 33.3286 25.246C35.8477 25.5615 39.1294 24.5484 39.1294 24.5484L28.5244 14.1196C27.6847 14.7129 25.221 16.4373 25.744 19.6711Z" fill="#FCDA80"/>
<path opacity="0.7" d="M25.744 19.6711C26.2666 22.905 30.809 24.9312 33.3286 25.246C35.8477 25.5615 39.1294 24.5484 39.1294 24.5484L28.5244 14.1196C27.6847 14.7129 25.221 16.4373 25.744 19.6711Z" fill="url(#paint3_linear_510_15354)"/>
<path d="M51.8126 19.7822C49.4104 19.1284 48.6466 15.3213 48.443 13.8958C47.69 13.0379 46.5639 12.6368 45.2719 12.4189C42.6587 13.217 36.7364 12.8291 36.5351 10.5125C36.4079 9.04993 35.8357 8.01743 35.332 7.37113C33.9247 7.03286 32.3595 7.83318 31.1923 8.57019C29.6767 9.52681 22.2319 14.8205 19.2531 17.7286C17.0112 19.9174 9.90071 27.1146 8.22647 28.7312C7.50487 29.4277 7.06106 29.9485 6.75474 30.3741C6.6629 30.9474 6.68686 31.6416 7.10898 32.2274C8.00742 33.475 9.24756 34.9844 9.08555 36.4943C8.92412 38.0037 8.22989 40.2529 10.895 39.2096C11.434 38.3585 11.5145 36.9147 11.292 35.3512C11.0285 33.4989 18.686 31.3569 23.2376 30.6553C24.6072 26.7775 26.3476 23.6435 26.3476 23.6435C26.5535 23.6092 29.8512 24.9418 31.3024 26.4055C32.7536 27.8687 32.7405 31.9856 32.4775 32.9736C32.2146 33.961 31.5871 37.1343 33.3281 37.0853C34.9458 36.5947 34.6492 34.0426 34.5123 32.3255C34.3691 30.5361 48.6443 24.5567 50.6323 24.8984C52.6209 25.2407 58.8592 26.6611 59.9322 25.4854C60.3155 25.0656 60.3309 24.433 60.0925 23.761C60.0024 23.6691 59.9191 23.5659 59.8495 23.4415C58.4513 20.955 54.7788 20.5899 51.8126 19.7822ZM33.3298 25.2464C30.8107 24.9309 26.2683 22.9053 25.7452 19.6715C25.2227 16.4377 27.6858 14.7132 28.525 14.12L39.13 24.5488C39.13 24.5488 35.8494 25.5619 33.3298 25.2464Z" fill="#FCDA80"/>
<path d="M45.2719 12.4196C43.9633 12.1995 42.4899 12.1612 41.0724 12.0158C37.9309 11.694 37.1341 8.5418 36.5351 8.00672C36.158 7.67017 35.7519 7.47279 35.332 7.37183C35.8357 8.01813 36.4079 9.05063 36.5351 10.5132C36.7365 12.8298 42.6587 13.2177 45.2719 12.4196Z" fill="#FCDA80"/>
<path opacity="0.7" d="M45.2719 12.4196C43.9633 12.1995 42.4899 12.1612 41.0724 12.0158C37.9309 11.694 37.1341 8.5418 36.5351 8.00672C36.158 7.67017 35.7519 7.47279 35.332 7.37183C35.8357 8.01813 36.4079 9.05063 36.5351 10.5132C36.7365 12.8298 42.6587 13.2177 45.2719 12.4196Z" fill="url(#paint4_linear_510_15354)"/>
<path d="M56.8845 20.7332C54.5348 19.9968 50.1778 17.0002 48.9057 14.5628C48.7745 14.3118 48.6154 14.095 48.4414 13.8965C48.6451 15.322 49.4089 19.1291 51.811 19.7828C54.7773 20.59 58.4497 20.9557 59.8485 23.4416C59.9186 23.566 60.0019 23.6692 60.0915 23.7611C59.6619 22.5495 58.3956 21.2067 56.8845 20.7332Z" fill="#FCDA80"/>
<path opacity="0.7" d="M56.8845 20.7332C54.5348 19.9968 50.1778 17.0002 48.9057 14.5628C48.7745 14.3118 48.6154 14.095 48.4414 13.8965C48.6451 15.322 49.4089 19.1291 51.811 19.7828C54.7773 20.59 58.4497 20.9557 59.8485 23.4416C59.9186 23.566 60.0019 23.6692 60.0915 23.7611C59.6619 22.5495 58.3956 21.2067 56.8845 20.7332Z" fill="url(#paint5_linear_510_15354)"/>
<path d="M32.9103 8.85277C32.3992 8.65369 31.6593 8.84707 30.8778 9.37872C29.8773 10.0598 29.1711 11.0706 28.2812 11.8738C27.0313 13.0016 25.5431 13.7386 24.1272 14.6199C23.1951 15.2 20.7189 16.5377 20.9893 17.9986C21.1421 18.8229 21.8615 19.0893 22.6127 18.8685C23.3851 18.6409 23.6829 17.8343 24.0833 17.2382C25.0873 15.7437 26.4016 15.0283 28.0136 14.3741C29.1129 13.9285 36.6963 10.3296 32.9103 8.85277Z" fill="url(#paint6_linear_510_15354)"/>
<path d="M32.6475 9.64049C31.1632 8.97422 29.894 11.2292 28.8837 12.0415C27.1701 13.4185 24.6374 14.1954 23.4155 16.071C23.3185 16.2205 23.4834 16.4647 23.6619 16.3916C24.2398 16.1566 24.4617 15.7607 24.9117 15.3369C25.8033 14.4966 26.7451 13.7722 27.8872 13.3563C28.9704 12.9616 29.7519 12.8931 30.9926 12.1367C31.615 11.7574 32.7011 11.2617 32.8135 10.4807C32.8694 10.0849 32.8802 9.74488 32.6475 9.64049Z" fill="white"/>
<path d="M20.0228 19.1229C18.9989 18.921 16.8153 20.7327 17.0081 22.3003C17.1604 23.537 19.2191 21.7098 19.55 21.4423C19.9818 21.0938 20.6127 20.7053 20.7296 20.1132C20.8255 19.6295 20.4963 19.2165 20.0228 19.1229Z" fill="url(#paint7_linear_510_15354)"/>
<path d="M9.76016 30.0271C9.95183 29.6802 10.2188 29.0602 9.80066 28.7704C9.06137 28.2581 6.95018 30.2763 7.69004 31.8508C7.90567 32.3094 8.77901 33.5569 9.11785 32.2124C9.20057 31.8833 8.98095 31.5747 9.0591 31.2067C9.1498 30.7806 9.55423 30.3996 9.76016 30.0271Z" fill="url(#paint8_linear_510_15354)"/>
<path d="M9.92637 34.801C9.58639 34.8016 9.42381 35.1073 9.38845 35.4091C9.33083 35.898 9.44321 37.4056 9.41754 37.6013C9.36963 37.9675 9.28178 38.4473 9.62746 38.7062C10.4398 39.3149 10.7877 37.7023 10.7957 37.2088C10.8043 36.6544 10.7489 34.7993 9.92637 34.801Z" fill="url(#paint9_linear_510_15354)"/>
<path d="M34.0699 32.5676C33.9512 31.9715 33.1007 31.9116 33.225 32.7866C33.3117 33.3987 33.1646 33.9606 33.0705 34.4888C33.0083 34.8385 32.3979 36.0906 32.8679 36.5726C33.1195 36.831 33.5086 36.689 33.7327 36.4745C34.095 36.1282 34.1252 35.5652 34.1343 35.0969C34.1486 34.353 34.2153 33.2994 34.0699 32.5676Z" fill="url(#paint10_linear_510_15354)"/>
<path d="M58.664 22.7628C58.3611 22.303 56.5985 21.4382 55.465 21.384C54.469 21.3361 53.7503 21.8837 54.1456 22.3749C54.4776 22.7867 55.2357 23.1558 55.6253 23.4422C56.2368 23.8911 56.7879 24.7987 57.5557 24.9881C58.8671 25.3115 59.2305 23.6213 58.664 22.7628Z" fill="url(#paint11_linear_510_15354)"/>
<path opacity="0.7" d="M18.8744 23.3847C18.8744 23.3847 17.8003 23.0504 16.9994 23.7612C16.1979 24.4719 15.6184 24.8678 14.0485 25.5056C12.4781 26.1433 10.416 27.4337 11.1239 29.2414C11.8312 31.0491 20.0575 26.7469 20.0974 25.8524C20.1368 24.958 18.8744 23.3847 18.8744 23.3847Z" fill="url(#paint12_linear_510_15354)"/>
<path d="M26.4961 18.3036C26.4961 20.0314 27.0118 21.0103 27.9159 21.7496C29.0802 22.7016 31.1087 23.7632 34.5148 24.0707C41.0936 24.6645 45.737 21.9863 47.0353 20.0702C48.5002 17.9083 47.9948 15.0669 47.9948 15.0669L26.4961 18.3036Z" fill="url(#paint13_linear_510_15354)"/>
<path d="M34.636 10.6772C32.1883 11.2111 29.7491 12.0274 28.1211 14.0143C26.8273 15.5933 25.8952 18.1038 26.9585 20.0558C28.0583 22.074 32.2921 23.1955 34.2938 23.4722C39.8099 24.2354 47.775 22.5418 48.0682 16.1511C48.2712 11.7308 42.568 8.94707 34.636 10.6772Z" fill="url(#paint14_linear_510_15354)"/>
<path d="M30.4785 12.5018C29.1847 13.155 26.9201 15.2137 27.1625 18.3055C27.405 21.3978 31.4916 22.3516 33.1482 22.8045C34.8047 23.2574 40.3693 23.6214 44.0977 21.1143C47.8255 18.6072 47.457 16.8024 47.5198 15.4807C47.5831 14.1595 45.44 12.0974 43.0943 11.349C40.7498 10.6017 35.5257 9.95424 30.4785 12.5018Z" fill="url(#paint15_linear_510_15354)"/>
<path opacity="0.3" d="M37.5288 11.0463C34.623 11.2209 30.7178 12.388 28.8582 14.7907C26.998 17.1928 27.5239 19.6565 29.869 20.9725C32.2141 22.2879 34.7577 20.1904 36.0029 18.3063C37.2476 16.4221 44.2652 15.324 44.2714 13.6247C44.2783 11.6532 41.3491 10.8176 37.5288 11.0463Z" fill="#F97455"/>
<path d="M32.5129 14.235C31.9471 13.6857 29.0823 13.688 29.262 15.0399C29.4063 16.1249 30.9015 16.405 31.8176 16.138C32.7719 15.8602 33.2579 14.9584 32.5129 14.235Z" fill="url(#paint16_linear_510_15354)"/>
<path d="M45.5481 16.6669C44.9822 16.1176 42.1175 16.1199 42.2972 17.4718C42.4415 18.5568 43.9366 18.8369 44.8527 18.5699C45.8071 18.2927 46.2931 17.3908 45.5481 16.6669Z" fill="url(#paint17_linear_510_15354)"/>
<path d="M43.6989 13.0389C43.3544 12.0355 40.5273 11.1826 39.622 12.9213C39.1012 13.9219 40.6146 14.6931 41.5159 14.781C42.4617 14.8734 44.1285 14.2887 43.6989 13.0389Z" fill="url(#paint18_linear_510_15354)"/>
<path d="M39.4594 15.9859C38.266 15.8501 36.5941 16.177 36.9152 17.4148C37.1291 18.2374 38.1382 18.6327 39.011 18.5517C39.8912 18.4701 40.9157 17.9408 40.9283 17.1068C40.9374 16.517 39.9499 16.0418 39.4594 15.9859Z" fill="url(#paint19_linear_510_15354)"/>
<path d="M35.4516 19.1534C34.2582 19.0176 32.5862 19.3445 32.9074 20.5823C33.1207 21.4049 34.1304 21.8002 35.0032 21.7192C35.8834 21.6376 36.9079 21.1082 36.9204 20.2743C36.9296 19.685 35.9427 19.2093 35.4516 19.1534Z" fill="url(#paint20_linear_510_15354)"/>
<path d="M32.9661 18.8773C31.5799 18.7233 30.4214 19.6063 31.3129 20.3701C31.8822 20.8578 32.9997 20.8025 33.593 20.5042C34.2239 20.187 34.0602 18.9988 32.9661 18.8773Z" fill="url(#paint21_linear_510_15354)"/>
<path d="M33.0367 16.0925C31.8998 14.7907 29.2518 15.813 29.2935 16.5722C29.3568 17.7177 31.0458 18.0405 31.9215 17.862C32.7509 17.6926 33.886 17.0651 33.0367 16.0925Z" fill="#F97455"/>
<path d="M40.4209 20.3551C39.543 19.3505 37.4991 20.1395 37.5316 20.7253C37.5807 21.6095 38.8847 21.8588 39.5601 21.7207C40.2007 21.5907 41.0769 21.1058 40.4209 20.3551Z" fill="#F97455"/>
<path d="M45.2976 14.9784C44.7289 14.3275 43.4049 14.8386 43.426 15.218C43.4574 15.7907 44.3022 15.9521 44.7397 15.8631C45.1544 15.7781 45.7226 15.4644 45.2976 14.9784Z" fill="#FFB7A9"/>
<path d="M42.5211 19.3379C42.0812 18.8348 41.0579 19.2301 41.0744 19.5233C41.0989 19.966 41.7515 20.0909 42.0898 20.0219C42.4104 19.9569 42.8496 19.7139 42.5211 19.3379Z" fill="#FFB7A9"/>
<path d="M34.7469 12.7171C34.1781 12.0663 32.8541 12.5774 32.8752 12.9573C32.9066 13.53 33.7514 13.6914 34.189 13.6024C34.6037 13.5169 35.1718 13.2031 34.7469 12.7171Z" fill="#F97455"/>
<path d="M36.3836 15.3775C35.8149 14.7267 34.4909 15.2378 34.512 15.6171C34.5439 16.1898 35.3882 16.3513 35.8257 16.2623C36.2404 16.1779 36.8086 15.8641 36.3836 15.3775Z" fill="#FFB7A9"/>
<path d="M29.9773 18.6149C29.4086 17.964 28.0846 18.4751 28.1057 18.8544C28.1377 19.4272 28.9819 19.5886 29.4194 19.4996C29.8342 19.4152 30.4023 19.1014 29.9773 18.6149Z" fill="#FFB7A9"/>
<path d="M40.5132 12.7597C39.3764 11.458 36.7284 12.4802 36.77 13.2394C36.8333 14.3849 38.5224 14.7078 39.398 14.5292C40.2274 14.3604 41.3626 13.7323 40.5132 12.7597Z" fill="#F97455"/>
<path d="M36.3593 12.0322C34.9794 11.4201 29.7531 12.7236 28.6949 16.6853C27.6367 20.647 31.8802 21.0959 33.3069 19.955C34.7336 18.8142 33.4364 17.039 35.231 15.0875C37.0256 13.1354 37.948 12.7367 36.3593 12.0322Z" fill="url(#paint22_linear_510_15354)"/>
<path d="M31.7249 18.9047C31.6878 18.5898 31.2087 18.2532 31.0079 18.0057C30.5977 17.5003 30.5766 17.2824 30.6485 16.9355C30.7654 16.3702 30.4334 16.251 30.0455 16.36C29.4591 16.5242 28.3987 18.2955 29.5983 19.3593C30.2264 19.9155 31.8635 20.0695 31.7249 18.9047Z" fill="white"/>
<path d="M35.0406 12.3987C34.0309 12.1494 32.6921 12.8105 31.8575 13.3547C31.2466 13.7535 29.7383 15.0381 30.5672 15.3712C30.8416 15.4813 31.0777 15.0444 31.3088 14.7905C31.6316 14.4351 32.3424 14.0415 32.7885 13.8664C33.8849 13.4369 34.4433 13.5378 35.1815 13.0147C35.5243 12.7717 35.3018 12.4631 35.0406 12.3987Z" fill="white"/>
<path d="M31.492 32.8928C32.2416 31.2385 31.7208 29.2419 31.7208 29.2419L10.2227 32.4792C10.2227 33.5984 10.5136 35.2013 11.2409 35.895C15.3446 35.0895 28.7009 33.2498 31.492 32.8928Z" fill="url(#paint23_linear_510_15354)"/>
<path d="M11.2407 34.9528C15.2189 34.2049 19.3055 33.89 23.2998 33.2089C26.027 32.744 28.7674 32.3784 31.5095 32.0264C31.6681 31.501 31.7662 30.9352 31.7947 30.3265C31.9978 25.9056 26.2946 23.1219 18.3626 24.852C15.9148 25.3859 13.4756 26.2022 11.8476 28.1896C10.5539 29.7686 9.62177 32.2791 10.6851 34.2312C10.8237 34.4867 11.0125 34.7269 11.2407 34.9528Z" fill="url(#paint24_linear_510_15354)"/>
<path d="M12.0466 34.8023C15.7681 34.1571 19.573 33.8445 23.2968 33.209C25.813 32.7801 28.34 32.4355 30.8694 32.1087C31.2886 31.144 31.3725 30.3243 31.243 29.6569C30.9298 28.042 29.1632 26.2736 26.8175 25.5252C24.4725 24.7768 19.2484 24.1299 14.2012 26.6775C12.9068 27.3307 10.6428 29.3894 10.8852 32.4811C10.9622 33.4469 11.4128 34.2039 12.0466 34.8023Z" fill="url(#paint25_linear_510_15354)"/>
<path opacity="0.3" d="M12.8867 34.6658C14.7697 34.3634 16.6693 34.1296 18.5672 33.8877C19.0212 33.4439 19.4177 32.9562 19.7314 32.4816C20.9761 30.5974 27.9937 29.4993 27.9999 27.8C28.0073 25.8285 25.0776 24.9928 21.2579 25.2216C18.3521 25.3961 14.4469 26.5638 12.5872 28.966C10.9341 31.1011 11.1686 33.2825 12.8867 34.6658Z" fill="#F97455"/>
<path d="M16.2395 28.4103C15.6736 27.861 12.8089 27.8633 12.9886 29.2152C13.1323 30.3002 14.628 30.5803 15.5441 30.3133C16.4985 30.0361 16.9845 29.1342 16.2395 28.4103Z" fill="url(#paint26_linear_510_15354)"/>
<path d="M26.8931 32.6499C27.6991 32.5335 28.5057 32.4228 29.3129 32.315C29.7099 31.91 29.7841 31.3367 29.2747 30.8427C28.7088 30.2934 25.844 30.2957 26.0237 31.6476C26.0899 32.1444 26.4447 32.4656 26.8931 32.6499Z" fill="url(#paint27_linear_510_15354)"/>
<path d="M27.4255 27.2144C27.081 26.211 24.2539 25.3588 23.3486 27.0969C22.8278 28.0974 24.3412 28.8687 25.2424 28.9565C26.1882 29.0495 27.8551 28.4642 27.4255 27.2144Z" fill="url(#paint28_linear_510_15354)"/>
<path d="M23.182 30.1609C21.9887 30.0252 20.3167 30.352 20.6379 31.5899C20.8518 32.4124 21.8609 32.8078 22.7337 32.7268C23.6139 32.6452 24.6384 32.1158 24.6509 31.2818C24.66 30.692 23.6732 30.2168 23.182 30.1609Z" fill="url(#paint29_linear_510_15354)"/>
<path d="M20.1021 33.6881C19.7952 33.4895 19.4273 33.3566 19.1826 33.3293C18.2242 33.2203 16.9595 33.4108 16.6641 34.1302C17.8101 33.9835 18.9578 33.8421 20.1021 33.6881Z" fill="url(#paint30_linear_510_15354)"/>
<path d="M17.6801 34.0007C17.6624 33.5792 17.3475 33.1257 16.6927 33.0527C15.4132 32.9101 14.331 33.6522 14.8741 34.3681C15.8079 34.2392 16.7434 34.1188 17.6801 34.0007Z" fill="url(#paint31_linear_510_15354)"/>
<path d="M16.7593 30.2675C15.6224 28.9658 12.9745 29.988 13.0161 30.7473C13.0794 31.8927 14.7685 32.2156 15.6441 32.037C16.4741 31.8682 17.6093 31.2401 16.7593 30.2675Z" fill="#F97455"/>
<path d="M29.0203 29.1536C28.4516 28.5028 27.1276 29.0139 27.1487 29.3938C27.1801 29.9665 28.0249 30.128 28.4624 30.039C28.8777 29.954 29.4453 29.6402 29.0203 29.1536Z" fill="#FFB7A9"/>
<path d="M18.4734 26.8927C17.9047 26.2418 16.5807 26.7529 16.6018 27.1323C16.6332 27.705 17.478 27.8664 17.9155 27.7774C18.3308 27.693 18.8984 27.3793 18.4734 26.8927Z" fill="#F97455"/>
<path d="M20.114 29.5535C19.5453 28.9027 18.2213 29.4138 18.2424 29.7937C18.2738 30.3664 19.1186 30.5279 19.5562 30.4389C19.9709 30.3539 20.5384 30.0396 20.114 29.5535Z" fill="#FFB7A9"/>
<path d="M13.7039 32.7909C13.1352 32.14 11.8112 32.6511 11.8323 33.031C11.8637 33.6037 12.7085 33.7652 13.146 33.6762C13.5613 33.5906 14.1289 33.2769 13.7039 32.7909Z" fill="#FFB7A9"/>
<path d="M24.2398 26.9357C23.1029 25.6346 20.4549 26.6562 20.4966 27.4155C20.5599 28.5609 22.249 28.8838 23.1246 28.7052C23.9546 28.5358 25.0897 27.9083 24.2398 26.9357Z" fill="#F97455"/>
<path d="M14.0311 34.4892C15.0488 34.3403 16.0699 34.2051 17.0921 34.075C18.4144 32.9325 17.1908 31.1835 18.9574 29.2623C20.752 27.3102 21.6744 26.912 20.0858 26.207C18.7059 25.5949 13.4795 26.8989 12.4213 30.8606C11.8555 32.9781 12.807 34.0853 14.0311 34.4892Z" fill="url(#paint32_linear_510_15354)"/>
<path d="M15.4515 33.0797C15.4138 32.7648 14.9352 32.4277 14.7344 32.1807C14.3249 31.6753 14.3032 31.4574 14.3751 31.1106C14.492 30.5453 14.16 30.4261 13.7721 30.535C13.1857 30.6993 12.1253 32.4705 13.3249 33.5344C13.9524 34.0906 15.5895 34.2446 15.4515 33.0797Z" fill="white"/>
<path d="M18.7671 26.5749C17.7575 26.3251 16.4186 26.9862 15.5841 27.531C14.9732 27.9297 13.4649 29.2143 14.2938 29.5475C14.5681 29.6576 14.8049 29.22 15.0353 28.9668C15.3582 28.6114 16.069 28.2178 16.515 28.0427C17.6114 27.6131 18.1699 27.7141 18.908 27.191C19.2514 26.9474 19.029 26.6394 18.7671 26.5749Z" fill="white"/>
<path d="M11.2422 34.9529V35.8947L31.4933 32.893L31.511 32.0271L11.2422 34.9529Z" fill="url(#paint33_linear_510_15354)"/>
<path d="M30.8711 32.9735V32.1092L31.5083 32.0271L31.4906 32.893L30.8711 32.9735Z" fill="url(#paint34_linear_510_15354)"/>
<path opacity="0.5" d="M34.5156 31.0304L34.523 32.4468C34.523 32.4468 43.3859 31.1388 47.7623 30.3636C52.1388 29.5883 58.9264 28.4965 58.9264 28.4965L58.919 27.1189C58.919 27.1189 50.7212 26.6398 46.7076 27.2758C42.6946 27.913 34.5156 31.0304 34.5156 31.0304Z" fill="url(#paint35_linear_510_15354)"/>
<path d="M34.5156 31.0304L34.523 32.4468C34.523 32.4468 44.3283 30.9751 48.7047 30.1999C53.0811 29.4246 58.9264 28.4965 58.9264 28.4965L58.919 27.1189C58.919 27.1189 50.7212 26.6398 46.7076 27.2758C42.6946 27.913 34.5156 31.0304 34.5156 31.0304Z" fill="url(#paint36_linear_510_15354)"/>
<path d="M44.7095 22.1494C51.6917 21.2812 55.7994 25.6251 57.1656 27.3997L58.9152 27.1197C58.9152 27.1197 53.6985 19.1609 43.7917 20.9874C33.8849 22.814 34.5118 31.0312 34.5118 31.0312L35.8598 30.815C36.0971 28.912 37.4171 23.057 44.7095 22.1494Z" fill="url(#paint37_linear_510_15354)"/>
<path d="M44.7092 22.1493C37.4161 23.0563 36.0967 28.9113 35.8594 30.8143L57.1653 27.3996C55.7996 25.625 51.6913 21.2811 44.7092 22.1493Z" fill="url(#paint38_linear_510_15354)"/>
<path d="M44.7092 22.1493C37.4161 23.0563 36.0967 28.9113 35.8594 30.8143L57.1653 27.3996C55.7996 25.625 51.6913 21.2811 44.7092 22.1493Z" fill="url(#paint39_linear_510_15354)"/>
<path opacity="0.5" d="M35.8636 30.8145L35.871 32.248L34.5225 32.447L34.5156 31.0307L35.8636 30.8145Z" fill="url(#paint40_linear_510_15354)"/>
<path opacity="0.5" d="M57.168 27.3997L57.1754 28.819L58.9249 28.4967L58.9175 27.1196L57.168 27.3997Z" fill="url(#paint41_linear_510_15354)"/>
<path opacity="0.5" d="M37.7422 30.5124C37.7422 30.5124 37.9339 24.6939 45.1499 23.7053C52.366 22.7168 55.3168 27.6955 55.3168 27.6955L37.7422 30.5124Z" fill="url(#paint42_linear_510_15354)"/>
<path d="M36.0715 29.6653C35.1742 28.9323 36.0983 25.3003 40.193 22.9655C45.1472 20.1401 50.1089 21.1201 51.9411 22.366C53.6907 23.5553 50.6548 25.4115 47.2447 25.2433C45.0719 25.136 42.4667 26.314 40.8022 27.7612C38.44 29.8136 36.7064 30.1838 36.0715 29.6653Z" fill="url(#paint43_linear_510_15354)"/>
<path d="M42.2371 28.2427C42.2371 28.2427 39.2709 27.7139 40.3558 26.7624C41.4294 25.8206 42.2371 28.2427 42.2371 28.2427Z" fill="url(#paint44_linear_510_15354)"/>
<path d="M43.5627 27.1985C43.5627 27.1985 41.2057 25.8882 42.2667 25.3691C43.5502 24.741 43.5627 27.1985 43.5627 27.1985Z" fill="url(#paint45_linear_510_15354)"/>
<path d="M41.3757 29.3186C41.3757 29.3186 39.8749 28.3859 39.2708 28.9147C38.6667 29.4435 39.479 30.026 41.3757 29.3186Z" fill="url(#paint46_linear_510_15354)"/>
<path d="M45.1674 26.4048C45.1674 26.4048 43.8246 24.807 44.9153 24.5988C46.006 24.3911 45.1674 26.4048 45.1674 26.4048Z" fill="url(#paint47_linear_510_15354)"/>
<path d="M46.8989 26.2129C46.8989 26.2129 46.3644 24.4822 47.3758 24.5717C48.3872 24.6613 46.8989 26.2129 46.8989 26.2129Z" fill="url(#paint48_linear_510_15354)"/>
<path d="M48.3203 26.3882C48.3203 26.3882 48.5137 24.6609 49.5661 24.9387C50.6192 25.2165 49.087 26.0482 48.3203 26.3882Z" fill="url(#paint49_linear_510_15354)"/>
<path d="M50.1367 26.9582C50.1367 26.9582 50.2896 25.191 51.18 25.4631C52.0716 25.7346 51.1869 26.7112 50.1367 26.9582Z" fill="url(#paint50_linear_510_15354)"/>
<path d="M51.2344 27.3443C51.2344 27.3443 52.0769 26.0272 52.8071 26.4836C53.5372 26.9405 52.4066 27.2856 51.2344 27.3443Z" fill="url(#paint51_linear_510_15354)"/>
<path d="M42.6406 29.7009C42.6406 29.7009 43.1495 27.5817 45.9224 27.0261C49.1231 26.3844 50.5127 28.4665 50.5127 28.4665L42.6406 29.7009Z" fill="url(#paint52_linear_510_15354)"/>
<path d="M38.9925 25.1141C38.7261 25.1489 38.4608 25.2693 38.219 25.4318C37.6599 25.7433 37.1095 26.3086 36.8978 26.5938C36.5984 26.9983 36.2658 27.579 36.3228 28.1026C36.3805 28.6326 36.8693 29.057 37.357 28.9212C37.936 28.7598 38.1249 28.0193 38.4112 27.5413C39.0604 26.4569 39.5173 26.3229 39.6485 25.6104C39.7301 25.1637 39.4175 25.0588 38.9925 25.1141Z" fill="white"/>
<path d="M43.2497 22.8333C42.0438 22.7403 40.5162 23.5138 40.5156 24.3387C40.5151 25.0717 42.086 24.3575 42.4215 24.2052C42.7592 24.0518 43.4505 23.8127 43.5983 23.418C43.7118 23.1157 43.5378 22.8555 43.2497 22.8333Z" fill="white"/>
<path d="M71.7741 15.9621C71.1107 15.6199 70.4655 15.3307 69.83 15.062C67.777 14.2736 63.3453 13.3735 61.7652 12.2868C60.0396 11.1009 58.7076 8.9697 58.7076 8.9697C57.1515 7.69705 55.6318 6.42897 54.4778 5.71307C53.9507 5.3862 53.2491 5.09984 52.4539 4.82147C51.167 4.33831 47.9919 4.70282 47.037 4.09302C45.2635 2.96013 44.0998 1.28019 44.0998 1.28019C41.3326 -1.08828 37.8729 0.110215 36.3162 2.59219C36.1137 2.91563 35.9779 3.22196 35.8906 3.51231C36.6892 4.55394 38.0355 5.88876 40.0183 6.54249C43.5414 7.70447 48.0079 7.18024 50.3033 8.95202C52.5988 10.7238 51.9519 14.9006 56.0494 16.5326C60.1468 18.1646 63.4896 18.3209 65.6464 22.0168C67.8033 25.7127 68.7627 26.5461 72.8625 25.7634C74.6639 25.4194 76.1322 24.849 77.2132 24.3168C77.7437 21.8884 74.7649 17.5057 71.7741 15.9621Z" fill="url(#paint53_linear_510_15354)"/>
<path d="M47.0387 4.09262C47.9937 4.70242 51.1687 4.33791 52.4556 4.82107C49.8567 3.91122 46.2207 3.09321 44.1016 1.27979C44.1016 1.27979 45.2653 2.95973 47.0387 4.09262Z" fill="url(#paint54_linear_510_15354)"/>
<path opacity="0.5" d="M47.0387 4.09262C47.9937 4.70242 51.1687 4.33791 52.4556 4.82107C49.8567 3.91122 46.2207 3.09321 44.1016 1.27979C44.1016 1.27979 45.2653 2.95973 47.0387 4.09262Z" fill="#DC6E10"/>
<path d="M61.7685 12.2869C63.3486 13.3736 67.7803 14.2738 69.8333 15.0621C67.3217 13.9988 65.0268 13.369 62.9561 12.1375C61.6938 11.3868 60.1861 10.1757 58.7109 8.96924C58.7109 8.96924 60.0429 11.101 61.7685 12.2869Z" fill="url(#paint55_linear_510_15354)"/>
<path opacity="0.5" d="M61.7685 12.2869C63.3486 13.3736 67.7803 14.2738 69.8333 15.0621C67.3217 13.9988 65.0268 13.369 62.9561 12.1375C61.6938 11.3868 60.1861 10.1757 58.7109 8.96924C58.7109 8.96924 60.0429 11.101 61.7685 12.2869Z" fill="#DC6E10"/>
<path d="M37.008 6.62803C37.6595 7.56012 43.0615 9.52871 45.6559 9.98164C48.2502 10.4346 50.4989 12.9879 51.7094 14.9062C52.9198 16.8246 54.7972 19.0031 60.1844 19.873C63.1649 20.3545 64.5083 25.1502 66.5841 26.6521C68.9041 28.3309 75.5782 27.1712 76.9621 24.9802C77.0865 24.7834 77.1606 24.5558 77.2131 24.3162C76.1321 24.8484 74.6638 25.4189 72.8624 25.7628C68.7626 26.5449 67.8026 25.7121 65.6463 22.0162C63.4895 18.3203 60.1467 18.164 56.0493 16.532C51.9518 14.9 52.5987 10.7238 50.3032 8.95143C48.0078 7.17964 43.5412 7.70387 40.0182 6.54189C38.0354 5.88817 36.6891 4.55334 35.8905 3.51172C35.3098 5.45121 37.008 6.62803 37.008 6.62803Z" fill="url(#paint56_linear_510_15354)"/>
<path opacity="0.5" d="M37.008 6.62803C37.6595 7.56012 43.0615 9.52871 45.6559 9.98164C48.2502 10.4346 50.4989 12.9879 51.7094 14.9062C52.9198 16.8246 54.7972 19.0031 60.1844 19.873C63.1649 20.3545 64.5083 25.1502 66.5841 26.6521C68.9041 28.3309 75.5782 27.1712 76.9621 24.9802C77.0865 24.7834 77.1606 24.5558 77.2131 24.3162C76.1321 24.8484 74.6638 25.4189 72.8624 25.7628C68.7626 26.5449 67.8026 25.7121 65.6463 22.0162C63.4895 18.3203 60.1467 18.164 56.0493 16.532C51.9518 14.9 52.5987 10.7238 50.3032 8.95143C48.0078 7.17964 43.5412 7.70387 40.0182 6.54189C38.0354 5.88817 36.6891 4.55334 35.8905 3.51172C35.3098 5.45121 37.008 6.62803 37.008 6.62803Z" fill="#DC6E10"/>
<path opacity="0.5" d="M75.1272 21.3372C74.3446 17.9779 72.0001 16.9876 68.9808 15.8501C65.9614 14.7127 60.714 13.4628 58.6986 10.3967C56.6832 7.33063 52.5396 4.70775 51.0165 6.23482C49.875 7.37912 52.3279 8.77612 53.7763 11.7812C55.5019 15.3601 60.0306 16.4662 62.9421 17.8541C65.8536 19.242 67.4269 22.0571 68.3339 23.3098C70.3002 26.0268 75.9099 24.6971 75.1272 21.3372Z" fill="#F9D679"/>
<path opacity="0.5" d="M45.2554 2.95956C43.9405 1.33552 42.2799 0.694917 40.9645 0.895141C38.4928 1.27049 36.1403 3.09475 38.3171 4.53682C39.8875 5.57673 41.0467 6.5288 44.2679 6.54249C45.8663 6.54876 46.4099 4.38566 45.2554 2.95956Z" fill="#F9D679"/>
<path opacity="0.5" d="M72.9531 20.589C72.7997 18.9341 71.219 16.7676 68.1728 16.4362C67.0468 16.3135 66.3851 16.5075 66.0924 17.1732C65.8283 17.775 66.7855 19.034 67.0964 19.3928C67.9577 20.3853 68.7415 21.0385 69.8379 21.7989C71.1614 22.7173 73.1402 22.6043 72.9531 20.589Z" fill="url(#paint57_linear_510_15354)"/>
<path opacity="0.5" d="M56.6805 10.2427C56.701 9.06363 56.1682 8.50973 55.7273 8.0608C55.2972 7.6227 53.1324 6.04772 52.3081 7.18745C51.9995 7.61414 52.7422 8.67858 53.0245 9.01628C53.5779 9.67742 54.1289 10.4458 54.7866 11.0048C55.5071 11.6163 56.6594 11.4481 56.6805 10.2427Z" fill="url(#paint58_linear_510_15354)"/>
<path opacity="0.5" d="M44.548 3.24465C44.2303 2.50993 43.3193 1.81399 42.264 1.58125C41.3011 1.36848 39.8362 1.28862 39.2053 2.39356C38.5573 3.52987 42.0147 4.58233 42.9925 4.7837C43.9571 4.98221 45.1213 4.56978 44.548 3.24465Z" fill="url(#paint59_linear_510_15354)"/>
<path d="M69.5033 17.1932C68.1582 16.4094 66.0442 16.7677 67.2558 18.2748C67.8422 19.0043 69.3892 20.5976 70.6522 19.3768C71.4611 18.5953 70.7058 17.8943 69.5033 17.1932Z" fill="white"/>
<path d="M55.0206 8.19915C54.4633 6.78104 52.6117 7.00522 52.5267 7.5614C52.4748 7.90195 52.7149 8.17234 52.9511 8.38169C53.2597 8.65493 53.6128 8.97437 53.9933 9.14094C54.6647 9.43472 55.2779 8.85344 55.0206 8.19915Z" fill="white"/>
<path d="M40.0099 2.10163C39.3448 2.74394 41.2569 3.80667 41.7994 3.95955C42.161 4.06166 42.5934 4.19799 42.9334 3.9624C43.2066 3.77359 43.4856 3.30069 43.3567 3.00007C42.9933 2.15069 40.9637 1.18037 40.0099 2.10163Z" fill="white"/>
<path d="M9.69403 29.112C9.55256 28.9608 9.31012 28.9237 9.12416 29.0047C8.91024 29.0983 8.39628 29.6505 8.41454 30.2169C8.43165 30.7366 8.77106 30.9186 9.0945 30.5341C9.31013 30.2774 9.51035 29.9693 9.68775 29.6853C9.80127 29.5033 9.8566 29.286 9.69403 29.112Z" fill="white"/>
<path d="M10.3363 35.612C10.1229 35.349 9.96491 35.4836 9.90103 35.5874C9.65802 35.9816 9.42015 37.6005 10.1149 37.5075C10.9096 37.4003 10.5513 35.8772 10.3363 35.612Z" fill="white"/>
<path d="M19.8564 19.569C19.3761 19.3768 18.1799 20.0699 18.0915 20.6979C18.0504 20.99 18.2421 21.2672 18.5467 21.2935C18.8496 21.3197 19.1719 21.0927 19.4075 20.9261C19.8033 20.646 20.5963 19.8651 19.8564 19.569Z" fill="white"/>
<path d="M57.9973 23.3232C57.6157 22.2741 56.4622 22.046 56.2226 22.5685C55.9591 23.144 56.9711 24.1868 57.5483 24.0624C57.8649 23.9946 58.1051 23.6192 57.9973 23.3232Z" fill="white"/>
<path d="M50.3302 12.4223C49.4569 10.8399 48.2721 10.3465 46.5893 9.87927C45.0018 9.43832 39.4691 7.87189 38.3613 7.2735C36.9392 6.50512 36.2929 5.30149 36.1508 4.22736C35.8867 2.23253 37.8639 0.923377 39.1302 0.299316C38.2883 0.299316 37.1291 1.09451 36.5484 1.72884C34.9558 3.46982 35.3961 5.30549 36.6631 6.54277C39.157 8.97854 44.1096 9.3653 47.1038 10.8787C48.1529 11.4092 49.2162 11.8136 49.9258 13.0155C51.4106 15.5306 53.365 18.19 56.0974 18.7336C51.9891 16.1803 51.6274 14.7731 50.3302 12.4223Z" fill="#B25109"/>
<path d="M77.5671 23.8913C77.3578 20.8839 74.8171 17.8184 72.5501 16.07C69.0819 13.3952 62.961 12.7723 60.6257 10.5139C61.6667 11.9406 64.2212 13.0866 66.2034 13.689C69.8679 14.8036 73.0031 16.3929 75.201 19.6735C76.7189 21.9392 78.0651 25.371 75.396 27.3242C74.0424 28.315 71.6437 27.9808 70.0043 28.2819C66.1937 28.983 60.758 29.6767 57.9766 30.8603C62.9616 30.1325 68.0094 29.2163 73.59 28.5421C76.1604 28.2318 77.7736 26.8621 77.5671 23.8913Z" fill="#B25109"/>
<path d="M75.9982 24.0823C75.8299 24.2055 75.7198 24.3932 75.5612 24.5318C75.3747 24.695 75.0148 24.9973 74.8933 25.2198C74.6531 25.6596 74.9589 25.8273 75.3713 25.5073C75.721 25.2357 76.1631 24.614 76.1049 24.1433C76.0992 24.0966 76.0467 24.0469 75.9982 24.0823Z" fill="#B25109"/>
<path d="M70.6198 26.4386C70.4213 26.1277 69.9963 26.0667 69.7425 25.798C69.5314 25.5744 69.4932 25.2145 69.4191 25.0342C69.3255 24.8083 69.1025 24.9019 69.0557 25.0045C68.9137 25.3126 69.0728 25.8128 69.2046 26.0616C69.4299 26.486 70.0665 26.8254 70.3694 26.81C70.6466 26.7951 70.6792 26.5316 70.6198 26.4386Z" fill="#B25109"/>
<path d="M38.5711 5.76693C38.5968 5.399 38.2916 5.09666 38.2483 4.72987C38.2118 4.42469 38.396 4.11265 38.4434 3.92384C38.5027 3.68654 38.2682 3.62892 38.169 3.68369C37.8718 3.84683 37.7012 4.34311 37.659 4.62091C37.5871 5.09609 37.8963 5.74753 38.149 5.91581C38.38 6.06926 38.5637 5.87702 38.5711 5.76693Z" fill="#B25109"/>
<path d="M27.8289 18.8699C27.8289 18.8699 26.376 18.008 24.7536 18.7399C23.1615 19.458 22.586 20.5875 22.586 20.5875C22.586 20.5875 21.7366 17.7861 24.1011 17.1723C26.4661 16.5591 28.0342 17.7068 27.8289 18.8699Z" fill="url(#paint60_linear_510_15354)"/>
<path d="M28.4246 17.5535C29.0013 18.3509 28.6813 19.4142 27.914 20.3897C26.8251 21.7741 23.8913 21.6321 22.4572 20.218C21.5496 19.323 21.8696 18.4987 22.2273 18.0127C21.5491 18.6687 21.2119 19.4941 21.4133 20.2864C21.9467 22.3839 25.8342 23.6286 27.9671 21.635C29.7383 19.9778 29.72 18.4662 28.4246 17.5535Z" fill="url(#paint61_linear_510_15354)"/>
<path d="M22.4568 20.2172C23.8908 21.6313 26.8246 21.7733 27.9136 20.3889C28.6808 19.4134 29.0008 18.3501 28.4241 17.5527C28.16 17.3667 27.8474 17.2036 27.4818 17.0712C25.3854 16.3142 23.3432 16.932 22.2269 18.0113C21.8698 18.4979 21.5498 19.3222 22.4568 20.2172ZM25.8549 17.5481C27.0237 17.7575 28.4378 18.5532 27.0026 19.8453C25.5674 21.1373 22.8709 20.2138 22.9913 19.1499C23.1116 18.086 24.8458 17.3673 25.8549 17.5481Z" fill="#C14059"/>
<path d="M25.3589 20.9926C24.7429 20.8346 23.9077 20.8786 23.185 20.5009C22.5495 20.1689 22.262 19.7103 22.1052 19.0429C22.0686 18.8866 21.9625 18.675 21.8787 18.8906C21.2934 20.4 23.9916 21.6971 25.4131 21.2784C25.5803 21.2288 25.513 21.032 25.3589 20.9926Z" fill="white"/>
<path d="M58.0223 23.77C58.0223 23.77 56.741 22.6685 55.0166 23.1072C53.3241 23.5379 52.5603 24.5504 52.5603 24.5504C52.5603 24.5504 52.2112 21.644 54.6464 21.4506C57.0816 21.2573 58.4267 22.66 58.0223 23.77Z" fill="url(#paint62_linear_510_15354)"/>
<path d="M58.8341 22.5766C59.2637 23.4619 58.7634 24.4539 57.8381 25.2811C56.525 26.455 53.6603 25.8047 52.4943 24.163C51.7561 23.1242 52.2148 22.3673 52.6512 21.9514C51.8696 22.4791 51.3939 23.2338 51.4544 24.0489C51.6147 26.2069 55.2267 28.1087 57.6739 26.5161C59.7069 25.1926 59.951 23.7004 58.8341 22.5766Z" fill="url(#paint63_linear_510_15354)"/>
<path d="M52.4913 24.1624C53.6572 25.8042 56.522 26.4545 57.8351 25.2805C58.7604 24.4534 59.2607 23.4614 58.8311 22.5761C58.6035 22.3473 58.324 22.1323 57.9869 21.9383C56.0537 20.8282 53.9356 21.0815 52.6481 21.9509C52.2118 22.3673 51.7537 23.1237 52.4913 24.1624ZM56.3018 22.1248C57.4164 22.5344 58.6708 23.5635 57.0331 24.5863C55.3954 25.6091 52.9003 24.2309 53.2037 23.2041C53.5066 22.1773 55.3395 21.7717 56.3018 22.1248Z" fill="#C14059"/>
<path d="M55.218 25.43C54.6385 25.1676 53.8085 25.0649 53.1622 24.568C52.594 24.1305 52.3909 23.6291 52.3521 22.944C52.343 22.7837 52.2757 22.5572 52.1559 22.7546C51.3174 24.1391 53.7486 25.8857 55.2214 25.7203C55.3949 25.7015 55.3629 25.4956 55.218 25.43Z" fill="white"/>
<path d="M50.1672 17.3338C50.1672 17.3338 48.0354 13.9134 44.6333 16.0959C41.2312 18.2784 40.8359 23.4415 40.8359 23.4415C40.8359 23.4415 48.2796 23.8864 50.8893 21.6594C54.3325 18.7205 50.1672 17.3338 50.1672 17.3338Z" fill="url(#paint64_linear_510_15354)"/>
<path opacity="0.5" d="M49.7957 17.4827C49.5516 17.3469 47.8602 15.6094 45.6789 16.8712C43.6441 18.048 41.5078 22.8945 41.5078 22.8945C41.5078 22.8945 45.2202 20.1506 46.9007 19.105C48.5813 18.06 49.7957 17.4827 49.7957 17.4827Z" fill="url(#paint65_linear_510_15354)"/>
<path d="M45.6504 19.6412C45.6504 19.6412 44.5363 19.1289 43.566 19.4033C42.5957 19.6777 42.25 20.4598 42.25 20.4598C42.25 20.4598 42.9853 19.8796 43.7611 19.9201C44.5369 19.9606 45.1262 20.2932 45.1262 20.2932L45.6504 19.6412Z" fill="url(#paint66_linear_510_15354)"/>
<path d="M45.7734 16.2198C45.7734 16.2198 47.0963 15.7703 48.0603 16.501C49.0249 17.2317 49.1636 17.8033 49.1636 17.8033L48.6405 18.141C48.6405 18.141 48.0712 17.2945 47.4682 16.7383C46.7603 16.0846 45.7734 16.2198 45.7734 16.2198Z" fill="url(#paint67_linear_510_15354)"/>
<path d="M43.4844 18.0379C43.4844 18.0379 44.3412 17.1109 45.773 17.4441C47.2048 17.7772 47.6292 18.707 47.6292 18.707L47.1437 19.0105C47.1437 19.0105 46.4974 18.3226 45.6766 17.9392C44.6315 17.4509 43.4844 18.0379 43.4844 18.0379Z" fill="url(#paint68_linear_510_15354)"/>
<path d="M50.1672 17.334C50.1672 17.334 47.4336 18.383 45.3116 19.7852C43.1896 21.1879 40.8359 23.4417 40.8359 23.4417C40.8359 23.4417 42.9699 22.1667 44.942 20.837C46.914 19.5074 50.1672 17.334 50.1672 17.334Z" fill="url(#paint69_linear_510_15354)"/>
<path opacity="0.5" d="M50.0756 17.8032C49.763 17.8032 49.6529 18.1637 49.4892 18.5967C49.3033 19.0879 48.8937 19.9994 47.9713 20.6817C46.236 21.9646 45.5446 22.0958 45.0484 22.6947C44.2988 23.6 47.5514 22.8282 48.7727 22.4072C50.1652 21.9275 52.0071 20.6161 51.7892 19.2772C51.5719 17.939 50.5942 17.8032 50.0756 17.8032Z" fill="url(#paint70_linear_510_15354)"/>
<path opacity="0.5" d="M48.7773 18.2648C48.7773 18.2648 49.2577 18.7343 49.3193 19.7582C49.3849 20.8432 48.9228 22.2733 48.9228 22.2733C48.9228 22.2733 49.985 21.2299 49.985 19.6407C49.985 18.4325 49.167 17.8027 49.167 17.8027L48.7773 18.2648Z" fill="url(#paint71_linear_510_15354)"/>
<path opacity="0.5" d="M47.3838 19.1055C47.3838 19.1055 47.458 19.4398 47.296 20.3399C47.1339 21.2395 46.3633 22.5612 46.3633 22.5612C46.3633 22.5612 47.7027 21.7671 47.9708 20.1539C48.1704 18.9532 47.9708 18.802 47.9708 18.802L47.3838 19.1055Z" fill="url(#paint72_linear_510_15354)"/>
<path opacity="0.5" d="M45.1268 20.2934C45.1268 20.2934 45.307 20.8798 44.9146 21.6596C44.5221 22.4393 43.7617 23.0526 43.7617 23.0526C43.7617 23.0526 45.019 22.8381 45.5016 21.5597C45.8581 20.6145 45.6784 20.0669 45.6784 20.0669L45.1268 20.2934Z" fill="url(#paint73_linear_510_15354)"/>
<path d="M19.9406 22.3401C19.9406 22.3401 22.0723 18.9198 25.4744 21.1023C28.8765 23.2848 29.2718 28.4478 29.2718 28.4478C29.2718 28.4478 21.8281 28.8928 19.2184 26.6658C15.7758 23.7274 19.9406 22.3401 19.9406 22.3401Z" fill="url(#paint74_linear_510_15354)"/>
<path opacity="0.5" d="M20.3164 22.4896C20.5606 22.3533 22.2519 20.6163 24.4333 21.8781C26.468 23.0549 28.6043 27.9014 28.6043 27.9014C28.6043 27.9014 24.8919 25.1576 23.2114 24.112C21.5309 23.0669 20.3164 22.4896 20.3164 22.4896Z" fill="url(#paint75_linear_510_15354)"/>
<path d="M24.457 24.6483C24.457 24.6483 25.5711 24.136 26.5414 24.4104C27.5117 24.6848 27.8574 25.4669 27.8574 25.4669C27.8574 25.4669 27.1221 24.8867 26.3463 24.9272C25.5705 24.9677 24.9813 25.3003 24.9813 25.3003L24.457 24.6483Z" fill="url(#paint76_linear_510_15354)"/>
<path d="M24.3315 21.2266C24.3315 21.2266 23.0087 20.7771 22.0446 21.5079C21.0806 22.2386 20.9414 22.8102 20.9414 22.8102L21.4645 23.1479C21.4645 23.1479 22.0338 22.3013 22.6367 21.7452C23.3441 21.0914 24.3315 21.2266 24.3315 21.2266Z" fill="url(#paint77_linear_510_15354)"/>
<path d="M26.6214 23.0447C26.6214 23.0447 25.7646 22.1178 24.3328 22.4509C22.901 22.784 22.4766 23.7144 22.4766 23.7144L22.962 24.0179C22.962 24.0179 23.6083 23.33 24.4292 22.9461C25.4737 22.4572 26.6214 23.0447 26.6214 23.0447Z" fill="url(#paint78_linear_510_15354)"/>
<path d="M19.9414 22.3401C19.9414 22.3401 22.6749 23.3891 24.797 24.7913C26.919 26.1934 29.2726 28.4478 29.2726 28.4478C29.2726 28.4478 27.1386 27.1728 25.1666 25.8432C23.1946 24.5135 19.9414 22.3401 19.9414 22.3401Z" fill="url(#paint79_linear_510_15354)"/>
<path opacity="0.5" d="M20.0282 22.8098C20.3408 22.8098 20.4509 23.1703 20.6146 23.6033C20.8005 24.0944 21.2101 25.006 22.1325 25.6882C23.8678 26.9712 24.5592 27.1024 25.0554 27.7013C25.805 28.6066 22.5523 27.8348 21.331 27.4138C19.9386 26.9341 18.0966 25.6226 18.3146 24.2838C18.5319 22.9456 19.5096 22.8098 20.0282 22.8098Z" fill="url(#paint80_linear_510_15354)"/>
<path opacity="0.5" d="M21.3365 23.2716C21.3365 23.2716 20.8562 23.7405 20.7946 24.765C20.729 25.85 21.1911 27.2801 21.1911 27.2801C21.1911 27.2801 20.1289 26.2368 20.1289 24.6475C20.1289 23.4393 20.9469 22.8096 20.9469 22.8096L21.3365 23.2716Z" fill="url(#paint81_linear_510_15354)"/>
<path opacity="0.5" d="M22.7226 24.1126C22.7226 24.1126 22.6484 24.4468 22.8104 25.347C22.9725 26.2466 23.7431 27.5683 23.7431 27.5683C23.7431 27.5683 22.4037 26.7742 22.1356 25.161C21.936 23.9602 22.1356 23.8091 22.1356 23.8091L22.7226 24.1126Z" fill="url(#paint82_linear_510_15354)"/>
<path opacity="0.5" d="M24.9797 25.3002C24.9797 25.3002 24.7995 25.8866 25.1919 26.6664C25.5844 27.4462 26.3448 28.0594 26.3448 28.0594C26.3448 28.0594 25.0875 27.8449 24.6049 26.5666C24.2484 25.6213 24.4281 25.0737 24.4281 25.0737L24.9797 25.3002Z" fill="url(#paint83_linear_510_15354)"/>
<path d="M57.6094 20.4938C57.6094 20.4938 59.4251 21.6712 61.5699 20.9867C63.7148 20.3022 64.5191 18.1414 64.5191 18.1414C64.5191 18.1414 62.9709 18.6103 61.704 18.9816C60.157 19.4357 57.6094 20.4938 57.6094 20.4938Z" fill="url(#paint84_linear_510_15354)"/>
<path d="M60.7063 17.5069C58.8803 17.8149 57.6094 20.4937 57.6094 20.4937C57.6094 20.4937 60.157 19.4355 61.704 18.982C62.9709 18.6107 64.5191 18.1418 64.5191 18.1418C64.5191 18.1418 62.5494 17.1966 60.7063 17.5069Z" fill="url(#paint85_linear_510_15354)"/>
<path opacity="0.5" d="M60.7063 17.5069C58.8803 17.8149 57.6094 20.4937 57.6094 20.4937C57.6094 20.4937 60.157 19.4355 61.704 18.982C62.9709 18.6107 64.5191 18.1418 64.5191 18.1418C64.5191 18.1418 62.5494 17.1966 60.7063 17.5069Z" fill="url(#paint86_linear_510_15354)"/>
<path opacity="0.5" d="M59.5911 20.0151C59.084 20.2234 58.7212 20.4726 59.129 20.6985C59.5369 20.9244 61.5825 20.8948 62.3674 20.2336C62.8517 19.8258 62.8038 19.2781 61.9698 19.5594C61.3868 19.7556 60.0834 19.8126 59.5911 20.0151Z" fill="url(#paint87_linear_510_15354)"/>
<path d="M59.9109 18.1174C59.9109 18.1174 59.2965 18.2344 59.1254 18.928C58.9845 19.5002 59.1402 19.7415 59.1402 19.7415L59.5521 19.5629C59.5521 19.5629 59.4055 18.8088 59.9109 18.1174Z" fill="url(#paint88_linear_510_15354)"/>
<path opacity="0.5" d="M59.207 19.8726C59.2247 19.9245 59.3822 20.4237 59.7729 20.5862C60.1637 20.7488 60.474 20.6604 60.474 20.6604C60.474 20.6604 60.0427 20.5275 59.8402 20.2269C59.6383 19.9268 59.5219 19.6501 59.5219 19.6501L59.207 19.8726Z" fill="url(#paint89_linear_510_15354)"/>
<path d="M60.3282 19.2132C60.3282 19.2132 60.3145 18.5738 60.6853 18.1425C61.0561 17.7113 61.4063 17.7301 61.4063 17.7301C61.4063 17.7301 60.9346 17.9936 60.8108 18.5122C60.7292 18.8539 60.6847 19.1454 60.6847 19.1454L60.3282 19.2132Z" fill="url(#paint90_linear_510_15354)"/>
<path d="M61.6368 18.8832C61.6368 18.8832 61.6259 18.3727 61.922 18.0287C62.218 17.6847 62.4976 17.6996 62.4976 17.6996C62.4976 17.6996 62.1211 17.91 62.0224 18.3236C61.9574 18.5963 61.922 18.829 61.922 18.829L61.6368 18.8832Z" fill="url(#paint91_linear_510_15354)"/>
<path opacity="0.5" d="M60.418 19.4092C60.418 19.4092 60.6558 19.9626 61.1681 20.1537C61.6804 20.3442 62.1789 20.1537 62.1789 20.1537C62.1789 20.1537 61.4779 20.0544 61.2354 19.7817C60.993 19.5091 60.8578 19.2529 60.8578 19.2529L60.418 19.4092Z" fill="url(#paint92_linear_510_15354)"/>
<path opacity="0.5" d="M61.5703 18.9922C61.5703 18.9922 61.8846 19.5056 62.4191 19.6214C62.9536 19.7366 63.4197 19.4765 63.4197 19.4765C63.4197 19.4765 62.7118 19.4787 62.4328 19.2432C62.1539 19.0081 61.9833 18.7737 61.9833 18.7737L61.5703 18.9922Z" fill="url(#paint93_linear_510_15354)"/>
<path d="M57.6094 20.4938C57.6094 20.4938 59.1935 19.4675 60.6835 18.969C62.1729 18.4704 64.5191 18.1418 64.5191 18.1418C64.5191 18.1418 61.9253 19.0814 60.809 19.4094C59.6926 19.7379 57.6094 20.4938 57.6094 20.4938Z" fill="url(#paint94_linear_510_15354)"/>
<path d="M55.4922 19.4887C55.4922 19.4887 57.6553 19.5514 59.1322 17.8521C60.609 16.1527 60.1738 13.8887 60.1738 13.8887C60.1738 13.8887 59.0945 15.0934 58.2052 16.0689C57.1191 17.2605 55.4922 19.4887 55.4922 19.4887Z" fill="url(#paint95_linear_510_15354)"/>
<path d="M56.5873 15.3277C55.1869 16.5393 55.4932 19.4891 55.4932 19.4891C55.4932 19.4891 57.1201 17.2609 58.2062 16.0699C59.0955 15.0944 60.1748 13.8896 60.1748 13.8896C60.1748 13.8896 58.0003 14.1047 56.5873 15.3277Z" fill="url(#paint96_linear_510_15354)"/>
<path opacity="0.5" d="M56.5873 15.3277C55.1869 16.5393 55.4932 19.4891 55.4932 19.4891C55.4932 19.4891 57.1201 17.2609 58.2062 16.0699C59.0955 15.0944 60.1748 13.8896 60.1748 13.8896C60.1748 13.8896 58.0003 14.1047 56.5873 15.3277Z" fill="url(#paint97_linear_510_15354)"/>
<path opacity="0.5" d="M56.9352 18.0529C56.6101 18.4944 56.4298 18.896 56.8959 18.8766C57.3619 18.8578 59.0943 17.7694 59.4212 16.7968C59.6231 16.1961 59.2974 15.7535 58.731 16.4272C58.3351 16.8978 57.2507 17.6245 56.9352 18.0529Z" fill="url(#paint98_linear_510_15354)"/>
<path d="M56.2244 16.2634C56.2244 16.2634 55.7601 16.6827 55.9746 17.3644C56.1514 17.9263 56.4098 18.0518 56.4098 18.0518L56.6688 17.685C56.6688 17.685 56.1514 17.1162 56.2244 16.2634Z" fill="url(#paint99_linear_510_15354)"/>
<path opacity="0.5" d="M56.5391 18.1271C56.5813 18.1625 56.9749 18.5065 57.3936 18.4426C57.8123 18.3787 58.0308 18.1419 58.0308 18.1419C58.0308 18.1419 57.5932 18.252 57.2641 18.1009C56.9355 17.9491 56.6925 17.7734 56.6925 17.7734L56.5391 18.1271Z" fill="url(#paint100_linear_510_15354)"/>
<path d="M57.1501 16.9821C57.1501 16.9821 56.8062 16.4425 56.8986 15.8818C56.9916 15.3205 57.3007 15.155 57.3007 15.155C57.3007 15.155 57.0349 15.6256 57.1986 16.1328C57.3064 16.467 57.42 16.7391 57.42 16.7391L57.1501 16.9821Z" fill="url(#paint101_linear_510_15354)"/>
<path d="M58.0961 16.0216C58.0961 16.0216 57.8218 15.5909 57.8953 15.1431C57.9695 14.6953 58.2165 14.563 58.2165 14.563C58.2165 14.563 58.0043 14.9383 58.1349 15.3433C58.2211 15.6097 58.3118 15.8277 58.3118 15.8277L58.0961 16.0216Z" fill="url(#paint102_linear_510_15354)"/>
<path opacity="0.5" d="M57.3242 17.1052C57.3242 17.1052 57.8148 17.4543 58.3516 17.3517C58.8884 17.2484 59.2152 16.8263 59.2152 16.8263C59.2152 16.8263 58.5649 17.1058 58.2158 16.9986C57.8667 16.8913 57.6186 16.7424 57.6186 16.7424L57.3242 17.1052Z" fill="url(#paint103_linear_510_15354)"/>
<path opacity="0.5" d="M58.0938 16.1476C58.0938 16.1476 58.6294 16.4232 59.1456 16.244C59.6625 16.0655 59.9254 15.6006 59.9254 15.6006C59.9254 15.6006 59.3219 15.9702 58.9608 15.9143C58.6003 15.8584 58.3333 15.7466 58.3333 15.7466L58.0938 16.1476Z" fill="url(#paint104_linear_510_15354)"/>
<path d="M55.4961 19.4887C55.4961 19.4887 56.3164 17.7882 57.3301 16.5886C58.3437 15.3889 60.1777 13.8887 60.1777 13.8887C60.1777 13.8887 58.4498 16.0387 57.6666 16.8994C56.8834 17.7597 55.4961 19.4887 55.4961 19.4887Z" fill="url(#paint105_linear_510_15354)"/>
<path d="M1.19557 37.3142C1.51616 36.8983 4.79161 33.5145 5.24055 32.8174C4.2805 33.7164 3.35011 34.454 2.40946 35.373C1.78996 35.9782 0.829342 36.9474 0.414062 37.7186C0.632541 39.0934 1.75859 39.5292 2.87608 39.1202C1.94627 38.9376 1.11286 38.6946 1.00732 37.9884C1.68786 37.8772 4.94164 37.1328 5.71401 36.7466C3.42256 36.8721 2.54352 37.1681 1.19557 37.3142Z" fill="#B25109"/>
<path d="M11.9453 37.8397C13.0303 37.8402 16.7575 37.1723 20.4968 36.6155C23.2931 36.1991 26.014 35.9515 28.0887 35.5151C24.5412 35.6789 16.8665 36.3719 11.9453 37.8397Z" fill="#B25109"/>
<defs>
<linearGradient id="paint0_linear_510_15354" x1="0.633326" y1="20.0698" x2="76.956" y2="20.0698" gradientUnits="userSpaceOnUse">
<stop stop-color="#E18C34"/>
<stop offset="0.3667" stop-color="#EEA74E"/>
<stop offset="0.7535" stop-color="#F8BE64"/>
<stop offset="1" stop-color="#FCC66C"/>
</linearGradient>
<linearGradient id="paint1_linear_510_15354" x1="19.8174" y1="30.4054" x2="43.5798" y2="30.4054" gradientUnits="userSpaceOnUse">
<stop stop-color="#FFD035"/>
<stop offset="1" stop-color="#FFAD33"/>
</linearGradient>
<linearGradient id="paint2_linear_510_15354" x1="-2.8063" y1="35.1869" x2="26.5768" y2="35.1869" gradientUnits="userSpaceOnUse">
<stop stop-color="#FFD035"/>
<stop offset="1" stop-color="#FFAD33"/>
</linearGradient>
<linearGradient id="paint3_linear_510_15354" x1="23.8216" y1="19.7134" x2="48.2991" y2="19.7134" gradientUnits="userSpaceOnUse">
<stop stop-color="#FFD035"/>
<stop offset="1" stop-color="#FFAD33"/>
</linearGradient>
<linearGradient id="paint4_linear_510_15354" x1="32.8653" y1="10.0848" x2="54.6603" y2="10.0848" gradientUnits="userSpaceOnUse">
<stop stop-color="#FFD035"/>
<stop offset="1" stop-color="#FFAD33"/>
</linearGradient>
<linearGradient id="paint5_linear_510_15354" x1="46.011" y1="18.8285" x2="77.3015" y2="18.8285" gradientUnits="userSpaceOnUse">
<stop stop-color="#FFD035"/>
<stop offset="1" stop-color="#FFAD33"/>
</linearGradient>
<linearGradient id="paint6_linear_510_15354" x1="20.9689" y1="13.8595" x2="33.9606" y2="13.8595" gradientUnits="userSpaceOnUse">
<stop stop-color="#FEDC7C"/>
<stop offset="0.2943" stop-color="#FEE9AC"/>
<stop offset="0.6115" stop-color="#FFF5D9"/>
<stop offset="0.8574" stop-color="#FFFCF5"/>
<stop offset="1" stop-color="white"/>
</linearGradient>
<linearGradient id="paint7_linear_510_15354" x1="16.996" y1="20.9167" x2="20.7463" y2="20.9167" gradientUnits="userSpaceOnUse">
<stop stop-color="#FEDC7C"/>
<stop offset="0.2943" stop-color="#FEE9AC"/>
<stop offset="0.6115" stop-color="#FFF5D9"/>
<stop offset="0.8574" stop-color="#FFFCF5"/>
<stop offset="1" stop-color="white"/>
</linearGradient>
<linearGradient id="paint8_linear_510_15354" x1="7.53517" y1="30.7537" x2="10.0226" y2="30.7537" gradientUnits="userSpaceOnUse">
<stop stop-color="#FEDC7C"/>
<stop offset="0.2943" stop-color="#FEE9AC"/>
<stop offset="0.6115" stop-color="#FFF5D9"/>
<stop offset="0.8574" stop-color="#FFFCF5"/>
<stop offset="1" stop-color="white"/>
</linearGradient>
<linearGradient id="paint9_linear_510_15354" x1="9.37151" y1="36.8211" x2="10.7963" y2="36.8211" gradientUnits="userSpaceOnUse">
<stop stop-color="#FEDC7C"/>
<stop offset="0.2943" stop-color="#FEE9AC"/>
<stop offset="0.6115" stop-color="#FFF5D9"/>
<stop offset="0.8574" stop-color="#FFFCF5"/>
<stop offset="1" stop-color="white"/>
</linearGradient>
<linearGradient id="paint10_linear_510_15354" x1="32.6911" y1="34.4177" x2="34.1621" y2="34.4177" gradientUnits="userSpaceOnUse">
<stop stop-color="#FEDC7C"/>
<stop offset="0.2943" stop-color="#FEE9AC"/>
<stop offset="0.6115" stop-color="#FFF5D9"/>
<stop offset="0.8574" stop-color="#FFFCF5"/>
<stop offset="1" stop-color="white"/>
</linearGradient>
<linearGradient id="paint11_linear_510_15354" x1="54.0349" y1="23.2047" x2="58.9223" y2="23.2047" gradientUnits="userSpaceOnUse">
<stop stop-color="#FEDC7C"/>
<stop offset="0.2943" stop-color="#FEE9AC"/>
<stop offset="0.6115" stop-color="#FFF5D9"/>
<stop offset="0.8574" stop-color="#FFFCF5"/>
<stop offset="1" stop-color="white"/>
</linearGradient>
<linearGradient id="paint12_linear_510_15354" x1="-5.32702" y1="26.4932" x2="49.2065" y2="26.4932" gradientUnits="userSpaceOnUse">
<stop stop-color="#FFD035"/>
<stop offset="1" stop-color="#FFAD33"/>
</linearGradient>
<linearGradient id="paint13_linear_510_15354" x1="37.2873" y1="24.1543" x2="37.2873" y2="15.0662" gradientUnits="userSpaceOnUse">
<stop stop-color="#6C2B15"/>
<stop offset="1" stop-color="#A92407"/>
</linearGradient>
<linearGradient id="paint14_linear_510_15354" x1="26.4959" y1="16.9001" x2="48.0734" y2="16.9001" gradientUnits="userSpaceOnUse">
<stop stop-color="#A92407"/>
<stop offset="1" stop-color="#6C2B15"/>
</linearGradient>
<linearGradient id="paint15_linear_510_15354" x1="26.3272" y1="16.9065" x2="48.2412" y2="16.9065" gradientUnits="userSpaceOnUse">
<stop stop-color="#C14419"/>
<stop offset="1" stop-color="#9E2B15"/>
</linearGradient>
<linearGradient id="paint16_linear_510_15354" x1="29.2539" y1="15.0617" x2="32.876" y2="15.0617" gradientUnits="userSpaceOnUse">
<stop stop-color="#C14419"/>
<stop offset="1" stop-color="#9E2B15"/>
</linearGradient>
<linearGradient id="paint17_linear_510_15354" x1="42.2889" y1="17.4938" x2="45.911" y2="17.4938" gradientUnits="userSpaceOnUse">
<stop stop-color="#E05342"/>
<stop offset="1" stop-color="#C14419"/>
</linearGradient>
<linearGradient id="paint18_linear_510_15354" x1="39.5157" y1="13.356" x2="43.7684" y2="13.356" gradientUnits="userSpaceOnUse">
<stop stop-color="#C14419"/>
<stop offset="1" stop-color="#9E2B15"/>
</linearGradient>
<linearGradient id="paint19_linear_510_15354" x1="36.8749" y1="17.2595" x2="40.9282" y2="17.2595" gradientUnits="userSpaceOnUse">
<stop stop-color="#E05342"/>
<stop offset="1" stop-color="#C14419"/>
</linearGradient>
<linearGradient id="paint20_linear_510_15354" x1="32.8674" y1="20.4273" x2="36.9207" y2="20.4273" gradientUnits="userSpaceOnUse">
<stop stop-color="#E05342"/>
<stop offset="1" stop-color="#C14419"/>
</linearGradient>
<linearGradient id="paint21_linear_510_15354" x1="31.0674" y1="20.1546" x2="33.8962" y2="19.4861" gradientUnits="userSpaceOnUse">
<stop stop-color="#C14419"/>
<stop offset="1" stop-color="#9E2B15"/>
</linearGradient>
<linearGradient id="paint22_linear_510_15354" x1="32.8514" y1="20.5007" x2="32.8514" y2="11.8882" gradientUnits="userSpaceOnUse">
<stop stop-color="#E05342"/>
<stop offset="1" stop-color="#FFAAA2"/>
</linearGradient>
<linearGradient id="paint23_linear_510_15354" x1="21.0596" y1="39.688" x2="21.0596" y2="29.2415" gradientUnits="userSpaceOnUse">
<stop stop-color="#6C2B15"/>
<stop offset="1" stop-color="#A92407"/>
</linearGradient>
<linearGradient id="paint24_linear_510_15354" x1="10.2222" y1="29.643" x2="31.7997" y2="29.643" gradientUnits="userSpaceOnUse">
<stop stop-color="#A92407"/>
<stop offset="1" stop-color="#6C2B15"/>
</linearGradient>
<linearGradient id="paint25_linear_510_15354" x1="10.0486" y1="29.8304" x2="32.0211" y2="29.8304" gradientUnits="userSpaceOnUse">
<stop stop-color="#C14419"/>
<stop offset="1" stop-color="#9E2B15"/>
</linearGradient>
<linearGradient id="paint26_linear_510_15354" x1="12.9803" y1="29.2372" x2="16.6024" y2="29.2372" gradientUnits="userSpaceOnUse">
<stop stop-color="#C14419"/>
<stop offset="1" stop-color="#9E2B15"/>
</linearGradient>
<linearGradient id="paint27_linear_510_15354" x1="26.0159" y1="31.5742" x2="29.638" y2="31.5742" gradientUnits="userSpaceOnUse">
<stop stop-color="#E05342"/>
<stop offset="1" stop-color="#C14419"/>
</linearGradient>
<linearGradient id="paint28_linear_510_15354" x1="23.2421" y1="27.5318" x2="27.4948" y2="27.5318" gradientUnits="userSpaceOnUse">
<stop stop-color="#C14419"/>
<stop offset="1" stop-color="#9E2B15"/>
</linearGradient>
<linearGradient id="paint29_linear_510_15354" x1="20.5979" y1="31.4348" x2="24.6512" y2="31.4348" gradientUnits="userSpaceOnUse">
<stop stop-color="#E05342"/>
<stop offset="1" stop-color="#C14419"/>
</linearGradient>
<linearGradient id="paint30_linear_510_15354" x1="16.5981" y1="33.7153" x2="20.6514" y2="33.7153" gradientUnits="userSpaceOnUse">
<stop stop-color="#E05342"/>
<stop offset="1" stop-color="#C14419"/>
</linearGradient>
<linearGradient id="paint31_linear_510_15354" x1="14.7221" y1="34.025" x2="17.551" y2="33.3564" gradientUnits="userSpaceOnUse">
<stop stop-color="#C14419"/>
<stop offset="1" stop-color="#9E2B15"/>
</linearGradient>
<linearGradient id="paint32_linear_510_15354" x1="16.5777" y1="34.6763" x2="16.5777" y2="26.0637" gradientUnits="userSpaceOnUse">
<stop stop-color="#E05342"/>
<stop offset="1" stop-color="#FFAAA2"/>
</linearGradient>
<linearGradient id="paint33_linear_510_15354" x1="21.3765" y1="35.8946" x2="21.3765" y2="32.0271" gradientUnits="userSpaceOnUse">
<stop stop-color="#6C2B15"/>
<stop offset="1" stop-color="#A92407"/>
</linearGradient>
<linearGradient id="paint34_linear_510_15354" x1="30.871" y1="32.5002" x2="31.5083" y2="32.5002" gradientUnits="userSpaceOnUse">
<stop stop-color="#812407"/>
<stop offset="1" stop-color="#6C2B15"/>
</linearGradient>
<linearGradient id="paint35_linear_510_15354" x1="38.1138" y1="24.5381" x2="57.1608" y2="36.145" gradientUnits="userSpaceOnUse">
<stop stop-color="#CD1617"/>
<stop offset="0.2634" stop-color="#DD1F17"/>
<stop offset="0.7134" stop-color="#F42C17"/>
<stop offset="1" stop-color="#FC3117"/>
</linearGradient>
<linearGradient id="paint36_linear_510_15354" x1="38.1138" y1="24.5381" x2="57.1608" y2="36.145" gradientUnits="userSpaceOnUse">
<stop stop-color="#CD1617"/>
<stop offset="0.2634" stop-color="#DD1F17"/>
<stop offset="0.7134" stop-color="#F42C17"/>
<stop offset="1" stop-color="#FC3117"/>
</linearGradient>
<linearGradient id="paint37_linear_510_15354" x1="34.4784" y1="25.9044" x2="58.9084" y2="25.7773" gradientUnits="userSpaceOnUse">
<stop stop-color="#CD1617"/>
<stop offset="0.2634" stop-color="#DD1F17"/>
<stop offset="0.7134" stop-color="#F42C17"/>
<stop offset="1" stop-color="#FC3117"/>
</linearGradient>
<linearGradient id="paint38_linear_510_15354" x1="34.4809" y1="26.46" x2="58.9109" y2="26.3329" gradientUnits="userSpaceOnUse">
<stop stop-color="#CD1617"/>
<stop offset="0.2634" stop-color="#DD1F17"/>
<stop offset="0.7134" stop-color="#F42C17"/>
<stop offset="1" stop-color="#FC3117"/>
</linearGradient>
<linearGradient id="paint39_linear_510_15354" x1="35.8368" y1="26.4529" x2="57.1599" y2="26.3421" gradientUnits="userSpaceOnUse">
<stop stop-color="#FF493B"/>
<stop offset="0.2954" stop-color="#FF534E"/>
<stop offset="0.7258" stop-color="#FF5F65"/>
<stop offset="1" stop-color="#FF636D"/>
</linearGradient>
<linearGradient id="paint40_linear_510_15354" x1="34.5185" y1="31.6344" x2="35.8678" y2="31.6274" gradientUnits="userSpaceOnUse">
<stop stop-color="#CD1617"/>
<stop offset="1" stop-color="#CD1617"/>
</linearGradient>
<linearGradient id="paint41_linear_510_15354" x1="57.1529" y1="27.4247" x2="58.9214" y2="28.5024" gradientUnits="userSpaceOnUse">
<stop stop-color="#CD1617"/>
<stop offset="1" stop-color="#CD1617"/>
</linearGradient>
<linearGradient id="paint42_linear_510_15354" x1="39.7133" y1="25.2575" x2="53.5181" y2="31.6063" gradientUnits="userSpaceOnUse">
<stop stop-color="#CD1617"/>
<stop offset="0.2634" stop-color="#DD1F17"/>
<stop offset="0.7134" stop-color="#F42C17"/>
<stop offset="1" stop-color="#FC3117"/>
</linearGradient>
<linearGradient id="paint43_linear_510_15354" x1="38.7321" y1="22.8026" x2="48.9878" y2="29.0523" gradientUnits="userSpaceOnUse">
<stop stop-color="#FF493B"/>
<stop offset="0.0454" stop-color="#FF5447"/>
<stop offset="0.301" stop-color="#FF9188"/>
<stop offset="0.5334" stop-color="#FFC0BB"/>
<stop offset="0.7347" stop-color="#FFE2E0"/>
<stop offset="0.897" stop-color="#FFF7F7"/>
<stop offset="1" stop-color="white"/>
</linearGradient>
<linearGradient id="paint44_linear_510_15354" x1="41.1801" y1="28.2484" x2="41.1712" y2="26.5434" gradientUnits="userSpaceOnUse">
<stop stop-color="#FF493B"/>
<stop offset="0.2954" stop-color="#FF534E"/>
<stop offset="0.7258" stop-color="#FF5F65"/>
<stop offset="1" stop-color="#FF636D"/>
</linearGradient>
<linearGradient id="paint45_linear_510_15354" x1="42.7814" y1="27.2027" x2="42.7713" y2="25.266" gradientUnits="userSpaceOnUse">
<stop stop-color="#FF493B"/>
<stop offset="0.2954" stop-color="#FF534E"/>
<stop offset="0.7258" stop-color="#FF5F65"/>
<stop offset="1" stop-color="#FF636D"/>
</linearGradient>
<linearGradient id="paint46_linear_510_15354" x1="40.2269" y1="29.6439" x2="40.2223" y2="28.7498" gradientUnits="userSpaceOnUse">
<stop stop-color="#FF493B"/>
<stop offset="0.2954" stop-color="#FF534E"/>
<stop offset="0.7258" stop-color="#FF5F65"/>
<stop offset="1" stop-color="#FF636D"/>
</linearGradient>
<linearGradient id="paint47_linear_510_15354" x1="44.9888" y1="26.4056" x2="44.9793" y2="24.5843" gradientUnits="userSpaceOnUse">
<stop stop-color="#FF493B"/>
<stop offset="0.2954" stop-color="#FF534E"/>
<stop offset="0.7258" stop-color="#FF5F65"/>
<stop offset="1" stop-color="#FF636D"/>
</linearGradient>
<linearGradient id="paint48_linear_510_15354" x1="47.249" y1="26.2108" x2="47.2404" y2="24.5686" gradientUnits="userSpaceOnUse">
<stop stop-color="#FF493B"/>
<stop offset="0.2954" stop-color="#FF534E"/>
<stop offset="0.7258" stop-color="#FF5F65"/>
<stop offset="1" stop-color="#FF636D"/>
</linearGradient>
<linearGradient id="paint49_linear_510_15354" x1="49.1253" y1="26.3842" x2="49.1176" y2="24.9098" gradientUnits="userSpaceOnUse">
<stop stop-color="#FF493B"/>
<stop offset="0.2954" stop-color="#FF534E"/>
<stop offset="0.7258" stop-color="#FF5F65"/>
<stop offset="1" stop-color="#FF636D"/>
</linearGradient>
<linearGradient id="paint50_linear_510_15354" x1="50.8448" y1="26.9547" x2="50.8369" y2="25.4355" gradientUnits="userSpaceOnUse">
<stop stop-color="#FF493B"/>
<stop offset="0.2954" stop-color="#FF534E"/>
<stop offset="0.7258" stop-color="#FF5F65"/>
<stop offset="1" stop-color="#FF636D"/>
</linearGradient>
<linearGradient id="paint51_linear_510_15354" x1="52.1376" y1="27.3395" x2="52.1326" y2="26.3892" gradientUnits="userSpaceOnUse">
<stop stop-color="#FF493B"/>
<stop offset="0.2954" stop-color="#FF534E"/>
<stop offset="0.7258" stop-color="#FF5F65"/>
<stop offset="1" stop-color="#FF636D"/>
</linearGradient>
<linearGradient id="paint52_linear_510_15354" x1="42.6336" y1="28.3139" x2="50.5117" y2="28.2729" gradientUnits="userSpaceOnUse">
<stop stop-color="#FF493B"/>
<stop offset="0.2954" stop-color="#FF534E"/>
<stop offset="0.7258" stop-color="#FF5F65"/>
<stop offset="1" stop-color="#FF636D"/>
</linearGradient>
<linearGradient id="paint53_linear_510_15354" x1="35.7677" y1="13.0154" x2="77.2877" y2="13.0154" gradientUnits="userSpaceOnUse">
<stop stop-color="#E18C34"/>
<stop offset="0.3667" stop-color="#EEA74E"/>
<stop offset="0.7535" stop-color="#F8BE64"/>
<stop offset="1" stop-color="#FCC66C"/>
</linearGradient>
<linearGradient id="paint54_linear_510_15354" x1="35.7695" y1="3.05043" x2="77.2893" y2="3.05043" gradientUnits="userSpaceOnUse">
<stop stop-color="#E18C34"/>
<stop offset="0.3667" stop-color="#EEA74E"/>
<stop offset="0.7535" stop-color="#F8BE64"/>
<stop offset="1" stop-color="#FCC66C"/>
</linearGradient>
<linearGradient id="paint55_linear_510_15354" x1="35.7711" y1="12.0159" x2="77.2909" y2="12.0159" gradientUnits="userSpaceOnUse">
<stop stop-color="#E18C34"/>
<stop offset="0.3667" stop-color="#EEA74E"/>
<stop offset="0.7535" stop-color="#F8BE64"/>
<stop offset="1" stop-color="#FCC66C"/>
</linearGradient>
<linearGradient id="paint56_linear_510_15354" x1="35.7695" y1="15.4819" x2="77.2896" y2="15.4819" gradientUnits="userSpaceOnUse">
<stop stop-color="#E18C34"/>
<stop offset="0.3667" stop-color="#EEA74E"/>
<stop offset="0.7535" stop-color="#F8BE64"/>
<stop offset="1" stop-color="#FCC66C"/>
</linearGradient>
<linearGradient id="paint57_linear_510_15354" x1="72.9656" y1="19.3767" x2="66.0471" y2="19.3767" gradientUnits="userSpaceOnUse">
<stop stop-color="#FEDC7C"/>
<stop offset="0.2031" stop-color="#FEE291"/>
<stop offset="0.6215" stop-color="#FFF0C8"/>
<stop offset="1" stop-color="white"/>
</linearGradient>
<linearGradient id="paint58_linear_510_15354" x1="56.6811" y1="9.0654" x2="52.2343" y2="9.0654" gradientUnits="userSpaceOnUse">
<stop stop-color="#FEDC7C"/>
<stop offset="0.2031" stop-color="#FEE291"/>
<stop offset="0.6215" stop-color="#FFF0C8"/>
<stop offset="1" stop-color="white"/>
</linearGradient>
<linearGradient id="paint59_linear_510_15354" x1="44.6999" y1="3.141" x2="39.1249" y2="3.141" gradientUnits="userSpaceOnUse">
<stop stop-color="#FEDC7C"/>
<stop offset="0.2031" stop-color="#FEE291"/>
<stop offset="0.6215" stop-color="#FFF0C8"/>
<stop offset="1" stop-color="white"/>
</linearGradient>
<linearGradient id="paint60_linear_510_15354" x1="22.5815" y1="18.4502" x2="27.6844" y2="19.5441" gradientUnits="userSpaceOnUse">
<stop stop-color="#AF3345"/>
<stop offset="1" stop-color="#7C2424"/>
</linearGradient>
<linearGradient id="paint61_linear_510_15354" x1="21.4864" y1="19.0025" x2="29.0821" y2="20.6307" gradientUnits="userSpaceOnUse">
<stop stop-color="#AF3345"/>
<stop offset="1" stop-color="#7C2424"/>
</linearGradient>
<linearGradient id="paint62_linear_510_15354" x1="52.9276" y1="22.4445" x2="57.763" y2="24.4083" gradientUnits="userSpaceOnUse">
<stop stop-color="#AF3345"/>
<stop offset="1" stop-color="#7C2424"/>
</linearGradient>
<linearGradient id="paint63_linear_510_15354" x1="51.7497" y1="22.7979" x2="58.9471" y2="25.7211" gradientUnits="userSpaceOnUse">
<stop stop-color="#AF3345"/>
<stop offset="1" stop-color="#7C2424"/>
</linearGradient>
<linearGradient id="paint64_linear_510_15354" x1="46.5443" y1="12.7591" x2="46.5443" y2="23.736" gradientUnits="userSpaceOnUse">
<stop stop-color="#96CC24"/>
<stop offset="0.2337" stop-color="#87BC21"/>
<stop offset="0.7147" stop-color="#6DA01D"/>
<stop offset="0.9946" stop-color="#63961B"/>
</linearGradient>
<linearGradient id="paint65_linear_510_15354" x1="44.2224" y1="17.7126" x2="45.7878" y2="20.4241" gradientUnits="userSpaceOnUse">
<stop stop-color="#387229"/>
<stop offset="0.5434" stop-color="#257A1B"/>
<stop offset="0.9946" stop-color="#1B7F13"/>
</linearGradient>
<linearGradient id="paint66_linear_510_15354" x1="43.5395" y1="19.3393" x2="44.349" y2="20.7414" gradientUnits="userSpaceOnUse">
<stop stop-color="#387229"/>
<stop offset="0.5434" stop-color="#257A1B"/>
<stop offset="0.9946" stop-color="#1B7F13"/>
</linearGradient>
<linearGradient id="paint67_linear_510_15354" x1="46.714" y1="15.6766" x2="48.2628" y2="18.3591" gradientUnits="userSpaceOnUse">
<stop stop-color="#387229"/>
<stop offset="0.5434" stop-color="#257A1B"/>
<stop offset="0.9946" stop-color="#1B7F13"/>
</linearGradient>
<linearGradient id="paint68_linear_510_15354" x1="44.8604" y1="17.1644" x2="46.2307" y2="19.5378" gradientUnits="userSpaceOnUse">
<stop stop-color="#387229"/>
<stop offset="0.5434" stop-color="#257A1B"/>
<stop offset="0.9946" stop-color="#1B7F13"/>
</linearGradient>
<linearGradient id="paint69_linear_510_15354" x1="45.1775" y1="19.8261" x2="45.6576" y2="20.6576" gradientUnits="userSpaceOnUse">
<stop stop-color="#387229"/>
<stop offset="0.5434" stop-color="#257A1B"/>
<stop offset="0.9946" stop-color="#1B7F13"/>
</linearGradient>
<linearGradient id="paint70_linear_510_15354" x1="43.8551" y1="20.4595" x2="51.9853" y2="20.4595" gradientUnits="userSpaceOnUse">
<stop stop-color="#96CC24"/>
<stop offset="0.3327" stop-color="#99CF25"/>
<stop offset="0.6077" stop-color="#A4D726"/>
<stop offset="0.8613" stop-color="#B5E529"/>
<stop offset="0.9946" stop-color="#C1EF2B"/>
</linearGradient>
<linearGradient id="paint71_linear_510_15354" x1="48.1625" y1="18.3834" x2="50.0372" y2="21.6305" gradientUnits="userSpaceOnUse">
<stop stop-color="#387229"/>
<stop offset="0.5434" stop-color="#257A1B"/>
<stop offset="0.9946" stop-color="#1B7F13"/>
</linearGradient>
<linearGradient id="paint72_linear_510_15354" x1="46.5407" y1="19.5923" x2="47.7819" y2="21.742" gradientUnits="userSpaceOnUse">
<stop stop-color="#387229"/>
<stop offset="0.5434" stop-color="#257A1B"/>
<stop offset="0.9946" stop-color="#1B7F13"/>
</linearGradient>
<linearGradient id="paint73_linear_510_15354" x1="44.2735" y1="20.7859" x2="45.1837" y2="22.3623" gradientUnits="userSpaceOnUse">
<stop stop-color="#387229"/>
<stop offset="0.5434" stop-color="#257A1B"/>
<stop offset="0.9946" stop-color="#1B7F13"/>
</linearGradient>
<linearGradient id="paint74_linear_510_15354" x1="23.5636" y1="17.7659" x2="23.5636" y2="28.7429" gradientUnits="userSpaceOnUse">
<stop stop-color="#96CC24"/>
<stop offset="0.2337" stop-color="#87BC21"/>
<stop offset="0.7147" stop-color="#6DA01D"/>
<stop offset="0.9946" stop-color="#63961B"/>
</linearGradient>
<linearGradient id="paint75_linear_510_15354" x1="25.8899" y1="22.7195" x2="24.3245" y2="25.4309" gradientUnits="userSpaceOnUse">
<stop stop-color="#387229"/>
<stop offset="0.5434" stop-color="#257A1B"/>
<stop offset="0.9946" stop-color="#1B7F13"/>
</linearGradient>
<linearGradient id="paint76_linear_510_15354" x1="26.5681" y1="24.3464" x2="25.7585" y2="25.7484" gradientUnits="userSpaceOnUse">
<stop stop-color="#387229"/>
<stop offset="0.5434" stop-color="#257A1B"/>
<stop offset="0.9946" stop-color="#1B7F13"/>
</linearGradient>
<linearGradient id="paint77_linear_510_15354" x1="23.3906" y1="20.6833" x2="21.8418" y2="23.3659" gradientUnits="userSpaceOnUse">
<stop stop-color="#387229"/>
<stop offset="0.5434" stop-color="#257A1B"/>
<stop offset="0.9946" stop-color="#1B7F13"/>
</linearGradient>
<linearGradient id="paint78_linear_510_15354" x1="25.2449" y1="22.1712" x2="23.8746" y2="24.5445" gradientUnits="userSpaceOnUse">
<stop stop-color="#387229"/>
<stop offset="0.5434" stop-color="#257A1B"/>
<stop offset="0.9946" stop-color="#1B7F13"/>
</linearGradient>
<linearGradient id="paint79_linear_510_15354" x1="24.9312" y1="24.8327" x2="24.4511" y2="25.6643" gradientUnits="userSpaceOnUse">
<stop stop-color="#387229"/>
<stop offset="0.5434" stop-color="#257A1B"/>
<stop offset="0.9946" stop-color="#1B7F13"/>
</linearGradient>
<linearGradient id="paint80_linear_510_15354" x1="26.2489" y1="25.4661" x2="18.1187" y2="25.4661" gradientUnits="userSpaceOnUse">
<stop stop-color="#96CC24"/>
<stop offset="0.3327" stop-color="#99CF25"/>
<stop offset="0.6077" stop-color="#A4D726"/>
<stop offset="0.8613" stop-color="#B5E529"/>
<stop offset="0.9946" stop-color="#C1EF2B"/>
</linearGradient>
<linearGradient id="paint81_linear_510_15354" x1="21.9516" y1="23.3902" x2="20.0768" y2="26.6373" gradientUnits="userSpaceOnUse">
<stop stop-color="#387229"/>
<stop offset="0.5434" stop-color="#257A1B"/>
<stop offset="0.9946" stop-color="#1B7F13"/>
</linearGradient>
<linearGradient id="paint82_linear_510_15354" x1="23.5658" y1="24.5993" x2="22.3247" y2="26.749" gradientUnits="userSpaceOnUse">
<stop stop-color="#387229"/>
<stop offset="0.5434" stop-color="#257A1B"/>
<stop offset="0.9946" stop-color="#1B7F13"/>
</linearGradient>
<linearGradient id="paint83_linear_510_15354" x1="25.8331" y1="25.7927" x2="24.923" y2="27.3691" gradientUnits="userSpaceOnUse">
<stop stop-color="#387229"/>
<stop offset="0.5434" stop-color="#257A1B"/>
<stop offset="0.9946" stop-color="#1B7F13"/>
</linearGradient>
<linearGradient id="paint84_linear_510_15354" x1="61.0644" y1="16.2363" x2="61.0644" y2="21.3207" gradientUnits="userSpaceOnUse">
<stop stop-color="#96CC24"/>
<stop offset="0.2337" stop-color="#87BC21"/>
<stop offset="0.7147" stop-color="#6DA01D"/>
<stop offset="0.9946" stop-color="#63961B"/>
</linearGradient>
<linearGradient id="paint85_linear_510_15354" x1="61.0644" y1="16.2361" x2="61.0644" y2="21.3206" gradientUnits="userSpaceOnUse">
<stop stop-color="#96CC24"/>
<stop offset="0.2337" stop-color="#87BC21"/>
<stop offset="0.7147" stop-color="#6DA01D"/>
<stop offset="0.9946" stop-color="#63961B"/>
</linearGradient>
<linearGradient id="paint86_linear_510_15354" x1="59.8173" y1="17.1581" x2="61.4188" y2="19.9319" gradientUnits="userSpaceOnUse">
<stop stop-color="#387229"/>
<stop offset="0.5434" stop-color="#257A1B"/>
<stop offset="0.9946" stop-color="#1B7F13"/>
</linearGradient>
<linearGradient id="paint87_linear_510_15354" x1="58.3662" y1="20.1537" x2="62.7741" y2="20.1537" gradientUnits="userSpaceOnUse">
<stop stop-color="#96CC24"/>
<stop offset="0.3327" stop-color="#99CF25"/>
<stop offset="0.6077" stop-color="#A4D726"/>
<stop offset="0.8613" stop-color="#B5E529"/>
<stop offset="0.9946" stop-color="#C1EF2B"/>
</linearGradient>
<linearGradient id="paint88_linear_510_15354" x1="59.2502" y1="18.4523" x2="59.8066" y2="19.4161" gradientUnits="userSpaceOnUse">
<stop stop-color="#387229"/>
<stop offset="0.5434" stop-color="#257A1B"/>
<stop offset="0.9946" stop-color="#1B7F13"/>
</linearGradient>
<linearGradient id="paint89_linear_510_15354" x1="59.4796" y1="19.675" x2="60.155" y2="20.8448" gradientUnits="userSpaceOnUse">
<stop stop-color="#387229"/>
<stop offset="0.5434" stop-color="#257A1B"/>
<stop offset="0.9946" stop-color="#1B7F13"/>
</linearGradient>
<linearGradient id="paint90_linear_510_15354" x1="60.6377" y1="18.0739" x2="61.1133" y2="18.8978" gradientUnits="userSpaceOnUse">
<stop stop-color="#387229"/>
<stop offset="0.5434" stop-color="#257A1B"/>
<stop offset="0.9946" stop-color="#1B7F13"/>
</linearGradient>
<linearGradient id="paint91_linear_510_15354" x1="61.8838" y1="17.9742" x2="62.2635" y2="18.6318" gradientUnits="userSpaceOnUse">
<stop stop-color="#387229"/>
<stop offset="0.5434" stop-color="#257A1B"/>
<stop offset="0.9946" stop-color="#1B7F13"/>
</linearGradient>
<linearGradient id="paint92_linear_510_15354" x1="60.9147" y1="19.1228" x2="61.677" y2="20.4433" gradientUnits="userSpaceOnUse">
<stop stop-color="#387229"/>
<stop offset="0.5434" stop-color="#257A1B"/>
<stop offset="0.9946" stop-color="#1B7F13"/>
</linearGradient>
<linearGradient id="paint93_linear_510_15354" x1="62.0207" y1="18.6375" x2="62.9642" y2="19.8354" gradientUnits="userSpaceOnUse">
<stop stop-color="#387229"/>
<stop offset="0.5434" stop-color="#257A1B"/>
<stop offset="0.9946" stop-color="#1B7F13"/>
</linearGradient>
<linearGradient id="paint94_linear_510_15354" x1="60.7028" y1="18.6918" x2="61.4188" y2="19.932" gradientUnits="userSpaceOnUse">
<stop stop-color="#387229"/>
<stop offset="0.5434" stop-color="#257A1B"/>
<stop offset="0.9946" stop-color="#1B7F13"/>
</linearGradient>
<linearGradient id="paint95_linear_510_15354" x1="56.2318" y1="14.0555" x2="58.8736" y2="18.3995" gradientUnits="userSpaceOnUse">
<stop stop-color="#96CC24"/>
<stop offset="0.2337" stop-color="#87BC21"/>
<stop offset="0.7147" stop-color="#6DA01D"/>
<stop offset="0.9946" stop-color="#63961B"/>
</linearGradient>
<linearGradient id="paint96_linear_510_15354" x1="56.2328" y1="14.0558" x2="58.8746" y2="18.3998" gradientUnits="userSpaceOnUse">
<stop stop-color="#96CC24"/>
<stop offset="0.2337" stop-color="#87BC21"/>
<stop offset="0.7147" stop-color="#6DA01D"/>
<stop offset="0.9946" stop-color="#63961B"/>
</linearGradient>
<linearGradient id="paint97_linear_510_15354" x1="55.6463" y1="15.4914" x2="58.4561" y2="17.0293" gradientUnits="userSpaceOnUse">
<stop stop-color="#387229"/>
<stop offset="0.5434" stop-color="#257A1B"/>
<stop offset="0.9946" stop-color="#1B7F13"/>
</linearGradient>
<linearGradient id="paint98_linear_510_15354" x1="55.961" y1="18.8078" x2="59.7272" y2="16.5174" gradientUnits="userSpaceOnUse">
<stop stop-color="#96CC24"/>
<stop offset="0.3327" stop-color="#99CF25"/>
<stop offset="0.6077" stop-color="#A4D726"/>
<stop offset="0.8613" stop-color="#B5E529"/>
<stop offset="0.9946" stop-color="#C1EF2B"/>
</linearGradient>
<linearGradient id="paint99_linear_510_15354" x1="55.8335" y1="16.8928" x2="56.8097" y2="17.4271" gradientUnits="userSpaceOnUse">
<stop stop-color="#387229"/>
<stop offset="0.5434" stop-color="#257A1B"/>
<stop offset="0.9946" stop-color="#1B7F13"/>
</linearGradient>
<linearGradient id="paint100_linear_510_15354" x1="56.6688" y1="17.8168" x2="57.8536" y2="18.4653" gradientUnits="userSpaceOnUse">
<stop stop-color="#387229"/>
<stop offset="0.5434" stop-color="#257A1B"/>
<stop offset="0.9946" stop-color="#1B7F13"/>
</linearGradient>
<linearGradient id="paint101_linear_510_15354" x1="56.8231" y1="15.848" x2="57.6575" y2="16.3048" gradientUnits="userSpaceOnUse">
<stop stop-color="#387229"/>
<stop offset="0.5434" stop-color="#257A1B"/>
<stop offset="0.9946" stop-color="#1B7F13"/>
</linearGradient>
<linearGradient id="paint102_linear_510_15354" x1="57.8348" y1="15.1163" x2="58.5009" y2="15.4809" gradientUnits="userSpaceOnUse">
<stop stop-color="#387229"/>
<stop offset="0.5434" stop-color="#257A1B"/>
<stop offset="0.9946" stop-color="#1B7F13"/>
</linearGradient>
<linearGradient id="paint103_linear_510_15354" x1="57.5995" y1="16.6025" x2="58.9372" y2="17.3347" gradientUnits="userSpaceOnUse">
<stop stop-color="#387229"/>
<stop offset="0.5434" stop-color="#257A1B"/>
<stop offset="0.9946" stop-color="#1B7F13"/>
</linearGradient>
<linearGradient id="paint104_linear_510_15354" x1="58.2945" y1="15.6105" x2="59.723" y2="16.1437" gradientUnits="userSpaceOnUse">
<stop stop-color="#387229"/>
<stop offset="0.5434" stop-color="#257A1B"/>
<stop offset="0.9946" stop-color="#1B7F13"/>
</linearGradient>
<linearGradient id="paint105_linear_510_15354" x1="57.2027" y1="16.3413" x2="58.459" y2="17.0289" gradientUnits="userSpaceOnUse">
<stop stop-color="#387229"/>
<stop offset="0.5434" stop-color="#257A1B"/>
<stop offset="0.9946" stop-color="#1B7F13"/>
</linearGradient>
</defs>
</svg>
