<svg width="201" height="196" viewBox="0 0 201 196" fill="none" xmlns="http://www.w3.org/2000/svg">
<path d="M100.166 195.25C99.2016 195.25 98.2377 195.002 97.3776 194.505L65.0898 175.864L65.2919 175.514L97.5797 194.155C99.176 195.076 101.157 195.076 102.752 194.155L135.05 175.508L135.252 175.858L102.954 194.505C102.094 195.002 101.13 195.25 100.166 195.25Z" fill="#9333EA"/>
<path d="M161.178 160.891L160.976 160.54L199.64 138.217C199.818 138.114 199.925 137.929 199.925 137.723C199.925 137.516 199.818 137.332 199.64 137.229L159.539 114.077L159.741 113.727L199.842 136.879C200.147 137.055 200.33 137.37 200.33 137.723C200.33 138.075 200.147 138.391 199.842 138.567L161.178 160.891Z" fill="#9333EA"/>
<path d="M37.8882 160.159L0.487637 138.565C0.181853 138.389 0 138.073 0 137.72C0 137.368 0.182527 137.053 0.487637 136.876L40.5972 113.719L40.7992 114.069L0.689698 137.226C0.511212 137.329 0.404123 137.515 0.404123 137.72C0.404123 137.927 0.510539 138.112 0.689698 138.215L38.0896 159.809L37.8882 160.159Z" fill="#9333EA"/>
<path d="M48.8247 121.698C48.4563 121.698 48.1027 121.622 47.8333 121.466L25.5474 108.6C25.2598 108.433 25.1009 108.195 25.1016 107.929C25.1016 107.621 25.3184 107.319 25.6963 107.102L47.6831 94.4069C48.3559 94.0189 49.3447 93.9806 49.9333 94.3214L72.2192 107.188C72.5068 107.354 72.665 107.593 72.665 107.859C72.665 108.166 72.4482 108.468 72.0703 108.686L50.0835 121.381C49.7192 121.591 49.2612 121.698 48.8247 121.698ZM48.0057 121.167C48.4825 121.442 49.3555 121.403 49.9111 121.081L71.8979 108.387C72.1626 108.234 72.3195 108.036 72.3195 107.858C72.3202 107.681 72.1707 107.558 72.0467 107.486L49.7609 94.6197C49.2847 94.3456 48.4118 94.3847 47.8555 94.7053L25.8687 107.4C25.604 107.553 25.4464 107.75 25.4464 107.929C25.4457 108.106 25.5953 108.228 25.7192 108.301L48.0057 121.167Z" fill="#9333EA"/>
<path d="M48.8247 183.777C48.4563 183.777 48.1027 183.701 47.8333 183.544L25.5474 170.678C25.2598 170.512 25.1009 170.274 25.1016 170.007C25.1016 169.699 25.3184 169.398 25.6963 169.18L47.6831 156.485C48.3559 156.097 49.3447 156.059 49.9333 156.4L72.2192 169.266C72.5068 169.433 72.665 169.67 72.665 169.937C72.665 170.245 72.4482 170.547 72.0703 170.764L50.0835 183.459C49.7192 183.669 49.2612 183.777 48.8247 183.777ZM48.0057 183.245C48.4825 183.521 49.3555 183.481 49.9111 183.16L71.8979 170.465C72.1626 170.312 72.3195 170.115 72.3195 169.936C72.3202 169.759 72.1707 169.637 72.0467 169.565L49.7609 156.698C49.2847 156.424 48.4118 156.463 47.8555 156.784L25.8687 169.478C25.604 169.631 25.4464 169.829 25.4464 170.007C25.4457 170.184 25.5953 170.307 25.7192 170.379L48.0057 183.245Z" fill="#9333EA"/>
<path d="M143.688 121.698C143.32 121.698 142.966 121.622 142.697 121.466L120.411 108.6C120.123 108.433 119.965 108.195 119.965 107.929C119.965 107.621 120.182 107.319 120.56 107.102L142.546 94.4069C143.219 94.0189 144.208 93.9806 144.797 94.3214L167.082 107.188C167.37 107.354 167.529 107.593 167.528 107.859C167.528 108.166 167.311 108.468 166.934 108.686L144.947 121.381C144.582 121.591 144.124 121.698 143.688 121.698ZM142.869 121.167C143.346 121.442 144.218 121.403 144.774 121.081L166.761 108.387C167.026 108.234 167.183 108.036 167.183 107.858C167.184 107.681 167.034 107.558 166.91 107.486L144.624 94.6197C144.148 94.3456 143.275 94.3847 142.719 94.7053L120.732 107.4C120.468 107.553 120.31 107.75 120.31 107.929C120.31 108.106 120.459 108.228 120.583 108.301L142.869 121.167Z" fill="#9333EA"/>
<path d="M143.688 183.777C143.32 183.777 142.966 183.701 142.697 183.544L120.411 170.678C120.123 170.512 119.965 170.274 119.965 170.007C119.965 169.699 120.182 169.398 120.56 169.18L142.546 156.485C143.219 156.097 144.208 156.059 144.797 156.4L167.082 169.266C167.37 169.433 167.529 169.67 167.528 169.937C167.528 170.245 167.311 170.547 166.934 170.764L144.947 183.459C144.582 183.669 144.124 183.777 143.688 183.777ZM142.869 183.245C143.346 183.521 144.218 183.481 144.774 183.16L166.761 170.465C167.026 170.312 167.183 170.115 167.183 169.936C167.184 169.759 167.034 169.637 166.91 169.565L144.624 156.698C144.148 156.424 143.275 156.463 142.719 156.784L120.732 169.478C120.468 169.631 120.31 169.829 120.31 170.007C120.31 170.184 120.459 170.307 120.583 170.379L142.869 183.245Z" fill="#9333EA"/>
<path d="M167.358 160.556V163.291L143.691 176.955L120.023 163.291V160.556L167.358 160.556Z" fill="#22C55E" fill-opacity="0.4"/>
<path d="M143.691 174.22L120.023 160.556L143.691 146.892L167.358 160.556L143.691 174.22Z" fill="#9333EA"/>
<path d="M143.691 173.901L120.3 160.396L120.023 160.556L143.691 174.221L167.358 160.557L167.081 160.397L143.691 173.901Z" fill="#9333EA"/>
<path d="M143.692 171.068L125.488 160.559L143.691 150.049L161.895 160.559L143.692 171.068Z" fill="#9333EA"/>
<path opacity="0.5" d="M143.693 171.069L125.488 160.56L143.692 150.05L161.895 160.56L143.693 171.069Z" fill="#9333EA"/>
<path opacity="0.5" d="M143.691 147.399L161.895 157.91V160.56L143.691 150.05V147.399Z" fill="#9333EA"/>
<path opacity="0.5" d="M143.693 150.05L125.488 160.56V157.909L143.692 147.399L143.693 150.05Z" fill="#9333EA"/>
<path opacity="0.5" d="M143.693 168.419L125.488 157.909L143.692 147.399L161.895 157.91L143.693 168.419Z" fill="#9333EA"/>
<path opacity="0.5" d="M143.691 154.097L150.631 158.103L150.966 157.909L143.691 153.71L136.418 157.909L136.753 158.103L143.691 154.097Z" fill="#9333EA"/>
<path opacity="0.5" d="M143.691 168.419V171.07L161.894 160.56V157.91L143.691 168.419Z" fill="#9333EA"/>
<path opacity="0.5" d="M125.488 157.909V160.56L143.693 171.069V168.419L125.488 157.909Z" fill="#9333EA"/>
<path opacity="0.8" d="M143.693 168.129L125.739 157.764L125.488 157.908L143.693 168.418L161.895 157.909L161.645 157.764L143.693 168.129Z" fill="#9333EA"/>
<path d="M68.8892 161.245V163.979L45.2226 177.643L21.5547 163.979V161.244L68.8892 161.245Z" fill="#22C55E" fill-opacity="0.4"/>
<path d="M45.2226 174.909L21.5547 161.244L45.2219 147.58L68.8892 161.245L45.2226 174.909Z" fill="#9333EA"/>
<path d="M45.2226 174.588L21.8315 161.084L21.5547 161.244L45.2226 174.908L68.8892 161.244L68.6124 161.085L45.2226 174.588Z" fill="#9333EA"/>
<path d="M45.2192 171.757L27.0156 161.247L45.2185 150.737L63.4221 161.247L45.2192 171.757Z" fill="#9333EA"/>
<path opacity="0.5" d="M45.2199 171.757L27.0156 161.247L45.2192 150.737L63.4227 161.247L45.2199 171.757Z" fill="#9333EA"/>
<path opacity="0.5" d="M45.2188 148.087L63.4223 158.597V161.247L45.2188 150.737V148.087Z" fill="#9333EA"/>
<path opacity="0.5" d="M45.2199 150.737L27.0156 161.247V158.597L45.2192 148.087L45.2199 150.737Z" fill="#9333EA"/>
<path opacity="0.5" d="M45.2199 169.106L27.0156 158.597L45.2192 148.087L63.4227 158.597L45.2199 169.106Z" fill="#9333EA"/>
<path opacity="0.5" d="M45.2188 162.796L37.9453 158.597L45.2188 154.397L52.4929 158.597L45.2188 162.796Z" fill="#9333EA"/>
<path opacity="0.5" d="M45.2188 154.784L52.1582 158.79L52.4929 158.597L45.2188 154.397L37.9453 158.597L38.2801 158.79L45.2188 154.784Z" fill="#9333EA"/>
<path opacity="0.5" d="M45.2188 169.106V171.756L63.4216 161.246V158.597L45.2188 169.106Z" fill="#9333EA"/>
<path opacity="0.5" d="M27.0156 158.597V161.247L45.2199 171.757V169.106L27.0156 158.597Z" fill="#9333EA"/>
<path opacity="0.8" d="M45.2199 168.818L27.2662 158.452L27.0156 158.597L45.2199 169.107L63.4227 158.598L63.1722 158.453L45.2199 168.818Z" fill="#9333EA"/>
<path d="M69.5611 97.2594V99.994L45.8945 113.658L22.2266 99.994V97.2588L69.5611 97.2594Z" fill="#22C55E" fill-opacity="0.4"/>
<path d="M45.8945 110.923L22.2266 97.2587L45.8938 83.5947L69.5611 97.2593L45.8945 110.923Z" fill="#9333EA"/>
<path d="M45.8945 110.603L22.5034 97.0986L22.2266 97.2583L45.8945 110.923L69.5611 97.2589L69.2842 97.0993L45.8945 110.603Z" fill="#9333EA"/>
<path d="M45.895 107.772L27.6914 97.2618L45.8943 86.752L64.0978 97.2618L45.895 107.772Z" fill="#9333EA"/>
<path opacity="0.5" d="M45.8956 107.772L27.6914 97.2618L45.895 86.752L64.0985 97.2618L45.8956 107.772Z" fill="#9333EA"/>
<path opacity="0.5" d="M45.8945 84.1016L64.0981 94.612V97.2617L45.8945 86.7519V84.1016Z" fill="#9333EA"/>
<path opacity="0.5" d="M45.8956 86.7519L27.6914 97.2617V94.6113L45.895 84.1016L45.8956 86.7519Z" fill="#9333EA"/>
<path opacity="0.5" d="M45.8956 105.121L27.6914 94.6113L45.895 84.1016L64.0985 94.612L45.8956 105.121Z" fill="#9333EA"/>
<path opacity="0.5" d="M45.8946 98.8111L38.6211 94.6116L45.8946 90.4121L53.1687 94.6116L45.8946 98.8111Z" fill="#9333EA"/>
<path opacity="0.5" d="M45.8946 90.7987L52.834 94.8049L53.1687 94.6116L45.8946 90.4121L38.6211 94.6116L38.9558 94.8049L45.8946 90.7987Z" fill="#9333EA"/>
<path opacity="0.5" d="M45.8945 105.121V107.772L64.0974 97.262V94.6123L45.8945 105.121Z" fill="#9333EA"/>
<path opacity="0.5" d="M27.6914 94.6113V97.2617L45.8956 107.771V105.121L27.6914 94.6113Z" fill="#9333EA"/>
<path opacity="0.8" d="M45.8956 104.832L27.942 94.4668L27.6914 94.6116L45.8956 105.121L64.0985 94.6123L63.848 94.4675L45.8956 104.832Z" fill="#9333EA"/>
<path d="M169.917 99.9528V102.687L146.25 116.351L122.582 102.687V99.9521L169.917 99.9528Z" fill="#22C55E" fill-opacity="0.4"/>
<path d="M146.25 113.617L122.582 99.952L146.249 86.2881L169.917 99.9527L146.25 113.617Z" fill="#9333EA"/>
<path d="M146.25 113.297L122.859 99.793L122.582 99.9526L146.25 113.617L169.917 99.9533L169.64 99.7936L146.25 113.297Z" fill="#9333EA"/>
<path d="M146.25 110.465L128.047 99.9551L146.25 89.4453L164.453 99.9551L146.25 110.465Z" fill="#9333EA"/>
<path opacity="0.5" d="M146.251 110.465L128.047 99.9551L146.25 89.4453L164.454 99.9551L146.251 110.465Z" fill="#9333EA"/>
<path opacity="0.5" d="M146.25 86.7949L164.454 97.3054V99.9551L146.25 89.4453V86.7949Z" fill="#9333EA"/>
<path opacity="0.5" d="M146.251 89.4453L128.047 99.9551V97.3047L146.25 86.7949L146.251 89.4453Z" fill="#9333EA"/>
<path opacity="0.5" d="M146.251 107.814L128.047 97.3047L146.25 86.7949L164.454 97.3054L146.251 107.814Z" fill="#9333EA"/>
<path opacity="0.5" d="M146.25 101.504L138.977 97.3049L146.25 93.1055L153.524 97.3049L146.25 101.504Z" fill="#9333EA"/>
<path opacity="0.5" d="M146.25 93.4921L153.189 97.4982L153.524 97.3049L146.25 93.1055L138.977 97.3049L139.311 97.4982L146.25 93.4921Z" fill="#9333EA"/>
<path opacity="0.5" d="M146.25 107.815V110.465L164.453 99.9554V97.3057L146.25 107.815Z" fill="#9333EA"/>
<path opacity="0.5" d="M128.047 97.3047V99.9551L146.251 110.465V107.814L128.047 97.3047Z" fill="#9333EA"/>
<path opacity="0.8" d="M146.251 107.526L128.297 97.1602L128.047 97.305L146.251 107.815L164.454 97.3056L164.203 97.1608L146.251 107.526Z" fill="#9333EA"/>
<path d="M96.3173 67.4626L54.2539 43.1778L96.316 18.8936L138.379 43.1784L96.3173 67.4626Z" fill="#9333EA"/>
<path opacity="0.7" d="M96.3132 65.2755L58.0391 43.1776L96.3125 21.0811L134.587 43.1783L96.3132 65.2755Z" fill="#3B0764"/>
<path d="M96.3156 168.181L96.2145 168.122L41.2617 136.395L96.3142 104.611L96.4152 104.67L151.368 136.397L96.3156 168.181ZM42.0699 136.395L96.3156 167.713L150.56 136.396L96.3142 105.077L42.0699 136.395Z" fill="#9333EA"/>
<path d="M96.3173 160.68L54.2539 136.396L96.316 112.111L138.379 136.396L96.3173 160.68Z" fill="white"/>
<path d="M138.378 43.1777V136.396L96.3164 160.68V67.4619L138.378 43.1777Z" fill="#9333EA"/>
<path d="M54.2539 43.1768V136.395L96.3173 160.68V67.4616L54.2539 43.1768Z" fill="#581C87"/>
<g opacity="0.51">
<path d="M57.1016 49.3623V133.15L93.4656 154.144V70.357L57.1016 49.3623Z" fill="#581C87"/>
</g>
<path d="M132.068 67.4297V69.8935L102.625 86.8927V84.429L132.068 67.4297Z" fill="#3B0764"/>
<path d="M132.068 77.8477V80.3114L102.625 97.3101V94.8463L132.068 77.8477Z" fill="#3B0764"/>
<path d="M132.068 88.2656V90.7294L102.625 107.729V105.265L132.068 88.2656Z" fill="#3B0764"/>
<path d="M132.068 96.9541V99.4179L102.625 116.417V113.953L132.068 96.9541Z" fill="#3B0764"/>
<path d="M132.068 107.371V109.835L102.625 126.834V124.37L132.068 107.371Z" fill="#3B0764"/>
<path d="M132.068 117.789V120.253L102.625 137.252V134.788L132.068 117.789Z" fill="#3B0764"/>
<path d="M96.3173 66.6731L54.9376 42.7822L54.2539 43.1769L96.3173 67.4618L138.379 43.1776L137.695 42.7836L96.3173 66.6731Z" fill="#9333EA"/>
<path d="M61.457 79.0355L66.6917 82.0584L66.6924 81.1498L61.4577 78.127L61.457 79.0355Z" fill="#42E8E0"/>
<path d="M67.5352 82.5407L70.3876 84.1875L70.3882 83.2796L67.5358 81.6328L67.5352 82.5407Z" fill="#42E8E0"/>
<path d="M74.8242 86.7465L76.8879 87.938L76.8886 87.0294L74.8249 85.8379L74.8242 86.7465Z" fill="#42E8E0"/>
<path d="M73.3164 85.8776L74.0216 86.2851L74.0229 85.3765L73.3178 84.9697L73.3164 85.8776Z" fill="#42E8E0"/>
<path d="M71.2383 84.6762L72.5193 85.4157L72.52 84.5071L71.2396 83.7676L71.2383 84.6762Z" fill="#42E8E0"/>
<path d="M66.2969 85.9818L68.3606 87.1733L68.3613 86.2654L66.2975 85.0732L66.2969 85.9818Z" fill="#42E8E0"/>
<path d="M61.4531 83.1859L65.4963 85.5204L65.4977 84.6125L61.4538 82.2773L61.4531 83.1859Z" fill="#42E8E0"/>
<path d="M68.9922 97.906L73.0354 100.241L73.0368 99.3325L68.9929 96.998L68.9922 97.906Z" fill="#42E8E0"/>
<path d="M66.9102 96.7045L68.1912 97.444L68.1919 96.5354L66.9115 95.7959L66.9102 96.7045Z" fill="#42E8E0"/>
<path d="M68.9727 93.7497L73.0159 96.0849L73.0165 95.1763L68.9733 92.8418L68.9727 93.7497Z" fill="#42E8E0"/>
<path d="M66.8906 92.5495L68.1717 93.2891L68.1724 92.3805L66.8913 91.6416L66.8906 92.5495Z" fill="#42E8E0"/>
<path d="M69.0168 115.839L61.3998 111.441L61.3984 112.349L69.0161 116.747L69.0168 115.839Z" fill="#42E8E0"/>
<path d="M71.7016 117.389L69.8171 116.301L69.8164 117.209L71.701 118.297L71.7016 117.389Z" fill="#42E8E0"/>
<path d="M84.0395 118.27L76.4225 113.872L76.4219 114.781L84.0388 119.179L84.0395 118.27Z" fill="#42E8E0"/>
<path d="M86.7218 119.82L84.8366 118.732L84.8359 119.64L86.7205 120.729L86.7218 119.82Z" fill="#42E8E0"/>
<path d="M63.4667 110.559L61.403 109.367L61.4023 110.276L63.466 111.467L63.4667 110.559Z" fill="#42E8E0"/>
<path d="M75.3222 113.248L73.2585 112.057L73.2578 112.965L75.3215 114.156L75.3222 113.248Z" fill="#42E8E0"/>
<path d="M68.3095 113.354L64.2663 111.02L64.2656 111.927L68.3088 114.263L68.3095 113.354Z" fill="#42E8E0"/>
<path d="M70.3911 114.556L69.1107 113.816L69.1094 114.724L70.3904 115.464L70.3911 114.556Z" fill="#42E8E0"/>
<path d="M75.2672 117.369L71.224 115.034L71.2227 115.942L75.2659 118.277L75.2672 117.369Z" fill="#42E8E0"/>
<path d="M77.3475 118.57L76.0671 117.831L76.0664 118.739L77.3468 119.479L77.3475 118.57Z" fill="#42E8E0"/>
<path d="M75.3228 115.323L73.2591 114.132L73.2578 115.04L75.3215 116.232L75.3228 115.323Z" fill="#42E8E0"/>
<path d="M80.165 118.12L76.1218 115.785L76.1211 116.693L80.1643 119.028L80.165 118.12Z" fill="#42E8E0"/>
<path d="M82.2427 119.322L80.9616 118.582L80.9609 119.49L82.2413 120.229L82.2427 119.322Z" fill="#42E8E0"/>
<path d="M65.6254 109.729L61.403 107.291L61.4023 108.2L65.6247 110.638L65.6254 109.729Z" fill="#42E8E0"/>
<path d="M69.4802 111.954L66.4264 110.191L66.4258 111.099L69.4789 112.863L69.4802 111.954Z" fill="#42E8E0"/>
<path d="M72.3417 113.608L70.278 112.416L70.2773 113.325L72.341 114.516L72.3417 113.608Z" fill="#42E8E0"/>
<path d="M86.3047 95.4447L90.5271 97.8829L90.5277 96.9743L86.3054 94.5361L86.3047 95.4447Z" fill="#42E8E0"/>
<path d="M82.4492 93.2201L85.5023 94.9828L85.5037 94.0748L82.4499 92.3115L82.4492 93.2201Z" fill="#42E8E0"/>
<path d="M79.5859 91.5668L81.6496 92.7583L81.6503 91.8497L79.5866 90.6582L79.5859 91.5668Z" fill="#42E8E0"/>
<path d="M84.5508 92.35L88.7731 94.7875L88.7745 93.8796L84.5521 91.4414L84.5508 92.35Z" fill="#42E8E0"/>
<path d="M80.6992 90.1247L83.753 91.888L83.7537 90.9794L80.7006 89.2168L80.6992 90.1247Z" fill="#42E8E0"/>
<path d="M77.8359 88.4721L79.8996 89.6635L79.9003 88.755L77.8366 87.5635L77.8359 88.4721Z" fill="#42E8E0"/>
<path d="M69.5977 96.1898L71.0235 97.0129L71.0249 96.105L69.5983 95.2812L69.5977 96.1898Z" fill="#42E8E0"/>
<path d="M66.9141 94.6394L68.7993 95.7278L68.8 94.8192L66.9154 93.7314L66.9141 94.6394Z" fill="#42E8E0"/>
<path d="M65.6527 107.667L61.431 105.229L61.4297 106.136L65.652 108.575L65.6527 107.667Z" fill="#42E8E0"/>
<path d="M69.5069 109.892L66.4538 108.129L66.4531 109.038L69.5062 110.801L69.5069 109.892Z" fill="#42E8E0"/>
<path d="M72.373 111.546L70.3093 110.354L70.3086 111.262L72.3716 112.454L72.373 111.546Z" fill="#42E8E0"/>
<path d="M62.8608 103.978L61.4343 103.154L61.4336 104.063L62.8595 104.886L62.8608 103.978Z" fill="#42E8E0"/>
<path d="M65.5454 105.527L63.6608 104.439L63.6602 105.347L65.5447 106.436L65.5454 105.527Z" fill="#42E8E0"/>
<path d="M69.3807 107.742L66.3444 105.989L66.3438 106.897L69.3801 108.651L69.3807 107.742Z" fill="#42E8E0"/>
<path d="M70.4922 90.4682L71.9181 91.2919L71.9187 90.3833L70.4929 89.5596L70.4922 90.4682Z" fill="#42E8E0"/>
<path d="M67.8086 88.9184L69.6931 90.0061L69.6938 89.0982L67.8093 88.0098L67.8086 88.9184Z" fill="#42E8E0"/>
<path d="M63.9727 86.7035L67.0096 88.4567L67.0103 87.5481L63.9733 85.7949L63.9727 86.7035Z" fill="#42E8E0"/>
<path d="M72.9883 93.8373L76.0252 95.5905L76.0259 94.6826L72.989 92.9287L72.9883 93.8373Z" fill="#42E8E0"/>
<path d="M68.0469 91.1322L72.1399 93.4957L72.1406 92.5871L68.0475 90.2236L68.0469 91.1322Z" fill="#42E8E0"/>
<path d="M65.9648 89.9311L67.2459 90.6699L67.2466 89.762L65.9662 89.0225L65.9648 89.9311Z" fill="#42E8E0"/>
<path d="M63.9688 88.7777L65.2491 89.5173L65.2505 88.6087L63.9694 87.8691L63.9688 88.7777Z" fill="#42E8E0"/>
<path d="M66.0117 100.503L70.0549 102.838L70.0563 101.929L66.0124 99.5947L66.0117 100.503Z" fill="#42E8E0"/>
<path d="M63.9297 99.3021L65.2108 100.042L65.2114 99.1331L63.931 98.3936L63.9297 99.3021Z" fill="#42E8E0"/>
<path d="M66.6367 102.943L68.0632 103.766L68.0639 102.858L66.6381 102.034L66.6367 102.943Z" fill="#42E8E0"/>
<path d="M70.9727 101.279L72.3985 102.103L72.3992 101.194L70.9733 100.371L70.9727 101.279Z" fill="#42E8E0"/>
<path d="M73.0078 102.452L76.4293 104.426L76.4307 103.518L73.0085 101.543L73.0078 102.452Z" fill="#42E8E0"/>
<path d="M77.0352 104.775L79.0706 105.949L79.0719 105.042L77.0365 103.866L77.0352 104.775Z" fill="#42E8E0"/>
<path d="M63.9531 101.392L65.8377 102.481L65.8383 101.572L63.9538 100.484L63.9531 101.392Z" fill="#42E8E0"/>
<path d="M64.1172 103.525L65.5431 104.348L65.5437 103.44L64.1179 102.616L64.1172 103.525Z" fill="#42E8E0"/>
<path d="M61.4336 101.974L63.3181 103.063L63.3195 102.154L61.4343 101.066L61.4336 101.974Z" fill="#42E8E0"/>
<path d="M68.9062 100.086L70.1866 100.825L70.1873 99.9173L68.9069 99.1777L68.9062 100.086Z" fill="#42E8E0"/>
<path d="M66.9062 98.933L68.1873 99.6726L68.188 98.764L66.9076 98.0244L66.9062 98.933Z" fill="#42E8E0"/>
<path d="M74.2812 88.5026L78.6498 91.025L78.6505 90.1164L74.2819 87.5947L74.2812 88.5026Z" fill="#42E8E0"/>
<path d="M69.3867 85.6781L73.4798 88.0409L73.4811 87.133L69.3881 84.7695L69.3867 85.6781Z" fill="#42E8E0"/>
<path d="M67.3086 84.477L68.589 85.2165L68.5896 84.3079L67.3093 83.5684L67.3086 84.477Z" fill="#42E8E0"/>
<path d="M65.3086 83.3239L66.5897 84.0635L66.5903 83.1555L65.31 82.416L65.3086 83.3239Z" fill="#42E8E0"/>
<path d="M64.2205 82.6936L61.457 81.0981L61.4577 80.1895L64.2212 81.7851L64.2205 82.6936Z" fill="#42E8E0"/>
<path d="M96.3173 49.3191L54.2539 25.0342L96.316 0.75L138.379 25.0349L96.3173 49.3191Z" fill="#9333EA"/>
<path d="M96.3153 42.6881L65.7383 25.0341L96.3146 7.38086L126.892 25.0341L96.3153 42.6881Z" fill="#3B0764"/>
<path d="M96.3146 8.57637L125.856 25.6322L126.892 25.0341L96.3146 7.38086L65.7383 25.0341L66.7735 25.6316L96.3146 8.57637Z" fill="white"/>
<path d="M138.378 25.0352V38.8001L96.3164 63.0843V49.3194L138.378 25.0352Z" fill="#9333EA"/>
<path d="M54.2539 25.0342V38.7992L96.3173 63.084V49.3191L54.2539 25.0342Z" fill="#9333EA"/>
<g opacity="0.51">
<path d="M57.1055 31.2188V35.5536L93.4695 56.5483V52.2134L57.1055 31.2188Z" fill="#3B0764"/>
</g>
<path d="M96.3173 48.5298L54.9376 24.6396L54.2539 25.0343L96.3173 49.3192L138.379 25.035L137.695 24.6403L96.3173 48.5298Z" fill="white"/>
<path d="M132.068 34.6807V37.1444L102.625 54.1437V51.6799L132.068 34.6807Z" fill="#3B0764"/>
<path opacity="0.51" d="M54.2539 25.0342V38.7992L96.3173 63.084V49.3191L54.2539 25.0342Z" fill="#3B0764"/>
</svg>
