<svg width="54" height="64" viewBox="0 0 54 64" fill="none" xmlns="http://www.w3.org/2000/svg">
<path d="M30.6591 56.696L27.2244 26.7076V20.8569H4.3466V26.7076L0.911909 56.696C0.558084 59.7866 2.79322 62.5141 5.68423 62.5141H25.8911C28.7778 62.5141 31.0129 59.7866 30.6591 56.696Z" fill="#F7F9CB"/>
<path d="M30.6511 56.6167C30.349 59.1301 28.3598 61.1268 25.8917 61.1268H5.6848C3.21665 61.1268 1.22746 59.1301 0.925417 56.6167L0.916792 56.6958C0.562966 59.7864 2.79811 62.5139 5.68912 62.5139H25.896C28.7827 62.5139 31.0221 59.7864 30.6683 56.6958L30.6511 56.6167Z" fill="#F7F9CB"/>
<path d="M30.6593 56.696L27.2246 26.7076V20.8569H10.4265V26.7076L13.8612 56.696C14.215 59.7866 11.9799 62.5141 9.08887 62.5141H25.8869C28.7779 62.5141 31.0131 59.7866 30.6593 56.696Z" fill="#F7F9CB"/>
<path d="M27.2245 20.8569H4.34668V25.4927H27.2245V20.8569Z" fill="#F7F9CB"/>
<path d="M30.6586 56.696L27.2239 26.7076V20.8569H24.7126V26.7076L28.1473 56.696C28.5011 59.7866 26.266 62.5141 23.375 62.5141H25.8863C28.7773 62.5141 31.0124 59.7866 30.6586 56.696Z" fill="#F7F9CB"/>
<path d="M21.2007 60.6945H10.3701C8.92464 60.6945 7.75098 59.4285 7.75098 57.8692V34.4156C7.75098 32.8563 8.92464 31.5903 10.3701 31.5903H21.2007C22.6462 31.5903 23.8198 32.8563 23.8198 34.4156V57.8692C23.8198 59.4331 22.6462 60.6945 21.2007 60.6945Z" fill="#7F431C"/>
<path opacity="0.5" d="M21.2018 31.5947H10.9883L13.862 56.6961C14.0346 58.2088 13.5859 59.6377 12.7445 60.6989H21.2018C22.6473 60.6989 23.8209 59.4329 23.8209 57.8736V34.42C23.8209 32.8561 22.6473 31.5947 21.2018 31.5947Z" fill="#7F431C"/>
<path d="M23.8198 33.9829H7.75098V34.3878H23.8198V33.9829Z" fill="#F7F9CB"/>
<path d="M11.3068 34.3878H23.8202V33.9829H11.2637L11.3068 34.3878Z" fill="#F7F9CB"/>
<path d="M23.8198 39.1768H7.75098V39.5817H23.8198V39.1768Z" fill="#F7F9CB"/>
<path d="M11.902 39.5817H23.8198V39.1768H11.8545L11.902 39.5817Z" fill="#F7F9CB"/>
<path d="M16.679 49.1422C16.679 49.6728 16.2777 50.1056 15.7858 50.1056C15.2939 50.1056 14.8926 49.6728 14.8926 49.1422C14.8926 48.6116 15.2939 48.1787 15.7858 48.1787C16.2777 48.1787 16.679 48.6069 16.679 49.1422Z" fill="#F7F9CB"/>
<path d="M14.4617 52.4935C14.4617 53.1451 13.9741 53.6711 13.37 53.6711C12.7659 53.6711 12.2783 53.1451 12.2783 52.4935C12.2783 51.8419 12.7659 51.3159 13.37 51.3159C13.9741 51.3159 14.4617 51.8419 14.4617 52.4935Z" fill="#F7F9CB"/>
<path d="M13.3742 51.3159C13.331 51.3159 13.2922 51.3252 13.249 51.3299L13.5165 53.6571C14.0516 53.5826 14.4658 53.0939 14.4658 52.4935C14.4615 51.8419 13.9739 51.3159 13.3742 51.3159Z" fill="#F7F9CB"/>
<path d="M19.2901 52.6008C19.2901 53.2291 18.8155 53.7411 18.2329 53.7411C17.6504 53.7411 17.1758 53.2291 17.1758 52.6008C17.1758 51.9724 17.6504 51.4604 18.2329 51.4604C18.8155 51.4604 19.2901 51.9724 19.2901 52.6008Z" fill="#F7F9CB"/>
<path d="M16.679 49.1422C16.679 49.6728 16.2777 50.1056 15.7858 50.1056C15.2939 50.1056 14.8926 49.6728 14.8926 49.1422C14.8926 48.6116 15.2939 48.1787 15.7858 48.1787C16.2777 48.1787 16.679 48.6069 16.679 49.1422Z" fill="#F7F9CB"/>
<path d="M16.679 49.1422C16.679 49.6728 16.2777 50.1056 15.7858 50.1056C15.2939 50.1056 14.8926 49.6728 14.8926 49.1422C14.8926 48.6116 15.2939 48.1787 15.7858 48.1787C16.2777 48.1787 16.679 48.6069 16.679 49.1422Z" fill="#F7F9CB"/>
<path d="M19.2901 52.6008C19.2901 53.2291 18.8155 53.7411 18.2329 53.7411C17.6504 53.7411 17.1758 53.2291 17.1758 52.6008C17.1758 51.9724 17.6504 51.4604 18.2329 51.4604C18.8155 51.4604 19.2901 51.9724 19.2901 52.6008Z" fill="#F7F9CB"/>
<path d="M19.2901 52.6008C19.2901 53.2291 18.8155 53.7411 18.2329 53.7411C17.6504 53.7411 17.1758 53.2291 17.1758 52.6008C17.1758 51.9724 17.6504 51.4604 18.2329 51.4604C18.8155 51.4604 19.2901 51.9724 19.2901 52.6008Z" fill="#F7F9CB"/>
<path d="M11.4969 36.2583C11.4581 36.1094 11.402 35.9697 11.3416 35.8952C11.2683 35.8115 11.2208 35.7929 11.0482 35.7929H10.7807C10.6598 35.7929 10.6469 35.8022 10.6469 35.9325V36.7749H11.0309C11.2424 36.7749 11.2683 36.7191 11.3243 36.4491H11.4581V37.3055H11.32C11.2812 37.0449 11.2251 36.9797 11.0309 36.9797H10.6469V37.5801C10.6469 37.9339 10.6685 37.9618 10.9921 37.9851V38.1294H9.84863V37.9851C10.1205 37.9572 10.1507 37.9339 10.1507 37.5801V36.1605C10.1507 35.8161 10.1205 35.7882 9.84863 35.7649V35.6206H11.0611C11.3675 35.6206 11.5487 35.616 11.6048 35.6113C11.6091 35.6765 11.6264 36.007 11.6436 36.235L11.4969 36.2583Z" fill="#F7F9CB"/>
<path d="M11.4492 35.616L11.5226 36.2536L11.6348 36.235C11.6175 36.007 11.6002 35.6765 11.5959 35.6113C11.5744 35.616 11.5226 35.616 11.4492 35.616Z" fill="#F7F9CB"/>
<path d="M13.8101 37.4454C13.7798 37.613 13.6806 38.0179 13.6504 38.1249H11.877V37.9807C12.1919 37.9574 12.2221 37.9295 12.2221 37.6083V36.1375C12.2221 35.8117 12.1876 35.7838 11.9201 35.7605V35.6162H13.0334V35.7605C12.7529 35.7884 12.7184 35.8164 12.7184 36.1375V37.6316C12.7184 37.8457 12.727 37.9388 12.9212 37.9434C12.9298 37.9481 13.0938 37.9481 13.1067 37.9481C13.3095 37.9481 13.3656 37.9015 13.4519 37.7991C13.5209 37.72 13.6116 37.5571 13.6763 37.3989L13.8101 37.4454Z" fill="#F7F9CB"/>
<path d="M13.8101 37.4454C13.7798 37.613 13.6806 38.0179 13.6504 38.1249H11.877V37.9807C12.1919 37.9574 12.2221 37.9295 12.2221 37.6083V36.1375C12.2221 35.8117 12.1876 35.7838 11.9201 35.7605V35.6162H13.0334V35.7605C12.7529 35.7884 12.7184 35.8164 12.7184 36.1375V37.6316C12.7184 37.8457 12.727 37.9388 12.9212 37.9434C12.9298 37.9481 13.0938 37.9481 13.1067 37.9481C13.3095 37.9481 13.3656 37.9015 13.4519 37.7991C13.5209 37.72 13.6116 37.5571 13.6763 37.3989L13.8101 37.4454Z" fill="#F7F9CB"/>
<path d="M15.2972 35.5649C15.9574 35.5649 16.4968 36.0862 16.4968 36.8449C16.4968 37.6641 15.9531 38.1807 15.28 38.1807C14.5637 38.1807 14.0459 37.6175 14.0459 36.8728C14.0459 36.2166 14.4817 35.5649 15.2972 35.5649ZM15.2455 35.7372C14.883 35.7372 14.6112 36.1235 14.6112 36.803C14.6112 37.4546 14.8528 38.0132 15.3318 38.0132C15.6726 38.0132 15.9358 37.6594 15.9358 36.952C15.9358 36.1886 15.6597 35.7372 15.2455 35.7372Z" fill="#F7F9CB"/>
<path d="M15.2972 35.5649C15.9574 35.5649 16.4968 36.0862 16.4968 36.8449C16.4968 37.6641 15.9531 38.1807 15.28 38.1807C14.5637 38.1807 14.0459 37.6175 14.0459 36.8728C14.0459 36.2166 14.4817 35.5649 15.2972 35.5649ZM15.2455 35.7372C14.883 35.7372 14.6112 36.1235 14.6112 36.803C14.6112 37.4546 14.8528 38.0132 15.3318 38.0132C15.6726 38.0132 15.9358 37.6594 15.9358 36.952C15.9358 36.1886 15.6597 35.7372 15.2455 35.7372Z" fill="#F7F9CB"/>
<path d="M19.2763 35.7603C19.0476 35.7835 18.9872 35.858 18.9742 35.9976C18.9656 36.114 18.957 36.2443 18.957 36.5143V37.0216C18.957 37.3521 18.9052 37.6872 18.7024 37.9199C18.5384 38.1061 18.2838 38.1852 18.0293 38.1852C17.7919 38.1852 17.5589 38.1294 17.3906 37.9851C17.1835 37.8175 17.0843 37.5802 17.0843 37.1473V36.1699C17.0843 35.8161 17.0541 35.7882 16.7822 35.7603V35.616H17.8869V35.7603C17.6193 35.7882 17.5848 35.8161 17.5848 36.1699V37.1938C17.5848 37.6267 17.7833 37.9106 18.163 37.9106C18.5902 37.9106 18.7757 37.5708 18.7757 36.9937V36.5096C18.7757 36.2443 18.7671 36.1047 18.7585 35.9883C18.7455 35.8115 18.642 35.7742 18.396 35.7556V35.6113H19.2806V35.7603H19.2763Z" fill="#F7F9CB"/>
<path d="M19.2763 35.7603C19.0476 35.7835 18.9872 35.858 18.9742 35.9976C18.9656 36.114 18.957 36.2443 18.957 36.5143V37.0216C18.957 37.3521 18.9052 37.6872 18.7024 37.9199C18.5384 38.1061 18.2838 38.1852 18.0293 38.1852C17.7919 38.1852 17.5589 38.1294 17.3906 37.9851C17.1835 37.8175 17.0843 37.5802 17.0843 37.1473V36.1699C17.0843 35.8161 17.0541 35.7882 16.7822 35.7603V35.616H17.8869V35.7603C17.6193 35.7882 17.5848 35.8161 17.5848 36.1699V37.1938C17.5848 37.6267 17.7833 37.9106 18.163 37.9106C18.5902 37.9106 18.7757 37.5708 18.7757 36.9937V36.5096C18.7757 36.2443 18.7671 36.1047 18.7585 35.9883C18.7455 35.8115 18.642 35.7742 18.396 35.7556V35.6113H19.2806V35.7603H19.2763Z" fill="#F7F9CB"/>
<path d="M21.705 38.1482C21.6834 38.1482 21.6402 38.1482 21.5971 38.1436C21.144 38.1203 21.0103 38.0179 20.9024 37.855C20.76 37.6409 20.6564 37.4082 20.5356 37.1754C20.4838 37.0731 20.4321 37.0498 20.3155 37.0498L20.2422 37.0451V37.6083C20.2422 37.9202 20.2767 37.9481 20.5442 37.9807V38.1249H19.4482V37.9807C19.7201 37.9481 19.7503 37.9202 19.7503 37.6083V36.1329C19.7503 35.8303 19.7158 35.7838 19.4482 35.7605V35.6162H20.4838C20.8031 35.6162 20.9844 35.6534 21.1311 35.7652C21.2735 35.8676 21.3727 36.0398 21.3727 36.2771C21.3727 36.6216 21.1613 36.8031 20.924 36.9008C20.9757 37.0172 21.1181 37.2685 21.226 37.4454C21.3511 37.6595 21.4288 37.7619 21.4978 37.8457C21.5798 37.9481 21.6187 37.976 21.7222 38.0132L21.705 38.1482ZM20.3414 36.8869C20.4968 36.8869 20.6133 36.8589 20.6909 36.7845C20.8075 36.6774 20.8592 36.5285 20.8592 36.333C20.8592 35.9234 20.6392 35.7791 20.4407 35.7791C20.3458 35.7791 20.2983 35.7931 20.2767 35.8164C20.2508 35.8396 20.2465 35.8862 20.2465 35.9653V36.8869H20.3414Z" fill="#F7F9CB"/>
<path d="M21.705 38.1482C21.6834 38.1482 21.6402 38.1482 21.5971 38.1436C21.144 38.1203 21.0103 38.0179 20.9024 37.855C20.76 37.6409 20.6564 37.4082 20.5356 37.1754C20.4838 37.0731 20.4321 37.0498 20.3155 37.0498L20.2422 37.0451V37.6083C20.2422 37.9202 20.2767 37.9481 20.5442 37.9807V38.1249H19.4482V37.9807C19.7201 37.9481 19.7503 37.9202 19.7503 37.6083V36.1329C19.7503 35.8303 19.7158 35.7838 19.4482 35.7605V35.6162H20.4838C20.8031 35.6162 20.9844 35.6534 21.1311 35.7652C21.2735 35.8676 21.3727 36.0398 21.3727 36.2771C21.3727 36.6216 21.1613 36.8031 20.924 36.9008C20.9757 37.0172 21.1181 37.2685 21.226 37.4454C21.3511 37.6595 21.4288 37.7619 21.4978 37.8457C21.5798 37.9481 21.6187 37.976 21.7222 38.0132L21.705 38.1482ZM20.3414 36.8869C20.4968 36.8869 20.6133 36.8589 20.6909 36.7845C20.8075 36.6774 20.8592 36.5285 20.8592 36.333C20.8592 35.9234 20.6392 35.7791 20.4407 35.7791C20.3458 35.7791 20.2983 35.7931 20.2767 35.8164C20.2508 35.8396 20.2465 35.8862 20.2465 35.9653V36.8869H20.3414Z" fill="#F7F9CB"/>
<path d="M27.246 24.5667H4.32071C3.67779 24.5667 3.15137 24.0035 3.15137 23.3053V20.2613C3.15137 19.5678 3.67347 19 4.32071 19H27.246C27.8889 19 28.4153 19.5632 28.4153 20.2613V23.3053C28.4153 24.0035 27.8932 24.5667 27.246 24.5667Z" fill="#F7F9CB"/>
<path d="M27.246 19.0039H13.0283C13.6712 19.0039 14.1977 19.5671 14.1977 20.2653V23.3093C14.1977 24.0028 13.6756 24.5706 13.0283 24.5706H27.246C27.8933 24.5706 28.4154 24.0074 28.4154 23.3093V20.2653C28.4154 19.5671 27.8933 19.0039 27.246 19.0039Z" fill="#F7F9CB"/>
<path d="M27.2459 19.0039H25.3301C25.9773 19.0039 26.4994 19.5671 26.4994 20.2653V23.3093C26.4994 24.0028 25.9773 24.5706 25.3301 24.5706H27.2459C27.8932 24.5706 28.4153 24.0074 28.4153 23.3093V20.2653C28.4153 19.5671 27.8932 19.0039 27.2459 19.0039Z" fill="#F7F9CB"/>
<path d="M47.452 8.4458H47.2325H36.034H35.8145C35.4208 8.4458 35.1016 8.76499 35.1016 9.15867V12.4065C35.1016 12.7413 35.3332 13.0201 35.6443 13.0967C35.6434 13.0973 35.6428 13.0977 35.6419 13.0984C35.6971 13.1121 35.7549 13.1194 35.8145 13.1194H41.2512H47.452C47.5054 13.1194 47.557 13.1125 47.607 13.1014C47.926 13.0305 48.1649 12.7468 48.1649 12.4065V9.15867C48.1649 8.76499 47.8457 8.4458 47.452 8.4458Z" fill="#F08BB5"/>
<path d="M46.2547 0.245605H37.0101C36.4706 0.245605 36.0332 0.683036 36.0332 1.22249V8.44561H47.2317V2.96007L48.9891 1.66519C48.9891 1.12567 47.6275 0.245605 46.2547 0.245605Z" fill="#F298BD"/>
<path d="M52.6052 17.8682C51.9646 16.409 48.491 13.7595 47.6073 13.1016C47.5573 13.1127 47.5057 13.1195 47.4523 13.1195H41.2515C40.9632 13.3148 40.456 13.6664 39.8682 14.1092H46.7719C46.7719 14.1092 50.7521 17.2049 51.407 18.8034C51.8025 19.769 52.213 58.29 51.407 59.7695C50.2315 62.268 43.6242 63.0574 38.3721 62.46C38.3728 62.4603 38.3735 62.4606 38.3743 62.4609C39.9543 63.0966 42.1993 63.5175 44.6199 63.7023C48.4439 63.4013 51.7639 62.4602 52.6052 60.7912C53.5099 59.2409 53.0493 18.88 52.6052 17.8682Z" fill="#D2ECFA"/>
<path d="M51.4068 18.803C50.752 17.2046 46.7717 14.1089 46.7717 14.1089H39.8681C38.5015 15.1386 36.698 16.6626 36.1904 17.8679C36.0231 18.265 35.9129 21.3718 35.8496 25.7503H44.5459V19.6767C44.5459 18.2118 45.7445 17.0131 47.2094 17.0131C48.6744 17.0131 49.873 18.2117 49.873 19.6767V29.1434H50.9122C51.0864 40.5368 51.0999 58.0502 50.597 59.0217C49.3481 61.8148 41.4144 62.3947 36.4718 61.2444C36.4721 61.2447 36.4724 61.2451 36.4727 61.2455C36.8604 61.7104 37.5194 62.1164 38.372 62.4597C43.624 63.0571 50.2314 62.2677 51.4068 59.7692C52.2128 58.2896 51.8025 19.7687 51.4068 18.803Z" fill="#EEF8FE"/>
<path d="M50.9127 29.1436H49.8735V57.2684C49.8735 58.7334 48.6749 59.932 47.2099 59.932C45.745 59.932 44.5464 58.7334 44.5464 57.2684V48.3993H35.8408C35.909 55.0071 36.0331 60.2167 36.1909 60.791C36.2566 60.9479 36.3512 61.0991 36.4724 61.2445C41.4149 62.3948 49.3486 61.8149 50.5975 59.0218C51.1004 58.0504 51.0869 40.5369 50.9127 29.1436Z" fill="#F7B594"/>
<path d="M36.0338 9.04004C35.8932 9.04004 35.7793 9.15395 35.7793 9.29454V12.4968C35.7793 12.6373 35.8932 12.7512 36.0338 12.7512C36.1743 12.7512 36.2883 12.6373 36.2883 12.4968V9.29454C36.2883 9.15395 36.1743 9.04004 36.0338 9.04004Z" fill="#B54F89"/>
<path d="M36.9033 11.3096V12.4966C36.9033 12.6371 37.0172 12.7511 37.1578 12.7511C37.2984 12.7511 37.4123 12.6372 37.4123 12.4966V11.3933H37.1945C37.0878 11.3933 36.988 11.3626 36.9033 11.3096Z" fill="#B54F89"/>
<path d="M38.0264 12.4964C38.0264 12.6369 38.1403 12.7509 38.2808 12.7509C38.4214 12.7509 38.5353 12.6369 38.5353 12.4964V11.3931H38.0264V12.4964Z" fill="#B54F89"/>
<path d="M39.1514 12.4964C39.1514 12.6369 39.2653 12.7509 39.4059 12.7509C39.5464 12.7509 39.6603 12.6369 39.6603 12.4964V11.3931H39.1514V12.4964Z" fill="#B54F89"/>
<path d="M40.2744 12.4964C40.2744 12.6369 40.3884 12.7509 40.5289 12.7509C40.6694 12.7509 40.7834 12.6369 40.7834 12.4964V11.3931H40.2744V12.4964Z" fill="#B54F89"/>
<path d="M41.3994 12.4964C41.3994 12.6369 41.5133 12.7509 41.6539 12.7509C41.7945 12.7509 41.9084 12.6369 41.9084 12.4964V11.3931H41.3994V12.4964Z" fill="#B54F89"/>
<path d="M42.5244 12.4964C42.5244 12.6369 42.6383 12.7509 42.7788 12.7509C42.9194 12.7509 43.0334 12.6369 43.0334 12.4964V11.3931H42.5244V12.4964Z" fill="#B54F89"/>
<path d="M43.6475 12.4964C43.6475 12.6369 43.7614 12.7509 43.902 12.7509C44.0424 12.7509 44.1564 12.6369 44.1564 12.4964V11.3931H43.6475V12.4964Z" fill="#B54F89"/>
<path d="M44.7715 12.4964C44.7715 12.6369 44.8854 12.7509 45.026 12.7509C45.1665 12.7509 45.2804 12.6369 45.2804 12.4964V11.3931H44.7715V12.4964Z" fill="#B54F89"/>
<path d="M45.8945 12.4964C45.8945 12.6369 46.0084 12.7509 46.149 12.7509C46.2896 12.7509 46.4035 12.6369 46.4035 12.4964V11.3931H45.8945V12.4964Z" fill="#B54F89"/>
<path d="M47.3319 11.3939H47.0195V12.4972C47.0195 12.6377 47.1335 12.7517 47.274 12.7517C47.4146 12.7517 47.5285 12.6378 47.5285 12.4972V11.3574C47.4673 11.3809 47.401 11.3939 47.3319 11.3939Z" fill="#B54F89"/>
<path d="M47.3317 8.86963H37.1949C36.8917 8.86963 36.6436 9.11776 36.6436 9.42104V10.8419C36.6436 11.0385 36.7478 11.2119 36.9038 11.3096V9.29432C36.9038 9.15376 37.0177 9.03981 37.1583 9.03981C37.2989 9.03981 37.4128 9.15376 37.4128 9.29432V11.3932H38.0278V9.29432C38.0278 9.15376 38.1417 9.03981 38.2822 9.03981C38.4228 9.03981 38.5367 9.15376 38.5367 9.29432V11.3932H39.1517V9.29432C39.1517 9.15376 39.2656 9.03981 39.4062 9.03981C39.5467 9.03981 39.6607 9.15376 39.6607 9.29432V11.3932H40.2757V9.29432C40.2757 9.15376 40.3896 9.03981 40.5302 9.03981C40.6707 9.03981 40.7847 9.15376 40.7847 9.29432V11.3932H41.3996V9.29432C41.3996 9.15376 41.5136 9.03981 41.6542 9.03981C41.7947 9.03981 41.9087 9.15376 41.9087 9.29432V11.3932H42.5237V9.29432C42.5237 9.15376 42.6376 9.03981 42.7781 9.03981C42.9187 9.03981 43.0326 9.15376 43.0326 9.29432V11.3932H43.6476V9.29432C43.6476 9.15376 43.7615 9.03981 43.9021 9.03981C44.0426 9.03981 44.1565 9.15376 44.1565 9.29432V11.3932H44.7716V9.29432C44.7716 9.15376 44.8855 9.03981 45.0261 9.03981C45.1666 9.03981 45.2805 9.15376 45.2805 9.29432V11.3932H45.8955V9.29432C45.8955 9.15376 46.0094 9.03981 46.15 9.03981C46.2906 9.03981 46.4045 9.15376 46.4045 9.29432V11.3932H47.0196V9.29432C47.0196 9.15376 47.1335 9.03981 47.274 9.03981C47.4146 9.03981 47.5285 9.15376 47.5285 9.29432V11.3568C47.7354 11.2772 47.8833 11.0759 47.8833 10.8419V9.42104C47.8831 9.11776 47.635 8.86963 47.3317 8.86963Z" fill="#F3A7C7"/>
<path d="M37.1578 9.04004C37.0173 9.04004 36.9033 9.15399 36.9033 9.29454V11.3098C36.988 11.3628 37.0878 11.3935 37.1945 11.3935H37.4123V9.29458C37.4124 9.15399 37.2984 9.04004 37.1578 9.04004Z" fill="#D175A4"/>
<path d="M46.5245 0.782715H41.5892C41.1445 0.782715 40.7842 1.16757 40.7842 1.64227V6.05201C40.7842 6.5267 41.1445 6.91152 41.5892 6.91152H45.5254C46.0772 6.91152 46.5245 6.43387 46.5245 5.84473V2.84687C46.5245 2.84687 48.3068 1.85725 48.3068 1.48964C48.3068 1.12203 47.3389 0.782715 46.5245 0.782715Z" fill="#F5B1CE"/>
<path d="M35.8495 25.75C35.7579 32.0903 35.7648 41.0981 35.8402 48.3988H44.5458V25.75H35.8495Z" fill="#FDE2D4"/>
<path d="M44.6195 63.702C42.1989 63.5171 39.9539 63.0962 38.3739 62.4606C35.071 62.0854 32.3048 61.1617 31.7602 59.7692C31.3572 58.1972 31.2003 20.2275 31.7602 18.803C32.5159 16.8807 36.4949 14.1089 36.4949 14.1089H39.8678C40.4556 13.666 40.9628 13.3144 41.2511 13.1192H35.8144C35.7549 13.1192 35.6971 13.1119 35.6418 13.0981C34.6672 13.7554 33.7102 14.4527 32.8202 15.2215C32.3028 15.6684 31.8085 16.1441 31.3601 16.6606C31.348 16.6747 31.2853 16.7486 31.2733 16.7626C30.97 17.1162 30.7011 17.4456 30.5546 17.8946C30.4167 18.3175 30.4288 18.6328 30.4023 19.0732C30.4017 19.0844 30.3926 19.2546 30.3919 19.2659C30.1892 22.678 30.2297 26.0969 30.1646 29.5125C30.0997 32.9209 30.1303 36.333 30.1467 39.7415C30.1467 43.1791 30.1766 46.6169 30.2165 50.0542C30.2563 53.4802 30.1958 56.9304 30.4905 60.3472C30.514 60.6189 30.5575 60.8571 30.7163 61.0892C31.0933 61.6403 31.786 62.0099 32.3743 62.3042C33.403 62.8186 34.5613 63.1176 35.6933 63.2757C40.532 63.952 44.4098 63.7184 44.6195 63.702Z" fill="#94C6EA"/>
<path d="M36.4731 61.2455C34.4664 60.7787 32.9526 60.0267 32.5791 59.0217C32.3263 57.9842 32.1792 40.5218 32.2756 29.1434H33.8226V27.5301C33.8226 26.5471 34.6195 25.7503 35.6024 25.7503H35.85C35.9133 21.3718 36.0236 18.265 36.1908 17.8679C36.6984 16.6626 38.5019 15.1386 39.8685 14.1089H36.4956C36.4956 14.1089 32.5166 16.8807 31.7609 18.803C31.201 20.2275 31.3579 58.1972 31.7609 59.7692C32.3055 61.1617 35.0717 62.0854 38.3746 62.4606C38.3739 62.4603 38.3732 62.4599 38.3724 62.4596C37.5199 62.1164 36.8608 61.7104 36.4731 61.2455Z" fill="#ACCFEF"/>
<path d="M36.4716 61.2445C36.3505 61.099 36.2559 60.9479 36.1902 60.791C36.0324 60.2166 35.9083 55.0071 35.8401 48.3992H35.6017C34.6188 48.3992 33.822 47.6024 33.822 46.6195V29.1436H32.2749C32.1785 40.5219 32.3256 57.9843 32.5784 59.0218C32.9519 60.0268 34.4658 60.7788 36.4725 61.2456C36.4722 61.2452 36.4719 61.2449 36.4716 61.2445Z" fill="#F39977"/>
<path d="M35.8496 25.75H35.602C34.6191 25.75 33.8223 26.5468 33.8223 27.5297V29.1431V46.619C33.8223 47.602 34.6191 48.3988 35.602 48.3988H35.8404C35.765 41.0981 35.758 32.0903 35.8496 25.75Z" fill="#FBD0B8"/>
<path d="M47.2094 17.0137C45.7445 17.0137 44.5459 18.2123 44.5459 19.6773V25.7509H47.2103C48.1933 25.7509 48.9901 26.5477 48.9901 27.5306V29.144H49.873V19.6773C49.8731 18.2123 48.6744 17.0137 47.2094 17.0137Z" fill="white"/>
<path d="M48.9901 29.1436V46.6195C48.9901 47.6024 48.1932 48.3993 47.2103 48.3993H44.5459V57.2684C44.5459 58.7334 45.7445 59.932 47.2094 59.932C48.6744 59.932 49.873 58.7334 49.873 57.2684V29.1436H48.9901Z" fill="#FCD8C3"/>
<path d="M47.2103 25.75H44.5459V48.3988H47.2103C48.1932 48.3988 48.9901 47.602 48.9901 46.619V29.1431V27.5297C48.9901 26.5468 48.1932 25.75 47.2103 25.75Z" fill="#FFEFD9"/>
</svg>
