<svg width="76" height="65" viewBox="0 0 76 65" fill="none" xmlns="http://www.w3.org/2000/svg">
<path d="M53.8 28.9986L17.3067 40.6933L11.0459 42.6991C10.1063 43.0001 9.10302 42.5085 8.75781 41.596L17.3063 31.3112L28.0655 18.3658L42.7922 0.647582L44.5354 0.0884551C45.5052 -0.222398 46.5433 0.312188 46.8541 1.28238L52.3284 18.3658L54.9927 26.6795C55.3044 27.6493 54.7698 28.6878 53.8 28.9986Z" fill="#4968E8"/>
<path d="M42.7925 0.647461C43.04 7.46046 41.0526 14.3487 37.1673 19.9559C34.1324 24.3353 30.0463 27.8807 25.7803 31.0726C20.4324 35.074 14.7282 38.6002 8.75817 41.5958C8.74713 41.5664 8.7365 41.5361 8.72709 41.5054L0.588458 16.1083C0.277605 15.1385 0.81219 14.1 1.78197 13.7892L42.7925 0.647461Z" fill="#4A7AE5"/>
<path d="M50.2151 11.7682L29.6256 18.3661L17.3068 22.3135L3.94871 26.5943L1.43652 18.7538L47.7025 3.92773L50.2151 11.7682Z" fill="#262C3D"/>
<path d="M17.3067 25.5503V29.6486L15.8301 30.1219L14.6387 26.4051L17.3067 25.5503Z" fill="#DAEBEF"/>
<path d="M47.7027 3.92773L50.2149 11.7678L39.9375 15.0612C41.2991 12.0578 42.1949 8.84208 42.5863 5.56708L47.7027 3.92773Z" fill="#141923"/>
<path d="M53.8 28.9985L17.3066 40.6932V29.6485L17.6608 29.1339V25.9101L17.3066 25.5501V22.3132L29.6254 18.3657H52.3292L54.9935 26.6794C55.3044 27.6492 54.7698 28.6877 53.8 28.9985Z" fill="#4968E8"/>
<path d="M29.6254 18.3657L17.3066 22.3132V21.0517C17.3066 19.5686 18.5092 18.3657 19.9931 18.3657H29.6254Z" fill="#141923"/>
<path d="M18.521 25.1611V29.2595L17.3066 29.6485V25.5501L18.521 25.1611Z" fill="#C1D8DB"/>
<path d="M47.9683 23.4495L12.9531 34.67C12.7576 34.7326 12.5486 34.625 12.4856 34.4295C12.423 34.234 12.5306 34.025 12.7261 33.962L47.7413 22.7414C47.9368 22.6789 48.1458 22.7864 48.2088 22.9819C48.2713 23.1779 48.1634 23.3869 47.9683 23.4495Z" fill="#374E9B"/>
<path d="M48.8755 26.281L13.8603 37.5016C13.6648 37.5642 13.4558 37.4566 13.3928 37.2611C13.3302 37.0656 13.4378 36.8566 13.6333 36.7936L48.6485 25.573C48.844 25.5104 49.053 25.618 49.116 25.8135C49.1786 26.009 49.071 26.2184 48.8755 26.281Z" fill="#374E9B"/>
<path d="M42.5966 21.5441L34.0314 24.289L17.3066 29.6487V25.5504L39.2222 18.528L39.7265 18.366L41.406 17.8281L41.5786 18.366L42.5966 21.5441Z" fill="#A4BBBC"/>
<path d="M63.4308 19.5698H65.2616C66.2801 19.5698 67.1059 20.3956 67.1059 21.4141V48.0837C67.1059 49.1021 66.2801 49.9279 65.2616 49.9279H20.3662C19.3797 49.9279 18.5743 49.1532 18.5244 48.1794L63.4308 19.5698Z" fill="#4968E8"/>
<path d="M63.4304 19.5697C61.5869 26.1337 57.5921 32.0865 52.1812 36.2405C47.9548 39.4848 42.9815 41.6141 37.9449 43.3521C31.6309 45.5309 25.123 47.1477 18.5235 48.1789C18.5219 48.1474 18.5215 48.1155 18.5215 48.0832V21.4136C18.5215 20.3951 19.3473 19.5693 20.3657 19.5693H63.4304V19.5697Z" fill="#4A7AE5"/>
<path d="M30.1311 32.837H24.0633C23.4703 32.837 22.9893 32.356 22.9893 31.763V27.454C22.9893 26.8609 23.4703 26.3799 24.0633 26.3799H30.1315C30.7246 26.3799 31.2056 26.8609 31.2056 27.454V31.7626C31.2056 32.356 30.7246 32.837 30.1311 32.837Z" fill="#FFC215"/>
<path d="M38.2713 42.7446H23.5495C23.3442 42.7446 23.1777 42.5781 23.1777 42.3728C23.1777 42.1674 23.3442 42.001 23.5495 42.001H38.2713C38.4766 42.001 38.6431 42.1674 38.6431 42.3728C38.6431 42.5781 38.4766 42.7446 38.2713 42.7446Z" fill="#374E9B"/>
<path d="M24.9309 38.4851C24.8364 38.5796 24.6834 38.5796 24.5894 38.4851L24.1767 38.0724L23.764 38.4851C23.6695 38.5796 23.5165 38.5796 23.4224 38.4851C23.3284 38.391 23.3284 38.238 23.4224 38.1436L23.8351 37.7309L23.4224 37.3182C23.3279 37.2237 23.3279 37.0707 23.4224 36.9766C23.5165 36.8821 23.6695 36.8821 23.764 36.9766L24.1767 37.3893L24.5894 36.9766C24.6838 36.8821 24.8368 36.8821 24.9309 36.9766C25.0254 37.0707 25.0254 37.2237 24.9309 37.3182L24.5182 37.7309L24.9309 38.1436C25.025 38.238 25.025 38.391 24.9309 38.4851Z" fill="#374E9B"/>
<path d="M27.0403 38.4851C26.9458 38.5796 26.7928 38.5796 26.6987 38.4851L26.286 38.0724L25.8733 38.4851C25.7788 38.5796 25.6259 38.5796 25.5318 38.4851C25.4377 38.391 25.4377 38.238 25.5318 38.1436L25.9445 37.7309L25.5318 37.3182C25.4373 37.2237 25.4373 37.0707 25.5318 36.9766C25.6259 36.8821 25.7788 36.8821 25.8733 36.9766L26.286 37.3893L26.6987 36.9766C26.7932 36.8821 26.9462 36.8821 27.0403 36.9766C27.1347 37.0707 27.1347 37.2237 27.0403 37.3182L26.6276 37.7309L27.0403 38.1436C27.1343 38.238 27.1343 38.391 27.0403 38.4851Z" fill="#374E9B"/>
<path d="M29.1487 38.4851C29.0542 38.5796 28.9012 38.5796 28.8071 38.4851L28.3944 38.0724L27.9817 38.4851C27.8872 38.5796 27.7343 38.5796 27.6402 38.4851C27.5461 38.391 27.5461 38.238 27.6402 38.1436L28.0529 37.7309L27.6402 37.3182C27.5457 37.2237 27.5457 37.0707 27.6402 36.9766C27.7343 36.8821 27.8872 36.8821 27.9817 36.9766L28.3944 37.3893L28.8071 36.9766C28.9016 36.8821 29.0546 36.8821 29.1487 36.9766C29.2431 37.0707 29.2431 37.2237 29.1487 37.3182L28.736 37.7309L29.1487 38.1436C29.2431 38.238 29.2431 38.391 29.1487 38.4851Z" fill="#374E9B"/>
<path d="M31.2571 38.4851C31.1626 38.5796 31.0096 38.5796 30.9155 38.4851L30.5028 38.0724L30.0901 38.4851C29.9956 38.5796 29.8427 38.5796 29.7486 38.4851C29.6545 38.391 29.6545 38.238 29.7486 38.1436L30.1613 37.7309L29.7486 37.3182C29.6541 37.2237 29.6541 37.0707 29.7486 36.9766C29.8427 36.8821 29.9956 36.8821 30.0901 36.9766L30.5028 37.3893L30.9155 36.9766C31.01 36.8821 31.163 36.8821 31.2571 36.9766C31.3515 37.0707 31.3515 37.2237 31.2571 37.3182L30.8444 37.7309L31.2571 38.1436C31.3511 38.238 31.3511 38.391 31.2571 38.4851Z" fill="#374E9B"/>
<path d="M34.9934 38.4851C34.8989 38.5796 34.7459 38.5796 34.6519 38.4851L34.2392 38.0724L33.8265 38.4851C33.732 38.5796 33.579 38.5796 33.4849 38.4851C33.3909 38.391 33.3909 38.238 33.4849 38.1436L33.8976 37.7309L33.4849 37.3182C33.3904 37.2237 33.3904 37.0707 33.4849 36.9766C33.579 36.8821 33.732 36.8821 33.8265 36.9766L34.2392 37.3893L34.6519 36.9766C34.7463 36.8821 34.8993 36.8821 34.9934 36.9766C35.0879 37.0707 35.0879 37.2237 34.9934 37.3182L34.5807 37.7309L34.9934 38.1436C35.0875 38.238 35.0875 38.391 34.9934 38.4851Z" fill="#374E9B"/>
<path d="M37.1028 38.4851C37.0083 38.5796 36.8553 38.5796 36.7612 38.4851L36.3485 38.0724L35.9358 38.4851C35.8413 38.5796 35.6884 38.5796 35.5943 38.4851C35.5002 38.391 35.5002 38.238 35.5943 38.1436L36.007 37.7309L35.5943 37.3182C35.4998 37.2237 35.4998 37.0707 35.5943 36.9766C35.6884 36.8821 35.8413 36.8821 35.9358 36.9766L36.3485 37.3893L36.7612 36.9766C36.8557 36.8821 37.0087 36.8821 37.1028 36.9766C37.1972 37.0707 37.1972 37.2237 37.1028 37.3182L36.6901 37.7309L37.1028 38.1436C37.1968 38.238 37.1968 38.391 37.1028 38.4851Z" fill="#374E9B"/>
<path d="M39.2112 38.4851C39.1167 38.5796 38.9637 38.5796 38.8696 38.4851L38.4569 38.0724L38.0442 38.4851C37.9497 38.5796 37.7968 38.5796 37.7027 38.4851C37.6086 38.391 37.6086 38.238 37.7027 38.1436L38.1154 37.7309L37.7027 37.3182C37.6082 37.2237 37.6082 37.0707 37.7027 36.9766C37.7968 36.8821 37.9497 36.8821 38.0442 36.9766L38.4569 37.3893L38.8696 36.9766C38.9641 36.8821 39.1171 36.8821 39.2112 36.9766C39.3056 37.0707 39.3056 37.2237 39.2112 37.3182L38.7985 37.7309L39.2112 38.1436C39.3056 38.238 39.3056 38.391 39.2112 38.4851Z" fill="#374E9B"/>
<path d="M41.3196 38.4851C41.2251 38.5796 41.0721 38.5796 40.978 38.4851L40.5653 38.0724L40.1526 38.4851C40.0581 38.5796 39.9052 38.5796 39.8111 38.4851C39.717 38.391 39.717 38.238 39.8111 38.1436L40.2238 37.7309L39.8111 37.3182C39.7166 37.2237 39.7166 37.0707 39.8111 36.9766C39.9052 36.8821 40.0581 36.8821 40.1526 36.9766L40.5653 37.3893L40.978 36.9766C41.0725 36.8821 41.2255 36.8821 41.3196 36.9766C41.414 37.0707 41.414 37.2237 41.3196 37.3182L40.9069 37.7309L41.3196 38.1436C41.4136 38.238 41.4136 38.391 41.3196 38.4851Z" fill="#374E9B"/>
<path d="M45.0559 38.4851C44.9614 38.5796 44.8084 38.5796 44.7144 38.4851L44.3017 38.0724L43.889 38.4851C43.7945 38.5796 43.6415 38.5796 43.5474 38.4851C43.4534 38.391 43.4534 38.238 43.5474 38.1436L43.9601 37.7309L43.5474 37.3182C43.4529 37.2237 43.4529 37.0707 43.5474 36.9766C43.6415 36.8821 43.7945 36.8821 43.889 36.9766L44.3017 37.3893L44.7144 36.9766C44.8088 36.8821 44.9618 36.8821 45.0559 36.9766C45.1504 37.0707 45.1504 37.2237 45.0559 37.3182L44.6432 37.7309L45.0559 38.1436C45.15 38.238 45.15 38.391 45.0559 38.4851Z" fill="#374E9B"/>
<path d="M47.1643 38.4851C47.0698 38.5796 46.9168 38.5796 46.8227 38.4851L46.41 38.0724L45.9974 38.4851C45.9029 38.5796 45.7499 38.5796 45.6558 38.4851C45.5617 38.391 45.5617 38.238 45.6558 38.1436L46.0685 37.7309L45.6558 37.3182C45.5613 37.2237 45.5613 37.0707 45.6558 36.9766C45.7499 36.8821 45.9029 36.8821 45.9974 36.9766L46.41 37.3893L46.8227 36.9766C46.9172 36.8821 47.0702 36.8821 47.1643 36.9766C47.2588 37.0707 47.2588 37.2237 47.1643 37.3182L46.7516 37.7309L47.1643 38.1436C47.2588 38.238 47.2588 38.391 47.1643 38.4851Z" fill="#374E9B"/>
<path d="M49.2727 38.4851C49.1782 38.5796 49.0252 38.5796 48.9311 38.4851L48.5185 38.0724L48.1058 38.4851C48.0113 38.5796 47.8583 38.5796 47.7642 38.4851C47.6701 38.391 47.6701 38.238 47.7642 38.1436L48.1769 37.7309L47.7642 37.3182C47.6697 37.2237 47.6697 37.0707 47.7642 36.9766C47.8583 36.8821 48.0113 36.8821 48.1058 36.9766L48.5185 37.3893L48.9311 36.9766C49.0256 36.8821 49.1786 36.8821 49.2727 36.9766C49.3672 37.0707 49.3672 37.2237 49.2727 37.3182L48.86 37.7309L49.2727 38.1436C49.3668 38.238 49.3668 38.391 49.2727 38.4851Z" fill="#374E9B"/>
<path d="M51.3821 38.4851C51.2876 38.5796 51.1346 38.5796 51.0405 38.4851L50.6278 38.0724L50.2151 38.4851C50.1206 38.5796 49.9677 38.5796 49.8736 38.4851C49.7795 38.391 49.7795 38.238 49.8736 38.1436L50.2863 37.7309L49.8736 37.3182C49.7791 37.2237 49.7791 37.0707 49.8736 36.9766C49.9677 36.8821 50.1206 36.8821 50.2151 36.9766L50.6278 37.3893L51.0405 36.9766C51.135 36.8821 51.288 36.8821 51.3821 36.9766C51.4765 37.0707 51.4765 37.2237 51.3821 37.3182L50.9694 37.7309L51.3821 38.1436C51.4761 38.238 51.4761 38.391 51.3821 38.4851Z" fill="#374E9B"/>
<path d="M55.1184 38.4851C55.0239 38.5796 54.8709 38.5796 54.7769 38.4851L54.3642 38.0724L53.9515 38.4851C53.857 38.5796 53.704 38.5796 53.6099 38.4851C53.5159 38.391 53.5159 38.238 53.6099 38.1436L54.0226 37.7309L53.6099 37.3182C53.5154 37.2237 53.5154 37.0707 53.6099 36.9766C53.704 36.8821 53.857 36.8821 53.9515 36.9766L54.3642 37.3893L54.7769 36.9766C54.8713 36.8821 55.0243 36.8821 55.1184 36.9766C55.2129 37.0707 55.2129 37.2237 55.1184 37.3182L54.7057 37.7309L55.1184 38.1436C55.2125 38.238 55.2125 38.391 55.1184 38.4851Z" fill="#374E9B"/>
<path d="M57.2268 38.4851C57.1323 38.5796 56.9793 38.5796 56.8852 38.4851L56.4725 38.0724L56.0599 38.4851C55.9654 38.5796 55.8124 38.5796 55.7183 38.4851C55.6242 38.391 55.6242 38.238 55.7183 38.1436L56.131 37.7309L55.7183 37.3182C55.6238 37.2237 55.6238 37.0707 55.7183 36.9766C55.8124 36.8821 55.9654 36.8821 56.0599 36.9766L56.4725 37.3893L56.8852 36.9766C56.9797 36.8821 57.1327 36.8821 57.2268 36.9766C57.3213 37.0707 57.3213 37.2237 57.2268 37.3182L56.8141 37.7309L57.2268 38.1436C57.3213 38.238 57.3213 38.391 57.2268 38.4851Z" fill="#374E9B"/>
<path d="M59.3352 38.4851C59.2407 38.5796 59.0877 38.5796 58.9936 38.4851L58.581 38.0724L58.1683 38.4851C58.0738 38.5796 57.9208 38.5796 57.8267 38.4851C57.7326 38.391 57.7326 38.238 57.8267 38.1436L58.2394 37.7309L57.8267 37.3182C57.7322 37.2237 57.7322 37.0707 57.8267 36.9766C57.9208 36.8821 58.0738 36.8821 58.1683 36.9766L58.581 37.3893L58.9936 36.9766C59.0881 36.8821 59.2411 36.8821 59.3352 36.9766C59.4297 37.0707 59.4297 37.2237 59.3352 37.3182L58.9225 37.7309L59.3352 38.1436C59.4293 38.238 59.4293 38.391 59.3352 38.4851Z" fill="#374E9B"/>
<path d="M61.4446 38.4851C61.3501 38.5796 61.1971 38.5796 61.103 38.4851L60.6903 38.0724L60.2776 38.4851C60.1831 38.5796 60.0302 38.5796 59.9361 38.4851C59.842 38.391 59.842 38.238 59.9361 38.1436L60.3488 37.7309L59.9361 37.3182C59.8416 37.2237 59.8416 37.0707 59.9361 36.9766C60.0302 36.8821 60.1831 36.8821 60.2776 36.9766L60.6903 37.3893L61.103 36.9766C61.1975 36.8821 61.3505 36.8821 61.4446 36.9766C61.539 37.0707 61.539 37.2237 61.4446 37.3182L61.0319 37.7309L61.4446 38.1436C61.5386 38.238 61.5386 38.391 61.4446 38.4851Z" fill="#374E9B"/>
<path d="M61.0578 27.7089H54.6198C54.4145 27.7089 54.248 27.5425 54.248 27.3371C54.248 27.1318 54.4145 26.9653 54.6198 26.9653H61.0578C61.2631 26.9653 61.4296 27.1318 61.4296 27.3371C61.4296 27.5425 61.2631 27.7089 61.0578 27.7089Z" fill="#374E9B"/>
<path d="M31.206 28.6013V28.2957H28.3813V28.2745C28.3813 27.6184 27.8864 27.076 27.2504 27.0004V26.3799H26.9449V27.0004C26.3088 27.076 25.8139 27.6184 25.8139 28.2745V28.2957H22.9893V28.6013H25.8139V30.6157H22.9893V30.9212H25.8139V30.9425C25.8139 31.5985 26.3088 32.1409 26.9449 32.2166V32.837H27.2504V32.2166C27.8864 32.1409 28.3813 31.5985 28.3813 30.9425V30.9212H31.206V30.6157H28.3813V28.6013H31.206ZM28.0758 30.9425C28.0758 31.482 27.6369 31.9208 27.0974 31.9208C26.5579 31.9208 26.1191 31.482 26.1191 30.9425V28.2745C26.1191 27.735 26.5579 27.2961 27.0974 27.2961C27.6369 27.2961 28.0758 27.735 28.0758 28.2745V30.9425Z" fill="#EFAC14"/>
<path d="M72.3508 49.082H70.4252V43.2383C70.4252 41.408 68.9359 39.9187 67.1056 39.9187C65.2752 39.9187 63.786 41.408 63.786 43.2383V49.082H61.8604V43.2383C61.8604 40.3462 64.2134 37.9927 67.106 37.9927C69.9982 37.9927 72.3516 40.3458 72.3516 43.2383V49.082H72.3508Z" fill="#262C3D"/>
<path d="M72.7634 64.2477H61.4467C59.9354 64.2477 58.71 63.0223 58.71 61.511V50.1943C58.71 48.6829 59.9354 47.4575 61.4467 47.4575H72.7634C74.2747 47.4575 75.5001 48.6829 75.5001 50.1943V61.511C75.5001 63.0223 74.2751 64.2477 72.7634 64.2477Z" fill="#FFC215"/>
<path d="M69.6098 54.6547C69.6098 55.6773 68.9971 56.5567 68.1185 56.9456L68.0948 58.9073C68.0948 59.4631 67.6441 59.9139 67.0882 59.9139C66.5324 59.9139 66.0816 59.4627 66.0816 58.9073L66.1054 56.9514C65.2198 56.5657 64.6006 55.6826 64.6006 54.6547C64.6006 53.2714 65.7221 52.1499 67.1054 52.1499C68.4883 52.1499 69.6098 53.2714 69.6098 54.6547Z" fill="#DB960E"/>
<path d="M75.5008 50.1943V61.511C75.5008 63.0227 74.2758 64.2477 72.7645 64.2477H61.4474C60.2093 64.2477 59.163 63.4256 58.8252 62.2975C59.968 62.9822 61.4556 63.1061 62.8266 63.0824C63.9297 63.0636 65.0312 63.0513 66.1245 63.0067C70.3877 62.8325 73.7367 59.2961 73.6668 55.0301C73.6464 53.7903 73.63 52.6079 73.6292 51.6009C73.6284 50.6695 73.6697 49.7075 73.2696 48.849C72.9895 48.2486 72.4483 47.7091 71.7857 47.4575H72.7649C74.2758 47.4571 75.5008 48.6825 75.5008 50.1943Z" fill="#F2B214"/>
<path d="M63.8585 48.9224C64.1166 48.9224 64.1869 49.2753 63.9493 49.3764C63.1791 49.704 62.4866 50.1756 61.9046 50.7576C61.3222 51.3401 60.851 52.0325 60.5233 52.8027C60.4223 53.0399 60.0693 52.9696 60.0693 52.7119V49.9236C60.0693 49.3706 60.5176 48.9224 61.0706 48.9224H63.8585Z" fill="#FFDF5A"/>
</svg>
