<svg width="392" height="415" viewBox="0 0 392 415" fill="none" xmlns="http://www.w3.org/2000/svg">
<path d="M135.181 119.528L118 131.241L127.155 144.671L144.336 132.958L161.514 121.247L152.359 107.818L135.181 119.528Z" fill="white" fill-opacity="0.35"/>
<path d="M148.843 161.208L157.998 174.637L175.179 162.924L166.024 149.495L156.869 136.065L139.688 147.778L148.843 161.208Z" fill="white" fill-opacity="0.35"/>
<path d="M238.132 218.359L220.954 230.069L230.109 243.499L247.287 231.788L238.132 218.359Z" fill="white" fill-opacity="0.35"/>
<path d="M72.1103 233.189L54.9326 244.899L64.0878 258.329L81.2655 246.618L72.1103 233.189Z" fill="white" fill-opacity="0.35"/>
<path d="M231.729 146.588L241.406 139.991L249.376 151.683L259.053 145.086L251.083 133.394L260.76 126.797L252.79 115.106L243.113 121.703L235.143 110.012L225.466 116.609L233.436 128.3L223.759 134.897L214.082 141.494L204.405 148.091L194.728 154.688L202.698 166.38L212.375 159.783L222.052 153.185L230.022 164.877L239.699 158.28L231.729 146.588Z" fill="white" fill-opacity="0.35"/>
<path d="M90.4199 260.047L73.2422 271.758L82.3974 285.187L99.5751 273.477L90.4199 260.047Z" fill="white" fill-opacity="0.35"/>
<path d="M168.285 226.636L185.463 214.926L176.307 201.496L193.489 189.784L184.333 176.354L167.152 188.067L149.974 199.778L140.819 186.348L123.642 198.059L132.797 211.488L141.952 224.917L159.13 213.207L168.285 226.636Z" fill="white" fill-opacity="0.35"/>
<path d="M245.024 154.65L227.847 166.36L237.002 179.79L254.18 168.079L245.024 154.65Z" fill="white" fill-opacity="0.35"/>
<path d="M168.288 226.635L151.11 238.345L141.955 224.916L124.777 236.626L115.622 223.197L106.467 209.767L89.289 221.478L98.4442 234.907L81.2665 246.618L90.4217 260.047L107.599 248.337L116.755 261.766L133.932 250.056L143.088 263.485L160.265 251.775L169.42 265.204L186.598 253.494L177.443 240.064L168.288 226.635Z" fill="white" fill-opacity="0.35"/>
<path d="M211.8 216.641L228.977 204.931L238.133 218.36L255.31 206.65L246.155 193.22L237 179.791L219.822 191.501L210.667 178.072L193.489 189.782L202.644 203.212L211.8 216.641Z" fill="white" fill-opacity="0.35"/>
<path d="M108.731 286.907L91.5537 298.617L98.0058 308.081L104.458 317.546L121.636 305.835L128.088 315.3L145.265 303.589L138.813 294.125L132.361 284.66L115.183 296.371L108.731 286.907Z" fill="white" fill-opacity="0.35"/>
<path d="M143.087 263.486L125.909 275.196L135.064 288.626L152.242 276.915L143.087 263.486Z" fill="white" fill-opacity="0.35"/>
<path d="M308.407 150.781L299.252 137.351L284.227 147.595L269.201 157.838L254.176 168.081L263.331 181.51L272.486 194.94L287.512 184.697L278.356 171.267L293.382 161.024L302.537 174.453L317.563 164.21L326.718 177.64L341.743 167.396L332.588 153.967L347.614 143.724L338.458 130.294L323.433 140.537L308.407 150.781Z" fill="white" fill-opacity="0.35"/>
<path d="M169.42 265.203L152.242 276.913L161.397 290.343L178.575 278.632L169.42 265.203Z" fill="white" fill-opacity="0.35"/>
<path d="M203.772 241.783L186.595 253.493L195.75 266.923L204.905 280.352L222.083 268.642L231.238 282.071L240.393 295.5L257.574 283.788L248.419 270.358L239.264 256.929L230.109 243.499L212.928 255.212L203.772 241.783Z" fill="white" fill-opacity="0.35"/>
<path d="M272.49 194.939L255.312 206.649L264.468 220.079L281.645 208.368L272.49 194.939Z" fill="white" fill-opacity="0.35"/>
<path d="M264.467 220.079L247.289 231.789L256.444 245.218L273.622 233.508L264.467 220.079Z" fill="white" fill-opacity="0.35"/>
<path d="M334.307 211.807L325.152 198.378L315.997 184.948L298.819 196.659L307.975 210.088L290.797 221.799L299.952 235.228L317.13 223.517L334.307 211.807Z" fill="white" fill-opacity="0.35"/>
<path d="M282.777 246.938L265.6 258.648L274.755 272.078L291.933 260.367L282.777 246.938Z" fill="white" fill-opacity="0.35"/>
<path d="M326.285 236.947L309.107 248.657L318.263 262.087L335.44 250.376L326.285 236.947Z" fill="white" fill-opacity="0.35"/>
<path d="M272.894 306.254L280.553 317.49L297.731 305.779L290.072 294.544L282.414 283.311L274.756 272.078L257.578 283.788L265.236 295.021L272.894 306.254Z" fill="white" fill-opacity="0.35"/>
<path d="M327.767 307.751L342.534 297.685L336.578 288.947L321.811 299.014L307.044 309.081L313 317.818L327.767 307.751Z" fill="white" fill-opacity="0.35"/>
<path d="M85.8895 105.77L0.000976562 164.322L45.777 231.469L131.666 172.917L85.8895 105.77ZM111.915 171.625L51.7917 212.613L19.7494 165.611L79.8731 124.623L111.915 171.625Z" fill="white" fill-opacity="0.35"/>
<path d="M73.8545 143.477L39.499 166.898L57.8094 193.757L92.1649 170.336L73.8545 143.477Z" fill="white" fill-opacity="0.35"/>
</svg>
