<svg width="19" height="20" viewBox="0 0 19 20" fill="none" xmlns="http://www.w3.org/2000/svg">
<path d="M3.68662 0.563847C0.502893 1.92089 -0.456548 5.30021 1.54555 8.11438C2.99623 10.1542 5.60389 11.3395 8.14408 11.3154L11.3727 13.1666L13.3154 12.3381L13.0451 9.22559C14.4215 7.57487 14.5253 5.23922 13.0742 3.19975C11.0717 0.384638 6.87075 -0.794135 3.68662 0.563847ZM10.3934 9.96401C7.7599 11.0871 4.25703 10.0728 2.56963 7.7006C0.882226 5.32804 1.64776 2.49386 4.28087 1.37107C6.91398 0.24859 10.4177 1.26223 12.1059 3.63479C13.7929 6.00735 13.0265 8.84091 10.3934 9.96401Z" fill="#1E293B"/>
<path d="M13.7735 12.9941L17.9886 18.9196C18.1534 19.1529 18.0435 19.4491 17.7417 19.5776L16.8918 19.9395C16.59 20.0683 16.2074 19.9826 16.0418 19.749L11.8271 13.8245L13.7735 12.9941Z" fill="#1E293B"/>
<path d="M9.58755 14.2969C9.12742 14.5314 8.11547 15.1175 8.06376 16.4264C8.05083 17.1114 8.4847 17.9918 9.58755 18.5553C10.1592 17.9608 10.503 17.2252 10.503 16.4264C10.503 15.6276 10.1592 14.8924 9.58755 14.2969Z" fill="#1E293B"/>
<path d="M3.37667 16.4306C3.33223 15.2994 2.57033 14.7095 2.06738 14.4189C1.56443 14.991 1.26953 15.6818 1.26953 16.4262C1.26953 17.1706 1.56403 17.8614 2.06738 18.4335C3.00703 17.8705 3.38919 17.068 3.37667 16.4306Z" fill="#1E293B"/>
<path d="M7.06056 17.597C6.55196 16.5068 6.79394 15.5072 7.43586 14.6493C7.90609 14.0763 8.41429 13.7536 8.68131 13.5866C7.90528 13.1281 6.93897 12.8525 5.88702 12.8525C4.75589 12.8525 3.7205 13.1687 2.91699 13.6923C3.20058 13.8768 3.61264 14.1739 4.00611 14.6537C4.64762 15.5122 4.89001 16.5115 4.3814 17.602C3.99641 18.4274 3.25754 18.9538 2.91942 19.1614C3.72211 19.684 4.75629 20.0002 5.88702 20.0002C6.94503 20.0002 7.9174 19.7206 8.69626 19.2571C8.67445 19.2465 7.56392 18.677 7.06056 17.597Z" fill="#1E293B"/>
</svg>
