<svg width="49" height="50" viewBox="0 0 49 50" fill="none" xmlns="http://www.w3.org/2000/svg">
<g filter="url(#filter0_b_1565_5769)">
<circle cx="24.5" cy="25" r="24.5" fill="#0E7490" fill-opacity="0.6"/>
<path d="M14.3243 32.732C12.6289 32.7311 10.9862 32.1423 9.67623 31.066C8.36624 29.9898 7.46994 28.4926 7.14007 26.8296C6.81019 25.1666 7.06713 23.4406 7.86712 21.9458C8.66711 20.451 9.96065 19.2798 11.5273 18.6318C13.094 17.9838 14.8369 17.8991 16.4591 18.3921C18.0813 18.885 19.4823 19.9252 20.4235 21.3353C21.3648 22.7455 21.7879 24.4384 21.6209 26.1255C21.4539 27.8127 20.7071 29.3898 19.5077 30.588C18.8275 31.2692 18.0195 31.8093 17.1299 32.1772C16.2404 32.5452 15.2869 32.7337 14.3243 32.732ZM14.3243 20.7478C13.247 20.7491 12.2036 21.1238 11.3716 21.8081C10.5397 22.4924 9.97073 23.444 9.76165 24.5008C9.55257 25.5575 9.71631 26.654 10.225 27.6036C10.7337 28.5532 11.5558 29.297 12.5514 29.7084C13.5469 30.1198 14.6544 30.1734 15.685 29.8599C16.7156 29.5464 17.6056 28.8854 18.2035 27.9893C18.8014 27.0933 19.0702 26.0176 18.964 24.9456C18.8579 23.8737 18.3833 22.8716 17.6213 22.1103C17.1886 21.6771 16.6746 21.3337 16.1088 21.0999C15.543 20.8661 14.9365 20.7464 14.3243 20.7478Z" fill="#22C55E"/>
<path d="M32.6686 22.1637C31.4627 22.1641 30.2753 21.8671 29.2116 21.299C28.1479 20.7309 27.2408 19.9092 26.5706 18.9067C25.9004 17.9041 25.4878 16.7518 25.3694 15.5517C25.251 14.3516 25.4304 13.1409 25.8918 12.0267C26.3532 10.9126 27.0822 9.92943 28.0144 9.16438C28.9466 8.39934 30.053 7.87603 31.2358 7.64082C32.4185 7.40561 33.641 7.46576 34.7949 7.81595C35.9489 8.16614 36.9986 8.79554 37.8512 9.6484C38.8761 10.6737 39.5741 11.9799 39.8568 13.4018C40.1396 14.8237 39.9945 16.2975 39.4398 17.6369C38.8852 18.9764 37.9459 20.1213 36.7406 20.9271C35.5354 21.7328 34.1184 22.1631 32.6686 22.1637ZM32.6686 10.1741C31.591 10.1749 30.5469 10.5492 29.7142 11.2333C28.8816 11.9175 28.3119 12.8692 28.1022 13.9262C27.8925 14.9833 28.0558 16.0804 28.5642 17.0306C29.0726 17.9808 29.8948 18.7253 30.8906 19.1374C31.8863 19.5494 32.9942 19.6035 34.0254 19.2903C35.0565 18.9772 35.9473 18.3162 36.5458 17.4201C37.1443 16.5239 37.4136 15.4479 37.3078 14.3755C37.2021 13.303 36.7277 12.3004 35.9656 11.5384C35.5337 11.1041 35.0198 10.76 34.4539 10.5258C33.8879 10.2916 33.2811 10.1721 32.6686 10.1741Z" fill="#22C55E"/>
<path d="M32.6678 43.3072C31.2176 43.3072 29.8001 42.8772 28.5943 42.0715C27.3886 41.2659 26.4489 40.1207 25.894 38.781C25.3391 37.4412 25.1939 35.967 25.4769 34.5447C25.7599 33.1224 26.4582 31.816 27.4837 30.7907C28.5092 29.7653 29.8157 29.0671 31.238 28.7843C32.6603 28.5015 34.1345 28.6468 35.4742 29.2019C36.8139 29.757 37.9589 30.6969 38.7644 31.9027C39.5699 33.1085 39.9998 34.5262 39.9996 35.9763C39.9973 37.92 39.224 39.7834 37.8495 41.1578C36.475 42.5321 34.6115 43.3051 32.6678 43.3072ZM32.6678 31.3177C31.7464 31.3177 30.8457 31.5909 30.0796 32.1028C29.3135 32.6147 28.7164 33.3423 28.3638 34.1935C28.0112 35.0448 27.919 35.9815 28.0987 36.8851C28.2785 37.7888 28.7221 38.6189 29.3737 39.2704C30.0252 39.9219 30.8553 40.3656 31.7589 40.5454C32.6626 40.7251 33.5993 40.6329 34.4505 40.2803C35.3018 39.9277 36.0294 39.3306 36.5413 38.5645C37.0531 37.7984 37.3264 36.8977 37.3264 35.9763C37.3252 34.7411 36.834 33.5569 35.9606 32.6835C35.0872 31.8101 33.903 31.3189 32.6678 31.3177Z" fill="#22C55E"/>
<path d="M19.5206 23.7472C19.2261 23.7478 18.9396 23.651 18.7057 23.4719C18.4718 23.2928 18.3036 23.0414 18.2273 22.7569C18.151 22.4723 18.1708 22.1706 18.2837 21.8985C18.3965 21.6264 18.5961 21.3992 18.8514 21.2522L26.8044 16.6685C27.1116 16.4912 27.4767 16.4433 27.8192 16.5352C28.1618 16.6271 28.4538 16.8513 28.6311 17.1586C28.8083 17.4658 28.8563 17.8308 28.7644 18.1734C28.6725 18.516 28.4482 18.808 28.141 18.9853L20.1881 23.569C19.9851 23.6859 19.7549 23.7473 19.5206 23.7472Z" fill="#22C55E"/>
<path d="M27.471 34.3188C27.2371 34.3187 27.0073 34.2573 26.8045 34.1406L18.8507 29.5568C18.5435 29.3796 18.3192 29.0875 18.2273 28.745C18.1354 28.4024 18.1834 28.0373 18.3606 27.7301C18.5379 27.4229 18.8299 27.1986 19.1725 27.1067C19.515 27.0148 19.8801 27.0628 20.1873 27.24L28.1403 31.8237C28.3955 31.9707 28.5951 32.1978 28.708 32.4698C28.8208 32.7418 28.8407 33.0435 28.7645 33.328C28.6883 33.6125 28.5203 33.8638 28.2866 34.043C28.0528 34.2221 27.7664 34.3191 27.4719 34.3188H27.471Z" fill="#22C55E"/>
</g>
<defs>
<filter id="filter0_b_1565_5769" x="-100" y="-99.5" width="249" height="249" filterUnits="userSpaceOnUse" color-interpolation-filters="sRGB">
<feFlood flood-opacity="0" result="BackgroundImageFix"/>
<feGaussianBlur in="BackgroundImageFix" stdDeviation="50"/>
<feComposite in2="SourceAlpha" operator="in" result="effect1_backgroundBlur_1565_5769"/>
<feBlend mode="normal" in="SourceGraphic" in2="effect1_backgroundBlur_1565_5769" result="shape"/>
</filter>
</defs>
</svg>
