<svg width="192" height="127" viewBox="0 0 192 127" fill="none" xmlns="http://www.w3.org/2000/svg">
<rect x="46" y="41" width="145.67" height="85.0898" rx="10" fill="#9333EA"/>
<mask id="mask0_2094_4772" style="mask-type:alpha" maskUnits="userSpaceOnUse" x="46" y="41" width="146" height="86">
<rect x="46" y="41" width="145.67" height="85.0898" rx="10" fill="#B93700"/>
</mask>
<g mask="url(#mask0_2094_4772)">
<ellipse opacity="0.1" cx="57.3318" cy="139.501" rx="74.2224" ry="52.2563" fill="#312121"/>
<ellipse opacity="0.08" cx="180.34" cy="27.5893" rx="74.2224" ry="52.2563" fill="#312121"/>
</g>
<path d="M159.961 115.221C159.961 115.411 159.924 115.589 159.852 115.756C159.781 115.923 159.684 116.068 159.559 116.193C159.434 116.318 159.288 116.417 159.121 116.49C158.954 116.561 158.776 116.596 158.586 116.596H158.348C158.158 116.596 157.978 116.561 157.809 116.49C157.642 116.417 157.496 116.318 157.371 116.193C157.246 116.068 157.147 115.923 157.074 115.756C157.004 115.589 156.969 115.411 156.969 115.221V112.213C156.969 112.023 157.004 111.844 157.074 111.678C157.147 111.511 157.246 111.365 157.371 111.24C157.496 111.115 157.642 111.018 157.809 110.947C157.978 110.874 158.158 110.838 158.348 110.838H158.586C158.776 110.838 158.954 110.874 159.121 110.947C159.288 111.018 159.434 111.115 159.559 111.24C159.684 111.365 159.781 111.511 159.852 111.678C159.924 111.844 159.961 112.023 159.961 112.213V115.221ZM159.457 112.213C159.457 112.088 159.434 111.972 159.387 111.865C159.34 111.756 159.276 111.661 159.195 111.58C159.115 111.499 159.02 111.436 158.91 111.389C158.803 111.342 158.688 111.318 158.562 111.318H158.371C158.246 111.318 158.129 111.342 158.02 111.389C157.913 111.436 157.818 111.499 157.734 111.58C157.654 111.661 157.59 111.756 157.543 111.865C157.496 111.972 157.473 112.088 157.473 112.213V115.221C157.473 115.346 157.496 115.463 157.543 115.572C157.59 115.679 157.654 115.774 157.734 115.857C157.818 115.938 157.913 116.002 158.02 116.049C158.129 116.096 158.246 116.119 158.371 116.119H158.562C158.688 116.119 158.803 116.096 158.91 116.049C159.02 116.002 159.115 115.938 159.195 115.857C159.276 115.774 159.34 115.679 159.387 115.572C159.434 115.463 159.457 115.346 159.457 115.221V112.213ZM164.66 115.221C164.66 115.411 164.624 115.589 164.551 115.756C164.48 115.923 164.383 116.068 164.258 116.193C164.133 116.318 163.987 116.417 163.82 116.49C163.654 116.561 163.475 116.596 163.285 116.596H163.043C162.853 116.596 162.674 116.561 162.508 116.49C162.341 116.417 162.195 116.318 162.07 116.193C161.945 116.068 161.846 115.923 161.773 115.756C161.703 115.589 161.668 115.411 161.668 115.221V115.076L162.172 114.998V115.221C162.172 115.346 162.195 115.463 162.242 115.572C162.289 115.679 162.353 115.774 162.434 115.857C162.514 115.938 162.608 116.002 162.715 116.049C162.824 116.096 162.941 116.119 163.066 116.119H163.258C163.383 116.119 163.499 116.096 163.605 116.049C163.715 116.002 163.81 115.938 163.891 115.857C163.974 115.774 164.039 115.679 164.086 115.572C164.133 115.463 164.156 115.346 164.156 115.221V113.83C164.026 113.971 163.872 114.084 163.695 114.17C163.518 114.253 163.328 114.295 163.125 114.295H163.043C162.853 114.295 162.674 114.26 162.508 114.189C162.341 114.117 162.195 114.018 162.07 113.893C161.945 113.768 161.846 113.622 161.773 113.455C161.703 113.286 161.668 113.106 161.668 112.916V112.213C161.668 112.023 161.703 111.844 161.773 111.678C161.846 111.511 161.945 111.365 162.07 111.24C162.195 111.115 162.341 111.018 162.508 110.947C162.674 110.874 162.853 110.838 163.043 110.838H163.285C163.475 110.838 163.654 110.874 163.82 110.947C163.987 111.018 164.133 111.115 164.258 111.24C164.383 111.365 164.48 111.511 164.551 111.678C164.624 111.844 164.66 112.023 164.66 112.213V115.221ZM164.156 112.213C164.156 112.088 164.133 111.972 164.086 111.865C164.039 111.756 163.974 111.661 163.891 111.58C163.81 111.499 163.715 111.436 163.605 111.389C163.499 111.342 163.383 111.318 163.258 111.318H163.066C162.941 111.318 162.824 111.342 162.715 111.389C162.608 111.436 162.514 111.499 162.434 111.58C162.353 111.661 162.289 111.756 162.242 111.865C162.195 111.972 162.172 112.088 162.172 112.213V112.916C162.172 113.041 162.195 113.158 162.242 113.268C162.289 113.374 162.353 113.469 162.434 113.553C162.514 113.633 162.608 113.697 162.715 113.744C162.824 113.791 162.941 113.814 163.066 113.814H163.258C163.383 113.814 163.499 113.791 163.605 113.744C163.715 113.697 163.81 113.633 163.891 113.553C163.974 113.469 164.039 113.374 164.086 113.268C164.133 113.158 164.156 113.041 164.156 112.916V112.213ZM165.805 116.998L168.035 110.439H168.539L166.309 116.998H165.805ZM171.039 111.318C170.914 111.318 170.797 111.342 170.688 111.389C170.581 111.436 170.487 111.499 170.406 111.58C170.326 111.661 170.262 111.756 170.215 111.865C170.168 111.972 170.145 112.088 170.145 112.213V112.439L169.641 112.357V112.213C169.641 112.023 169.676 111.844 169.746 111.678C169.819 111.511 169.918 111.365 170.043 111.24C170.168 111.115 170.314 111.018 170.48 110.947C170.647 110.874 170.826 110.838 171.016 110.838H171.254C171.444 110.838 171.622 110.872 171.789 110.939C171.958 111.007 172.105 111.105 172.23 111.232C172.355 111.36 172.453 111.514 172.523 111.693C172.596 111.87 172.633 112.071 172.633 112.295C172.633 112.516 172.599 112.739 172.531 112.963C172.466 113.187 172.379 113.407 172.27 113.623C172.163 113.839 172.039 114.049 171.898 114.252C171.76 114.455 171.618 114.646 171.473 114.826C171.132 115.245 170.745 115.649 170.312 116.037H172.672V116.518H169.52V116.119C170.007 115.718 170.441 115.303 170.824 114.873C170.988 114.688 171.148 114.492 171.305 114.283C171.461 114.075 171.6 113.861 171.723 113.643C171.845 113.421 171.943 113.197 172.016 112.971C172.091 112.742 172.129 112.516 172.129 112.295C172.129 112.131 172.104 111.988 172.055 111.865C172.005 111.743 171.939 111.641 171.855 111.561C171.772 111.48 171.676 111.42 171.566 111.381C171.46 111.339 171.348 111.318 171.23 111.318H171.039ZM177.055 115.221C177.055 115.411 177.018 115.589 176.945 115.756C176.875 115.923 176.777 116.068 176.652 116.193C176.527 116.318 176.382 116.417 176.215 116.49C176.048 116.561 175.87 116.596 175.68 116.596H175.441C175.251 116.596 175.072 116.561 174.902 116.49C174.736 116.417 174.59 116.318 174.465 116.193C174.34 116.068 174.241 115.923 174.168 115.756C174.098 115.589 174.062 115.411 174.062 115.221V115.135H174.566V115.221C174.566 115.346 174.59 115.463 174.637 115.572C174.684 115.679 174.747 115.774 174.828 115.857C174.911 115.938 175.007 116.002 175.113 116.049C175.223 116.096 175.34 116.119 175.465 116.119H175.656C175.781 116.119 175.897 116.096 176.004 116.049C176.113 116.002 176.208 115.938 176.289 115.857C176.37 115.774 176.434 115.679 176.48 115.572C176.527 115.463 176.551 115.346 176.551 115.221V114.135C176.551 114.01 176.527 113.894 176.48 113.787C176.434 113.678 176.37 113.583 176.289 113.502C176.208 113.419 176.113 113.354 176.004 113.307C175.897 113.26 175.781 113.236 175.656 113.236H175.465C175.34 113.236 175.223 113.26 175.113 113.307C175.007 113.354 174.911 113.419 174.828 113.502C174.747 113.583 174.684 113.678 174.637 113.787C174.59 113.894 174.566 114.01 174.566 114.135H174.062L174.383 110.916H176.777V111.396H174.855L174.672 113.119C174.792 113.005 174.931 112.916 175.09 112.854C175.249 112.788 175.419 112.756 175.602 112.756H175.68C175.87 112.756 176.048 112.792 176.215 112.865C176.382 112.936 176.527 113.033 176.652 113.158C176.777 113.283 176.875 113.43 176.945 113.6C177.018 113.766 177.055 113.945 177.055 114.135V115.221Z" fill="white"/>
<path opacity="0.9" d="M63.4258 115.221C63.4258 115.411 63.3893 115.589 63.3164 115.756C63.2461 115.923 63.1484 116.068 63.0234 116.193C62.8984 116.318 62.7526 116.417 62.5859 116.49C62.4193 116.561 62.2409 116.596 62.0508 116.596H61.8125C61.6224 116.596 61.4427 116.561 61.2734 116.49C61.1068 116.417 60.9609 116.318 60.8359 116.193C60.7109 116.068 60.612 115.923 60.5391 115.756C60.4688 115.589 60.4336 115.411 60.4336 115.221V115.135H60.9375V115.221C60.9375 115.346 60.9609 115.463 61.0078 115.572C61.0547 115.679 61.1185 115.774 61.1992 115.857C61.2826 115.938 61.3776 116.002 61.4844 116.049C61.5938 116.096 61.7109 116.119 61.8359 116.119H62.0273C62.1523 116.119 62.2682 116.096 62.375 116.049C62.4844 116.002 62.5794 115.938 62.6602 115.857C62.7409 115.774 62.8047 115.679 62.8516 115.572C62.8984 115.463 62.9219 115.346 62.9219 115.221V114.135C62.9219 114.01 62.8984 113.894 62.8516 113.787C62.8047 113.678 62.7409 113.583 62.6602 113.502C62.5794 113.419 62.4844 113.354 62.375 113.307C62.2682 113.26 62.1523 113.236 62.0273 113.236H61.8359C61.7109 113.236 61.5938 113.26 61.4844 113.307C61.3776 113.354 61.2826 113.419 61.1992 113.502C61.1185 113.583 61.0547 113.678 61.0078 113.787C60.9609 113.894 60.9375 114.01 60.9375 114.135H60.4336L60.7539 110.916H63.1484V111.396H61.2266L61.043 113.119C61.1628 113.005 61.3021 112.916 61.4609 112.854C61.6198 112.788 61.7904 112.756 61.9727 112.756H62.0508C62.2409 112.756 62.4193 112.792 62.5859 112.865C62.7526 112.936 62.8984 113.033 63.0234 113.158C63.1484 113.283 63.2461 113.43 63.3164 113.6C63.3893 113.766 63.4258 113.945 63.4258 114.135V115.221ZM66.332 111.318C66.207 111.318 66.0898 111.342 65.9805 111.389C65.8737 111.436 65.7799 111.499 65.6992 111.58C65.6185 111.661 65.5547 111.756 65.5078 111.865C65.4609 111.972 65.4375 112.088 65.4375 112.213V112.439L64.9336 112.357V112.213C64.9336 112.023 64.9688 111.844 65.0391 111.678C65.112 111.511 65.2109 111.365 65.3359 111.24C65.4609 111.115 65.6068 111.018 65.7734 110.947C65.9401 110.874 66.1185 110.838 66.3086 110.838H66.5469C66.737 110.838 66.9154 110.872 67.082 110.939C67.2513 111.007 67.3984 111.105 67.5234 111.232C67.6484 111.36 67.7461 111.514 67.8164 111.693C67.8893 111.87 67.9258 112.071 67.9258 112.295C67.9258 112.516 67.8919 112.739 67.8242 112.963C67.7591 113.187 67.6719 113.407 67.5625 113.623C67.4557 113.839 67.332 114.049 67.1914 114.252C67.0534 114.455 66.9115 114.646 66.7656 114.826C66.4245 115.245 66.0378 115.649 65.6055 116.037H67.9648V116.518H64.8125V116.119C65.2995 115.718 65.7344 115.303 66.1172 114.873C66.2812 114.688 66.4414 114.492 66.5977 114.283C66.7539 114.075 66.8932 113.861 67.0156 113.643C67.138 113.421 67.2357 113.197 67.3086 112.971C67.3841 112.742 67.4219 112.516 67.4219 112.295C67.4219 112.131 67.3971 111.988 67.3477 111.865C67.2982 111.743 67.2318 111.641 67.1484 111.561C67.0651 111.48 66.9688 111.42 66.8594 111.381C66.7526 111.339 66.6406 111.318 66.5234 111.318H66.332ZM72.4961 115.221C72.4961 115.411 72.4596 115.589 72.3867 115.756C72.3164 115.923 72.2188 116.068 72.0938 116.193C71.9688 116.318 71.8229 116.417 71.6562 116.49C71.4896 116.561 71.3112 116.596 71.1211 116.596H70.8828C70.6927 116.596 70.513 116.561 70.3438 116.49C70.1771 116.417 70.0312 116.318 69.9062 116.193C69.7812 116.068 69.6823 115.923 69.6094 115.756C69.5391 115.589 69.5039 115.411 69.5039 115.221V114.756C69.5039 114.519 69.5586 114.303 69.668 114.107C69.7799 113.91 69.9258 113.748 70.1055 113.623C69.9258 113.498 69.7799 113.337 69.668 113.139C69.5586 112.941 69.5039 112.723 69.5039 112.486V112.213C69.5039 112.023 69.5391 111.844 69.6094 111.678C69.6823 111.511 69.7812 111.365 69.9062 111.24C70.0312 111.115 70.1771 111.018 70.3438 110.947C70.513 110.874 70.6927 110.838 70.8828 110.838H71.1211C71.3112 110.838 71.4896 110.874 71.6562 110.947C71.8229 111.018 71.9688 111.115 72.0938 111.24C72.2188 111.365 72.3164 111.511 72.3867 111.678C72.4596 111.844 72.4961 112.023 72.4961 112.213V112.486C72.4961 112.723 72.4414 112.941 72.332 113.139C72.2227 113.337 72.0781 113.498 71.8984 113.623C72.0781 113.748 72.2227 113.91 72.332 114.107C72.4414 114.303 72.4961 114.519 72.4961 114.756V115.221ZM71.9922 112.213C71.9922 112.088 71.9688 111.972 71.9219 111.865C71.875 111.756 71.8112 111.661 71.7305 111.58C71.6497 111.499 71.5547 111.436 71.4453 111.389C71.3385 111.342 71.2227 111.318 71.0977 111.318H70.9062C70.7812 111.318 70.6641 111.342 70.5547 111.389C70.4479 111.436 70.3529 111.499 70.2695 111.58C70.1888 111.661 70.125 111.756 70.0781 111.865C70.0312 111.972 70.0078 112.088 70.0078 112.213V112.486C70.0078 112.611 70.0312 112.729 70.0781 112.838C70.125 112.945 70.1888 113.038 70.2695 113.119C70.3529 113.2 70.4479 113.264 70.5547 113.311C70.6641 113.357 70.7812 113.381 70.9062 113.381H71.0977C71.2227 113.381 71.3385 113.357 71.4453 113.311C71.5547 113.264 71.6497 113.2 71.7305 113.119C71.8112 113.038 71.875 112.945 71.9219 112.838C71.9688 112.729 71.9922 112.611 71.9922 112.486V112.213ZM71.9922 114.756C71.9922 114.631 71.9688 114.515 71.9219 114.408C71.875 114.299 71.8112 114.204 71.7305 114.123C71.6497 114.042 71.5547 113.979 71.4453 113.932C71.3385 113.885 71.2227 113.861 71.0977 113.861H70.9062C70.7812 113.861 70.6641 113.885 70.5547 113.932C70.4479 113.979 70.3529 114.042 70.2695 114.123C70.1888 114.204 70.125 114.299 70.0781 114.408C70.0312 114.515 70.0078 114.631 70.0078 114.756V115.221C70.0078 115.346 70.0312 115.463 70.0781 115.572C70.125 115.679 70.1888 115.774 70.2695 115.857C70.3529 115.938 70.4479 116.002 70.5547 116.049C70.6641 116.096 70.7812 116.119 70.9062 116.119H71.0977C71.2227 116.119 71.3385 116.096 71.4453 116.049C71.5547 116.002 71.6497 115.938 71.7305 115.857C71.8112 115.774 71.875 115.679 71.9219 115.572C71.9688 115.463 71.9922 115.346 71.9922 115.221V114.756ZM75.4023 111.318C75.2773 111.318 75.1602 111.342 75.0508 111.389C74.944 111.436 74.8503 111.499 74.7695 111.58C74.6888 111.661 74.625 111.756 74.5781 111.865C74.5312 111.972 74.5078 112.088 74.5078 112.213V112.439L74.0039 112.357V112.213C74.0039 112.023 74.0391 111.844 74.1094 111.678C74.1823 111.511 74.2812 111.365 74.4062 111.24C74.5312 111.115 74.6771 111.018 74.8438 110.947C75.0104 110.874 75.1888 110.838 75.3789 110.838H75.6172C75.8073 110.838 75.9857 110.872 76.1523 110.939C76.3216 111.007 76.4688 111.105 76.5938 111.232C76.7188 111.36 76.8164 111.514 76.8867 111.693C76.9596 111.87 76.9961 112.071 76.9961 112.295C76.9961 112.516 76.9622 112.739 76.8945 112.963C76.8294 113.187 76.7422 113.407 76.6328 113.623C76.526 113.839 76.4023 114.049 76.2617 114.252C76.1237 114.455 75.9818 114.646 75.8359 114.826C75.4948 115.245 75.1081 115.649 74.6758 116.037H77.0352V116.518H73.8828V116.119C74.3698 115.718 74.8047 115.303 75.1875 114.873C75.3516 114.688 75.5117 114.492 75.668 114.283C75.8242 114.075 75.9635 113.861 76.0859 113.643C76.2083 113.421 76.306 113.197 76.3789 112.971C76.4544 112.742 76.4922 112.516 76.4922 112.295C76.4922 112.131 76.4674 111.988 76.418 111.865C76.3685 111.743 76.3021 111.641 76.2188 111.561C76.1354 111.48 76.0391 111.42 75.9297 111.381C75.8229 111.339 75.7109 111.318 75.5938 111.318H75.4023ZM83.9102 115.221C83.9102 115.411 83.8737 115.589 83.8008 115.756C83.7305 115.923 83.6328 116.068 83.5078 116.193C83.3828 116.318 83.237 116.417 83.0703 116.49C82.9036 116.561 82.7253 116.596 82.5352 116.596H82.2969C82.1068 116.596 81.9271 116.561 81.7578 116.49C81.5911 116.417 81.4453 116.318 81.3203 116.193C81.1953 116.068 81.0964 115.923 81.0234 115.756C80.9531 115.589 80.918 115.411 80.918 115.221V115.076L81.4219 114.998V115.221C81.4219 115.346 81.4453 115.463 81.4922 115.572C81.5391 115.679 81.6029 115.774 81.6836 115.857C81.7669 115.938 81.862 116.002 81.9688 116.049C82.0781 116.096 82.1953 116.119 82.3203 116.119H82.5117C82.6367 116.119 82.7526 116.096 82.8594 116.049C82.9688 116.002 83.0638 115.938 83.1445 115.857C83.2253 115.774 83.2891 115.679 83.3359 115.572C83.3828 115.463 83.4062 115.346 83.4062 115.221V114.756C83.4062 114.631 83.3828 114.515 83.3359 114.408C83.2891 114.299 83.2253 114.204 83.1445 114.123C83.0638 114.042 82.9688 113.979 82.8594 113.932C82.7526 113.885 82.6367 113.861 82.5117 113.861H82.1367V113.381H82.5117C82.6367 113.381 82.7526 113.357 82.8594 113.311C82.9688 113.264 83.0638 113.2 83.1445 113.119C83.2253 113.038 83.2891 112.945 83.3359 112.838C83.3828 112.729 83.4062 112.611 83.4062 112.486V112.213C83.4062 112.088 83.3828 111.972 83.3359 111.865C83.2891 111.756 83.2253 111.661 83.1445 111.58C83.0638 111.499 82.9688 111.436 82.8594 111.389C82.7526 111.342 82.6367 111.318 82.5117 111.318H82.3203C82.1953 111.318 82.0781 111.342 81.9688 111.389C81.862 111.436 81.7669 111.499 81.6836 111.58C81.6029 111.661 81.5391 111.756 81.4922 111.865C81.4453 111.972 81.4219 112.088 81.4219 112.213V112.439L80.918 112.357V112.213C80.918 112.023 80.9531 111.844 81.0234 111.678C81.0964 111.511 81.1953 111.365 81.3203 111.24C81.4453 111.115 81.5911 111.018 81.7578 110.947C81.9271 110.874 82.1068 110.838 82.2969 110.838H82.5352C82.7253 110.838 82.9036 110.874 83.0703 110.947C83.237 111.018 83.3828 111.115 83.5078 111.24C83.6328 111.365 83.7305 111.511 83.8008 111.678C83.8737 111.844 83.9102 112.023 83.9102 112.213V112.404C83.9102 112.537 83.8919 112.665 83.8555 112.787C83.8216 112.907 83.7721 113.019 83.707 113.123C83.6445 113.227 83.569 113.322 83.4805 113.408C83.3919 113.492 83.293 113.563 83.1836 113.623C83.293 113.68 83.3919 113.752 83.4805 113.838C83.569 113.921 83.6445 114.015 83.707 114.119C83.7721 114.223 83.8216 114.337 83.8555 114.459C83.8919 114.579 83.9102 114.705 83.9102 114.838V115.221ZM87.9688 115.549V116.518H87.4648V115.549H85.2148V115.311L87.7031 110.916H87.9688V115.068H88.4492V115.549H87.9688ZM87.4648 112.295L85.9219 115.068H87.4648V112.295ZM92.9805 115.221C92.9805 115.411 92.944 115.589 92.8711 115.756C92.8008 115.923 92.7031 116.068 92.5781 116.193C92.4531 116.318 92.3073 116.417 92.1406 116.49C91.974 116.561 91.7956 116.596 91.6055 116.596H91.3672C91.1771 116.596 90.9974 116.561 90.8281 116.49C90.6615 116.417 90.5156 116.318 90.3906 116.193C90.2656 116.068 90.1667 115.923 90.0938 115.756C90.0234 115.589 89.9883 115.411 89.9883 115.221V115.135H90.4922V115.221C90.4922 115.346 90.5156 115.463 90.5625 115.572C90.6094 115.679 90.6732 115.774 90.7539 115.857C90.8372 115.938 90.9323 116.002 91.0391 116.049C91.1484 116.096 91.2656 116.119 91.3906 116.119H91.582C91.707 116.119 91.8229 116.096 91.9297 116.049C92.0391 116.002 92.1341 115.938 92.2148 115.857C92.2956 115.774 92.3594 115.679 92.4062 115.572C92.4531 115.463 92.4766 115.346 92.4766 115.221V114.135C92.4766 114.01 92.4531 113.894 92.4062 113.787C92.3594 113.678 92.2956 113.583 92.2148 113.502C92.1341 113.419 92.0391 113.354 91.9297 113.307C91.8229 113.26 91.707 113.236 91.582 113.236H91.3906C91.2656 113.236 91.1484 113.26 91.0391 113.307C90.9323 113.354 90.8372 113.419 90.7539 113.502C90.6732 113.583 90.6094 113.678 90.5625 113.787C90.5156 113.894 90.4922 114.01 90.4922 114.135H89.9883L90.3086 110.916H92.7031V111.396H90.7812L90.5977 113.119C90.7174 113.005 90.8568 112.916 91.0156 112.854C91.1745 112.788 91.3451 112.756 91.5273 112.756H91.6055C91.7956 112.756 91.974 112.792 92.1406 112.865C92.3073 112.936 92.4531 113.033 92.5781 113.158C92.7031 113.283 92.8008 113.43 92.8711 113.6C92.944 113.766 92.9805 113.945 92.9805 114.135V115.221ZM97.5156 115.221C97.5156 115.411 97.4792 115.589 97.4062 115.756C97.3359 115.923 97.2383 116.068 97.1133 116.193C96.9883 116.318 96.8424 116.417 96.6758 116.49C96.5091 116.561 96.3307 116.596 96.1406 116.596H95.8984C95.7083 116.596 95.5299 116.561 95.3633 116.49C95.1966 116.417 95.0508 116.318 94.9258 116.193C94.8008 116.068 94.7018 115.923 94.6289 115.756C94.5586 115.589 94.5234 115.411 94.5234 115.221V112.213C94.5234 112.023 94.5586 111.844 94.6289 111.678C94.7018 111.511 94.8008 111.365 94.9258 111.24C95.0508 111.115 95.1966 111.018 95.3633 110.947C95.5299 110.874 95.7083 110.838 95.8984 110.838H96.1406C96.3307 110.838 96.5091 110.874 96.6758 110.947C96.8424 111.018 96.9883 111.115 97.1133 111.24C97.2383 111.365 97.3359 111.511 97.4062 111.678C97.4792 111.844 97.5156 112.023 97.5156 112.213V112.357L97.0117 112.439V112.213C97.0117 112.088 96.9883 111.972 96.9414 111.865C96.8945 111.756 96.8294 111.661 96.7461 111.58C96.6654 111.499 96.5703 111.436 96.4609 111.389C96.3542 111.342 96.2383 111.318 96.1133 111.318H95.9219C95.7969 111.318 95.6797 111.342 95.5703 111.389C95.4635 111.436 95.3698 111.499 95.2891 111.58C95.2083 111.661 95.1445 111.756 95.0977 111.865C95.0508 111.972 95.0273 112.088 95.0273 112.213V113.607C95.1549 113.467 95.3073 113.355 95.4844 113.271C95.6641 113.186 95.8555 113.143 96.0586 113.143H96.1406C96.3307 113.143 96.5091 113.179 96.6758 113.252C96.8424 113.322 96.9883 113.42 97.1133 113.545C97.2383 113.67 97.3359 113.816 97.4062 113.982C97.4792 114.149 97.5156 114.327 97.5156 114.518V115.221ZM97.0117 114.518C97.0117 114.393 96.9883 114.277 96.9414 114.17C96.8945 114.061 96.8294 113.965 96.7461 113.885C96.6654 113.804 96.5703 113.74 96.4609 113.693C96.3542 113.646 96.2383 113.623 96.1133 113.623H95.9219C95.7969 113.623 95.6797 113.646 95.5703 113.693C95.4635 113.74 95.3698 113.804 95.2891 113.885C95.2083 113.965 95.1445 114.061 95.0977 114.17C95.0508 114.277 95.0273 114.393 95.0273 114.518V115.221C95.0273 115.346 95.0508 115.463 95.0977 115.572C95.1445 115.679 95.2083 115.774 95.2891 115.857C95.3698 115.938 95.4635 116.002 95.5703 116.049C95.6797 116.096 95.7969 116.119 95.9219 116.119H96.1133C96.2383 116.119 96.3542 116.096 96.4609 116.049C96.5703 116.002 96.6654 115.938 96.7461 115.857C96.8294 115.774 96.8945 115.679 96.9414 115.572C96.9883 115.463 97.0117 115.346 97.0117 115.221V114.518ZM102.363 116.518H101.836L103.934 111.396H101.988V112.143H101.484V110.916H104.555V111.158L102.363 116.518ZM109.012 115.221C109.012 115.411 108.975 115.589 108.902 115.756C108.832 115.923 108.734 116.068 108.609 116.193C108.484 116.318 108.339 116.417 108.172 116.49C108.005 116.561 107.827 116.596 107.637 116.596H107.398C107.208 116.596 107.029 116.561 106.859 116.49C106.693 116.417 106.547 116.318 106.422 116.193C106.297 116.068 106.198 115.923 106.125 115.756C106.055 115.589 106.02 115.411 106.02 115.221V114.756C106.02 114.519 106.074 114.303 106.184 114.107C106.296 113.91 106.441 113.748 106.621 113.623C106.441 113.498 106.296 113.337 106.184 113.139C106.074 112.941 106.02 112.723 106.02 112.486V112.213C106.02 112.023 106.055 111.844 106.125 111.678C106.198 111.511 106.297 111.365 106.422 111.24C106.547 111.115 106.693 111.018 106.859 110.947C107.029 110.874 107.208 110.838 107.398 110.838H107.637C107.827 110.838 108.005 110.874 108.172 110.947C108.339 111.018 108.484 111.115 108.609 111.24C108.734 111.365 108.832 111.511 108.902 111.678C108.975 111.844 109.012 112.023 109.012 112.213V112.486C109.012 112.723 108.957 112.941 108.848 113.139C108.738 113.337 108.594 113.498 108.414 113.623C108.594 113.748 108.738 113.91 108.848 114.107C108.957 114.303 109.012 114.519 109.012 114.756V115.221ZM108.508 112.213C108.508 112.088 108.484 111.972 108.438 111.865C108.391 111.756 108.327 111.661 108.246 111.58C108.165 111.499 108.07 111.436 107.961 111.389C107.854 111.342 107.738 111.318 107.613 111.318H107.422C107.297 111.318 107.18 111.342 107.07 111.389C106.964 111.436 106.868 111.499 106.785 111.58C106.704 111.661 106.641 111.756 106.594 111.865C106.547 111.972 106.523 112.088 106.523 112.213V112.486C106.523 112.611 106.547 112.729 106.594 112.838C106.641 112.945 106.704 113.038 106.785 113.119C106.868 113.2 106.964 113.264 107.07 113.311C107.18 113.357 107.297 113.381 107.422 113.381H107.613C107.738 113.381 107.854 113.357 107.961 113.311C108.07 113.264 108.165 113.2 108.246 113.119C108.327 113.038 108.391 112.945 108.438 112.838C108.484 112.729 108.508 112.611 108.508 112.486V112.213ZM108.508 114.756C108.508 114.631 108.484 114.515 108.438 114.408C108.391 114.299 108.327 114.204 108.246 114.123C108.165 114.042 108.07 113.979 107.961 113.932C107.854 113.885 107.738 113.861 107.613 113.861H107.422C107.297 113.861 107.18 113.885 107.07 113.932C106.964 113.979 106.868 114.042 106.785 114.123C106.704 114.204 106.641 114.299 106.594 114.408C106.547 114.515 106.523 114.631 106.523 114.756V115.221C106.523 115.346 106.547 115.463 106.594 115.572C106.641 115.679 106.704 115.774 106.785 115.857C106.868 115.938 106.964 116.002 107.07 116.049C107.18 116.096 107.297 116.119 107.422 116.119H107.613C107.738 116.119 107.854 116.096 107.961 116.049C108.07 116.002 108.165 115.938 108.246 115.857C108.327 115.774 108.391 115.679 108.438 115.572C108.484 115.463 108.508 115.346 108.508 115.221V114.756ZM113.547 115.221C113.547 115.411 113.51 115.589 113.438 115.756C113.367 115.923 113.27 116.068 113.145 116.193C113.02 116.318 112.874 116.417 112.707 116.49C112.54 116.561 112.362 116.596 112.172 116.596H111.93C111.74 116.596 111.561 116.561 111.395 116.49C111.228 116.417 111.082 116.318 110.957 116.193C110.832 116.068 110.733 115.923 110.66 115.756C110.59 115.589 110.555 115.411 110.555 115.221V115.076L111.059 114.998V115.221C111.059 115.346 111.082 115.463 111.129 115.572C111.176 115.679 111.24 115.774 111.32 115.857C111.401 115.938 111.495 116.002 111.602 116.049C111.711 116.096 111.828 116.119 111.953 116.119H112.145C112.27 116.119 112.385 116.096 112.492 116.049C112.602 116.002 112.697 115.938 112.777 115.857C112.861 115.774 112.926 115.679 112.973 115.572C113.02 115.463 113.043 115.346 113.043 115.221V113.83C112.913 113.971 112.759 114.084 112.582 114.17C112.405 114.253 112.215 114.295 112.012 114.295H111.93C111.74 114.295 111.561 114.26 111.395 114.189C111.228 114.117 111.082 114.018 110.957 113.893C110.832 113.768 110.733 113.622 110.66 113.455C110.59 113.286 110.555 113.106 110.555 112.916V112.213C110.555 112.023 110.59 111.844 110.66 111.678C110.733 111.511 110.832 111.365 110.957 111.24C111.082 111.115 111.228 111.018 111.395 110.947C111.561 110.874 111.74 110.838 111.93 110.838H112.172C112.362 110.838 112.54 110.874 112.707 110.947C112.874 111.018 113.02 111.115 113.145 111.24C113.27 111.365 113.367 111.511 113.438 111.678C113.51 111.844 113.547 112.023 113.547 112.213V115.221ZM113.043 112.213C113.043 112.088 113.02 111.972 112.973 111.865C112.926 111.756 112.861 111.661 112.777 111.58C112.697 111.499 112.602 111.436 112.492 111.389C112.385 111.342 112.27 111.318 112.145 111.318H111.953C111.828 111.318 111.711 111.342 111.602 111.389C111.495 111.436 111.401 111.499 111.32 111.58C111.24 111.661 111.176 111.756 111.129 111.865C111.082 111.972 111.059 112.088 111.059 112.213V112.916C111.059 113.041 111.082 113.158 111.129 113.268C111.176 113.374 111.24 113.469 111.32 113.553C111.401 113.633 111.495 113.697 111.602 113.744C111.711 113.791 111.828 113.814 111.953 113.814H112.145C112.27 113.814 112.385 113.791 112.492 113.744C112.602 113.697 112.697 113.633 112.777 113.553C112.861 113.469 112.926 113.374 112.973 113.268C113.02 113.158 113.043 113.041 113.043 112.916V112.213ZM118.082 115.221C118.082 115.411 118.046 115.589 117.973 115.756C117.902 115.923 117.805 116.068 117.68 116.193C117.555 116.318 117.409 116.417 117.242 116.49C117.076 116.561 116.897 116.596 116.707 116.596H116.469C116.279 116.596 116.099 116.561 115.93 116.49C115.763 116.417 115.617 116.318 115.492 116.193C115.367 116.068 115.268 115.923 115.195 115.756C115.125 115.589 115.09 115.411 115.09 115.221V112.213C115.09 112.023 115.125 111.844 115.195 111.678C115.268 111.511 115.367 111.365 115.492 111.24C115.617 111.115 115.763 111.018 115.93 110.947C116.099 110.874 116.279 110.838 116.469 110.838H116.707C116.897 110.838 117.076 110.874 117.242 110.947C117.409 111.018 117.555 111.115 117.68 111.24C117.805 111.365 117.902 111.511 117.973 111.678C118.046 111.844 118.082 112.023 118.082 112.213V115.221ZM117.578 112.213C117.578 112.088 117.555 111.972 117.508 111.865C117.461 111.756 117.397 111.661 117.316 111.58C117.236 111.499 117.141 111.436 117.031 111.389C116.924 111.342 116.809 111.318 116.684 111.318H116.492C116.367 111.318 116.25 111.342 116.141 111.389C116.034 111.436 115.939 111.499 115.855 111.58C115.775 111.661 115.711 111.756 115.664 111.865C115.617 111.972 115.594 112.088 115.594 112.213V115.221C115.594 115.346 115.617 115.463 115.664 115.572C115.711 115.679 115.775 115.774 115.855 115.857C115.939 115.938 116.034 116.002 116.141 116.049C116.25 116.096 116.367 116.119 116.492 116.119H116.684C116.809 116.119 116.924 116.096 117.031 116.049C117.141 116.002 117.236 115.938 117.316 115.857C117.397 115.774 117.461 115.679 117.508 115.572C117.555 115.463 117.578 115.346 117.578 115.221V112.213ZM122.133 116.518V116.037H123.469V111.396L122.133 111.959V111.479L123.469 110.916H123.973V116.037H125.309V116.518H122.133ZM127.973 111.318C127.848 111.318 127.73 111.342 127.621 111.389C127.514 111.436 127.421 111.499 127.34 111.58C127.259 111.661 127.195 111.756 127.148 111.865C127.102 111.972 127.078 112.088 127.078 112.213V112.439L126.574 112.357V112.213C126.574 112.023 126.609 111.844 126.68 111.678C126.753 111.511 126.852 111.365 126.977 111.24C127.102 111.115 127.247 111.018 127.414 110.947C127.581 110.874 127.759 110.838 127.949 110.838H128.188C128.378 110.838 128.556 110.872 128.723 110.939C128.892 111.007 129.039 111.105 129.164 111.232C129.289 111.36 129.387 111.514 129.457 111.693C129.53 111.87 129.566 112.071 129.566 112.295C129.566 112.516 129.533 112.739 129.465 112.963C129.4 113.187 129.312 113.407 129.203 113.623C129.096 113.839 128.973 114.049 128.832 114.252C128.694 114.455 128.552 114.646 128.406 114.826C128.065 115.245 127.678 115.649 127.246 116.037H129.605V116.518H126.453V116.119C126.94 115.718 127.375 115.303 127.758 114.873C127.922 114.688 128.082 114.492 128.238 114.283C128.395 114.075 128.534 113.861 128.656 113.643C128.779 113.421 128.876 113.197 128.949 112.971C129.025 112.742 129.062 112.516 129.062 112.295C129.062 112.131 129.038 111.988 128.988 111.865C128.939 111.743 128.872 111.641 128.789 111.561C128.706 111.48 128.609 111.42 128.5 111.381C128.393 111.339 128.281 111.318 128.164 111.318H127.973ZM134.137 115.221C134.137 115.411 134.1 115.589 134.027 115.756C133.957 115.923 133.859 116.068 133.734 116.193C133.609 116.318 133.464 116.417 133.297 116.49C133.13 116.561 132.952 116.596 132.762 116.596H132.523C132.333 116.596 132.154 116.561 131.984 116.49C131.818 116.417 131.672 116.318 131.547 116.193C131.422 116.068 131.323 115.923 131.25 115.756C131.18 115.589 131.145 115.411 131.145 115.221V114.756C131.145 114.519 131.199 114.303 131.309 114.107C131.421 113.91 131.566 113.748 131.746 113.623C131.566 113.498 131.421 113.337 131.309 113.139C131.199 112.941 131.145 112.723 131.145 112.486V112.213C131.145 112.023 131.18 111.844 131.25 111.678C131.323 111.511 131.422 111.365 131.547 111.24C131.672 111.115 131.818 111.018 131.984 110.947C132.154 110.874 132.333 110.838 132.523 110.838H132.762C132.952 110.838 133.13 110.874 133.297 110.947C133.464 111.018 133.609 111.115 133.734 111.24C133.859 111.365 133.957 111.511 134.027 111.678C134.1 111.844 134.137 112.023 134.137 112.213V112.486C134.137 112.723 134.082 112.941 133.973 113.139C133.863 113.337 133.719 113.498 133.539 113.623C133.719 113.748 133.863 113.91 133.973 114.107C134.082 114.303 134.137 114.519 134.137 114.756V115.221ZM133.633 112.213C133.633 112.088 133.609 111.972 133.562 111.865C133.516 111.756 133.452 111.661 133.371 111.58C133.29 111.499 133.195 111.436 133.086 111.389C132.979 111.342 132.863 111.318 132.738 111.318H132.547C132.422 111.318 132.305 111.342 132.195 111.389C132.089 111.436 131.993 111.499 131.91 111.58C131.829 111.661 131.766 111.756 131.719 111.865C131.672 111.972 131.648 112.088 131.648 112.213V112.486C131.648 112.611 131.672 112.729 131.719 112.838C131.766 112.945 131.829 113.038 131.91 113.119C131.993 113.2 132.089 113.264 132.195 113.311C132.305 113.357 132.422 113.381 132.547 113.381H132.738C132.863 113.381 132.979 113.357 133.086 113.311C133.195 113.264 133.29 113.2 133.371 113.119C133.452 113.038 133.516 112.945 133.562 112.838C133.609 112.729 133.633 112.611 133.633 112.486V112.213ZM133.633 114.756C133.633 114.631 133.609 114.515 133.562 114.408C133.516 114.299 133.452 114.204 133.371 114.123C133.29 114.042 133.195 113.979 133.086 113.932C132.979 113.885 132.863 113.861 132.738 113.861H132.547C132.422 113.861 132.305 113.885 132.195 113.932C132.089 113.979 131.993 114.042 131.91 114.123C131.829 114.204 131.766 114.299 131.719 114.408C131.672 114.515 131.648 114.631 131.648 114.756V115.221C131.648 115.346 131.672 115.463 131.719 115.572C131.766 115.679 131.829 115.774 131.91 115.857C131.993 115.938 132.089 116.002 132.195 116.049C132.305 116.096 132.422 116.119 132.547 116.119H132.738C132.863 116.119 132.979 116.096 133.086 116.049C133.195 116.002 133.29 115.938 133.371 115.857C133.452 115.774 133.516 115.679 133.562 115.572C133.609 115.463 133.633 115.346 133.633 115.221V114.756ZM138.672 115.221C138.672 115.411 138.635 115.589 138.562 115.756C138.492 115.923 138.395 116.068 138.27 116.193C138.145 116.318 137.999 116.417 137.832 116.49C137.665 116.561 137.487 116.596 137.297 116.596H137.055C136.865 116.596 136.686 116.561 136.52 116.49C136.353 116.417 136.207 116.318 136.082 116.193C135.957 116.068 135.858 115.923 135.785 115.756C135.715 115.589 135.68 115.411 135.68 115.221V115.076L136.184 114.998V115.221C136.184 115.346 136.207 115.463 136.254 115.572C136.301 115.679 136.365 115.774 136.445 115.857C136.526 115.938 136.62 116.002 136.727 116.049C136.836 116.096 136.953 116.119 137.078 116.119H137.27C137.395 116.119 137.51 116.096 137.617 116.049C137.727 116.002 137.822 115.938 137.902 115.857C137.986 115.774 138.051 115.679 138.098 115.572C138.145 115.463 138.168 115.346 138.168 115.221V113.83C138.038 113.971 137.884 114.084 137.707 114.17C137.53 114.253 137.34 114.295 137.137 114.295H137.055C136.865 114.295 136.686 114.26 136.52 114.189C136.353 114.117 136.207 114.018 136.082 113.893C135.957 113.768 135.858 113.622 135.785 113.455C135.715 113.286 135.68 113.106 135.68 112.916V112.213C135.68 112.023 135.715 111.844 135.785 111.678C135.858 111.511 135.957 111.365 136.082 111.24C136.207 111.115 136.353 111.018 136.52 110.947C136.686 110.874 136.865 110.838 137.055 110.838H137.297C137.487 110.838 137.665 110.874 137.832 110.947C137.999 111.018 138.145 111.115 138.27 111.24C138.395 111.365 138.492 111.511 138.562 111.678C138.635 111.844 138.672 112.023 138.672 112.213V115.221ZM138.168 112.213C138.168 112.088 138.145 111.972 138.098 111.865C138.051 111.756 137.986 111.661 137.902 111.58C137.822 111.499 137.727 111.436 137.617 111.389C137.51 111.342 137.395 111.318 137.27 111.318H137.078C136.953 111.318 136.836 111.342 136.727 111.389C136.62 111.436 136.526 111.499 136.445 111.58C136.365 111.661 136.301 111.756 136.254 111.865C136.207 111.972 136.184 112.088 136.184 112.213V112.916C136.184 113.041 136.207 113.158 136.254 113.268C136.301 113.374 136.365 113.469 136.445 113.553C136.526 113.633 136.62 113.697 136.727 113.744C136.836 113.791 136.953 113.814 137.078 113.814H137.27C137.395 113.814 137.51 113.791 137.617 113.744C137.727 113.697 137.822 113.633 137.902 113.553C137.986 113.469 138.051 113.374 138.098 113.268C138.145 113.158 138.168 113.041 138.168 112.916V112.213Z" fill="white"/>
<path d="M164.582 53.9365H170.209V64.0467H164.582V53.9365Z" fill="#FF5F00"/>
<path d="M160.776 69.1348V68.0631C160.776 67.6521 160.526 67.3843 160.097 67.3843C159.883 67.3843 159.651 67.4557 159.49 67.6879C159.365 67.4914 159.186 67.3843 158.918 67.3843C158.74 67.3843 158.561 67.4378 158.418 67.6343V67.42H158.043V69.1348H158.418V68.188C158.418 67.8844 158.579 67.7415 158.829 67.7415C159.079 67.7415 159.204 67.9023 159.204 68.188V69.1348H159.579V68.188C159.579 67.8844 159.758 67.7415 159.99 67.7415C160.24 67.7415 160.365 67.9023 160.365 68.188V69.1348H160.776ZM166.331 67.42H165.724V66.902H165.349V67.42H165.009V67.7593H165.349V68.5453C165.349 68.9383 165.509 69.1705 165.938 69.1705C166.099 69.1705 166.278 69.1169 166.403 69.0455L166.295 68.7239C166.188 68.7954 166.063 68.8133 165.974 68.8133C165.795 68.8133 165.724 68.7061 165.724 68.5274V67.7593H166.331V67.42ZM169.511 67.3842C169.296 67.3842 169.154 67.4914 169.064 67.6343V67.42H168.689V69.1348H169.064V68.1702C169.064 67.8844 169.189 67.7237 169.421 67.7237C169.493 67.7237 169.582 67.7416 169.654 67.7594L169.761 67.4022C169.689 67.3843 169.582 67.3843 169.511 67.3843V67.3842ZM164.706 67.5629C164.527 67.4378 164.277 67.3843 164.009 67.3843C163.58 67.3843 163.295 67.5986 163.295 67.938C163.295 68.2238 163.509 68.3845 163.884 68.4382L164.063 68.4561C164.259 68.4917 164.366 68.5453 164.366 68.6347C164.366 68.7597 164.223 68.849 163.973 68.849C163.723 68.849 163.527 68.7597 163.402 68.6704L163.223 68.9562C163.42 69.099 163.688 69.1705 163.955 69.1705C164.456 69.1705 164.741 68.9383 164.741 68.6168C164.741 68.3131 164.509 68.1523 164.152 68.0988L163.973 68.0809C163.813 68.063 163.688 68.0273 163.688 67.9202C163.688 67.7951 163.813 67.7237 164.009 67.7237C164.223 67.7237 164.438 67.8129 164.545 67.8665L164.706 67.5629ZM174.673 67.3843C174.459 67.3843 174.316 67.4914 174.226 67.6343V67.42H173.851V69.1348H174.226V68.1702C174.226 67.8844 174.351 67.7237 174.584 67.7237C174.655 67.7237 174.744 67.7416 174.816 67.7594L174.923 67.4022C174.852 67.3843 174.744 67.3843 174.673 67.3843ZM169.886 68.2774C169.886 68.7954 170.243 69.1705 170.797 69.1705C171.047 69.1705 171.226 69.1169 171.404 68.9741L171.226 68.6704C171.083 68.7776 170.94 68.8311 170.779 68.8311C170.475 68.8311 170.261 68.6168 170.261 68.2774C170.261 67.9559 170.475 67.7415 170.779 67.7237C170.94 67.7237 171.083 67.7772 171.226 67.8844L171.404 67.5808C171.226 67.4378 171.047 67.3843 170.797 67.3843C170.243 67.3843 169.886 67.7594 169.886 68.2774ZM173.351 68.2774V67.42H172.976V67.6343C172.851 67.4736 172.672 67.3843 172.44 67.3843C171.958 67.3843 171.583 67.7594 171.583 68.2774C171.583 68.7954 171.958 69.1705 172.44 69.1705C172.69 69.1705 172.869 69.0812 172.976 68.9204V69.1348H173.351V68.2774ZM171.976 68.2774C171.976 67.9737 172.172 67.7237 172.494 67.7237C172.797 67.7237 173.012 67.9559 173.012 68.2774C173.012 68.5811 172.797 68.8311 172.494 68.8311C172.172 68.8132 171.976 68.5811 171.976 68.2774ZM167.492 67.3843C166.992 67.3843 166.635 67.7415 166.635 68.2774C166.635 68.8133 166.992 69.1705 167.51 69.1705C167.76 69.1705 168.01 69.099 168.207 68.9383L168.028 68.6704C167.885 68.7776 167.707 68.849 167.528 68.849C167.296 68.849 167.064 68.7418 167.01 68.4381H168.278V68.2953C168.296 67.7415 167.975 67.3843 167.492 67.3843H167.492ZM167.492 67.7058C167.724 67.7058 167.885 67.8487 167.921 68.1167H167.028C167.064 67.8844 167.224 67.7058 167.492 67.7058ZM176.799 68.2774V66.7412H176.424V67.6343C176.298 67.4736 176.12 67.3843 175.888 67.3843C175.405 67.3843 175.03 67.7594 175.03 68.2774C175.03 68.7954 175.405 69.1705 175.888 69.1705C176.138 69.1705 176.316 69.0812 176.424 68.9204V69.1348H176.799V68.2774ZM175.423 68.2774C175.423 67.9737 175.62 67.7237 175.941 67.7237C176.245 67.7237 176.459 67.9559 176.459 68.2774C176.459 68.5811 176.245 68.8311 175.941 68.8311C175.62 68.8132 175.423 68.5811 175.423 68.2774ZM162.884 68.2774V67.42H162.509V67.6343C162.384 67.4736 162.205 67.3843 161.973 67.3843C161.49 67.3843 161.115 67.7594 161.115 68.2774C161.115 68.7954 161.49 69.1705 161.973 69.1705C162.223 69.1705 162.401 69.0812 162.509 68.9204V69.1348H162.884V68.2774ZM161.49 68.2774C161.49 67.9737 161.687 67.7237 162.008 67.7237C162.312 67.7237 162.526 67.9559 162.526 68.2774C162.526 68.5811 162.312 68.8311 162.008 68.8311C161.687 68.8132 161.49 68.5811 161.49 68.2774Z" fill="white"/>
<path d="M164.937 58.9911C164.937 56.9369 165.902 55.1149 167.384 53.9359C166.295 53.0785 164.919 52.5605 163.419 52.5605C159.864 52.5605 156.988 55.4364 156.988 58.9911C156.988 62.5457 159.864 65.4216 163.419 65.4216C164.919 65.4216 166.295 64.9036 167.384 64.0461C165.902 62.8851 164.937 61.0452 164.937 58.9911Z" fill="#EB001B"/>
<path d="M177.798 58.9911C177.798 62.5457 174.922 65.4216 171.368 65.4216C169.867 65.4216 168.492 64.9036 167.402 64.0461C168.903 62.8673 169.85 61.0452 169.85 58.9911C169.85 56.9369 168.885 55.1149 167.402 53.9359C168.492 53.0785 169.867 52.5605 171.368 52.5605C174.922 52.5605 177.798 55.4543 177.798 58.9911H177.798Z" fill="#F79E1B"/>
<path d="M63.3203 74.6895V77.0723H62.1484V74.6895H63.3203ZM63.1797 87.4473V89.5332H62.0156V87.4473H63.1797ZM64.7422 84.9785C64.7422 84.666 64.6719 84.3848 64.5312 84.1348C64.3906 83.8848 64.1589 83.6556 63.8359 83.4473C63.513 83.2389 63.0807 83.0462 62.5391 82.8691C61.8828 82.666 61.3151 82.4186 60.8359 82.127C60.362 81.8353 59.9948 81.4733 59.7344 81.041C59.4792 80.6087 59.3516 80.0853 59.3516 79.4707C59.3516 78.8301 59.4896 78.278 59.7656 77.8145C60.0417 77.3509 60.4323 76.9941 60.9375 76.7441C61.4427 76.4941 62.0365 76.3691 62.7188 76.3691C63.25 76.3691 63.724 76.4499 64.1406 76.6113C64.5573 76.7676 64.9089 77.002 65.1953 77.3145C65.487 77.627 65.7083 78.0098 65.8594 78.4629C66.0156 78.916 66.0938 79.4395 66.0938 80.0332H64.6562C64.6562 79.6842 64.6146 79.3639 64.5312 79.0723C64.4479 78.7806 64.3229 78.528 64.1562 78.3145C63.9896 78.0957 63.7865 77.929 63.5469 77.8145C63.3073 77.6947 63.0312 77.6348 62.7188 77.6348C62.2812 77.6348 61.9193 77.7103 61.6328 77.8613C61.3516 78.0124 61.1432 78.2259 61.0078 78.502C60.8724 78.7728 60.8047 79.0879 60.8047 79.4473C60.8047 79.7806 60.8724 80.0723 61.0078 80.3223C61.1432 80.5723 61.3724 80.7988 61.6953 81.002C62.0234 81.1999 62.474 81.3952 63.0469 81.5879C63.7188 81.8014 64.2891 82.054 64.7578 82.3457C65.2266 82.6322 65.5833 82.9863 65.8281 83.4082C66.0729 83.8249 66.1953 84.3431 66.1953 84.9629C66.1953 85.6348 66.0443 86.2025 65.7422 86.666C65.4401 87.1243 65.0156 87.4733 64.4688 87.7129C63.9219 87.9525 63.2812 88.0723 62.5469 88.0723C62.1042 88.0723 61.6667 88.0124 61.2344 87.8926C60.8021 87.7728 60.4115 87.5775 60.0625 87.3066C59.7135 87.0306 59.4349 86.6686 59.2266 86.2207C59.0182 85.7676 58.9141 85.2129 58.9141 84.5566H60.3672C60.3672 84.9993 60.4297 85.3665 60.5547 85.6582C60.6849 85.9447 60.8568 86.1738 61.0703 86.3457C61.2839 86.5124 61.5182 86.6322 61.7734 86.7051C62.0339 86.7728 62.2917 86.8066 62.5469 86.8066C63.0156 86.8066 63.4115 86.7337 63.7344 86.5879C64.0625 86.4368 64.3125 86.2233 64.4844 85.9473C64.6562 85.6712 64.7422 85.3483 64.7422 84.9785ZM69.8281 82.4941L68.6719 82.1973L69.2422 76.5332H75.0781V77.8691H70.4688L70.125 80.9629C70.3333 80.8431 70.5964 80.7311 70.9141 80.627C71.237 80.5228 71.6068 80.4707 72.0234 80.4707C72.5495 80.4707 73.0208 80.5618 73.4375 80.7441C73.8542 80.9212 74.2083 81.1764 74.5 81.5098C74.7969 81.8431 75.0234 82.2441 75.1797 82.7129C75.3359 83.1816 75.4141 83.7051 75.4141 84.2832C75.4141 84.8301 75.3385 85.3327 75.1875 85.791C75.0417 86.2493 74.8203 86.6504 74.5234 86.9941C74.2266 87.3327 73.8516 87.5957 73.3984 87.7832C72.9505 87.9707 72.4219 88.0645 71.8125 88.0645C71.3542 88.0645 70.9193 88.002 70.5078 87.877C70.1016 87.7467 69.737 87.5514 69.4141 87.291C69.0964 87.0254 68.8359 86.6973 68.6328 86.3066C68.4349 85.9108 68.3099 85.4473 68.2578 84.916H69.6328C69.6953 85.3431 69.8203 85.7025 70.0078 85.9941C70.1953 86.2858 70.4401 86.5072 70.7422 86.6582C71.0495 86.804 71.4062 86.877 71.8125 86.877C72.1562 86.877 72.4609 86.8171 72.7266 86.6973C72.9922 86.5775 73.2161 86.4056 73.3984 86.1816C73.5807 85.9577 73.7188 85.6868 73.8125 85.3691C73.9115 85.0514 73.9609 84.6947 73.9609 84.2988C73.9609 83.9395 73.9115 83.6061 73.8125 83.2988C73.7135 82.9915 73.5651 82.7233 73.3672 82.4941C73.1745 82.265 72.9375 82.0879 72.6562 81.9629C72.375 81.8327 72.0521 81.7676 71.6875 81.7676C71.2031 81.7676 70.8359 81.8327 70.5859 81.9629C70.3411 82.0931 70.0885 82.2702 69.8281 82.4941ZM78.4688 86.1895V87.3535C78.4688 87.8275 78.349 88.3275 78.1094 88.8535C77.8698 89.3848 77.5339 89.8275 77.1016 90.1816L76.2812 89.6113C76.4479 89.3822 76.5885 89.1478 76.7031 88.9082C76.8177 88.6738 76.9036 88.429 76.9609 88.1738C77.0234 87.9238 77.0547 87.6582 77.0547 87.377V86.1895H78.4688ZM87.5078 76.5332V77.3457L82.7969 87.9082H81.2734L85.9766 77.7207H79.8203V76.5332H87.5078ZM90.9844 82.4941L89.8281 82.1973L90.3984 76.5332H96.2344V77.8691H91.625L91.2812 80.9629C91.4896 80.8431 91.7526 80.7311 92.0703 80.627C92.3932 80.5228 92.763 80.4707 93.1797 80.4707C93.7057 80.4707 94.1771 80.5618 94.5938 80.7441C95.0104 80.9212 95.3646 81.1764 95.6562 81.5098C95.9531 81.8431 96.1797 82.2441 96.3359 82.7129C96.4922 83.1816 96.5703 83.7051 96.5703 84.2832C96.5703 84.8301 96.4948 85.3327 96.3438 85.791C96.1979 86.2493 95.9766 86.6504 95.6797 86.9941C95.3828 87.3327 95.0078 87.5957 94.5547 87.7832C94.1068 87.9707 93.5781 88.0645 92.9688 88.0645C92.5104 88.0645 92.0755 88.002 91.6641 87.877C91.2578 87.7467 90.8932 87.5514 90.5703 87.291C90.2526 87.0254 89.9922 86.6973 89.7891 86.3066C89.5911 85.9108 89.4661 85.4473 89.4141 84.916H90.7891C90.8516 85.3431 90.9766 85.7025 91.1641 85.9941C91.3516 86.2858 91.5964 86.5072 91.8984 86.6582C92.2057 86.804 92.5625 86.877 92.9688 86.877C93.3125 86.877 93.6172 86.8171 93.8828 86.6973C94.1484 86.5775 94.3724 86.4056 94.5547 86.1816C94.737 85.9577 94.875 85.6868 94.9688 85.3691C95.0677 85.0514 95.1172 84.6947 95.1172 84.2988C95.1172 83.9395 95.0677 83.6061 94.9688 83.2988C94.8698 82.9915 94.7214 82.7233 94.5234 82.4941C94.3307 82.265 94.0938 82.0879 93.8125 81.9629C93.5312 81.8327 93.2083 81.7676 92.8438 81.7676C92.3594 81.7676 91.9922 81.8327 91.7422 81.9629C91.4974 82.0931 91.2448 82.2702 90.9844 82.4941ZM105.297 81.3145V83.0488C105.297 83.9811 105.214 84.7676 105.047 85.4082C104.88 86.0488 104.641 86.5645 104.328 86.9551C104.016 87.3457 103.638 87.6296 103.195 87.8066C102.758 87.9785 102.263 88.0645 101.711 88.0645C101.273 88.0645 100.87 88.0098 100.5 87.9004C100.13 87.791 99.7969 87.6165 99.5 87.377C99.2083 87.1322 98.9583 86.8145 98.75 86.4238C98.5417 86.0332 98.3828 85.5592 98.2734 85.002C98.1641 84.4447 98.1094 83.7936 98.1094 83.0488V81.3145C98.1094 80.3822 98.1927 79.6009 98.3594 78.9707C98.5312 78.3405 98.7734 77.8353 99.0859 77.4551C99.3984 77.0697 99.7734 76.7936 100.211 76.627C100.654 76.4603 101.148 76.377 101.695 76.377C102.138 76.377 102.544 76.4316 102.914 76.541C103.289 76.6452 103.622 76.8145 103.914 77.0488C104.206 77.278 104.453 77.5853 104.656 77.9707C104.865 78.3509 105.023 78.8171 105.133 79.3691C105.242 79.9212 105.297 80.5697 105.297 81.3145ZM103.844 83.2832V81.0723C103.844 80.5618 103.812 80.1139 103.75 79.7285C103.693 79.3379 103.607 79.0046 103.492 78.7285C103.378 78.4525 103.232 78.2285 103.055 78.0566C102.883 77.8848 102.682 77.7598 102.453 77.6816C102.229 77.5983 101.977 77.5566 101.695 77.5566C101.352 77.5566 101.047 77.6217 100.781 77.752C100.516 77.877 100.292 78.0775 100.109 78.3535C99.9323 78.6296 99.7969 78.9915 99.7031 79.4395C99.6094 79.8874 99.5625 80.4316 99.5625 81.0723V83.2832C99.5625 83.7936 99.5911 84.2441 99.6484 84.6348C99.7109 85.0254 99.8021 85.3639 99.9219 85.6504C100.042 85.9316 100.188 86.1634 100.359 86.3457C100.531 86.528 100.729 86.6634 100.953 86.752C101.182 86.8353 101.435 86.877 101.711 86.877C102.065 86.877 102.375 86.8092 102.641 86.6738C102.906 86.5384 103.128 86.3275 103.305 86.041C103.487 85.7493 103.622 85.377 103.711 84.9238C103.799 84.4655 103.844 83.9186 103.844 83.2832ZM108.625 86.1895V87.3535C108.625 87.8275 108.505 88.3275 108.266 88.8535C108.026 89.3848 107.69 89.8275 107.258 90.1816L106.438 89.6113C106.604 89.3822 106.745 89.1478 106.859 88.9082C106.974 88.6738 107.06 88.429 107.117 88.1738C107.18 87.9238 107.211 87.6582 107.211 87.377V86.1895H108.625ZM117.766 86.7207V87.9082H110.32V86.8691L114.047 82.7207C114.505 82.2103 114.859 81.778 115.109 81.4238C115.365 81.0645 115.542 80.7441 115.641 80.4629C115.745 80.1764 115.797 79.8848 115.797 79.5879C115.797 79.2129 115.719 78.8743 115.562 78.5723C115.411 78.265 115.188 78.0202 114.891 77.8379C114.594 77.6556 114.234 77.5645 113.812 77.5645C113.307 77.5645 112.885 77.6634 112.547 77.8613C112.214 78.054 111.964 78.3249 111.797 78.6738C111.63 79.0228 111.547 79.4238 111.547 79.877H110.102C110.102 79.2363 110.242 78.6504 110.523 78.1191C110.805 77.5879 111.221 77.166 111.773 76.8535C112.326 76.5358 113.005 76.377 113.812 76.377C114.531 76.377 115.146 76.5046 115.656 76.7598C116.167 77.0098 116.557 77.3639 116.828 77.8223C117.104 78.2754 117.242 78.8066 117.242 79.416C117.242 79.7493 117.185 80.0879 117.07 80.4316C116.961 80.7702 116.807 81.1087 116.609 81.4473C116.417 81.7858 116.19 82.1191 115.93 82.4473C115.674 82.7754 115.401 83.0983 115.109 83.416L112.062 86.7207H117.766ZM126.453 81.3145V83.0488C126.453 83.9811 126.37 84.7676 126.203 85.4082C126.036 86.0488 125.797 86.5645 125.484 86.9551C125.172 87.3457 124.794 87.6296 124.352 87.8066C123.914 87.9785 123.419 88.0645 122.867 88.0645C122.43 88.0645 122.026 88.0098 121.656 87.9004C121.286 87.791 120.953 87.6165 120.656 87.377C120.365 87.1322 120.115 86.8145 119.906 86.4238C119.698 86.0332 119.539 85.5592 119.43 85.002C119.32 84.4447 119.266 83.7936 119.266 83.0488V81.3145C119.266 80.3822 119.349 79.6009 119.516 78.9707C119.688 78.3405 119.93 77.8353 120.242 77.4551C120.555 77.0697 120.93 76.7936 121.367 76.627C121.81 76.4603 122.305 76.377 122.852 76.377C123.294 76.377 123.701 76.4316 124.07 76.541C124.445 76.6452 124.779 76.8145 125.07 77.0488C125.362 77.278 125.609 77.5853 125.812 77.9707C126.021 78.3509 126.18 78.8171 126.289 79.3691C126.398 79.9212 126.453 80.5697 126.453 81.3145ZM125 83.2832V81.0723C125 80.5618 124.969 80.1139 124.906 79.7285C124.849 79.3379 124.763 79.0046 124.648 78.7285C124.534 78.4525 124.388 78.2285 124.211 78.0566C124.039 77.8848 123.839 77.7598 123.609 77.6816C123.385 77.5983 123.133 77.5566 122.852 77.5566C122.508 77.5566 122.203 77.6217 121.938 77.752C121.672 77.877 121.448 78.0775 121.266 78.3535C121.089 78.6296 120.953 78.9915 120.859 79.4395C120.766 79.8874 120.719 80.4316 120.719 81.0723V83.2832C120.719 83.7936 120.747 84.2441 120.805 84.6348C120.867 85.0254 120.958 85.3639 121.078 85.6504C121.198 85.9316 121.344 86.1634 121.516 86.3457C121.688 86.528 121.885 86.6634 122.109 86.752C122.339 86.8353 122.591 86.877 122.867 86.877C123.221 86.877 123.531 86.8092 123.797 86.6738C124.062 86.5384 124.284 86.3275 124.461 86.041C124.643 85.7493 124.779 85.377 124.867 84.9238C124.956 84.4655 125 83.9186 125 83.2832Z" fill="white"/>
<path opacity="0.54" d="M64.9922 61.6123H65.9297C65.8809 62.0615 65.7523 62.4635 65.5439 62.8184C65.3356 63.1732 65.041 63.4548 64.6602 63.6631C64.2793 63.8682 63.804 63.9707 63.2344 63.9707C62.8177 63.9707 62.4385 63.8926 62.0967 63.7363C61.7581 63.5801 61.4668 63.3587 61.2227 63.0723C60.9785 62.7826 60.7897 62.4359 60.6562 62.0322C60.526 61.6253 60.4609 61.1729 60.4609 60.6748V59.9668C60.4609 59.4688 60.526 59.0179 60.6562 58.6143C60.7897 58.2074 60.9801 57.859 61.2275 57.5693C61.4782 57.2796 61.7793 57.0566 62.1309 56.9004C62.4824 56.7441 62.8779 56.666 63.3174 56.666C63.8545 56.666 64.3086 56.7669 64.6797 56.9688C65.0508 57.1706 65.3389 57.4505 65.5439 57.8086C65.7523 58.1634 65.8809 58.5752 65.9297 59.0439H64.9922C64.9466 58.7119 64.862 58.4271 64.7383 58.1895C64.6146 57.9486 64.4388 57.763 64.2109 57.6328C63.9831 57.5026 63.6852 57.4375 63.3174 57.4375C63.0016 57.4375 62.7233 57.4977 62.4824 57.6182C62.2448 57.7386 62.0446 57.9095 61.8818 58.1309C61.7223 58.3522 61.6019 58.6175 61.5205 58.9268C61.4391 59.236 61.3984 59.5794 61.3984 59.957V60.6748C61.3984 61.0231 61.4342 61.3503 61.5059 61.6562C61.5807 61.9622 61.693 62.2308 61.8428 62.4619C61.9925 62.693 62.1829 62.8753 62.4141 63.0088C62.6452 63.139 62.9186 63.2041 63.2344 63.2041C63.6348 63.2041 63.9538 63.1406 64.1914 63.0137C64.429 62.8867 64.6081 62.7044 64.7285 62.4668C64.8522 62.2292 64.9401 61.9443 64.9922 61.6123ZM70.3096 62.6523V58.5898H71.2178V63.873H70.3535L70.3096 62.6523ZM70.4805 61.5391L70.8564 61.5293C70.8564 61.8809 70.819 62.2064 70.7441 62.5059C70.6725 62.8021 70.5553 63.0592 70.3926 63.2773C70.2298 63.4954 70.0166 63.6663 69.7529 63.79C69.4893 63.9105 69.1686 63.9707 68.791 63.9707C68.5339 63.9707 68.2979 63.9333 68.083 63.8584C67.8714 63.7835 67.6891 63.668 67.5361 63.5117C67.3831 63.3555 67.2643 63.152 67.1797 62.9014C67.0983 62.6507 67.0576 62.3496 67.0576 61.998V58.5898H67.9609V62.0078C67.9609 62.2454 67.987 62.4424 68.0391 62.5986C68.0944 62.7516 68.1676 62.8737 68.2588 62.9648C68.3532 63.0527 68.4574 63.1146 68.5713 63.1504C68.6885 63.1862 68.8089 63.2041 68.9326 63.2041C69.3167 63.2041 69.6211 63.1309 69.8457 62.9844C70.0703 62.8346 70.2314 62.6344 70.3291 62.3838C70.43 62.1299 70.4805 61.8483 70.4805 61.5391ZM73.498 59.4199V63.873H72.5947V58.5898H73.4736L73.498 59.4199ZM75.1484 58.5605L75.1436 59.4004C75.0687 59.3841 74.9971 59.3743 74.9287 59.3711C74.8636 59.3646 74.7887 59.3613 74.7041 59.3613C74.4958 59.3613 74.3118 59.3939 74.1523 59.459C73.9928 59.5241 73.8577 59.6152 73.7471 59.7324C73.6364 59.8496 73.5485 59.9896 73.4834 60.1523C73.4215 60.3118 73.3809 60.4876 73.3613 60.6797L73.1074 60.8262C73.1074 60.5072 73.1383 60.2077 73.2002 59.9277C73.2653 59.6478 73.3646 59.4004 73.498 59.1855C73.6315 58.9674 73.8008 58.7982 74.0059 58.6777C74.2142 58.554 74.4616 58.4922 74.748 58.4922C74.8132 58.4922 74.888 58.5003 74.9727 58.5166C75.0573 58.5296 75.1159 58.5443 75.1484 58.5605ZM76.8867 59.4199V63.873H75.9834V58.5898H76.8623L76.8867 59.4199ZM78.5371 58.5605L78.5322 59.4004C78.4574 59.3841 78.3857 59.3743 78.3174 59.3711C78.2523 59.3646 78.1774 59.3613 78.0928 59.3613C77.8844 59.3613 77.7005 59.3939 77.541 59.459C77.3815 59.5241 77.2464 59.6152 77.1357 59.7324C77.0251 59.8496 76.9372 59.9896 76.8721 60.1523C76.8102 60.3118 76.7695 60.4876 76.75 60.6797L76.4961 60.8262C76.4961 60.5072 76.527 60.2077 76.5889 59.9277C76.654 59.6478 76.7533 59.4004 76.8867 59.1855C77.0202 58.9674 77.1895 58.7982 77.3945 58.6777C77.6029 58.554 77.8503 58.4922 78.1367 58.4922C78.2018 58.4922 78.2767 58.5003 78.3613 58.5166C78.446 58.5296 78.5046 58.5443 78.5371 58.5605ZM81.4668 63.9707C81.099 63.9707 80.7653 63.9089 80.4658 63.7852C80.1696 63.6582 79.9141 63.4808 79.6992 63.2529C79.4876 63.0251 79.3249 62.7549 79.2109 62.4424C79.097 62.1299 79.04 61.7881 79.04 61.417V61.2119C79.04 60.7822 79.1035 60.3997 79.2305 60.0645C79.3574 59.7259 79.5299 59.4395 79.748 59.2051C79.9661 58.9707 80.2135 58.7933 80.4902 58.6729C80.7669 58.5524 81.0534 58.4922 81.3496 58.4922C81.7272 58.4922 82.0527 58.5573 82.3262 58.6875C82.6029 58.8177 82.8291 59 83.0049 59.2344C83.1807 59.4655 83.3109 59.7389 83.3955 60.0547C83.4801 60.3672 83.5225 60.709 83.5225 61.0801V61.4854H79.5771V60.748H82.6191V60.6797C82.6061 60.4453 82.5573 60.2174 82.4727 59.9961C82.3913 59.7747 82.2611 59.5924 82.082 59.4492C81.903 59.306 81.6589 59.2344 81.3496 59.2344C81.1445 59.2344 80.9557 59.2783 80.7832 59.3662C80.6107 59.4508 80.4626 59.5778 80.3389 59.7471C80.2152 59.9163 80.1191 60.123 80.0508 60.3672C79.9824 60.6113 79.9482 60.8929 79.9482 61.2119V61.417C79.9482 61.6676 79.9824 61.9036 80.0508 62.125C80.1224 62.3431 80.2249 62.5352 80.3584 62.7012C80.4951 62.8672 80.6595 62.9974 80.8516 63.0918C81.0469 63.1862 81.2682 63.2334 81.5156 63.2334C81.8346 63.2334 82.1048 63.1683 82.3262 63.0381C82.5475 62.9079 82.7412 62.7337 82.9072 62.5156L83.4541 62.9502C83.3402 63.1227 83.1953 63.2871 83.0195 63.4434C82.8438 63.5996 82.6273 63.7266 82.3701 63.8242C82.1162 63.9219 81.8151 63.9707 81.4668 63.9707ZM85.4805 59.7178V63.873H84.5771V58.5898H85.4316L85.4805 59.7178ZM85.2656 61.0312L84.8896 61.0166C84.8929 60.6553 84.9466 60.3216 85.0508 60.0156C85.1549 59.7064 85.3014 59.4378 85.4902 59.21C85.679 58.9821 85.9036 58.8063 86.1641 58.6826C86.4277 58.5557 86.7191 58.4922 87.0381 58.4922C87.2985 58.4922 87.5329 58.528 87.7412 58.5996C87.9495 58.668 88.127 58.7786 88.2734 58.9316C88.4232 59.0846 88.5371 59.2832 88.6152 59.5273C88.6934 59.7682 88.7324 60.0628 88.7324 60.4111V63.873H87.8242V60.4014C87.8242 60.1247 87.7835 59.9033 87.7021 59.7373C87.6208 59.568 87.502 59.446 87.3457 59.3711C87.1895 59.293 86.9974 59.2539 86.7695 59.2539C86.5449 59.2539 86.3398 59.3011 86.1543 59.3955C85.972 59.4899 85.8141 59.6201 85.6807 59.7861C85.5505 59.9521 85.4479 60.1426 85.373 60.3574C85.3014 60.569 85.2656 60.7936 85.2656 61.0312ZM92.3164 58.5898V59.2832H89.46V58.5898H92.3164ZM90.4268 57.3057H91.3301V62.5645C91.3301 62.7435 91.3577 62.8786 91.4131 62.9697C91.4684 63.0609 91.54 63.1211 91.6279 63.1504C91.7158 63.1797 91.8102 63.1943 91.9111 63.1943C91.986 63.1943 92.0641 63.1878 92.1455 63.1748C92.2301 63.1585 92.2936 63.1455 92.3359 63.1357L92.3408 63.873C92.2692 63.8958 92.1748 63.917 92.0576 63.9365C91.9437 63.9593 91.8053 63.9707 91.6426 63.9707C91.4212 63.9707 91.2178 63.9268 91.0322 63.8389C90.8467 63.751 90.6986 63.6045 90.5879 63.3994C90.4805 63.1911 90.4268 62.9111 90.4268 62.5596V57.3057ZM98.5273 60.5479H96.7256L96.7158 59.791H98.3516C98.6217 59.791 98.8577 59.7454 99.0596 59.6543C99.2614 59.5632 99.4176 59.4329 99.5283 59.2637C99.6423 59.0911 99.6992 58.8861 99.6992 58.6484C99.6992 58.388 99.6488 58.1764 99.5479 58.0137C99.4502 57.8477 99.2988 57.7272 99.0938 57.6523C98.8919 57.5742 98.6348 57.5352 98.3223 57.5352H96.9355V63.873H95.9932V56.7637H98.3223C98.6868 56.7637 99.0124 56.8011 99.2988 56.876C99.5853 56.9476 99.8278 57.0615 100.026 57.2178C100.228 57.3708 100.381 57.5661 100.485 57.8037C100.59 58.0413 100.642 58.3262 100.642 58.6582C100.642 58.9512 100.567 59.2165 100.417 59.4541C100.267 59.6885 100.059 59.8805 99.792 60.0303C99.5283 60.18 99.2191 60.276 98.8643 60.3184L98.5273 60.5479ZM98.4834 63.873H96.3545L96.8867 63.1064H98.4834C98.7829 63.1064 99.0368 63.0544 99.2451 62.9502C99.4567 62.846 99.6178 62.6995 99.7285 62.5107C99.8392 62.3187 99.8945 62.0924 99.8945 61.832C99.8945 61.5684 99.8473 61.3405 99.7529 61.1484C99.6585 60.9564 99.5104 60.8083 99.3086 60.7041C99.1068 60.5999 98.8464 60.5479 98.5273 60.5479H97.1846L97.1943 59.791H99.0303L99.2305 60.0645C99.5723 60.0938 99.862 60.1914 100.1 60.3574C100.337 60.5202 100.518 60.7285 100.642 60.9824C100.769 61.2363 100.832 61.5163 100.832 61.8223C100.832 62.265 100.734 62.6393 100.539 62.9453C100.347 63.248 100.075 63.4792 99.7236 63.6387C99.3721 63.7949 98.9587 63.873 98.4834 63.873ZM105.202 62.9697V60.25C105.202 60.0417 105.16 59.861 105.075 59.708C104.994 59.5518 104.87 59.4313 104.704 59.3467C104.538 59.262 104.333 59.2197 104.089 59.2197C103.861 59.2197 103.661 59.2588 103.488 59.3369C103.319 59.415 103.186 59.5176 103.088 59.6445C102.993 59.7715 102.946 59.9082 102.946 60.0547H102.043C102.043 59.8659 102.092 59.6787 102.189 59.4932C102.287 59.3076 102.427 59.14 102.609 58.9902C102.795 58.8372 103.016 58.7168 103.273 58.6289C103.534 58.5378 103.824 58.4922 104.143 58.4922C104.527 58.4922 104.865 58.5573 105.158 58.6875C105.454 58.8177 105.686 59.0146 105.852 59.2783C106.021 59.5387 106.105 59.8659 106.105 60.2598V62.7207C106.105 62.8965 106.12 63.0837 106.149 63.2822C106.182 63.4808 106.229 63.6517 106.291 63.7949V63.873H105.349C105.303 63.7689 105.267 63.6305 105.241 63.458C105.215 63.2822 105.202 63.1195 105.202 62.9697ZM105.358 60.6699L105.368 61.3047H104.455C104.198 61.3047 103.968 61.3258 103.767 61.3682C103.565 61.4072 103.396 61.4674 103.259 61.5488C103.122 61.6302 103.018 61.7327 102.946 61.8564C102.875 61.9769 102.839 62.1185 102.839 62.2812C102.839 62.4473 102.876 62.5986 102.951 62.7354C103.026 62.8721 103.138 62.9811 103.288 63.0625C103.441 63.1406 103.628 63.1797 103.85 63.1797C104.126 63.1797 104.37 63.1211 104.582 63.0039C104.794 62.8867 104.961 62.7435 105.085 62.5742C105.212 62.4049 105.28 62.2406 105.29 62.0811L105.676 62.5156C105.653 62.6523 105.591 62.8037 105.49 62.9697C105.389 63.1357 105.254 63.2952 105.085 63.4482C104.919 63.598 104.72 63.7233 104.489 63.8242C104.261 63.9219 104.004 63.9707 103.718 63.9707C103.36 63.9707 103.046 63.9007 102.775 63.7607C102.508 63.6208 102.3 63.4336 102.15 63.1992C102.004 62.9616 101.931 62.6963 101.931 62.4033C101.931 62.1201 101.986 61.8711 102.097 61.6562C102.207 61.4382 102.367 61.2575 102.575 61.1143C102.784 60.9678 103.034 60.8571 103.327 60.7822C103.62 60.7074 103.947 60.6699 104.309 60.6699H105.358ZM108.508 56.373V63.873H107.6V56.373H108.508ZM113.073 62.9697V60.25C113.073 60.0417 113.031 59.861 112.946 59.708C112.865 59.5518 112.741 59.4313 112.575 59.3467C112.409 59.262 112.204 59.2197 111.96 59.2197C111.732 59.2197 111.532 59.2588 111.359 59.3369C111.19 59.415 111.057 59.5176 110.959 59.6445C110.865 59.7715 110.817 59.9082 110.817 60.0547H109.914C109.914 59.8659 109.963 59.6787 110.061 59.4932C110.158 59.3076 110.298 59.14 110.48 58.9902C110.666 58.8372 110.887 58.7168 111.145 58.6289C111.405 58.5378 111.695 58.4922 112.014 58.4922C112.398 58.4922 112.736 58.5573 113.029 58.6875C113.326 58.8177 113.557 59.0146 113.723 59.2783C113.892 59.5387 113.977 59.8659 113.977 60.2598V62.7207C113.977 62.8965 113.991 63.0837 114.021 63.2822C114.053 63.4808 114.1 63.6517 114.162 63.7949V63.873H113.22C113.174 63.7689 113.138 63.6305 113.112 63.458C113.086 63.2822 113.073 63.1195 113.073 62.9697ZM113.229 60.6699L113.239 61.3047H112.326C112.069 61.3047 111.84 61.3258 111.638 61.3682C111.436 61.4072 111.267 61.4674 111.13 61.5488C110.993 61.6302 110.889 61.7327 110.817 61.8564C110.746 61.9769 110.71 62.1185 110.71 62.2812C110.71 62.4473 110.747 62.5986 110.822 62.7354C110.897 62.8721 111.009 62.9811 111.159 63.0625C111.312 63.1406 111.499 63.1797 111.721 63.1797C111.997 63.1797 112.242 63.1211 112.453 63.0039C112.665 62.8867 112.832 62.7435 112.956 62.5742C113.083 62.4049 113.151 62.2406 113.161 62.0811L113.547 62.5156C113.524 62.6523 113.462 62.8037 113.361 62.9697C113.26 63.1357 113.125 63.2952 112.956 63.4482C112.79 63.598 112.591 63.7233 112.36 63.8242C112.132 63.9219 111.875 63.9707 111.589 63.9707C111.231 63.9707 110.917 63.9007 110.646 63.7607C110.38 63.6208 110.171 63.4336 110.021 63.1992C109.875 62.9616 109.802 62.6963 109.802 62.4033C109.802 62.1201 109.857 61.8711 109.968 61.6562C110.078 61.4382 110.238 61.2575 110.446 61.1143C110.655 60.9678 110.905 60.8571 111.198 60.7822C111.491 60.7074 111.818 60.6699 112.18 60.6699H113.229ZM116.301 59.7178V63.873H115.397V58.5898H116.252L116.301 59.7178ZM116.086 61.0312L115.71 61.0166C115.713 60.6553 115.767 60.3216 115.871 60.0156C115.975 59.7064 116.122 59.4378 116.311 59.21C116.499 58.9821 116.724 58.8063 116.984 58.6826C117.248 58.5557 117.539 58.4922 117.858 58.4922C118.119 58.4922 118.353 58.528 118.562 58.5996C118.77 58.668 118.947 58.7786 119.094 58.9316C119.243 59.0846 119.357 59.2832 119.436 59.5273C119.514 59.7682 119.553 60.0628 119.553 60.4111V63.873H118.645V60.4014C118.645 60.1247 118.604 59.9033 118.522 59.7373C118.441 59.568 118.322 59.446 118.166 59.3711C118.01 59.293 117.818 59.2539 117.59 59.2539C117.365 59.2539 117.16 59.3011 116.975 59.3955C116.792 59.4899 116.634 59.6201 116.501 59.7861C116.371 59.9521 116.268 60.1426 116.193 60.3574C116.122 60.569 116.086 60.7936 116.086 61.0312ZM123.039 63.2285C123.254 63.2285 123.452 63.1846 123.635 63.0967C123.817 63.0088 123.967 62.8883 124.084 62.7354C124.201 62.5791 124.268 62.4017 124.284 62.2031H125.144C125.127 62.5156 125.021 62.807 124.826 63.0771C124.634 63.3441 124.382 63.5605 124.069 63.7266C123.757 63.8893 123.413 63.9707 123.039 63.9707C122.642 63.9707 122.295 63.9007 121.999 63.7607C121.706 63.6208 121.462 63.4287 121.267 63.1846C121.075 62.9404 120.93 62.6605 120.832 62.3447C120.738 62.0257 120.69 61.6888 120.69 61.334V61.1289C120.69 60.7741 120.738 60.4388 120.832 60.123C120.93 59.804 121.075 59.5225 121.267 59.2783C121.462 59.0342 121.706 58.8421 121.999 58.7021C122.295 58.5622 122.642 58.4922 123.039 58.4922C123.452 58.4922 123.814 58.5768 124.123 58.7461C124.432 58.9121 124.675 59.14 124.851 59.4297C125.03 59.7161 125.127 60.0417 125.144 60.4062H124.284C124.268 60.1882 124.206 59.9912 124.099 59.8154C123.994 59.6396 123.851 59.4997 123.669 59.3955C123.49 59.2881 123.28 59.2344 123.039 59.2344C122.762 59.2344 122.53 59.2897 122.341 59.4004C122.155 59.5078 122.007 59.6543 121.896 59.8398C121.789 60.0221 121.711 60.2256 121.662 60.4502C121.617 60.6715 121.594 60.8978 121.594 61.1289V61.334C121.594 61.5651 121.617 61.793 121.662 62.0176C121.708 62.2422 121.784 62.4456 121.892 62.6279C122.002 62.8102 122.15 62.9567 122.336 63.0674C122.525 63.1748 122.759 63.2285 123.039 63.2285ZM128.352 63.9707C127.984 63.9707 127.65 63.9089 127.351 63.7852C127.054 63.6582 126.799 63.4808 126.584 63.2529C126.372 63.0251 126.21 62.7549 126.096 62.4424C125.982 62.1299 125.925 61.7881 125.925 61.417V61.2119C125.925 60.7822 125.988 60.3997 126.115 60.0645C126.242 59.7259 126.415 59.4395 126.633 59.2051C126.851 58.9707 127.098 58.7933 127.375 58.6729C127.652 58.5524 127.938 58.4922 128.234 58.4922C128.612 58.4922 128.938 58.5573 129.211 58.6875C129.488 58.8177 129.714 59 129.89 59.2344C130.065 59.4655 130.196 59.7389 130.28 60.0547C130.365 60.3672 130.407 60.709 130.407 61.0801V61.4854H126.462V60.748H129.504V60.6797C129.491 60.4453 129.442 60.2174 129.357 59.9961C129.276 59.7747 129.146 59.5924 128.967 59.4492C128.788 59.306 128.544 59.2344 128.234 59.2344C128.029 59.2344 127.84 59.2783 127.668 59.3662C127.495 59.4508 127.347 59.5778 127.224 59.7471C127.1 59.9163 127.004 60.123 126.936 60.3672C126.867 60.6113 126.833 60.8929 126.833 61.2119V61.417C126.833 61.6676 126.867 61.9036 126.936 62.125C127.007 62.3431 127.11 62.5352 127.243 62.7012C127.38 62.8672 127.544 62.9974 127.736 63.0918C127.932 63.1862 128.153 63.2334 128.4 63.2334C128.719 63.2334 128.99 63.1683 129.211 63.0381C129.432 62.9079 129.626 62.7337 129.792 62.5156L130.339 62.9502C130.225 63.1227 130.08 63.2871 129.904 63.4434C129.729 63.5996 129.512 63.7266 129.255 63.8242C129.001 63.9219 128.7 63.9707 128.352 63.9707Z" fill="white"/>
<g clip-path="url(#clip0_2094_4772)">
<path d="M17.9788 73.7422C16.4834 73.7423 15.0162 74.1496 13.7349 74.9206C12.4535 75.6915 11.4063 76.7969 10.7056 78.118C10.005 79.4392 9.67743 80.9262 9.75808 82.4194C9.83873 83.9127 10.3246 85.3558 11.1634 86.5938L10.3589 89.6976L13.5937 88.9429C14.6737 89.6224 15.8968 90.0416 17.1666 90.1674C18.4364 90.2932 19.718 90.1221 20.9103 89.6676C22.1026 89.2132 23.173 88.4878 24.0369 87.5488C24.9008 86.6097 25.5346 85.4827 25.8883 84.2568C26.2419 83.0308 26.3058 81.7394 26.0748 80.4845C25.8438 79.2296 25.3243 78.0455 24.5572 77.0258C23.7902 76.0062 22.7966 75.1787 21.655 74.6088C20.5133 74.039 19.2548 73.7423 17.9788 73.7422ZM22.0271 86.4697C20.8756 87.0098 18.4714 86.728 15.9386 84.5605C13.4059 82.3929 12.7562 80.0611 13.1116 78.84C13.4671 77.619 14.8637 77.3934 15.1272 77.4517C15.3906 77.51 16.708 79.5986 16.5285 79.8422C16.349 80.0859 15.4819 80.9531 15.4819 80.9531C15.4819 80.9531 15.4454 81.8404 17.0736 83.2338C18.7017 84.6273 19.5728 84.4541 19.5728 84.4541C19.5728 84.4541 20.2956 83.4629 20.5085 83.2483C20.7215 83.0337 22.9886 84.0126 23.0869 84.2639C23.1852 84.5152 23.1782 85.9299 22.0267 86.4697H22.0271Z" fill="#9333EA"/>
<path d="M17.5 65C7.83501 65 0 72.835 0 82.5C0 92.165 7.83501 100 17.5 100C27.165 100 35 92.165 35 82.5C35 72.835 27.165 65 17.5 65ZM17.9785 91.9302C16.3358 91.9326 14.7182 91.5267 13.2713 90.7489L7.97754 92.0703L9.31841 86.8887C8.23792 84.9853 7.81471 82.7788 8.11422 80.6107C8.41374 78.4426 9.41929 76.4336 10.9754 74.8944C12.5314 73.3552 14.5513 72.3716 16.7225 72.0957C18.8938 71.8199 21.0955 72.2671 22.987 73.3683C24.8785 74.4695 26.3545 76.1632 27.1867 78.1875C28.0189 80.2119 28.1608 82.454 27.5907 84.5672C27.0205 86.6803 25.7699 88.5467 24.0324 89.8777C22.2949 91.2086 20.1672 91.93 17.9785 91.9302Z" fill="#9333EA"/>
</g>
<g clip-path="url(#clip1_2094_4772)">
<path fill-rule="evenodd" clip-rule="evenodd" d="M17.5 35C27.165 35 35 27.165 35 17.5C35 7.83502 27.165 0 17.5 0C7.83502 0 0 7.83502 0 17.5C0 27.165 7.83502 35 17.5 35Z" fill="#9333EA"/>
<path fill-rule="evenodd" clip-rule="evenodd" d="M8.75 12.7181V22.6276C8.75 23.1667 9.1446 23.6037 9.68823 23.6037H25.1537C25.6968 23.6037 26.0919 23.1617 26.0919 22.6276V12.7181C26.0919 12.1265 25.7385 11.667 25.1537 11.667H9.68823C9.08081 11.667 8.75 12.1378 8.75 12.7181ZM10.176 13.5813C10.176 13.3425 10.3205 13.2059 10.5514 13.2059C10.6942 13.2059 16.314 16.7668 16.6544 16.9757L17.5339 17.5227C17.8127 17.3359 18.0927 17.1761 18.3818 16.9825C18.9717 16.6054 24.2206 13.2059 24.3651 13.2059C24.5965 13.2059 24.7405 13.3425 24.7405 13.5813C24.7405 13.8342 24.2533 14.0854 23.936 14.279C21.9427 15.4938 19.95 16.8182 17.9765 18.0782C17.8613 18.1561 17.6383 18.3226 17.4712 18.2972C17.2849 18.2684 11.5664 14.5946 10.526 13.9826C10.3696 13.8906 10.176 13.8065 10.176 13.5813Z" fill="white"/>
</g>
<path d="M94.4991 2.1875C84.833 2.1875 77 8.55176 77 16.4062C77 19.7962 78.4622 22.9004 80.8958 25.3408C80.0413 28.7854 77.1832 31.8555 77.149 31.8896C76.9991 32.0469 76.9585 32.2793 77.0461 32.4844C77.0743 32.6895 77.3281 32.8125 77.5459 32.8125C82.0788 32.8125 85.4756 30.6387 87.1573 29.2981C89.3926 30.1396 91.8741 30.625 94.4991 30.625C104.165 30.625 111.999 24.2607 111.999 16.4062C111.999 8.55176 104.165 2.1875 94.4991 2.1875ZM88.4356 18.5869C88.2032 19.8994 87 20.7812 85.2774 20.7812C85.0018 20.7812 84.7134 20.7599 84.4167 20.7129C83.9102 20.6309 83.3435 20.4258 82.8438 20.2412C82.2756 20.0361 81.8827 19.3758 82.0857 18.8077C82.2887 18.2396 82.8096 17.8486 83.3825 18.1084C83.8595 18.2792 84.3757 18.4809 84.8098 18.5485C85.5918 18.6689 86.2276 18.5254 86.2823 18.2109C86.3542 17.8068 85.5413 17.637 84.6034 17.3674C83.7748 17.126 81.5764 16.4808 81.9626 14.2229C82.2403 12.6246 83.8295 11.7681 85.9275 12.0976C86.3312 12.1595 86.7779 12.292 87.1983 12.4372C87.7687 12.6338 88.0719 13.2575 87.8755 13.8277C87.6836 14.4033 87.0616 14.7041 86.4873 14.5059C86.1904 14.4033 85.8763 14.305 85.5925 14.2602C84.8255 14.147 84.1761 14.2879 84.1228 14.5955C84.0538 14.9844 84.7647 15.1416 85.503 15.3535C86.6651 15.6885 88.8321 16.3037 88.4356 18.5869ZM98.8741 19.6875C98.8741 20.2921 98.3849 20.7812 97.7803 20.7812C97.1757 20.7812 96.6866 20.2891 96.6866 19.6875V16.4062L95.3747 18.1556C94.9604 18.7067 94.0383 18.7067 93.6234 18.1556L92.3116 16.4062V19.6875C92.3116 20.2921 91.8224 20.7812 91.2178 20.7812C90.6132 20.7812 90.1241 20.2891 90.1241 19.6875V13.125C90.1241 12.655 90.4253 12.2979 90.8719 12.0873C91.3163 11.9442 91.8091 12.0913 92.0935 12.4694L94.4991 15.6748L96.9046 12.4667C97.1887 12.0886 97.6839 11.9436 98.1262 12.0846C98.5733 12.2363 98.8741 12.6533 98.8741 13.125V19.6875ZM107.029 18.5869C106.797 19.8994 105.594 20.7812 103.871 20.7812C103.596 20.7812 103.307 20.7599 103.01 20.7129C102.447 20.6274 101.878 20.4224 101.378 20.2408C100.81 20.0357 100.417 19.3754 100.62 18.8073C100.823 18.2392 101.344 17.9077 101.917 18.1107C102.394 18.2815 102.91 18.4832 103.344 18.5508C104.126 18.6683 104.765 18.5252 104.818 18.2133C104.89 17.8091 104.077 17.6393 103.139 17.3697C102.31 17.1283 100.112 16.4831 100.498 14.2252C100.774 12.6269 102.361 11.7704 104.463 12.0999C104.867 12.1618 105.314 12.2943 105.734 12.4396C106.304 12.6361 106.608 13.2599 106.411 13.83C106.215 14.4004 105.595 14.7057 105.021 14.5072C104.724 14.4046 104.41 14.3063 104.126 14.2615C103.361 14.1483 102.709 14.2892 102.656 14.5968C102.648 14.9844 103.358 15.1416 104.097 15.3535C105.259 15.6885 107.426 16.3037 107.029 18.5869Z" fill="#9333EA"/>
<defs>
<clipPath id="clip0_2094_4772">
<rect width="35" height="35" fill="white" transform="translate(0 65)"/>
</clipPath>
<clipPath id="clip1_2094_4772">
<rect width="35" height="35" fill="white"/>
</clipPath>
</defs>
</svg>
