<svg width="160" height="175" viewBox="0 0 160 175" fill="none" xmlns="http://www.w3.org/2000/svg">
<path d="M115.831 159.839H148.34C149.865 159.839 151.101 161.075 151.101 162.6V170.417C151.101 171.941 149.865 173.177 148.34 173.177H115.831C115.51 173.177 115.25 172.917 115.25 172.596V160.421C115.25 160.1 115.51 159.839 115.831 159.839Z" fill="#637F0D"/>
<path d="M127.125 159.839H156.801C158.415 159.839 159.723 161.148 159.723 162.762V170.255C159.723 171.869 158.415 173.177 156.801 173.177H127.125V159.839Z" fill="#82960D"/>
<path d="M149.336 159.839V173.177H159.442C159.6 173.177 159.729 172.972 159.729 172.719V160.297C159.729 160.044 159.6 159.839 159.442 159.839H149.336Z" fill="#AFB600"/>
<path d="M144.85 159.839H141.172V173.177H144.85V159.839Z" fill="#AFB600"/>
<path d="M159.717 160.914H126.602V161.515H159.717V160.914Z" fill="#637F0D"/>
<path d="M159.717 162.427H126.602V163.028H159.717V162.427Z" fill="#637F0D"/>
<path d="M159.717 163.939H126.602V164.54H159.717V163.939Z" fill="#637F0D"/>
<path d="M159.717 165.451H126.602V166.052H159.717V165.451Z" fill="#637F0D"/>
<path d="M159.717 166.964H126.602V167.565H159.717V166.964Z" fill="#637F0D"/>
<path d="M159.717 168.476H126.602V169.077H159.717V168.476Z" fill="#637F0D"/>
<path d="M159.717 169.989H126.602V170.59H159.717V169.989Z" fill="#637F0D"/>
<path d="M159.717 171.501H126.602V172.102H159.717V171.501Z" fill="#637F0D"/>
<path d="M142.114 159.62H132.719V173.294H142.114V159.62Z" fill="white"/>
<path d="M142.114 166.257H132.719V173.294H142.114V166.257Z" fill="#D0EFF4"/>
<path d="M108.55 146.51H141.059C142.584 146.51 143.82 147.746 143.82 149.27V157.087C143.82 158.612 142.584 159.848 141.059 159.848H108.55C108.229 159.848 107.969 159.587 107.969 159.267V147.092C107.969 146.77 108.229 146.51 108.55 146.51Z" fill="#637F0D"/>
<path d="M119.844 146.51H149.52C151.134 146.51 152.442 147.818 152.442 149.432V156.925C152.442 158.539 151.134 159.848 149.52 159.848H119.844V146.51Z" fill="#82960D"/>
<path d="M142.055 146.51V159.847H152.161C152.319 159.847 152.447 159.642 152.447 159.39V146.967C152.447 146.714 152.319 146.509 152.161 146.509H142.055V146.51Z" fill="#AFB600"/>
<path d="M137.569 146.51H133.891V159.847H137.569V146.51Z" fill="#AFB600"/>
<path d="M152.436 147.584H119.32V148.186H152.436V147.584Z" fill="#637F0D"/>
<path d="M152.436 149.097H119.32V149.698H152.436V149.097Z" fill="#637F0D"/>
<path d="M152.436 150.609H119.32V151.21H152.436V150.609Z" fill="#637F0D"/>
<path d="M152.436 152.122H119.32V152.723H152.436V152.122Z" fill="#637F0D"/>
<path d="M152.436 153.634H119.32V154.235H152.436V153.634Z" fill="#637F0D"/>
<path d="M152.436 155.146H119.32V155.748H152.436V155.146Z" fill="#637F0D"/>
<path d="M152.436 156.659H119.32V157.26H152.436V156.659Z" fill="#637F0D"/>
<path d="M152.436 158.171H119.32V158.773H152.436V158.171Z" fill="#637F0D"/>
<path d="M134.84 146.29H125.445V159.964H134.84V146.29Z" fill="white"/>
<path d="M134.84 152.927H125.445V159.964H134.84V152.927Z" fill="#D0EFF4"/>
<path d="M21.4617 90.4119L6.82812 173.177H35.9751V94.4454L21.4617 90.4119Z" fill="#4D378C"/>
<path d="M123.149 90.4121H21.4531V173.208H123.149V90.4121Z" fill="#6636CE"/>
<path d="M119.117 169.174L119.117 94.4456L25.4883 94.4456L25.4883 169.174H119.117Z" fill="white"/>
<path d="M26.4782 144.438L25.4844 145.359V169.174H42.494L26.4782 144.438Z" fill="#D7E7FF"/>
<path d="M51.3359 107.176V162.37" stroke="#D7E7FF" stroke-miterlimit="10"/>
<path d="M72.5234 107.176V162.37" stroke="#D7E7FF" stroke-miterlimit="10"/>
<path d="M93.7109 107.176V162.37" stroke="#D7E7FF" stroke-miterlimit="10"/>
<path d="M108.053 124.93H37" stroke="#D7E7FF" stroke-miterlimit="10"/>
<path d="M108.053 146.119H37" stroke="#D7E7FF" stroke-miterlimit="10"/>
<path d="M39.1452 104.454C41.1584 104.454 42.7904 102.822 42.7904 100.809C42.7904 98.7961 41.1584 97.1641 39.1452 97.1641C37.132 97.1641 35.5 98.7961 35.5 100.809C35.5 102.822 37.132 104.454 39.1452 104.454Z" fill="#4D378C"/>
<path d="M39.1456 102.781C37.7925 102.781 36.6953 101.684 36.6953 100.331V86.9827C36.6953 85.6296 37.7925 84.5325 39.1456 84.5325C40.4987 84.5325 41.5958 85.6296 41.5958 86.9827V100.331C41.5958 101.684 40.4987 102.781 39.1456 102.781Z" fill="#FFA840"/>
<path d="M39.1456 98.9C37.7925 98.9 36.6953 97.8033 36.6953 96.4502V100.332C36.6953 101.685 37.7925 102.782 39.1456 102.782C40.4987 102.782 41.5958 101.685 41.5958 100.332V96.4502C41.5958 97.8029 40.4987 98.9 39.1456 98.9Z" fill="#FF833E"/>
<path d="M39.1456 92.8624C37.7925 92.8624 36.6953 91.7656 36.6953 90.4121V86.9832C36.6953 85.6301 37.7925 84.533 39.1456 84.533C40.4987 84.533 41.5958 85.6301 41.5958 86.9832V90.4121C41.5958 91.7652 40.4987 92.8624 39.1456 92.8624Z" fill="#FFC943"/>
<path d="M72.3015 104.454C74.3147 104.454 75.9467 102.822 75.9467 100.809C75.9467 98.7961 74.3147 97.1641 72.3015 97.1641C70.2883 97.1641 68.6562 98.7961 68.6562 100.809C68.6562 102.822 70.2883 104.454 72.3015 104.454Z" fill="#4D378C"/>
<path d="M72.3096 102.781C70.9565 102.781 69.8594 101.684 69.8594 100.331V86.9827C69.8594 85.6296 70.9561 84.5325 72.3096 84.5325C73.6627 84.5325 74.7599 85.6296 74.7599 86.9827V100.331C74.7599 101.684 73.6627 102.781 72.3096 102.781Z" fill="#FFA840"/>
<path d="M72.3096 98.9C70.9565 98.9 69.8594 97.8033 69.8594 96.4502V100.332C69.8594 101.685 70.9565 102.782 72.3096 102.782C73.6627 102.782 74.7599 101.685 74.7599 100.332V96.4502C74.7599 97.8029 73.6627 98.9 72.3096 98.9Z" fill="#FF833E"/>
<path d="M72.3096 92.8624C70.9565 92.8624 69.8594 91.7656 69.8594 90.4121V86.9832C69.8594 85.6301 70.9561 84.533 72.3096 84.533C73.6627 84.533 74.7599 85.6301 74.7599 86.9832V90.4121C74.7599 91.7652 73.6627 92.8624 72.3096 92.8624Z" fill="#FFC943"/>
<path d="M105.45 104.454C107.463 104.454 109.095 102.822 109.095 100.809C109.095 98.7961 107.463 97.1641 105.45 97.1641C103.437 97.1641 101.805 98.7961 101.805 100.809C101.805 102.822 103.437 104.454 105.45 104.454Z" fill="#4D378C"/>
<path d="M105.45 102.781C104.097 102.781 103 101.684 103 100.331V86.9827C103 85.6296 104.097 84.5325 105.45 84.5325C106.803 84.5325 107.9 85.6296 107.9 86.9827V100.331C107.9 101.684 106.803 102.781 105.45 102.781Z" fill="#FFA840"/>
<path d="M105.45 98.9C104.097 98.9 103 97.8033 103 96.4502V100.332C103 101.685 104.097 102.782 105.45 102.782C106.803 102.782 107.9 101.685 107.9 100.332V96.4502C107.9 97.8029 106.803 98.9 105.45 98.9Z" fill="#FF833E"/>
<path d="M105.45 92.8624C104.097 92.8624 103 91.7656 103 90.4121V86.9832C103 85.6301 104.097 84.533 105.45 84.533C106.803 84.533 107.9 85.6301 107.9 86.9832V90.4121C107.9 91.7652 106.803 92.8624 105.45 92.8624Z" fill="#FFC943"/>
<path d="M38.0243 121.862C35.1848 121.862 32.875 119.552 32.875 116.713C32.875 113.874 35.1848 111.563 38.0243 111.563C40.8637 111.563 43.1735 113.873 43.1735 116.713C43.174 119.552 40.8637 121.862 38.0243 121.862ZM38.0243 113.204C36.0893 113.204 34.5148 114.778 34.5148 116.713C34.5148 118.648 36.0889 120.222 38.0243 120.222C39.9593 120.222 41.5337 118.648 41.5337 116.713C41.5337 114.778 39.9597 113.204 38.0243 113.204Z" fill="#AFB600"/>
<path d="M38.9632 118.588L37.2656 116.89L38.1355 116.02L38.9632 116.848L47.11 108.702L47.9795 109.571L38.9632 118.588Z" fill="#637F0D"/>
<path d="M60.4696 121.862C57.6301 121.862 55.3203 119.552 55.3203 116.713C55.3203 113.874 57.6301 111.563 60.4696 111.563C63.309 111.563 65.6193 113.873 65.6193 116.713C65.6193 119.552 63.309 121.862 60.4696 121.862ZM60.4696 113.204C58.5346 113.204 56.9601 114.778 56.9601 116.713C56.9601 118.648 58.5342 120.222 60.4696 120.222C62.405 120.222 63.979 118.648 63.979 116.713C63.9795 114.778 62.405 113.204 60.4696 113.204Z" fill="#AFB600"/>
<path d="M61.4085 118.588L59.7109 116.89L60.5808 116.02L61.4085 116.848L69.5554 108.702L70.4248 109.571L61.4085 118.588Z" fill="#637F0D"/>
<path d="M82.9461 121.862C80.1067 121.862 77.7969 119.552 77.7969 116.713C77.7969 113.874 80.1067 111.563 82.9461 111.563C85.7856 111.563 88.0954 113.873 88.0954 116.713C88.0954 119.552 85.7852 121.862 82.9461 121.862ZM82.9461 113.204C81.0112 113.204 79.4367 114.778 79.4367 116.713C79.4367 118.648 81.0107 120.222 82.9461 120.222C84.8816 120.222 86.4556 118.648 86.4556 116.713C86.4556 114.778 84.8811 113.204 82.9461 113.204Z" fill="#AFB600"/>
<path d="M83.8851 118.588L82.1875 116.89L83.0574 116.02L83.8851 116.848L92.0319 108.702L92.9014 109.571L83.8851 118.588Z" fill="#637F0D"/>
<path d="M105.391 121.862C102.552 121.862 100.242 119.552 100.242 116.713C100.242 113.874 102.552 111.563 105.391 111.563C108.231 111.563 110.541 113.873 110.541 116.713C110.541 119.552 108.231 121.862 105.391 121.862ZM105.391 113.204C103.456 113.204 101.882 114.778 101.882 116.713C101.882 118.648 103.456 120.222 105.391 120.222C107.326 120.222 108.9 118.648 108.9 116.713C108.9 114.778 107.326 113.204 105.391 113.204Z" fill="#AFB600"/>
<path d="M106.33 118.588L104.633 116.89L105.502 116.02L106.33 116.848L114.477 108.702L115.346 109.571L106.33 118.588Z" fill="#637F0D"/>
<path d="M38.0243 141.339C35.1848 141.339 32.875 139.029 32.875 136.189C32.875 133.35 35.1848 131.04 38.0243 131.04C40.8637 131.04 43.1735 133.35 43.1735 136.189C43.174 139.029 40.8637 141.339 38.0243 141.339ZM38.0243 132.68C36.0893 132.68 34.5148 134.254 34.5148 136.189C34.5148 138.124 36.0889 139.699 38.0243 139.699C39.9593 139.699 41.5337 138.124 41.5337 136.189C41.5337 134.254 39.9597 132.68 38.0243 132.68Z" fill="#AFB600"/>
<path d="M38.9632 138.064L37.2656 136.367L38.1355 135.497L38.9632 136.325L47.11 128.178L47.9795 129.048L38.9632 138.064Z" fill="#637F0D"/>
<path d="M60.4696 141.339C57.6301 141.339 55.3203 139.029 55.3203 136.189C55.3203 133.35 57.6301 131.04 60.4696 131.04C63.309 131.04 65.6193 133.35 65.6193 136.189C65.6193 139.029 63.309 141.339 60.4696 141.339ZM60.4696 132.68C58.5346 132.68 56.9601 134.254 56.9601 136.189C56.9601 138.124 58.5342 139.699 60.4696 139.699C62.405 139.699 63.979 138.124 63.979 136.189C63.9795 134.254 62.405 132.68 60.4696 132.68Z" fill="#AFB600"/>
<path d="M61.4085 138.064L59.7109 136.367L60.5808 135.497L61.4085 136.325L69.5554 128.178L70.4248 129.048L61.4085 138.064Z" fill="#637F0D"/>
<path d="M82.9461 141.339C80.1067 141.339 77.7969 139.029 77.7969 136.189C77.7969 133.35 80.1067 131.04 82.9461 131.04C85.7856 131.04 88.0954 133.35 88.0954 136.189C88.0954 139.029 85.7852 141.339 82.9461 141.339ZM82.9461 132.68C81.0112 132.68 79.4367 134.254 79.4367 136.189C79.4367 138.124 81.0107 139.699 82.9461 139.699C84.8816 139.699 86.4556 138.124 86.4556 136.189C86.4556 134.254 84.8811 132.68 82.9461 132.68Z" fill="#B3CEFF"/>
<path d="M105.391 141.339C102.552 141.339 100.242 139.029 100.242 136.189C100.242 133.35 102.552 131.04 105.391 131.04C108.231 131.04 110.541 133.35 110.541 136.189C110.541 139.029 108.231 141.339 105.391 141.339ZM105.391 132.68C103.456 132.68 101.882 134.254 101.882 136.189C101.882 138.124 103.456 139.699 105.391 139.699C107.326 139.699 108.9 138.124 108.9 136.189C108.9 134.254 107.326 132.68 105.391 132.68Z" fill="#B3CEFF"/>
<path d="M38.0243 160.815C35.1848 160.815 32.875 158.505 32.875 155.666C32.875 152.827 35.1848 150.516 38.0243 150.516C40.8637 150.516 43.1735 152.826 43.1735 155.666C43.1735 158.506 40.8637 160.815 38.0243 160.815ZM38.0243 152.157C36.0893 152.157 34.5148 153.731 34.5148 155.666C34.5148 157.601 36.0889 159.176 38.0243 159.176C39.9593 159.176 41.5337 157.601 41.5337 155.666C41.5337 153.731 39.9597 152.157 38.0243 152.157Z" fill="#B3CEFF"/>
<path d="M60.4696 160.815C57.6301 160.815 55.3203 158.505 55.3203 155.666C55.3203 152.827 57.6301 150.516 60.4696 150.516C63.309 150.516 65.6193 152.826 65.6193 155.666C65.6193 158.506 63.309 160.815 60.4696 160.815ZM60.4696 152.157C58.5346 152.157 56.9601 153.731 56.9601 155.666C56.9601 157.601 58.5342 159.176 60.4696 159.176C62.405 159.176 63.979 157.601 63.979 155.666C63.979 153.731 62.405 152.157 60.4696 152.157Z" fill="#B3CEFF"/>
<path d="M82.9461 160.815C80.1067 160.815 77.7969 158.505 77.7969 155.666C77.7969 152.827 80.1067 150.516 82.9461 150.516C85.7856 150.516 88.0954 152.826 88.0954 155.666C88.0954 158.506 85.7852 160.815 82.9461 160.815ZM82.9461 152.157C81.0112 152.157 79.4367 153.731 79.4367 155.666C79.4367 157.601 81.0107 159.176 82.9461 159.176C84.8816 159.176 86.4556 157.601 86.4556 155.666C86.4556 153.731 84.8811 152.157 82.9461 152.157Z" fill="#B3CEFF"/>
<path d="M105.391 160.815C102.552 160.815 100.242 158.505 100.242 155.666C100.242 152.827 102.552 150.516 105.391 150.516C108.231 150.516 110.541 152.826 110.541 155.666C110.541 158.506 108.231 160.815 105.391 160.815ZM105.391 152.157C103.456 152.157 101.882 153.731 101.882 155.666C101.882 157.601 103.456 159.176 105.391 159.176C107.326 159.176 108.9 157.601 108.9 155.666C108.9 153.731 107.326 152.157 105.391 152.157Z" fill="#B3CEFF"/>
<path d="M30.8527 174.31H12.0043C11.1778 174.31 10.5078 173.64 10.5078 172.814V169.494C10.5078 168.668 11.1778 167.998 12.0043 167.998H30.8527C31.6792 167.998 32.3492 168.668 32.3492 169.494V172.814C32.3488 173.64 31.6788 174.31 30.8527 174.31Z" fill="#FF833E"/>
<path d="M25.5949 174.31H6.74646C5.92001 174.31 5.25 173.64 5.25 172.814V169.494C5.25 168.668 5.92001 167.998 6.74646 167.998H25.5949C26.4214 167.998 27.0914 168.668 27.0914 169.494V172.814C27.091 173.64 26.4214 174.31 25.5949 174.31Z" fill="#FFA840"/>
<path d="M15.3495 174.31V167.998H6.48082C5.8011 167.998 5.25 168.549 5.25 169.229V173.08C5.25 173.759 5.8011 174.31 6.48082 174.31H15.3495Z" fill="#FFC943"/>
<path d="M18.8032 167.998H16.5625V174.31H18.8032V167.998Z" fill="#FFC943"/>
<path d="M21.168 167.998H19.9844V174.31H21.168V167.998Z" fill="#FFC943"/>
<path d="M25.6027 168.03H6.75427C5.92782 168.03 5.25781 167.36 5.25781 166.533V163.213C5.25781 162.387 5.92782 161.717 6.75427 161.717H25.6027C26.4292 161.717 27.0992 162.387 27.0992 163.213V166.533C27.0988 167.36 26.4292 168.03 25.6027 168.03Z" fill="#FF833E"/>
<path d="M20.3449 168.03H1.49646C0.670012 168.03 0 167.36 0 166.533V163.213C0 162.387 0.670012 161.717 1.49646 161.717H20.3449C21.1714 161.717 21.8414 162.387 21.8414 163.213V166.533C21.841 167.36 21.1714 168.03 20.3449 168.03Z" fill="#FFA840"/>
<path d="M10.0995 168.03V161.718H1.23082C0.551106 161.718 0 162.269 0 162.948V166.799C0 167.479 0.551106 168.03 1.23082 168.03H10.0995Z" fill="#FFC943"/>
<path d="M13.5532 161.717H11.3125V168.029H13.5532V161.717Z" fill="#FFC943"/>
<path d="M15.918 161.717H14.7344V168.029H15.918V161.717Z" fill="#FFC943"/>
<path d="M27.384 161.748H8.53552C7.70908 161.748 7.03906 161.078 7.03906 160.252V156.932C7.03906 156.106 7.70908 155.436 8.53552 155.436H27.384C28.2104 155.436 28.8805 156.106 28.8805 156.932V160.252C28.88 161.079 28.2104 161.748 27.384 161.748Z" fill="#FF833E"/>
<path d="M22.1262 161.748H3.27771C2.45126 161.748 1.78125 161.078 1.78125 160.252V156.932C1.78125 156.106 2.45126 155.436 3.27771 155.436H22.1262C22.9526 155.436 23.6226 156.106 23.6226 156.932V160.252C23.6226 161.079 22.9526 161.748 22.1262 161.748Z" fill="#FFA840"/>
<path d="M11.8808 161.748V155.436H3.01207C2.33235 155.436 1.78125 155.987 1.78125 156.667V160.518C1.78125 161.197 2.33235 161.748 3.01207 161.748H11.8808Z" fill="#FFC943"/>
<path d="M15.3344 155.436H13.0938V161.748H15.3344V155.436Z" fill="#FFC943"/>
<path d="M17.6992 155.436H16.5156V161.748H17.6992V155.436Z" fill="#FFC943"/>
<path d="M25.6027 155.468H6.75427C5.92782 155.468 5.25781 154.798 5.25781 153.971V150.652C5.25781 149.825 5.92782 149.155 6.75427 149.155H25.6027C26.4292 149.155 27.0992 149.825 27.0992 150.652V153.971C27.0988 154.798 26.4292 155.468 25.6027 155.468Z" fill="#FF833E"/>
<path d="M20.3449 155.468H1.49646C0.670012 155.468 0 154.798 0 153.971V150.652C0 149.825 0.670012 149.155 1.49646 149.155H20.3449C21.1714 149.155 21.8414 149.825 21.8414 150.652V153.971C21.841 154.798 21.1714 155.468 20.3449 155.468Z" fill="#FFA840"/>
<path d="M10.0995 155.468V149.156H1.23082C0.551106 149.156 0 149.707 0 150.387V154.237C0 154.917 0.551106 155.468 1.23082 155.468H10.0995Z" fill="#FFC943"/>
<path d="M13.5532 149.155H11.3125V155.467H13.5532V149.155Z" fill="#FFC943"/>
<path d="M15.918 149.155H14.7344V155.467H15.918V149.155Z" fill="#FFC943"/>
<path d="M27.384 149.187H8.53552C7.70908 149.187 7.03906 148.517 7.03906 147.691V144.371C7.03906 143.545 7.70908 142.875 8.53552 142.875H27.384C28.2104 142.875 28.8805 143.545 28.8805 144.371V147.691C28.88 148.518 28.2104 149.187 27.384 149.187Z" fill="#FF833E"/>
<path d="M22.1262 149.187H3.27771C2.45126 149.187 1.78125 148.517 1.78125 147.691V144.371C1.78125 143.545 2.45126 142.875 3.27771 142.875H22.1262C22.9526 142.875 23.6226 143.545 23.6226 144.371V147.691C23.6226 148.518 22.9526 149.187 22.1262 149.187Z" fill="#FFA840"/>
<path d="M11.8808 149.187V142.875H3.01207C2.33235 142.875 1.78125 143.426 1.78125 144.106V147.956C1.78125 148.636 2.33235 149.187 3.01207 149.187H11.8808Z" fill="#FFC943"/>
<path d="M15.3344 142.875H13.0938V149.187H15.3344V142.875Z" fill="#FFC943"/>
<path d="M17.6992 142.875H16.5156V149.187H17.6992V142.875Z" fill="#FFC943"/>
<path d="M140.905 96.8953L140.43 162.016L146.425 162.06L146.901 96.939L140.905 96.8953Z" fill="#FFB692"/>
<path d="M147.291 153.841H139.68V162.883H147.291V153.841Z" fill="#8F78FF"/>
<path d="M147.291 156.433H139.68V158.619H147.291V156.433Z" fill="#6636CE"/>
<path d="M140.672 127.824H146.668L146.756 124.939H140.76L140.672 127.824Z" fill="#B77674"/>
<path d="M139.254 126.382L138.992 96.4965L147.835 96.437L148.097 126.323L139.254 126.382Z" fill="#8F78FF"/>
<path d="M140.52 88.9507H134.244C129.615 88.9507 125.828 92.738 125.828 97.3669C125.828 101.996 129.615 105.783 134.244 105.783H140.52C145.149 105.783 148.936 101.996 148.936 97.3669C148.936 92.738 145.149 88.9507 140.52 88.9507Z" fill="#8F78FF"/>
<path d="M134.449 96.9013L128.453 96.9451L128.929 162.066L134.924 162.022L134.449 96.9013Z" fill="#FFB692"/>
<path d="M135.502 153.841H127.891V162.883H135.502V153.841Z" fill="#8F78FF"/>
<path d="M135.502 156.433H127.891V158.619H135.502V156.433Z" fill="#6636CE"/>
<path d="M134.678 127.824H128.682L128.594 124.939H134.59L134.678 127.824Z" fill="#B77674"/>
<path d="M136.101 126.382L136.362 96.4965L127.519 96.437L127.258 126.323L136.101 126.382Z" fill="#8F78FF"/>
<path d="M139.247 126.382L139.227 122.24L148.079 122.236L148.09 126.377L139.247 126.382Z" fill="#6636CE"/>
<path d="M136.101 126.382L136.121 122.24L127.268 122.236L127.258 126.377L136.101 126.382Z" fill="#6636CE"/>
<path d="M126.716 161.001L126.762 166.376C126.762 166.376 121.163 166.47 119.523 173.879L136.28 173.863V161.001H126.716Z" fill="#FF833E"/>
<path d="M127.143 164.406H130.47C130.964 164.406 131.363 164.006 131.363 163.513C131.363 163.02 130.964 162.62 130.47 162.62H127.143C126.65 162.62 126.25 163.02 126.25 163.513C126.25 164.006 126.65 164.406 127.143 164.406Z" fill="#1D3244"/>
<path d="M127.143 166.996H130.47C130.964 166.996 131.363 166.597 131.363 166.103C131.363 165.61 130.964 165.21 130.47 165.21H127.143C126.65 165.21 126.25 165.61 126.25 166.103C126.25 166.597 126.65 166.996 127.143 166.996Z" fill="#1D3244"/>
<path d="M122.81 168.014C123.871 169.094 124.884 170.931 124.442 173.874L119.523 173.879C120.184 170.893 121.488 169.096 122.81 168.014Z" fill="#1D3244"/>
<path d="M136.655 173.484H119.234V175H136.655V173.484Z" fill="#8F78FF"/>
<path d="M138.841 161.001L138.887 166.376C138.887 166.376 133.288 166.47 131.648 173.879L148.405 173.863V161.001H138.841Z" fill="#FFA840"/>
<path d="M139.268 164.406H142.595C143.089 164.406 143.488 164.006 143.488 163.513C143.488 163.02 143.089 162.62 142.595 162.62H139.268C138.775 162.62 138.375 163.02 138.375 163.513C138.375 164.006 138.775 164.406 139.268 164.406Z" fill="#1D3244"/>
<path d="M139.268 166.996H142.595C143.089 166.996 143.488 166.597 143.488 166.103C143.488 165.61 143.089 165.21 142.595 165.21H139.268C138.775 165.21 138.375 165.61 138.375 166.103C138.375 166.597 138.775 166.996 139.268 166.996Z" fill="#1D3244"/>
<path d="M134.935 168.014C135.996 169.094 137.009 170.931 136.567 173.874L131.648 173.879C132.31 170.893 133.614 169.096 134.935 168.014Z" fill="#1D3244"/>
<path d="M148.78 173.484H131.359V175H148.78V173.484Z" fill="#9B8DFF"/>
<path d="M129.273 61.9541C122.025 74.0742 118.106 88.3966 87.75 76.4114" stroke="#FFB692" stroke-width="10" stroke-miterlimit="10"/>
<path d="M125.683 62.8244C124.345 64.6683 121.88 67.6085 118.242 70.1975L123.537 76.0172C123.537 76.0172 127.918 72.9968 132.161 67.9218C134.913 64.6312 131.879 62.6987 129.405 61.7466C128.06 61.2288 126.53 61.6581 125.683 62.8244Z" fill="#464668"/>
<path d="M88.523 78.9354C91.7457 77.0152 88.1549 72.9078 88.1549 72.9078L87.9596 69.1028C87.9596 69.1028 84.5779 69.4241 85.4862 72.705C85.4862 72.705 81.7216 69.7171 79.6618 70.0342C78.6946 70.1831 76.3518 73.1743 75.9745 75.1789C75.8943 75.6039 76.1785 76.0078 76.6053 76.0766C77.6307 76.2423 79.6378 76.7736 80.9901 78.4598C82.874 80.8092 86.6394 82.8804 88.523 78.9354Z" fill="#FFB692"/>
<path d="M85.4828 72.7051C85.4828 72.7051 83.6102 74.7754 85.3985 77.4896C85.3985 77.4896 84.2432 74.8273 85.6519 72.8421L85.4828 72.7051Z" fill="#D88D87"/>
<path d="M82.337 77.2901C82.337 77.2901 82.7865 75.0727 84.2913 73.3801C84.2913 73.3801 81.9263 73.9924 82.337 77.2901Z" fill="#D88D87"/>
<path d="M82.5252 76.4547L82.5433 76.2713C82.5433 76.2713 79.2401 74.3186 76.0819 74.7403C76.0633 74.8019 76.0464 74.8626 76.0312 74.9229C77.2385 74.8887 80.1104 74.987 82.5252 76.4547Z" fill="#D88D87"/>
<path d="M83.4614 74.0803L83.6849 73.8834C83.6849 73.8834 81.1115 71.0351 78.2139 71.1486C77.7353 71.6862 77.242 72.365 76.8359 73.0684C77.7699 73.0667 80.5372 73.2425 82.7986 75.2268L82.931 75.04C82.931 75.04 80.3517 72.1656 77.118 72.7336L78.0195 71.3822C78.0195 71.3822 81.1229 71.3674 83.4614 74.0803Z" fill="#D88D87"/>
<path d="M125.406 95.3511C125.4 96.4213 126.003 97.4088 126.969 97.8701C129.106 98.8914 132.21 100.01 136.063 100.28C141.487 100.661 145.843 99.1823 148.444 97.9861C149.424 97.5353 150.047 96.5503 150.053 95.4722C150.105 85.7462 150.157 76.8337 150.209 67.1655C150.239 61.5815 145.736 57.0293 140.152 56.9998L135.058 56.9728C129.844 56.945 125.594 61.1497 125.567 66.3639L125.406 95.3511Z" fill="#1D3244"/>
<path d="M137.215 63.2815C141.325 63.2815 144.657 61.7187 144.657 59.791C144.657 57.8633 141.325 56.3005 137.215 56.3005C133.105 56.3005 129.773 57.8633 129.773 59.791C129.773 61.7187 133.105 63.2815 137.215 63.2815Z" fill="#FFB692"/>
<path d="M136.98 31.3201H137.406C140.144 31.3201 142.363 34.7861 142.363 39.0617V60.2592H132.023V39.0621C132.023 34.7865 134.242 31.3201 136.98 31.3201Z" fill="#FFB692"/>
<path d="M136.98 31.3201H137.407C140.144 31.3201 142.363 34.5335 142.363 38.4975V52.9797C142.363 55.8348 140.049 58.1497 137.193 58.1497C134.338 58.1497 132.023 55.8352 132.023 52.9797V38.4975C132.023 34.5335 134.243 31.3201 136.98 31.3201Z" fill="#D88D87"/>
<path d="M131.641 48.6441H142.785C145.422 48.6441 147.56 46.5067 147.56 43.8697V37.3821C147.56 31.6678 142.927 27.0359 137.213 27.0359C131.5 27.0359 126.867 31.6682 126.867 37.3821V43.8697C126.867 46.5063 129.004 48.6441 131.641 48.6441Z" fill="#252538"/>
<path d="M126.73 42.7661H147.679C148.595 42.7661 149.338 42.0231 149.338 41.1064C149.338 40.1897 148.595 39.4468 147.679 39.4468H126.73C125.813 39.4468 125.07 40.1897 125.07 41.1064C125.07 42.0231 125.813 42.7661 126.73 42.7661Z" fill="#D88D87"/>
<path d="M147.699 41.9115C148.142 41.9115 148.503 41.5505 148.503 41.1069C148.503 40.6629 148.142 40.302 147.699 40.302H126.75C126.306 40.302 125.945 40.6629 125.945 41.1069C125.945 41.5505 126.306 41.9115 126.75 41.9115H147.699Z" fill="#AA635F"/>
<path d="M137.209 55.3203C142.325 55.3203 146.472 51.1729 146.472 46.0569V37.2633C146.472 32.3585 142.496 28.3823 137.591 28.3823H136.826C131.922 28.3823 127.945 32.3585 127.945 37.2633V46.0569C127.945 51.1729 132.093 55.3203 137.209 55.3203Z" fill="#FFB692"/>
<path d="M140.19 33.3948L146.349 35.5343C148.081 30.5482 145.443 25.1021 140.457 23.37L134.297 21.2305C132.565 26.217 135.203 31.6631 140.19 33.3948Z" fill="#252538"/>
<path d="M134.092 32.3792L138.609 32.7174C138.883 29.0599 136.14 25.8731 132.482 25.5994L127.964 25.2612C127.691 28.9187 130.434 32.1056 134.092 32.3792Z" fill="#252538"/>
<path d="M129.981 30.5378C135.081 31.9082 139.048 29.2644 139.048 29.2644C139.048 29.2644 143.345 31.193 146.464 29.6434C146.074 28.3506 145.413 27.1498 144.524 26.126C142.828 27.5605 140.66 28.3827 138.018 27.4373C138.018 27.4373 134.32 31.4161 128.039 26.8158C128.271 28.2566 128.964 29.5566 129.981 30.5378Z" fill="#464668"/>
<path d="M57.0186 51.8686L86.6222 34.2126C88.2174 33.2613 90.2717 33.8048 91.2107 35.4265L120.364 85.7635C121.304 87.3852 120.772 89.4711 119.177 90.4224L89.5734 108.078C87.9783 109.03 85.924 108.486 84.9849 106.864L55.8312 56.5271C54.8921 54.9054 55.4234 52.8199 57.0186 51.8686Z" fill="#E71C2E"/>
<path d="M105.572 60.2175L75.4297 90.3605L78.1941 95.1337L108.337 64.9911L105.572 60.2175Z" fill="#F94E4E"/>
<path d="M66.0703 74.205L72.6288 85.5286L102.771 55.3861L96.2129 44.0625L66.0703 74.205Z" fill="#F94E4E"/>
<path d="M109.034 66.1987L78.8906 96.3413L80.2134 98.625L110.356 68.4824L109.034 66.1987Z" fill="#F94E4E"/>
<path d="M70.0703 44.0822L75.0218 41.1289L107.577 97.3387L102.625 100.292L70.0703 44.0822Z" fill="#1D3244"/>
<path d="M80.5625 74.8916L84.0736 72.7976L98.7022 98.0544L95.191 100.149L80.5625 74.8916Z" fill="white"/>
<path d="M80.125 44.8353L83.6366 42.741L111.315 90.532L107.804 92.6259L80.125 44.8353Z" fill="#912C55"/>
<path d="M70.1342 50.6191L75.7245 60.2717L66.2314 65.9337L60.6406 56.2811L70.1342 50.6191Z" fill="#912C55"/>
<path d="M112.679 85.1961C113.534 81.8768 108.562 81.5226 108.562 81.5226L105.987 79.1794C105.987 79.1794 103.999 81.5635 106.7 83.108C106.7 83.108 103.693 83.8586 101.55 82.9769C98.9335 81.9008 100.292 88.4327 102.504 90.264C103.706 91.2586 105.543 89.8385 107.504 90.0624C110.239 90.3748 113.995 88.9678 112.679 85.1961Z" fill="#FFB692"/>
<path d="M106.63 86.6914L106.69 86.9372C106.69 86.9372 103.562 88.1225 100.809 87.6245C100.753 87.482 100.699 87.3386 100.648 87.1936C101.734 87.4963 103.768 87.7388 106.63 86.6914Z" fill="#D88D87"/>
<path d="M106.948 88.539C106.948 88.539 104.139 89.6378 101.89 89.6003C101.796 89.478 101.705 89.3473 101.617 89.2111C102.576 89.2465 104.519 89.171 106.89 88.2742L106.948 88.539Z" fill="#D88D87"/>
<path d="M106.359 84.9845C106.359 84.9845 103.206 86.2903 100.16 85.0726C100.138 84.8592 100.125 84.6543 100.125 84.4612C101.301 84.9722 103.458 85.5604 106.307 84.8183L106.359 84.9845Z" fill="#D88D87"/>
<path d="M116.792 88.0491C112.52 88.0491 109.628 87.5557 109.438 87.5224L110.164 83.3687C110.233 83.3805 117.175 84.5506 125.275 83.1014C135.86 81.2085 143.373 75.9425 147.608 67.4495L151.381 69.3309C146.569 78.983 137.753 85.1881 125.884 87.2758C122.539 87.8644 119.406 88.0491 116.792 88.0491Z" fill="#FFB692"/>
<path d="M116.792 88.0491C112.52 88.0491 109.628 87.5557 109.438 87.5224L110.164 83.3687C110.233 83.3805 117.175 84.5506 125.275 83.1014C135.86 81.2085 143.373 75.9425 147.608 67.4495L151.381 69.3309C146.569 78.983 137.753 85.1881 125.884 87.2758C122.539 87.8644 119.406 88.0491 116.792 88.0491Z" fill="#FFB692"/>
<path d="M144.681 64.1579C144.217 66.3889 143.176 70.0813 140.922 73.9353L148.139 77.069C148.139 77.069 151.772 72.7002 152.681 66.1473C153.142 62.825 150.698 61.1165 148.051 61.2637C146.612 61.3433 144.974 62.747 144.681 64.1579Z" fill="#464668"/>
<path d="M28.5474 52.5843C39.9734 52.0925 48.8373 42.4313 48.3455 31.0053C47.8538 19.5794 38.1926 10.7155 26.7666 11.2072C15.3407 11.699 6.47677 21.3602 6.96853 32.7862C7.46029 44.2121 17.1215 53.076 28.5474 52.5843Z" fill="#D7E7FF"/>
<path d="M50.6177 26.7067C51.2972 14.0245 41.567 3.19264 28.8847 2.51319C16.2025 1.83374 5.37065 11.5639 4.69119 24.2462C4.01174 36.9285 13.7419 47.7603 26.4242 48.4397C39.1065 49.1192 49.9383 39.389 50.6177 26.7067Z" fill="#FFC943"/>
<path d="M5.46875 31.4999C6.77167 36.3005 9.61785 40.6743 13.7783 43.8153L45.9912 11.6028C44.0946 9.09394 41.6557 6.93211 38.7202 5.32096C37.0905 4.4262 35.3988 3.75619 33.6805 3.28857L5.46875 31.4999Z" fill="#FFD983"/>
<path d="M46.618 12.4731L14.6484 44.4427C15.0663 44.7286 15.4993 44.9985 15.9408 45.2595L47.4403 13.76C47.1814 13.3228 46.9064 12.8944 46.618 12.4731Z" fill="#FFD983"/>
<path d="M48.4501 15.6655L17.8438 46.2719C18.8642 46.7547 19.9035 47.1582 20.9556 47.4799L49.6518 18.7837C49.3276 17.7182 48.9257 16.6758 48.4501 15.6655Z" fill="#FFD983"/>
<path d="M32.6345 45.5817C43.7357 42.8325 50.5062 31.6045 47.757 20.5033C45.0077 9.40216 33.7797 2.63162 22.6785 5.38089C11.5774 8.13016 4.80685 19.3581 7.55612 30.4593C10.3054 41.5605 21.5334 48.331 32.6345 45.5817Z" fill="#FF833E"/>
<path d="M44.2344 34.3821C49.1515 25.2275 45.7163 13.8202 36.5617 8.90317C27.4072 3.98611 15.9999 7.42127 11.0828 16.5758C6.16576 25.7304 9.60092 37.1377 18.7555 42.0547C27.91 46.9718 39.3173 43.5366 44.2344 34.3821Z" fill="#D7E7FF"/>
<path d="M28.1013 41.7065C37.0641 41.4591 44.1292 33.9927 43.8818 25.0299C43.6343 16.0671 36.1679 9.00195 27.2051 9.24942C18.2423 9.49689 11.1772 16.9633 11.4246 25.9261C11.6721 34.8888 19.1385 41.954 28.1013 41.7065Z" fill="white"/>
<path d="M12.4688 33.621C12.6083 33.8685 12.7559 34.116 12.9077 34.3564L14.4278 33.3975C14.2916 33.1816 14.1592 32.9598 14.0339 32.738L12.4688 33.621Z" fill="#1D3244"/>
<path d="M28.0171 8.28924C27.735 8.27744 27.4478 8.2728 27.1641 8.27491L27.1776 10.0724C27.4322 10.0703 27.6899 10.075 27.9429 10.0851L28.0171 8.28924Z" fill="#1D3244"/>
<path d="M20.093 11.8155L19.2658 10.22C19.0136 10.3507 18.761 10.4898 18.5156 10.6332L19.4222 12.1849C19.6414 12.0571 19.867 11.9327 20.093 11.8155Z" fill="#1D3244"/>
<path d="M13.8536 17.9068C13.9721 17.6909 14.0973 17.4755 14.2259 17.2659L12.6944 16.3252C12.5502 16.5596 12.4103 16.8012 12.2779 17.042L12.2656 17.0644L13.8414 17.9292L13.8536 17.9068Z" fill="#1D3244"/>
<path d="M10.2116 24.9458C10.2091 25.23 10.2137 25.518 10.2255 25.8013L12.0214 25.7267C12.0108 25.4733 12.0066 25.2161 12.0091 24.9618L10.2116 24.9458Z" fill="#1D3244"/>
<path d="M19.6384 38.52L18.7031 40.0544C18.9393 40.1982 19.1821 40.339 19.4246 40.4723L19.4402 40.4811L20.305 38.9054L20.2894 38.8966C20.0706 38.7764 19.8517 38.6499 19.6384 38.52Z" fill="#1D3244"/>
<path d="M41.0703 33.7092L42.6005 34.652C42.7472 34.4138 42.891 34.1671 43.0272 33.9188L43.031 33.912L41.4519 33.054C41.3296 33.2762 41.2014 33.4963 41.0703 33.7092Z" fill="#1D3244"/>
<path d="M42.8422 17.3557C42.7023 17.1074 42.5551 16.8603 42.4041 16.6204L40.8828 17.5775C41.0182 17.7926 41.1506 18.0148 41.2762 18.2378L42.8422 17.3557Z" fill="#1D3244"/>
<path d="M27.3415 40.8752L27.2656 42.6707C27.5486 42.6829 27.8357 42.6879 28.1186 42.6858L28.1073 40.8887C27.853 40.8909 27.5954 40.8862 27.3415 40.8752Z" fill="#1D3244"/>
<path d="M45.0771 25.1782L43.2812 25.2503C43.2914 25.5046 43.2952 25.7618 43.2926 26.0148L45.0897 26.0342C45.0927 25.7504 45.0885 25.4624 45.0771 25.1782Z" fill="#1D3244"/>
<path d="M35.1953 39.1529L36.0209 40.7493C36.2748 40.6181 36.5273 40.4794 36.7715 40.3369L35.8666 38.7839C35.6482 38.9113 35.4222 39.0357 35.1953 39.1529Z" fill="#1D3244"/>
<path d="M36.6183 10.9163C36.3763 10.7683 36.1279 10.6245 35.8808 10.4887L35.8492 10.4714L34.9844 12.0472L35.016 12.0645C35.2391 12.1867 35.463 12.3166 35.6814 12.4503L36.6183 10.9163Z" fill="#1D3244"/>
<path d="M28.7035 23.5746C29.7378 24.1421 30.116 25.4408 29.5485 26.4752C28.9809 27.5095 27.6822 27.8877 26.6479 27.3202C25.6136 26.7526 25.2354 25.4539 25.8029 24.4196C26.3709 23.3853 27.6692 23.0066 28.7035 23.5746Z" fill="#1D3244"/>
<path d="M27.3324 24.3824C26.9984 24.3774 26.7294 24.0999 26.7344 23.766L26.9238 13.7955C26.9288 13.4615 27.2063 13.1925 27.5402 13.1976C27.8742 13.2026 28.1432 13.4801 28.1381 13.814L27.9488 23.7845C27.9438 24.1185 27.6663 24.3875 27.3324 24.3824Z" fill="#1D3244"/>
<path d="M27.9001 25.4844C27.7268 25.1989 27.8187 24.8232 28.1042 24.6499L32.4329 22.0239C32.7184 21.8506 33.0941 21.9425 33.2674 22.2284C33.4407 22.5138 33.3488 22.8895 33.0629 23.0624L28.7341 25.6885C28.4491 25.8622 28.0734 25.7703 27.9001 25.4844Z" fill="#1D3244"/>
<path d="M28.1528 24.5791C28.6596 24.8574 28.8451 25.4941 28.5668 26.0009C28.2885 26.5077 27.6518 26.6933 27.145 26.415C26.6382 26.1367 26.4526 25.5 26.7309 24.9931C27.0092 24.4863 27.6455 24.3008 28.1528 24.5791Z" fill="#D7E7FF"/>
</svg>
